<svg width="108" height="88" viewBox="0 0 108 88" fill="none" xmlns="http://www.w3.org/2000/svg">
<path d="M48.9114 45.1522L48.9113 45.1518L43.551 18.932C42.7881 15.1867 39.1144 12.7614 35.3704 13.5241L35.3697 13.5242L21.7833 16.308C21.7831 16.308 21.7828 16.3081 21.7826 16.3081C18.014 17.0715 15.6124 20.7472 16.3745 24.4887L16.3746 24.4892L21.7348 50.7081C22.4978 54.4772 26.1737 56.8791 29.9155 56.1169L29.9163 56.1167L43.5027 53.333C43.5029 53.333 43.5031 53.3329 43.5032 53.3329C47.2719 52.5696 49.6736 48.8938 48.9114 45.1522Z" fill="white" stroke="#009CBB" stroke-width="1.4" stroke-miterlimit="10"/>
<path d="M33.8649 39.5853C33.2426 39.7242 32.6544 39.7254 32.1006 39.5891C31.5468 39.4528 31.0715 39.2024 30.6746 38.8381C30.2778 38.4737 30.0037 38.0188 29.8524 37.4735L31.1255 37.1895C31.2846 37.67 31.5981 38.027 32.066 38.2604C32.5366 38.4896 33.0494 38.5422 33.6046 38.4184C34.0502 38.319 34.423 38.1263 34.723 37.8404C35.0266 37.5536 35.2368 37.206 35.3535 36.7976C35.4731 36.3849 35.4812 35.9469 35.3779 35.4836C35.2722 35.0098 35.0736 34.6105 34.7821 34.2857C34.4934 33.9566 34.1446 33.7244 33.7358 33.5892C33.327 33.4539 32.8906 33.4362 32.4265 33.536C32.0933 33.6066 31.7635 33.734 31.4371 33.9182C31.1099 34.0988 30.8512 34.2957 30.6612 34.5089L29.3974 34.6348L28.8625 29.1412L34.5065 27.8823L34.7668 29.0493L30.2262 30.0621L30.5589 33.3512L30.6225 33.337C30.8059 33.1105 31.0525 32.9014 31.3624 32.7098C31.6723 32.5181 32.0094 32.3817 32.3737 32.3004C33.0385 32.1522 33.6663 32.1792 34.2571 32.3815C34.8507 32.5795 35.3572 32.9194 35.7765 33.4013C36.1993 33.8823 36.4892 34.4747 36.6462 35.1785C36.8008 35.8716 36.7832 36.5251 36.5935 37.1391C36.4065 37.7488 36.0776 38.2714 35.6068 38.7068C35.1351 39.1387 34.5545 39.4315 33.8649 39.5853Z" fill="#009CBB"/>
<path d="M64.8516 63.6314L64.8515 63.632C63.743 67.3038 59.8842 69.3853 56.2091 68.2762C56.2091 68.2761 56.209 68.2761 56.209 68.2761C56.2088 68.2761 56.2087 68.276 56.2085 68.276L42.9536 64.287L42.953 64.2868C39.2812 63.1784 37.1998 59.3196 38.3089 55.6445C38.3089 55.6443 38.309 55.6441 38.309 55.6439L46.017 30.0268L46.0172 30.0262C47.1257 26.3543 50.9849 24.2728 54.6601 25.3823L67.9356 29.3712L67.9376 29.3718C71.5887 30.481 73.6685 34.3399 72.5598 38.0137L64.8516 63.6314ZM64.8516 63.6314L72.5596 38.0143L64.8516 63.6314Z" fill="white" stroke="#009CBB" stroke-width="1.4" stroke-miterlimit="10"/>
<path d="M53.7852 47.6614L53.8049 47.5992C54.0202 46.9415 54.2552 46.4382 54.5098 46.0892C54.7644 45.7403 55.0508 45.4831 55.3691 45.3176C55.6873 45.1522 56.0479 45.021 56.4509 44.9241C56.694 44.8641 56.9235 44.7751 57.1394 44.6571C57.3563 44.5356 57.5469 44.3773 57.7111 44.1822C57.8788 43.9882 58.0057 43.7547 58.092 43.4818C58.1989 43.1432 58.2122 42.8244 58.1318 42.5254C58.0515 42.2265 57.8996 41.9676 57.6761 41.7488C57.4526 41.5301 57.1785 41.3694 56.8537 41.2668C56.5704 41.1773 56.2789 41.1498 55.9792 41.1844C55.6795 41.2189 55.4018 41.3345 55.1459 41.531C54.89 41.7276 54.6839 42.0253 54.5275 42.4243L53.2215 42.0118C53.4346 41.4332 53.7454 40.9785 54.1539 40.6477C54.5658 40.3181 55.0347 40.1147 55.5606 40.0376C56.0899 39.9616 56.6345 40.0121 57.1942 40.1888C57.8023 40.3809 58.2927 40.6688 58.6655 41.0525C59.0417 41.4373 59.2859 41.8792 59.398 42.3782C59.5137 42.8783 59.4864 43.3978 59.3161 43.9368C59.1961 44.3169 59.0288 44.6421 58.8142 44.9125C58.603 45.184 58.3504 45.4063 58.0564 45.5794C57.7658 45.7535 57.439 45.8859 57.076 45.9765C56.7119 46.0704 56.4051 46.1939 56.1554 46.3468C55.9068 46.4963 55.6958 46.7013 55.5223 46.9619C55.3488 47.2225 55.1909 47.5659 55.0487 47.9921L55.029 48.0543L53.7852 47.6614ZM53.4795 50.939C53.2238 50.8583 53.0334 50.6974 52.9081 50.4564C52.7828 50.2155 52.7606 49.9672 52.8413 49.7115C52.9221 49.4558 53.0829 49.2654 53.3239 49.1401C53.5648 49.0148 53.8131 48.9925 54.0688 49.0733C54.3245 49.1541 54.515 49.3149 54.6402 49.5559C54.7655 49.7968 54.7878 50.0451 54.707 50.3008C54.6535 50.4701 54.5612 50.6119 54.4301 50.7263C54.3025 50.8418 54.1542 50.9203 53.9852 50.962C53.8208 51.0012 53.6523 50.9936 53.4795 50.939Z" fill="#009CBB"/>
<g clip-path="url(#clip0_1291_2776)">
<path d="M82.4863 33.9512L77.0313 32.6024" stroke="white" stroke-width="1.4" stroke-miterlimit="10" stroke-linecap="round" stroke-linejoin="round"/>
<path d="M80.9961 26.0381L76.1942 28.9496" stroke="white" stroke-width="1.4" stroke-miterlimit="10" stroke-linecap="round" stroke-linejoin="round"/>
<path d="M74.2168 21.25L72.8681 26.705" stroke="white" stroke-width="1.4" stroke-miterlimit="10" stroke-linecap="round" stroke-linejoin="round"/>
</g>
<defs>
<clipPath id="clip0_1291_2776">
<rect width="12.4958" height="13.3461" fill="white" transform="translate(86.3477 23.1992) rotate(103.888)"/>
</clipPath>
</defs>
</svg>
