<svg width="108" height="88" viewBox="0 0 108 88" fill="none" xmlns="http://www.w3.org/2000/svg">
<path d="M71.1363 70.3582H58.5363C55.0503 70.3582 52.2363 67.5442 52.2363 64.0582V51.4582C52.2363 47.9722 55.0503 45.1582 58.5363 45.1582H71.1363C74.6223 45.1582 77.4363 47.9722 77.4363 51.4582V64.0582C77.4363 67.5232 74.6223 70.3582 71.1363 70.3582Z" fill="white" stroke="white" stroke-width="1.4" stroke-miterlimit="10" stroke-linecap="round" stroke-linejoin="round"/>
<path d="M60.8464 55.4483H58.7464C57.8224 55.4483 57.0664 54.6923 57.0664 53.7683V51.6683C57.0664 50.7443 57.8224 49.9883 58.7464 49.9883H60.8464C61.7704 49.9883 62.5264 50.7443 62.5264 51.6683V53.7683C62.5264 54.6923 61.7704 55.4483 60.8464 55.4483Z" stroke="#009CBB" stroke-width="1.4" stroke-miterlimit="10" stroke-linecap="round" stroke-linejoin="round"/>
<path d="M70.9265 65.5284H68.8265C67.9025 65.5284 67.1465 64.7724 67.1465 63.8484V61.7484C67.1465 60.8244 67.9025 60.0684 68.8265 60.0684H70.9265C71.8505 60.0684 72.6065 60.8244 72.6065 61.7484V63.8484C72.6065 64.7724 71.8505 65.5284 70.9265 65.5284Z" stroke="#009CBB" stroke-width="1.4" stroke-miterlimit="10" stroke-linecap="round" stroke-linejoin="round"/>
<path d="M65.8027 49.9883H69.2047" stroke="#009CBB" stroke-width="1.4" stroke-miterlimit="10" stroke-linecap="round" stroke-linejoin="round"/>
<path d="M71.5977 54.3564V56.2044" stroke="#009CBB" stroke-width="1.4" stroke-miterlimit="10" stroke-linecap="round" stroke-linejoin="round"/>
<path d="M67.7773 54.3564V56.6874" stroke="#009CBB" stroke-width="1.4" stroke-miterlimit="10" stroke-linecap="round" stroke-linejoin="round"/>
<path d="M62.5273 65.5283H63.5563" stroke="#009CBB" stroke-width="1.4" stroke-miterlimit="10" stroke-linecap="round" stroke-linejoin="round"/>
<path d="M61.0547 62.2309V59.8369" stroke="#009CBB" stroke-width="1.4" stroke-miterlimit="10" stroke-linecap="round" stroke-linejoin="round"/>
<path d="M57.0664 58.6621V60.4051" stroke="#009CBB" stroke-width="1.4" stroke-miterlimit="10" stroke-linecap="round" stroke-linejoin="round"/>
<path d="M57.0664 65.4238H59.8174" stroke="#009CBB" stroke-width="1.4" stroke-miterlimit="10" stroke-linecap="round" stroke-linejoin="round"/>
<path d="M13.4495 29.1349C13.4495 29.1349 34.6595 20.3359 36.4235 19.5379C38.0195 18.8029 40.3085 19.3909 39.9305 21.6799C39.6365 24.3049 37.6205 38.8999 37.2425 41.1049C37.0115 43.0999 34.5965 43.8349 32.8535 42.7849C31.7615 42.1339 26.6585 39.0049 25.8605 38.4169C24.4325 37.4299 23.5715 35.2879 25.6085 33.2299C27.2885 31.5499 29.3465 29.3659 30.0815 28.6309C31.1735 27.4549 30.2495 26.6149 29.0945 27.4129C28.4435 27.8539 22.0805 32.0539 20.9045 32.7889C19.7495 33.5449 17.7965 34.0069 15.7595 33.3559C14.2265 32.9149 13.5125 32.7049 12.5675 32.3479C11.4755 31.9069 10.8245 30.2269 13.4495 29.1349Z" fill="white" stroke="white" stroke-width="0.6" stroke-miterlimit="10" stroke-linecap="round" stroke-linejoin="round"/>
<path d="M12.8431 37.3672L3.41406 41.3572" stroke="white" stroke-width="1.4" stroke-miterlimit="10" stroke-linecap="round" stroke-linejoin="round"/>
<path d="M15.4433 40.2021L5.02734 48.8121" stroke="white" stroke-width="1.4" stroke-miterlimit="10" stroke-linecap="round" stroke-linejoin="round"/>
<path d="M14.3946 47.3418L8.89258 53.9568" stroke="white" stroke-width="1.4" stroke-miterlimit="10" stroke-linecap="round" stroke-linejoin="round"/>
<path d="M66.223 37.4515C66.223 27.7285 58.348 19.8535 48.625 19.8535" stroke="white" stroke-width="1.4" stroke-miterlimit="10" stroke-linecap="round" stroke-linejoin="round"/>
<path d="M63.3242 34.0285C64.4372 34.9525 65.3822 36.0865 66.2012 37.4515C66.9152 36.3805 67.8602 34.7215 68.1752 32.8945" stroke="white" stroke-width="1.4" stroke-miterlimit="10" stroke-linecap="round" stroke-linejoin="round"/>
<path d="M24.7695 49.9043C24.7695 60.5513 33.4005 69.1613 44.0265 69.1613" stroke="white" stroke-width="1.4" stroke-miterlimit="10" stroke-linecap="round" stroke-linejoin="round"/>
<path d="M27.9185 53.6423C26.7005 52.6343 25.6715 51.3743 24.7685 49.9043C23.9915 51.0803 22.9625 52.8863 22.6055 54.9023" stroke="white" stroke-width="1.4" stroke-miterlimit="10" stroke-linecap="round" stroke-linejoin="round"/>
</svg>
