<svg width="24" height="24" viewBox="0 0 24 24" fill="none" xmlns="http://www.w3.org/2000/svg">
<path d="M10.1275 4.0605C9.78382 5.52836 9.73712 7.05014 9.99016 8.53631C10.2432 10.0225 10.7909 11.4431 11.601 12.7145C12.4111 13.9859 13.4673 15.0824 14.7075 15.9396C15.9476 16.7968 17.3466 17.3974 18.8223 17.706C18.0464 18.5088 17.1172 19.1475 16.0897 19.5843C15.0622 20.021 13.9575 20.2469 12.841 20.2485C12.7375 20.2485 12.6325 20.2522 12.5275 20.2485C10.5838 20.18 8.7255 19.4328 7.27544 18.1366C5.82537 16.8405 4.87518 15.0773 4.58995 13.1534C4.30471 11.2295 4.70246 9.26648 5.71409 7.60536C6.72572 5.94423 8.2873 4.68998 10.1275 4.0605ZM11.2353 2.25C11.1913 2.25015 11.1474 2.25416 11.104 2.262C8.7165 2.68689 6.57055 3.98001 5.07936 5.8924C3.58817 7.80478 2.85716 10.2012 3.02709 12.6203C3.19701 15.0394 4.25585 17.3101 5.99975 18.9952C7.74365 20.6804 10.0493 21.6608 12.4728 21.7477C12.5958 21.7522 12.7188 21.7477 12.8403 21.7477C14.4145 21.7488 15.9658 21.3707 17.363 20.6455C18.7602 19.9204 19.9623 18.8694 20.8675 17.5815C20.9409 17.4705 20.9837 17.3421 20.9917 17.2093C20.9996 17.0765 20.9725 16.944 20.913 16.825C20.8534 16.706 20.7636 16.6048 20.6526 16.5316C20.5415 16.4583 20.4131 16.4156 20.2803 16.4078C18.782 16.2763 17.334 15.802 16.0482 15.0216C14.7624 14.2413 13.6733 13.1757 12.865 11.9073C12.0567 10.6389 11.5509 9.20159 11.3866 7.70652C11.2224 6.21145 11.4041 4.69863 11.9178 3.285C11.9615 3.17185 11.9775 3.04989 11.9645 2.92929C11.9516 2.80869 11.9099 2.69294 11.8432 2.59168C11.7764 2.49041 11.6864 2.40657 11.5807 2.34714C11.4749 2.28771 11.3565 2.2544 11.2353 2.25Z" fill="#2B4554"/>
</svg>
