<svg width="189" height="281" viewBox="0 0 189 281" fill="none" xmlns="http://www.w3.org/2000/svg">
<g clip-path="url(#clip0_582_1350)">
<path d="M19.5109 279.359H170.921C180.46 279.359 188.216 271.611 188.216 262.079V18.6393C188.216 9.10793 180.46 1.35938 170.921 1.35938L19.5109 1.35938C9.9726 1.35938 2.21606 9.10793 2.21606 18.6393L2.21606 262.079C2.21606 271.611 9.9726 279.359 19.5109 279.359Z" fill="#2B4554" stroke="#009CBB" stroke-width="1.5"/>
<mask id="mask0_582_1350" style="mask-type:luminance" maskUnits="userSpaceOnUse" x="2" y="2" width="186" height="277">
<path d="M170.921 278.608H19.5109C10.3862 278.608 2.96606 271.195 2.96606 262.079L2.96606 18.6383C2.96606 9.5218 10.3862 2.1084 19.5109 2.1084L170.921 2.1084C180.046 2.1084 187.466 9.5218 187.466 18.6383V262.079C187.466 271.195 180.046 278.608 170.921 278.608Z" fill="white"/>
</mask>
<g mask="url(#mask0_582_1350)">
<path d="M170.921 278.608H19.5109C10.3862 278.608 2.96606 271.195 2.96606 262.079L2.96606 18.6383C2.96606 9.5218 10.3862 2.1084 19.5109 2.1084L170.921 2.1084C180.046 2.1084 187.466 9.5218 187.466 18.6383V262.079C187.466 271.195 180.046 278.608 170.921 278.608Z" fill="#2B4554"/>
<path d="M121.788 57.5082H67.0397C21.2155 57.5082 -15.885 20.4412 -15.885 -25.3416C-15.885 -71.1244 21.2155 -108.191 67.0397 -108.191H121.788C167.612 -108.191 204.713 -71.1244 204.713 -25.3416C204.713 20.4412 167.612 57.5082 121.788 57.5082Z" fill="#F18225"/>
<path d="M204.713 -25.3416C204.713 -2.50028 195.388 18.2372 180.447 33.2644C165.406 48.2916 144.75 57.5082 121.788 57.5082H92.1077V-108.191H121.788C167.612 -108.191 204.713 -71.1244 204.713 -25.3416Z" fill="#009CBB"/>
<path d="M-15.7847 135.248C-14.4811 114.411 -5.55695 95.5767 8.38082 81.7517C23.4216 66.7245 44.0776 57.5078 67.0398 57.5078L121.788 57.5078C123.192 57.5078 124.696 57.5078 126.1 57.608C126.802 57.608 127.504 57.7082 128.206 57.7082C129.509 57.8084 130.813 57.9085 132.016 58.1089C132.517 58.2091 133.019 58.2091 133.52 58.3093C133.72 58.3093 133.921 58.4094 134.222 58.4094C134.723 58.5096 135.225 58.6098 135.726 58.6098C135.826 58.6098 136.027 58.6098 136.127 58.71C136.628 58.8102 137.13 58.9103 137.631 59.0105C137.832 59.0105 138.032 59.1107 138.132 59.1107C138.634 59.2109 139.235 59.3111 139.737 59.4113C139.837 59.4113 139.837 59.4113 139.937 59.5114C140.539 59.6116 141.04 59.812 141.642 59.9122C141.742 59.9122 141.843 59.9122 141.943 60.0123C142.344 60.1125 142.845 60.2127 143.246 60.3129C143.647 60.4131 144.048 60.5132 144.45 60.6134C144.55 60.6134 144.65 60.6134 144.65 60.7136C145.151 60.8138 145.753 61.0142 146.254 61.2145C147.057 61.5151 147.959 61.7154 148.761 62.016C149.162 62.1161 149.563 62.3165 149.965 62.4167C150.265 62.5169 150.466 62.6171 150.767 62.7172C151.168 62.9176 151.669 63.0178 152.07 63.2181C152.17 63.2181 152.271 63.3183 152.371 63.3183C152.772 63.5187 153.273 63.719 153.675 63.9194C153.875 64.0196 154.076 64.1198 154.276 64.22C154.778 64.4203 155.279 64.6207 155.78 64.9212C155.78 64.9212 155.881 64.9212 155.881 65.0214C156.482 65.3219 157.084 65.5223 157.685 65.8228C158.187 66.1234 158.788 66.3238 159.29 66.6243C164.103 69.1288 168.715 72.0341 172.927 75.3401C173.929 76.1415 174.832 76.943 175.835 77.7444C176.336 78.1451 176.837 78.5459 177.238 79.0468C177.94 79.6479 178.642 80.3491 179.344 81.0504C180.046 81.7517 180.748 82.3527 181.35 83.054C181.751 83.5549 182.252 83.9556 182.653 84.4565C183.054 84.9574 183.556 85.3582 183.957 85.8591C184.759 86.7607 185.561 87.7625 186.363 88.6642C186.363 88.6642 186.463 88.7643 186.463 88.8645C186.865 89.3654 187.266 89.7661 187.566 90.2671C187.968 90.6678 188.268 91.1687 188.569 91.6696C188.97 92.2707 189.472 92.8718 189.873 93.4728C190.173 93.9738 190.474 94.3745 190.775 94.8754C190.875 94.9756 190.976 95.1759 191.076 95.2761C191.377 95.777 191.678 96.1777 191.978 96.5785C192.279 97.0794 192.58 97.4801 192.881 97.981C193.282 98.5821 193.583 99.2834 193.984 99.8844C194.285 100.385 194.585 100.986 194.886 101.487C195.187 101.988 195.388 102.489 195.688 102.99C195.989 103.491 196.19 103.992 196.491 104.593V104.693C196.791 105.294 197.092 105.895 197.293 106.496C197.493 106.997 197.694 107.498 197.995 107.999C198.295 108.7 198.596 109.502 198.897 110.203C198.997 110.504 199.198 110.804 199.298 111.205C199.398 111.505 199.599 111.906 199.699 112.207C200.602 114.711 201.404 117.116 202.006 119.72C202.206 120.321 202.306 121.023 202.507 121.624C202.707 122.225 202.808 122.926 202.908 123.527C203.008 124.128 203.209 124.83 203.309 125.431C203.409 126.132 203.51 126.733 203.61 127.434C203.71 128.136 203.81 128.737 203.911 129.438C204.011 130.139 204.111 130.74 204.111 131.442C204.212 132.143 204.212 132.744 204.312 133.445C204.412 134.146 204.412 134.747 204.412 135.449H-15.7847V135.248Z" fill="#009CBB"/>
<path d="M204.613 143.264C204.613 143.765 204.613 144.165 204.512 144.666C204.512 145.267 204.412 145.868 204.412 146.57C204.412 147.371 204.312 148.072 204.211 148.874C204.111 150.276 203.911 151.679 203.71 152.981C203.51 154.183 203.309 155.285 203.109 156.488C203.008 156.888 203.008 157.189 202.908 157.59C202.808 158.09 202.707 158.591 202.607 159.092C202.507 159.794 202.306 160.395 202.106 161.096C202.006 161.597 201.805 162.098 201.705 162.699C201.604 163.1 201.504 163.5 201.304 163.901C201.304 164.101 201.203 164.302 201.103 164.502C201.003 164.903 200.903 165.203 200.802 165.604C200.702 166.105 200.501 166.506 200.301 167.007C200.1 167.608 199.9 168.109 199.699 168.71C199.398 169.511 199.098 170.413 198.797 171.214C198.697 171.515 198.496 171.915 198.396 172.216C198.295 172.517 198.095 172.817 197.995 173.118C197.794 173.619 197.594 174.119 197.393 174.62C196.791 175.823 196.29 177.025 195.688 178.227C195.287 179.028 194.886 179.73 194.485 180.531C194.285 180.932 193.984 181.333 193.783 181.833C193.482 182.334 193.282 182.735 192.981 183.236C191.076 186.342 189.07 189.347 186.764 192.152C186.263 192.853 185.661 193.454 185.16 194.156C184.659 194.757 184.157 195.358 183.556 195.959C183.355 196.26 183.054 196.56 182.854 196.76C182.051 197.562 181.35 198.363 180.547 199.165C179.745 199.966 178.943 200.768 178.141 201.469C177.84 201.769 177.639 201.97 177.339 202.17C176.737 202.771 176.135 203.272 175.534 203.773C174.932 204.274 174.23 204.875 173.528 205.376C173.328 205.576 173.127 205.677 173.027 205.777C172.526 206.177 172.125 206.478 171.623 206.879C171.122 207.279 170.52 207.68 170.019 208.081C169.618 208.381 169.116 208.682 168.715 208.983C168.515 209.083 168.314 209.183 168.214 209.383C167.211 210.085 166.108 210.786 165.106 211.387C164.504 211.687 164.003 212.088 163.401 212.389C162.9 212.689 162.298 212.99 161.696 213.29C159.29 214.593 156.683 215.795 154.076 216.897C153.574 217.097 152.973 217.298 152.471 217.598C151.87 217.899 151.168 218.099 150.566 218.299C149.964 218.5 149.363 218.7 148.661 219.001C147.959 219.201 147.257 219.502 146.555 219.702C145.954 219.902 145.352 220.103 144.75 220.303C142.945 220.804 141.141 221.305 139.235 221.706C138.834 221.806 138.534 221.806 138.132 221.906C136.929 222.106 135.826 222.307 134.623 222.507C133.219 222.707 131.815 222.908 130.512 223.008C127.704 223.308 124.897 223.409 121.989 223.409H67.0398C22.2183 223.409 -14.2806 187.844 -15.7847 143.464H204.613V143.264Z" fill="#F18225"/>
<path d="M204.512 135.248H87.2947V57.5078H121.788C123.192 57.5078 124.696 57.5078 126.1 57.608C126.802 57.608 127.504 57.7082 128.206 57.7082C129.509 57.8084 130.813 57.9085 132.016 58.1089C132.517 58.2091 133.019 58.2091 133.52 58.3093C133.72 58.3093 133.921 58.4094 134.222 58.4094C134.723 58.5096 135.225 58.6098 135.726 58.6098C135.826 58.6098 136.027 58.6098 136.127 58.71C136.628 58.8102 137.13 58.9103 137.631 59.0105C137.832 59.0105 138.032 59.1107 138.132 59.1107C138.634 59.2109 139.235 59.3111 139.737 59.4113C139.837 59.4113 139.837 59.4113 139.937 59.5114C140.539 59.6116 141.04 59.812 141.642 59.9122C141.742 59.9122 141.843 59.9122 141.943 60.0123C142.344 60.1125 142.845 60.2127 143.246 60.3129C143.647 60.4131 144.048 60.5132 144.45 60.6134C144.55 60.6134 144.65 60.6134 144.65 60.7136C145.151 60.8138 145.753 61.0142 146.254 61.2145C147.057 61.5151 147.959 61.7154 148.761 62.016C149.162 62.1161 149.563 62.3165 149.965 62.4167C150.265 62.5169 150.466 62.6171 150.767 62.7172C151.168 62.9176 151.669 63.0178 152.07 63.2181C152.17 63.2181 152.271 63.3183 152.371 63.3183C152.772 63.5187 153.273 63.719 153.675 63.9194C153.875 64.0196 154.076 64.1198 154.276 64.22C154.778 64.4203 155.279 64.6207 155.78 64.9212C155.78 64.9212 155.881 64.9212 155.881 65.0214C156.482 65.3219 157.084 65.5223 157.685 65.8228C158.187 66.1234 158.788 66.3238 159.29 66.6243C164.103 69.1288 168.715 72.0341 172.927 75.3401C173.929 76.1415 174.832 76.943 175.835 77.7444C176.336 78.1451 176.837 78.5459 177.238 79.0468C177.94 79.6479 178.642 80.3491 179.344 81.0504C180.046 81.7517 180.748 82.3527 181.35 83.054C181.751 83.5549 182.252 83.9556 182.653 84.4565C183.054 84.9574 183.556 85.3582 183.957 85.8591C184.759 86.7607 185.561 87.7625 186.363 88.6642C186.363 88.6642 186.463 88.7643 186.463 88.8645C186.865 89.3654 187.266 89.7661 187.566 90.2671C187.968 90.6678 188.268 91.1687 188.569 91.6696C188.97 92.2707 189.472 92.8718 189.873 93.4728C190.173 93.9738 190.474 94.3745 190.775 94.8754C190.875 94.9756 190.976 95.1759 191.076 95.2761C191.377 95.777 191.678 96.1777 191.978 96.5785C192.279 97.0794 192.58 97.4801 192.881 97.981C193.282 98.5821 193.583 99.2834 193.984 99.8844C194.285 100.385 194.585 100.986 194.886 101.487C195.187 101.988 195.388 102.489 195.688 102.99C195.989 103.491 196.19 103.992 196.491 104.593V104.693C196.791 105.294 197.092 105.895 197.293 106.496C197.493 106.997 197.694 107.498 197.995 107.999C198.296 108.7 198.596 109.502 198.897 110.203C198.997 110.504 199.198 110.804 199.298 111.205C199.398 111.505 199.599 111.906 199.699 112.207C200.602 114.711 201.404 117.116 202.006 119.72C202.206 120.321 202.306 121.023 202.507 121.624C202.707 122.225 202.808 122.926 202.908 123.527C203.008 124.128 203.209 124.83 203.309 125.431C203.409 126.132 203.51 126.733 203.61 127.434C203.71 128.136 203.81 128.737 203.911 129.438C204.011 130.139 204.111 130.74 204.111 131.442C204.212 132.143 204.212 132.744 204.312 133.445C204.412 133.946 204.512 134.647 204.512 135.248Z" fill="#F18225"/>
<path d="M204.613 143.264C204.613 143.765 204.613 144.165 204.512 144.666C204.512 145.267 204.412 145.868 204.412 146.57C204.412 147.371 204.312 148.072 204.212 148.874C204.111 150.276 203.911 151.679 203.71 152.981C203.51 154.183 203.309 155.285 203.109 156.488C203.008 156.888 203.008 157.189 202.908 157.59C202.808 158.09 202.707 158.591 202.607 159.092C202.507 159.794 202.306 160.395 202.106 161.096C202.006 161.597 201.805 162.098 201.705 162.699C201.604 163.1 201.504 163.5 201.304 163.901C201.304 164.101 201.203 164.302 201.103 164.502C201.003 164.903 200.903 165.203 200.802 165.604C200.702 166.105 200.501 166.506 200.301 167.007C200.1 167.608 199.9 168.109 199.699 168.71C199.398 169.511 199.098 170.413 198.797 171.214C198.697 171.515 198.496 171.915 198.396 172.216C198.295 172.517 198.095 172.817 197.995 173.118C197.794 173.619 197.594 174.119 197.393 174.62C196.791 175.823 196.29 177.025 195.688 178.227C195.287 179.028 194.886 179.73 194.485 180.531C194.285 180.932 193.984 181.333 193.783 181.833C193.482 182.334 193.282 182.735 192.981 183.236C191.076 186.342 189.07 189.347 186.764 192.152C186.263 192.853 185.661 193.454 185.16 194.156C184.659 194.757 184.157 195.358 183.556 195.959C183.355 196.26 183.054 196.56 182.854 196.76C182.051 197.562 181.35 198.363 180.547 199.165C179.745 199.966 178.943 200.768 178.141 201.469C177.84 201.769 177.64 201.97 177.339 202.17C176.737 202.771 176.135 203.272 175.534 203.773C174.932 204.274 174.23 204.875 173.528 205.376C173.328 205.576 173.127 205.677 173.027 205.777C172.526 206.177 172.125 206.478 171.623 206.879C171.122 207.279 170.52 207.68 170.019 208.081C169.618 208.381 169.116 208.682 168.715 208.983C168.515 209.083 168.314 209.183 168.214 209.383C167.211 210.085 166.108 210.786 165.106 211.387C164.504 211.687 164.003 212.088 163.401 212.389C162.9 212.689 162.298 212.99 161.696 213.29C159.29 214.593 156.683 215.795 154.076 216.897C153.574 217.097 152.973 217.298 152.471 217.598C151.87 217.899 151.168 218.099 150.566 218.299C149.965 218.5 149.363 218.7 148.661 219.001C147.959 219.201 147.257 219.502 146.555 219.702C145.954 219.902 145.352 220.103 144.75 220.303C142.945 220.804 141.141 221.305 139.235 221.706C138.834 221.806 138.534 221.806 138.132 221.906C136.929 222.106 135.826 222.307 134.623 222.507C133.219 222.707 131.815 222.908 130.512 223.008C127.704 223.308 124.897 223.409 121.989 223.409H87.2947V143.464H204.613V143.264Z" fill="#009CBB"/>
<path d="M-15.7847 300.949C-14.4811 280.111 -5.55695 261.277 8.38082 247.452C23.4216 232.425 44.0776 223.208 67.0398 223.208H121.788C123.192 223.208 124.696 223.208 126.1 223.308C126.802 223.308 127.504 223.408 128.206 223.408C129.509 223.509 130.813 223.609 132.016 223.809C132.517 223.909 133.019 223.909 133.52 224.009C133.72 224.009 133.921 224.11 134.222 224.11C134.723 224.21 135.225 224.31 135.726 224.31C135.826 224.31 136.027 224.31 136.127 224.41C136.628 224.51 137.13 224.611 137.631 224.711C137.832 224.711 138.032 224.811 138.132 224.811C138.634 224.911 139.235 225.011 139.737 225.111C139.837 225.111 139.837 225.111 139.937 225.212C140.539 225.312 141.04 225.512 141.642 225.612C141.742 225.612 141.843 225.612 141.943 225.713C142.344 225.813 142.845 225.913 143.246 226.013C143.647 226.113 144.048 226.213 144.45 226.314C144.55 226.314 144.65 226.314 144.65 226.414C145.151 226.514 145.753 226.714 146.254 226.915C147.057 227.215 147.959 227.416 148.761 227.716C149.162 227.816 149.563 228.017 149.965 228.117C150.265 228.217 150.466 228.317 150.767 228.417C151.168 228.618 151.669 228.718 152.07 228.918C152.17 228.918 152.271 229.019 152.371 229.019C152.772 229.219 153.273 229.419 153.675 229.62C153.875 229.72 154.076 229.82 154.276 229.92C154.778 230.121 155.279 230.321 155.78 230.621C155.78 230.621 155.881 230.621 155.881 230.722C156.482 231.022 157.084 231.223 157.685 231.523C158.187 231.824 158.788 232.024 159.29 232.324C164.103 234.829 168.715 237.734 172.927 241.04C173.929 241.842 174.832 242.643 175.835 243.445C176.336 243.845 176.837 244.246 177.238 244.747C177.94 245.348 178.642 246.049 179.344 246.751C180.046 247.452 180.748 248.053 181.35 248.754C181.751 249.255 182.252 249.656 182.653 250.157C183.054 250.658 183.556 251.058 183.957 251.559C184.759 252.461 185.561 253.463 186.363 254.364C186.363 254.364 186.463 254.465 186.463 254.565C186.865 255.066 187.266 255.466 187.566 255.967C187.968 256.368 188.268 256.869 188.569 257.37C188.97 257.971 189.472 258.572 189.873 259.173C190.173 259.674 190.474 260.075 190.775 260.576C190.875 260.676 190.976 260.876 191.076 260.976C191.377 261.477 191.678 261.878 191.978 262.279C192.279 262.78 192.58 263.18 192.881 263.681C193.282 264.282 193.583 264.984 193.984 265.585C194.285 266.086 194.585 266.687 194.886 267.188C195.187 267.688 195.388 268.189 195.688 268.69C195.989 269.191 196.19 269.692 196.491 270.293V270.393C196.791 270.994 197.092 271.596 197.293 272.197C197.493 272.698 197.694 273.198 197.995 273.699C198.295 274.401 198.596 275.202 198.897 275.903C198.997 276.204 199.198 276.504 199.298 276.905C199.398 277.206 199.599 277.606 199.699 277.907C200.602 280.411 201.404 282.816 202.006 285.421C202.206 286.022 202.306 286.723 202.507 287.324C202.707 287.925 202.808 288.626 202.908 289.227C203.008 289.828 203.209 290.53 203.309 291.131C203.409 291.832 203.51 292.433 203.61 293.134C203.71 293.836 203.81 294.437 203.911 295.138C204.011 295.839 204.111 296.44 204.111 297.142C204.212 297.843 204.212 298.444 204.312 299.145C204.412 299.847 204.412 300.448 204.412 301.149H-15.7847V300.949Z" fill="#009CBB"/>
<path d="M204.512 300.949H87.2947V223.208H121.788C123.192 223.208 124.696 223.208 126.1 223.308C126.802 223.308 127.504 223.408 128.206 223.408C129.509 223.509 130.813 223.609 132.016 223.809C132.517 223.909 133.019 223.909 133.52 224.009C133.72 224.009 133.921 224.11 134.222 224.11C134.723 224.21 135.225 224.31 135.726 224.31C135.826 224.31 136.027 224.31 136.127 224.41C136.628 224.51 137.13 224.611 137.631 224.711C137.832 224.711 138.032 224.811 138.132 224.811C138.634 224.911 139.235 225.011 139.737 225.111C139.837 225.111 139.837 225.111 139.937 225.212C140.539 225.312 141.04 225.512 141.642 225.612C141.742 225.612 141.843 225.612 141.943 225.713C142.344 225.813 142.845 225.913 143.246 226.013C143.647 226.113 144.048 226.213 144.45 226.314C144.55 226.314 144.65 226.314 144.65 226.414C145.151 226.514 145.753 226.714 146.254 226.915C147.057 227.215 147.959 227.416 148.761 227.716C149.162 227.816 149.563 228.017 149.965 228.117C150.265 228.217 150.466 228.317 150.767 228.417C151.168 228.618 151.669 228.718 152.07 228.918C152.17 228.918 152.271 229.019 152.371 229.019C152.772 229.219 153.273 229.419 153.675 229.62C153.875 229.72 154.076 229.82 154.276 229.92C154.778 230.121 155.279 230.321 155.78 230.621C155.78 230.621 155.881 230.621 155.881 230.722C156.482 231.022 157.084 231.223 157.685 231.523C158.187 231.824 158.788 232.024 159.29 232.324C164.103 234.829 168.715 237.734 172.927 241.04C173.929 241.842 174.832 242.643 175.835 243.445C176.336 243.845 176.837 244.246 177.238 244.747C177.94 245.348 178.642 246.049 179.344 246.751C180.046 247.452 180.748 248.053 181.35 248.754C181.751 249.255 182.252 249.656 182.653 250.157C183.054 250.658 183.556 251.058 183.957 251.559C184.759 252.461 185.561 253.463 186.363 254.364C186.363 254.364 186.463 254.465 186.463 254.565C186.865 255.066 187.266 255.466 187.566 255.967C187.968 256.368 188.268 256.869 188.569 257.37C188.97 257.971 189.472 258.572 189.873 259.173C190.173 259.674 190.474 260.075 190.775 260.576C190.875 260.676 190.976 260.876 191.076 260.976C191.377 261.477 191.678 261.878 191.978 262.279C192.279 262.78 192.58 263.18 192.881 263.681C193.282 264.282 193.583 264.984 193.984 265.585C194.285 266.086 194.585 266.687 194.886 267.188C195.187 267.688 195.388 268.189 195.688 268.69C195.989 269.191 196.19 269.692 196.491 270.293V270.393C196.791 270.994 197.092 271.596 197.293 272.197C197.493 272.698 197.694 273.198 197.995 273.699C198.296 274.401 198.596 275.202 198.897 275.903C198.997 276.204 199.198 276.504 199.298 276.905C199.398 277.206 199.599 277.606 199.699 277.907C200.602 280.411 201.404 282.816 202.006 285.421C202.206 286.022 202.306 286.723 202.507 287.324C202.707 287.925 202.808 288.626 202.908 289.227C203.008 289.828 203.209 290.53 203.309 291.131C203.409 291.832 203.51 292.433 203.61 293.134C203.71 293.836 203.81 294.437 203.911 295.138C204.011 295.839 204.111 296.44 204.111 297.142C204.212 297.843 204.212 298.444 204.312 299.145C204.412 299.646 204.512 300.347 204.512 300.949Z" fill="#F18225"/>
<rect x="-3.28394" y="153.357" width="24.5" height="197.5" transform="rotate(-90 -3.28394 153.357)" fill="white" stroke="#009CBB" stroke-width="1.5"/>
<rect x="83.7161" y="219.857" width="24.5" height="67.5" fill="white" stroke="#009CBB" stroke-width="1.5"/>
<rect x="83.7161" y="54.8584" width="24.5" height="168.8" fill="white" stroke="#009CBB" stroke-width="1.5"/>
<rect x="83.7161" y="-5.1416" width="24.5" height="62.5" fill="white" stroke="#009CBB" stroke-width="1.5"/>
</g>
</g>
<defs>
<clipPath id="clip0_582_1350">
<rect width="188" height="280" fill="white" transform="translate(0.966064 0.108398)"/>
</clipPath>
</defs>
</svg>
