<svg width="184" height="276" viewBox="0 0 184 276" fill="none" xmlns="http://www.w3.org/2000/svg">
<path d="M167.5 275.25H16.5C7.81421 275.25 0.75 268.186 0.75 259.5V16.5C0.75 7.81421 7.81421 0.75 16.5 0.75H167.5C176.186 0.75 183.25 7.81421 183.25 16.5V259.5C183.25 268.186 176.186 275.25 167.5 275.25Z" fill="white" stroke="#2B4554" stroke-width="1.5"/>
<path d="M161.4 264.9H22.6C16.7 264.9 12 260.2 12 254.3V21.4999C12 15.5999 16.7 10.8999 22.6 10.8999H161.5C167.4 10.8999 172.1 15.5999 172.1 21.4999V254.2C172 260.1 167.3 264.9 161.4 264.9Z" stroke="#2B4554" stroke-width="0.5669" stroke-miterlimit="10"/>
<path d="M56 40H3V27.3333C3 13.3333 14.2424 2 28.1301 2H56V40Z" fill="white"/>
<path d="M128 236H181V248.333C181 261.965 169.758 273 155.87 273H128V236Z" fill="white"/>
<path d="M26.5999 10.8999C26.5999 15.7999 26.5999 20.6999 26.5999 25.5999C26.4999 25.5999 26.4999 25.5999 26.3999 25.5999C23.5999 25.5999 20.7999 25.5999 17.9999 25.5999C15.0999 25.5999 12.4999 23.4999 11.9999 20.5999C11.9999 20.2999 11.8999 20.0999 11.8999 19.7999C11.8999 18.7999 11.8999 17.7999 11.8999 16.8999C11.8999 14.1999 13.8999 11.7999 16.5999 11.1999C16.9999 11.0999 17.4999 11.0999 17.8999 10.9999C20.6999 10.9999 23.4999 10.9999 26.2999 10.9999C26.4999 10.8999 26.4999 10.8999 26.5999 10.8999ZM22.0999 15.4999C21.9999 15.4999 21.9999 15.4999 21.9999 15.4999C20.6999 15.4999 19.3999 15.4999 18.0999 15.4999C17.1999 15.4999 16.5999 16.1999 16.5999 16.9999C16.5999 17.7999 16.5999 18.5999 16.5999 19.3999C16.5999 20.2999 17.2999 20.9999 18.1999 20.9999C19.4999 20.9999 20.6999 20.9999 21.9999 20.9999C22.0999 20.9999 22.0999 20.9999 22.1999 20.9999C22.0999 19.1999 22.0999 17.2999 22.0999 15.4999Z" fill="#4C7B96"/>
<path d="M29.3999 10.8999C29.4999 10.8999 29.4999 10.8999 29.5999 10.8999C32.3999 10.8999 35.2999 10.8999 38.0999 10.8999C40.5999 10.8999 42.7999 12.3999 43.6999 14.6999C43.9999 15.3999 44.0999 16.1999 44.0999 16.8999C44.0999 17.7999 44.0999 18.6999 44.0999 19.5999C44.0999 22.4999 42.0999 24.9999 39.1999 25.4999C38.7999 25.5999 38.2999 25.5999 37.8999 25.5999C36.5999 25.5999 35.3999 25.5999 34.0999 25.5999C33.9999 25.5999 33.9999 25.5999 33.8999 25.5999C33.8999 27.4999 33.8999 29.3999 33.8999 31.2999C32.3999 31.2999 30.8999 31.2999 29.3999 31.2999C29.3999 24.5999 29.3999 17.7999 29.3999 10.8999ZM33.8999 21.1999H33.9999C35.3999 21.1999 36.6999 21.1999 38.0999 21.1999C38.9999 21.1999 39.5999 20.4999 39.5999 19.6999C39.5999 18.7999 39.5999 17.9999 39.5999 17.0999C39.5999 16.2999 38.9999 15.4999 37.9999 15.4999C36.6999 15.4999 35.3999 15.4999 34.0999 15.4999C33.9999 15.4999 33.9999 15.4999 33.8999 15.4999C33.8999 17.3999 33.8999 19.2999 33.8999 21.1999Z" fill="#4C7B96"/>
<path d="M157.4 264.9C157.4 260 157.4 255.1 157.4 250.2C157.5 250.2 157.5 250.2 157.6 250.2C160.4 250.2 163.2 250.2 166 250.2C168.9 250.2 171.5 252.3 172 255.2C172 255.5 172.1 255.7 172.1 256C172.1 257 172.1 258 172.1 258.9C172.1 261.6 170.1 264 167.4 264.6C167 264.7 166.5 264.7 166.1 264.8C163.3 264.8 160.5 264.8 157.7 264.8C157.5 264.9 157.5 264.9 157.4 264.9ZM161.9 260.3C162 260.3 162 260.3 162 260.3C163.3 260.3 164.6 260.3 165.9 260.3C166.8 260.3 167.4 259.6 167.4 258.8C167.4 258 167.4 257.2 167.4 256.4C167.4 255.5 166.7 254.8 165.8 254.8C164.5 254.8 163.3 254.8 162 254.8C161.9 254.8 161.9 254.8 161.8 254.8C161.9 256.6 161.9 258.5 161.9 260.3Z" fill="#4C7B96"/>
<path d="M154.6 264.9C154.5 264.9 154.5 264.9 154.4 264.9C151.6 264.9 148.7 264.9 145.9 264.9C143.4 264.9 141.2 263.4 140.3 261.1C140 260.4 139.9 259.6 139.9 258.9C139.9 258 139.9 257.1 139.9 256.2C139.9 253.3 141.9 250.8 144.8 250.3C145.2 250.2 145.7 250.2 146.1 250.2C147.4 250.2 148.6 250.2 149.9 250.2C150 250.2 150 250.2 150.1 250.2C150.1 248.3 150.1 246.4 150.1 244.5C151.6 244.5 153.1 244.5 154.6 244.5C154.6 251.2 154.6 258 154.6 264.9ZM150.1 254.6H150C148.6 254.6 147.3 254.6 145.9 254.6C145 254.6 144.4 255.3 144.4 256.1C144.4 257 144.4 257.8 144.4 258.7C144.4 259.5 145 260.3 146 260.3C147.3 260.3 148.6 260.3 149.9 260.3C150 260.3 150 260.3 150.1 260.3C150.1 258.4 150.1 256.5 150.1 254.6Z" fill="#4C7B96"/>
<path d="M45.9205 149.44C44.5379 149.44 43.2926 149.194 42.1847 148.702C41.0862 148.2 40.215 147.461 39.571 146.486C38.9366 145.51 38.6193 144.308 38.6193 142.878C38.6193 141.647 38.8466 140.629 39.3011 139.824C39.7557 139.019 40.3759 138.375 41.1619 137.892C41.9479 137.409 42.8333 137.045 43.8182 136.798C44.8125 136.543 45.84 136.358 46.9006 136.244C48.179 136.112 49.2159 135.993 50.0114 135.889C50.8068 135.776 51.3845 135.605 51.7443 135.378C52.1136 135.141 52.2983 134.777 52.2983 134.284V134.199C52.2983 133.129 51.9811 132.3 51.3466 131.713C50.7121 131.126 49.7983 130.832 48.6051 130.832C47.3456 130.832 46.3466 131.107 45.608 131.656C44.8788 132.205 44.3864 132.854 44.1307 133.602L39.3295 132.92C39.7083 131.595 40.3333 130.487 41.2045 129.597C42.0758 128.697 43.1411 128.025 44.4006 127.58C45.66 127.125 47.0521 126.898 48.5767 126.898C49.6278 126.898 50.6742 127.021 51.7159 127.267C52.7576 127.513 53.7093 127.92 54.571 128.489C55.4328 129.047 56.1241 129.81 56.6449 130.776C57.1752 131.741 57.4403 132.949 57.4403 134.398V149H52.4972V146.003H52.3267C52.0142 146.609 51.5739 147.177 51.0057 147.707C50.447 148.228 49.7415 148.65 48.8892 148.972C48.0464 149.284 47.0568 149.44 45.9205 149.44ZM47.2557 145.662C48.2879 145.662 49.1828 145.458 49.9403 145.051C50.6979 144.634 51.2803 144.085 51.6875 143.403C52.1042 142.722 52.3125 141.978 52.3125 141.173V138.602C52.1515 138.735 51.8769 138.858 51.4886 138.972C51.1098 139.085 50.6837 139.185 50.2102 139.27C49.7367 139.355 49.268 139.431 48.804 139.497C48.34 139.563 47.9375 139.62 47.5966 139.668C46.8295 139.772 46.143 139.942 45.5369 140.179C44.9309 140.416 44.4527 140.747 44.1023 141.173C43.7519 141.59 43.5767 142.13 43.5767 142.793C43.5767 143.74 43.9223 144.455 44.6136 144.938C45.3049 145.42 46.1856 145.662 47.2557 145.662ZM72.0994 157.636C70.2528 157.636 68.6667 157.385 67.3409 156.884C66.0152 156.391 64.9498 155.728 64.1449 154.895C63.34 154.062 62.7812 153.138 62.4688 152.125L67.0994 151.003C67.3078 151.429 67.6108 151.85 68.0085 152.267C68.4063 152.693 68.9413 153.044 69.6136 153.318C70.2955 153.602 71.1525 153.744 72.1847 153.744C73.643 153.744 74.8504 153.389 75.8068 152.679C76.7633 151.978 77.2415 150.823 77.2415 149.213V145.08H76.9858C76.7206 145.61 76.3324 146.154 75.821 146.713C75.3191 147.272 74.6515 147.741 73.8182 148.119C72.9943 148.498 71.9574 148.688 70.7074 148.688C69.0312 148.688 67.5114 148.295 66.1477 147.509C64.7936 146.713 63.714 145.529 62.9091 143.957C62.1136 142.376 61.7159 140.397 61.7159 138.02C61.7159 135.624 62.1136 133.602 62.9091 131.955C63.714 130.297 64.7983 129.043 66.1619 128.19C67.5256 127.329 69.0455 126.898 70.7216 126.898C72 126.898 73.0511 127.116 73.875 127.551C74.7083 127.977 75.3712 128.493 75.8636 129.099C76.3561 129.696 76.7301 130.259 76.9858 130.79H77.2699V127.182H82.3409V149.355C82.3409 151.221 81.8958 152.764 81.0057 153.986C80.1155 155.207 78.8987 156.121 77.3551 156.727C75.8116 157.333 74.0597 157.636 72.0994 157.636ZM72.142 144.653C73.2311 144.653 74.1591 144.388 74.9261 143.858C75.6932 143.328 76.2756 142.565 76.6733 141.571C77.071 140.577 77.2699 139.384 77.2699 137.991C77.2699 136.618 77.071 135.416 76.6733 134.384C76.285 133.351 75.7074 132.551 74.9403 131.983C74.1828 131.405 73.25 131.116 72.142 131.116C70.9962 131.116 70.0398 131.415 69.2727 132.011C68.5057 132.608 67.928 133.427 67.5398 134.469C67.1515 135.501 66.9574 136.675 66.9574 137.991C66.9574 139.327 67.1515 140.496 67.5398 141.5C67.9375 142.494 68.5199 143.271 69.2869 143.83C70.0634 144.379 71.0152 144.653 72.142 144.653ZM87.6108 149V127.182H92.7528V149H87.6108ZM90.196 124.085C89.3816 124.085 88.6809 123.815 88.0938 123.276C87.5066 122.726 87.2131 122.068 87.2131 121.301C87.2131 120.525 87.5066 119.866 88.0938 119.327C88.6809 118.777 89.3816 118.503 90.196 118.503C91.0199 118.503 91.7206 118.777 92.2983 119.327C92.8854 119.866 93.179 120.525 93.179 121.301C93.179 122.068 92.8854 122.726 92.2983 123.276C91.7206 123.815 91.0199 124.085 90.196 124.085ZM103.183 119.909V149H98.0405V119.909H103.183ZM118.129 149.426C115.942 149.426 114.053 148.972 112.462 148.062C110.88 147.144 109.663 145.847 108.811 144.17C107.959 142.485 107.533 140.501 107.533 138.219C107.533 135.974 107.959 134.005 108.811 132.31C109.673 130.605 110.875 129.279 112.419 128.332C113.963 127.376 115.776 126.898 117.859 126.898C119.204 126.898 120.473 127.116 121.666 127.551C122.869 127.977 123.929 128.64 124.848 129.54C125.776 130.439 126.505 131.585 127.036 132.977C127.566 134.36 127.831 136.008 127.831 137.92V139.497H109.947V136.031H122.902C122.893 135.046 122.679 134.17 122.263 133.403C121.846 132.627 121.264 132.016 120.516 131.571C119.777 131.126 118.915 130.903 117.93 130.903C116.879 130.903 115.956 131.159 115.161 131.67C114.365 132.172 113.745 132.835 113.3 133.659C112.864 134.473 112.642 135.368 112.632 136.344V139.369C112.632 140.638 112.864 141.727 113.328 142.636C113.792 143.536 114.441 144.227 115.274 144.71C116.107 145.184 117.083 145.42 118.2 145.42C118.948 145.42 119.625 145.316 120.232 145.108C120.838 144.89 121.363 144.573 121.808 144.156C122.253 143.74 122.589 143.223 122.817 142.608L127.618 143.148C127.315 144.417 126.737 145.525 125.885 146.472C125.042 147.409 123.963 148.138 122.646 148.659C121.33 149.17 119.824 149.426 118.129 149.426Z" fill="#2B4554"/>
</svg>
