<svg width="215" height="296" viewBox="0 0 215 296" fill="none" xmlns="http://www.w3.org/2000/svg">
<path d="M166.596 292.699L16.5853 275.44C7.95645 274.447 1.74596 266.622 2.73873 257.993L30.5132 16.5855C31.506 7.95664 39.3313 1.74615 47.9602 2.73892L197.971 19.998C206.599 20.9907 212.81 28.8161 211.817 37.4449L184.043 278.852C183.05 287.481 175.225 293.692 166.596 292.699Z" fill="white" stroke="#F18225" stroke-width="1.5"/>
<path d="M161.719 281.719L23.8284 265.855C17.967 265.18 13.835 259.974 14.5094 254.112L41.118 22.8382C41.7924 16.9768 46.9988 12.8448 52.8601 13.5192L190.85 29.3952C196.711 30.0696 200.843 35.276 200.169 41.1373L173.572 272.312C172.798 278.162 167.58 282.394 161.719 281.719Z" fill="white" stroke="#F7A968" stroke-width="0.5669" stroke-miterlimit="10"/>
<path d="M82.8256 46.158L29.7413 40.0505L31.1589 27.7292C32.7258 14.1108 45.2544 4.38195 59.1642 5.9823L87.0784 9.19389L82.8256 46.158Z" fill="white"/>
<path d="M131.73 249.279L184.606 255.363L183.177 267.784C181.598 281.513 169.103 291.337 155.248 289.743L127.443 286.544L131.73 249.279Z" fill="white"/>
<path d="M56.8338 13.9766C56.2737 18.8445 55.7136 23.7123 55.1536 28.5802C55.0542 28.5688 55.0542 28.5688 54.9549 28.5574C52.1732 28.2373 49.3916 27.9173 46.6099 27.5973C43.7289 27.2658 41.386 24.8824 41.2208 21.9442C41.255 21.6462 41.1786 21.4361 41.2128 21.1381C41.3271 20.1446 41.4414 19.1512 41.5443 18.2571C41.8529 15.5748 44.1141 13.4191 46.865 13.1316C47.2738 13.078 47.7705 13.1351 48.1794 13.0815C50.961 13.4016 53.7427 13.7216 56.5243 14.0416C56.7344 13.9651 56.7344 13.9651 56.8338 13.9766ZM51.8375 18.0321C51.7381 18.0207 51.7381 18.0207 51.7381 18.0207C50.4467 17.8721 49.1552 17.7235 47.8637 17.5749C46.9696 17.472 46.2935 18.0989 46.2021 18.8936C46.1106 19.6884 46.0192 20.4831 45.9278 21.2779C45.8249 22.172 46.4403 22.9474 47.3344 23.0503C48.6259 23.1989 49.818 23.336 51.1095 23.4846C51.2088 23.496 51.2088 23.496 51.3082 23.5075C51.4146 21.7078 51.6317 19.8203 51.8375 18.0321Z" fill="#F7A968"/>
<path d="M59.6154 14.2964C59.7147 14.3078 59.7147 14.3078 59.814 14.3192C62.5957 14.6393 65.4767 14.9707 68.2583 15.2908C70.742 15.5765 72.7561 17.3182 73.3873 19.7059C73.6053 20.4357 73.6132 21.2418 73.5332 21.9373C73.4304 22.8314 73.3275 23.7255 73.2246 24.6196C72.8932 27.5006 70.6205 29.7556 67.6824 29.9208C67.2736 29.9745 66.7768 29.9173 66.3795 29.8716C65.088 29.723 63.8958 29.5858 62.6044 29.4373C62.505 29.4258 62.505 29.4258 62.4057 29.4144C62.1885 31.3019 61.9713 33.1895 61.7542 35.077C60.264 34.9056 58.7738 34.7341 57.2837 34.5627C58.0495 27.9066 58.8267 21.1512 59.6154 14.2964ZM62.9086 25.0432L63.0079 25.0547C64.3988 25.2147 65.6902 25.3633 67.0811 25.5233C67.9752 25.6261 68.6512 24.9993 68.7427 24.2046C68.8456 23.3105 68.937 22.5157 69.0399 21.6216C69.1313 20.8268 68.6267 19.9635 67.6332 19.8492C66.3417 19.7006 65.0503 19.552 63.7588 19.4034C63.6594 19.392 63.6594 19.392 63.5601 19.3806C63.3429 21.2681 63.1258 23.1557 62.9086 25.0432Z" fill="#F7A968"/>
<path d="M157.745 281.262C158.305 276.394 158.865 271.527 159.425 266.659C159.524 266.67 159.524 266.67 159.624 266.682C162.405 267.002 165.187 267.322 167.969 267.642C170.85 267.973 173.193 270.357 173.358 273.295C173.323 273.593 173.4 273.803 173.366 274.101C173.251 275.094 173.137 276.088 173.034 276.982C172.726 279.664 170.464 281.82 167.713 282.107C167.305 282.161 166.808 282.104 166.399 282.157C163.618 281.837 160.836 281.517 158.054 281.197C157.844 281.274 157.844 281.274 157.745 281.262ZM162.741 277.207C162.84 277.218 162.84 277.218 162.84 277.218C164.132 277.367 165.423 277.515 166.715 277.664C167.609 277.767 168.285 277.14 168.376 276.345C168.468 275.551 168.559 274.756 168.651 273.961C168.754 273.067 168.138 272.292 167.244 272.189C165.953 272.04 164.76 271.903 163.469 271.754C163.37 271.743 163.37 271.743 163.27 271.731C163.164 273.531 162.947 275.419 162.741 277.207Z" fill="#F7A968"/>
<path d="M154.963 280.942C154.864 280.931 154.864 280.931 154.764 280.919C151.983 280.599 149.102 280.268 146.32 279.948C143.837 279.662 141.822 277.92 141.191 275.533C140.973 274.803 140.965 273.997 141.045 273.301C141.148 272.407 141.251 271.513 141.354 270.619C141.685 267.738 143.958 265.483 146.896 265.318C147.305 265.264 147.802 265.321 148.199 265.367C149.491 265.515 150.683 265.653 151.974 265.801C152.073 265.813 152.073 265.813 152.173 265.824C152.39 263.937 152.607 262.049 152.824 260.161C154.314 260.333 155.805 260.504 157.295 260.676C156.529 267.332 155.752 274.087 154.963 280.942ZM151.67 270.195L151.571 270.184C150.18 270.024 148.888 269.875 147.497 269.715C146.603 269.612 145.927 270.239 145.836 271.034C145.733 271.928 145.642 272.723 145.539 273.617C145.447 274.412 145.952 275.275 146.945 275.389C148.237 275.538 149.528 275.686 150.82 275.835C150.919 275.846 150.919 275.846 151.018 275.858C151.236 273.97 151.453 272.083 151.67 270.195Z" fill="#F7A968"/>
<path d="M52.6135 164.764L56.0424 134.961L61.0661 135.539L60.6537 139.123L60.9501 139.157C61.2741 138.661 61.7101 138.144 62.2581 137.606C62.8071 137.059 63.5153 136.621 64.3824 136.292C65.2507 135.954 66.3198 135.857 67.5898 136.004C69.2644 136.196 70.7251 136.798 71.9719 137.809C73.2292 138.811 74.1571 140.191 74.7558 141.947C75.365 143.695 75.531 145.773 75.2539 148.181C74.9801 150.561 74.3569 152.539 73.3845 154.114C72.4121 155.689 71.2029 156.837 69.757 157.557C68.311 158.277 66.7367 158.54 65.0339 158.344C63.7921 158.201 62.7857 157.875 62.0149 157.367C61.2441 156.859 60.6429 156.285 60.2114 155.644C59.7904 154.995 59.4738 154.391 59.2616 153.833L59.0499 153.809L57.7218 165.352L52.6135 164.764ZM59.8051 146.375C59.6438 147.777 59.7001 149.027 59.974 150.126C60.2573 151.226 60.7412 152.116 61.4256 152.795C62.1205 153.466 63.0089 153.864 64.0908 153.989C65.2197 154.118 66.1998 153.926 67.0311 153.412C67.8635 152.888 68.5331 152.121 69.0401 151.112C69.5575 150.094 69.8942 148.908 70.05 147.554C70.2048 146.208 70.1494 144.991 69.8838 143.903C69.6183 142.814 69.1386 141.93 68.4447 141.249C67.7509 140.569 66.8348 140.163 65.6965 140.032C64.6052 139.907 63.6456 140.087 62.8175 140.573C61.9895 141.059 61.3184 141.797 60.8042 142.787C60.2994 143.777 59.9664 144.973 59.8051 146.375ZM87.7908 161.005C85.6741 160.761 83.8931 160.084 82.448 158.975C81.0029 157.865 79.9487 156.423 79.2852 154.65C78.6312 152.878 78.433 150.873 78.6906 148.634C78.9482 146.395 79.5972 144.482 80.6377 142.895C81.6875 141.31 83.0421 140.141 84.7015 139.388C86.361 138.635 88.249 138.38 90.3657 138.624C92.4825 138.868 94.2634 139.544 95.7085 140.654C97.1536 141.764 98.2026 143.21 98.8555 144.991C99.5179 146.774 99.7203 148.784 99.4627 151.023C99.2051 153.262 98.5519 155.17 97.5031 156.746C96.4638 158.323 95.1144 159.488 93.455 160.241C91.7956 160.994 89.9075 161.248 87.7908 161.005ZM88.2898 156.916C89.4376 157.048 90.4334 156.843 91.2773 156.301C92.1224 155.75 92.7947 154.96 93.2944 153.931C93.8035 152.903 94.1339 151.731 94.2854 150.413C94.438 149.087 94.3831 147.865 94.1208 146.748C93.869 145.623 93.3942 144.696 92.6963 143.968C91.9985 143.24 91.0757 142.809 89.928 142.677C88.752 142.542 87.7369 142.749 86.8824 143.299C86.0374 143.85 85.3598 144.644 84.8496 145.682C84.3499 146.711 84.0237 147.889 83.8711 149.215C83.7196 150.532 83.7703 151.749 84.0232 152.865C84.2855 153.981 84.7656 154.904 85.4634 155.633C86.1717 156.353 87.1139 156.78 88.2898 156.916ZM108.001 156.009L108.696 149.841L109.514 149.935L118.306 142.124L124.275 142.811L113.466 152.377L112.407 152.255L108.001 156.009ZM102.561 162.275L105.886 133.375L110.995 133.963L107.67 162.863L102.561 162.275ZM116.165 163.84L110.244 153.165L114.101 149.962L122.275 164.543L116.165 163.84ZM133.84 166.303C131.667 166.053 129.842 165.385 128.365 164.3C126.899 163.207 125.839 161.779 125.184 160.017C124.53 158.245 124.333 156.225 124.594 153.958C124.85 151.728 125.499 149.82 126.539 148.233C127.59 146.639 128.936 145.459 130.578 144.695C132.221 143.921 134.077 143.653 136.147 143.891C137.483 144.045 138.718 144.406 139.854 144.975C141 145.536 141.978 146.316 142.788 147.315C143.607 148.315 144.2 149.536 144.568 150.98C144.937 152.414 145.012 154.081 144.793 155.981L144.613 157.548L126.847 155.504L127.243 152.061L140.112 153.541C140.216 152.562 140.104 151.667 139.778 150.858C139.453 150.038 138.944 149.365 138.252 148.837C137.569 148.311 136.738 147.991 135.76 147.879C134.715 147.759 133.769 147.907 132.92 148.324C132.073 148.732 131.381 149.319 130.844 150.087C130.318 150.846 129.995 151.71 129.874 152.678L129.528 155.684C129.383 156.944 129.489 158.053 129.846 159.009C130.205 159.956 130.77 160.716 131.543 161.291C132.316 161.857 133.258 162.204 134.368 162.331C135.112 162.417 135.796 162.391 136.422 162.253C137.049 162.106 137.607 161.851 138.097 161.488C138.587 161.125 138.98 160.651 139.276 160.065L143.984 161.15C143.538 162.376 142.837 163.411 141.883 164.254C140.938 165.089 139.782 165.69 138.415 166.057C137.049 166.415 135.524 166.497 133.84 166.303ZM147.848 167.486L150.342 145.81L155.295 146.38L154.88 149.993L155.106 150.019C155.645 148.813 156.433 147.927 157.47 147.36C158.518 146.784 159.663 146.568 160.905 146.711C161.187 146.744 161.501 146.794 161.846 146.862C162.201 146.922 162.494 146.989 162.723 147.063L162.183 151.762C161.975 151.662 161.639 151.557 161.175 151.446C160.722 151.327 160.279 151.243 159.846 151.193C158.915 151.086 158.054 151.192 157.264 151.511C156.485 151.822 155.843 152.306 155.339 152.962C154.834 153.619 154.529 154.409 154.423 155.331L152.957 168.073L147.848 167.486Z" fill="#F18225"/>
</svg>
