<svg width="186" height="278" viewBox="0 0 186 278" fill="none" xmlns="http://www.w3.org/2000/svg">
<path d="M168.5 276.25H17.5C8.81421 276.25 1.75 269.186 1.75 260.5L1.75 17.5C1.75 8.81421 8.81421 1.75 17.5 1.75L168.5 1.75C177.186 1.75 184.25 8.81421 184.25 17.5V260.5C184.25 269.186 177.186 276.25 168.5 276.25Z" fill="white" stroke="#F18225" stroke-width="1.5"/>
<path d="M162.4 265.9H23.6C17.7 265.9 13 261.2 13 255.3L13 22.5004C13 16.6004 17.7 11.9004 23.6 11.9004L162.5 11.9004C168.4 11.9004 173.1 16.6004 173.1 22.5004V255.2C173 261.1 168.3 265.9 162.4 265.9Z" fill="white" stroke="#F7A968" stroke-width="0.5669" stroke-miterlimit="10"/>
<path d="M57.0997 40.8993H3.66528V28.4967C3.66528 14.7885 14.9999 3.69141 29.0014 3.69141L57.0997 3.69141V40.8993Z" fill="white"/>
<path d="M128.9 237.1H182.125V249.603C182.125 263.422 170.835 274.61 156.888 274.61H128.9V237.1Z" fill="white"/>
<path d="M27.5999 11.9004C27.5999 16.8004 27.5999 21.7004 27.5999 26.6004C27.4999 26.6004 27.4999 26.6004 27.3999 26.6004C24.5999 26.6004 21.7999 26.6004 18.9999 26.6004C16.0999 26.6004 13.4999 24.5004 12.9999 21.6004C12.9999 21.3004 12.8999 21.1004 12.8999 20.8004C12.8999 19.8004 12.8999 18.8004 12.8999 17.9004C12.8999 15.2004 14.8999 12.8004 17.5999 12.2004C17.9999 12.1004 18.4999 12.1004 18.8999 12.0004C21.6999 12.0004 24.4999 12.0004 27.2999 12.0004C27.4999 11.9004 27.4999 11.9004 27.5999 11.9004ZM23.0999 16.5004C22.9999 16.5004 22.9999 16.5004 22.9999 16.5004C21.6999 16.5004 20.3999 16.5004 19.0999 16.5004C18.1999 16.5004 17.5999 17.2004 17.5999 18.0004C17.5999 18.8004 17.5999 19.6004 17.5999 20.4004C17.5999 21.3004 18.2999 22.0004 19.1999 22.0004C20.4999 22.0004 21.6999 22.0004 22.9999 22.0004C23.0999 22.0004 23.0999 22.0004 23.1999 22.0004C23.0999 20.2004 23.0999 18.3004 23.0999 16.5004Z" fill="#F7A968"/>
<path d="M30.3999 11.9004C30.4999 11.9004 30.4999 11.9004 30.5999 11.9004C33.3999 11.9004 36.2999 11.9004 39.0999 11.9004C41.5999 11.9004 43.7999 13.4004 44.6999 15.7004C44.9999 16.4004 45.0999 17.2004 45.0999 17.9004C45.0999 18.8004 45.0999 19.7004 45.0999 20.6004C45.0999 23.5004 43.0999 26.0004 40.1999 26.5004C39.7999 26.6004 39.2999 26.6004 38.8999 26.6004C37.5999 26.6004 36.3999 26.6004 35.0999 26.6004C34.9999 26.6004 34.9999 26.6004 34.8999 26.6004C34.8999 28.5004 34.8999 30.4004 34.8999 32.3004C33.3999 32.3004 31.8999 32.3004 30.3999 32.3004C30.3999 25.6004 30.3999 18.8004 30.3999 11.9004ZM34.8999 22.2004H34.9999C36.3999 22.2004 37.6999 22.2004 39.0999 22.2004C39.9999 22.2004 40.5999 21.5004 40.5999 20.7004C40.5999 19.8004 40.5999 19.0004 40.5999 18.1004C40.5999 17.3004 39.9999 16.5004 38.9999 16.5004C37.6999 16.5004 36.3999 16.5004 35.0999 16.5004C34.9999 16.5004 34.9999 16.5004 34.8999 16.5004C34.8999 18.4004 34.8999 20.3004 34.8999 22.2004Z" fill="#F7A968"/>
<path d="M158.4 265.9C158.4 261 158.4 256.1 158.4 251.2C158.5 251.2 158.5 251.2 158.6 251.2C161.4 251.2 164.2 251.2 167 251.2C169.9 251.2 172.5 253.3 173 256.2C173 256.5 173.1 256.7 173.1 257C173.1 258 173.1 259 173.1 259.9C173.1 262.6 171.1 265 168.4 265.6C168 265.7 167.5 265.7 167.1 265.8C164.3 265.8 161.5 265.8 158.7 265.8C158.5 265.9 158.5 265.9 158.4 265.9ZM162.9 261.3C163 261.3 163 261.3 163 261.3C164.3 261.3 165.6 261.3 166.9 261.3C167.8 261.3 168.4 260.6 168.4 259.8C168.4 259 168.4 258.2 168.4 257.4C168.4 256.5 167.7 255.8 166.8 255.8C165.5 255.8 164.3 255.8 163 255.8C162.9 255.8 162.9 255.8 162.8 255.8C162.9 257.6 162.9 259.5 162.9 261.3Z" fill="#F7A968"/>
<path d="M155.6 265.9C155.5 265.9 155.5 265.9 155.4 265.9C152.6 265.9 149.7 265.9 146.9 265.9C144.4 265.9 142.2 264.4 141.3 262.1C141 261.4 140.9 260.6 140.9 259.9C140.9 259 140.9 258.1 140.9 257.2C140.9 254.3 142.9 251.8 145.8 251.3C146.2 251.2 146.7 251.2 147.1 251.2C148.4 251.2 149.6 251.2 150.9 251.2C151 251.2 151 251.2 151.1 251.2C151.1 249.3 151.1 247.4 151.1 245.5C152.6 245.5 154.1 245.5 155.6 245.5C155.6 252.2 155.6 259 155.6 265.9ZM151.1 255.6H151C149.6 255.6 148.3 255.6 146.9 255.6C146 255.6 145.4 256.3 145.4 257.1C145.4 258 145.4 258.8 145.4 259.7C145.4 260.5 146 261.3 147 261.3C148.3 261.3 149.6 261.3 150.9 261.3C151 261.3 151 261.3 151.1 261.3C151.1 259.4 151.1 257.5 151.1 255.6Z" fill="#F7A968"/>
<path d="M40.642 155.182V125.182H45.6989V128.79H45.9972C46.2623 128.259 46.6364 127.696 47.1193 127.099C47.6023 126.493 48.2557 125.977 49.0795 125.551C49.9034 125.116 50.9545 124.898 52.233 124.898C53.9186 124.898 55.4384 125.329 56.7926 126.19C58.1563 127.043 59.2358 128.307 60.0312 129.983C60.8362 131.65 61.2386 133.695 61.2386 136.119C61.2386 138.515 60.8456 140.551 60.0597 142.227C59.2737 143.903 58.2036 145.182 56.8494 146.062C55.4953 146.943 53.9612 147.384 52.2472 147.384C50.9972 147.384 49.9602 147.175 49.1364 146.759C48.3125 146.342 47.6496 145.84 47.1477 145.253C46.6553 144.656 46.2718 144.093 45.9972 143.562H45.7841V155.182H40.642ZM45.6847 136.091C45.6847 137.502 45.8835 138.738 46.2812 139.798C46.6884 140.859 47.2708 141.687 48.0284 142.284C48.7955 142.871 49.7235 143.165 50.8125 143.165C51.9489 143.165 52.9006 142.862 53.6676 142.256C54.4347 141.64 55.0123 140.802 55.4006 139.741C55.7983 138.671 55.9972 137.455 55.9972 136.091C55.9972 134.737 55.803 133.534 55.4148 132.483C55.0265 131.432 54.4489 130.608 53.6818 130.011C52.9148 129.415 51.9583 129.116 50.8125 129.116C49.714 129.116 48.7812 129.405 48.0142 129.983C47.2472 130.561 46.6648 131.37 46.267 132.412C45.8788 133.454 45.6847 134.68 45.6847 136.091ZM75.1591 147.426C73.0284 147.426 71.1818 146.957 69.6193 146.02C68.0568 145.082 66.8447 143.771 65.983 142.085C65.1307 140.4 64.7045 138.43 64.7045 136.176C64.7045 133.922 65.1307 131.948 65.983 130.253C66.8447 128.558 68.0568 127.241 69.6193 126.304C71.1818 125.366 73.0284 124.898 75.1591 124.898C77.2898 124.898 79.1364 125.366 80.6989 126.304C82.2614 127.241 83.4688 128.558 84.321 130.253C85.1828 131.948 85.6136 133.922 85.6136 136.176C85.6136 138.43 85.1828 140.4 84.321 142.085C83.4688 143.771 82.2614 145.082 80.6989 146.02C79.1364 146.957 77.2898 147.426 75.1591 147.426ZM75.1875 143.307C76.3428 143.307 77.3087 142.99 78.0852 142.355C78.8617 141.711 79.4394 140.849 79.8182 139.77C80.2064 138.69 80.4006 137.488 80.4006 136.162C80.4006 134.827 80.2064 133.619 79.8182 132.54C79.4394 131.451 78.8617 130.584 78.0852 129.94C77.3087 129.296 76.3428 128.974 75.1875 128.974C74.0038 128.974 73.0189 129.296 72.233 129.94C71.4564 130.584 70.8741 131.451 70.4858 132.54C70.107 133.619 69.9176 134.827 69.9176 136.162C69.9176 137.488 70.107 138.69 70.4858 139.77C70.8741 140.849 71.4564 141.711 72.233 142.355C73.0189 142.99 74.0038 143.307 75.1875 143.307ZM94.6655 140.153L94.6513 133.946H95.4751L103.316 125.182H109.325L99.6797 135.92H98.6143L94.6655 140.153ZM89.978 147V117.909H95.12V147H89.978ZM103.671 147L96.5689 137.071L100.035 133.449L109.822 147H103.671ZM121.512 147.426C119.325 147.426 117.435 146.972 115.844 146.062C114.263 145.144 113.046 143.847 112.194 142.17C111.342 140.485 110.915 138.501 110.915 136.219C110.915 133.974 111.342 132.005 112.194 130.31C113.056 128.605 114.258 127.279 115.802 126.332C117.345 125.376 119.159 124.898 121.242 124.898C122.587 124.898 123.856 125.116 125.049 125.551C126.252 125.977 127.312 126.64 128.231 127.54C129.159 128.439 129.888 129.585 130.418 130.977C130.949 132.36 131.214 134.008 131.214 135.92V137.497H113.33V134.031H126.285C126.275 133.046 126.062 132.17 125.646 131.403C125.229 130.627 124.647 130.016 123.898 129.571C123.16 129.126 122.298 128.903 121.313 128.903C120.262 128.903 119.339 129.159 118.543 129.67C117.748 130.172 117.128 130.835 116.683 131.659C116.247 132.473 116.024 133.368 116.015 134.344V137.369C116.015 138.638 116.247 139.727 116.711 140.636C117.175 141.536 117.824 142.227 118.657 142.71C119.49 143.184 120.466 143.42 121.583 143.42C122.331 143.42 123.008 143.316 123.614 143.108C124.22 142.89 124.746 142.573 125.191 142.156C125.636 141.74 125.972 141.223 126.2 140.608L131.001 141.148C130.698 142.417 130.12 143.525 129.268 144.472C128.425 145.409 127.345 146.138 126.029 146.659C124.713 147.17 123.207 147.426 121.512 147.426ZM135.564 147V125.182H140.55V128.818H140.777C141.175 127.559 141.857 126.588 142.822 125.906C143.798 125.215 144.911 124.869 146.161 124.869C146.445 124.869 146.762 124.884 147.112 124.912C147.472 124.931 147.77 124.964 148.007 125.011V129.741C147.789 129.666 147.444 129.599 146.97 129.543C146.506 129.476 146.056 129.443 145.621 129.443C144.683 129.443 143.84 129.647 143.092 130.054C142.354 130.452 141.771 131.006 141.345 131.716C140.919 132.426 140.706 133.245 140.706 134.173V147H135.564Z" fill="#F18225"/>
</svg>
