<svg width="188" height="280" viewBox="0 0 188 280" fill="none" xmlns="http://www.w3.org/2000/svg">
<path d="M18.5448 279.25H169.955C179.493 279.25 187.25 271.502 187.25 261.971V18.5304C187.25 8.99904 179.493 1.25049 169.955 1.25049H18.5448C9.00653 1.25049 1.25 8.99904 1.25 18.5304V261.971C1.25 271.502 9.00653 279.25 18.5448 279.25Z" fill="#2B4554" stroke="#009CBB" stroke-width="1.5"/>
<mask id="mask0_566_638" style="mask-type:luminance" maskUnits="userSpaceOnUse" x="2" y="2" width="185" height="277">
<path d="M169.955 278.5H18.5448C9.42011 278.5 2 271.087 2 261.97V18.5299C2 9.41341 9.42011 2 18.5448 2H169.955C179.08 2 186.5 9.41341 186.5 18.5299V261.97C186.5 271.087 179.08 278.5 169.955 278.5Z" fill="white"/>
</mask>
<g mask="url(#mask0_566_638)">
<path d="M169.955 278.5H18.5448C9.42011 278.5 2 271.087 2 261.971V18.5304C2 9.41389 9.42011 2.00049 18.5448 2.00049H169.955C179.08 2.00049 186.5 9.41389 186.5 18.5304V261.971C186.5 271.087 179.08 278.5 169.955 278.5Z" fill="#2B4554"/>
<path d="M120.822 57.4003H66.0737C20.2495 57.4003 -16.8511 20.3333 -16.8511 -25.4495C-16.8511 -71.2323 20.2495 -108.299 66.0737 -108.299H120.822C166.646 -108.299 203.747 -71.2323 203.747 -25.4495C203.747 20.3333 166.646 57.4003 120.822 57.4003Z" fill="#F18225"/>
<path d="M203.747 -25.4495C203.747 -2.60819 194.421 18.1293 179.481 33.1565C164.44 48.1837 143.784 57.4003 120.822 57.4003H91.1416V-108.299H120.822C166.646 -108.299 203.747 -71.2323 203.747 -25.4495Z" fill="#009CBB"/>
<path d="M-16.7509 135.141C-15.4473 114.303 -6.52314 95.4692 7.41463 81.6442C22.4554 66.6171 43.1114 57.4004 66.0736 57.4004H120.822C122.226 57.4004 123.73 57.4004 125.134 57.5006C125.836 57.5006 126.537 57.6008 127.239 57.6008C128.543 57.7009 129.846 57.8011 131.05 58.0015C131.551 58.1017 132.052 58.1017 132.554 58.2018C132.754 58.2018 132.955 58.302 133.256 58.302C133.757 58.4022 134.258 58.5024 134.76 58.5024C134.86 58.5024 135.061 58.5024 135.161 58.6026C135.662 58.7027 136.164 58.8029 136.665 58.9031C136.865 58.9031 137.066 59.0033 137.166 59.0033C137.668 59.1035 138.269 59.2037 138.771 59.3038C138.871 59.3038 138.871 59.3038 138.971 59.404C139.573 59.5042 140.074 59.7046 140.676 59.8047C140.776 59.8047 140.876 59.8047 140.977 59.9049C141.378 60.0051 141.879 60.1053 142.28 60.2055C142.681 60.3056 143.082 60.4058 143.483 60.506C143.584 60.506 143.684 60.506 143.684 60.6062C144.185 60.7064 144.787 60.9067 145.288 61.1071C146.09 61.4076 146.993 61.608 147.795 61.9085C148.196 62.0087 148.597 62.2091 148.998 62.3093C149.299 62.4095 149.5 62.5096 149.8 62.6098C150.202 62.8102 150.703 62.9104 151.104 63.1107C151.204 63.1107 151.305 63.2109 151.405 63.2109C151.806 63.4113 152.307 63.6116 152.708 63.812C152.909 63.9122 153.109 64.0123 153.31 64.1125C153.811 64.3129 154.313 64.5133 154.814 64.8138C154.814 64.8138 154.914 64.8138 154.914 64.914C155.516 65.2145 156.118 65.4149 156.719 65.7154C157.221 66.016 157.822 66.2163 158.324 66.5169C163.137 69.0214 167.749 71.9267 171.961 75.2326C172.963 76.0341 173.866 76.8355 174.868 77.637C175.37 78.0377 175.871 78.4384 176.272 78.9393C176.974 79.5404 177.676 80.2417 178.378 80.943C179.08 81.6442 179.782 82.2453 180.383 82.9466C180.784 83.4475 181.286 83.8482 181.687 84.3491C182.088 84.85 182.589 85.2508 182.99 85.7517C183.793 86.6533 184.595 87.6551 185.397 88.5567C185.397 88.5567 185.497 88.6569 185.497 88.7571C185.898 89.258 186.299 89.6587 186.6 90.1596C187.001 90.5604 187.302 91.0613 187.603 91.5622C188.004 92.1633 188.505 92.7643 188.906 93.3654C189.207 93.8663 189.508 94.2671 189.809 94.768C189.909 94.8681 190.009 95.0685 190.11 95.1687C190.411 95.6696 190.711 96.0703 191.012 96.471C191.313 96.972 191.614 97.3727 191.915 97.8736C192.316 98.4747 192.617 99.1759 193.018 99.777C193.318 100.278 193.619 100.879 193.92 101.38C194.221 101.881 194.421 102.382 194.722 102.883C195.023 103.384 195.224 103.884 195.524 104.486V104.586C195.825 105.187 196.126 105.788 196.327 106.389C196.527 106.89 196.728 107.391 197.028 107.892C197.329 108.593 197.63 109.394 197.931 110.096C198.031 110.396 198.232 110.697 198.332 111.097C198.432 111.398 198.633 111.799 198.733 112.099C199.636 114.604 200.438 117.008 201.039 119.613C201.24 120.214 201.34 120.915 201.541 121.516C201.741 122.117 201.842 122.819 201.942 123.42C202.042 124.021 202.243 124.722 202.343 125.323C202.443 126.024 202.543 126.626 202.644 127.327C202.744 128.028 202.844 128.629 202.945 129.33C203.045 130.032 203.145 130.633 203.145 131.334C203.245 132.035 203.245 132.636 203.346 133.338C203.446 134.039 203.446 134.64 203.446 135.341H-16.7509V135.141Z" fill="#009CBB"/>
<path d="M203.646 143.155C203.646 143.656 203.646 144.057 203.546 144.558C203.546 145.159 203.446 145.76 203.446 146.461C203.446 147.263 203.346 147.964 203.245 148.765C203.145 150.168 202.944 151.571 202.744 152.873C202.543 154.075 202.343 155.177 202.142 156.379C202.042 156.78 202.042 157.08 201.942 157.481C201.841 157.982 201.741 158.483 201.641 158.984C201.541 159.685 201.34 160.286 201.14 160.988C201.039 161.488 200.839 161.989 200.739 162.59C200.638 162.991 200.538 163.392 200.337 163.793C200.337 163.993 200.237 164.193 200.137 164.394C200.037 164.794 199.936 165.095 199.836 165.496C199.736 165.997 199.535 166.397 199.335 166.898C199.134 167.499 198.934 168 198.733 168.601C198.432 169.403 198.131 170.304 197.831 171.106C197.73 171.406 197.53 171.807 197.43 172.108C197.329 172.408 197.129 172.709 197.028 173.009C196.828 173.51 196.627 174.011 196.427 174.512C195.825 175.714 195.324 176.916 194.722 178.119C194.321 178.92 193.92 179.621 193.519 180.423C193.318 180.823 193.018 181.224 192.817 181.725C192.516 182.226 192.316 182.627 192.015 183.128C190.11 186.233 188.104 189.239 185.798 192.044C185.297 192.745 184.695 193.346 184.194 194.047C183.692 194.648 183.191 195.249 182.589 195.851C182.389 196.151 182.088 196.452 181.887 196.652C181.085 197.453 180.383 198.255 179.581 199.056C178.779 199.858 177.977 200.659 177.175 201.361C176.874 201.661 176.673 201.861 176.372 202.062C175.771 202.663 175.169 203.164 174.568 203.665C173.966 204.166 173.264 204.767 172.562 205.268C172.362 205.468 172.161 205.568 172.061 205.668C171.559 206.069 171.158 206.37 170.657 206.77C170.156 207.171 169.554 207.572 169.053 207.972C168.652 208.273 168.15 208.574 167.749 208.874C167.549 208.974 167.348 209.074 167.248 209.275C166.245 209.976 165.142 210.677 164.139 211.278C163.538 211.579 163.036 211.98 162.435 212.28C161.933 212.581 161.332 212.881 160.73 213.182C158.324 214.484 155.717 215.686 153.109 216.788C152.608 216.989 152.006 217.189 151.505 217.49C150.903 217.79 150.202 217.991 149.6 218.191C148.998 218.391 148.397 218.592 147.695 218.892C146.993 219.093 146.291 219.393 145.589 219.594C144.987 219.794 144.386 219.994 143.784 220.195C141.979 220.696 140.174 221.196 138.269 221.597C137.868 221.697 137.567 221.697 137.166 221.797C135.963 221.998 134.86 222.198 133.657 222.399C132.253 222.599 130.849 222.799 129.546 222.899C126.738 223.2 123.93 223.3 121.022 223.3H66.0736C21.2521 223.3 -15.2468 187.736 -16.7509 143.356H203.646V143.155Z" fill="#F18225"/>
<path d="M203.546 135.141H86.3286V57.4004H120.822C122.226 57.4004 123.73 57.4004 125.134 57.5006C125.836 57.5006 126.538 57.6008 127.239 57.6008C128.543 57.7009 129.847 57.8011 131.05 58.0015C131.551 58.1017 132.053 58.1017 132.554 58.2018C132.754 58.2018 132.955 58.302 133.256 58.302C133.757 58.4022 134.259 58.5024 134.76 58.5024C134.86 58.5024 135.061 58.5024 135.161 58.6026C135.662 58.7027 136.164 58.8029 136.665 58.9031C136.866 58.9031 137.066 59.0033 137.166 59.0033C137.668 59.1035 138.269 59.2037 138.771 59.3038C138.871 59.3038 138.871 59.3038 138.971 59.404C139.573 59.5042 140.074 59.7046 140.676 59.8047C140.776 59.8047 140.876 59.8047 140.977 59.9049C141.378 60.0051 141.879 60.1053 142.28 60.2055C142.681 60.3056 143.082 60.4058 143.484 60.506C143.584 60.506 143.684 60.506 143.684 60.6062C144.185 60.7064 144.787 60.9067 145.288 61.1071C146.091 61.4076 146.993 61.608 147.795 61.9085C148.196 62.0087 148.597 62.2091 148.998 62.3093C149.299 62.4095 149.5 62.5096 149.801 62.6098C150.202 62.8102 150.703 62.9104 151.104 63.1107C151.204 63.1107 151.305 63.2109 151.405 63.2109C151.806 63.4113 152.307 63.6116 152.709 63.812C152.909 63.9122 153.11 64.0123 153.31 64.1125C153.811 64.3129 154.313 64.5133 154.814 64.8138C154.814 64.8138 154.914 64.8138 154.914 64.914C155.516 65.2145 156.118 65.4149 156.719 65.7154C157.221 66.016 157.822 66.2163 158.324 66.5169C163.137 69.0214 167.749 71.9267 171.961 75.2326C172.963 76.0341 173.866 76.8355 174.869 77.637C175.37 78.0377 175.871 78.4384 176.272 78.9393C176.974 79.5404 177.676 80.2417 178.378 80.943C179.08 81.6442 179.782 82.2453 180.384 82.9466C180.785 83.4475 181.286 83.8482 181.687 84.3491C182.088 84.85 182.589 85.2508 182.991 85.7517C183.793 86.6533 184.595 87.6551 185.397 88.5567C185.397 88.5567 185.497 88.6569 185.497 88.7571C185.898 89.258 186.3 89.6587 186.6 90.1596C187.001 90.5604 187.302 91.0613 187.603 91.5622C188.004 92.1633 188.506 92.7643 188.907 93.3654C189.207 93.8663 189.508 94.2671 189.809 94.768C189.909 94.8681 190.01 95.0685 190.11 95.1687C190.411 95.6696 190.712 96.0703 191.012 96.471C191.313 96.972 191.614 97.3727 191.915 97.8736C192.316 98.4747 192.617 99.1759 193.018 99.777C193.319 100.278 193.619 100.879 193.92 101.38C194.221 101.881 194.422 102.382 194.722 102.883C195.023 103.384 195.224 103.884 195.525 104.486V104.586C195.825 105.187 196.126 105.788 196.327 106.389C196.527 106.89 196.728 107.391 197.029 107.892C197.329 108.593 197.63 109.394 197.931 110.096C198.031 110.396 198.232 110.697 198.332 111.097C198.432 111.398 198.633 111.799 198.733 112.099C199.636 114.604 200.438 117.008 201.039 119.613C201.24 120.214 201.34 120.915 201.541 121.516C201.741 122.117 201.842 122.819 201.942 123.42C202.042 124.021 202.243 124.722 202.343 125.323C202.443 126.024 202.544 126.626 202.644 127.327C202.744 128.028 202.844 128.629 202.945 129.33C203.045 130.032 203.145 130.633 203.145 131.334C203.245 132.035 203.245 132.636 203.346 133.338C203.446 133.839 203.546 134.54 203.546 135.141Z" fill="#F18225"/>
<path d="M203.647 143.155C203.647 143.656 203.647 144.057 203.546 144.558C203.546 145.159 203.446 145.76 203.446 146.461C203.446 147.263 203.346 147.964 203.245 148.765C203.145 150.168 202.945 151.571 202.744 152.873C202.544 154.075 202.343 155.177 202.142 156.379C202.042 156.78 202.042 157.08 201.942 157.481C201.842 157.982 201.741 158.483 201.641 158.984C201.541 159.685 201.34 160.286 201.14 160.988C201.039 161.488 200.839 161.989 200.739 162.59C200.638 162.991 200.538 163.392 200.338 163.793C200.338 163.993 200.237 164.193 200.137 164.394C200.037 164.794 199.936 165.095 199.836 165.496C199.736 165.997 199.535 166.397 199.335 166.898C199.134 167.499 198.934 168 198.733 168.601C198.432 169.403 198.132 170.304 197.831 171.106C197.731 171.406 197.53 171.807 197.43 172.108C197.329 172.408 197.129 172.709 197.029 173.009C196.828 173.51 196.628 174.011 196.427 174.512C195.825 175.714 195.324 176.916 194.722 178.119C194.321 178.92 193.92 179.621 193.519 180.423C193.319 180.823 193.018 181.224 192.817 181.725C192.516 182.226 192.316 182.627 192.015 183.128C190.11 186.233 188.104 189.239 185.798 192.044C185.297 192.745 184.695 193.346 184.194 194.047C183.692 194.648 183.191 195.249 182.589 195.851C182.389 196.151 182.088 196.452 181.888 196.652C181.085 197.453 180.384 198.255 179.581 199.056C178.779 199.858 177.977 200.659 177.175 201.361C176.874 201.661 176.673 201.861 176.373 202.062C175.771 202.663 175.169 203.164 174.568 203.665C173.966 204.166 173.264 204.767 172.562 205.268C172.362 205.468 172.161 205.568 172.061 205.668C171.56 206.069 171.159 206.37 170.657 206.77C170.156 207.171 169.554 207.572 169.053 207.972C168.652 208.273 168.15 208.574 167.749 208.874C167.549 208.974 167.348 209.074 167.248 209.275C166.245 209.976 165.142 210.677 164.139 211.278C163.538 211.579 163.036 211.98 162.435 212.28C161.934 212.581 161.332 212.881 160.73 213.182C158.324 214.484 155.717 215.686 153.11 216.788C152.608 216.989 152.007 217.189 151.505 217.49C150.904 217.79 150.202 217.991 149.6 218.191C148.998 218.391 148.397 218.592 147.695 218.892C146.993 219.093 146.291 219.393 145.589 219.594C144.988 219.794 144.386 219.994 143.784 220.195C141.979 220.696 140.175 221.196 138.269 221.597C137.868 221.697 137.567 221.697 137.166 221.797C135.963 221.998 134.86 222.198 133.657 222.399C132.253 222.599 130.849 222.799 129.546 222.899C126.738 223.2 123.931 223.3 121.023 223.3H86.3286V143.356H203.647V143.155Z" fill="#009CBB"/>
<path d="M-16.7509 300.841C-15.4473 280.003 -6.52314 261.169 7.41463 247.344C22.4554 232.317 43.1114 223.1 66.0736 223.1H120.822C122.226 223.1 123.73 223.1 125.134 223.2C125.836 223.2 126.537 223.3 127.239 223.3C128.543 223.401 129.846 223.501 131.05 223.701C131.551 223.801 132.052 223.801 132.554 223.902C132.754 223.902 132.955 224.002 133.256 224.002C133.757 224.102 134.258 224.202 134.76 224.202C134.86 224.202 135.061 224.202 135.161 224.302C135.662 224.402 136.164 224.503 136.665 224.603C136.865 224.603 137.066 224.703 137.166 224.703C137.668 224.803 138.269 224.903 138.771 225.004C138.871 225.004 138.871 225.004 138.971 225.104C139.573 225.204 140.074 225.404 140.676 225.504C140.776 225.504 140.876 225.504 140.977 225.605C141.378 225.705 141.879 225.805 142.28 225.905C142.681 226.005 143.082 226.106 143.483 226.206C143.584 226.206 143.684 226.206 143.684 226.306C144.185 226.406 144.787 226.606 145.288 226.807C146.09 227.107 146.993 227.308 147.795 227.608C148.196 227.708 148.597 227.909 148.998 228.009C149.299 228.109 149.5 228.209 149.8 228.31C150.202 228.51 150.703 228.61 151.104 228.81C151.204 228.81 151.305 228.911 151.405 228.911C151.806 229.111 152.307 229.311 152.708 229.512C152.909 229.612 153.109 229.712 153.31 229.812C153.811 230.013 154.313 230.213 154.814 230.514C154.814 230.514 154.914 230.514 154.914 230.614C155.516 230.914 156.118 231.115 156.719 231.415C157.221 231.716 157.822 231.916 158.324 232.217C163.137 234.721 167.749 237.626 171.961 240.932C172.963 241.734 173.866 242.535 174.868 243.337C175.37 243.737 175.871 244.138 176.272 244.639C176.974 245.24 177.676 245.941 178.378 246.643C179.08 247.344 179.782 247.945 180.383 248.646C180.784 249.147 181.286 249.548 181.687 250.049C182.088 250.55 182.589 250.95 182.99 251.451C183.793 252.353 184.595 253.355 185.397 254.256C185.397 254.256 185.497 254.357 185.497 254.457C185.898 254.958 186.299 255.358 186.6 255.859C187.001 256.26 187.302 256.761 187.603 257.262C188.004 257.863 188.505 258.464 188.906 259.065C189.207 259.566 189.508 259.967 189.809 260.468C189.909 260.568 190.009 260.768 190.11 260.868C190.411 261.369 190.711 261.77 191.012 262.171C191.313 262.672 191.614 263.072 191.915 263.573C192.316 264.174 192.617 264.876 193.018 265.477C193.318 265.978 193.619 266.579 193.92 267.08C194.221 267.581 194.421 268.081 194.722 268.582C195.023 269.083 195.224 269.584 195.524 270.185V270.285C195.825 270.887 196.126 271.488 196.327 272.089C196.527 272.59 196.728 273.091 197.028 273.591C197.329 274.293 197.63 275.094 197.931 275.795C198.031 276.096 198.232 276.396 198.332 276.797C198.432 277.098 198.633 277.498 198.733 277.799C199.636 280.304 200.438 282.708 201.039 285.313C201.24 285.914 201.34 286.615 201.541 287.216C201.741 287.817 201.842 288.518 201.942 289.119C202.042 289.721 202.243 290.422 202.343 291.023C202.443 291.724 202.543 292.325 202.644 293.027C202.744 293.728 202.844 294.329 202.945 295.03C203.045 295.731 203.145 296.333 203.145 297.034C203.245 297.735 203.245 298.336 203.346 299.037C203.446 299.739 203.446 300.34 203.446 301.041H-16.7509V300.841Z" fill="#009CBB"/>
<path d="M203.546 300.841H86.3286V223.1H120.822C122.226 223.1 123.73 223.1 125.134 223.2C125.836 223.2 126.538 223.3 127.239 223.3C128.543 223.401 129.847 223.501 131.05 223.701C131.551 223.801 132.053 223.801 132.554 223.902C132.754 223.902 132.955 224.002 133.256 224.002C133.757 224.102 134.259 224.202 134.76 224.202C134.86 224.202 135.061 224.202 135.161 224.302C135.662 224.402 136.164 224.503 136.665 224.603C136.866 224.603 137.066 224.703 137.166 224.703C137.668 224.803 138.269 224.903 138.771 225.004C138.871 225.004 138.871 225.004 138.971 225.104C139.573 225.204 140.074 225.404 140.676 225.504C140.776 225.504 140.876 225.504 140.977 225.605C141.378 225.705 141.879 225.805 142.28 225.905C142.681 226.005 143.082 226.106 143.484 226.206C143.584 226.206 143.684 226.206 143.684 226.306C144.185 226.406 144.787 226.606 145.288 226.807C146.091 227.107 146.993 227.308 147.795 227.608C148.196 227.708 148.597 227.909 148.998 228.009C149.299 228.109 149.5 228.209 149.801 228.31C150.202 228.51 150.703 228.61 151.104 228.81C151.204 228.81 151.305 228.911 151.405 228.911C151.806 229.111 152.307 229.311 152.709 229.512C152.909 229.612 153.11 229.712 153.31 229.812C153.811 230.013 154.313 230.213 154.814 230.514C154.814 230.514 154.914 230.514 154.914 230.614C155.516 230.914 156.118 231.115 156.719 231.415C157.221 231.716 157.822 231.916 158.324 232.217C163.137 234.721 167.749 237.626 171.961 240.932C172.963 241.734 173.866 242.535 174.869 243.337C175.37 243.737 175.871 244.138 176.272 244.639C176.974 245.24 177.676 245.941 178.378 246.643C179.08 247.344 179.782 247.945 180.384 248.646C180.785 249.147 181.286 249.548 181.687 250.049C182.088 250.55 182.589 250.95 182.991 251.451C183.793 252.353 184.595 253.355 185.397 254.256C185.397 254.256 185.497 254.357 185.497 254.457C185.898 254.958 186.3 255.358 186.6 255.859C187.001 256.26 187.302 256.761 187.603 257.262C188.004 257.863 188.506 258.464 188.907 259.065C189.207 259.566 189.508 259.967 189.809 260.468C189.909 260.568 190.01 260.768 190.11 260.868C190.411 261.369 190.712 261.77 191.012 262.171C191.313 262.672 191.614 263.072 191.915 263.573C192.316 264.174 192.617 264.876 193.018 265.477C193.319 265.978 193.619 266.579 193.92 267.08C194.221 267.581 194.422 268.081 194.722 268.582C195.023 269.083 195.224 269.584 195.525 270.185V270.285C195.825 270.887 196.126 271.488 196.327 272.089C196.527 272.59 196.728 273.091 197.029 273.591C197.329 274.293 197.63 275.094 197.931 275.795C198.031 276.096 198.232 276.396 198.332 276.797C198.432 277.098 198.633 277.498 198.733 277.799C199.636 280.304 200.438 282.708 201.039 285.313C201.24 285.914 201.34 286.615 201.541 287.216C201.741 287.817 201.842 288.518 201.942 289.119C202.042 289.721 202.243 290.422 202.343 291.023C202.443 291.724 202.544 292.325 202.644 293.027C202.744 293.728 202.844 294.329 202.945 295.03C203.045 295.731 203.145 296.333 203.145 297.034C203.245 297.735 203.245 298.336 203.346 299.037C203.446 299.538 203.546 300.24 203.546 300.841Z" fill="#F18225"/>
<rect x="-4.25" y="153.25" width="24.5" height="197.5" transform="rotate(-90 -4.25 153.25)" fill="white" stroke="#009CBB" stroke-width="1.5"/>
<rect x="82.75" y="219.75" width="24.5" height="67.5" fill="white" stroke="#009CBB" stroke-width="1.5"/>
<rect x="82.75" y="54.7505" width="24.5" height="168.8" fill="white" stroke="#009CBB" stroke-width="1.5"/>
<rect x="82.75" y="-5.24951" width="24.5" height="62.5" fill="white" stroke="#009CBB" stroke-width="1.5"/>
</g>
</svg>
