<svg width="186" height="278" viewBox="0 0 186 278" fill="none" xmlns="http://www.w3.org/2000/svg">
<path d="M168.5 276.25H17.5C8.81421 276.25 1.75 269.186 1.75 260.5V17.5C1.75 8.81421 8.81421 1.75 17.5 1.75H168.5C177.186 1.75 184.25 8.81421 184.25 17.5V260.5C184.25 269.186 177.186 276.25 168.5 276.25Z" fill="white" stroke="#2B4554" stroke-width="1.5"/>
<path d="M162.4 265.9H23.6C17.7 265.9 13 261.2 13 255.3V22.5004C13 16.6004 17.7 11.9004 23.6 11.9004H162.5C168.4 11.9004 173.1 16.6004 173.1 22.5004V255.2C173 261.1 168.3 265.9 162.4 265.9Z" stroke="#2B4554" stroke-width="0.5669" stroke-miterlimit="10"/>
<path d="M57 41H4V28.3333C4 14.3333 15.2424 3 29.1301 3H57V41Z" fill="white"/>
<path d="M129 237H182V249.333C182 262.965 170.758 274 156.87 274H129V237Z" fill="white"/>
<path d="M27.5999 11.9004C27.5999 16.8004 27.5999 21.7004 27.5999 26.6004C27.4999 26.6004 27.4999 26.6004 27.3999 26.6004C24.5999 26.6004 21.7999 26.6004 18.9999 26.6004C16.0999 26.6004 13.4999 24.5004 12.9999 21.6004C12.9999 21.3004 12.8999 21.1004 12.8999 20.8004C12.8999 19.8004 12.8999 18.8004 12.8999 17.9004C12.8999 15.2004 14.8999 12.8004 17.5999 12.2004C17.9999 12.1004 18.4999 12.1004 18.8999 12.0004C21.6999 12.0004 24.4999 12.0004 27.2999 12.0004C27.4999 11.9004 27.4999 11.9004 27.5999 11.9004ZM23.0999 16.5004C22.9999 16.5004 22.9999 16.5004 22.9999 16.5004C21.6999 16.5004 20.3999 16.5004 19.0999 16.5004C18.1999 16.5004 17.5999 17.2004 17.5999 18.0004C17.5999 18.8004 17.5999 19.6004 17.5999 20.4004C17.5999 21.3004 18.2999 22.0004 19.1999 22.0004C20.4999 22.0004 21.6999 22.0004 22.9999 22.0004C23.0999 22.0004 23.0999 22.0004 23.1999 22.0004C23.0999 20.2004 23.0999 18.3004 23.0999 16.5004Z" fill="#4C7B96"/>
<path d="M30.3999 11.9004C30.4999 11.9004 30.4999 11.9004 30.5999 11.9004C33.3999 11.9004 36.2999 11.9004 39.0999 11.9004C41.5999 11.9004 43.7999 13.4004 44.6999 15.7004C44.9999 16.4004 45.0999 17.2004 45.0999 17.9004C45.0999 18.8004 45.0999 19.7004 45.0999 20.6004C45.0999 23.5004 43.0999 26.0004 40.1999 26.5004C39.7999 26.6004 39.2999 26.6004 38.8999 26.6004C37.5999 26.6004 36.3999 26.6004 35.0999 26.6004C34.9999 26.6004 34.9999 26.6004 34.8999 26.6004C34.8999 28.5004 34.8999 30.4004 34.8999 32.3004C33.3999 32.3004 31.8999 32.3004 30.3999 32.3004C30.3999 25.6004 30.3999 18.8004 30.3999 11.9004ZM34.8999 22.2004H34.9999C36.3999 22.2004 37.6999 22.2004 39.0999 22.2004C39.9999 22.2004 40.5999 21.5004 40.5999 20.7004C40.5999 19.8004 40.5999 19.0004 40.5999 18.1004C40.5999 17.3004 39.9999 16.5004 38.9999 16.5004C37.6999 16.5004 36.3999 16.5004 35.0999 16.5004C34.9999 16.5004 34.9999 16.5004 34.8999 16.5004C34.8999 18.4004 34.8999 20.3004 34.8999 22.2004Z" fill="#4C7B96"/>
<path d="M158.4 265.9C158.4 261 158.4 256.1 158.4 251.2C158.5 251.2 158.5 251.2 158.6 251.2C161.4 251.2 164.2 251.2 167 251.2C169.9 251.2 172.5 253.3 173 256.2C173 256.5 173.1 256.7 173.1 257C173.1 258 173.1 259 173.1 259.9C173.1 262.6 171.1 265 168.4 265.6C168 265.7 167.5 265.7 167.1 265.8C164.3 265.8 161.5 265.8 158.7 265.8C158.5 265.9 158.5 265.9 158.4 265.9ZM162.9 261.3C163 261.3 163 261.3 163 261.3C164.3 261.3 165.6 261.3 166.9 261.3C167.8 261.3 168.4 260.6 168.4 259.8C168.4 259 168.4 258.2 168.4 257.4C168.4 256.5 167.7 255.8 166.8 255.8C165.5 255.8 164.3 255.8 163 255.8C162.9 255.8 162.9 255.8 162.8 255.8C162.9 257.6 162.9 259.5 162.9 261.3Z" fill="#4C7B96"/>
<path d="M155.6 265.9C155.5 265.9 155.5 265.9 155.4 265.9C152.6 265.9 149.7 265.9 146.9 265.9C144.4 265.9 142.2 264.4 141.3 262.1C141 261.4 140.9 260.6 140.9 259.9C140.9 259 140.9 258.1 140.9 257.2C140.9 254.3 142.9 251.8 145.8 251.3C146.2 251.2 146.7 251.2 147.1 251.2C148.4 251.2 149.6 251.2 150.9 251.2C151 251.2 151 251.2 151.1 251.2C151.1 249.3 151.1 247.4 151.1 245.5C152.6 245.5 154.1 245.5 155.6 245.5C155.6 252.2 155.6 259 155.6 265.9ZM151.1 255.6H151C149.6 255.6 148.3 255.6 146.9 255.6C146 255.6 145.4 256.3 145.4 257.1C145.4 258 145.4 258.8 145.4 259.7C145.4 260.5 146 261.3 147 261.3C148.3 261.3 149.6 261.3 150.9 261.3C151 261.3 151 261.3 151.1 261.3C151.1 259.4 151.1 257.5 151.1 255.6Z" fill="#4C7B96"/>
<path d="M53.9205 147.44C52.5379 147.44 51.2926 147.194 50.1847 146.702C49.0862 146.2 48.215 145.461 47.571 144.486C46.9366 143.51 46.6193 142.308 46.6193 140.878C46.6193 139.647 46.8466 138.629 47.3011 137.824C47.7557 137.019 48.3759 136.375 49.1619 135.892C49.9479 135.409 50.8333 135.045 51.8182 134.798C52.8125 134.543 53.84 134.358 54.9006 134.244C56.179 134.112 57.2159 133.993 58.0114 133.889C58.8068 133.776 59.3845 133.605 59.7443 133.378C60.1136 133.141 60.2983 132.777 60.2983 132.284V132.199C60.2983 131.129 59.9811 130.3 59.3466 129.713C58.7121 129.126 57.7983 128.832 56.6051 128.832C55.3456 128.832 54.3466 129.107 53.608 129.656C52.8788 130.205 52.3864 130.854 52.1307 131.602L47.3295 130.92C47.7083 129.595 48.3333 128.487 49.2045 127.597C50.0758 126.697 51.1411 126.025 52.4006 125.58C53.66 125.125 55.0521 124.898 56.5767 124.898C57.6278 124.898 58.6742 125.021 59.7159 125.267C60.7576 125.513 61.7093 125.92 62.571 126.489C63.4328 127.047 64.1241 127.81 64.6449 128.776C65.1752 129.741 65.4403 130.949 65.4403 132.398V147H60.4972V144.003H60.3267C60.0142 144.609 59.5739 145.177 59.0057 145.707C58.447 146.228 57.7415 146.65 56.8892 146.972C56.0464 147.284 55.0568 147.44 53.9205 147.44ZM55.2557 143.662C56.2879 143.662 57.1828 143.458 57.9403 143.051C58.6979 142.634 59.2803 142.085 59.6875 141.403C60.1042 140.722 60.3125 139.978 60.3125 139.173V136.602C60.1515 136.735 59.8769 136.858 59.4886 136.972C59.1098 137.085 58.6837 137.185 58.2102 137.27C57.7367 137.355 57.268 137.431 56.804 137.497C56.34 137.563 55.9375 137.62 55.5966 137.668C54.8295 137.772 54.143 137.942 53.5369 138.179C52.9309 138.416 52.4527 138.747 52.1023 139.173C51.7519 139.59 51.5767 140.13 51.5767 140.793C51.5767 141.74 51.9223 142.455 52.6136 142.938C53.3049 143.42 54.1856 143.662 55.2557 143.662ZM80.0994 155.636C78.2528 155.636 76.6667 155.385 75.3409 154.884C74.0152 154.391 72.9498 153.728 72.1449 152.895C71.34 152.062 70.7812 151.138 70.4688 150.125L75.0994 149.003C75.3078 149.429 75.6108 149.85 76.0085 150.267C76.4063 150.693 76.9413 151.044 77.6136 151.318C78.2955 151.602 79.1525 151.744 80.1847 151.744C81.643 151.744 82.8504 151.389 83.8068 150.679C84.7633 149.978 85.2415 148.823 85.2415 147.213V143.08H84.9858C84.7206 143.61 84.3324 144.154 83.821 144.713C83.3191 145.272 82.6515 145.741 81.8182 146.119C80.9943 146.498 79.9574 146.688 78.7074 146.688C77.0312 146.688 75.5114 146.295 74.1477 145.509C72.7936 144.713 71.714 143.529 70.9091 141.957C70.1136 140.376 69.7159 138.397 69.7159 136.02C69.7159 133.624 70.1136 131.602 70.9091 129.955C71.714 128.297 72.7983 127.043 74.1619 126.19C75.5256 125.329 77.0455 124.898 78.7216 124.898C80 124.898 81.0511 125.116 81.875 125.551C82.7083 125.977 83.3712 126.493 83.8636 127.099C84.3561 127.696 84.7301 128.259 84.9858 128.79H85.2699V125.182H90.3409V147.355C90.3409 149.221 89.8958 150.764 89.0057 151.986C88.1155 153.207 86.8987 154.121 85.3551 154.727C83.8116 155.333 82.0597 155.636 80.0994 155.636ZM80.142 142.653C81.2311 142.653 82.1591 142.388 82.9261 141.858C83.6932 141.328 84.2756 140.565 84.6733 139.571C85.071 138.577 85.2699 137.384 85.2699 135.991C85.2699 134.618 85.071 133.416 84.6733 132.384C84.285 131.351 83.7074 130.551 82.9403 129.983C82.1828 129.405 81.25 129.116 80.142 129.116C78.9962 129.116 78.0398 129.415 77.2727 130.011C76.5057 130.608 75.928 131.427 75.5398 132.469C75.1515 133.501 74.9574 134.675 74.9574 135.991C74.9574 137.327 75.1515 138.496 75.5398 139.5C75.9375 140.494 76.5199 141.271 77.2869 141.83C78.0634 142.379 79.0152 142.653 80.142 142.653ZM95.6108 147V125.182H100.753V147H95.6108ZM98.196 122.085C97.3816 122.085 96.6809 121.815 96.0938 121.276C95.5066 120.726 95.2131 120.068 95.2131 119.301C95.2131 118.525 95.5066 117.866 96.0938 117.327C96.6809 116.777 97.3816 116.503 98.196 116.503C99.0199 116.503 99.7206 116.777 100.298 117.327C100.885 117.866 101.179 118.525 101.179 119.301C101.179 120.068 100.885 120.726 100.298 121.276C99.7206 121.815 99.0199 122.085 98.196 122.085ZM111.183 117.909V147H106.04V117.909H111.183ZM126.129 147.426C123.942 147.426 122.053 146.972 120.462 146.062C118.88 145.144 117.663 143.847 116.811 142.17C115.959 140.485 115.533 138.501 115.533 136.219C115.533 133.974 115.959 132.005 116.811 130.31C117.673 128.605 118.875 127.279 120.419 126.332C121.963 125.376 123.776 124.898 125.859 124.898C127.204 124.898 128.473 125.116 129.666 125.551C130.869 125.977 131.929 126.64 132.848 127.54C133.776 128.439 134.505 129.585 135.036 130.977C135.566 132.36 135.831 134.008 135.831 135.92V137.497H117.947V134.031H130.902C130.893 133.046 130.679 132.17 130.263 131.403C129.846 130.627 129.264 130.016 128.516 129.571C127.777 129.126 126.915 128.903 125.93 128.903C124.879 128.903 123.956 129.159 123.161 129.67C122.365 130.172 121.745 130.835 121.3 131.659C120.864 132.473 120.642 133.368 120.632 134.344V137.369C120.632 138.638 120.864 139.727 121.328 140.636C121.792 141.536 122.441 142.227 123.274 142.71C124.107 143.184 125.083 143.42 126.2 143.42C126.948 143.42 127.625 143.316 128.232 143.108C128.838 142.89 129.363 142.573 129.808 142.156C130.253 141.74 130.589 141.223 130.817 140.608L135.618 141.148C135.315 142.417 134.737 143.525 133.885 144.472C133.042 145.409 131.963 146.138 130.646 146.659C129.33 147.17 127.824 147.426 126.129 147.426Z" fill="#2B4554"/>
</svg>
