<svg width="476" height="215" viewBox="0 0 476 215" fill="none" xmlns="http://www.w3.org/2000/svg">
<g clip-path="url(#clip0_1291_4105)">
<g clip-path="url(#clip1_1291_4105)">
<path d="M39.0862 183.797L134.541 168.679C140.634 167.714 144.925 162.255 144.002 156.43L121.153 12.1641C120.23 6.33943 114.463 2.47337 108.37 3.43839L12.9148 18.557C6.82186 19.522 2.53134 24.9811 3.45388 30.8057L26.3033 175.072C27.2259 180.896 32.9934 184.762 39.0862 183.797Z" fill="#2B4554" stroke="#009CBB" stroke-width="1.4"/>
<mask id="mask0_1291_4105" style="mask-type:luminance" maskUnits="userSpaceOnUse" x="4" y="3" width="140" height="181">
<path d="M134.432 167.987L38.9767 183.106C33.2242 184.017 27.8504 180.365 26.9947 174.962L4.14526 30.6962C3.28958 25.2937 7.27168 20.1595 13.0243 19.2484L108.479 4.12977C114.232 3.21865 119.606 6.87102 120.461 12.2736L143.311 156.539C144.166 161.942 140.184 167.076 134.432 167.987Z" fill="white"/>
</mask>
<g mask="url(#mask0_1291_4105)">
<path d="M134.432 167.987L38.9767 183.106C33.2242 184.017 27.8504 180.365 26.9947 174.962L4.14526 30.6962C3.28958 25.2937 7.27168 20.1595 13.0243 19.2484L108.479 4.12977C114.232 3.21865 119.606 6.87102 120.461 12.2736L143.311 156.539C144.166 161.942 140.184 167.076 134.432 167.987Z" fill="#2B4554"/>
<path d="M82.7027 41.8668L48.1872 47.3335C19.2978 51.9092 -7.57099 33.6473 -11.8682 6.51585C-16.1654 -20.6156 3.74511 -46.2866 32.6345 -50.8622L67.15 -56.3289C96.0394 -60.9046 122.908 -42.6427 127.205 -15.5112C131.503 11.6202 111.592 37.2912 82.7027 41.8668Z" fill="#F18225"/>
<path d="M127.206 -15.5112C129.349 -1.97512 125.417 11.2453 117.408 21.6425C109.336 32.0496 97.1792 39.5741 82.7029 41.8669L63.9912 44.8305L48.4385 -53.3652L67.1502 -56.3289C96.0396 -60.9045 122.908 -42.6427 127.206 -15.5112Z" fill="#009CBB"/>
<path d="M3.26846 101.674C2.13442 89.1948 5.9928 77.1424 13.4821 67.5578C21.5539 57.1506 33.7112 49.6262 48.1875 47.3333L82.703 41.8666C83.588 41.7265 84.5362 41.5763 85.4307 41.4955C85.8732 41.4254 86.3251 41.4147 86.7676 41.3446C87.5988 41.2738 88.43 41.203 89.2074 41.2016C89.5329 41.2109 89.8489 41.1608 90.1744 41.1701C90.3008 41.1501 90.4367 41.1895 90.6263 41.1594C90.9518 41.1687 91.2773 41.178 91.5934 41.128C91.6566 41.118 91.783 41.0979 91.8556 41.1473C92.1811 41.1566 92.5066 41.1659 92.8321 41.1752C92.9585 41.1552 93.0943 41.1945 93.1575 41.1845C93.483 41.1938 93.8717 41.1931 94.1972 41.2024C94.2604 41.1924 94.2604 41.1924 94.333 41.2418C94.7217 41.2411 95.0566 41.3097 95.4453 41.309C95.5085 41.299 95.5717 41.289 95.6443 41.3384C95.9066 41.3577 96.2321 41.367 96.4943 41.3863C96.7566 41.4056 97.0189 41.425 97.2811 41.4443C97.3444 41.4343 97.4076 41.4242 97.417 41.4836C97.7425 41.4929 98.1406 41.5516 98.4754 41.6203C99.0094 41.7183 99.5971 41.7469 100.131 41.8449C100.393 41.8642 100.665 41.9429 100.927 41.9622C101.126 41.9916 101.262 42.0309 101.461 42.0602C101.733 42.1389 102.058 42.1482 102.33 42.2269C102.393 42.2169 102.466 42.2663 102.529 42.2563C102.801 42.3349 103.136 42.4036 103.407 42.4823C103.543 42.5216 103.679 42.561 103.815 42.6003C104.15 42.669 104.485 42.7377 104.829 42.8657C104.829 42.8657 104.892 42.8557 104.901 42.9151C105.309 43.0331 105.707 43.0918 106.115 43.2098C106.459 43.3379 106.857 43.3965 107.201 43.5246C110.471 44.5282 113.651 45.7893 116.617 47.328C117.324 47.7028 117.968 48.0876 118.675 48.4625C119.029 48.6499 119.383 48.8373 119.683 49.0941C120.182 49.3802 120.69 49.7257 121.198 50.0712C121.707 50.4167 122.206 50.7028 122.651 51.0583C122.951 51.3151 123.304 51.5025 123.604 51.7593C123.904 52.0161 124.258 52.2035 124.558 52.4603C125.148 52.9145 125.748 53.4281 126.338 53.8824C126.338 53.8824 126.411 53.9317 126.42 53.9911C126.72 54.2479 127.01 54.4453 127.247 54.7121C127.537 54.9095 127.774 55.1763 128.011 55.4431C128.32 55.7593 128.693 56.0655 129.002 56.3816C129.239 56.6484 129.466 56.8559 129.702 57.1227C129.775 57.172 129.857 57.2807 129.93 57.3301C130.166 57.5969 130.394 57.8043 130.621 58.0118C130.858 58.2786 131.085 58.486 131.321 58.7528C131.631 59.069 131.886 59.4545 132.195 59.7707C132.432 60.0375 132.678 60.3637 132.915 60.6305C133.152 60.8973 133.325 61.1741 133.562 61.4409C133.798 61.7077 133.972 61.9846 134.218 62.3107L134.227 62.3701C134.473 62.6963 134.719 63.0224 134.902 63.3586C135.076 63.6354 135.249 63.9123 135.486 64.1791C135.741 64.5646 136.006 65.0095 136.262 65.3951C136.353 65.5632 136.508 65.7212 136.608 65.9487C136.7 66.1168 136.864 66.3343 136.955 66.5023C137.759 67.8965 138.491 69.2412 139.115 70.7247C139.297 71.0609 139.426 71.4665 139.609 71.8027C139.792 72.1388 139.921 72.5444 140.041 72.8906C140.16 73.2368 140.353 73.6324 140.472 73.9786C140.601 74.3841 140.721 74.7303 140.85 75.1359C140.979 75.5415 141.099 75.8877 141.228 76.2932C141.357 76.6988 141.476 77.045 141.542 77.4606C141.671 77.8662 141.728 78.2224 141.857 78.6279C141.986 79.0335 142.042 79.3897 142.108 79.8053L3.28727 101.792L3.26846 101.674Z" fill="#009CBB"/>
<path d="M142.968 84.4168C143.015 84.7136 143.052 84.9511 143.036 85.2579C143.092 85.6142 143.086 85.9804 143.151 86.396C143.227 86.8709 143.229 87.2965 143.241 87.7815C143.31 88.6226 143.315 89.4738 143.311 90.2656C143.297 90.9981 143.274 91.6712 143.261 92.4036C143.235 92.6511 143.263 92.8292 143.238 93.0767C143.221 93.3836 143.205 93.6904 143.189 93.9973C143.192 94.4229 143.122 94.7991 143.061 95.2347C143.045 95.5416 142.965 95.8584 142.959 96.2247C142.933 96.4721 142.907 96.7196 142.819 96.9771C142.837 97.0959 142.793 97.2246 142.749 97.3534C142.723 97.6008 142.688 97.789 142.662 98.0364C142.646 98.3433 142.557 98.6008 142.478 98.9177C142.408 99.2939 142.328 99.6108 142.258 99.987C142.144 100.492 142.039 101.056 141.925 101.561C141.89 101.749 141.801 102.007 141.766 102.195C141.731 102.383 141.633 102.581 141.598 102.769C141.518 103.086 141.439 103.403 141.359 103.72C141.093 104.493 140.89 105.255 140.623 106.028C140.446 106.543 140.258 106.998 140.081 107.513C139.992 107.771 139.84 108.038 139.761 108.355C139.618 108.682 139.529 108.939 139.386 109.266C138.477 111.297 137.495 113.278 136.304 115.171C136.054 115.637 135.731 116.053 135.481 116.518C135.221 116.925 134.961 117.331 134.638 117.747C134.54 117.945 134.379 118.154 134.271 118.292C133.841 118.847 133.473 119.392 133.043 119.947C132.612 120.502 132.182 121.058 131.742 121.553C131.581 121.761 131.473 121.9 131.302 122.049C130.979 122.465 130.647 122.822 130.315 123.179C129.982 123.536 129.596 123.962 129.201 124.329C129.093 124.468 128.976 124.547 128.922 124.617C128.644 124.904 128.419 125.122 128.141 125.41C127.862 125.697 127.521 125.995 127.242 126.283C127.018 126.501 126.73 126.729 126.505 126.947C126.388 127.026 126.271 127.106 126.227 127.235C125.66 127.75 125.031 128.276 124.455 128.732C124.104 128.97 123.825 129.258 123.474 129.496C123.186 129.724 122.835 129.963 122.484 130.201C121.089 131.213 119.559 132.186 118.018 133.099C117.721 133.268 117.361 133.447 117.073 133.675C116.722 133.913 116.298 134.102 115.938 134.281C115.577 134.459 115.217 134.638 114.802 134.886C114.379 135.075 113.964 135.323 113.541 135.512C113.18 135.691 112.82 135.87 112.459 136.049C111.368 136.526 110.277 137.003 109.114 137.43C108.87 137.53 108.681 137.56 108.437 137.659C107.698 137.898 107.021 138.127 106.281 138.366C105.415 138.625 104.549 138.884 103.736 139.073C101.995 139.532 100.234 139.871 98.4007 140.162L63.7588 145.649C35.5015 150.124 9.1531 132.693 4.03932 106.543L142.986 84.5355L142.968 84.4168Z" fill="#F18225"/>
<path d="M142.152 79.6772L68.2538 91.3816L60.957 45.3115L82.7031 41.8673C83.5881 41.7271 84.5363 41.5769 85.4307 41.4961C85.8733 41.426 86.3252 41.4153 86.7677 41.3452C87.5989 41.2744 88.4301 41.2037 89.2075 41.2022C89.5329 41.2116 89.849 41.1615 90.1745 41.1708C90.3009 41.1508 90.4368 41.1901 90.6264 41.1601C90.9519 41.1694 91.2774 41.1787 91.5934 41.1286C91.6566 41.1186 91.7831 41.0986 91.8557 41.148C92.1812 41.1573 92.5067 41.1666 92.8321 41.1759C92.9586 41.1558 93.0944 41.1952 93.1576 41.1852C93.4831 41.1945 93.8718 41.1938 94.1973 41.2031C94.2605 41.1931 94.2605 41.1931 94.3331 41.2424C94.7218 41.2417 95.0567 41.3104 95.4454 41.3097C95.5086 41.2997 95.5718 41.2897 95.6444 41.339C95.9067 41.3583 96.2322 41.3677 96.4944 41.387C96.7567 41.4063 97.019 41.4256 97.2812 41.4449C97.3444 41.4349 97.4077 41.4249 97.4171 41.4843C97.7425 41.4936 98.1406 41.5522 98.4755 41.6209C99.0094 41.7189 99.5972 41.7476 100.131 41.8456C100.393 41.8649 100.665 41.9436 100.927 41.9629C101.126 41.9922 101.262 42.0316 101.461 42.0609C101.733 42.1396 102.058 42.1489 102.33 42.2276C102.393 42.2176 102.466 42.2669 102.529 42.2569C102.801 42.3356 103.136 42.4043 103.407 42.483C103.543 42.5223 103.679 42.5617 103.815 42.601C104.15 42.6697 104.485 42.7384 104.829 42.8664C104.829 42.8664 104.892 42.8564 104.902 42.9157C105.309 43.0338 105.707 43.0924 106.115 43.2105C106.459 43.3385 106.857 43.3972 107.201 43.5252C110.471 44.5289 113.651 45.79 116.617 47.3286C117.324 47.7035 117.968 48.0883 118.676 48.4631C119.029 48.6505 119.383 48.8379 119.683 49.0947C120.182 49.3809 120.69 49.7264 121.198 50.0719C121.707 50.4174 122.206 50.7035 122.651 51.059C122.951 51.3158 123.304 51.5032 123.604 51.76C123.904 52.0168 124.258 52.2042 124.558 52.461C125.148 52.9152 125.748 53.4288 126.338 53.883C126.338 53.883 126.411 53.9324 126.42 53.9917C126.72 54.2485 127.01 54.446 127.247 54.7128C127.538 54.9102 127.774 55.177 128.011 55.4438C128.32 55.76 128.693 56.0661 129.002 56.3823C129.239 56.6491 129.466 56.8565 129.703 57.1233C129.775 57.1727 129.857 57.2814 129.93 57.3308C130.166 57.5976 130.394 57.805 130.621 58.0124C130.858 58.2793 131.085 58.4867 131.322 58.7535C131.631 59.0697 131.886 59.4552 132.196 59.7714C132.432 60.0382 132.678 60.3643 132.915 60.6311C133.152 60.898 133.325 61.1748 133.562 61.4416C133.798 61.7084 133.972 61.9852 134.218 62.3114L134.227 62.3708C134.473 62.6969 134.719 63.0231 134.902 63.3593C135.076 63.6361 135.249 63.9129 135.486 64.1797C135.741 64.5653 136.006 65.0102 136.262 65.3957C136.353 65.5638 136.508 65.7219 136.609 65.9494C136.7 66.1175 136.864 66.3349 136.955 66.503C137.759 67.8971 138.491 69.2419 139.115 70.7254C139.297 71.0616 139.426 71.4671 139.609 71.8033C139.792 72.1395 139.921 72.5451 140.041 72.8913C140.16 73.2375 140.353 73.633 140.472 73.9792C140.601 74.3848 140.721 74.731 140.85 75.1366C140.979 75.5421 141.099 75.8883 141.228 76.2939C141.357 76.6995 141.476 77.0457 141.542 77.4612C141.671 77.8668 141.728 78.223 141.857 78.6286C141.967 78.9154 142.096 79.321 142.152 79.6772Z" fill="#F18225"/>
<path d="M142.968 84.4165C143.015 84.7133 143.052 84.9508 143.036 85.2576C143.093 85.6138 143.086 85.9801 143.152 86.3956C143.227 86.8706 143.229 87.2962 143.241 87.7812C143.31 88.6223 143.315 89.4735 143.311 90.2653C143.297 90.9978 143.274 91.6709 143.261 92.4033C143.235 92.6508 143.263 92.8289 143.238 93.0764C143.221 93.3832 143.205 93.6901 143.189 93.997C143.192 94.4225 143.122 94.7988 143.061 95.2344C143.045 95.5412 142.965 95.8581 142.959 96.2243C142.933 96.4718 142.907 96.7193 142.819 96.9768C142.837 97.0955 142.793 97.2243 142.749 97.353C142.723 97.6005 142.688 97.7886 142.662 98.0361C142.646 98.343 142.557 98.6005 142.478 98.9174C142.408 99.2936 142.329 99.6105 142.259 99.9867C142.144 100.492 142.039 101.056 141.925 101.561C141.89 101.749 141.801 102.007 141.766 102.195C141.731 102.383 141.633 102.581 141.598 102.769C141.518 103.086 141.439 103.403 141.359 103.72C141.093 104.492 140.89 105.255 140.623 106.027C140.446 106.542 140.259 106.998 140.081 107.513C139.992 107.77 139.84 108.038 139.761 108.355C139.618 108.682 139.529 108.939 139.387 109.266C138.477 111.297 137.495 113.278 136.304 115.171C136.054 115.636 135.731 116.052 135.481 116.518C135.221 116.924 134.961 117.331 134.639 117.747C134.54 117.945 134.379 118.153 134.271 118.292C133.841 118.847 133.473 119.392 133.043 119.947C132.612 120.502 132.182 121.057 131.742 121.553C131.581 121.761 131.473 121.9 131.302 122.049C130.979 122.465 130.647 122.822 130.315 123.179C129.982 123.536 129.596 123.962 129.201 124.329C129.093 124.468 128.976 124.547 128.922 124.616C128.644 124.904 128.419 125.122 128.141 125.41C127.862 125.697 127.521 125.995 127.242 126.282C127.018 126.5 126.73 126.729 126.505 126.947C126.388 127.026 126.271 127.105 126.227 127.234C125.66 127.75 125.031 128.276 124.455 128.732C124.104 128.97 123.825 129.258 123.474 129.496C123.186 129.724 122.835 129.962 122.484 130.2C121.089 131.213 119.559 132.185 118.018 133.099C117.721 133.267 117.361 133.446 117.073 133.674C116.722 133.913 116.298 134.101 115.938 134.28C115.577 134.459 115.217 134.638 114.802 134.886C114.379 135.075 113.964 135.323 113.541 135.512C113.18 135.691 112.82 135.869 112.459 136.048C111.368 136.525 110.277 137.002 109.114 137.43C108.871 137.53 108.681 137.56 108.437 137.659C107.698 137.898 107.021 138.127 106.281 138.366C105.415 138.625 104.549 138.883 103.736 139.073C101.995 139.531 100.234 139.871 98.4008 140.162L76.5283 143.626L69.0247 96.2496L142.987 84.5352L142.968 84.4165Z" fill="#009CBB"/>
<path d="M18.8212 199.87C17.6872 187.391 21.5455 175.339 29.0348 165.754C37.1067 155.347 49.2639 147.822 63.7402 145.53L98.2557 140.063C99.1407 139.923 100.089 139.773 100.983 139.692C101.426 139.622 101.878 139.611 102.32 139.541C103.152 139.47 103.983 139.399 104.76 139.398C105.086 139.407 105.402 139.357 105.727 139.366C105.854 139.346 105.989 139.386 106.179 139.356C106.505 139.365 106.83 139.374 107.146 139.324C107.209 139.314 107.336 139.294 107.408 139.344C107.734 139.353 108.059 139.362 108.385 139.371C108.511 139.351 108.647 139.391 108.71 139.381C109.036 139.39 109.424 139.389 109.75 139.399C109.813 139.389 109.813 139.389 109.886 139.438C110.274 139.437 110.609 139.506 110.998 139.505C111.061 139.495 111.124 139.485 111.197 139.535C111.459 139.554 111.785 139.563 112.047 139.583C112.309 139.602 112.572 139.621 112.834 139.641C112.897 139.631 112.96 139.621 112.97 139.68C113.295 139.689 113.693 139.748 114.028 139.817C114.562 139.915 115.15 139.943 115.684 140.041C115.946 140.061 116.218 140.139 116.48 140.159C116.679 140.188 116.815 140.227 117.014 140.257C117.286 140.335 117.611 140.345 117.883 140.423C117.946 140.413 118.019 140.463 118.082 140.453C118.353 140.531 118.688 140.6 118.96 140.679C119.096 140.718 119.232 140.757 119.367 140.797C119.702 140.865 120.037 140.934 120.382 141.062C120.382 141.062 120.445 141.052 120.454 141.111C120.862 141.229 121.26 141.288 121.667 141.406C122.012 141.534 122.41 141.593 122.754 141.721C126.023 142.724 129.204 143.986 132.169 145.524C132.877 145.899 133.521 146.284 134.228 146.659C134.582 146.846 134.936 147.034 135.235 147.29C135.734 147.576 136.243 147.922 136.751 148.267C137.259 148.613 137.758 148.899 138.203 149.255C138.503 149.511 138.857 149.699 139.157 149.956C139.457 150.212 139.81 150.4 140.11 150.657C140.701 151.111 141.3 151.624 141.891 152.079C141.891 152.079 141.963 152.128 141.973 152.187C142.273 152.444 142.563 152.642 142.8 152.908C143.09 153.106 143.327 153.373 143.564 153.639C143.873 153.956 144.245 154.262 144.555 154.578C144.791 154.845 145.019 155.052 145.255 155.319C145.328 155.368 145.41 155.477 145.482 155.526C145.719 155.793 145.946 156.001 146.174 156.208C146.41 156.475 146.638 156.682 146.874 156.949C147.183 157.265 147.439 157.651 147.748 157.967C147.985 158.234 148.231 158.56 148.468 158.827C148.704 159.094 148.878 159.37 149.114 159.637C149.351 159.904 149.524 160.181 149.771 160.507L149.78 160.566C150.026 160.893 150.272 161.219 150.455 161.555C150.628 161.832 150.802 162.109 151.038 162.375C151.294 162.761 151.559 163.206 151.814 163.591C151.906 163.759 152.06 163.918 152.161 164.145C152.253 164.313 152.417 164.531 152.508 164.699C153.312 166.093 154.043 167.437 154.667 168.921C154.85 169.257 154.979 169.663 155.162 169.999C155.345 170.335 155.474 170.741 155.593 171.087C155.713 171.433 155.905 171.829 156.025 172.175C156.154 172.58 156.274 172.927 156.403 173.332C156.532 173.738 156.651 174.084 156.78 174.49C156.909 174.895 157.029 175.241 157.095 175.657C157.224 176.062 157.28 176.419 157.409 176.824C157.538 177.23 157.595 177.586 157.661 178.002L18.84 199.989L18.8212 199.87Z" fill="#009CBB"/>
<path d="M157.705 177.873L83.8065 189.577L76.5098 143.507L98.2558 140.063C99.1408 139.922 100.089 139.772 100.983 139.691C101.426 139.621 101.878 139.611 102.32 139.541C103.152 139.47 103.983 139.399 104.76 139.398C105.086 139.407 105.402 139.357 105.727 139.366C105.854 139.346 105.989 139.385 106.179 139.355C106.505 139.365 106.83 139.374 107.146 139.324C107.209 139.314 107.336 139.294 107.408 139.343C107.734 139.353 108.059 139.362 108.385 139.371C108.511 139.351 108.647 139.391 108.71 139.38C109.036 139.39 109.425 139.389 109.75 139.398C109.813 139.388 109.813 139.388 109.886 139.438C110.275 139.437 110.609 139.506 110.998 139.505C111.061 139.495 111.125 139.485 111.197 139.534C111.459 139.554 111.785 139.563 112.047 139.582C112.309 139.602 112.572 139.621 112.834 139.64C112.897 139.63 112.96 139.62 112.97 139.68C113.295 139.689 113.693 139.748 114.028 139.816C114.562 139.914 115.15 139.943 115.684 140.041C115.946 140.06 116.218 140.139 116.48 140.158C116.679 140.188 116.815 140.227 117.014 140.256C117.286 140.335 117.611 140.344 117.883 140.423C117.946 140.413 118.019 140.462 118.082 140.452C118.354 140.531 118.688 140.6 118.96 140.678C119.096 140.718 119.232 140.757 119.368 140.796C119.702 140.865 120.037 140.934 120.382 141.062C120.382 141.062 120.445 141.052 120.454 141.111C120.862 141.229 121.26 141.288 121.667 141.406C122.012 141.534 122.41 141.593 122.754 141.721C126.023 142.724 129.204 143.985 132.169 145.524C132.877 145.899 133.521 146.284 134.228 146.658C134.582 146.846 134.936 147.033 135.236 147.29C135.734 147.576 136.243 147.922 136.751 148.267C137.259 148.613 137.758 148.899 138.203 149.254C138.503 149.511 138.857 149.699 139.157 149.955C139.457 150.212 139.81 150.4 140.11 150.656C140.701 151.111 141.3 151.624 141.891 152.078C141.891 152.078 141.963 152.128 141.973 152.187C142.273 152.444 142.563 152.641 142.8 152.908C143.09 153.105 143.327 153.372 143.564 153.639C143.873 153.955 144.245 154.261 144.555 154.578C144.791 154.844 145.019 155.052 145.255 155.319C145.328 155.368 145.41 155.477 145.483 155.526C145.719 155.793 145.946 156 146.174 156.208C146.41 156.475 146.638 156.682 146.874 156.949C147.184 157.265 147.439 157.651 147.748 157.967C147.985 158.233 148.231 158.56 148.468 158.826C148.704 159.093 148.878 159.37 149.114 159.637C149.351 159.904 149.525 160.181 149.771 160.507L149.78 160.566C150.026 160.892 150.272 161.218 150.455 161.555C150.628 161.831 150.802 162.108 151.039 162.375C151.294 162.761 151.559 163.205 151.814 163.591C151.906 163.759 152.06 163.917 152.161 164.145C152.253 164.313 152.417 164.53 152.508 164.698C153.312 166.092 154.044 167.437 154.667 168.921C154.85 169.257 154.979 169.662 155.162 169.999C155.345 170.335 155.474 170.74 155.594 171.087C155.713 171.433 155.905 171.828 156.025 172.175C156.154 172.58 156.274 172.926 156.403 173.332C156.532 173.737 156.651 174.084 156.781 174.489C156.91 174.895 157.029 175.241 157.095 175.657C157.224 176.062 157.28 176.418 157.41 176.824C157.52 177.111 157.649 177.516 157.705 177.873Z" fill="#F18225"/>
<rect x="13.4813" y="113.738" width="15.1957" height="125.621" transform="rotate(-99 13.4813 113.738)" fill="white" stroke="#009CBB" stroke-width="1.4"/>
<rect x="74.4132" y="143.462" width="15.1957" height="42.6426" transform="rotate(-9 74.4132 143.462)" fill="white" stroke="#009CBB" stroke-width="1.4"/>
<rect x="57.6261" y="37.4637" width="15.1957" height="107.302" transform="rotate(-9 57.6261 37.4637)" fill="white" stroke="#009CBB" stroke-width="1.4"/>
<rect x="52.7306" y="6.5516" width="15.1957" height="39.4511" transform="rotate(-9 52.7306 6.5516)" fill="white" stroke="#009CBB" stroke-width="1.4"/>
</g>
</g>
<g clip-path="url(#clip2_1291_4105)">
<path d="M190.72 197.828L94.0265 185.955C88.5395 185.282 84.6675 180.574 85.2854 175.541L103.182 29.7869C103.8 24.7544 108.696 21.1231 114.183 21.7968L210.876 33.6692C216.363 34.3429 220.235 39.0509 219.617 44.0833L201.721 189.838C201.103 194.87 196.207 198.501 190.72 197.828Z" fill="white" stroke="#2B4554" stroke-width="1.4"/>
<path d="M187.546 191.385L98.6652 180.472C94.8871 180.008 92.2236 176.819 92.6581 173.28L109.803 33.6441C110.238 30.1052 113.594 27.6557 117.372 28.1196L206.317 39.0406C210.095 39.5045 212.758 42.6932 212.324 46.2321L195.186 185.808C194.687 189.339 191.324 191.849 187.546 191.385Z" stroke="#2B4554" stroke-width="0.5669" stroke-miterlimit="10"/>
<path d="M136.616 48.1999L102.678 44.0328L103.58 36.6862C104.577 28.5664 112.583 22.8771 121.476 23.969L139.322 26.1603L136.616 48.1999Z" fill="white"/>
<path d="M168.287 171.424L202.226 175.591L201.317 182.989C200.314 191.165 192.302 196.9 183.409 195.808L165.562 193.617L168.287 171.424Z" fill="white"/>
<path d="M119.933 28.4341C119.572 31.3732 119.211 34.3123 118.85 37.2514C118.786 37.2435 118.786 37.2435 118.722 37.2356C116.929 37.0155 115.136 36.7953 113.343 36.5752C111.486 36.3472 109.976 34.8831 109.869 33.1044C109.891 32.9244 109.842 32.7966 109.864 32.6166C109.938 32.0168 110.011 31.417 110.078 30.8772C110.276 29.2577 111.734 27.9754 113.507 27.8278C113.771 27.7993 114.091 27.8386 114.354 27.8101C116.147 28.0302 117.94 28.2504 119.733 28.4705C119.869 28.4263 119.869 28.4263 119.933 28.4341ZM116.712 30.8394C116.648 30.8316 116.648 30.8316 116.648 30.8316C115.816 30.7294 114.983 30.6271 114.151 30.5249C113.575 30.4542 113.139 30.8269 113.08 31.3067C113.021 31.7866 112.962 32.2664 112.903 32.7463C112.837 33.2861 113.234 33.761 113.81 33.8318C114.642 33.934 115.411 34.0283 116.243 34.1305C116.307 34.1384 116.307 34.1384 116.371 34.1463C116.44 33.0587 116.58 31.9191 116.712 30.8394Z" fill="#4C7B96"/>
<path d="M121.726 28.6543C121.79 28.6622 121.79 28.6622 121.854 28.67C123.647 28.8902 125.504 29.1182 127.297 29.3383C128.898 29.5349 130.196 30.6076 130.603 32.0579C130.743 32.5014 130.748 32.9891 130.697 33.409C130.631 33.9488 130.564 34.4886 130.498 35.0285C130.284 36.7679 128.82 38.1102 126.926 38.1821C126.662 38.2106 126.342 38.1713 126.086 38.1399C125.254 38.0376 124.485 37.9433 123.653 37.8411C123.589 37.8332 123.589 37.8332 123.525 37.8253C123.385 38.965 123.245 40.1046 123.105 41.2443C122.144 41.1263 121.184 41.0084 120.223 40.8905C120.717 36.8717 121.217 32.793 121.726 28.6543ZM123.849 35.1862L123.913 35.194C124.809 35.3041 125.642 35.4063 126.538 35.5164C127.114 35.5872 127.55 35.2145 127.609 34.7346C127.675 34.1948 127.734 33.7149 127.801 33.1751C127.859 32.6953 127.534 32.1682 126.894 32.0896C126.061 31.9874 125.229 31.8852 124.396 31.783C124.332 31.7751 124.332 31.7751 124.268 31.7672C124.128 32.9069 123.989 34.0465 123.849 35.1862Z" fill="#4C7B96"/>
<path d="M184.985 191.07C185.346 188.131 185.707 185.192 186.067 182.253C186.131 182.261 186.131 182.261 186.195 182.269C187.988 182.489 189.781 182.709 191.574 182.929C193.431 183.157 194.942 184.621 195.048 186.4C195.026 186.58 195.076 186.708 195.053 186.888C194.98 187.487 194.906 188.087 194.84 188.627C194.641 190.247 193.184 191.529 191.41 191.676C191.147 191.705 190.827 191.666 190.563 191.694C188.77 191.474 186.977 191.254 185.184 191.034C185.049 191.078 185.049 191.078 184.985 191.07ZM188.205 188.665C188.269 188.673 188.269 188.673 188.269 188.673C189.102 188.775 189.934 188.877 190.767 188.979C191.343 189.05 191.779 188.677 191.838 188.198C191.896 187.718 191.955 187.238 192.014 186.758C192.081 186.218 191.684 185.743 191.108 185.673C190.275 185.57 189.507 185.476 188.674 185.374C188.61 185.366 188.61 185.366 188.546 185.358C188.478 186.446 188.338 187.585 188.205 188.665Z" fill="#4C7B96"/>
<path d="M183.192 190.85C183.128 190.842 183.128 190.842 183.064 190.834C181.271 190.614 179.414 190.386 177.621 190.166C176.02 189.969 174.722 188.897 174.315 187.446C174.174 187.003 174.169 186.515 174.221 186.095C174.287 185.555 174.353 185.016 174.42 184.476C174.633 182.736 176.098 181.394 177.992 181.322C178.255 181.294 178.576 181.333 178.832 181.364C179.664 181.467 180.433 181.561 181.265 181.663C181.329 181.671 181.329 181.671 181.393 181.679C181.533 180.539 181.673 179.4 181.813 178.26C182.773 178.378 183.734 178.496 184.694 178.614C184.201 182.633 183.7 186.711 183.192 190.85ZM181.069 184.318L181.005 184.31C180.108 184.2 179.276 184.098 178.38 183.988C177.803 183.917 177.367 184.29 177.309 184.77C177.242 185.309 177.183 185.789 177.117 186.329C177.058 186.809 177.383 187.336 178.024 187.415C178.856 187.517 179.689 187.619 180.521 187.721C180.585 187.729 180.585 187.729 180.649 187.737C180.789 186.597 180.929 185.458 181.069 184.318Z" fill="#4C7B96"/>
<path d="M131.143 95.3717C130.32 95.2706 129.596 95.0329 128.972 94.6587C128.355 94.2795 127.89 93.7759 127.578 93.1479C127.271 92.5207 127.17 91.7813 127.275 90.9297C127.365 90.1966 127.575 89.6069 127.904 89.1608C128.234 88.7147 128.65 88.3766 129.154 88.1464C129.657 87.9163 130.211 87.7639 130.816 87.6893C131.426 87.6098 132.052 87.5749 132.692 87.5848C133.463 87.5993 134.089 87.6047 134.57 87.6008C135.052 87.5913 135.409 87.532 135.64 87.423C135.877 87.309 136.014 87.1054 136.05 86.8121L136.056 86.7614C136.134 86.1241 136.006 85.6075 135.671 85.2114C135.336 84.8154 134.813 84.5737 134.103 84.4865C133.353 84.3944 132.738 84.4849 132.257 84.758C131.783 85.0317 131.442 85.382 131.235 85.8088L128.426 85.0517C128.749 84.2899 129.202 83.6758 129.786 83.2094C130.37 82.7373 131.054 82.4148 131.837 82.2419C132.62 82.0633 133.465 82.0297 134.373 82.1412C134.999 82.2181 135.614 82.3679 136.216 82.5907C136.818 82.8135 137.355 83.1256 137.827 83.5269C138.299 83.9227 138.655 84.4272 138.895 85.0405C139.14 85.6545 139.209 86.3929 139.104 87.2558L138.036 95.9518L135.092 95.5904L135.311 93.8055L135.21 93.793C134.979 94.1311 134.675 94.4373 134.298 94.7115C133.927 94.9809 133.477 95.1802 132.945 95.3097C132.421 95.4341 131.82 95.4548 131.143 95.3717ZM132.215 93.2192C132.829 93.2947 133.377 93.2389 133.858 93.0518C134.34 92.859 134.727 92.5745 135.019 92.1983C135.317 91.8227 135.495 91.3952 135.554 90.9159L135.742 89.3848C135.637 89.4519 135.464 89.5052 135.225 89.5444C134.991 89.5844 134.73 89.6125 134.442 89.6286C134.153 89.6447 133.869 89.6556 133.587 89.6611C133.306 89.6667 133.062 89.6711 132.856 89.6744C132.392 89.6803 131.97 89.7316 131.592 89.8283C131.214 89.925 130.905 90.0874 130.665 90.3155C130.426 90.538 130.282 90.8467 130.234 91.2414C130.164 91.8054 130.318 92.2564 130.694 92.5946C131.071 92.9328 131.577 93.141 132.215 93.2192ZM146.134 102.167C145.035 102.032 144.108 101.766 143.355 101.371C142.602 100.98 142.016 100.508 141.598 99.9527C141.179 99.3975 140.914 98.8068 140.802 98.1806L143.642 97.8509C143.735 98.1199 143.884 98.393 144.091 98.6702C144.296 98.9531 144.589 99.2009 144.97 99.4136C145.355 99.6326 145.855 99.7799 146.47 99.8553C147.338 99.962 148.083 99.8388 148.705 99.4858C149.325 99.1384 149.695 98.4853 149.812 97.5266L150.115 95.065L149.962 95.0463C149.766 95.3427 149.495 95.6386 149.149 95.9339C148.809 96.23 148.378 96.4603 147.854 96.6249C147.335 96.7903 146.704 96.8272 145.96 96.7358C144.961 96.6133 144.085 96.2681 143.33 95.7003C142.582 95.1276 142.026 94.3437 141.661 93.3487C141.303 92.3488 141.211 91.141 141.385 89.7255C141.56 88.2987 141.945 87.1238 142.539 86.2007C143.14 85.2726 143.877 84.6047 144.751 84.1969C145.626 83.7834 146.563 83.6379 147.561 83.7605C148.323 83.854 148.933 84.0605 149.391 84.3802C149.857 84.6949 150.214 85.0507 150.463 85.4476C150.712 85.8389 150.894 86.2018 151.007 86.5363L151.176 86.5571L151.44 84.4085L154.46 84.7793L152.839 97.9841C152.702 99.0951 152.324 99.9818 151.705 100.644C151.086 101.307 150.294 101.762 149.331 102.01C148.367 102.258 147.302 102.31 146.134 102.167ZM147.109 94.4383C147.757 94.518 148.33 94.4279 148.825 94.1682C149.321 93.9085 149.723 93.4971 150.033 92.934C150.342 92.371 150.548 91.6749 150.65 90.8459C150.75 90.0282 150.72 89.2975 150.558 88.6537C150.403 88.0106 150.117 87.4918 149.702 87.0973C149.293 86.6979 148.759 86.4577 148.099 86.3767C147.416 86.2929 146.825 86.4006 146.325 86.6998C145.824 86.999 145.42 87.4446 145.113 88.0366C144.806 88.6229 144.605 89.308 144.508 90.0919C144.411 90.887 144.441 91.5977 144.599 92.2239C144.763 92.8451 145.053 93.3501 145.469 93.7389C145.891 94.1228 146.438 94.3559 147.109 94.4383ZM156.003 98.158L157.599 85.1646L160.661 85.5406L159.065 98.5339L156.003 98.158ZM159.365 83.5096C158.88 83.45 158.482 83.238 158.172 82.8737C157.862 82.5036 157.736 82.0902 157.792 81.6334C157.848 81.171 158.071 80.8005 158.461 80.522C158.85 80.2378 159.288 80.1255 159.773 80.1851C160.263 80.2453 160.661 80.4601 160.964 80.8294C161.275 81.1938 161.401 81.6072 161.345 82.0697C161.288 82.5265 161.066 82.8969 160.676 83.1811C160.292 83.4603 159.855 83.5698 159.365 83.5096ZM167.404 81.9721L165.277 99.2966L162.214 98.9206L164.341 81.5961L167.404 81.9721ZM174.147 100.643C172.844 100.483 171.752 100.075 170.871 99.4168C169.996 98.7541 169.367 97.8925 168.982 96.832C168.597 95.7659 168.489 94.5533 168.656 93.1941C168.82 91.8576 169.217 90.7157 169.849 89.7686C170.487 88.8165 171.3 88.1149 172.288 87.6638C173.278 87.2071 174.392 87.0549 175.633 87.2073C176.434 87.3056 177.174 87.5281 177.852 87.8747C178.538 88.2165 179.121 88.6888 179.602 89.2917C180.089 89.8953 180.439 90.631 180.653 91.4988C180.868 92.3609 180.905 93.3616 180.766 94.5007L180.65 95.4397L170 94.132L170.254 92.068L177.968 93.0153C178.035 92.4281 177.972 91.8908 177.78 91.4036C177.588 90.9107 177.286 90.5043 176.873 90.1846C176.466 89.8655 175.969 89.67 175.383 89.598C174.757 89.5211 174.188 89.6058 173.677 89.8522C173.167 90.0929 172.749 90.4423 172.423 90.9004C172.104 91.3536 171.906 91.8702 171.829 92.4504L171.608 94.2522C171.515 95.0079 171.574 95.6734 171.784 96.2487C171.994 96.8184 172.33 97.2775 172.791 97.6261C173.253 97.969 173.816 98.1813 174.482 98.263C174.927 98.3177 175.338 98.3052 175.714 98.2254C176.091 98.14 176.427 97.9895 176.723 97.7739C177.018 97.5583 177.256 97.2756 177.437 96.9256L180.256 97.5981C179.983 98.3317 179.558 98.9493 178.981 99.4509C178.411 99.9476 177.715 100.303 176.893 100.517C176.071 100.725 175.156 100.767 174.147 100.643ZM118.238 124.662L120.431 106.796L123.443 107.166L123.179 109.315L123.357 109.337C123.553 109.04 123.817 108.732 124.149 108.412C124.48 108.086 124.907 107.827 125.429 107.633C125.952 107.434 126.593 107.381 127.355 107.475C128.359 107.598 129.232 107.966 129.976 108.578C130.725 109.185 131.276 110.017 131.627 111.073C131.985 112.125 132.075 113.372 131.897 114.816C131.722 116.243 131.339 117.426 130.749 118.367C130.158 119.308 129.427 119.991 128.556 120.416C127.686 120.842 126.74 120.992 125.719 120.867C124.975 120.775 124.372 120.575 123.912 120.267C123.452 119.959 123.094 119.611 122.838 119.225C122.588 118.834 122.401 118.47 122.276 118.134L122.15 118.119L121.3 125.038L118.238 124.662ZM122.637 113.662C122.533 114.502 122.562 115.252 122.721 115.913C122.886 116.575 123.172 117.111 123.58 117.521C123.993 117.927 124.525 118.17 125.173 118.249C125.85 118.332 126.439 118.222 126.94 117.917C127.442 117.606 127.847 117.149 128.156 116.546C128.471 115.938 128.678 115.228 128.778 114.416C128.877 113.609 128.849 112.879 128.695 112.225C128.541 111.57 128.257 111.037 127.844 110.626C127.431 110.215 126.883 109.967 126.2 109.883C125.546 109.803 124.97 109.907 124.471 110.195C123.972 110.483 123.566 110.922 123.253 111.513C122.945 112.105 122.74 112.821 122.637 113.662ZM139.361 122.567C138.092 122.412 137.026 121.997 136.164 121.325C135.302 120.652 134.676 119.783 134.287 118.716C133.902 117.65 133.793 116.445 133.957 115.103C134.122 113.761 134.52 112.616 135.152 111.669C135.789 110.723 136.607 110.028 137.606 109.583C138.605 109.139 139.739 108.995 141.008 109.151C142.277 109.307 143.342 109.721 144.204 110.394C145.066 111.066 145.689 111.938 146.073 113.01C146.462 114.083 146.574 115.29 146.409 116.632C146.244 117.974 145.844 119.116 145.207 120.057C144.577 120.998 143.762 121.691 142.763 122.135C141.764 122.579 140.63 122.723 139.361 122.567ZM139.679 120.116C140.367 120.201 140.965 120.082 141.474 119.761C141.984 119.435 142.391 118.964 142.695 118.349C143.005 117.734 143.209 117.032 143.306 116.242C143.403 115.447 143.376 114.714 143.224 114.043C143.078 113.367 142.797 112.808 142.382 112.368C141.966 111.928 141.415 111.665 140.727 111.581C140.022 111.494 139.412 111.614 138.897 111.94C138.387 112.267 137.977 112.74 137.666 113.36C137.362 113.976 137.161 114.681 137.063 115.476C136.966 116.265 136.991 116.996 137.137 117.666C137.29 118.337 137.574 118.893 137.989 119.333C138.411 119.769 138.974 120.03 139.679 120.116ZM151.509 119.663L151.954 115.965L152.445 116.025L157.755 111.379L161.334 111.818L154.805 117.508L154.17 117.431L151.509 119.663ZM148.217 123.397L150.344 106.073L153.406 106.449L151.279 123.773L148.217 123.397ZM156.372 124.398L152.868 117.966L155.197 116.062L160.034 124.848L156.372 124.398ZM166.965 125.957C165.662 125.797 164.571 125.388 163.69 124.73C162.815 124.068 162.185 123.206 161.8 122.146C161.416 121.079 161.307 119.867 161.474 118.508C161.638 117.171 162.036 116.029 162.667 115.082C163.305 114.13 164.118 113.428 165.107 112.977C166.096 112.521 167.211 112.368 168.452 112.521C169.253 112.619 169.992 112.842 170.671 113.188C171.356 113.53 171.939 114.002 172.42 114.605C172.907 115.209 173.258 115.944 173.472 116.812C173.687 117.674 173.724 118.675 173.584 119.814L173.469 120.753L162.819 119.446L163.072 117.381L170.787 118.329C170.853 117.742 170.79 117.204 170.598 116.717C170.407 116.224 170.105 115.818 169.692 115.498C169.285 115.179 168.788 114.983 168.201 114.911C167.575 114.835 167.007 114.919 166.495 115.166C165.985 115.406 165.567 115.756 165.242 116.214C164.923 116.667 164.725 117.184 164.648 117.764L164.427 119.566C164.334 120.321 164.393 120.987 164.602 121.562C164.813 122.132 165.149 122.591 165.61 122.94C166.071 123.282 166.635 123.495 167.3 123.576C167.746 123.631 168.157 123.619 168.533 123.539C168.91 123.454 169.246 123.303 169.541 123.087C169.837 122.872 170.075 122.589 170.255 122.239L173.075 122.912C172.802 123.645 172.377 124.263 171.8 124.764C171.229 125.261 170.533 125.616 169.711 125.83C168.89 126.039 167.975 126.081 166.965 125.957ZM175.365 126.73L176.96 113.737L179.929 114.102L179.663 116.267L179.799 116.284C180.128 115.563 180.605 115.035 181.23 114.699C181.861 114.359 182.549 114.234 183.293 114.326C183.463 114.347 183.65 114.378 183.857 114.421C184.07 114.458 184.245 114.5 184.383 114.546L184.037 117.362C183.913 117.301 183.712 117.237 183.434 117.168C183.162 117.095 182.897 117.042 182.637 117.01C182.079 116.942 181.562 117.001 181.087 117.189C180.618 117.372 180.231 117.659 179.925 118.051C179.619 118.443 179.433 118.915 179.365 119.468L178.427 127.106L175.365 126.73Z" fill="#2B4554"/>
</g>
<g clip-path="url(#clip3_1291_4105)">
<path d="M305.429 162.329L302.956 179.927C302.753 181.368 301.433 182.362 299.992 182.16L206.925 169.08C205.484 168.878 204.489 167.557 204.691 166.117L207.161 148.542C207.364 147.101 208.684 146.107 210.125 146.309L303.193 159.389C304.633 159.591 305.628 160.912 305.429 162.329Z" fill="#E8BDA0"/>
<path d="M346.119 162.122L342.135 190.467C341.956 191.743 340.774 192.613 339.522 192.437L214.306 174.839C213.03 174.659 212.161 173.477 212.337 172.225L216.32 143.88C216.5 142.604 217.682 141.735 218.934 141.911L344.15 159.509C345.405 159.661 346.298 160.846 346.119 162.122Z" fill="#CBEFF7"/>
<path d="M474.219 176.633L469.199 212.348C469 213.766 467.707 214.74 466.29 214.541L222.784 180.318C221.367 180.119 220.393 178.826 220.592 177.409L225.611 141.694C225.811 140.276 227.104 139.302 228.521 139.501L472.026 173.723C473.443 173.923 474.418 175.216 474.219 176.633Z" fill="#2B4554"/>
<path d="M162.116 160.037C163.415 160.219 178.91 162.397 179.288 162.45C179.973 162.546 180.129 161.267 179.468 161.175C179.066 161.118 155.161 157.758 154.146 157.616C148.902 156.879 150.116 149.438 155.195 150.151C157.982 150.543 179.761 153.604 180.304 153.68C180.942 153.77 181.084 152.586 180.494 152.503C179.478 152.36 152.928 148.628 150.589 148.3C145.085 147.526 146.492 140.257 151.406 140.947C154.24 141.346 180.979 145.104 181.499 145.177C182.16 145.27 182.37 144.119 181.591 144.009C180.244 143.82 161.3 141.158 158.395 140.749C153.694 140.089 154.345 132.713 159.471 133.433C162.991 133.928 186.943 137.294 188.289 137.483C190.391 137.779 182.389 129.934 181.605 126.596C180.805 123.207 182.79 120.909 183.581 121.622C184.287 122.252 192.648 128.581 195.837 130.908C198.044 132.519 204.313 136.243 208.59 140.433C210.98 142.792 211.78 144.302 211.325 147.538C210.777 151.435 208.736 165.962 208.47 167.852C208.029 170.994 205.467 173.621 200.767 172.96C197.743 172.535 163.02 167.655 161.154 167.393C155.822 166.595 157.32 159.363 162.116 160.037Z" fill="#E8BDA0"/>
</g>
</g>
<defs>
<clipPath id="clip0_1291_4105">
<rect width="476" height="215" fill="white"/>
</clipPath>
<clipPath id="clip1_1291_4105">
<rect width="122" height="170" fill="white" transform="translate(0 19.085) rotate(-9)"/>
</clipPath>
<clipPath id="clip2_1291_4105">
<rect width="120" height="168" fill="white" transform="translate(103.136 19.126) rotate(7)"/>
</clipPath>
<clipPath id="clip3_1291_4105">
<rect width="53" height="328" fill="white" transform="translate(144 169.484) rotate(-82)"/>
</clipPath>
</defs>
</svg>
