<svg width="24.000000" height="24.000000" viewBox="0 0 24 24" fill="none" xmlns="http://www.w3.org/2000/svg" xmlns:xlink="http://www.w3.org/1999/xlink">
	<desc>
			Created with Pixso.
	</desc>
	<defs/>
	<rect id="icon/mode" width="24.000000" height="24.000000" fill="#FFFFFF" fill-opacity="0"/>
	<path id="Vector" d="M11.23 2.25C11.19 2.25 11.14 2.25 11.1 2.26C8.71 2.68 6.56 3.97 5.07 5.89C3.58 7.8 2.85 10.2 3.02 12.62C3.19 15.03 4.25 17.31 5.99 18.99C7.74 20.68 10.04 21.66 12.47 21.74C12.59 21.75 12.71 21.74 12.83 21.74C14.41 21.74 15.96 21.37 17.36 20.64C18.75 19.92 19.96 18.86 20.86 17.58C20.94 17.47 20.98 17.34 20.99 17.2C20.99 17.07 20.97 16.94 20.91 16.82C20.85 16.7 20.76 16.6 20.65 16.53C20.54 16.45 20.41 16.41 20.27 16.4C18.78 16.27 17.33 15.8 16.04 15.02C14.76 14.24 13.67 13.17 12.86 11.9C12.05 10.63 11.55 9.2 11.38 7.7C11.22 6.21 11.4 4.69 11.91 3.28C11.96 3.17 11.97 3.04 11.96 2.92C11.95 2.8 11.9 2.69 11.84 2.59C11.77 2.49 11.68 2.4 11.58 2.34C11.47 2.28 11.35 2.25 11.23 2.25Z" fill="#E7ECF1" fill-opacity="1.000000" fill-rule="nonzero"/>
</svg>
