<svg width="24" height="24" viewBox="0 0 24 24" fill="none" xmlns="http://www.w3.org/2000/svg">
<path fill-rule="evenodd" clip-rule="evenodd" d="M4.90901 4.02353L3.46359 4.32931C2.6531 4.50077 2.13507 5.2968 2.30654 6.10729L4.39351 15.9722L4.6359 10.3538L3.67622 5.81753C3.66479 5.76349 3.69933 5.71043 3.75336 5.699L4.8467 5.46769L4.90901 4.02353Z" fill="#C9D6DD"/>
<path fill-rule="evenodd" clip-rule="evenodd" d="M9.01963 3.37791L7.54377 3.3158C6.71608 3.28097 6.01686 3.92371 5.98203 4.75141L5.55811 14.8248L7.18587 9.44194L7.38079 4.81027C7.38311 4.75509 7.42973 4.71224 7.48491 4.71457L8.60122 4.76154L9.01963 3.37791Z" fill="#C9D6DD"/>
<rect x="10.5368" y="3.68515" width="11.6" height="15.6" rx="0.8" transform="rotate(16.8253 10.5368 3.68515)" stroke="#C9D6DD" stroke-width="1.4"/>
</svg>
