<svg width="500" height="1500" viewBox="0 0 118 944" fill="none" xmlns="http://www.w3.org/2000/svg" transform='rotate(-15)'>
<path d="M53.9734 791.193L93.8795 791.193C97.3811 791.193 100.158 788.348 100.158 784.898L100.158 602.328C100.279 602.328 100.46 602.328 100.581 602.328L105.531 602.328C109.637 602.328 113.018 598.999 113.018 594.822L113.018 588.829C113.018 584.713 109.697 581.323 105.531 581.323L100.581 581.323C100.46 581.323 100.279 581.323 100.158 581.323L100.158 545.608C100.158 542.097 97.3207 539.313 93.8795 539.313L53.9733 539.313C50.4717 539.313 47.6946 542.158 47.6946 545.608L47.6946 784.898C47.6342 788.348 50.4718 791.193 53.9734 791.193Z" fill="#E8BDA0"/>
<path d="M94 900.395C94 897.066 94 862.259 94 861.291C94 859.535 91.1021 859.596 91.1021 861.291C91.1021 862.32 91.1021 918.676 91.1021 921.279C91.1021 934.718 73.896 934.294 73.896 921.279C73.896 914.136 73.896 863.228 73.896 861.835C73.896 860.201 71.1792 860.262 71.1792 861.775C71.1792 864.378 71.1792 927.514 71.1792 933.507C71.1792 947.612 54.275 946.643 54.275 934.052C54.275 926.788 54.275 863.167 54.275 861.835C54.275 860.14 51.5582 860.019 51.5582 862.017C51.5582 865.467 51.5582 909.112 51.5582 916.497C51.5582 928.543 34.7143 929.512 34.7143 916.376C34.7143 912.26 34.7143 850.939 34.7143 842.525C34.7143 837.138 19.5004 860.019 12.1954 863.167C4.82995 866.375 -1.02617 862.199 0.302021 859.959C1.50947 857.961 13.1613 834.716 17.3874 825.878C20.2853 819.765 26.7451 802.694 34.8954 790.466C39.4233 783.626 42.6834 781.084 50.0489 781.084C59.0444 781.084 92.5511 781.084 96.8979 781.084C104.143 781.084 110.904 786.592 110.904 798.638C110.904 811.35 110.904 900.274 110.904 900.153C110.844 913.894 94 912.684 94 900.395Z" fill="#E8BDA0"/>
<path d="M103.781 635.257L98.4685 635.257" stroke="#AA734F" stroke-width="3.0459" stroke-miterlimit="10" stroke-linecap="round" stroke-linejoin="round"/>
<path d="M103.781 651.602L98.4685 651.602" stroke="#AA734F" stroke-width="3.0459" stroke-miterlimit="10" stroke-linecap="round" stroke-linejoin="round"/>
<path d="M103.781 643.43L98.4685 643.43" stroke="#AA734F" stroke-width="3.0459" stroke-miterlimit="10" stroke-linecap="round" stroke-linejoin="round"/>
<path fill-rule="evenodd" clip-rule="evenodd" d="M118 466L118 544.458C118 547.485 115.586 549.906 112.568 549.906L35.432 549.906C32.4142 549.906 29.9999 547.485 29.9999 544.458L29.9999 443.185C29.9999 443.181 30 443.176 30 443.172L30 7.6932e-06L118 0L118 466Z" fill="#F18225"/>
</svg>
