<svg width="135" height="861" viewBox="0 0 135 861" fill="none" xmlns="http://www.w3.org/2000/svg">
<g clip-path="url(#clip0_582_1424)">
<path d="M59.6398 454.875L104.771 454.875C108.466 454.875 111.435 457.848 111.435 461.55L111.435 700.658C111.435 704.36 108.466 707.334 104.771 707.334L59.7004 707.334C56.0051 707.334 53.0367 704.36 53.0367 700.658L53.0367 461.55C53.0367 457.848 56.0051 454.875 59.6398 454.875Z" fill="#E8BDA0"/>
<path d="M44.7371 352.434L117.431 352.434C120.703 352.434 123.308 355.105 123.308 358.321L123.308 680.024C123.308 683.302 120.642 685.911 117.431 685.911L44.7371 685.911C41.4658 685.911 38.861 683.241 38.861 680.024L38.8609 358.321C38.8004 355.105 41.4658 352.434 44.7371 352.434Z" fill="#CBEFF7"/>
<path d="M104.528 816.753C104.528 813.415 104.528 773.604 104.528 772.633C104.528 770.873 101.257 770.934 101.257 772.633C101.257 773.665 101.257 835.081 101.257 837.69C101.257 851.163 82.1141 850.738 82.1141 837.69C82.1141 830.529 82.1141 774.575 82.1141 773.179C82.1141 771.541 79.0852 771.602 79.0852 773.119C79.0852 775.728 79.0852 843.941 79.0852 849.949C79.0852 864.089 60.3058 863.118 60.3058 850.495C60.3058 843.213 60.3058 774.515 60.3058 773.179C60.3058 771.48 57.3374 771.359 57.3374 773.362C57.3374 776.821 57.3374 825.492 57.3374 832.956C57.3374 845.033 38.558 846.004 38.558 832.835C38.558 823.793 38.558 762.256 38.558 758.797C38.558 753.395 21.6566 776.335 13.539 779.491C5.30034 782.707 -1.18158 778.52 0.332894 776.274C1.66562 774.272 14.6295 750.968 19.3546 742.108C22.6258 735.978 29.7741 718.864 38.8003 706.605C43.8889 699.748 47.4025 697.199 55.7018 697.199C65.6973 697.199 102.953 697.199 107.799 697.199C115.856 697.199 123.368 702.721 123.368 714.798C123.368 722.566 123.368 811.777 123.368 816.571C123.247 830.286 104.528 829.072 104.528 816.753Z" fill="#E8BDA0"/>
<path fill-rule="evenodd" clip-rule="evenodd" d="M134.09 503L134.09 656.72C134.09 660.361 131.174 663.274 127.528 663.274L35.6528 663.274C32.0069 663.274 29.0903 660.361 29.0903 656.72L29.0902 336.412C29.0902 336.384 29.0904 336.356 29.0908 336.329L29.0908 -26L134.091 -26L134.091 503L134.09 503Z" fill="#2B4554"/>
</g>
<defs>
<clipPath id="clip0_582_1424">
<rect width="134" height="860" fill="white" transform="translate(134.091 860.266) rotate(180)"/>
</clipPath>
</defs>
</svg>
