<svg width="122" height="944" viewBox="0 0 122 944" fill="none" xmlns="http://www.w3.org/2000/svg">
<g clip-path="url(#clip0_716_1103)">
<path d="M53.8601 791.193L93.7662 791.193C97.2678 791.193 100.045 788.348 100.045 784.898L100.045 602.328C100.166 602.328 100.347 602.328 100.468 602.328L105.418 602.328C109.523 602.328 112.904 598.999 112.904 594.822L112.904 588.829C112.904 584.713 109.584 581.323 105.418 581.323L100.468 581.323C100.347 581.323 100.166 581.323 100.045 581.323L100.045 545.608C100.045 542.097 97.2074 539.313 93.7662 539.313L53.86 539.313C50.3584 539.313 47.5813 542.158 47.5813 545.608L47.5813 784.898C47.521 788.348 50.3585 791.193 53.8601 791.193Z" fill="#E8BDA0"/>
<path d="M93.8867 900.395C93.8867 897.066 93.8867 862.259 93.8867 861.291C93.8867 859.535 90.9889 859.596 90.9889 861.291C90.9889 862.32 90.9889 918.676 90.9889 921.279C90.9889 934.718 73.7827 934.294 73.7827 921.279C73.7827 914.136 73.7827 863.228 73.7827 861.835C73.7827 860.201 71.066 860.262 71.066 861.775C71.066 864.378 71.066 927.514 71.066 933.507C71.066 947.612 54.1617 946.643 54.1617 934.052C54.1617 926.788 54.1617 863.167 54.1617 861.835C54.1617 860.14 51.4449 860.019 51.4449 862.017C51.4449 865.467 51.4449 909.112 51.4449 916.497C51.4449 928.543 34.601 929.512 34.601 916.376C34.601 912.26 34.601 850.939 34.601 842.525C34.601 837.138 19.3872 860.019 12.0821 863.167C4.71667 866.375 -1.13945 862.199 0.18874 859.959C1.39619 857.961 13.0481 834.716 17.2741 825.878C20.172 819.765 26.6319 802.694 34.7821 790.466C39.3101 783.626 42.5702 781.084 49.9356 781.084C58.9311 781.084 92.4378 781.084 96.7846 781.084C104.029 781.084 110.791 786.592 110.791 798.638C110.791 811.35 110.791 900.274 110.791 900.153C110.731 913.894 93.8867 912.684 93.8867 900.395Z" fill="#E8BDA0"/>
<path d="M103.668 635.257L98.3552 635.257" stroke="#AA734F" stroke-width="3.0459" stroke-miterlimit="10" stroke-linecap="round" stroke-linejoin="round"/>
<path d="M103.668 651.602L98.3552 651.602" stroke="#AA734F" stroke-width="3.0459" stroke-miterlimit="10" stroke-linecap="round" stroke-linejoin="round"/>
<path d="M103.668 643.43L98.3552 643.43" stroke="#AA734F" stroke-width="3.0459" stroke-miterlimit="10" stroke-linecap="round" stroke-linejoin="round"/>
<path fill-rule="evenodd" clip-rule="evenodd" d="M117.887 466L117.887 544.458C117.887 547.485 115.472 549.906 112.455 549.906L35.3188 549.906C32.3009 549.906 29.8867 547.485 29.8867 544.458L29.8867 443.185C29.8867 443.181 29.8867 443.176 29.8867 443.172L29.8867 7.6932e-06L117.887 0L117.887 466Z" fill="#F18225"/>
</g>
<defs>
<clipPath id="clip0_716_1103">
<rect width="122" height="944" fill="white"/>
</clipPath>
</defs>
</svg>
