<svg width="542" height="205" viewBox="0 0 542 205" fill="none" xmlns="http://www.w3.org/2000/svg">
<path d="M410.361 113.999L404.215 158.635C403.712 162.289 400.372 164.821 396.717 164.318L160.658 131.816C157.003 131.313 154.472 127.973 154.975 124.318L161.112 79.7425C161.615 76.0877 164.955 73.5562 168.61 74.0594L404.669 106.561C408.324 107.064 410.856 110.404 410.361 113.999Z" fill="#E8BDA0"/>
<path d="M513.524 113.185L503.625 185.081C503.18 188.317 500.189 190.53 497.013 190.093L179.412 146.364C176.176 145.918 173.963 142.927 174.4 139.752L184.299 67.8557C184.745 64.6204 187.736 62.4071 190.911 62.8443L508.513 106.573C511.696 106.951 513.97 109.95 513.524 113.185Z" fill="#CBEFF7"/>
<path d="M537.008 107.566L524.535 198.156C524.041 201.75 520.769 204.23 517.174 203.735L200.95 160.196C197.355 159.701 194.875 156.429 195.37 152.835L207.843 62.2452C208.338 58.6504 211.61 56.1705 215.205 56.6655L531.428 100.205C535.023 100.7 537.503 103.971 537.008 107.566Z" fill="#2B4554"/>
<path d="M46.9834 109.205C50.2787 109.659 89.582 115.07 90.5406 115.202C92.2781 115.442 92.6636 112.198 90.986 111.967C89.9675 111.827 29.335 103.479 26.7587 103.124C13.4579 101.293 16.4841 82.4176 29.3655 84.1912C36.4353 85.1646 91.6756 92.7703 93.0536 92.9601C94.6712 93.1828 95.0238 90.1789 93.526 89.9726C90.9497 89.6179 23.6068 80.3458 17.6754 79.5292C3.71554 77.6071 7.2314 59.1659 19.6934 60.8817C26.883 61.8716 94.7052 71.2097 96.0233 71.3912C97.7009 71.6222 98.2249 68.7029 96.2478 68.4307C92.8327 67.9605 44.782 61.3446 37.4126 60.33C25.4898 58.6884 27.0885 39.9832 40.0897 41.7733C49.0168 43.0024 109.769 51.3671 113.184 51.8373C118.517 52.5715 98.1708 32.7374 96.1607 24.28C94.1071 15.6946 99.1238 9.853 101.134 11.6561C102.93 13.2464 124.172 29.2356 132.275 35.1132C137.881 39.1817 153.803 48.5778 164.677 59.1712C170.754 65.1361 172.792 68.9576 171.662 77.1657C170.301 87.0515 165.228 123.898 164.568 128.691C163.471 136.66 156.996 143.339 145.073 141.697C137.404 140.641 49.3309 128.515 44.5977 127.863C31.0737 125.879 34.821 107.531 46.9834 109.205Z" fill="#E8BDA0"/>
<path d="M173.085 75.0771C173.227 76.1205 173.221 77.2006 173.059 78.373C171.791 87.5849 167.063 121.92 166.448 126.387C166.287 127.559 165.853 128.637 165 129.658" stroke="#AA734F" stroke-opacity="0.8" stroke-width="2.9839" stroke-miterlimit="10" stroke-linecap="round" stroke-linejoin="round"/>
</svg>
