<svg width="158" height="514" viewBox="0 0 158 514" fill="none" xmlns="http://www.w3.org/2000/svg">
<path d="M66.028 356.258L105.878 359.439C109.374 359.718 112.374 357.106 112.648 353.67L127.162 171.844C127.282 171.854 127.463 171.868 127.584 171.878L132.527 172.272C136.627 172.599 140.268 169.553 140.6 165.393L141.076 159.425C141.403 155.325 138.357 151.685 134.197 151.353L129.254 150.958C129.133 150.948 128.952 150.934 128.832 150.924L131.671 115.355C131.95 111.858 129.338 108.859 125.901 108.585L86.0517 105.404C82.555 105.125 79.5556 107.737 79.2814 111.173L60.2587 349.488C59.9241 352.919 62.5314 355.979 66.028 356.258Z" fill="#E8BDA0"/>
<path d="M75.4928 2.81548L152.54 8.96549C155.554 9.2061 157.773 11.8101 157.532 14.8244L149.486 115.624C149.246 118.639 146.642 120.858 143.627 120.617L66.5806 114.467C63.5662 114.226 61.3472 111.622 61.5878 108.608L69.6387 7.74794C69.8745 4.79387 72.5387 2.57968 75.4928 2.81548Z" fill="#F18225"/>
<path d="M97.317 468.206C97.5817 464.891 100.349 430.226 100.426 429.261C100.565 427.513 97.6667 427.342 97.5319 429.03C97.4501 430.055 92.9699 486.182 92.763 488.774C91.6947 502.158 74.5466 500.365 75.5812 487.403C76.149 480.289 80.1961 429.588 80.3068 428.201C80.4367 426.573 77.719 426.417 77.5987 427.924C77.3918 430.517 72.3726 493.396 71.8962 499.364C70.775 513.411 53.9716 511.099 54.9725 498.56C55.55 491.325 60.6076 427.964 60.7135 426.637C60.8483 424.949 58.145 424.612 57.9862 426.601C57.7119 430.038 54.2423 473.505 53.6552 480.86C52.6975 492.857 35.8005 492.479 36.8447 479.397C37.1719 475.297 42.0467 414.226 42.7156 405.846C43.1439 400.481 26.1325 422.057 18.5876 424.609C10.9775 427.218 5.46172 422.591 6.96609 420.466C8.33063 418.573 21.8139 396.351 26.7366 387.886C30.1164 382.028 37.9242 365.542 47.035 354.014C52.1003 347.563 55.5579 345.29 62.9129 345.877C71.8957 346.594 105.355 349.265 109.696 349.612C116.93 350.189 123.244 356.214 122.287 368.211C121.276 380.872 114.207 469.433 114.217 469.313C113.064 482.993 96.3401 480.445 97.317 468.206Z" fill="#E8BDA0"/>
</svg>
