<svg width="24" height="24" viewBox="0 0 24 24" fill="none" xmlns="http://www.w3.org/2000/svg">
<path fill-rule="evenodd" clip-rule="evenodd" d="M4.90949 4.02353L3.46408 4.32931C2.65359 4.50077 2.13556 5.2968 2.30702 6.10729L4.394 15.9722L4.63639 10.3538L3.67671 5.81753C3.66528 5.76349 3.69981 5.71043 3.75385 5.699L4.84719 5.46769L4.90949 4.02353Z" fill="#2B4554"/>
<path fill-rule="evenodd" clip-rule="evenodd" d="M9.02012 3.37791L7.54426 3.3158C6.71656 3.28097 6.01735 3.92371 5.98252 4.75141L5.55859 14.8248L7.18636 9.44194L7.38128 4.81027C7.3836 4.75509 7.43021 4.71224 7.48539 4.71457L8.60171 4.76154L9.02012 3.37791Z" fill="#2B4554"/>
<rect x="10.5368" y="3.68515" width="11.6" height="15.6" rx="0.8" transform="rotate(16.8253 10.5368 3.68515)" stroke="#2B4554" stroke-width="1.4"/>
</svg>
