<svg width="48" height="48" viewBox="0 0 48 48" fill="none" xmlns="http://www.w3.org/2000/svg">
<path d="M23.2348 14.25C23.1908 14.2501 23.1469 14.2542 23.1035 14.262C20.716 14.6869 18.5701 15.98 17.0789 17.8924C15.5877 19.8048 14.8567 22.2012 15.0266 24.6203C15.1965 27.0394 16.2554 29.3101 17.9993 30.9952C19.7432 32.6804 22.0488 33.6608 24.4723 33.7477C24.5953 33.7523 24.7183 33.7477 24.8398 33.7477C26.414 33.7488 27.9653 33.3707 29.3625 32.6455C30.7598 31.9204 31.9618 30.8694 32.867 29.5815C32.9404 29.4705 32.9832 29.3421 32.9912 29.2093C32.9991 29.0765 32.972 28.944 32.9125 28.825C32.8529 28.706 32.7631 28.6048 32.6521 28.5316C32.541 28.4583 32.4126 28.4156 32.2798 28.4078C30.7815 28.2763 29.3335 27.802 28.0477 27.0216C26.7619 26.2413 25.6728 25.1757 24.8645 23.9073C24.0562 22.6389 23.5504 21.2016 23.3861 19.7065C23.2219 18.2115 23.4036 16.6986 23.9173 15.285C23.961 15.1718 23.977 15.0499 23.964 14.9293C23.9511 14.8087 23.9095 14.6929 23.8427 14.5917C23.7759 14.4904 23.6859 14.4066 23.5802 14.3471C23.4744 14.2877 23.356 14.2544 23.2348 14.25Z" fill="#E7ECF1"/>
</svg>
