<svg width="108" height="88" viewBox="0 0 108 88" fill="none" xmlns="http://www.w3.org/2000/svg">
<path d="M83.4 42.9002H20.9C16.5 42.9002 13 39.8002 13 35.8002V24.3002C13 20.4002 16.5 17.2002 20.9 17.2002H83.4C87.8 17.2002 91.3 20.3002 91.3 24.3002V35.8002C91.4 39.7002 87.8 42.9002 83.4 42.9002Z" fill="white" stroke="white" stroke-width="1.4" stroke-miterlimit="10" stroke-linecap="round" stroke-linejoin="round"/>
<path d="M13.4004 6V12.8" stroke="white" stroke-width="1.4" stroke-miterlimit="10" stroke-linecap="round" stroke-linejoin="round"/>
<path d="M4.69922 10L9.49922 14.8" stroke="white" stroke-width="1.4" stroke-miterlimit="10" stroke-linecap="round" stroke-linejoin="round"/>
<path d="M1 19.2998H7.8" stroke="white" stroke-width="1.4" stroke-miterlimit="10" stroke-linecap="round" stroke-linejoin="round"/>
<path d="M61.7005 59.6C61.7005 59 61.6005 58.3 61.6005 57.6C61.6005 56.7 61.6005 54.9 61.5005 53.1C61.4005 50.6 61.3005 47.5 61.4005 46.9V46.8V46.7C61.4005 45.9 60.7005 45 59.5005 45C58.2005 45 56.8005 45.9 55.8005 47.5C55.4005 48.2 55.2005 49.2 55.0005 50.5C53.9005 48.4 52.2005 45.1 49.6005 40.3C49.0005 39.2 48.7005 38.5 48.6005 38.5C47.9005 37.2 46.8005 36.5 45.5005 36.5C44.4005 36.5 43.3005 37.1 42.7005 38.1C42.1005 39.1 42.1005 40.4 42.7005 41.5C42.7005 41.5 44.3005 44.6 45.9005 47.6C45.0005 47.7 44.2005 48.3 43.7005 49.1C43.4005 49.6 43.2005 50.3 43.2005 50.9C43.2005 50.9 43.2005 50.9 43.1005 50.9C42.1005 50.9 41.2005 51.4 40.6005 52.1C40.0005 52.8 39.8005 53.7 39.9005 54.6C38.7005 54.6 37.6005 55.3 37.0005 56.3C36.4005 57.3 36.4005 58.4 36.9005 59.4C37.5005 60.3 42.1005 69.1 42.9005 70.8C43.9005 72.8 45.5005 73.9 47.4005 73.9C48.1005 73.9 48.9005 73.7 49.5005 73.3C49.8005 73.1 51.3005 72.4 52.8005 71.6C55.2005 70.4 57.8005 69 58.9005 68.4C60.9005 67.3 61.4005 65.9 61.6005 64C61.9005 63.1 61.8005 61.5 61.7005 59.6Z" fill="#009CBB"/>
<path d="M42.1995 57.2998C42.2995 57.1998 42.3995 57.0998 42.2995 56.7998C42.1995 56.4998 42.1995 56.5998 42.0995 56.3998C41.8995 55.9998 41.5995 55.4998 41.3995 54.7998C40.8995 52.4998 43.8995 51.2998 45.0995 53.6998C45.1995 53.8998 45.6995 54.7998 45.7995 54.8998C45.9995 55.1998 46.4995 54.9998 46.2995 54.5998C45.9995 54.1998 44.9995 52.2998 44.9995 52.1998C43.5995 49.3998 46.9995 47.7998 48.2995 50.2998C48.3995 50.3998 49.5995 52.5998 49.6995 52.8998C49.8995 53.1998 50.3995 52.9998 50.1995 52.5998C49.7995 51.9998 44.0995 41.0998 43.9995 40.8998C42.6995 38.4998 45.9995 36.5998 47.3995 39.1998C47.4995 39.3998 54.9995 53.5998 55.2995 54.2998C56.0995 55.8998 56.0995 49.8998 56.9995 48.2998C58.2995 46.1998 59.9995 46.2998 59.9995 46.7998C59.8995 47.9998 60.1995 55.4998 60.1995 57.6998C60.2995 60.1998 60.5995 62.5998 60.2995 64.0998C60.0995 65.8998 59.6995 66.6998 58.2995 67.4998C56.4995 68.4998 49.7995 71.8998 48.8995 72.3998C47.4995 73.1998 45.4995 72.7998 44.2995 70.3998C43.4995 68.7998 38.7995 59.8998 38.1995 58.8998C37.1995 56.9998 39.8995 55.1998 41.2995 56.5998C41.3995 56.6998 41.3995 56.6998 41.4995 56.7998C41.6995 56.9998 41.9995 57.4998 42.1995 57.2998Z" fill="white"/>
<path d="M18.8807 33V25.7273H23.2699V26.5085H19.7614V28.7812H21.608C22.1288 28.7812 22.5679 28.8665 22.9254 29.0369C23.2853 29.2074 23.5575 29.4477 23.7422 29.7578C23.9292 30.0679 24.0227 30.4337 24.0227 30.8551C24.0227 31.2765 23.9292 31.6482 23.7422 31.9702C23.5575 32.2921 23.2853 32.5443 22.9254 32.7266C22.5679 32.9089 22.1288 33 21.608 33H18.8807ZM19.7614 32.233H21.608C21.9394 32.233 22.2199 32.1667 22.4496 32.0341C22.6816 31.8991 22.8568 31.7263 22.9751 31.5156C23.0959 31.3026 23.1562 31.0777 23.1562 30.8409C23.1562 30.4929 23.0225 30.1934 22.755 29.9425C22.4875 29.6892 22.1051 29.5625 21.608 29.5625H19.7614V32.233ZM26.0833 29.5199H27.6458C28.285 29.5199 28.7739 29.6821 29.1124 30.0064C29.4509 30.3307 29.6202 30.7415 29.6202 31.2386C29.6202 31.5653 29.5444 31.8625 29.3929 32.13C29.2414 32.3951 29.0189 32.607 28.7253 32.7656C28.4318 32.9219 28.0719 33 27.6458 33H25.3588V27.5455H26.1969V32.2188H27.6458C27.9772 32.2188 28.2495 32.1312 28.4625 31.956C28.6756 31.7808 28.7821 31.5559 28.7821 31.2812C28.7821 30.9924 28.6756 30.7569 28.4625 30.5746C28.2495 30.3923 27.9772 30.3011 27.6458 30.3011H26.0833V29.5199ZM30.4867 33V27.5455H31.3248V33H30.4867ZM35.0748 33.1136C34.5634 33.1136 34.123 32.9929 33.7537 32.7514C33.3844 32.5099 33.1003 32.1773 32.9015 31.7536C32.7026 31.3298 32.6032 30.8456 32.6032 30.3011C32.6032 29.7472 32.705 29.2583 32.9086 28.8345C33.1145 28.4084 33.401 28.0758 33.7679 27.8366C34.1373 27.5952 34.5681 27.4744 35.0605 27.4744C35.4441 27.4744 35.7897 27.5455 36.0975 27.6875C36.4052 27.8295 36.6574 28.0284 36.8539 28.2841C37.0504 28.5398 37.1723 28.8381 37.2196 29.179H36.3816C36.3176 28.9304 36.1756 28.7102 35.9554 28.5185C35.7376 28.3243 35.4441 28.2273 35.0748 28.2273C34.748 28.2273 34.4616 28.3125 34.2154 28.483C33.9715 28.651 33.781 28.889 33.6436 29.1967C33.5087 29.5021 33.4412 29.8608 33.4412 30.2727C33.4412 30.6941 33.5075 31.0611 33.6401 31.3736C33.775 31.6861 33.9644 31.9287 34.2083 32.1016C34.4545 32.2744 34.7433 32.3608 35.0748 32.3608C35.2926 32.3608 35.4902 32.3229 35.6678 32.2472C35.8453 32.1714 35.9957 32.0625 36.1188 31.9205C36.2419 31.7784 36.3295 31.608 36.3816 31.4091H37.2196C37.1723 31.7311 37.0551 32.0211 36.8681 32.2791C36.6834 32.5348 36.4384 32.7384 36.133 32.8899C35.83 33.0391 35.4772 33.1136 35.0748 33.1136ZM38.0151 28.3267V27.5455H42.4469V28.3267H40.6571V33H39.8191V28.3267H38.0151ZM43.6694 35.0455V27.5455H44.479V28.4119H44.5785C44.64 28.3172 44.7253 28.1965 44.8342 28.0497C44.9454 27.9006 45.104 27.768 45.31 27.652C45.5183 27.5336 45.8001 27.4744 46.1552 27.4744C46.6145 27.4744 47.0193 27.5893 47.3697 27.8189C47.7201 28.0485 47.9935 28.3741 48.19 28.7955C48.3865 29.2169 48.4847 29.714 48.4847 30.2869C48.4847 30.8646 48.3865 31.3653 48.19 31.7891C47.9935 32.2105 47.7212 32.5372 47.3732 32.7692C47.0252 32.9988 46.6239 33.1136 46.1694 33.1136C45.819 33.1136 45.5385 33.0556 45.3278 32.9396C45.1171 32.8213 44.9549 32.6875 44.8413 32.5384C44.7276 32.3868 44.64 32.2614 44.5785 32.1619H44.5075V35.0455H43.6694ZM44.4933 30.2727C44.4933 30.6847 44.5536 31.0481 44.6744 31.3629C44.7951 31.6754 44.9715 31.9205 45.2035 32.098C45.4355 32.2732 45.7196 32.3608 46.0558 32.3608C46.4061 32.3608 46.6985 32.2685 46.9329 32.0838C47.1696 31.8968 47.3472 31.6458 47.4656 31.331C47.5863 31.0137 47.6467 30.661 47.6467 30.2727C47.6467 29.8892 47.5875 29.5436 47.4691 29.2358C47.3531 28.9257 47.1767 28.6806 46.94 28.5007C46.7056 28.3184 46.4109 28.2273 46.0558 28.2273C45.7148 28.2273 45.4284 28.3137 45.1964 28.4865C44.9644 28.657 44.7892 28.8961 44.6708 29.2038C44.5524 29.5092 44.4933 29.8655 44.4933 30.2727ZM51.3683 33.1278C51.0226 33.1278 50.7089 33.0627 50.4272 32.9325C50.1455 32.8 49.9218 32.6094 49.756 32.3608C49.5903 32.1098 49.5075 31.8068 49.5075 31.4517C49.5075 31.1392 49.569 30.8859 49.6921 30.6918C49.8152 30.4953 49.9798 30.3414 50.1857 30.2301C50.3917 30.1188 50.619 30.036 50.8675 29.9815C51.1185 29.9247 51.3706 29.8797 51.6239 29.8466C51.9554 29.804 52.2241 29.772 52.43 29.7507C52.6384 29.727 52.7899 29.688 52.8846 29.6335C52.9817 29.5791 53.0302 29.4844 53.0302 29.3494V29.321C53.0302 28.9706 52.9343 28.6984 52.7425 28.5043C52.5531 28.3101 52.2655 28.2131 51.8796 28.2131C51.4795 28.2131 51.1658 28.3007 50.9386 28.4759C50.7113 28.651 50.5515 28.8381 50.4592 29.0369L49.6637 28.7528C49.8058 28.4214 49.9951 28.1634 50.2319 27.9787C50.471 27.7917 50.7314 27.6615 51.0131 27.5881C51.2972 27.5123 51.5766 27.4744 51.8512 27.4744C52.0264 27.4744 52.2276 27.4957 52.4549 27.5384C52.6845 27.5786 52.9059 27.6626 53.119 27.7905C53.3344 27.9183 53.5131 28.1113 53.6552 28.3693C53.7972 28.6274 53.8683 28.973 53.8683 29.4062V33H53.0302V32.2614H52.9876C52.9308 32.3797 52.8361 32.5064 52.7035 32.6413C52.5709 32.7763 52.3945 32.8911 52.1744 32.9858C51.9542 33.0805 51.6855 33.1278 51.3683 33.1278ZM51.4961 32.375C51.8275 32.375 52.1069 32.3099 52.3342 32.1797C52.5638 32.0495 52.7366 31.8814 52.8526 31.6754C52.971 31.4695 53.0302 31.2528 53.0302 31.0256V30.2585C52.9947 30.3011 52.9165 30.3402 52.7958 30.3757C52.6774 30.4089 52.5401 30.4384 52.3839 30.4645C52.23 30.4882 52.0797 30.5095 51.9329 30.5284C51.7885 30.545 51.6713 30.5592 51.5813 30.571C51.3635 30.5994 51.1599 30.6456 50.9705 30.7095C50.7835 30.7711 50.632 30.8646 50.516 30.9901C50.4023 31.1132 50.3455 31.2812 50.3455 31.4943C50.3455 31.7855 50.4532 32.0057 50.6687 32.1548C50.8865 32.3016 51.1623 32.375 51.4961 32.375ZM58.6792 33V28.3125H57.2303C56.9036 28.3125 56.6467 28.3883 56.4597 28.5398C56.2727 28.6913 56.1792 28.8996 56.1792 29.1648C56.1792 29.4252 56.2632 29.63 56.4313 29.7791C56.6017 29.9283 56.8349 30.0028 57.1309 30.0028H58.8922V30.7841H57.1309C56.7615 30.7841 56.4431 30.719 56.1756 30.5888C55.9081 30.4586 55.7021 30.2727 55.5577 30.0312C55.4133 29.7874 55.3411 29.4986 55.3411 29.1648C55.3411 28.8286 55.4168 28.5398 55.5684 28.2983C55.7199 28.0568 55.9365 27.871 56.2182 27.7408C56.5023 27.6106 56.8397 27.5455 57.2303 27.5455H59.4746V33H58.6792ZM55.0428 33L56.5911 30.2869H57.5002L55.9519 33H55.0428ZM64.6637 31.7642L67.2915 27.5455H68.2575V33H67.4194V28.7812L64.8058 33H63.8256V27.5455H64.6637V31.7642ZM73.1589 27.5455V28.3267H70.6305V33H69.7924V27.5455H73.1589ZM74.3823 35.0455V27.5455H75.1919V28.4119H75.2914C75.3529 28.3172 75.4382 28.1965 75.5471 28.0497C75.6583 27.9006 75.8169 27.768 76.0229 27.652C76.2312 27.5336 76.513 27.4744 76.8681 27.4744C77.3274 27.4744 77.7322 27.5893 78.0826 27.8189C78.4329 28.0485 78.7064 28.3741 78.9029 28.7955C79.0994 29.2169 79.1976 29.714 79.1976 30.2869C79.1976 30.8646 79.0994 31.3653 78.9029 31.7891C78.7064 32.2105 78.4341 32.5372 78.0861 32.7692C77.7381 32.9988 77.3368 33.1136 76.8823 33.1136C76.5319 33.1136 76.2514 33.0556 76.0407 32.9396C75.83 32.8213 75.6678 32.6875 75.5542 32.5384C75.4405 32.3868 75.3529 32.2614 75.2914 32.1619H75.2203V35.0455H74.3823ZM75.2061 30.2727C75.2061 30.6847 75.2665 31.0481 75.3873 31.3629C75.508 31.6754 75.6844 31.9205 75.9164 32.098C76.1484 32.2732 76.4325 32.3608 76.7686 32.3608C77.119 32.3608 77.4114 32.2685 77.6458 32.0838C77.8825 31.8968 78.0601 31.6458 78.1784 31.331C78.2992 31.0137 78.3596 30.661 78.3596 30.2727C78.3596 29.8892 78.3004 29.5436 78.182 29.2358C78.066 28.9257 77.8896 28.6806 77.6529 28.5007C77.4185 28.3184 77.1238 28.2273 76.7686 28.2273C76.4277 28.2273 76.1413 28.3137 75.9093 28.4865C75.6773 28.657 75.5021 28.8961 75.3837 29.2038C75.2653 29.5092 75.2061 29.8655 75.2061 30.2727ZM82.0811 33.1278C81.7355 33.1278 81.4218 33.0627 81.1401 32.9325C80.8584 32.8 80.6346 32.6094 80.4689 32.3608C80.3032 32.1098 80.2203 31.8068 80.2203 31.4517C80.2203 31.1392 80.2819 30.8859 80.405 30.6918C80.5281 30.4953 80.6926 30.3414 80.8986 30.2301C81.1046 30.1188 81.3319 30.036 81.5804 29.9815C81.8314 29.9247 82.0835 29.8797 82.3368 29.8466C82.6683 29.804 82.937 29.772 83.1429 29.7507C83.3513 29.727 83.5028 29.688 83.5975 29.6335C83.6945 29.5791 83.7431 29.4844 83.7431 29.3494V29.321C83.7431 28.9706 83.6472 28.6984 83.4554 28.5043C83.266 28.3101 82.9784 28.2131 82.5925 28.2131C82.1924 28.2131 81.8787 28.3007 81.6515 28.4759C81.4242 28.651 81.2644 28.8381 81.1721 29.0369L80.3766 28.7528C80.5186 28.4214 80.708 28.1634 80.9448 27.9787C81.1839 27.7917 81.4443 27.6615 81.726 27.5881C82.0101 27.5123 82.2895 27.4744 82.5641 27.4744C82.7393 27.4744 82.9405 27.4957 83.1678 27.5384C83.3974 27.5786 83.6188 27.6626 83.8319 27.7905C84.0473 27.9183 84.226 28.1113 84.3681 28.3693C84.5101 28.6274 84.5811 28.973 84.5811 29.4062V33H83.7431V32.2614H83.7005C83.6436 32.3797 83.5489 32.5064 83.4164 32.6413C83.2838 32.7763 83.1074 32.8911 82.8873 32.9858C82.6671 33.0805 82.3984 33.1278 82.0811 33.1278ZM82.209 32.375C82.5404 32.375 82.8198 32.3099 83.0471 32.1797C83.2767 32.0495 83.4495 31.8814 83.5655 31.6754C83.6839 31.4695 83.7431 31.2528 83.7431 31.0256V30.2585C83.7076 30.3011 83.6294 30.3402 83.5087 30.3757C83.3903 30.4089 83.253 30.4384 83.0968 30.4645C82.9429 30.4882 82.7926 30.5095 82.6458 30.5284C82.5014 30.545 82.3842 30.5592 82.2942 30.571C82.0764 30.5994 81.8728 30.6456 81.6834 30.7095C81.4964 30.7711 81.3449 30.8646 81.2289 30.9901C81.1152 31.1132 81.0584 31.2812 81.0584 31.4943C81.0584 31.7855 81.1661 32.0057 81.3816 32.1548C81.5994 32.3016 81.8752 32.375 82.209 32.375Z" fill="#009CBB"/>
</svg>
