<svg width="162" height="108" viewBox="0 0 162 108" fill="none" xmlns="http://www.w3.org/2000/svg">
<g clip-path="url(#clip0_1291_3887)">
<path d="M160.854 10.051L160.854 97.949C160.854 102.858 156.849 106.854 151.922 106.854L10.0777 106.854C5.1506 106.854 1.14629 102.858 1.14629 97.949L1.14628 10.051C1.14628 5.1423 5.1506 1.14629 10.0777 1.14629L151.922 1.14628C156.849 1.14628 160.854 5.14229 160.854 10.051Z" fill="white" stroke="#2B4554" stroke-width="1.4"/>
<path d="M154.859 13.8214L154.859 94.6849C154.859 98.1222 152.117 100.86 148.675 100.86L12.8766 100.86C9.435 100.86 6.69336 98.1222 6.69336 94.6849L6.69336 13.7631C6.69336 10.3258 9.435 7.58763 12.8766 7.58763L148.617 7.58763C152.059 7.64589 154.859 10.3841 154.859 13.8214Z" stroke="#2B4554" stroke-width="0.6" stroke-miterlimit="10"/>
<path d="M23.9999 74.5716L23.9999 105.429L16.857 105.429C8.96227 105.429 2.57129 98.8833 2.57129 90.7977L2.57129 74.5716L23.9999 74.5716Z" fill="white"/>
<path d="M137.9 33.0254L137.9 2.232L145.19 2.232C153.246 2.232 159.768 8.76394 159.768 16.8328L159.768 33.0254L137.9 33.0254Z" fill="white"/>
<path d="M6.66602 92.1942C9.52632 92.1942 12.3866 92.1942 15.2469 92.1942C15.2469 92.2525 15.2469 92.2525 15.2469 92.3108C15.2469 93.9429 15.2469 95.575 15.2469 97.2071C15.2469 98.8975 14.0211 100.413 12.3282 100.704C12.1531 100.704 12.0364 100.763 11.8613 100.763C11.2775 100.763 10.6938 100.763 10.1684 100.763C8.59234 100.763 7.19138 99.5969 6.84114 98.0231C6.78276 97.79 6.78276 97.4985 6.72439 97.2654C6.72439 95.6333 6.72439 94.0012 6.72439 92.3691C6.66602 92.2525 6.66602 92.2525 6.66602 92.1942ZM9.3512 94.8172C9.3512 94.8755 9.3512 94.8755 9.3512 94.8755C9.3512 95.6333 9.3512 96.391 9.3512 97.1488C9.3512 97.6734 9.75981 98.0231 10.2268 98.0231C10.6938 98.0231 11.1608 98.0231 11.6278 98.0231C12.1531 98.0231 12.5617 97.6151 12.5617 97.0905C12.5617 96.3327 12.5617 95.6333 12.5617 94.8755C12.5617 94.8172 12.5617 94.8172 12.5617 94.7589C11.511 94.8172 10.4019 94.8172 9.3512 94.8172Z" fill="#4C7B96"/>
<path d="M6.66602 90.5625C6.66602 90.5042 6.66602 90.5042 6.66602 90.4459C6.66602 88.8138 6.66602 87.1235 6.66602 85.4914C6.66602 84.0342 7.54162 82.7518 8.88421 82.2272C9.29282 82.0523 9.75981 81.994 10.1684 81.994C10.6938 81.994 11.2191 81.994 11.7445 81.994C13.4373 81.994 14.8967 83.1598 15.1885 84.8502C15.2469 85.0834 15.2469 85.3748 15.2469 85.6079C15.2469 86.3657 15.2469 87.0652 15.2469 87.8229C15.2469 87.8812 15.2469 87.8812 15.2469 87.9395C16.356 87.9395 17.4651 87.9395 18.5742 87.9395C18.5742 88.8138 18.5742 89.6882 18.5742 90.5625C14.6632 90.5625 10.6938 90.5625 6.66602 90.5625ZM12.6785 87.9395L12.6785 87.8812C12.6785 87.0652 12.6785 86.3074 12.6785 85.4914C12.6785 84.9668 12.2699 84.617 11.8029 84.617C11.2775 84.617 10.8105 84.617 10.2852 84.617C9.81818 84.617 9.3512 84.9668 9.3512 85.5497C9.3512 86.3074 9.3512 87.0652 9.3512 87.8229C9.3512 87.8812 9.3512 87.8812 9.3512 87.9395C10.4603 87.9395 11.5694 87.9395 12.6785 87.9395Z" fill="#4C7B96"/>
<path d="M154.934 15.9512C152.074 15.9512 149.214 15.9512 146.354 15.9512C146.354 15.8929 146.354 15.8929 146.354 15.8346C146.354 14.2025 146.354 12.5704 146.354 10.9383C146.354 9.24795 147.579 7.73244 149.272 7.441C149.447 7.441 149.564 7.38271 149.739 7.38271C150.323 7.38271 150.907 7.38271 151.432 7.38271C153.008 7.38271 154.409 8.54849 154.759 10.1223C154.818 10.3554 154.818 10.6469 154.876 10.88C154.876 12.5121 154.876 14.1442 154.876 15.7763C154.934 15.8929 154.934 15.8929 154.934 15.9512ZM152.249 13.3282C152.249 13.2699 152.249 13.2699 152.249 13.2699C152.249 12.5121 152.249 11.7544 152.249 10.9966C152.249 10.472 151.841 10.1223 151.374 10.1223C150.907 10.1223 150.44 10.1223 149.973 10.1223C149.447 10.1223 149.039 10.5303 149.039 11.0549C149.039 11.8127 149.039 12.5121 149.039 13.2699C149.039 13.3282 149.039 13.3282 149.039 13.3865C150.089 13.3282 151.199 13.3282 152.249 13.3282Z" fill="#4C7B96"/>
<path d="M154.935 17.5829C154.935 17.6412 154.935 17.6412 154.935 17.6995C154.935 19.3316 154.935 21.022 154.935 22.654C154.935 24.1113 154.059 25.3936 152.716 25.9182C152.308 26.0931 151.841 26.1514 151.432 26.1514C150.907 26.1514 150.381 26.1514 149.856 26.1514C148.163 26.1514 146.704 24.9856 146.412 23.2952C146.354 23.0621 146.354 22.7706 146.354 22.5375C146.354 21.7797 146.354 21.0802 146.354 20.3225C146.354 20.2642 146.354 20.2642 146.354 20.2059C145.245 20.2059 144.135 20.2059 143.026 20.2059C143.026 19.3316 143.026 18.4572 143.026 17.5829C146.937 17.5829 150.907 17.5829 154.935 17.5829ZM148.922 20.2059L148.922 20.2642C148.922 21.0802 148.922 21.838 148.922 22.654C148.922 23.1786 149.331 23.5284 149.798 23.5284C150.323 23.5284 150.79 23.5284 151.315 23.5284C151.782 23.5284 152.249 23.1786 152.249 22.5957C152.249 21.838 152.249 21.0802 152.249 20.3225C152.249 20.2642 152.249 20.2642 152.249 20.2059C151.14 20.2059 150.031 20.2059 148.922 20.2059Z" fill="#4C7B96"/>
<path d="M25.0558 28.2727L26.1127 28.2727L26.1127 36.0284L29.1808 36.0284L29.1808 28.2727L30.2377 28.2727L30.2377 36.0284L33.3058 36.0284L33.3058 28.2727L34.3627 28.2727L34.3627 37L25.0558 37L25.0558 28.2727ZM38.5114 37.1534C38.0966 37.1534 37.7202 37.0753 37.3821 36.919C37.0441 36.7599 36.7756 36.5313 36.5767 36.233C36.3779 35.9318 36.2784 35.5682 36.2784 35.142C36.2784 34.767 36.3523 34.4631 36.5 34.2301C36.6478 33.9943 36.8452 33.8097 37.0924 33.6761C37.3395 33.5426 37.6122 33.4432 37.9105 33.3778C38.2117 33.3097 38.5142 33.2557 38.8182 33.2159C39.2159 33.1648 39.5384 33.1264 39.7855 33.1009C40.0355 33.0724 40.2174 33.0256 40.331 32.9602C40.4475 32.8949 40.5057 32.7813 40.5057 32.6193L40.5057 32.5852C40.5057 32.1648 40.3907 31.8381 40.1605 31.6051C39.9333 31.3722 39.5881 31.2557 39.125 31.2557C38.6449 31.2557 38.2685 31.3608 37.9958 31.571C37.723 31.7813 37.5313 32.0057 37.4205 32.2443L36.4659 31.9034C36.6364 31.5057 36.8637 31.196 37.1478 30.9744C37.4347 30.75 37.7472 30.5938 38.0853 30.5057C38.4262 30.4148 38.7614 30.3693 39.0909 30.3693C39.3012 30.3693 39.5426 30.3949 39.8154 30.446C40.0909 30.4943 40.3566 30.5952 40.6122 30.7486C40.8708 30.902 41.0853 31.1335 41.2557 31.4432C41.4262 31.7528 41.5114 32.1676 41.5114 32.6875L41.5114 37L40.5057 37L40.5057 36.1136L40.4546 36.1136C40.3864 36.2557 40.2728 36.4077 40.1137 36.5696C39.9546 36.7315 39.7429 36.8693 39.4787 36.983C39.2145 37.0966 38.8921 37.1534 38.5114 37.1534ZM38.6648 36.25C39.0625 36.25 39.3978 36.1719 39.6705 36.0156C39.9461 35.8594 40.1534 35.6577 40.2926 35.4105C40.4347 35.1634 40.5057 34.9034 40.5057 34.6307L40.5057 33.7102C40.4631 33.7614 40.3693 33.8082 40.2245 33.8509C40.0824 33.8906 39.9176 33.9261 39.7301 33.9574C39.5455 33.9858 39.3651 34.0114 39.189 34.0341C39.0157 34.054 38.875 34.071 38.7671 34.0852C38.5057 34.1193 38.2614 34.1747 38.0341 34.2514C37.8097 34.3253 37.6279 34.4375 37.4887 34.5881C37.3523 34.7358 37.2841 34.9375 37.2841 35.1932C37.2841 35.5426 37.4134 35.8068 37.6719 35.9858C37.9333 36.1619 38.2642 36.25 38.6648 36.25ZM43.587 39.4545L43.587 30.4545L44.5586 30.4545L44.5586 31.4943L44.6779 31.4943C44.7517 31.3807 44.854 31.2358 44.9847 31.0597C45.1182 30.8807 45.3086 30.7216 45.5557 30.5824C45.8057 30.4403 46.1438 30.3693 46.5699 30.3693C47.1211 30.3693 47.6069 30.5071 48.0273 30.7827C48.4478 31.0582 48.7759 31.4489 49.0117 31.9545C49.2475 32.4602 49.3654 33.0568 49.3654 33.7443C49.3654 34.4375 49.2475 35.0384 49.0117 35.5469C48.7759 36.0526 48.4492 36.4446 48.0316 36.723C47.614 36.9986 47.1324 37.1364 46.587 37.1364C46.1665 37.1364 45.8299 37.0668 45.577 36.9276C45.3242 36.7855 45.1296 36.625 44.9932 36.446C44.8569 36.2642 44.7517 36.1136 44.6779 35.9943L44.5927 35.9943L44.5927 39.4545L43.587 39.4545ZM44.5756 33.7273C44.5756 34.2216 44.6481 34.6577 44.7929 35.0355C44.9378 35.4105 45.1495 35.7045 45.4279 35.9176C45.7063 36.1278 46.0472 36.233 46.4506 36.233C46.8711 36.233 47.2219 36.1222 47.5032 35.9006C47.7873 35.6761 48.0003 35.375 48.1424 34.9972C48.2873 34.6165 48.3597 34.1932 48.3597 33.7273C48.3597 33.267 48.2887 32.8523 48.1466 32.483C48.0074 32.1108 47.7958 31.8168 47.5117 31.6009C47.2304 31.3821 46.8767 31.2727 46.4506 31.2727C46.0415 31.2727 45.6978 31.3764 45.4194 31.5838C45.141 31.7884 44.9307 32.0753 44.7887 32.4446C44.6466 32.8111 44.5756 33.2386 44.5756 33.7273ZM53.0656 37.1534C52.6508 37.1534 52.2744 37.0753 51.9364 36.919C51.5983 36.7599 51.3298 36.5313 51.131 36.233C50.9321 35.9318 50.8327 35.5682 50.8327 35.142C50.8327 34.767 50.9065 34.4631 51.0542 34.2301C51.202 33.9943 51.3994 33.8097 51.6466 33.6761C51.8937 33.5426 52.1665 33.4432 52.4648 33.3778C52.7659 33.3097 53.0685 33.2557 53.3724 33.2159C53.7702 33.1648 54.0926 33.1264 54.3398 33.1009C54.5898 33.0724 54.7716 33.0256 54.8852 32.9602C55.0017 32.8949 55.0599 32.7813 55.0599 32.6193L55.0599 32.5852C55.0599 32.1648 54.9449 31.8381 54.7148 31.6051C54.4875 31.3722 54.1423 31.2557 53.6792 31.2557C53.1991 31.2557 52.8227 31.3608 52.55 31.571C52.2773 31.7813 52.0855 32.0057 51.9747 32.2443L51.0202 31.9034C51.1906 31.5057 51.4179 31.196 51.702 30.9744C51.9889 30.75 52.3014 30.5938 52.6395 30.5057C52.9804 30.4148 53.3156 30.3693 53.6452 30.3693C53.8554 30.3693 54.0969 30.3949 54.3696 30.446C54.6452 30.4943 54.9108 30.5952 55.1665 30.7486C55.425 30.902 55.6395 31.1335 55.8099 31.4432C55.9804 31.7528 56.0656 32.1676 56.0656 32.6875L56.0656 37L55.0599 37L55.0599 36.1136L55.0088 36.1136C54.9406 36.2557 54.827 36.4077 54.6679 36.5696C54.5088 36.7315 54.2971 36.8693 54.0329 36.983C53.7687 37.0966 53.4463 37.1534 53.0656 37.1534ZM53.219 36.25C53.6167 36.25 53.952 36.1719 54.2247 36.0156C54.5003 35.8594 54.7077 35.6577 54.8469 35.4105C54.9889 35.1634 55.0599 34.9034 55.0599 34.6307L55.0599 33.7102C55.0173 33.7614 54.9236 33.8082 54.7787 33.8509C54.6366 33.8906 54.4719 33.9261 54.2844 33.9574C54.0997 33.9858 53.9193 34.0114 53.7432 34.0341C53.5699 34.054 53.4292 34.071 53.3213 34.0852C53.0599 34.1193 52.8156 34.1747 52.5883 34.2514C52.3639 34.3253 52.1821 34.4375 52.0429 34.5881C51.9065 34.7358 51.8383 34.9375 51.8383 35.1932C51.8383 35.5426 51.9676 35.8068 52.2261 35.9858C52.4875 36.1619 52.8185 36.25 53.219 36.25ZM62.5219 33.267L62.5219 34.2045L58.9082 34.2045L58.9082 33.267L62.5219 33.267ZM59.1469 30.4545L59.1469 37L58.1412 37L58.1412 30.4545L59.1469 30.4545ZM63.2889 30.4545L63.2889 37L62.2832 37L62.2832 30.4545L63.2889 30.4545ZM68.6397 29.2102L68.6397 28.2727L75.1851 28.2727L75.1851 29.2102L72.4408 29.2102L72.4408 37L71.384 37L71.384 29.2102L68.6397 29.2102ZM77.9553 37.1534C77.5405 37.1534 77.1641 37.0753 76.826 36.919C76.488 36.7599 76.2195 36.5313 76.0206 36.233C75.8218 35.9318 75.7223 35.5682 75.7223 35.142C75.7223 34.767 75.7962 34.4631 75.9439 34.2301C76.0917 33.9943 76.2891 33.8097 76.5363 33.6761C76.7834 33.5426 77.0562 33.4432 77.3544 33.3778C77.6556 33.3097 77.9581 33.2557 78.2621 33.2159C78.6598 33.1648 78.9823 33.1264 79.2294 33.1009C79.4794 33.0724 79.6613 33.0256 79.7749 32.9602C79.8914 32.8949 79.9496 32.7813 79.9496 32.6193L79.9496 32.5852C79.9496 32.1648 79.8346 31.8381 79.6044 31.6051C79.3772 31.3722 79.032 31.2557 78.5689 31.2557C78.0888 31.2557 77.7124 31.3608 77.4397 31.571C77.1669 31.7813 76.9752 32.0057 76.8644 32.2443L75.9098 31.9034C76.0803 31.5057 76.3076 31.196 76.5917 30.9744C76.8786 30.75 77.1911 30.5938 77.5292 30.5057C77.8701 30.4148 78.2053 30.3693 78.5348 30.3693C78.7451 30.3693 78.9866 30.3949 79.2593 30.446C79.5348 30.4943 79.8005 30.5952 80.0562 30.7486C80.3147 30.902 80.5292 31.1335 80.6996 31.4432C80.8701 31.7528 80.9553 32.1676 80.9553 32.6875L80.9553 37L79.9496 37L79.9496 36.1136L79.8985 36.1136C79.8303 36.2557 79.7167 36.4077 79.5576 36.5696C79.3985 36.7315 79.1868 36.8693 78.9226 36.983C78.6584 37.0966 78.336 37.1534 77.9553 37.1534ZM78.1087 36.25C78.5064 36.25 78.8417 36.1719 79.1144 36.0156C79.39 35.8594 79.5973 35.6577 79.7366 35.4105C79.8786 35.1634 79.9496 34.9034 79.9496 34.6307L79.9496 33.7102C79.907 33.7614 79.8133 33.8082 79.6684 33.8509C79.5263 33.8906 79.3616 33.9261 79.1741 33.9574C78.9894 33.9858 78.809 34.0114 78.6329 34.0341C78.4596 34.054 78.3189 34.071 78.211 34.0852C77.9496 34.1193 77.7053 34.1747 77.478 34.2514C77.2536 34.3253 77.0718 34.4375 76.9326 34.5881C76.7962 34.7358 76.728 34.9375 76.728 35.1932C76.728 35.5426 76.8573 35.8068 77.1158 35.9858C77.3772 36.1619 77.7081 36.25 78.1087 36.25ZM82.1403 31.392L82.1403 30.4545L87.4584 30.4545L87.4584 31.392L85.3107 31.392L85.3107 37L84.305 37L84.305 31.392L82.1403 31.392ZM90.0347 32.8239L91.9097 32.8239C92.6768 32.8239 93.2634 33.0185 93.6697 33.4077C94.0759 33.7969 94.2791 34.2898 94.2791 34.8864C94.2791 35.2784 94.1881 35.6349 94.0063 35.956C93.8245 36.2742 93.5575 36.5284 93.2052 36.7188C92.8529 36.9063 92.4211 37 91.9097 37L89.1654 37L89.1654 30.4545L90.1711 30.4545L90.1711 36.0625L91.9097 36.0625C92.3075 36.0625 92.6342 35.9574 92.8898 35.7472C93.1455 35.5369 93.2734 35.267 93.2734 34.9375C93.2734 34.5909 93.1455 34.3082 92.8898 34.0895C92.6342 33.8707 92.3075 33.7614 91.9097 33.7614L90.0347 33.7614L90.0347 32.8239ZM99.9874 37L99.9874 31.375L98.2488 31.375C97.8568 31.375 97.5485 31.4659 97.3241 31.6477C97.0997 31.8295 96.9874 32.0795 96.9874 32.3977C96.9874 32.7102 97.0883 32.956 97.29 33.1349C97.4945 33.3139 97.7744 33.4034 98.1295 33.4034L100.243 33.4034L100.243 34.3409L98.1295 34.3409C97.6863 34.3409 97.3042 34.2628 96.9832 34.1065C96.6622 33.9503 96.415 33.7273 96.2417 33.4375C96.0684 33.1449 95.9818 32.7983 95.9818 32.3977C95.9818 31.9943 96.0727 31.6477 96.2545 31.358C96.4363 31.0682 96.6963 30.8452 97.0343 30.6889C97.3752 30.5327 97.7801 30.4545 98.2488 30.4545L100.942 30.4545L100.942 37L99.9874 37ZM95.6238 37L97.4818 33.7443L98.5727 33.7443L96.7147 37L95.6238 37ZM107.409 33.267L107.409 34.2046L103.795 34.2045L103.795 33.267L107.409 33.267ZM104.034 30.4545L104.034 37L103.028 37L103.028 30.4545L104.034 30.4545ZM108.176 30.4545L108.176 37L107.17 37L107.17 30.4545L108.176 30.4545ZM112.179 37.1534C111.764 37.1534 111.388 37.0753 111.049 36.919C110.711 36.7599 110.443 36.5313 110.244 36.233C110.045 35.9318 109.946 35.5682 109.946 35.1421C109.946 34.7671 110.02 34.4631 110.167 34.2301C110.315 33.9943 110.513 33.8097 110.76 33.6761C111.007 33.5426 111.28 33.4432 111.578 33.3778C111.879 33.3097 112.182 33.2557 112.486 33.2159C112.883 33.1648 113.206 33.1264 113.453 33.1009C113.703 33.0724 113.885 33.0256 113.998 32.9602C114.115 32.8949 114.173 32.7813 114.173 32.6193L114.173 32.5852C114.173 32.1648 114.058 31.8381 113.828 31.6051C113.601 31.3722 113.255 31.2557 112.792 31.2557C112.312 31.2557 111.936 31.3608 111.663 31.571C111.39 31.7813 111.199 32.0057 111.088 32.2443L110.133 31.9034C110.304 31.5057 110.531 31.196 110.815 30.9744C111.102 30.75 111.415 30.5938 111.753 30.5057C112.094 30.4148 112.429 30.3693 112.758 30.3693C112.969 30.3693 113.21 30.3949 113.483 30.446C113.758 30.4943 114.024 30.5952 114.28 30.7486C114.538 30.902 114.753 31.1335 114.923 31.4432C115.094 31.7528 115.179 32.1676 115.179 32.6875L115.179 37L114.173 37L114.173 36.1136L114.122 36.1136C114.054 36.2557 113.94 36.4077 113.781 36.5696C113.622 36.7315 113.41 36.8693 113.146 36.983C112.882 37.0966 112.559 37.1534 112.179 37.1534ZM112.332 36.25C112.73 36.25 113.065 36.1719 113.338 36.0156C113.613 35.8594 113.821 35.6577 113.96 35.4105C114.102 35.1634 114.173 34.9034 114.173 34.6307L114.173 33.7102C114.13 33.7614 114.037 33.8082 113.892 33.8509C113.75 33.8906 113.585 33.9261 113.397 33.9574C113.213 33.9858 113.032 34.0114 112.856 34.0341C112.683 34.054 112.542 34.071 112.434 34.0852C112.173 34.1193 111.929 34.1747 111.701 34.2514C111.477 34.3253 111.295 34.4375 111.156 34.5881C111.02 34.7358 110.951 34.9375 110.951 35.1932C110.951 35.5426 111.081 35.8068 111.339 35.9858C111.601 36.1619 111.932 36.25 112.332 36.25Z" fill="#2B4554"/>
<path d="M23.999 58H131.999" stroke="#2B4554" stroke-width="1.4" stroke-linecap="round"/>
<path d="M29.6524 74.7273L30.5331 74.7273L30.5331 79.5426C30.5331 80.0398 30.4159 80.4837 30.1816 80.8743C29.9495 81.2625 29.6217 81.5691 29.1979 81.794C28.7741 82.0166 28.277 82.1278 27.7064 82.1278C27.1359 82.1278 26.6387 82.0166 26.2149 81.794C25.7912 81.5691 25.4621 81.2625 25.2277 80.8743C24.9957 80.4837 24.8797 80.0398 24.8797 79.5426L24.8797 74.7273L25.7604 74.7273L25.7604 79.4716C25.7604 79.8267 25.8385 80.1428 25.9948 80.4197C26.151 80.6944 26.3735 80.911 26.6624 81.0696C26.9536 81.2259 27.3016 81.304 27.7064 81.304C28.1112 81.304 28.4593 81.2259 28.7504 81.0696C29.0416 80.911 29.2642 80.6944 29.4181 80.4197C29.5743 80.1428 29.6524 79.8267 29.6524 79.4716L29.6524 74.7273ZM32.718 74.7273L34.593 77.7528L34.6498 77.7528L36.5248 74.7273L37.5617 74.7273L35.2748 78.3636L37.5617 82L36.5248 82L34.6498 79.0313L34.593 79.0313L32.718 82L31.681 82L34.0248 78.3636L31.681 74.7273L32.718 74.7273ZM41.1652 74.3864L38.8215 83.0938L38.0544 83.0938L40.3982 74.3864L41.1652 74.3864ZM47.045 74.7273L47.9257 74.7273L47.9257 79.5426C47.9257 80.0398 47.8085 80.4837 47.5741 80.8743C47.3421 81.2625 47.0142 81.5691 46.5905 81.794C46.1667 82.0166 45.6695 82.1278 45.099 82.1278C44.5284 82.1278 44.0313 82.0166 43.6075 81.794C43.1837 81.5691 42.8547 81.2625 42.6203 80.8743C42.3883 80.4837 42.2723 80.0398 42.2723 79.5426L42.2723 74.7273L43.153 74.7273L43.153 79.4716C43.153 79.8267 43.2311 80.1428 43.3873 80.4197C43.5436 80.6944 43.7661 80.911 44.055 81.0696C44.3461 81.2259 44.6942 81.304 45.099 81.304C45.5038 81.304 45.8518 81.2259 46.143 81.0696C46.4342 80.911 46.6568 80.6944 46.8106 80.4197C46.9669 80.1428 47.045 79.8267 47.045 79.4716L47.045 74.7273ZM50.5651 74.7273L50.5651 82L49.6844 82L49.6844 74.7273L50.5651 74.7273ZM55.3422 77.973L55.3422 78.7543L52.1604 78.7543L52.1604 77.973L55.3422 77.973ZM56.2345 83.5625L56.2345 81.2188L56.689 81.2188C56.8003 81.1027 56.8962 80.9773 56.9767 80.8423C57.0571 80.7074 57.127 80.5476 57.1862 80.3629C57.2477 80.1759 57.2998 79.9486 57.3424 79.6811C57.385 79.4112 57.4229 79.0857 57.4561 78.7045L57.6407 76.5455L61.1066 76.5455L61.1066 81.2188L61.9447 81.2188L61.9447 83.5625L61.1066 83.5625L61.1066 82L57.0725 82L57.0725 83.5625L56.2345 83.5625ZM57.6407 81.2188L60.2686 81.2188L60.2686 77.3267L58.422 77.3267L58.2799 78.7045C58.2207 79.2751 58.1473 79.7734 58.0597 80.1996C57.9722 80.6257 57.8325 80.9654 57.6407 81.2188ZM63.8952 80.7642L66.523 76.5455L67.4889 76.5455L67.4889 82L66.6508 82L66.6508 77.7813L64.0372 82L63.0571 82L63.0571 76.5455L63.8952 76.5455L63.8952 80.7642ZM68.683 80.608L69.5779 80.608C69.5968 80.8542 69.7081 81.0412 69.9117 81.169C70.1176 81.2969 70.3851 81.3608 70.7142 81.3608C71.0504 81.3608 71.338 81.2921 71.5771 81.1548C71.8163 81.0152 71.9358 80.7902 71.9358 80.4801C71.9358 80.2978 71.8908 80.1392 71.8009 80.0043C71.7109 79.867 71.5843 79.7604 71.4209 79.6847C71.2575 79.6089 71.0646 79.571 70.8421 79.571L69.9046 79.571L69.9046 78.8182L70.8421 78.8182C71.1759 78.8182 71.4221 78.7424 71.5807 78.5909C71.7417 78.4394 71.8222 78.25 71.8222 78.0227C71.8222 77.7789 71.7358 77.5836 71.5629 77.4368C71.3901 77.2876 71.1451 77.2131 70.8279 77.2131C70.5083 77.2131 70.2419 77.2853 70.0289 77.4297C69.8158 77.5717 69.7033 77.7552 69.6915 77.9801L68.8108 77.9801C68.8203 77.6866 68.9102 77.4273 69.0807 77.2024C69.2512 76.9751 69.4832 76.7976 69.7767 76.6697C70.0703 76.5395 70.4065 76.4744 70.7852 76.4744C71.1688 76.4744 71.5014 76.5419 71.7831 76.6768C72.0672 76.8094 72.2862 76.9905 72.4401 77.2202C72.5963 77.4474 72.6744 77.7055 72.6744 77.9943C72.6744 78.3021 72.588 78.5507 72.4152 78.7401C72.2424 78.9295 72.0258 79.0644 71.7654 79.1449L71.7654 79.2017C71.9713 79.2159 72.1501 79.2822 72.3016 79.4006C72.4555 79.5166 72.575 79.6693 72.6602 79.8587C72.7455 80.0457 72.7881 80.2528 72.7881 80.4801C72.7881 80.8116 72.6993 81.1004 72.5218 81.3466C72.3442 81.5904 72.1003 81.7798 71.7902 81.9148C71.4801 82.0474 71.1262 82.1136 70.7284 82.1136C70.3425 82.1136 69.9969 82.0509 69.6915 81.9254C69.3861 81.7976 69.1434 81.6212 68.9635 81.3963C68.786 81.169 68.6924 80.9063 68.683 80.608ZM75.5704 82.1278C75.2248 82.1278 74.9111 82.0627 74.6293 81.9325C74.3476 81.8 74.1239 81.6094 73.9582 81.3608C73.7925 81.1099 73.7096 80.8068 73.7096 80.4517C73.7096 80.1392 73.7712 79.8859 73.8943 79.6918C74.0174 79.4953 74.1819 79.3414 74.3879 79.2301C74.5938 79.1188 74.8211 79.036 75.0697 78.9815C75.3206 78.9247 75.5728 78.8797 75.8261 78.8466C76.1575 78.804 76.4262 78.772 76.6322 78.7507C76.8405 78.727 76.992 78.688 77.0867 78.6335C77.1838 78.5791 77.2323 78.4844 77.2323 78.3494L77.2323 78.321C77.2323 77.9706 77.1365 77.6984 76.9447 77.5043C76.7553 77.3101 76.4677 77.2131 76.0818 77.2131C75.6817 77.2131 75.368 77.3007 75.1407 77.4759C74.9134 77.651 74.7536 77.8381 74.6613 78.0369L73.8659 77.7528C74.0079 77.4214 74.1973 77.1634 74.434 76.9787C74.6731 76.7917 74.9336 76.6615 75.2153 76.5881C75.4994 76.5123 75.7787 76.4744 76.0534 76.4744C76.2285 76.4744 76.4298 76.4957 76.657 76.5384C76.8867 76.5786 77.108 76.6626 77.3211 76.7905C77.5365 76.9183 77.7153 77.1113 77.8573 77.3693C77.9994 77.6274 78.0704 77.973 78.0704 78.4063L78.0704 82L77.2323 82L77.2323 81.2614L77.1897 81.2614C77.1329 81.3797 77.0382 81.5064 76.9056 81.6413C76.7731 81.7763 76.5967 81.8911 76.3765 81.9858C76.1563 82.0805 75.8876 82.1278 75.5704 82.1278ZM75.6982 81.375C76.0297 81.375 76.309 81.3099 76.5363 81.1797C76.766 81.0495 76.9388 80.8814 77.0548 80.6754C77.1731 80.4695 77.2323 80.2528 77.2323 80.0256L77.2323 79.2585C77.1968 79.3011 77.1187 79.3402 76.998 79.3757C76.8796 79.4089 76.7423 79.4384 76.586 79.4645C76.4321 79.4882 76.2818 79.5095 76.135 79.5284C75.9906 79.545 75.8734 79.5592 75.7835 79.571C75.5657 79.5994 75.3621 79.6456 75.1727 79.7095C74.9856 79.7711 74.8341 79.8646 74.7181 79.9901C74.6045 80.1132 74.5477 80.2813 74.5477 80.4943C74.5477 80.7855 74.6554 81.0057 74.8708 81.1548C75.0886 81.3016 75.3644 81.375 75.6982 81.375ZM80.4381 80.7642L83.066 76.5455L84.0319 76.5455L84.0319 82L83.1938 82L83.1938 77.7813L80.5802 82L79.6001 82L79.6001 76.5455L80.4381 76.5455L80.4381 80.7642ZM82.512 74.7273L83.2932 74.7273C83.2932 75.1108 83.1607 75.4245 82.8955 75.6683C82.6304 75.9122 82.2705 76.0341 81.816 76.0341C81.3685 76.0341 81.0122 75.9122 80.7471 75.6683C80.4843 75.4245 80.3529 75.1108 80.3529 74.7273L81.1341 74.7273C81.1341 74.9119 81.185 75.0741 81.2868 75.2138C81.391 75.3535 81.5674 75.4233 81.816 75.4233C82.0645 75.4233 82.2421 75.3535 82.3486 75.2138C82.4575 75.0741 82.512 74.9119 82.512 74.7273ZM89.2174 78.8892L89.2174 79.6705L86.2061 79.6705L86.2061 78.8892L89.2174 78.8892ZM86.4049 76.5455L86.4049 82L85.5668 82L85.5668 76.5455L86.4049 76.5455ZM89.8566 76.5455L89.8566 82L89.0186 82L89.0186 76.5455L89.8566 76.5455ZM93.6741 82.1136C93.1485 82.1136 92.6952 81.9976 92.314 81.7656C91.9352 81.5313 91.6428 81.2045 91.4369 80.7855C91.2333 80.3641 91.1315 79.8741 91.1315 79.3153C91.1315 78.7566 91.2333 78.2642 91.4369 77.8381C91.6428 77.4096 91.9293 77.0758 92.2963 76.8367C92.6656 76.5952 93.0964 76.4744 93.5889 76.4744C93.873 76.4744 94.1535 76.5218 94.4305 76.6165C94.7075 76.7112 94.9596 76.8651 95.1869 77.0781C95.4142 77.2888 95.5953 77.5682 95.7302 77.9162C95.8651 78.2642 95.9326 78.6927 95.9326 79.2017L95.9326 79.5568L91.7281 79.5568L91.7281 78.8324L95.0803 78.8324C95.0803 78.5246 95.0188 78.25 94.8957 78.0085C94.7749 77.767 94.6021 77.5765 94.3772 77.4368C94.1547 77.2971 93.8919 77.2273 93.5889 77.2273C93.2551 77.2273 92.9662 77.3101 92.7224 77.4759C92.4809 77.6392 92.2951 77.8523 92.1649 78.1151C92.0347 78.3778 91.9695 78.6596 91.9695 78.9602L91.9695 79.4432C91.9695 79.8551 92.0406 80.2043 92.1826 80.4908C92.327 80.7749 92.5271 80.9915 92.7828 81.1406C93.0384 81.2874 93.3356 81.3608 93.6741 81.3608C93.8943 81.3608 94.0931 81.33 94.2707 81.2685C94.4506 81.2045 94.6057 81.1099 94.7359 80.9844C94.8661 80.8565 94.9667 80.6979 95.0377 80.5085L95.8474 80.7358C95.7622 81.0104 95.6189 81.2519 95.4177 81.4602C95.2165 81.6662 94.9679 81.8272 94.672 81.9432C94.376 82.0568 94.0434 82.1136 93.6741 82.1136ZM97.2075 84.0455L97.2075 76.5455L98.0171 76.5455L98.0171 77.4119L98.1166 77.4119C98.1781 77.3172 98.2633 77.1965 98.3722 77.0497C98.4835 76.9006 98.6421 76.768 98.8481 76.652C99.0564 76.5336 99.3382 76.4744 99.6933 76.4744C100.153 76.4744 100.557 76.5893 100.908 76.8189C101.258 77.0485 101.532 77.3741 101.728 77.7955C101.925 78.2169 102.023 78.714 102.023 79.2869C102.023 79.8646 101.925 80.3653 101.728 80.7891C101.532 81.2105 101.259 81.5372 100.911 81.7692C100.563 81.9988 100.162 82.1136 99.7075 82.1136C99.3571 82.1136 99.0766 82.0556 98.8659 81.9396C98.6552 81.8213 98.493 81.6875 98.3793 81.5384C98.2657 81.3868 98.1781 81.2614 98.1166 81.1619L98.0455 81.1619L98.0455 84.0455L97.2075 84.0455ZM98.0313 79.2727C98.0313 79.6847 98.0917 80.0481 98.2124 80.3629C98.3332 80.6754 98.5096 80.9205 98.7416 81.098C98.9736 81.2732 99.2577 81.3608 99.5938 81.3608C99.9442 81.3608 100.237 81.2685 100.471 81.0838C100.708 80.8968 100.885 80.6458 101.004 80.331C101.124 80.0137 101.185 79.661 101.185 79.2727C101.185 78.8892 101.126 78.5436 101.007 78.2358C100.891 77.9257 100.715 77.6806 100.478 77.5007C100.244 77.3184 99.949 77.2273 99.5938 77.2273C99.2529 77.2273 98.9665 77.3137 98.7345 77.4865C98.5025 77.657 98.3273 77.8961 98.2089 78.2038C98.0905 78.5092 98.0313 78.8655 98.0313 79.2727Z" fill="#2B4554"/>
</g>
<defs>
<clipPath id="clip0_1291_3887">
<rect width="108" height="162" fill="white" transform="translate(0 108) rotate(-90)"/>
</clipPath>
</defs>
</svg>
