<svg width="162" height="108" viewBox="0 0 162 108" fill="none" xmlns="http://www.w3.org/2000/svg">
<g clip-path="url(#clip0_1291_3852)">
<path d="M160.854 10.051L160.854 97.949C160.854 102.858 156.849 106.854 151.922 106.854L10.0777 106.854C5.1506 106.854 1.14629 102.858 1.14629 97.949L1.14628 10.051C1.14628 5.1423 5.1506 1.14629 10.0777 1.14629L151.922 1.14628C156.849 1.14628 160.854 5.14229 160.854 10.051Z" fill="white" stroke="#2B4554" stroke-width="1.4"/>
<path d="M154.859 13.8214L154.859 94.6849C154.859 98.1222 152.117 100.86 148.675 100.86L12.8766 100.86C9.435 100.86 6.69336 98.1222 6.69336 94.6849L6.69336 13.7631C6.69336 10.3258 9.435 7.58763 12.8766 7.58763L148.617 7.58763C152.059 7.64589 154.859 10.3841 154.859 13.8214Z" stroke="#2B4554" stroke-width="0.6" stroke-miterlimit="10"/>
<path d="M23.9999 74.5716L23.9999 105.429L16.857 105.429C8.96227 105.429 2.57129 98.8833 2.57129 90.7977L2.57129 74.5716L23.9999 74.5716Z" fill="white"/>
<path d="M137.9 33.0254L137.9 2.232L145.19 2.232C153.246 2.232 159.768 8.76394 159.768 16.8328L159.768 33.0254L137.9 33.0254Z" fill="white"/>
<path d="M6.66602 92.1942C9.52632 92.1942 12.3866 92.1942 15.2469 92.1942C15.2469 92.2525 15.2469 92.2525 15.2469 92.3108C15.2469 93.9429 15.2469 95.575 15.2469 97.2071C15.2469 98.8975 14.0211 100.413 12.3282 100.704C12.1531 100.704 12.0364 100.763 11.8613 100.763C11.2775 100.763 10.6938 100.763 10.1684 100.763C8.59234 100.763 7.19138 99.5969 6.84114 98.0231C6.78276 97.79 6.78276 97.4985 6.72439 97.2654C6.72439 95.6333 6.72439 94.0012 6.72439 92.3691C6.66602 92.2525 6.66602 92.2525 6.66602 92.1942ZM9.3512 94.8172C9.3512 94.8755 9.3512 94.8755 9.3512 94.8755C9.3512 95.6333 9.3512 96.391 9.3512 97.1488C9.3512 97.6734 9.75981 98.0231 10.2268 98.0231C10.6938 98.0231 11.1608 98.0231 11.6278 98.0231C12.1531 98.0231 12.5617 97.6151 12.5617 97.0905C12.5617 96.3327 12.5617 95.6333 12.5617 94.8755C12.5617 94.8172 12.5617 94.8172 12.5617 94.7589C11.511 94.8172 10.4019 94.8172 9.3512 94.8172Z" fill="#4C7B96"/>
<path d="M6.66602 90.5625C6.66602 90.5042 6.66602 90.5042 6.66602 90.4459C6.66602 88.8138 6.66602 87.1235 6.66602 85.4914C6.66602 84.0342 7.54162 82.7518 8.88421 82.2272C9.29282 82.0523 9.75981 81.994 10.1684 81.994C10.6938 81.994 11.2191 81.994 11.7445 81.994C13.4373 81.994 14.8967 83.1598 15.1885 84.8502C15.2469 85.0834 15.2469 85.3748 15.2469 85.6079C15.2469 86.3657 15.2469 87.0652 15.2469 87.8229C15.2469 87.8812 15.2469 87.8812 15.2469 87.9395C16.356 87.9395 17.4651 87.9395 18.5742 87.9395C18.5742 88.8138 18.5742 89.6882 18.5742 90.5625C14.6632 90.5625 10.6938 90.5625 6.66602 90.5625ZM12.6785 87.9395L12.6785 87.8812C12.6785 87.0652 12.6785 86.3074 12.6785 85.4914C12.6785 84.9668 12.2699 84.617 11.8029 84.617C11.2775 84.617 10.8105 84.617 10.2852 84.617C9.81818 84.617 9.3512 84.9668 9.3512 85.5497C9.3512 86.3074 9.3512 87.0652 9.3512 87.8229C9.3512 87.8812 9.3512 87.8812 9.3512 87.9395C10.4603 87.9395 11.5694 87.9395 12.6785 87.9395Z" fill="#4C7B96"/>
<path d="M154.934 15.9512C152.074 15.9512 149.214 15.9512 146.354 15.9512C146.354 15.8929 146.354 15.8929 146.354 15.8346C146.354 14.2025 146.354 12.5704 146.354 10.9383C146.354 9.24795 147.579 7.73244 149.272 7.441C149.447 7.441 149.564 7.38271 149.739 7.38271C150.323 7.38271 150.907 7.38271 151.432 7.38271C153.008 7.38271 154.409 8.54849 154.759 10.1223C154.818 10.3554 154.818 10.6469 154.876 10.88C154.876 12.5121 154.876 14.1442 154.876 15.7763C154.934 15.8929 154.934 15.8929 154.934 15.9512ZM152.249 13.3282C152.249 13.2699 152.249 13.2699 152.249 13.2699C152.249 12.5121 152.249 11.7544 152.249 10.9966C152.249 10.472 151.841 10.1223 151.374 10.1223C150.907 10.1223 150.44 10.1223 149.973 10.1223C149.447 10.1223 149.039 10.5303 149.039 11.0549C149.039 11.8127 149.039 12.5121 149.039 13.2699C149.039 13.3282 149.039 13.3282 149.039 13.3865C150.089 13.3282 151.199 13.3282 152.249 13.3282Z" fill="#4C7B96"/>
<path d="M154.935 17.5829C154.935 17.6412 154.935 17.6412 154.935 17.6995C154.935 19.3316 154.935 21.022 154.935 22.654C154.935 24.1113 154.059 25.3936 152.716 25.9182C152.308 26.0931 151.841 26.1514 151.432 26.1514C150.907 26.1514 150.381 26.1514 149.856 26.1514C148.163 26.1514 146.704 24.9856 146.412 23.2952C146.354 23.0621 146.354 22.7706 146.354 22.5375C146.354 21.7797 146.354 21.0802 146.354 20.3225C146.354 20.2642 146.354 20.2642 146.354 20.2059C145.245 20.2059 144.135 20.2059 143.026 20.2059C143.026 19.3316 143.026 18.4572 143.026 17.5829C146.937 17.5829 150.907 17.5829 154.935 17.5829ZM148.922 20.2059L148.922 20.2642C148.922 21.0802 148.922 21.838 148.922 22.654C148.922 23.1786 149.331 23.5284 149.798 23.5284C150.323 23.5284 150.79 23.5284 151.315 23.5284C151.782 23.5284 152.249 23.1786 152.249 22.5957C152.249 21.838 152.249 21.0802 152.249 20.3225C152.249 20.2642 152.249 20.2642 152.249 20.2059C151.14 20.2059 150.031 20.2059 148.922 20.2059Z" fill="#4C7B96"/>
<path d="M24.3058 30.1136L24.3058 27.0625L24.8683 27.0625C25.0615 26.8864 25.2433 26.6378 25.4138 26.3168C25.5871 25.9929 25.7334 25.5611 25.8527 25.0213C25.9749 24.4787 26.0558 23.7898 26.0956 22.9545L26.2831 19.2727L31.4649 19.2727L31.4649 27.0625L32.4706 27.0625L32.4706 30.0966L31.4649 30.0966L31.4649 28L25.3115 28L25.3115 30.1136L24.3058 30.1136ZM26.1297 27.0625L30.4593 27.0625L30.4593 20.2102L27.2377 20.2102L27.1013 22.9545C27.0672 23.5909 27.0075 24.1676 26.9223 24.6847C26.8371 25.1989 26.7277 25.6548 26.5942 26.0526C26.4607 26.4474 26.3058 26.7841 26.1297 27.0625ZM36.8303 28.1364C36.2394 28.1364 35.7209 27.9957 35.2749 27.7145C34.8317 27.4332 34.4851 27.0398 34.2351 26.5341C33.988 26.0284 33.8644 25.4375 33.8644 24.7614C33.8644 24.0795 33.988 23.4844 34.2351 22.9759C34.4851 22.4673 34.8317 22.0724 35.2749 21.7912C35.7209 21.5099 36.2394 21.3693 36.8303 21.3693C37.4212 21.3693 37.9382 21.5099 38.3814 21.7912C38.8274 22.0724 39.174 22.4673 39.4212 22.9759C39.6712 23.4844 39.7962 24.0795 39.7962 24.7614C39.7962 25.4375 39.6712 26.0284 39.4212 26.5341C39.174 27.0398 38.8274 27.4332 38.3814 27.7145C37.9382 27.9957 37.4212 28.1364 36.8303 28.1364ZM36.8303 27.233C37.2792 27.233 37.6485 27.1179 37.9382 26.8878C38.228 26.6577 38.4425 26.3551 38.5817 25.9801C38.7209 25.6051 38.7905 25.1989 38.7905 24.7614C38.7905 24.3239 38.7209 23.9162 38.5817 23.5384C38.4425 23.1605 38.228 22.8551 37.9382 22.6222C37.6485 22.3892 37.2792 22.2727 36.8303 22.2727C36.3814 22.2727 36.0121 22.3892 35.7223 22.6222C35.4326 22.8551 35.2181 23.1605 35.0789 23.5384C34.9397 23.9162 34.8701 24.3239 34.8701 24.7614C34.8701 25.1989 34.9397 25.6051 35.0789 25.9801C35.2181 26.3551 35.4326 26.6577 35.7223 26.8878C36.0121 27.1179 36.3814 27.233 36.8303 27.233ZM41.5714 30.4545L41.5714 21.4545L42.5429 21.4545L42.5429 22.4943L42.6623 22.4943C42.7361 22.3807 42.8384 22.2358 42.9691 22.0597C43.1026 21.8807 43.2929 21.7216 43.5401 21.5824C43.7901 21.4403 44.1282 21.3693 44.5543 21.3693C45.1054 21.3693 45.5912 21.5071 46.0117 21.7827C46.4321 22.0582 46.7603 22.4489 46.9961 22.9545C47.2319 23.4602 47.3498 24.0568 47.3498 24.7443C47.3498 25.4375 47.2319 26.0384 46.9961 26.5469C46.7603 27.0526 46.4336 27.4446 46.016 27.723C45.5983 27.9986 45.1168 28.1364 44.5714 28.1364C44.1509 28.1364 43.8142 28.0668 43.5614 27.9276C43.3086 27.7855 43.114 27.625 42.9776 27.446C42.8412 27.2642 42.7361 27.1136 42.6623 26.9943L42.577 26.9943L42.577 30.4545L41.5714 30.4545ZM42.56 24.7273C42.56 25.2216 42.6324 25.6577 42.7773 26.0355C42.9222 26.4105 43.1339 26.7045 43.4123 26.9176C43.6907 27.1278 44.0316 27.233 44.435 27.233C44.8554 27.233 45.2063 27.1222 45.4875 26.9006C45.7716 26.6761 45.9847 26.375 46.1267 25.9972C46.2716 25.6165 46.3441 25.1932 46.3441 24.7273C46.3441 24.267 46.2731 23.8523 46.131 23.483C45.9918 23.1108 45.7802 22.8168 45.4961 22.6009C45.2148 22.3821 44.8611 22.2727 44.435 22.2727C44.0259 22.2727 43.6821 22.3764 43.4037 22.5838C43.1253 22.7884 42.9151 23.0753 42.7731 23.4446C42.631 23.8111 42.56 24.2386 42.56 24.7273ZM52.7034 26.6364L54.9875 21.4545L55.942 21.4545L53.1125 28L52.2943 28L49.5159 21.4545L50.4534 21.4545L52.7034 26.6364ZM50.1295 21.4545L50.1295 28L49.1239 28L49.1239 21.4545L50.1295 21.4545ZM55.2773 28L55.2773 21.4545L56.2829 21.4545L56.2829 28L55.2773 28ZM59.3695 26.517L62.5229 21.4545L63.682 21.4545L63.682 28L62.6764 28L62.6764 22.9375L59.54 28L58.3639 28L58.3639 21.4545L59.3695 21.4545L59.3695 26.517ZM65.0651 29.875L65.0651 27.0625L65.6106 27.0625C65.7441 26.9233 65.8592 26.7727 65.9558 26.6108C66.0524 26.4489 66.1362 26.2571 66.2072 26.0355C66.2811 25.8111 66.3436 25.5384 66.3947 25.2173C66.4458 24.8935 66.4913 24.5028 66.5311 24.0455L66.7526 21.4545L70.9117 21.4545L70.9117 27.0625L71.9174 27.0625L71.9174 29.875L70.9117 29.875L70.9117 28L66.0708 28L66.0708 29.875L65.0651 29.875ZM66.7526 27.0625L69.9061 27.0625L69.9061 22.392L67.6901 22.392L67.5197 24.0455C67.4487 24.7301 67.3606 25.3281 67.2555 25.8395C67.1504 26.3509 66.9828 26.7585 66.7526 27.0625ZM76.1514 28.1364C75.5605 28.1364 75.042 27.9957 74.596 27.7145C74.1528 27.4332 73.8062 27.0398 73.5562 26.5341C73.309 26.0284 73.1855 25.4375 73.1855 24.7614C73.1855 24.0795 73.309 23.4844 73.5562 22.9759C73.8062 22.4673 74.1528 22.0724 74.596 21.7912C75.042 21.5099 75.5605 21.3693 76.1514 21.3693C76.7423 21.3693 77.2593 21.5099 77.7025 21.7912C78.1485 22.0724 78.4951 22.4673 78.7423 22.9759C78.9923 23.4844 79.1173 24.0795 79.1173 24.7614C79.1173 25.4375 78.9923 26.0284 78.7423 26.5341C78.4951 27.0398 78.1485 27.4332 77.7025 27.7145C77.2593 27.9957 76.7423 28.1364 76.1514 28.1364ZM76.1514 27.233C76.6002 27.233 76.9696 27.1179 77.2593 26.8878C77.5491 26.6577 77.7636 26.3551 77.9028 25.9801C78.042 25.6051 78.1116 25.1989 78.1116 24.7614C78.1116 24.3239 78.042 23.9162 77.9028 23.5384C77.7636 23.1605 77.5491 22.8551 77.2593 22.6222C76.9696 22.3892 76.6002 22.2727 76.1514 22.2727C75.7025 22.2727 75.3332 22.3892 75.0434 22.6222C74.7537 22.8551 74.5392 23.1605 74.4 23.5384C74.2608 23.9162 74.1912 24.3239 74.1912 24.7614C74.1912 25.1989 74.2608 25.6051 74.4 25.9801C74.5392 26.3551 74.7537 26.6577 75.0434 26.8878C75.3332 27.1179 75.7025 27.233 76.1514 27.233ZM85.2731 24.267L85.2731 25.2045L81.6595 25.2045L81.6595 24.267L85.2731 24.267ZM81.8981 21.4545L81.8981 28L80.8924 28L80.8924 21.4545L81.8981 21.4545ZM86.0402 21.4545L86.0402 28L85.0345 28L85.0345 21.4545L86.0402 21.4545ZM87.2262 22.392L87.2262 21.4545L92.5444 21.4545L92.5444 22.392L90.3966 22.392L90.3966 28L89.391 28L89.391 22.392L87.2262 22.392ZM96.5706 28.1364C95.9797 28.1364 95.4612 27.9957 95.0152 27.7145C94.572 27.4332 94.2254 27.0398 93.9754 26.5341C93.7283 26.0284 93.6047 25.4375 93.6047 24.7614C93.6047 24.0795 93.7283 23.4844 93.9754 22.9759C94.2254 22.4673 94.572 22.0724 95.0152 21.7912C95.4612 21.5099 95.9797 21.3693 96.5706 21.3693C97.1615 21.3693 97.6786 21.5099 98.1217 21.7912C98.5678 22.0724 98.9144 22.4673 99.1615 22.9759C99.4115 23.4844 99.5365 24.0795 99.5365 24.7614C99.5365 25.4375 99.4115 26.0284 99.1615 26.5341C98.9144 27.0398 98.5678 27.4332 98.1217 27.7145C97.6786 27.9957 97.1615 28.1364 96.5706 28.1364ZM96.5706 27.233C97.0195 27.233 97.3888 27.1179 97.6786 26.8878C97.9683 26.6577 98.1828 26.3551 98.322 25.9801C98.4612 25.6051 98.5308 25.1989 98.5308 24.7614C98.5308 24.3239 98.4612 23.9162 98.322 23.5384C98.1828 23.1605 97.9683 22.8551 97.6786 22.6222C97.3888 22.3892 97.0195 22.2727 96.5706 22.2727C96.1217 22.2727 95.7524 22.3892 95.4626 22.6222C95.1729 22.8551 94.9584 23.1605 94.8192 23.5384C94.68 23.9162 94.6104 24.3239 94.6104 24.7614C94.6104 25.1989 94.68 25.6051 94.8192 25.9801C94.9584 26.3551 95.1729 26.6577 95.4626 26.8878C95.7524 27.1179 96.1217 27.233 96.5706 27.233ZM101.312 28L101.312 21.4545L103.988 21.4545C104.692 21.4545 105.252 21.6136 105.667 21.9318C106.082 22.25 106.289 22.6705 106.289 23.1932C106.289 23.5909 106.171 23.8992 105.935 24.1179C105.699 24.3338 105.397 24.4801 105.028 24.5568C105.269 24.5909 105.503 24.6761 105.731 24.8125C105.961 24.9489 106.151 25.1364 106.302 25.375C106.452 25.6108 106.528 25.9006 106.528 26.2443C106.528 26.5795 106.442 26.8793 106.272 27.1435C106.101 27.4077 105.857 27.6165 105.539 27.7699C105.221 27.9233 104.84 28 104.397 28L101.312 28ZM102.266 27.0795L104.397 27.0795C104.743 27.0795 105.015 26.9972 105.211 26.8324C105.407 26.6676 105.505 26.4432 105.505 26.1591C105.505 25.821 105.407 25.5554 105.211 25.3622C105.015 25.1662 104.743 25.0682 104.397 25.0682L102.266 25.0682L102.266 27.0795ZM102.266 24.1989L103.988 24.1989C104.258 24.1989 104.489 24.1619 104.682 24.0881C104.876 24.0114 105.023 23.9034 105.126 23.7642C105.231 23.6222 105.283 23.4545 105.283 23.2614C105.283 22.9858 105.168 22.7699 104.938 22.6136C104.708 22.4545 104.391 22.375 103.988 22.375L102.266 22.375L102.266 24.1989ZM24.3058 48.1136L24.3058 45.0625L24.8683 45.0625C25.0615 44.8864 25.2433 44.6378 25.4138 44.3168C25.5871 43.9929 25.7334 43.5611 25.8527 43.0213C25.9749 42.4787 26.0558 41.7898 26.0956 40.9545L26.2831 37.2727L31.4649 37.2727L31.4649 45.0625L32.4706 45.0625L32.4706 48.0966L31.4649 48.0966L31.4649 46L25.3115 46L25.3115 48.1136L24.3058 48.1136ZM26.1297 45.0625L30.4592 45.0625L30.4592 38.2102L27.2377 38.2102L27.1013 40.9545C27.0672 41.5909 27.0075 42.1676 26.9223 42.6847C26.8371 43.1989 26.7277 43.6548 26.5942 44.0526C26.4607 44.4474 26.3058 44.7841 26.1297 45.0625ZM37.7507 44.6364L40.0348 39.4545L40.9894 39.4545L38.1598 46L37.3416 46L34.5632 39.4545L35.5007 39.4545L37.7507 44.6364ZM35.1769 39.4545L35.1769 46L34.1712 46L34.1712 39.4545L35.1769 39.4545ZM40.3246 46L40.3246 39.4545L41.3303 39.4545L41.3303 46L40.3246 46ZM44.4169 44.517L47.5703 39.4545L48.7294 39.4545L48.7294 46L47.7237 46L47.7237 40.9375L44.5873 46L43.4112 46L43.4112 39.4545L44.4169 39.4545L44.4169 44.517ZM49.9207 40.392L49.9207 39.4545L55.2389 39.4545L55.2389 40.392L53.0912 40.392L53.0912 46L52.0855 46L52.0855 40.392L49.9207 40.392ZM56.9459 48.4545L56.9459 39.4545L57.9175 39.4545L57.9175 40.4943L58.0368 40.4943C58.1107 40.3807 58.2129 40.2358 58.3436 40.0597C58.4771 39.8807 58.6675 39.7216 58.9146 39.5824C59.1646 39.4403 59.5027 39.3693 59.9288 39.3693C60.48 39.3693 60.9658 39.5071 61.3862 39.7827C61.8067 40.0582 62.1348 40.4489 62.3706 40.9545C62.6064 41.4602 62.7243 42.0568 62.7243 42.7443C62.7243 43.4375 62.6064 44.0384 62.3706 44.5469C62.1348 45.0526 61.8081 45.4446 61.3905 45.723C60.9729 45.9986 60.4913 46.1364 59.9459 46.1364C59.5254 46.1364 59.1888 46.0668 58.9359 45.9276C58.6831 45.7855 58.4885 45.625 58.3521 45.446C58.2158 45.2642 58.1107 45.1136 58.0368 44.9943L57.9516 44.9943L57.9516 48.4545L56.9459 48.4545ZM57.9345 42.7273C57.9345 43.2216 58.007 43.6577 58.1518 44.0355C58.2967 44.4105 58.5084 44.7045 58.7868 44.9176C59.0652 45.1278 59.4061 45.233 59.8095 45.233C60.23 45.233 60.5808 45.1222 60.8621 44.9006C61.1462 44.6761 61.3592 44.375 61.5013 43.9972C61.6462 43.6165 61.7186 43.1932 61.7186 42.7273C61.7186 42.267 61.6476 41.8523 61.5055 41.483C61.3663 41.1108 61.1547 40.8168 60.8706 40.6009C60.5893 40.3821 60.2357 40.2727 59.8095 40.2727C59.4004 40.2727 59.0567 40.3764 58.7783 40.5838C58.4999 40.7884 58.2896 41.0753 58.1476 41.4446C58.0055 41.8111 57.9345 42.2386 57.9345 42.7273ZM65.5041 44.517L68.6575 39.4545L69.8166 39.4545L69.8166 46L68.8109 46L68.8109 40.9375L65.6745 46L64.4984 46L64.4984 39.4545L65.5041 39.4545L65.5041 44.517ZM72.9042 44.517L76.0576 39.4545L77.2167 39.4545L77.2167 46L76.211 46L76.211 40.9375L73.0747 46L71.8985 46L71.8985 39.4545L72.9042 39.4545L72.9042 44.517ZM75.3929 37.2727L76.3304 37.2727C76.3304 37.733 76.1713 38.1094 75.8531 38.402C75.5349 38.6946 75.1031 38.8409 74.5576 38.8409C74.0207 38.8409 73.5931 38.6946 73.275 38.402C72.9596 38.1094 72.8019 37.733 72.8019 37.2727L73.7394 37.2727C73.7394 37.4943 73.8005 37.6889 73.9227 37.8565C74.0477 38.0242 74.2593 38.108 74.5576 38.108C74.8559 38.108 75.069 38.0242 75.1968 37.8565C75.3275 37.6889 75.3929 37.4943 75.3929 37.2727Z" fill="#2B4554"/>
<path d="M23.999 58H131.999" stroke="#2B4554" stroke-width="1.4" stroke-linecap="round"/>
<path d="M29.2689 74.7273L29.2689 75.5085L25.7604 75.5085L25.7604 82L24.8797 82L24.8797 74.7273L29.2689 74.7273ZM29.9516 84.0455L29.9516 76.5455L30.7613 76.5455L30.7613 77.4119L30.8607 77.4119C30.9223 77.3172 31.0075 77.1965 31.1164 77.0497C31.2277 76.9006 31.3863 76.768 31.5922 76.652C31.8006 76.5336 32.0823 76.4744 32.4374 76.4744C32.8967 76.4744 33.3015 76.5893 33.6519 76.8189C34.0023 77.0485 34.2757 77.3741 34.4722 77.7955C34.6687 78.2169 34.767 78.714 34.767 79.2869C34.767 79.8646 34.6687 80.3653 34.4722 80.7891C34.2757 81.2105 34.0035 81.5372 33.6555 81.7692C33.3074 81.9988 32.9062 82.1136 32.4516 82.1136C32.1012 82.1136 31.8207 82.0556 31.61 81.9396C31.3993 81.8213 31.2371 81.6875 31.1235 81.5384C31.0099 81.3868 30.9223 81.2614 30.8607 81.1619L30.7897 81.1619L30.7897 84.0455L29.9516 84.0455ZM30.7755 79.2727C30.7755 79.6847 30.8358 80.0481 30.9566 80.3629C31.0773 80.6754 31.2537 80.9205 31.4857 81.098C31.7177 81.2732 32.0018 81.3608 32.338 81.3608C32.6884 81.3608 32.9807 81.2685 33.2151 81.0838C33.4519 80.8968 33.6294 80.6458 33.7478 80.331C33.8685 80.0137 33.9289 79.661 33.9289 79.2727C33.9289 78.8892 33.8697 78.5436 33.7513 78.2358C33.6353 77.9257 33.459 77.6806 33.2222 77.5007C32.9878 77.3184 32.6931 77.2273 32.338 77.2273C31.9971 77.2273 31.7106 77.3137 31.4786 77.4865C31.2466 77.657 31.0714 77.8961 30.953 78.2038C30.8347 78.5092 30.7755 78.8655 30.7755 79.2727ZM37.6505 82.1278C37.3048 82.1278 36.9912 82.0627 36.7094 81.9325C36.4277 81.8 36.204 81.6094 36.0383 81.3608C35.8725 81.1098 35.7897 80.8068 35.7897 80.4517C35.7897 80.1392 35.8512 79.8859 35.9743 79.6918C36.0974 79.4953 36.262 79.3414 36.468 79.2301C36.6739 79.1188 36.9012 79.036 37.1498 78.9815C37.4007 78.9247 37.6528 78.8797 37.9062 78.8466C38.2376 78.804 38.5063 78.772 38.7123 78.7507C38.9206 78.727 39.0721 78.688 39.1668 78.6335C39.2639 78.5791 39.3124 78.4844 39.3124 78.3494L39.3124 78.321C39.3124 77.9706 39.2165 77.6984 39.0248 77.5043C38.8354 77.3101 38.5477 77.2131 38.1618 77.2131C37.7617 77.2131 37.4481 77.3007 37.2208 77.4759C36.9935 77.651 36.8337 77.8381 36.7414 78.0369L35.9459 77.7528C36.088 77.4214 36.2774 77.1634 36.5141 76.9787C36.7532 76.7917 37.0136 76.6615 37.2954 76.5881C37.5795 76.5123 37.8588 76.4744 38.1334 76.4744C38.3086 76.4744 38.5099 76.4957 38.7371 76.5384C38.9668 76.5786 39.1881 76.6626 39.4012 76.7905C39.6166 76.9183 39.7954 77.1113 39.9374 77.3693C40.0795 77.6274 40.1505 77.973 40.1505 78.4063L40.1505 82L39.3124 82L39.3124 81.2614L39.2698 81.2614C39.213 81.3797 39.1183 81.5064 38.9857 81.6413C38.8531 81.7763 38.6768 81.8911 38.4566 81.9858C38.2364 82.0805 37.9677 82.1278 37.6505 82.1278ZM37.7783 81.375C38.1098 81.375 38.3891 81.3099 38.6164 81.1797C38.846 81.0495 39.0189 80.8814 39.1349 80.6754C39.2532 80.4695 39.3124 80.2528 39.3124 80.0256L39.3124 79.2585C39.2769 79.3011 39.1988 79.3402 39.078 79.3757C38.9597 79.4089 38.8224 79.4384 38.6661 79.4645C38.5122 79.4882 38.3619 79.5095 38.2151 79.5284C38.0707 79.545 37.9535 79.5592 37.8635 79.571C37.6457 79.5994 37.4421 79.6456 37.2528 79.7095C37.0657 79.7711 36.9142 79.8646 36.7982 79.9901C36.6846 80.1132 36.6278 80.2813 36.6278 80.4943C36.6278 80.7855 36.7355 81.0057 36.9509 81.1548C37.1687 81.3016 37.4445 81.375 37.7783 81.375ZM43.896 83.8608L43.896 74.7273L44.7341 74.7273L44.7341 83.8608L43.896 83.8608ZM43.896 82.1136C43.5267 82.1136 43.1905 82.0473 42.8875 81.9148C42.5845 81.7798 42.3241 81.5893 42.1063 81.343C41.8885 81.0945 41.7204 80.7973 41.602 80.4517C41.4836 80.1061 41.4244 79.7225 41.4244 79.3011C41.4244 78.875 41.4836 78.4891 41.602 78.1435C41.7204 77.7955 41.8885 77.4972 42.1063 77.2486C42.3241 77 42.5845 76.8094 42.8875 76.6768C43.1905 76.5419 43.5267 76.4744 43.896 76.4744L44.1517 76.4744L44.1517 82.1136L43.896 82.1136ZM43.896 81.3608L44.0381 81.3608L44.0381 77.2273L43.896 77.2273C43.6167 77.2273 43.374 77.2841 43.1681 77.3977C42.9621 77.509 42.7916 77.6617 42.6567 77.8558C42.5241 78.0476 42.4247 78.2678 42.3584 78.5163C42.2945 78.7649 42.2625 79.0265 42.2625 79.3011C42.2625 79.6657 42.3205 80.0043 42.4365 80.3168C42.5525 80.6293 42.7313 80.8814 42.9727 81.0732C43.2142 81.2649 43.522 81.3608 43.896 81.3608ZM44.7341 82.1136L44.4784 82.1136L44.4784 76.4744L44.7341 76.4744C45.1034 76.4744 45.4396 76.5419 45.7426 76.6768C46.0457 76.8094 46.3061 77 46.5239 77.2486C46.7417 77.4972 46.9098 77.7955 47.0281 78.1435C47.1465 78.4891 47.2057 78.875 47.2057 79.3011C47.2057 79.7225 47.1465 80.1061 47.0281 80.4517C46.9098 80.7973 46.7417 81.0945 46.5239 81.343C46.3061 81.5893 46.0457 81.7798 45.7426 81.9148C45.4396 82.0473 45.1034 82.1136 44.7341 82.1136ZM44.7341 81.3608C45.0158 81.3608 45.2585 81.3063 45.4621 81.1974C45.6681 81.0862 45.8373 80.9347 45.9699 80.7429C46.1048 80.5488 46.2043 80.3286 46.2682 80.0824C46.3345 79.8338 46.3676 79.5734 46.3676 79.3011C46.3676 78.9366 46.3096 78.5968 46.1936 78.282C46.0776 77.9671 45.8989 77.7126 45.6574 77.5185C45.4159 77.3243 45.1082 77.2273 44.7341 77.2273L44.5921 77.2273L44.5921 81.3608L44.7341 81.3608ZM49.3248 80.7642L51.9527 76.5455L52.9186 76.5455L52.9186 82L52.0805 82L52.0805 77.7813L49.4669 82L48.4868 82L48.4868 76.5455L49.3248 76.5455L49.3248 80.7642ZM58.6581 76.5455L58.6581 82L57.82 82L57.82 76.5455L58.6581 76.5455ZM58.3314 79.1449L58.3314 79.9261C58.142 79.9972 57.9538 80.0599 57.7668 80.1143C57.5798 80.1664 57.3833 80.2079 57.1773 80.2386C56.9713 80.267 56.7452 80.2813 56.499 80.2813C55.8811 80.2813 55.3851 80.1143 55.0111 79.7805C54.6394 79.4467 54.4536 78.946 54.4536 78.2784L54.4536 76.5313L55.2916 76.5313L55.2916 78.2784C55.2916 78.5578 55.3449 78.7874 55.4514 78.9673C55.558 79.1473 55.7024 79.281 55.8847 79.3686C56.067 79.4562 56.2718 79.5 56.499 79.5C56.8541 79.5 57.1749 79.468 57.4614 79.4041C57.7502 79.3378 58.0402 79.2514 58.3314 79.1449ZM62.4827 82.1136C61.9571 82.1136 61.5038 81.9976 61.1226 81.7656C60.7438 81.5313 60.4514 81.2045 60.2455 80.7855C60.0419 80.3641 59.9401 79.8741 59.9401 79.3153C59.9401 78.7566 60.0419 78.2642 60.2455 77.8381C60.4514 77.4096 60.7379 77.0758 61.1048 76.8366C61.4742 76.5952 61.905 76.4744 62.3975 76.4744C62.6816 76.4744 62.9621 76.5218 63.2391 76.6165C63.5161 76.7112 63.7682 76.8651 63.9955 77.0781C64.2227 77.2888 64.4039 77.5682 64.5388 77.9162C64.6737 78.2642 64.7412 78.6927 64.7412 79.2017L64.7412 79.5568L60.5367 79.5568L60.5367 78.8324L63.8889 78.8324C63.8889 78.5246 63.8274 78.25 63.7043 78.0085C63.5835 77.767 63.4107 77.5765 63.1858 77.4368C62.9633 77.2971 62.7005 77.2273 62.3975 77.2273C62.0637 77.2273 61.7748 77.3101 61.531 77.4759C61.2895 77.6392 61.1037 77.8523 60.9735 78.1151C60.8432 78.3778 60.7781 78.6596 60.7781 78.9602L60.7781 79.4432C60.7781 79.8551 60.8492 80.2043 60.9912 80.4908C61.1356 80.7749 61.3357 80.9915 61.5914 81.1406C61.847 81.2874 62.1441 81.3608 62.4827 81.3608C62.7029 81.3608 62.9017 81.33 63.0793 81.2685C63.2592 81.2045 63.4143 81.1099 63.5445 80.9844C63.6747 80.8565 63.7753 80.6979 63.8463 80.5085L64.656 80.7358C64.5708 81.0104 64.4275 81.2519 64.2263 81.4602C64.0251 81.6662 63.7765 81.8272 63.4806 81.9432C63.1846 82.0568 62.852 82.1136 62.4827 82.1136ZM68.232 82.1136C67.7206 82.1136 67.2803 81.9929 66.911 81.7514C66.5416 81.5099 66.2575 81.1773 66.0587 80.7536C65.8598 80.3298 65.7604 79.8456 65.7604 79.3011C65.7604 78.7472 65.8622 78.2583 66.0658 77.8345C66.2718 77.4084 66.5582 77.0758 66.9252 76.8366C67.2945 76.5952 67.7253 76.4744 68.2178 76.4744C68.6013 76.4744 68.9469 76.5455 69.2547 76.6875C69.5625 76.8295 69.8146 77.0284 70.0111 77.2841C70.2076 77.5398 70.3295 77.8381 70.3769 78.179L69.5388 78.179C69.4749 77.9304 69.3328 77.7102 69.1127 77.5185C68.8949 77.3243 68.6013 77.2273 68.232 77.2273C67.9053 77.2273 67.6188 77.3125 67.3726 77.483C67.1288 77.651 66.9382 77.889 66.8009 78.1967C66.6659 78.5021 66.5985 78.8608 66.5985 79.2727C66.5985 79.6941 66.6647 80.0611 66.7973 80.3736C66.9323 80.6861 67.1217 80.9287 67.3655 81.1016C67.6117 81.2744 67.9005 81.3608 68.232 81.3608C68.4498 81.3608 68.6475 81.3229 68.825 81.2472C69.0026 81.1714 69.1529 81.0625 69.276 80.9205C69.3991 80.7784 69.4867 80.608 69.5388 80.4091L70.3769 80.4091C70.3295 80.7311 70.2123 81.0211 70.0253 81.2791C69.8406 81.5348 69.5956 81.7384 69.2902 81.8899C68.9872 82.0391 68.6344 82.1136 68.232 82.1136ZM71.602 82L71.602 76.5455L72.4401 76.5455L72.4401 78.9176L72.9941 78.9176L74.9543 76.5455L76.0338 76.5455L73.8321 79.1733L76.0622 82L74.9827 82L73.1929 79.6989L72.4401 79.6989L72.4401 82L71.602 82ZM77.8112 80.7642L80.439 76.5455L81.4049 76.5455L81.4049 82L80.5668 82L80.5668 77.7813L77.9532 82L76.9731 82L76.9731 76.5455L77.8112 76.5455L77.8112 80.7642ZM83.778 80.7642L86.4058 76.5455L87.3717 76.5455L87.3717 82L86.5336 82L86.5336 77.7813L83.92 82L82.9399 82L82.9399 76.5455L83.778 76.5455L83.778 80.7642ZM85.8518 74.7273L86.6331 74.7273C86.6331 75.1108 86.5005 75.4245 86.2354 75.6683C85.9702 75.9122 85.6104 76.0341 85.1558 76.0341C84.7084 76.0341 84.3521 75.9122 84.0869 75.6683C83.8241 75.4245 83.6927 75.1108 83.6927 74.7273L84.474 74.7273C84.474 74.9119 84.5249 75.0741 84.6267 75.2138C84.7309 75.3535 84.9072 75.4233 85.1558 75.4233C85.4044 75.4233 85.5819 75.3535 85.6885 75.2138C85.7974 75.0741 85.8518 74.9119 85.8518 74.7273ZM91.1368 83.5625L91.1368 81.2188L91.5914 81.2188C91.7026 81.1027 91.7985 80.9773 91.879 80.8423C91.9595 80.7074 92.0293 80.5476 92.0885 80.3629C92.1501 80.1759 92.2021 79.9486 92.2448 79.6811C92.2874 79.4112 92.3253 79.0857 92.3584 78.7045L92.5431 76.5455L96.009 76.5455L96.009 81.2188L96.847 81.2188L96.847 83.5625L96.009 83.5625L96.009 82L91.9749 82L91.9749 83.5625L91.1368 83.5625ZM92.5431 81.2188L95.1709 81.2188L95.1709 77.3267L93.3243 77.3267L93.1823 78.7045C93.1231 79.2751 93.0497 79.7734 92.9621 80.1996C92.8745 80.6257 92.7348 80.9654 92.5431 81.2188ZM98.7975 80.7642L101.425 76.5455L102.391 76.5455L102.391 82L101.553 82L101.553 77.7813L98.9395 82L97.9594 82L97.9594 76.5455L98.7975 76.5455L98.7975 80.7642ZM103.585 80.608L104.48 80.608C104.499 80.8542 104.61 81.0412 104.814 81.169C105.02 81.2969 105.287 81.3608 105.617 81.3608C105.953 81.3608 106.24 81.2921 106.479 81.1548C106.719 81.0152 106.838 80.7903 106.838 80.4801C106.838 80.2978 106.793 80.1392 106.703 80.0043C106.613 79.867 106.487 79.7604 106.323 79.6847C106.16 79.6089 105.967 79.571 105.744 79.571L104.807 79.571L104.807 78.8182L105.744 78.8182C106.078 78.8182 106.324 78.7424 106.483 78.5909C106.644 78.4394 106.725 78.25 106.725 78.0227C106.725 77.7789 106.638 77.5836 106.465 77.4368C106.292 77.2876 106.047 77.2131 105.73 77.2131C105.411 77.2131 105.144 77.2853 104.931 77.4297C104.718 77.5717 104.606 77.7552 104.594 77.9801L103.713 77.9801C103.723 77.6866 103.813 77.4273 103.983 77.2024C104.153 76.9751 104.386 76.7976 104.679 76.6697C104.973 76.5395 105.309 76.4744 105.688 76.4744C106.071 76.4744 106.404 76.5419 106.685 76.6769C106.97 76.8094 107.189 76.9905 107.342 77.2202C107.499 77.4474 107.577 77.7055 107.577 77.9943C107.577 78.3021 107.49 78.5507 107.318 78.7401C107.145 78.9295 106.928 79.0644 106.668 79.1449L106.668 79.2017C106.874 79.2159 107.052 79.2822 107.204 79.4006C107.358 79.5166 107.477 79.6693 107.563 79.8587C107.648 80.0457 107.69 80.2528 107.69 80.4801C107.69 80.8116 107.602 81.1004 107.424 81.3466C107.247 81.5904 107.003 81.7798 106.693 81.9148C106.382 82.0474 106.028 82.1136 105.631 82.1136C105.245 82.1136 104.899 82.0509 104.594 81.9254C104.288 81.7976 104.046 81.6212 103.866 81.3963C103.688 81.169 103.595 80.9063 103.585 80.608ZM110.473 82.1278C110.127 82.1278 109.813 82.0627 109.532 81.9325C109.25 81.8 109.026 81.6094 108.861 81.3608C108.695 81.1099 108.612 80.8068 108.612 80.4517C108.612 80.1392 108.674 79.8859 108.797 79.6918C108.92 79.4953 109.084 79.3414 109.29 79.2301C109.496 79.1188 109.723 79.036 109.972 78.9815C110.223 78.9247 110.475 78.8797 110.728 78.8466C111.06 78.804 111.329 78.772 111.535 78.7507C111.743 78.727 111.894 78.688 111.989 78.6335C112.086 78.5791 112.135 78.4844 112.135 78.3494L112.135 78.321C112.135 77.9706 112.039 77.6984 111.847 77.5043C111.658 77.3101 111.37 77.2131 110.984 77.2131C110.584 77.2131 110.27 77.3007 110.043 77.4759C109.816 77.651 109.656 77.8381 109.564 78.0369L108.768 77.7528C108.91 77.4214 109.1 77.1634 109.336 76.9787C109.575 76.7917 109.836 76.6615 110.118 76.5881C110.402 76.5123 110.681 76.4744 110.956 76.4744C111.131 76.4744 111.332 76.4957 111.559 76.5384C111.789 76.5786 112.01 76.6626 112.223 76.7905C112.439 76.9183 112.618 77.1113 112.76 77.3693C112.902 77.6274 112.973 77.973 112.973 78.4063L112.973 82L112.135 82L112.135 81.2614L112.092 81.2614C112.035 81.3797 111.941 81.5064 111.808 81.6413C111.675 81.7763 111.499 81.8911 111.279 81.9858C111.059 82.0805 110.79 82.1278 110.473 82.1278ZM110.601 81.375C110.932 81.375 111.211 81.3099 111.439 81.1797C111.668 81.0495 111.841 80.8814 111.957 80.6754C112.075 80.4695 112.135 80.2528 112.135 80.0256L112.135 79.2585C112.099 79.3011 112.021 79.3402 111.9 79.3757C111.782 79.4089 111.645 79.4385 111.488 79.4645C111.334 79.4882 111.184 79.5095 111.037 79.5284C110.893 79.545 110.776 79.5592 110.686 79.571C110.468 79.5994 110.264 79.6456 110.075 79.7095C109.888 79.7711 109.736 79.8646 109.62 79.9901C109.507 80.1132 109.45 80.2813 109.45 80.4943C109.45 80.7855 109.558 81.0057 109.773 81.1548C109.991 81.3016 110.267 81.375 110.601 81.375ZM115.34 80.7642L117.968 76.5455L118.934 76.5455L118.934 82L118.096 82L118.096 77.7813L115.483 82L114.502 82L114.502 76.5455L115.34 76.5455L115.34 80.7642ZM117.414 74.7273L118.196 74.7273C118.196 75.1108 118.063 75.4245 117.798 75.6683C117.533 75.9122 117.173 76.0341 116.718 76.0341C116.271 76.0341 115.915 75.9122 115.649 75.6683C115.387 75.4245 115.255 75.1108 115.255 74.7273L116.036 74.7273C116.036 74.9119 116.087 75.0741 116.189 75.2138C116.293 75.3535 116.47 75.4233 116.718 75.4233C116.967 75.4233 117.144 75.3535 117.251 75.2138C117.36 75.0741 117.414 74.9119 117.414 74.7273ZM124.12 78.8892L124.12 79.6705L121.108 79.6705L121.108 78.8892L124.12 78.8892ZM121.307 76.5455L121.307 82L120.469 82L120.469 76.5455L121.307 76.5455ZM124.759 76.5455L124.759 82L123.921 82L123.921 76.5455L124.759 76.5455ZM128.576 82.1136C128.051 82.1136 127.598 81.9976 127.216 81.7656C126.838 81.5313 126.545 81.2046 126.339 80.7855C126.136 80.3641 126.034 79.8741 126.034 79.3153C126.034 78.7566 126.136 78.2642 126.339 77.8381C126.545 77.4096 126.832 77.0758 127.199 76.8367C127.568 76.5952 127.999 76.4744 128.491 76.4744C128.775 76.4744 129.056 76.5218 129.333 76.6165C129.61 76.7112 129.862 76.8651 130.089 77.0781C130.316 77.2888 130.498 77.5682 130.633 77.9162C130.767 78.2642 130.835 78.6927 130.835 79.2017L130.835 79.5568L126.63 79.5568L126.63 78.8324L129.983 78.8324C129.983 78.5246 129.921 78.25 129.798 78.0085C129.677 77.7671 129.504 77.5765 129.28 77.4368C129.057 77.2971 128.794 77.2273 128.491 77.2273C128.157 77.2273 127.869 77.3101 127.625 77.4759C127.383 77.6392 127.197 77.8523 127.067 78.1151C126.937 78.3778 126.872 78.6596 126.872 78.9602L126.872 79.4432C126.872 79.8551 126.943 80.2043 127.085 80.4908C127.229 80.7749 127.429 80.9915 127.685 81.1406C127.941 81.2874 128.238 81.3608 128.576 81.3608C128.797 81.3608 128.995 81.33 129.173 81.2685C129.353 81.2046 129.508 81.1099 129.638 80.9844C129.768 80.8565 129.869 80.6979 129.94 80.5085L130.75 80.7358C130.665 81.0104 130.521 81.2519 130.32 81.4602C130.119 81.6662 129.87 81.8272 129.574 81.9432C129.278 82.0568 128.946 82.1136 128.576 82.1136ZM132.11 84.0455L132.11 76.5455L132.919 76.5455L132.919 77.4119L133.019 77.4119C133.08 77.3172 133.166 77.1965 133.275 77.0497C133.386 76.9006 133.544 76.768 133.75 76.652C133.959 76.5336 134.241 76.4744 134.596 76.4744C135.055 76.4744 135.46 76.5893 135.81 76.8189C136.16 77.0485 136.434 77.3741 136.63 77.7955C136.827 78.2169 136.925 78.714 136.925 79.2869C136.925 79.8646 136.827 80.3653 136.63 80.7891C136.434 81.2105 136.162 81.5372 135.814 81.7692C135.466 81.9988 135.064 82.1136 134.61 82.1136C134.259 82.1136 133.979 82.0556 133.768 81.9396C133.557 81.8213 133.395 81.6875 133.282 81.5384C133.168 81.3868 133.08 81.2614 133.019 81.1619L132.948 81.1619L132.948 84.0455L132.11 84.0455ZM132.934 79.2727C132.934 79.6847 132.994 80.0481 133.115 80.3629C133.236 80.6754 133.412 80.9205 133.644 81.098C133.876 81.2732 134.16 81.3608 134.496 81.3608C134.847 81.3608 135.139 81.2685 135.373 81.0838C135.61 80.8968 135.788 80.6458 135.906 80.331C136.027 80.0137 136.087 79.661 136.087 79.2727C136.087 78.8892 136.028 78.5436 135.91 78.2358C135.794 77.9257 135.617 77.6806 135.38 77.5007C135.146 77.3184 134.851 77.2273 134.496 77.2273C134.155 77.2273 133.869 77.3137 133.637 77.4865C133.405 77.657 133.23 77.8961 133.111 78.2038C132.993 78.5092 132.934 78.8655 132.934 79.2727Z" fill="#2B4554"/>
</g>
<defs>
<clipPath id="clip0_1291_3852">
<rect width="108" height="162" fill="white" transform="translate(0 108) rotate(-90)"/>
</clipPath>
</defs>
</svg>
