<svg width="162" height="108" viewBox="0 0 162 108" fill="none" xmlns="http://www.w3.org/2000/svg">
<g clip-path="url(#clip0_1291_3709)">
<path d="M160.854 10.051L160.854 97.949C160.854 102.858 156.849 106.854 151.922 106.854L10.0777 106.854C5.1506 106.854 1.14629 102.858 1.14629 97.949L1.14628 10.051C1.14628 5.1423 5.1506 1.14629 10.0777 1.14629L151.922 1.14628C156.849 1.14628 160.854 5.14229 160.854 10.051Z" fill="white" stroke="#2B4554" stroke-width="1.4"/>
<path d="M154.859 13.8214L154.859 94.6849C154.859 98.1222 152.117 100.86 148.675 100.86L12.8766 100.86C9.435 100.86 6.69336 98.1222 6.69336 94.6849L6.69336 13.7631C6.69336 10.3258 9.435 7.58763 12.8766 7.58763L148.617 7.58763C152.059 7.64589 154.859 10.3841 154.859 13.8214Z" stroke="#2B4554" stroke-width="0.6" stroke-miterlimit="10"/>
<path d="M23.9999 74.5716L23.9999 105.429L16.857 105.429C8.96227 105.429 2.57129 98.8833 2.57129 90.7977L2.57129 74.5716L23.9999 74.5716Z" fill="white"/>
<path d="M137.9 33.0254L137.9 2.232L145.19 2.232C153.246 2.232 159.768 8.76394 159.768 16.8328L159.768 33.0254L137.9 33.0254Z" fill="white"/>
<path d="M6.66602 92.1942C9.52632 92.1942 12.3866 92.1942 15.2469 92.1942C15.2469 92.2525 15.2469 92.2525 15.2469 92.3108C15.2469 93.9429 15.2469 95.575 15.2469 97.2071C15.2469 98.8975 14.0211 100.413 12.3282 100.704C12.1531 100.704 12.0364 100.763 11.8613 100.763C11.2775 100.763 10.6938 100.763 10.1684 100.763C8.59234 100.763 7.19138 99.5969 6.84114 98.0231C6.78276 97.79 6.78276 97.4985 6.72439 97.2654C6.72439 95.6333 6.72439 94.0012 6.72439 92.3691C6.66602 92.2525 6.66602 92.2525 6.66602 92.1942ZM9.3512 94.8172C9.3512 94.8755 9.3512 94.8755 9.3512 94.8755C9.3512 95.6333 9.3512 96.391 9.3512 97.1488C9.3512 97.6734 9.75981 98.0231 10.2268 98.0231C10.6938 98.0231 11.1608 98.0231 11.6278 98.0231C12.1531 98.0231 12.5617 97.6151 12.5617 97.0905C12.5617 96.3327 12.5617 95.6333 12.5617 94.8755C12.5617 94.8172 12.5617 94.8172 12.5617 94.7589C11.511 94.8172 10.4019 94.8172 9.3512 94.8172Z" fill="#4C7B96"/>
<path d="M6.66602 90.5625C6.66602 90.5042 6.66602 90.5042 6.66602 90.4459C6.66602 88.8138 6.66602 87.1235 6.66602 85.4914C6.66602 84.0342 7.54162 82.7518 8.88421 82.2272C9.29282 82.0523 9.75981 81.994 10.1684 81.994C10.6938 81.994 11.2191 81.994 11.7445 81.994C13.4373 81.994 14.8967 83.1598 15.1885 84.8502C15.2469 85.0834 15.2469 85.3748 15.2469 85.6079C15.2469 86.3657 15.2469 87.0652 15.2469 87.8229C15.2469 87.8812 15.2469 87.8812 15.2469 87.9395C16.356 87.9395 17.4651 87.9395 18.5742 87.9395C18.5742 88.8138 18.5742 89.6882 18.5742 90.5625C14.6632 90.5625 10.6938 90.5625 6.66602 90.5625ZM12.6785 87.9395L12.6785 87.8812C12.6785 87.0652 12.6785 86.3074 12.6785 85.4914C12.6785 84.9668 12.2699 84.617 11.8029 84.617C11.2775 84.617 10.8105 84.617 10.2852 84.617C9.81818 84.617 9.3512 84.9668 9.3512 85.5497C9.3512 86.3074 9.3512 87.0652 9.3512 87.8229C9.3512 87.8812 9.3512 87.8812 9.3512 87.9395C10.4603 87.9395 11.5694 87.9395 12.6785 87.9395Z" fill="#4C7B96"/>
<path d="M154.934 15.9512C152.074 15.9512 149.214 15.9512 146.354 15.9512C146.354 15.8929 146.354 15.8929 146.354 15.8346C146.354 14.2025 146.354 12.5704 146.354 10.9383C146.354 9.24795 147.579 7.73244 149.272 7.441C149.447 7.441 149.564 7.38271 149.739 7.38271C150.323 7.38271 150.907 7.38271 151.432 7.38271C153.008 7.38271 154.409 8.54849 154.759 10.1223C154.818 10.3554 154.818 10.6469 154.876 10.88C154.876 12.5121 154.876 14.1442 154.876 15.7763C154.934 15.8929 154.934 15.8929 154.934 15.9512ZM152.249 13.3282C152.249 13.2699 152.249 13.2699 152.249 13.2699C152.249 12.5121 152.249 11.7544 152.249 10.9966C152.249 10.472 151.841 10.1223 151.374 10.1223C150.907 10.1223 150.44 10.1223 149.973 10.1223C149.447 10.1223 149.039 10.5303 149.039 11.0549C149.039 11.8127 149.039 12.5121 149.039 13.2699C149.039 13.3282 149.039 13.3282 149.039 13.3865C150.089 13.3282 151.199 13.3282 152.249 13.3282Z" fill="#4C7B96"/>
<path d="M154.935 17.5829C154.935 17.6412 154.935 17.6412 154.935 17.6995C154.935 19.3316 154.935 21.022 154.935 22.654C154.935 24.1113 154.059 25.3936 152.716 25.9182C152.308 26.0931 151.841 26.1514 151.432 26.1514C150.907 26.1514 150.381 26.1514 149.856 26.1514C148.163 26.1514 146.704 24.9856 146.412 23.2952C146.354 23.0621 146.354 22.7706 146.354 22.5375C146.354 21.7797 146.354 21.0802 146.354 20.3225C146.354 20.2642 146.354 20.2642 146.354 20.2059C145.245 20.2059 144.135 20.2059 143.026 20.2059C143.026 19.3316 143.026 18.4572 143.026 17.5829C146.937 17.5829 150.907 17.5829 154.935 17.5829ZM148.922 20.2059L148.922 20.2642C148.922 21.0802 148.922 21.838 148.922 22.654C148.922 23.1786 149.331 23.5284 149.798 23.5284C150.323 23.5284 150.79 23.5284 151.315 23.5284C151.782 23.5284 152.249 23.1786 152.249 22.5957C152.249 21.838 152.249 21.0802 152.249 20.3225C152.249 20.2642 152.249 20.2642 152.249 20.2059C151.14 20.2059 150.031 20.2059 148.922 20.2059Z" fill="#4C7B96"/>
<path d="M25.5672 19.2727L27.8172 22.9034L27.8854 22.9034L30.1354 19.2727L31.3797 19.2727L28.6354 23.6364L31.3797 28L30.1354 28L27.8854 24.4375L27.8172 24.4375L25.5672 28L24.3229 28L27.1354 23.6364L24.3229 19.2727L25.5672 19.2727ZM35.1779 28.1364C34.587 28.1364 34.0686 27.9957 33.6225 27.7145C33.1794 27.4332 32.8328 27.0398 32.5828 26.5341C32.3356 26.0284 32.212 25.4375 32.212 24.7614C32.212 24.0795 32.3356 23.4844 32.5828 22.9759C32.8328 22.4673 33.1794 22.0724 33.6225 21.7912C34.0686 21.5099 34.587 21.3693 35.1779 21.3693C35.7689 21.3693 36.2859 21.5099 36.7291 21.7912C37.1751 22.0724 37.5217 22.4673 37.7689 22.9759C38.0189 23.4844 38.1439 24.0795 38.1439 24.7614C38.1439 25.4375 38.0189 26.0284 37.7689 26.5341C37.5217 27.0398 37.1751 27.4332 36.7291 27.7145C36.2859 27.9957 35.7689 28.1364 35.1779 28.1364ZM35.1779 27.233C35.6268 27.233 35.9961 27.1179 36.2859 26.8878C36.5757 26.6577 36.7902 26.3551 36.9294 25.9801C37.0686 25.6051 37.1382 25.1989 37.1382 24.7614C37.1382 24.3239 37.0686 23.9162 36.9294 23.5384C36.7902 23.1605 36.5757 22.8551 36.2859 22.6222C35.9961 22.3892 35.6268 22.2727 35.1779 22.2727C34.7291 22.2727 34.3598 22.3892 34.07 22.6222C33.7802 22.8551 33.5657 23.1605 33.4265 23.5384C33.2873 23.9162 33.2177 24.3239 33.2177 24.7614C33.2177 25.1989 33.2873 25.6051 33.4265 25.9801C33.5657 26.3551 33.7802 26.6577 34.07 26.8878C34.3598 27.1179 34.7291 27.233 35.1779 27.233ZM39.3395 28L39.3395 27.0625L39.5781 27.0625C39.7741 27.0625 39.9375 27.0241 40.0682 26.9474C40.1988 26.8679 40.304 26.7301 40.3835 26.5341C40.4659 26.3352 40.5284 26.0597 40.571 25.7074C40.6165 25.3523 40.6491 24.9006 40.669 24.3523L40.7883 21.4545L45.152 21.4545L45.152 28L44.1463 28L44.1463 22.392L41.7429 22.392L41.6406 24.7273C41.6179 25.2642 41.5696 25.7372 41.4957 26.1463C41.4247 26.5526 41.3153 26.8935 41.1676 27.169C41.0227 27.4446 40.8295 27.652 40.588 27.7912C40.3466 27.9304 40.044 28 39.6804 28L39.3395 28ZM49.8962 28.1364C49.3053 28.1364 48.7868 27.9957 48.3408 27.7145C47.8976 27.4332 47.5511 27.0398 47.3011 26.5341C47.0539 26.0284 46.9303 25.4375 46.9303 24.7614C46.9303 24.0795 47.0539 23.4844 47.3011 22.9759C47.5511 22.4673 47.8976 22.0724 48.3408 21.7912C48.7868 21.5099 49.3053 21.3693 49.8962 21.3693C50.4871 21.3693 51.0042 21.5099 51.4474 21.7912C51.8934 22.0724 52.24 22.4673 52.4871 22.9759C52.7371 23.4844 52.8621 24.0795 52.8621 24.7614C52.8621 25.4375 52.7371 26.0284 52.4871 26.5341C52.24 27.0398 51.8934 27.4332 51.4474 27.7145C51.0042 27.9957 50.4871 28.1364 49.8962 28.1364ZM49.8962 27.233C50.3451 27.233 50.7144 27.1179 51.0042 26.8878C51.294 26.6577 51.5084 26.3551 51.6476 25.9801C51.7868 25.6051 51.8565 25.1989 51.8565 24.7614C51.8565 24.3239 51.7868 23.9162 51.6476 23.5384C51.5084 23.1605 51.294 22.8551 51.0042 22.6222C50.7144 22.3892 50.3451 22.2727 49.8962 22.2727C49.4474 22.2727 49.078 22.3892 48.7883 22.6222C48.4985 22.8551 48.284 23.1605 48.1448 23.5384C48.0056 23.9162 47.936 24.3239 47.936 24.7614C47.936 25.1989 48.0056 25.6051 48.1448 25.9801C48.284 26.3551 48.4985 26.6577 48.7883 26.8878C49.078 27.1179 49.4474 27.233 49.8962 27.233ZM53.9384 29.875L53.9384 27.0625L54.4839 27.0625C54.6174 26.9233 54.7325 26.7727 54.8291 26.6108C54.9256 26.4489 55.0094 26.2571 55.0805 26.0355C55.1543 25.8111 55.2168 25.5384 55.268 25.2173C55.3191 24.8935 55.3646 24.5028 55.4043 24.0455L55.6259 21.4545L59.785 21.4545L59.785 27.0625L60.7907 27.0625L60.7907 29.875L59.785 29.875L59.785 28L54.9441 28L54.9441 29.875L53.9384 29.875ZM55.6259 27.0625L58.7793 27.0625L58.7793 22.392L56.5634 22.392L56.393 24.0455C56.3219 24.7301 56.2339 25.3281 56.1288 25.8395C56.0237 26.3509 55.856 26.7585 55.6259 27.0625ZM63.3713 26.517L66.5247 21.4545L67.6838 21.4545L67.6838 28L66.6781 28L66.6781 22.9375L63.5417 28L62.3656 28L62.3656 21.4545L63.3713 21.4545L63.3713 26.517ZM69.1862 28L69.1862 27.0625L69.4248 27.0625C69.6208 27.0625 69.7842 27.0242 69.9149 26.9474C70.0456 26.8679 70.1507 26.7301 70.2302 26.5341C70.3126 26.3352 70.3751 26.0597 70.4177 25.7074C70.4632 25.3523 70.4958 24.9006 70.5157 24.3523L70.635 21.4545L74.9987 21.4545L74.9987 28L73.993 28L73.993 22.392L71.5896 22.392L71.4873 24.7273C71.4646 25.2642 71.4163 25.7372 71.3424 26.1463C71.2714 26.5526 71.162 26.8935 71.0143 27.169C70.8694 27.4446 70.6762 27.652 70.4348 27.7912C70.1933 27.9304 69.8907 28 69.5271 28L69.1862 28ZM79.7429 28.1364C79.152 28.1364 78.6336 27.9957 78.1875 27.7145C77.7444 27.4332 77.3978 27.0398 77.1478 26.5341C76.9006 26.0284 76.777 25.4375 76.777 24.7614C76.777 24.0795 76.9006 23.4844 77.1478 22.9759C77.3978 22.4673 77.7444 22.0724 78.1875 21.7912C78.6336 21.5099 79.152 21.3693 79.7429 21.3693C80.3339 21.3693 80.8509 21.5099 81.2941 21.7912C81.7401 22.0724 82.0867 22.4673 82.3339 22.9759C82.5839 23.4844 82.7089 24.0795 82.7089 24.7614C82.7089 25.4375 82.5839 26.0284 82.3339 26.5341C82.0867 27.0398 81.7401 27.4332 81.2941 27.7145C80.8509 27.9957 80.3339 28.1364 79.7429 28.1364ZM79.7429 27.233C80.1918 27.233 80.5611 27.1179 80.8509 26.8878C81.1407 26.6577 81.3552 26.3551 81.4944 25.9801C81.6336 25.6051 81.7032 25.1989 81.7032 24.7614C81.7032 24.3239 81.6336 23.9162 81.4944 23.5384C81.3552 23.1605 81.1407 22.8551 80.8509 22.6222C80.5611 22.3892 80.1918 22.2727 79.7429 22.2727C79.2941 22.2727 78.9248 22.3892 78.635 22.6222C78.3452 22.8551 78.1307 23.1605 77.9915 23.5384C77.8523 23.9162 77.7827 24.3239 77.7827 24.7614C77.7827 25.1989 77.8523 25.6051 77.9915 25.9801C78.1307 26.3551 78.3452 26.6577 78.635 26.8878C78.9248 27.1179 79.2941 27.233 79.7429 27.233ZM84.484 28L84.484 21.4545L87.1601 21.4545C87.8647 21.4545 88.4243 21.6136 88.8391 21.9318C89.2539 22.25 89.4613 22.6705 89.4613 23.1932C89.4613 23.5909 89.3434 23.8992 89.1076 24.1179C88.8718 24.3338 88.5692 24.4801 88.1999 24.5568C88.4414 24.5909 88.6758 24.6761 88.903 24.8125C89.1332 24.9489 89.3235 25.1364 89.4741 25.375C89.6246 25.6108 89.6999 25.9006 89.6999 26.2443C89.6999 26.5795 89.6147 26.8793 89.4442 27.1435C89.2738 27.4077 89.0295 27.6165 88.7113 27.7699C88.3931 27.9233 88.0124 28 87.5692 28L84.484 28ZM85.4386 27.0795L87.5692 27.0795C87.9158 27.0795 88.1871 26.9972 88.3832 26.8324C88.5792 26.6676 88.6772 26.4432 88.6772 26.1591C88.6772 25.821 88.5792 25.5554 88.3832 25.3622C88.1871 25.1662 87.9158 25.0682 87.5692 25.0682L85.4386 25.0682L85.4386 27.0795ZM85.4386 24.1989L87.1601 24.1989C87.43 24.1989 87.6616 24.1619 87.8547 24.0881C88.0479 24.0114 88.1957 23.9034 88.2979 23.7642C88.403 23.6222 88.4556 23.4545 88.4556 23.2614C88.4556 22.9858 88.3405 22.7699 88.1104 22.6136C87.8803 22.4545 87.5636 22.375 87.1601 22.375L85.4386 22.375L85.4386 24.1989ZM25.0558 46L25.0558 37.2727L26.1127 37.2727L26.1127 41.1591L30.7661 41.1591L30.7661 37.2727L31.8229 37.2727L31.8229 46L30.7661 46L30.7661 42.0966L26.1127 42.0966L26.1127 46L25.0558 46ZM35.048 44.517L38.2014 39.4545L39.3605 39.4545L39.3605 46L38.3548 46L38.3548 40.9375L35.2184 46L34.0423 46L34.0423 39.4545L35.048 39.4545L35.048 44.517ZM41.4424 46L41.4424 39.4545L42.4481 39.4545L42.4481 42.3011L43.1129 42.3011L45.4652 39.4545L46.7606 39.4545L44.1186 42.608L46.7947 46L45.4993 46L43.3515 43.2386L42.4481 43.2386L42.4481 46L41.4424 46ZM49.1334 44.517L52.2868 39.4545L53.4459 39.4545L53.4459 46L52.4403 46L52.4403 40.9375L49.3039 46L48.1278 46L48.1278 39.4545L49.1334 39.4545L49.1334 44.517ZM54.6373 40.392L54.6373 39.4545L59.9555 39.4545L59.9555 40.392L57.8077 40.392L57.8077 46L56.8021 46L56.8021 40.392L54.6373 40.392ZM63.2487 46.1534C62.834 46.1534 62.4575 46.0753 62.1195 45.919C61.7814 45.7599 61.5129 45.5313 61.3141 45.233C61.1152 44.9318 61.0158 44.5682 61.0158 44.142C61.0158 43.767 61.0896 43.4631 61.2374 43.2301C61.3851 42.9943 61.5825 42.8097 61.8297 42.6761C62.0769 42.5426 62.3496 42.4432 62.6479 42.3778C62.949 42.3097 63.2516 42.2557 63.5556 42.2159C63.9533 42.1648 64.2757 42.1264 64.5229 42.1009C64.7729 42.0724 64.9547 42.0256 65.0683 41.9602C65.1848 41.8949 65.2431 41.7813 65.2431 41.6193L65.2431 41.5852C65.2431 41.1648 65.128 40.8381 64.8979 40.6051C64.6706 40.3722 64.3254 40.2557 63.8624 40.2557C63.3823 40.2557 63.0058 40.3608 62.7331 40.571C62.4604 40.7813 62.2686 41.0057 62.1578 41.2443L61.2033 40.9034C61.3737 40.5057 61.601 40.196 61.8851 39.9744C62.172 39.75 62.4845 39.5938 62.8226 39.5057C63.1635 39.4148 63.4987 39.3693 63.8283 39.3693C64.0385 39.3693 64.28 39.3949 64.5527 39.446C64.8283 39.4943 65.0939 39.5952 65.3496 39.7486C65.6081 39.902 65.8226 40.1335 65.9931 40.4432C66.1635 40.7528 66.2487 41.1676 66.2487 41.6875L66.2487 46L65.2431 46L65.2431 45.1136L65.1919 45.1136C65.1237 45.2557 65.0101 45.4077 64.851 45.5696C64.6919 45.7315 64.4803 45.8693 64.2161 45.983C63.9519 46.0966 63.6294 46.1534 63.2487 46.1534ZM63.4021 45.25C63.7999 45.25 64.1351 45.1719 64.4078 45.0156C64.6834 44.8594 64.8908 44.6577 65.03 44.4105C65.172 44.1634 65.2431 43.9034 65.2431 43.6307L65.2431 42.7102C65.2004 42.7614 65.1067 42.8082 64.9618 42.8509C64.8198 42.8906 64.655 42.9261 64.4675 42.9574C64.2828 42.9858 64.1024 43.0114 63.9263 43.0341C63.753 43.054 63.6124 43.071 63.5044 43.0852C63.2431 43.1193 62.9987 43.1747 62.7715 43.2514C62.547 43.3253 62.3652 43.4375 62.226 43.5881C62.0896 43.7358 62.0215 43.9375 62.0215 44.1932C62.0215 44.5426 62.1507 44.8068 62.4092 44.9858C62.6706 45.1619 63.0016 45.25 63.4021 45.25Z" fill="#2B4554"/>
<path d="M23.999 58H131.999" stroke="#2B4554" stroke-width="1.4" stroke-linecap="round"/>
<path d="M24.8797 74L24.8797 66.7273L29.2405 66.7273L29.2405 67.5085L25.7604 67.5085L25.7604 69.9659L28.9138 69.9659L28.9138 70.7472L25.7604 70.7472L25.7604 74L24.8797 74ZM33.7309 71.7699L33.7309 68.5455L34.569 68.5455L34.569 74L33.7309 74L33.7309 73.0767L33.6741 73.0767C33.5463 73.3537 33.3474 73.5893 33.0775 73.7834C32.8076 73.9751 32.4667 74.071 32.0548 74.071C31.7139 74.071 31.4108 73.9964 31.1457 73.8473C30.8805 73.6958 30.6722 73.4685 30.5207 73.1655C30.3692 72.8601 30.2934 72.4754 30.2934 72.0114L30.2934 68.5455L31.1315 68.5455L31.1315 71.9545C31.1315 72.3523 31.2427 72.6695 31.4653 72.9063C31.6902 73.143 31.9767 73.2614 32.3247 73.2614C32.533 73.2614 32.7449 73.2081 32.9603 73.1016C33.1781 72.995 33.3604 72.8317 33.5072 72.6115C33.6563 72.3913 33.7309 72.1108 33.7309 71.7699ZM36.942 66.7273L36.942 74L36.104 74L36.104 66.7273L36.942 66.7273ZM39.3151 66.7273L39.3151 74L38.477 74L38.477 66.7273L39.3151 66.7273ZM44.7137 69.767L43.9608 69.9801C43.9135 69.8546 43.8437 69.7327 43.7513 69.6143C43.6614 69.4936 43.5383 69.3942 43.382 69.3161C43.2258 69.2379 43.0257 69.1989 42.7819 69.1989C42.4481 69.1989 42.1699 69.2758 41.9474 69.4297C41.7272 69.5812 41.6171 69.7741 41.6171 70.0085C41.6171 70.2169 41.6929 70.3814 41.8444 70.5021C41.9959 70.6229 42.2326 70.7235 42.5546 70.804L43.3643 71.0028C43.8519 71.1212 44.2153 71.3023 44.4545 71.5462C44.6936 71.7876 44.8131 72.099 44.8131 72.4801C44.8131 72.7926 44.7232 73.072 44.5432 73.3182C44.3657 73.5644 44.1171 73.7585 43.7975 73.9006C43.4779 74.0426 43.1062 74.1136 42.6824 74.1136C42.1261 74.1136 41.6656 73.9929 41.301 73.7514C40.9365 73.5099 40.7056 73.1572 40.6086 72.6932L41.404 72.4943C41.4798 72.7879 41.623 73.0081 41.8337 73.1548C42.0468 73.3016 42.325 73.375 42.6682 73.375C43.0589 73.375 43.369 73.2921 43.5986 73.1264C43.8306 72.9583 43.9466 72.7571 43.9466 72.5227C43.9466 72.3333 43.8804 72.1747 43.7478 72.0469C43.6152 71.9167 43.4116 71.8196 43.137 71.7557L42.2279 71.5426C41.7284 71.4242 41.3614 71.2408 41.127 70.9922C40.895 70.7412 40.779 70.4276 40.779 70.0511C40.779 69.7434 40.8654 69.4711 41.0383 69.2344C41.2135 68.9976 41.4514 68.8118 41.752 68.6768C42.0551 68.5419 42.3983 68.4744 42.7819 68.4744C43.3216 68.4744 43.7454 68.5928 44.0532 68.8295C44.3633 69.0663 44.5835 69.3788 44.7137 69.767ZM48.4468 68.5455L48.4468 69.2557L45.6201 69.2557L45.6201 68.5455L48.4468 68.5455ZM46.444 67.2386L47.282 67.2386L47.282 72.4375C47.282 72.6742 47.3164 72.8518 47.385 72.9702C47.4561 73.0862 47.546 73.1643 47.6549 73.2045C47.7662 73.2424 47.8834 73.2614 48.0065 73.2614C48.0988 73.2614 48.1746 73.2566 48.2338 73.2472C48.2929 73.2353 48.3403 73.2259 48.3758 73.2188L48.5463 73.9716C48.4894 73.9929 48.4101 74.0142 48.3083 74.0355C48.2065 74.0592 48.0775 74.071 47.9213 74.071C47.6845 74.071 47.4525 74.0201 47.2252 73.9183C47.0003 73.8165 46.8133 73.6615 46.6642 73.4531C46.5174 73.2448 46.444 72.982 46.444 72.6648L46.444 67.2386ZM51.3126 74.1278C50.9669 74.1278 50.6533 74.0627 50.3715 73.9325C50.0898 73.8 49.8661 73.6094 49.7004 73.3608C49.5347 73.1098 49.4518 72.8068 49.4518 72.4517C49.4518 72.1392 49.5133 71.8859 49.6365 71.6918C49.7596 71.4953 49.9241 71.3414 50.1301 71.2301C50.336 71.1188 50.5633 71.036 50.8119 70.9815C51.0628 70.9247 51.315 70.8797 51.5683 70.8466C51.8997 70.804 52.1684 70.772 52.3744 70.7507C52.5827 70.727 52.7342 70.688 52.8289 70.6335C52.926 70.5791 52.9745 70.4844 52.9745 70.3494L52.9745 70.321C52.9745 69.9706 52.8786 69.6984 52.6869 69.5043C52.4975 69.3101 52.2098 69.2131 51.824 69.2131C51.4239 69.2131 51.1102 69.3007 50.8829 69.4759C50.6556 69.651 50.4958 69.8381 50.4035 70.0369L49.608 69.7528C49.7501 69.4214 49.9395 69.1634 50.1762 68.9787C50.4153 68.7917 50.6758 68.6615 50.9575 68.5881C51.2416 68.5123 51.5209 68.4744 51.7955 68.4744C51.9707 68.4744 52.172 68.4957 52.3992 68.5384C52.6289 68.5786 52.8502 68.6626 53.0633 68.7905C53.2787 68.9183 53.4575 69.1113 53.5995 69.3693C53.7416 69.6274 53.8126 69.973 53.8126 70.4063L53.8126 74L52.9745 74L52.9745 73.2614L52.9319 73.2614C52.8751 73.3797 52.7804 73.5064 52.6478 73.6413C52.5152 73.7763 52.3389 73.8911 52.1187 73.9858C51.8985 74.0805 51.6298 74.1278 51.3126 74.1278ZM51.4404 73.375C51.7719 73.375 52.0512 73.3099 52.2785 73.1797C52.5081 73.0495 52.681 72.8814 52.797 72.6754C52.9153 72.4695 52.9745 72.2528 52.9745 72.0256L52.9745 71.2585C52.939 71.3011 52.8609 71.3402 52.7401 71.3757C52.6218 71.4089 52.4845 71.4384 52.3282 71.4645C52.1743 71.4882 52.024 71.5095 51.8772 71.5284C51.7328 71.545 51.6156 71.5592 51.5257 71.571C51.3079 71.5994 51.1043 71.6456 50.9149 71.7095C50.7278 71.7711 50.5763 71.8646 50.4603 71.9901C50.3467 72.1132 50.2899 72.2813 50.2899 72.4943C50.2899 72.7855 50.3976 73.0057 50.613 73.1548C50.8308 73.3016 51.1066 73.375 51.4404 73.375ZM57.5581 74.1136C57.0468 74.1136 56.6064 73.9929 56.2371 73.7514C55.8678 73.5099 55.5837 73.1773 55.3849 72.7536C55.186 72.3298 55.0866 71.8456 55.0866 71.3011C55.0866 70.7472 55.1884 70.2583 55.392 69.8345C55.5979 69.4084 55.8844 69.0758 56.2513 68.8366C56.6206 68.5952 57.0515 68.4744 57.5439 68.4744C57.9275 68.4744 58.2731 68.5455 58.5809 68.6875C58.8886 68.8295 59.1408 69.0284 59.3373 69.2841C59.5338 69.5398 59.6557 69.8381 59.703 70.179L58.865 70.179C58.801 69.9304 58.659 69.7102 58.4388 69.5185C58.221 69.3243 57.9275 69.2273 57.5581 69.2273C57.2314 69.2273 56.945 69.3125 56.6988 69.483C56.4549 69.651 56.2644 69.889 56.127 70.1967C55.9921 70.5021 55.9246 70.8608 55.9246 71.2727C55.9246 71.6941 55.9909 72.0611 56.1235 72.3736C56.2584 72.6861 56.4478 72.9287 56.6917 73.1016C56.9379 73.2744 57.2267 73.3608 57.5581 73.3608C57.776 73.3608 57.9736 73.3229 58.1512 73.2472C58.3287 73.1714 58.4791 73.0625 58.6022 72.9205C58.7253 72.7784 58.8129 72.608 58.865 72.4091L59.703 72.4091C59.6557 72.7311 59.5385 73.0211 59.3515 73.2791C59.1668 73.5348 58.9218 73.7384 58.6164 73.8899C58.3134 74.0391 57.9606 74.1136 57.5581 74.1136ZM61.7094 72.0114L61.6952 70.9744L61.8657 70.9744L64.252 68.5455L65.289 68.5455L62.7464 71.1165L62.6753 71.1165L61.7094 72.0114ZM60.9282 74L60.9282 66.7273L61.7662 66.7273L61.7662 74L60.9282 74ZM64.3941 74L62.2634 71.3011L62.86 70.7188L65.4594 74L64.3941 74ZM69.1801 76.0455L69.1801 68.5455L69.9898 68.5455L69.9898 69.4119L70.0892 69.4119C70.1508 69.3172 70.236 69.1965 70.3449 69.0497C70.4562 68.9006 70.6148 68.768 70.8208 68.652C71.0291 68.5336 71.3108 68.4744 71.6659 68.4744C72.1252 68.4744 72.53 68.5893 72.8804 68.8189C73.2308 69.0485 73.5042 69.3741 73.7007 69.7955C73.8972 70.2169 73.9955 70.714 73.9955 71.2869C73.9955 71.8646 73.8972 72.3653 73.7007 72.7891C73.5042 73.2105 73.232 73.5372 72.884 73.7692C72.536 73.9988 72.1347 74.1136 71.6801 74.1136C71.3298 74.1136 71.0492 74.0556 70.8385 73.9396C70.6278 73.8213 70.4656 73.6875 70.352 73.5384C70.2384 73.3868 70.1508 73.2614 70.0892 73.1619L70.0182 73.1619L70.0182 76.0455L69.1801 76.0455ZM70.004 71.2727C70.004 71.6847 70.0644 72.0481 70.1851 72.3629C70.3058 72.6754 70.4822 72.9205 70.7142 73.098C70.9462 73.2732 71.2303 73.3608 71.5665 73.3608C71.9169 73.3608 72.2093 73.2685 72.4436 73.0838C72.6804 72.8968 72.8579 72.6458 72.9763 72.331C73.097 72.0137 73.1574 71.661 73.1574 71.2727C73.1574 70.8892 73.0982 70.5436 72.9798 70.2358C72.8638 69.9257 72.6875 69.6806 72.4507 69.5007C72.2164 69.3184 71.9216 69.2273 71.5665 69.2273C71.2256 69.2273 70.9391 69.3137 70.7071 69.4865C70.4751 69.657 70.2999 69.8961 70.1816 70.2038C70.0632 70.5092 70.004 70.8655 70.004 71.2727ZM76.879 74.1278C76.5334 74.1278 76.2197 74.0627 75.9379 73.9325C75.6562 73.8 75.4325 73.6094 75.2668 73.3608C75.1011 73.1099 75.0182 72.8068 75.0182 72.4517C75.0182 72.1392 75.0798 71.8859 75.2029 71.6918C75.326 71.4953 75.4905 71.3414 75.6965 71.2301C75.9024 71.1188 76.1297 71.036 76.3783 70.9815C76.6292 70.9247 76.8814 70.8797 77.1347 70.8466C77.4661 70.804 77.7348 70.772 77.9408 70.7507C78.1491 70.727 78.3006 70.688 78.3953 70.6335C78.4924 70.5791 78.5409 70.4844 78.5409 70.3494L78.5409 70.321C78.5409 69.9706 78.445 69.6984 78.2533 69.5043C78.0639 69.3101 77.7762 69.2131 77.3904 69.2131C76.9903 69.2131 76.6766 69.3007 76.4493 69.4759C76.222 69.651 76.0622 69.8381 75.9699 70.0369L75.1744 69.7528C75.3165 69.4214 75.5059 69.1634 75.7426 68.9787C75.9817 68.7917 76.2422 68.6615 76.5239 68.5881C76.808 68.5123 77.0873 68.4744 77.3619 68.4744C77.5371 68.4744 77.7384 68.4957 77.9656 68.5384C78.1953 68.5786 78.4166 68.6626 78.6297 68.7905C78.8451 68.9183 79.0239 69.1113 79.1659 69.3693C79.308 69.6274 79.379 69.973 79.379 70.4063L79.379 74L78.5409 74L78.5409 73.2614L78.4983 73.2614C78.4415 73.3797 78.3468 73.5064 78.2142 73.6413C78.0816 73.7763 77.9053 73.8911 77.6851 73.9858C77.4649 74.0805 77.1962 74.1278 76.879 74.1278ZM77.0068 73.375C77.3383 73.375 77.6176 73.3099 77.8449 73.1797C78.0745 73.0495 78.2474 72.8814 78.3634 72.6754C78.4817 72.4695 78.5409 72.2528 78.5409 72.0256L78.5409 71.2585C78.5054 71.3011 78.4273 71.3402 78.3066 71.3757C78.1882 71.4089 78.0509 71.4384 77.8946 71.4645C77.7407 71.4882 77.5904 71.5095 77.4436 71.5284C77.2992 71.545 77.182 71.5592 77.0921 71.571C76.8743 71.5994 76.6707 71.6456 76.4813 71.7095C76.2942 71.7711 76.1427 71.8646 76.0267 71.9901C75.9131 72.1132 75.8563 72.2813 75.8563 72.4943C75.8563 72.7855 75.964 73.0057 76.1794 73.1548C76.3972 73.3016 76.673 73.375 77.0068 73.375ZM80.5677 72.608L81.4626 72.608C81.4816 72.8542 81.5928 73.0412 81.7964 73.169C82.0024 73.2969 82.2699 73.3608 82.599 73.3608C82.9352 73.3608 83.2228 73.2921 83.4619 73.1548C83.701 73.0152 83.8206 72.7902 83.8206 72.4801C83.8206 72.2978 83.7756 72.1392 83.6856 72.0043C83.5957 71.867 83.469 71.7604 83.3057 71.6847C83.1423 71.6089 82.9494 71.571 82.7268 71.571L81.7893 71.571L81.7893 70.8182L82.7268 70.8182C83.0606 70.8182 83.3068 70.7424 83.4655 70.5909C83.6264 70.4394 83.7069 70.25 83.7069 70.0227C83.7069 69.7789 83.6205 69.5836 83.4477 69.4368C83.2749 69.2876 83.0299 69.2131 82.7126 69.2131C82.393 69.2131 82.1267 69.2853 81.9136 69.4297C81.7006 69.5717 81.5881 69.7552 81.5763 69.9801L80.6956 69.9801C80.705 69.6866 80.795 69.4273 80.9655 69.2024C81.1359 68.9751 81.3679 68.7976 81.6615 68.6697C81.955 68.5395 82.2912 68.4744 82.67 68.4744C83.0535 68.4744 83.3862 68.5419 83.6679 68.6768C83.952 68.8094 84.171 68.9905 84.3248 69.2202C84.4811 69.4474 84.5592 69.7055 84.5592 69.9943C84.5592 70.3021 84.4728 70.5507 84.3 70.7401C84.1272 70.9295 83.9105 71.0644 83.6501 71.1449L83.6501 71.2017C83.8561 71.2159 84.0348 71.2822 84.1863 71.4006C84.3402 71.5166 84.4598 71.6693 84.545 71.8587C84.6302 72.0457 84.6729 72.2528 84.6729 72.4801C84.6729 72.8116 84.5841 73.1004 84.4065 73.3466C84.229 73.5904 83.9851 73.7798 83.675 73.9148C83.3648 74.0474 83.0109 74.1136 82.6132 74.1136C82.2273 74.1136 81.8817 74.0509 81.5763 73.9254C81.2709 73.7976 81.0282 73.6212 80.8483 73.3963C80.6707 73.169 80.5772 72.9063 80.5677 72.608ZM85.8501 76.0455L85.8501 68.5455L86.6597 68.5455L86.6597 69.4119L86.7591 69.4119C86.8207 69.3172 86.9059 69.1965 87.0148 69.0497C87.1261 68.9006 87.2847 68.768 87.4907 68.652C87.699 68.5336 87.9807 68.4744 88.3358 68.4744C88.7951 68.4744 89.2 68.5893 89.5503 68.8189C89.9007 69.0485 90.1742 69.3741 90.3706 69.7955C90.5671 70.2169 90.6654 70.714 90.6654 71.2869C90.6654 71.8646 90.5671 72.3653 90.3706 72.7891C90.1742 73.2105 89.9019 73.5372 89.5539 73.7692C89.2059 73.9988 88.8046 74.1136 88.3501 74.1136C87.9997 74.1136 87.7191 74.0556 87.5084 73.9396C87.2977 73.8213 87.1356 73.6875 87.0219 73.5384C86.9083 73.3868 86.8207 73.2614 86.7591 73.1619L86.6881 73.1619L86.6881 76.0455L85.8501 76.0455ZM86.6739 71.2727C86.6739 71.6847 86.7343 72.0481 86.855 72.3629C86.9758 72.6754 87.1521 72.9205 87.3841 73.098C87.6162 73.2732 87.9002 73.3608 88.2364 73.3608C88.5868 73.3608 88.8792 73.2685 89.1135 73.0838C89.3503 72.8968 89.5278 72.6458 89.6462 72.331C89.767 72.0137 89.8273 71.661 89.8273 71.2727C89.8273 70.8892 89.7681 70.5436 89.6498 70.2358C89.5338 69.9257 89.3574 69.6806 89.1206 69.5007C88.8863 69.3184 88.5915 69.2273 88.2364 69.2273C87.8955 69.2273 87.609 69.3137 87.377 69.4865C87.145 69.657 86.9698 69.8961 86.8515 70.2038C86.7331 70.5092 86.6739 70.8655 86.6739 71.2727ZM93.5489 74.1278C93.2033 74.1278 92.8896 74.0627 92.6079 73.9325C92.3261 73.8 92.1024 73.6094 91.9367 73.3608C91.771 73.1099 91.6881 72.8068 91.6881 72.4517C91.6881 72.1392 91.7497 71.8859 91.8728 71.6918C91.9959 71.4953 92.1604 71.3414 92.3664 71.2301C92.5724 71.1188 92.7996 71.036 93.0482 70.9815C93.2992 70.9247 93.5513 70.8797 93.8046 70.8466C94.136 70.804 94.4047 70.772 94.6107 70.7507C94.819 70.727 94.9706 70.688 95.0653 70.6335C95.1623 70.5791 95.2108 70.4844 95.2108 70.3494L95.2108 70.321C95.2108 69.9706 95.115 69.6984 94.9232 69.5043C94.7338 69.3101 94.4462 69.2131 94.0603 69.2131C93.6602 69.2131 93.3465 69.3007 93.1192 69.4759C92.892 69.651 92.7322 69.8381 92.6398 70.0369L91.8444 69.7528C91.9864 69.4214 92.1758 69.1634 92.4126 68.9787C92.6517 68.7917 92.9121 68.6615 93.1938 68.5881C93.4779 68.5123 93.7573 68.4744 94.0319 68.4744C94.2071 68.4744 94.4083 68.4957 94.6356 68.5384C94.8652 68.5786 95.0866 68.6626 95.2996 68.7905C95.5151 68.9183 95.6938 69.1113 95.8358 69.3693C95.9779 69.6274 96.0489 69.973 96.0489 70.4063L96.0489 74L95.2108 74L95.2108 73.2614L95.1682 73.2614C95.1114 73.3797 95.0167 73.5064 94.8841 73.6413C94.7516 73.7763 94.5752 73.8911 94.355 73.9858C94.1349 74.0805 93.8662 74.1278 93.5489 74.1278ZM93.6768 73.375C94.0082 73.375 94.2876 73.3099 94.5148 73.1797C94.7445 73.0495 94.9173 72.8814 95.0333 72.6754C95.1517 72.4695 95.2108 72.2528 95.2108 72.0256L95.2108 71.2585C95.1753 71.3011 95.0972 71.3402 94.9765 71.3757C94.8581 71.4089 94.7208 71.4385 94.5645 71.4645C94.4107 71.4882 94.2603 71.5095 94.1135 71.5284C93.9691 71.545 93.8519 71.5592 93.762 71.571C93.5442 71.5994 93.3406 71.6456 93.1512 71.7095C92.9642 71.7711 92.8126 71.8646 92.6966 71.9901C92.583 72.1132 92.5262 72.2813 92.5262 72.4943C92.5262 72.7855 92.6339 73.0057 92.8493 73.1548C93.0671 73.3016 93.343 73.375 93.6768 73.375ZM101.627 66.5L102.053 67.0114C101.887 67.1724 101.696 67.2848 101.478 67.3487C101.26 67.4126 101.014 67.4517 100.739 67.4659C100.464 67.4801 100.159 67.4943 99.8229 67.5085C99.4441 67.5227 99.1304 67.6151 98.8818 67.7855C98.6333 67.956 98.4415 68.2022 98.3066 68.5242C98.1716 68.8461 98.0852 69.2415 98.0473 69.7102L98.1183 69.7102C98.303 69.3693 98.5587 69.1184 98.8854 68.9574C99.2121 68.7964 99.5625 68.7159 99.9365 68.7159C100.363 68.7159 100.746 68.8153 101.087 69.0142C101.428 69.2131 101.698 69.5078 101.897 69.8984C102.096 70.2891 102.195 70.7708 102.195 71.3438C102.195 71.9143 102.093 72.4067 101.89 72.821C101.688 73.2353 101.406 73.5549 101.041 73.7798C100.679 74.0024 100.254 74.1136 99.7661 74.1136C99.2784 74.1136 98.8511 73.9988 98.4841 73.7692C98.1172 73.5372 97.8319 73.1939 97.6283 72.7394C97.4247 72.2824 97.3229 71.7178 97.3229 71.0455L97.3229 70.4631C97.3229 69.2486 97.5289 68.3277 97.9408 67.7003C98.3551 67.0729 98.9777 66.7486 99.8087 66.7273C100.102 66.7178 100.364 66.7154 100.593 66.7202C100.823 66.7249 101.023 66.7143 101.194 66.6882C101.364 66.6622 101.508 66.5994 101.627 66.5ZM99.7661 73.3608C100.095 73.3608 100.378 73.2779 100.615 73.1122C100.854 72.9465 101.037 72.7133 101.165 72.4126C101.293 72.1096 101.357 71.7533 101.357 71.3438C101.357 70.946 101.292 70.6075 101.162 70.3281C101.034 70.0488 100.85 69.8357 100.611 69.6889C100.372 69.5421 100.086 69.4688 99.7519 69.4688C99.508 69.4688 99.289 69.5102 99.0949 69.593C98.9008 69.6759 98.7351 69.7978 98.5977 69.9588C98.4604 70.1198 98.3539 70.3163 98.2781 70.5483C98.2048 70.7803 98.1657 71.0455 98.161 71.3438C98.161 71.9545 98.3042 72.4434 98.5906 72.8104C98.8771 73.1773 99.2689 73.3608 99.7661 73.3608ZM105.693 74.1136C105.2 74.1136 104.768 73.9965 104.397 73.7621C104.027 73.5277 103.739 73.1998 103.53 72.7784C103.324 72.357 103.221 71.8646 103.221 71.3011C103.221 70.733 103.324 70.237 103.53 69.8132C103.739 69.3894 104.027 69.0604 104.397 68.826C104.768 68.5916 105.2 68.4744 105.693 68.4744C106.185 68.4744 106.616 68.5916 106.986 68.826C107.357 69.0604 107.646 69.3894 107.852 69.8132C108.06 70.237 108.165 70.733 108.165 71.3011C108.165 71.8646 108.06 72.357 107.852 72.7784C107.646 73.1998 107.357 73.5277 106.986 73.7621C106.616 73.9965 106.185 74.1136 105.693 74.1136ZM105.693 73.3608C106.067 73.3608 106.375 73.2649 106.616 73.0732C106.858 72.8814 107.036 72.6293 107.152 72.3168C107.268 72.0043 107.326 71.6657 107.326 71.3011C107.326 70.9366 107.268 70.5968 107.152 70.282C107.036 69.9671 106.858 69.7126 106.616 69.5185C106.375 69.3243 106.067 69.2273 105.693 69.2273C105.319 69.2273 105.011 69.3243 104.77 69.5185C104.528 69.7126 104.349 69.9671 104.233 70.282C104.117 70.5968 104.059 70.9366 104.059 71.3011C104.059 71.6657 104.117 72.0043 104.233 72.3168C104.349 72.6293 104.528 72.8814 104.77 73.0732C105.011 73.2649 105.319 73.3608 105.693 73.3608ZM108.731 69.3267L108.731 68.5455L113.163 68.5455L113.163 69.3267L111.373 69.3267L111.373 74L110.535 74L110.535 69.3267L108.731 69.3267ZM118.307 68.5455L118.307 74L117.468 74L117.468 68.5455L118.307 68.5455ZM117.98 71.1449L117.98 71.9261C117.79 71.9972 117.602 72.0599 117.415 72.1144C117.228 72.1664 117.032 72.2079 116.826 72.2386C116.62 72.2671 116.394 72.2813 116.147 72.2813C115.53 72.2813 115.034 72.1144 114.66 71.7805C114.288 71.4467 114.102 70.946 114.102 70.2784L114.102 68.5313L114.94 68.5313L114.94 70.2784C114.94 70.5578 114.993 70.7874 115.1 70.9673C115.206 71.1473 115.351 71.281 115.533 71.3686C115.715 71.4562 115.92 71.5 116.147 71.5C116.503 71.5 116.823 71.468 117.11 71.4041C117.399 71.3378 117.689 71.2514 117.98 71.1449ZM120.682 72.7642L123.31 68.5455L124.276 68.5455L124.276 74L123.438 74L123.438 69.7813L120.824 74L119.844 74L119.844 68.5455L120.682 68.5455L120.682 72.7642ZM125.811 74L125.811 68.5455L126.649 68.5455L126.649 70.9176L127.203 70.9176L129.163 68.5455L130.243 68.5455L128.041 71.1733L130.271 74L129.192 74L127.402 71.6989L126.649 71.6989L126.649 74L125.811 74Z" fill="#2B4554"/>
<path d="M24.482 83.5085L24.482 82.7273L29.9365 82.7273L29.9365 83.5085L27.6496 83.5085L27.6496 90L26.7689 90L26.7689 83.5085L24.482 83.5085ZM32.678 90.1136C32.1524 90.1136 31.6991 89.9976 31.3179 89.7656C30.9391 89.5313 30.6468 89.2045 30.4408 88.7855C30.2372 88.3641 30.1354 87.8741 30.1354 87.3153C30.1354 86.7566 30.2372 86.2642 30.4408 85.8381C30.6468 85.4096 30.9332 85.0758 31.3002 84.8366C31.6695 84.5952 32.1003 84.4744 32.5928 84.4744C32.8769 84.4744 33.1574 84.5218 33.4344 84.6165C33.7114 84.7112 33.9635 84.8651 34.1908 85.0781C34.4181 85.2888 34.5992 85.5682 34.7341 85.9162C34.8691 86.2642 34.9365 86.6927 34.9365 87.2017L34.9365 87.5568L30.732 87.5568L30.732 86.8324L34.0843 86.8324C34.0843 86.5246 34.0227 86.25 33.8996 86.0085C33.7789 85.767 33.606 85.5765 33.3811 85.4368C33.1586 85.2971 32.8958 85.2273 32.5928 85.2273C32.259 85.2273 31.9701 85.3101 31.7263 85.4759C31.4848 85.6392 31.299 85.8523 31.1688 86.1151C31.0386 86.3778 30.9735 86.6596 30.9735 86.9602L30.9735 87.4432C30.9735 87.8551 31.0445 88.2043 31.1865 88.4908C31.3309 88.7749 31.531 88.9915 31.7867 89.1406C32.0423 89.2874 32.3395 89.3608 32.678 89.3608C32.8982 89.3608 33.097 89.33 33.2746 89.2685C33.4545 89.2045 33.6096 89.1098 33.7398 88.9844C33.87 88.8565 33.9706 88.6979 34.0416 88.5085L34.8513 88.7358C34.7661 89.0104 34.6228 89.2519 34.4216 89.4602C34.2204 89.6662 33.9718 89.8272 33.6759 89.9432C33.3799 90.0568 33.0473 90.1136 32.678 90.1136ZM37.8165 90.1278C37.4709 90.1278 37.1572 90.0627 36.8754 89.9325C36.5937 89.8 36.37 89.6094 36.2043 89.3608C36.0386 89.1098 35.9557 88.8068 35.9557 88.4517C35.9557 88.1392 36.0173 87.8859 36.1404 87.6918C36.2635 87.4953 36.428 87.3414 36.634 87.2301C36.8399 87.1188 37.0672 87.036 37.3158 86.9815C37.5667 86.9247 37.8189 86.8797 38.0722 86.8466C38.4036 86.804 38.6723 86.772 38.8783 86.7507C39.0866 86.727 39.2381 86.688 39.3328 86.6335C39.4299 86.5791 39.4784 86.4844 39.4784 86.3494L39.4784 86.321C39.4784 85.9706 39.3825 85.6984 39.1908 85.5043C39.0014 85.3101 38.7137 85.2131 38.3279 85.2131C37.9278 85.2131 37.6141 85.3007 37.3868 85.4759C37.1595 85.651 36.9997 85.8381 36.9074 86.0369L36.1119 85.7528C36.254 85.4214 36.4434 85.1634 36.6801 84.9787C36.9192 84.7917 37.1797 84.6615 37.4614 84.5881C37.7455 84.5123 38.0248 84.4744 38.2994 84.4744C38.4746 84.4744 38.6759 84.4957 38.9031 84.5384C39.1328 84.5786 39.3541 84.6626 39.5672 84.7905C39.7826 84.9183 39.9614 85.1113 40.1034 85.3693C40.2455 85.6274 40.3165 85.973 40.3165 86.4063L40.3165 90L39.4784 90L39.4784 89.2614L39.4358 89.2614C39.379 89.3797 39.2843 89.5064 39.1517 89.6413C39.0191 89.7763 38.8428 89.8911 38.6226 89.9858C38.4024 90.0805 38.1337 90.1278 37.8165 90.1278ZM37.9443 89.375C38.2758 89.375 38.5551 89.3099 38.7824 89.1797C39.012 89.0495 39.1849 88.8814 39.3009 88.6754C39.4192 88.4695 39.4784 88.2528 39.4784 88.0256L39.4784 87.2585C39.4429 87.3011 39.3648 87.3402 39.2441 87.3757C39.1257 87.4089 38.9884 87.4384 38.8321 87.4645C38.6782 87.4882 38.5279 87.5095 38.3811 87.5284C38.2367 87.545 38.1195 87.5592 38.0296 87.571C37.8118 87.5994 37.6082 87.6456 37.4188 87.7095C37.2317 87.7711 37.0802 87.8646 36.9642 87.9901C36.8506 88.1132 36.7938 88.2813 36.7938 88.4943C36.7938 88.7855 36.9015 89.0057 37.1169 89.1548C37.3347 89.3016 37.6105 89.375 37.9443 89.375ZM41.8461 90L41.8461 84.5455L42.6558 84.5455L42.6558 85.3977L42.7268 85.3977C42.8405 85.1065 43.0239 84.8804 43.2773 84.7195C43.5306 84.5561 43.8348 84.4744 44.1899 84.4744C44.5497 84.4744 44.8492 84.5561 45.0883 84.7195C45.3298 84.8804 45.518 85.1065 45.653 85.3977L45.7098 85.3977C45.8495 85.116 46.059 84.8923 46.3383 84.7266C46.6177 84.5585 46.9527 84.4744 47.3433 84.4744C47.831 84.4744 48.2299 84.6271 48.54 84.9325C48.8502 85.2356 49.0052 85.7079 49.0052 86.3494L49.0052 90L48.1672 90L48.1672 86.3494C48.1672 85.947 48.0571 85.6593 47.8369 85.4865C47.6167 85.3137 47.3575 85.2273 47.0592 85.2273C46.6757 85.2273 46.3786 85.3433 46.1679 85.5753C45.9572 85.8049 45.8518 86.0961 45.8518 86.4489L45.8518 90L44.9996 90L44.9996 86.2642C44.9996 85.9541 44.8989 85.7043 44.6977 85.5149C44.4965 85.3232 44.2372 85.2273 43.92 85.2273C43.7022 85.2273 43.4986 85.2853 43.3092 85.4013C43.1222 85.5173 42.9707 85.6783 42.8547 85.8842C42.741 86.0878 42.6842 86.3234 42.6842 86.5909L42.6842 90L41.8461 90ZM54.1881 82.7273L54.1881 90L53.3501 90L53.3501 82.7273L54.1881 82.7273ZM58.01 90.1136C57.4845 90.1136 57.0311 89.9976 56.6499 89.7656C56.2712 89.5313 55.9788 89.2045 55.7728 88.7855C55.5692 88.3641 55.4674 87.8741 55.4674 87.3153C55.4674 86.7566 55.5692 86.2642 55.7728 85.8381C55.9788 85.4096 56.2652 85.0758 56.6322 84.8366C57.0015 84.5952 57.4324 84.4744 57.9248 84.4744C58.2089 84.4744 58.4894 84.5218 58.7664 84.6165C59.0434 84.7112 59.2955 84.8651 59.5228 85.0781C59.7501 85.2888 59.9312 85.5682 60.0661 85.9162C60.2011 86.2642 60.2686 86.6927 60.2686 87.2017L60.2686 87.5568L56.064 87.5568L56.064 86.8324L59.4163 86.8324C59.4163 86.5246 59.3547 86.25 59.2316 86.0085C59.1109 85.767 58.9381 85.5765 58.7132 85.4368C58.4906 85.2971 58.2278 85.2273 57.9248 85.2273C57.591 85.2273 57.3022 85.3101 57.0583 85.4759C56.8168 85.6392 56.631 85.8523 56.5008 86.1151C56.3706 86.3778 56.3055 86.6596 56.3055 86.9602L56.3055 87.4432C56.3055 87.8551 56.3765 88.2043 56.5186 88.4908C56.663 88.7749 56.863 88.9915 57.1187 89.1406C57.3744 89.2874 57.6715 89.3608 58.01 89.3608C58.2302 89.3608 58.4291 89.33 58.6066 89.2685C58.7865 89.2045 58.9416 89.1099 59.0718 88.9844C59.202 88.8565 59.3026 88.6979 59.3737 88.5085L60.1833 88.7358C60.0981 89.0104 59.9549 89.2519 59.7536 89.4602C59.5524 89.6662 59.3038 89.8272 59.0079 89.9432C58.712 90.0568 58.3793 90.1136 58.01 90.1136ZM63.1485 90.1278C62.8029 90.1278 62.4892 90.0627 62.2075 89.9325C61.9258 89.8 61.702 89.6094 61.5363 89.3608C61.3706 89.1099 61.2877 88.8068 61.2877 88.4517C61.2877 88.1392 61.3493 87.8859 61.4724 87.6918C61.5955 87.4953 61.76 87.3414 61.966 87.2301C62.172 87.1188 62.3992 87.036 62.6478 86.9815C62.8988 86.9247 63.1509 86.8797 63.4042 86.8466C63.7356 86.804 64.0043 86.772 64.2103 86.7507C64.4186 86.727 64.5702 86.688 64.6649 86.6335C64.7619 86.5791 64.8105 86.4844 64.8105 86.3494L64.8105 86.321C64.8105 85.9706 64.7146 85.6984 64.5228 85.5043C64.3334 85.3101 64.0458 85.2131 63.6599 85.2131C63.2598 85.2131 62.9461 85.3007 62.7188 85.4759C62.4916 85.651 62.3318 85.8381 62.2394 86.0369L61.444 85.7528C61.586 85.4214 61.7754 85.1634 62.0122 84.9787C62.2513 84.7917 62.5117 84.6615 62.7934 84.5881C63.0775 84.5123 63.3569 84.4744 63.6315 84.4744C63.8067 84.4744 64.0079 84.4957 64.2352 84.5384C64.4648 84.5786 64.6862 84.6626 64.8992 84.7905C65.1147 84.9183 65.2934 85.1113 65.4355 85.3693C65.5775 85.6274 65.6485 85.973 65.6485 86.4063L65.6485 90L64.8105 90L64.8105 89.2614L64.7678 89.2614C64.711 89.3797 64.6163 89.5064 64.4838 89.6413C64.3512 89.7763 64.1748 89.8911 63.9546 89.9858C63.7345 90.0805 63.4658 90.1278 63.1485 90.1278ZM63.2764 89.375C63.6078 89.375 63.8872 89.3099 64.1144 89.1797C64.3441 89.0495 64.5169 88.8814 64.6329 88.6754C64.7513 88.4695 64.8105 88.2528 64.8105 88.0256L64.8105 87.2585C64.7749 87.3011 64.6968 87.3402 64.5761 87.3757C64.4577 87.4089 64.3204 87.4384 64.1642 87.4645C64.0103 87.4882 63.8599 87.5095 63.7132 87.5284C63.5687 87.545 63.4516 87.5592 63.3616 87.571C63.1438 87.5994 62.9402 87.6456 62.7508 87.7095C62.5638 87.7711 62.4123 87.8646 62.2963 87.9901C62.1826 88.1132 62.1258 88.2813 62.1258 88.4943C62.1258 88.7855 62.2335 89.0057 62.449 89.1548C62.6668 89.3016 62.9426 89.375 63.2764 89.375ZM69.2378 90.1136C68.7833 90.1136 68.382 89.9988 68.034 89.7692C67.686 89.5372 67.4137 89.2105 67.2172 88.7891C67.0207 88.3653 66.9225 87.8646 66.9225 87.2869C66.9225 86.714 67.0207 86.2169 67.2172 85.7955C67.4137 85.3741 67.6872 85.0485 68.0376 84.8189C68.3879 84.5893 68.7928 84.4744 69.252 84.4744C69.6072 84.4744 69.8877 84.5336 70.0937 84.652C70.302 84.768 70.4606 84.9006 70.5695 85.0497C70.6808 85.1965 70.7672 85.3172 70.8287 85.4119L70.8998 85.4119L70.8998 82.7273L71.7378 82.7273L71.7378 90L70.9282 90L70.9282 89.1619L70.8287 89.1619C70.7672 89.2614 70.6796 89.3868 70.566 89.5384C70.4523 89.6875 70.2902 89.8213 70.0795 89.9396C69.8688 90.0556 69.5882 90.1136 69.2378 90.1136ZM69.3515 89.3608C69.6876 89.3608 69.9717 89.2732 70.2037 89.098C70.4358 88.9205 70.6121 88.6754 70.7329 88.3629C70.8536 88.0481 70.914 87.6847 70.914 87.2727C70.914 86.8655 70.8548 86.5092 70.7364 86.2038C70.618 85.8961 70.4429 85.657 70.2108 85.4865C69.9788 85.3137 69.6924 85.2273 69.3515 85.2273C68.9964 85.2273 68.7004 85.3184 68.4637 85.5007C68.2293 85.6806 68.0529 85.9257 67.9346 86.2358C67.8186 86.5436 67.7606 86.8892 67.7606 87.2727C67.7606 87.661 67.8197 88.0137 67.9381 88.331C68.0589 88.6458 68.2364 88.8968 68.4708 89.0838C68.7075 89.2685 69.0011 89.3608 69.3515 89.3608Z" fill="#4C7B96"/>
</g>
<defs>
<clipPath id="clip0_1291_3709">
<rect width="108" height="162" fill="white" transform="translate(0 108) rotate(-90)"/>
</clipPath>
</defs>
</svg>
