<svg width="162" height="108" viewBox="0 0 162 108" fill="none" xmlns="http://www.w3.org/2000/svg">
<g clip-path="url(#clip0_1291_3993)">
<path d="M160.854 10.051L160.854 97.949C160.854 102.858 156.849 106.854 151.922 106.854L10.0777 106.854C5.1506 106.854 1.14629 102.858 1.14629 97.949L1.14628 10.051C1.14628 5.1423 5.1506 1.14629 10.0777 1.14629L151.922 1.14628C156.849 1.14628 160.854 5.14229 160.854 10.051Z" fill="white" stroke="#2B4554" stroke-width="1.4"/>
<path d="M154.859 13.8214L154.859 94.6849C154.859 98.1222 152.117 100.86 148.675 100.86L12.8766 100.86C9.435 100.86 6.69336 98.1222 6.69336 94.6849L6.69336 13.7631C6.69336 10.3258 9.435 7.58763 12.8766 7.58763L148.617 7.58763C152.059 7.64589 154.859 10.3841 154.859 13.8214Z" stroke="#2B4554" stroke-width="0.6" stroke-miterlimit="10"/>
<path d="M23.9999 74.5716L23.9999 105.429L16.857 105.429C8.96227 105.429 2.57129 98.8833 2.57129 90.7977L2.57129 74.5716L23.9999 74.5716Z" fill="white"/>
<path d="M137.9 33.0254L137.9 2.232L145.19 2.232C153.246 2.232 159.768 8.76394 159.768 16.8328L159.768 33.0254L137.9 33.0254Z" fill="white"/>
<path d="M6.66602 92.1942C9.52632 92.1942 12.3866 92.1942 15.2469 92.1942C15.2469 92.2525 15.2469 92.2525 15.2469 92.3108C15.2469 93.9429 15.2469 95.575 15.2469 97.2071C15.2469 98.8975 14.0211 100.413 12.3282 100.704C12.1531 100.704 12.0364 100.763 11.8613 100.763C11.2775 100.763 10.6938 100.763 10.1684 100.763C8.59234 100.763 7.19138 99.5969 6.84114 98.0231C6.78276 97.79 6.78276 97.4985 6.72439 97.2654C6.72439 95.6333 6.72439 94.0012 6.72439 92.3691C6.66602 92.2525 6.66602 92.2525 6.66602 92.1942ZM9.3512 94.8172C9.3512 94.8755 9.3512 94.8755 9.3512 94.8755C9.3512 95.6333 9.3512 96.391 9.3512 97.1488C9.3512 97.6734 9.75981 98.0231 10.2268 98.0231C10.6938 98.0231 11.1608 98.0231 11.6278 98.0231C12.1531 98.0231 12.5617 97.6151 12.5617 97.0905C12.5617 96.3327 12.5617 95.6333 12.5617 94.8755C12.5617 94.8172 12.5617 94.8172 12.5617 94.7589C11.511 94.8172 10.4019 94.8172 9.3512 94.8172Z" fill="#4C7B96"/>
<path d="M6.66602 90.5625C6.66602 90.5042 6.66602 90.5042 6.66602 90.4459C6.66602 88.8138 6.66602 87.1235 6.66602 85.4914C6.66602 84.0342 7.54162 82.7518 8.88421 82.2272C9.29282 82.0523 9.75981 81.994 10.1684 81.994C10.6938 81.994 11.2191 81.994 11.7445 81.994C13.4373 81.994 14.8967 83.1598 15.1885 84.8502C15.2469 85.0834 15.2469 85.3748 15.2469 85.6079C15.2469 86.3657 15.2469 87.0652 15.2469 87.8229C15.2469 87.8812 15.2469 87.8812 15.2469 87.9395C16.356 87.9395 17.4651 87.9395 18.5742 87.9395C18.5742 88.8138 18.5742 89.6882 18.5742 90.5625C14.6632 90.5625 10.6938 90.5625 6.66602 90.5625ZM12.6785 87.9395L12.6785 87.8812C12.6785 87.0652 12.6785 86.3074 12.6785 85.4914C12.6785 84.9668 12.2699 84.617 11.8029 84.617C11.2775 84.617 10.8105 84.617 10.2852 84.617C9.81818 84.617 9.3512 84.9668 9.3512 85.5497C9.3512 86.3074 9.3512 87.0652 9.3512 87.8229C9.3512 87.8812 9.3512 87.8812 9.3512 87.9395C10.4603 87.9395 11.5694 87.9395 12.6785 87.9395Z" fill="#4C7B96"/>
<path d="M154.934 15.9512C152.074 15.9512 149.214 15.9512 146.354 15.9512C146.354 15.8929 146.354 15.8929 146.354 15.8346C146.354 14.2025 146.354 12.5704 146.354 10.9383C146.354 9.24795 147.579 7.73244 149.272 7.441C149.447 7.441 149.564 7.38271 149.739 7.38271C150.323 7.38271 150.907 7.38271 151.432 7.38271C153.008 7.38271 154.409 8.54849 154.759 10.1223C154.818 10.3554 154.818 10.6469 154.876 10.88C154.876 12.5121 154.876 14.1442 154.876 15.7763C154.934 15.8929 154.934 15.8929 154.934 15.9512ZM152.249 13.3282C152.249 13.2699 152.249 13.2699 152.249 13.2699C152.249 12.5121 152.249 11.7544 152.249 10.9966C152.249 10.472 151.841 10.1223 151.374 10.1223C150.907 10.1223 150.44 10.1223 149.973 10.1223C149.447 10.1223 149.039 10.5303 149.039 11.0549C149.039 11.8127 149.039 12.5121 149.039 13.2699C149.039 13.3282 149.039 13.3282 149.039 13.3865C150.089 13.3282 151.199 13.3282 152.249 13.3282Z" fill="#4C7B96"/>
<path d="M154.935 17.5829C154.935 17.6412 154.935 17.6412 154.935 17.6995C154.935 19.3316 154.935 21.022 154.935 22.654C154.935 24.1113 154.059 25.3936 152.716 25.9182C152.308 26.0931 151.841 26.1514 151.432 26.1514C150.907 26.1514 150.381 26.1514 149.856 26.1514C148.163 26.1514 146.704 24.9856 146.412 23.2952C146.354 23.0621 146.354 22.7706 146.354 22.5375C146.354 21.7797 146.354 21.0802 146.354 20.3225C146.354 20.2642 146.354 20.2642 146.354 20.2059C145.245 20.2059 144.135 20.2059 143.026 20.2059C143.026 19.3316 143.026 18.4572 143.026 17.5829C146.937 17.5829 150.907 17.5829 154.935 17.5829ZM148.922 20.2059L148.922 20.2642C148.922 21.0802 148.922 21.838 148.922 22.654C148.922 23.1786 149.331 23.5284 149.798 23.5284C150.323 23.5284 150.79 23.5284 151.315 23.5284C151.782 23.5284 152.249 23.1786 152.249 22.5957C152.249 21.838 152.249 21.0802 152.249 20.3225C152.249 20.2642 152.249 20.2642 152.249 20.2059C151.14 20.2059 150.031 20.2059 148.922 20.2059Z" fill="#4C7B96"/>
<path d="M32.0786 22L31.0218 22C30.9593 21.696 30.8499 21.429 30.6936 21.1989C30.5402 20.9688 30.3527 20.7756 30.1311 20.6193C29.9124 20.4602 29.6695 20.3409 29.4024 20.2614C29.1354 20.1818 28.857 20.142 28.5672 20.142C28.0388 20.142 27.5601 20.2756 27.1311 20.5426C26.705 20.8097 26.3655 21.2031 26.1127 21.723C25.8627 22.2429 25.7377 22.8807 25.7377 23.6364C25.7377 24.392 25.8627 25.0298 26.1127 25.5497C26.3655 26.0696 26.705 26.4631 27.1311 26.7301C27.5601 26.9972 28.0388 27.1307 28.5672 27.1307C28.857 27.1307 29.1354 27.0909 29.4024 27.0114C29.6695 26.9318 29.9124 26.8139 30.1311 26.6577C30.3527 26.4986 30.5402 26.304 30.6936 26.0739C30.8499 25.8409 30.9593 25.5739 31.0218 25.2727L32.0786 25.2727C31.999 25.7188 31.8541 26.1179 31.6439 26.4702C31.4337 26.8224 31.1723 27.1222 30.8598 27.3693C30.5473 27.6136 30.1965 27.7997 29.8073 27.9276C29.4209 28.0554 29.0075 28.1193 28.5672 28.1193C27.8229 28.1193 27.161 27.9375 26.5814 27.5739C26.0019 27.2102 25.5459 26.6932 25.2135 26.0227C24.8811 25.3523 24.7149 24.5568 24.7149 23.6364C24.7149 22.7159 24.8811 21.9205 25.2135 21.25C25.5459 20.5795 26.0019 20.0625 26.5814 19.6989C27.161 19.3352 27.8229 19.1534 28.5672 19.1534C29.0075 19.1534 29.4209 19.2173 29.8073 19.3452C30.1965 19.473 30.5473 19.6605 30.8598 19.9077C31.1723 20.152 31.4337 20.4503 31.6439 20.8026C31.8541 21.152 31.999 21.5511 32.0786 22ZM35.8161 28.1534C35.4013 28.1534 35.0249 28.0753 34.6868 27.919C34.3488 27.7599 34.0803 27.5313 33.8814 27.233C33.6826 26.9318 33.5831 26.5682 33.5831 26.142C33.5831 25.767 33.657 25.4631 33.8047 25.2301C33.9524 24.9943 34.1499 24.8097 34.397 24.6761C34.6442 24.5426 34.9169 24.4432 35.2152 24.3778C35.5164 24.3097 35.8189 24.2557 36.1229 24.2159C36.5206 24.1648 36.8431 24.1264 37.0902 24.1009C37.3402 24.0724 37.522 24.0256 37.6357 23.9602C37.7522 23.8949 37.8104 23.7813 37.8104 23.6193L37.8104 23.5852C37.8104 23.1648 37.6953 22.8381 37.4652 22.6051C37.238 22.3722 36.8928 22.2557 36.4297 22.2557C35.9496 22.2557 35.5732 22.3608 35.3005 22.571C35.0277 22.7813 34.836 23.0057 34.7252 23.2443L33.7706 22.9034C33.9411 22.5057 34.1684 22.196 34.4524 21.9744C34.7394 21.75 35.0519 21.5938 35.3899 21.5057C35.7309 21.4148 36.0661 21.3693 36.3956 21.3693C36.6059 21.3693 36.8473 21.3949 37.1201 21.446C37.3956 21.4943 37.6613 21.5952 37.9169 21.7486C38.1755 21.902 38.3899 22.1335 38.5604 22.4432C38.7309 22.7528 38.8161 23.1676 38.8161 23.6875L38.8161 28L37.8104 28L37.8104 27.1136L37.7593 27.1136C37.6911 27.2557 37.5774 27.4077 37.4184 27.5696C37.2593 27.7315 37.0476 27.8693 36.7834 27.983C36.5192 28.0966 36.1968 28.1534 35.8161 28.1534ZM35.9695 27.25C36.3672 27.25 36.7024 27.1719 36.9752 27.0156C37.2507 26.8594 37.4581 26.6577 37.5973 26.4105C37.7394 26.1634 37.8104 25.9034 37.8104 25.6307L37.8104 24.7102C37.7678 24.7614 37.674 24.8082 37.5292 24.8509C37.3871 24.8906 37.2223 24.9261 37.0348 24.9574C36.8502 24.9858 36.6698 25.0114 36.4936 25.0341C36.3203 25.054 36.1797 25.071 36.0718 25.0852C35.8104 25.1193 35.5661 25.1747 35.3388 25.2514C35.1144 25.3253 34.9326 25.4375 34.7934 25.5881C34.657 25.7358 34.5888 25.9375 34.5888 26.1932C34.5888 26.5426 34.7181 26.8068 34.9766 26.9858C35.238 27.1619 35.5689 27.25 35.9695 27.25ZM44.4712 26.6364L46.7553 21.4545L47.7098 21.4545L44.8803 28L44.0621 28L41.2837 21.4545L42.2212 21.4545L44.4712 26.6364ZM41.8973 21.4545L41.8973 28L40.8917 28L40.8917 21.4545L41.8973 21.4545ZM47.0451 28L47.0451 21.4545L48.0508 21.4545L48.0508 28L47.0451 28ZM50.545 30.4545C50.3746 30.4545 50.2226 30.4403 50.0891 30.4119C49.9555 30.3864 49.8632 30.3608 49.8121 30.3352L50.0677 29.4489C50.3121 29.5114 50.528 29.5341 50.7155 29.517C50.903 29.5 51.0692 29.4162 51.2141 29.2656C51.3618 29.1179 51.4967 28.8778 51.6189 28.5455L51.8064 28.0341L49.3859 21.4545L50.4768 21.4545L52.2837 26.6705L52.3518 26.6705L54.1587 21.4545L55.2496 21.4545L52.4712 28.9545C52.3462 29.2926 52.1913 29.5724 52.0067 29.794C51.822 30.0185 51.6075 30.1847 51.3632 30.2926C51.1217 30.4006 50.849 30.4545 50.545 30.4545ZM59.2417 28.1364C58.6281 28.1364 58.0996 27.9915 57.6565 27.7017C57.2133 27.4119 56.8724 27.0128 56.6337 26.5043C56.3951 25.9957 56.2758 25.4148 56.2758 24.7614C56.2758 24.0966 56.3979 23.5099 56.6423 23.0014C56.8894 22.4901 57.2332 22.0909 57.6735 21.804C58.1167 21.5142 58.6337 21.3693 59.2246 21.3693C59.6849 21.3693 60.0996 21.4545 60.469 21.625C60.8383 21.7955 61.1408 22.0341 61.3766 22.3409C61.6124 22.6477 61.7587 23.0057 61.8156 23.4148L60.8099 23.4148C60.7332 23.1165 60.5627 22.8523 60.2985 22.6222C60.0371 22.3892 59.6849 22.2727 59.2417 22.2727C58.8496 22.2727 58.5059 22.375 58.2104 22.5795C57.9178 22.7813 57.6891 23.0668 57.5244 23.4361C57.3624 23.8026 57.2815 24.233 57.2815 24.7273C57.2815 25.233 57.361 25.6733 57.5201 26.0483C57.682 26.4233 57.9093 26.7145 58.2019 26.9219C58.4974 27.1293 58.844 27.233 59.2417 27.233C59.5031 27.233 59.7403 27.1875 59.9533 27.0966C60.1664 27.0057 60.3468 26.875 60.4945 26.7045C60.6423 26.5341 60.7474 26.3295 60.8099 26.0909L61.8156 26.0909C61.7587 26.4773 61.6181 26.8253 61.3937 27.1349C61.1721 27.4418 60.8781 27.6861 60.5116 27.8679C60.1479 28.0469 59.7246 28.1364 59.2417 28.1364ZM66.27 28.1364C65.6394 28.1364 65.0953 27.9972 64.6379 27.7188C64.1834 27.4375 63.8325 27.0455 63.5854 26.5426C63.3411 26.0369 63.2189 25.4489 63.2189 24.7784C63.2189 24.108 63.3411 23.517 63.5854 23.0057C63.8325 22.4915 64.1763 22.0909 64.6166 21.804C65.0598 21.5142 65.5769 21.3693 66.1678 21.3693C66.5087 21.3693 66.8453 21.4261 67.1777 21.5398C67.5101 21.6534 67.8127 21.8381 68.0854 22.0938C68.3581 22.3466 68.5754 22.6818 68.7374 23.0994C68.8993 23.517 68.9803 24.0313 68.9803 24.642L68.9803 25.0682L63.9348 25.0682L63.9348 24.1989L67.9575 24.1989C67.9575 23.8295 67.8837 23.5 67.736 23.2102C67.5911 22.9205 67.3837 22.6918 67.1138 22.5242C66.8468 22.3565 66.5314 22.2727 66.1678 22.2727C65.7672 22.2727 65.4206 22.3722 65.128 22.571C64.8382 22.767 64.6152 23.0227 64.459 23.3381C64.3027 23.6534 64.2246 23.9915 64.2246 24.3523L64.2246 24.9318C64.2246 25.4261 64.3098 25.8452 64.4803 26.1889C64.6536 26.5298 64.8936 26.7898 65.2004 26.9688C65.5073 27.1449 65.8638 27.233 66.27 27.233C66.5343 27.233 66.7729 27.196 66.986 27.1222C67.2019 27.0455 67.3879 26.9318 67.5442 26.7813C67.7004 26.6278 67.8212 26.4375 67.9064 26.2102L68.878 26.483C68.7757 26.8125 68.6039 27.1023 68.3624 27.3523C68.1209 27.5994 67.8226 27.7926 67.4675 27.9318C67.1124 28.0682 66.7132 28.1364 66.27 28.1364ZM75.1308 24.267L75.1308 25.2045L71.5171 25.2045L71.5171 24.267L75.1308 24.267ZM71.7558 21.4545L71.7558 28L70.7501 28L70.7501 21.4545L71.7558 21.4545ZM75.8978 21.4545L75.8978 28L74.8921 28L74.8921 21.4545L75.8978 21.4545ZM77.9745 28L77.9745 21.4545L78.9802 21.4545L78.9802 24.3011L79.6449 24.3011L81.9972 21.4545L83.2927 21.4545L80.6506 24.608L83.3268 28L82.0313 28L79.8836 25.2386L78.9802 25.2386L78.9802 28L77.9745 28ZM87.0493 28.1364C86.4584 28.1364 85.94 27.9957 85.4939 27.7145C85.0508 27.4332 84.7042 27.0398 84.4542 26.5341C84.207 26.0284 84.0834 25.4375 84.0834 24.7614C84.0834 24.0795 84.207 23.4844 84.4542 22.9759C84.7042 22.4673 85.0508 22.0724 85.494 21.7912C85.94 21.5099 86.4584 21.3693 87.0493 21.3693C87.6403 21.3693 88.1573 21.5099 88.6005 21.7912C89.0465 22.0724 89.3931 22.4673 89.6403 22.9759C89.8903 23.4844 90.0153 24.0795 90.0153 24.7614C90.0153 25.4375 89.8903 26.0284 89.6403 26.5341C89.3931 27.0398 89.0465 27.4332 88.6005 27.7145C88.1573 27.9957 87.6403 28.1364 87.0493 28.1364ZM87.0493 27.233C87.4982 27.233 87.8675 27.1179 88.1573 26.8878C88.4471 26.6577 88.6616 26.3551 88.8008 25.9801C88.94 25.6051 89.0096 25.1989 89.0096 24.7614C89.0096 24.3239 88.94 23.9162 88.8008 23.5384C88.6616 23.1605 88.4471 22.8551 88.1573 22.6222C87.8675 22.3892 87.4982 22.2727 87.0493 22.2727C86.6005 22.2727 86.2312 22.3892 85.9414 22.6222C85.6516 22.8551 85.4371 23.1605 85.2979 23.5384C85.1587 23.9162 85.0891 24.3239 85.0891 24.7614C85.0891 25.1989 85.1587 25.6051 85.2979 25.9801C85.4371 26.3551 85.6516 26.6577 85.9414 26.8878C86.2312 27.1179 86.6005 27.233 87.0493 27.233ZM25.0558 46L25.0558 37.2727L30.3229 37.2727L30.3229 38.2102L26.1127 38.2102L26.1127 41.1591L30.0502 41.1591L30.0502 42.0966L26.1127 42.0966L26.1127 45.0625L30.3911 45.0625L30.3911 46L25.0558 46ZM32.3314 46L32.3314 39.4545L35.0075 39.4545C35.712 39.4545 36.2717 39.6136 36.6865 39.9318C37.1012 40.25 37.3086 40.6705 37.3086 41.1932C37.3086 41.5909 37.1907 41.8991 36.9549 42.1179C36.7191 42.3338 36.4166 42.4801 36.0473 42.5568C36.2887 42.5909 36.5231 42.6761 36.7504 42.8125C36.9805 42.9489 37.1708 43.1364 37.3214 43.375C37.472 43.6108 37.5473 43.9006 37.5473 44.2443C37.5473 44.5795 37.462 44.8793 37.2916 45.1435C37.1211 45.4077 36.8768 45.6165 36.5586 45.7699C36.2404 45.9233 35.8598 46 35.4166 46L32.3314 46ZM33.2859 45.0795L35.4166 45.0795C35.7632 45.0795 36.0345 44.9972 36.2305 44.8324C36.4265 44.6676 36.5245 44.4432 36.5245 44.1591C36.5245 43.821 36.4265 43.5554 36.2305 43.3622C36.0345 43.1662 35.7632 43.0682 35.4166 43.0682L33.2859 43.0682L33.2859 45.0795ZM33.2859 42.1989L35.0075 42.1989C35.2774 42.1989 35.5089 42.1619 35.7021 42.0881C35.8953 42.0114 36.043 41.9034 36.1453 41.7642C36.2504 41.6222 36.3029 41.4545 36.3029 41.2614C36.3029 40.9858 36.1879 40.7699 35.9578 40.6136C35.7277 40.4545 35.4109 40.375 35.0075 40.375L33.2859 40.375L33.2859 42.1989ZM43.3494 39.4545L43.3494 40.392L40.3153 40.392L40.3153 46L39.3096 46L39.3096 39.4545L43.3494 39.4545ZM47.4619 46.1364C46.8312 46.1364 46.2872 45.9972 45.8298 45.7188C45.3753 45.4375 45.0244 45.0455 44.7773 44.5426C44.5329 44.0369 44.4108 43.4489 44.4108 42.7784C44.4108 42.108 44.5329 41.517 44.7773 41.0057C45.0244 40.4915 45.3682 40.0909 45.8085 39.804C46.2517 39.5142 46.7687 39.3693 47.3596 39.3693C47.7006 39.3693 48.0372 39.4261 48.3696 39.5398C48.702 39.6534 49.0045 39.8381 49.2773 40.0938C49.55 40.3466 49.7673 40.6818 49.9292 41.0994C50.0912 41.517 50.1721 42.0313 50.1721 42.642L50.1721 43.0682L45.1267 43.0682L45.1267 42.1989L49.1494 42.1989C49.1494 41.8295 49.0756 41.5 48.9278 41.2102C48.7829 40.9205 48.5756 40.6918 48.3057 40.5241C48.0386 40.3565 47.7233 40.2727 47.3596 40.2727C46.9591 40.2727 46.6125 40.3722 46.3199 40.571C46.0301 40.767 45.8071 41.0227 45.6508 41.3381C45.4946 41.6534 45.4165 41.9915 45.4165 42.3523L45.4165 42.9318C45.4165 43.4261 45.5017 43.8452 45.6721 44.1889C45.8454 44.5298 46.0855 44.7898 46.3923 44.9688C46.6991 45.1449 47.0557 45.233 47.4619 45.233C47.7261 45.233 47.9648 45.196 48.1778 45.1222C48.3937 45.0455 48.5798 44.9318 48.7361 44.7813C48.8923 44.6278 49.0131 44.4375 49.0983 44.2102L50.0699 44.483C49.9676 44.8125 49.7957 45.1023 49.5542 45.3523C49.3128 45.5994 49.0145 45.7926 48.6594 45.9318C48.3042 46.0682 47.9051 46.1364 47.4619 46.1364ZM56.3227 42.267L56.3227 43.2045L52.709 43.2045L52.709 42.267L56.3227 42.267ZM52.9477 39.4545L52.9477 46L51.942 46L51.942 39.4545L52.9477 39.4545ZM57.0897 39.4545L57.0897 46L56.084 46L56.084 39.4545L57.0897 39.4545ZM60.172 44.517L63.3254 39.4545L64.4845 39.4545L64.4845 46L63.4789 46L63.4789 40.9375L60.3425 46L59.1664 46L59.1664 39.4545L60.172 39.4545L60.172 44.517ZM70.504 46L70.504 40.375L68.7654 40.375C68.3733 40.375 68.0651 40.4659 67.8407 40.6477C67.6162 40.8295 67.504 41.0795 67.504 41.3977C67.504 41.7102 67.6049 41.956 67.8066 42.1349C68.0111 42.3139 68.2909 42.4034 68.6461 42.4034L70.7597 42.4034L70.7597 43.3409L68.6461 43.3409C68.2029 43.3409 67.8208 43.2628 67.4997 43.1065C67.1787 42.9503 66.9316 42.7273 66.7583 42.4375C66.585 42.1449 66.4983 41.7983 66.4983 41.3977C66.4983 40.9943 66.5892 40.6477 66.7711 40.358C66.9529 40.0682 67.2128 39.8452 67.5509 39.6889C67.8918 39.5327 68.2966 39.4545 68.7654 39.4545L71.4586 39.4545L71.4586 46L70.504 46ZM66.1404 46L67.9983 42.7443L69.0892 42.7443L67.2313 46L66.1404 46Z" fill="#2B4554"/>
<path d="M23.999 58H131.999" stroke="#2B4554" stroke-width="1.4" stroke-linecap="round"/>
<path d="M24.8797 82L24.8797 74.7273L29.2405 74.7273L29.2405 75.5085L25.7604 75.5085L25.7604 77.9659L28.9138 77.9659L28.9138 78.7472L25.7604 78.7472L25.7604 82L24.8797 82ZM33.7309 79.7699L33.7309 76.5455L34.569 76.5455L34.569 82L33.7309 82L33.7309 81.0767L33.6741 81.0767C33.5463 81.3537 33.3474 81.5893 33.0775 81.7834C32.8076 81.9751 32.4667 82.071 32.0548 82.071C31.7139 82.071 31.4108 81.9964 31.1457 81.8473C30.8805 81.6958 30.6722 81.4685 30.5207 81.1655C30.3692 80.8601 30.2934 80.4754 30.2934 80.0114L30.2934 76.5455L31.1315 76.5455L31.1315 79.9545C31.1315 80.3523 31.2427 80.6695 31.4653 80.9063C31.6902 81.143 31.9767 81.2614 32.3247 81.2614C32.533 81.2614 32.7449 81.2081 32.9603 81.1016C33.1781 80.995 33.3604 80.8317 33.5072 80.6115C33.6563 80.3913 33.7309 80.1108 33.7309 79.7699ZM36.942 74.7273L36.942 82L36.104 82L36.104 74.7273L36.942 74.7273ZM39.3151 74.7273L39.3151 82L38.477 82L38.477 74.7273L39.3151 74.7273ZM44.7137 77.767L43.9608 77.9801C43.9135 77.8546 43.8437 77.7327 43.7513 77.6143C43.6614 77.4936 43.5383 77.3942 43.382 77.3161C43.2258 77.2379 43.0257 77.1989 42.7819 77.1989C42.4481 77.1989 42.1699 77.2758 41.9474 77.4297C41.7272 77.5812 41.6171 77.7741 41.6171 78.0085C41.6171 78.2169 41.6929 78.3814 41.8444 78.5021C41.9959 78.6229 42.2326 78.7235 42.5546 78.804L43.3643 79.0028C43.8519 79.1212 44.2153 79.3023 44.4545 79.5462C44.6936 79.7876 44.8131 80.099 44.8131 80.4801C44.8131 80.7926 44.7232 81.072 44.5432 81.3182C44.3657 81.5644 44.1171 81.7585 43.7975 81.9006C43.4779 82.0426 43.1062 82.1136 42.6824 82.1136C42.1261 82.1136 41.6656 81.9929 41.301 81.7514C40.9365 81.5099 40.7056 81.1572 40.6086 80.6932L41.404 80.4943C41.4798 80.7879 41.623 81.0081 41.8337 81.1548C42.0468 81.3016 42.325 81.375 42.6682 81.375C43.0589 81.375 43.369 81.2921 43.5986 81.1264C43.8306 80.9583 43.9466 80.7571 43.9466 80.5227C43.9466 80.3333 43.8804 80.1747 43.7478 80.0469C43.6152 79.9167 43.4116 79.8196 43.137 79.7557L42.2279 79.5426C41.7284 79.4242 41.3614 79.2408 41.127 78.9922C40.895 78.7412 40.779 78.4276 40.779 78.0511C40.779 77.7434 40.8654 77.4711 41.0383 77.2344C41.2135 76.9976 41.4514 76.8118 41.752 76.6768C42.0551 76.5419 42.3983 76.4744 42.7819 76.4744C43.3216 76.4744 43.7454 76.5928 44.0532 76.8295C44.3633 77.0663 44.5835 77.3788 44.7137 77.767ZM48.4468 76.5455L48.4468 77.2557L45.6201 77.2557L45.6201 76.5455L48.4468 76.5455ZM46.444 75.2386L47.282 75.2386L47.282 80.4375C47.282 80.6742 47.3164 80.8518 47.385 80.9702C47.4561 81.0862 47.546 81.1643 47.6549 81.2045C47.7662 81.2424 47.8834 81.2614 48.0065 81.2614C48.0988 81.2614 48.1746 81.2566 48.2338 81.2472C48.2929 81.2353 48.3403 81.2259 48.3758 81.2188L48.5463 81.9716C48.4894 81.9929 48.4101 82.0142 48.3083 82.0355C48.2065 82.0592 48.0775 82.071 47.9213 82.071C47.6845 82.071 47.4525 82.0201 47.2252 81.9183C47.0003 81.8165 46.8133 81.6615 46.6642 81.4531C46.5174 81.2448 46.444 80.982 46.444 80.6648L46.444 75.2386ZM51.3126 82.1278C50.9669 82.1278 50.6533 82.0627 50.3715 81.9325C50.0898 81.8 49.8661 81.6094 49.7004 81.3608C49.5347 81.1098 49.4518 80.8068 49.4518 80.4517C49.4518 80.1392 49.5133 79.8859 49.6365 79.6918C49.7596 79.4953 49.9241 79.3414 50.1301 79.2301C50.336 79.1188 50.5633 79.036 50.8119 78.9815C51.0628 78.9247 51.315 78.8797 51.5683 78.8466C51.8997 78.804 52.1684 78.772 52.3744 78.7507C52.5827 78.727 52.7342 78.688 52.8289 78.6335C52.926 78.5791 52.9745 78.4844 52.9745 78.3494L52.9745 78.321C52.9745 77.9706 52.8786 77.6984 52.6869 77.5043C52.4975 77.3101 52.2098 77.2131 51.824 77.2131C51.4239 77.2131 51.1102 77.3007 50.8829 77.4759C50.6556 77.651 50.4958 77.8381 50.4035 78.0369L49.608 77.7528C49.7501 77.4214 49.9395 77.1634 50.1762 76.9787C50.4153 76.7917 50.6758 76.6615 50.9575 76.5881C51.2416 76.5123 51.5209 76.4744 51.7955 76.4744C51.9707 76.4744 52.172 76.4957 52.3992 76.5384C52.6289 76.5786 52.8502 76.6626 53.0633 76.7905C53.2787 76.9183 53.4575 77.1113 53.5995 77.3693C53.7416 77.6274 53.8126 77.973 53.8126 78.4063L53.8126 82L52.9745 82L52.9745 81.2614L52.9319 81.2614C52.8751 81.3797 52.7804 81.5064 52.6478 81.6413C52.5152 81.7763 52.3389 81.8911 52.1187 81.9858C51.8985 82.0805 51.6298 82.1278 51.3126 82.1278ZM51.4404 81.375C51.7719 81.375 52.0512 81.3099 52.2785 81.1797C52.5081 81.0495 52.681 80.8814 52.797 80.6754C52.9153 80.4695 52.9745 80.2528 52.9745 80.0256L52.9745 79.2585C52.939 79.3011 52.8609 79.3402 52.7401 79.3757C52.6218 79.4089 52.4845 79.4384 52.3282 79.4645C52.1743 79.4882 52.024 79.5095 51.8772 79.5284C51.7328 79.545 51.6156 79.5592 51.5257 79.571C51.3079 79.5994 51.1043 79.6456 50.9149 79.7095C50.7278 79.7711 50.5763 79.8646 50.4603 79.9901C50.3467 80.1132 50.2899 80.2813 50.2899 80.4943C50.2899 80.7855 50.3976 81.0057 50.613 81.1548C50.8308 81.3016 51.1066 81.375 51.4404 81.375ZM57.5581 82.1136C57.0468 82.1136 56.6064 81.9929 56.2371 81.7514C55.8678 81.5099 55.5837 81.1773 55.3849 80.7536C55.186 80.3298 55.0866 79.8456 55.0866 79.3011C55.0866 78.7472 55.1884 78.2583 55.392 77.8345C55.5979 77.4084 55.8844 77.0758 56.2513 76.8366C56.6206 76.5952 57.0515 76.4744 57.5439 76.4744C57.9275 76.4744 58.2731 76.5455 58.5809 76.6875C58.8886 76.8295 59.1408 77.0284 59.3373 77.2841C59.5338 77.5398 59.6557 77.8381 59.703 78.179L58.865 78.179C58.801 77.9304 58.659 77.7102 58.4388 77.5185C58.221 77.3243 57.9275 77.2273 57.5581 77.2273C57.2314 77.2273 56.945 77.3125 56.6988 77.483C56.4549 77.651 56.2644 77.889 56.127 78.1967C55.9921 78.5021 55.9246 78.8608 55.9246 79.2727C55.9246 79.6941 55.9909 80.0611 56.1235 80.3736C56.2584 80.6861 56.4478 80.9287 56.6917 81.1016C56.9379 81.2744 57.2267 81.3608 57.5581 81.3608C57.776 81.3608 57.9736 81.3229 58.1512 81.2472C58.3287 81.1714 58.4791 81.0625 58.6022 80.9205C58.7253 80.7784 58.8129 80.608 58.865 80.4091L59.703 80.4091C59.6557 80.7311 59.5385 81.0211 59.3515 81.2791C59.1668 81.5348 58.9218 81.7384 58.6164 81.8899C58.3134 82.0391 57.9606 82.1136 57.5581 82.1136ZM61.7094 80.0114L61.6952 78.9744L61.8657 78.9744L64.252 76.5455L65.289 76.5455L62.7464 79.1165L62.6753 79.1165L61.7094 80.0114ZM60.9282 82L60.9282 74.7273L61.7662 74.7273L61.7662 82L60.9282 82ZM64.3941 82L62.2634 79.3011L62.86 78.7188L65.4594 82L64.3941 82ZM69.1801 84.0455L69.1801 76.5455L69.9898 76.5455L69.9898 77.4119L70.0892 77.4119C70.1508 77.3172 70.236 77.1965 70.3449 77.0497C70.4562 76.9006 70.6148 76.768 70.8208 76.652C71.0291 76.5336 71.3108 76.4744 71.6659 76.4744C72.1252 76.4744 72.53 76.5893 72.8804 76.8189C73.2308 77.0485 73.5042 77.3741 73.7007 77.7955C73.8972 78.2169 73.9955 78.714 73.9955 79.2869C73.9955 79.8646 73.8972 80.3653 73.7007 80.7891C73.5042 81.2105 73.232 81.5372 72.884 81.7692C72.536 81.9988 72.1347 82.1136 71.6801 82.1136C71.3298 82.1136 71.0492 82.0556 70.8385 81.9396C70.6278 81.8213 70.4656 81.6875 70.352 81.5384C70.2384 81.3868 70.1508 81.2614 70.0892 81.1619L70.0182 81.1619L70.0182 84.0455L69.1801 84.0455ZM70.004 79.2727C70.004 79.6847 70.0644 80.0481 70.1851 80.3629C70.3058 80.6754 70.4822 80.9205 70.7142 81.098C70.9462 81.2732 71.2303 81.3608 71.5665 81.3608C71.9169 81.3608 72.2093 81.2685 72.4436 81.0838C72.6804 80.8968 72.8579 80.6458 72.9763 80.331C73.097 80.0137 73.1574 79.661 73.1574 79.2727C73.1574 78.8892 73.0982 78.5436 72.9798 78.2358C72.8638 77.9257 72.6875 77.6806 72.4507 77.5007C72.2164 77.3184 71.9216 77.2273 71.5665 77.2273C71.2256 77.2273 70.9391 77.3137 70.7071 77.4865C70.4751 77.657 70.2999 77.8961 70.1816 78.2038C70.0632 78.5092 70.004 78.8655 70.004 79.2727ZM76.879 82.1278C76.5334 82.1278 76.2197 82.0627 75.9379 81.9325C75.6562 81.8 75.4325 81.6094 75.2668 81.3608C75.1011 81.1099 75.0182 80.8068 75.0182 80.4517C75.0182 80.1392 75.0798 79.8859 75.2029 79.6918C75.326 79.4953 75.4905 79.3414 75.6965 79.2301C75.9024 79.1188 76.1297 79.036 76.3783 78.9815C76.6292 78.9247 76.8814 78.8797 77.1347 78.8466C77.4661 78.804 77.7348 78.772 77.9408 78.7507C78.1491 78.727 78.3006 78.688 78.3953 78.6335C78.4924 78.5791 78.5409 78.4844 78.5409 78.3494L78.5409 78.321C78.5409 77.9706 78.445 77.6984 78.2533 77.5043C78.0639 77.3101 77.7762 77.2131 77.3904 77.2131C76.9903 77.2131 76.6766 77.3007 76.4493 77.4759C76.222 77.651 76.0622 77.8381 75.9699 78.0369L75.1744 77.7528C75.3165 77.4214 75.5059 77.1634 75.7426 76.9787C75.9817 76.7917 76.2422 76.6615 76.5239 76.5881C76.808 76.5123 77.0873 76.4744 77.3619 76.4744C77.5371 76.4744 77.7384 76.4957 77.9656 76.5384C78.1953 76.5786 78.4166 76.6626 78.6297 76.7905C78.8451 76.9183 79.0239 77.1113 79.1659 77.3693C79.308 77.6274 79.379 77.973 79.379 78.4063L79.379 82L78.5409 82L78.5409 81.2614L78.4983 81.2614C78.4415 81.3797 78.3468 81.5064 78.2142 81.6413C78.0816 81.7763 77.9053 81.8911 77.6851 81.9858C77.4649 82.0805 77.1962 82.1278 76.879 82.1278ZM77.0068 81.375C77.3383 81.375 77.6176 81.3099 77.8449 81.1797C78.0745 81.0495 78.2474 80.8814 78.3634 80.6754C78.4817 80.4695 78.5409 80.2528 78.5409 80.0256L78.5409 79.2585C78.5054 79.3011 78.4273 79.3402 78.3066 79.3757C78.1882 79.4089 78.0509 79.4384 77.8946 79.4645C77.7407 79.4882 77.5904 79.5095 77.4436 79.5284C77.2992 79.545 77.182 79.5592 77.0921 79.571C76.8743 79.5994 76.6707 79.6456 76.4813 79.7095C76.2942 79.7711 76.1427 79.8646 76.0267 79.9901C75.9131 80.1132 75.8563 80.2813 75.8563 80.4943C75.8563 80.7855 75.964 81.0057 76.1794 81.1548C76.3972 81.3016 76.673 81.375 77.0068 81.375ZM80.5677 80.608L81.4626 80.608C81.4816 80.8542 81.5928 81.0412 81.7964 81.169C82.0024 81.2969 82.2699 81.3608 82.599 81.3608C82.9352 81.3608 83.2228 81.2921 83.4619 81.1548C83.701 81.0152 83.8206 80.7902 83.8206 80.4801C83.8206 80.2978 83.7756 80.1392 83.6856 80.0043C83.5957 79.867 83.469 79.7604 83.3057 79.6847C83.1423 79.6089 82.9494 79.571 82.7268 79.571L81.7893 79.571L81.7893 78.8182L82.7268 78.8182C83.0606 78.8182 83.3068 78.7424 83.4655 78.5909C83.6264 78.4394 83.7069 78.25 83.7069 78.0227C83.7069 77.7789 83.6205 77.5836 83.4477 77.4368C83.2749 77.2876 83.0299 77.2131 82.7126 77.2131C82.393 77.2131 82.1267 77.2853 81.9136 77.4297C81.7006 77.5717 81.5881 77.7552 81.5763 77.9801L80.6956 77.9801C80.705 77.6866 80.795 77.4273 80.9655 77.2024C81.1359 76.9751 81.3679 76.7976 81.6615 76.6697C81.955 76.5395 82.2912 76.4744 82.67 76.4744C83.0535 76.4744 83.3862 76.5419 83.6679 76.6768C83.952 76.8094 84.171 76.9905 84.3248 77.2202C84.4811 77.4474 84.5592 77.7055 84.5592 77.9943C84.5592 78.3021 84.4728 78.5507 84.3 78.7401C84.1272 78.9295 83.9105 79.0644 83.6501 79.1449L83.6501 79.2017C83.8561 79.2159 84.0348 79.2822 84.1863 79.4006C84.3402 79.5166 84.4598 79.6693 84.545 79.8587C84.6302 80.0457 84.6729 80.2528 84.6729 80.4801C84.6729 80.8116 84.5841 81.1004 84.4065 81.3466C84.229 81.5904 83.9851 81.7798 83.675 81.9148C83.3648 82.0474 83.0109 82.1136 82.6132 82.1136C82.2273 82.1136 81.8817 82.0509 81.5763 81.9254C81.2709 81.7976 81.0282 81.6212 80.8483 81.3963C80.6707 81.169 80.5772 80.9063 80.5677 80.608ZM85.8501 84.0455L85.8501 76.5455L86.6597 76.5455L86.6597 77.4119L86.7591 77.4119C86.8207 77.3172 86.9059 77.1965 87.0148 77.0497C87.1261 76.9006 87.2847 76.768 87.4907 76.652C87.699 76.5336 87.9807 76.4744 88.3358 76.4744C88.7951 76.4744 89.2 76.5893 89.5503 76.8189C89.9007 77.0485 90.1742 77.3741 90.3706 77.7955C90.5671 78.2169 90.6654 78.714 90.6654 79.2869C90.6654 79.8646 90.5671 80.3653 90.3706 80.7891C90.1742 81.2105 89.9019 81.5372 89.5539 81.7692C89.2059 81.9988 88.8046 82.1136 88.3501 82.1136C87.9997 82.1136 87.7191 82.0556 87.5084 81.9396C87.2977 81.8213 87.1356 81.6875 87.0219 81.5384C86.9083 81.3868 86.8207 81.2614 86.7591 81.1619L86.6881 81.1619L86.6881 84.0455L85.8501 84.0455ZM86.6739 79.2727C86.6739 79.6847 86.7343 80.0481 86.855 80.3629C86.9758 80.6754 87.1521 80.9205 87.3841 81.098C87.6162 81.2732 87.9002 81.3608 88.2364 81.3608C88.5868 81.3608 88.8792 81.2685 89.1135 81.0838C89.3503 80.8968 89.5278 80.6458 89.6462 80.331C89.767 80.0137 89.8273 79.661 89.8273 79.2727C89.8273 78.8892 89.7681 78.5436 89.6498 78.2358C89.5338 77.9257 89.3574 77.6806 89.1206 77.5007C88.8863 77.3184 88.5915 77.2273 88.2364 77.2273C87.8955 77.2273 87.609 77.3137 87.377 77.4865C87.145 77.657 86.9698 77.8961 86.8515 78.2038C86.7331 78.5092 86.6739 78.8655 86.6739 79.2727ZM93.5489 82.1278C93.2033 82.1278 92.8896 82.0627 92.6079 81.9325C92.3261 81.8 92.1024 81.6094 91.9367 81.3608C91.771 81.1099 91.6881 80.8068 91.6881 80.4517C91.6881 80.1392 91.7497 79.8859 91.8728 79.6918C91.9959 79.4953 92.1604 79.3414 92.3664 79.2301C92.5724 79.1188 92.7996 79.036 93.0482 78.9815C93.2992 78.9247 93.5513 78.8797 93.8046 78.8466C94.136 78.804 94.4047 78.772 94.6107 78.7507C94.819 78.727 94.9706 78.688 95.0653 78.6335C95.1623 78.5791 95.2108 78.4844 95.2108 78.3494L95.2108 78.321C95.2108 77.9706 95.115 77.6984 94.9232 77.5043C94.7338 77.3101 94.4462 77.2131 94.0603 77.2131C93.6602 77.2131 93.3465 77.3007 93.1192 77.4759C92.892 77.651 92.7322 77.8381 92.6398 78.0369L91.8444 77.7528C91.9864 77.4214 92.1758 77.1634 92.4126 76.9787C92.6517 76.7917 92.9121 76.6615 93.1938 76.5881C93.4779 76.5123 93.7573 76.4744 94.0319 76.4744C94.2071 76.4744 94.4083 76.4957 94.6356 76.5384C94.8652 76.5786 95.0866 76.6626 95.2996 76.7905C95.5151 76.9183 95.6938 77.1113 95.8358 77.3693C95.9779 77.6274 96.0489 77.973 96.0489 78.4063L96.0489 82L95.2108 82L95.2108 81.2614L95.1682 81.2614C95.1114 81.3797 95.0167 81.5064 94.8841 81.6413C94.7516 81.7763 94.5752 81.8911 94.355 81.9858C94.1349 82.0805 93.8662 82.1278 93.5489 82.1278ZM93.6768 81.375C94.0082 81.375 94.2876 81.3099 94.5148 81.1797C94.7445 81.0495 94.9173 80.8814 95.0333 80.6754C95.1517 80.4695 95.2108 80.2528 95.2108 80.0256L95.2108 79.2585C95.1753 79.3011 95.0972 79.3402 94.9765 79.3757C94.8581 79.4089 94.7208 79.4385 94.5645 79.4645C94.4107 79.4882 94.2603 79.5095 94.1135 79.5284C93.9691 79.545 93.8519 79.5592 93.762 79.571C93.5442 79.5994 93.3406 79.6456 93.1512 79.7095C92.9642 79.7711 92.8126 79.8646 92.6966 79.9901C92.583 80.1132 92.5262 80.2813 92.5262 80.4943C92.5262 80.7855 92.6339 81.0057 92.8493 81.1548C93.0671 81.3016 93.343 81.375 93.6768 81.375ZM101.627 74.5L102.053 75.0114C101.887 75.1724 101.696 75.2848 101.478 75.3487C101.26 75.4126 101.014 75.4517 100.739 75.4659C100.464 75.4801 100.159 75.4943 99.8229 75.5085C99.4441 75.5227 99.1304 75.6151 98.8818 75.7855C98.6333 75.956 98.4415 76.2022 98.3066 76.5242C98.1716 76.8461 98.0852 77.2415 98.0473 77.7102L98.1183 77.7102C98.303 77.3693 98.5587 77.1184 98.8854 76.9574C99.2121 76.7964 99.5625 76.7159 99.9365 76.7159C100.363 76.7159 100.746 76.8153 101.087 77.0142C101.428 77.2131 101.698 77.5078 101.897 77.8984C102.096 78.2891 102.195 78.7708 102.195 79.3438C102.195 79.9143 102.093 80.4067 101.89 80.821C101.688 81.2353 101.406 81.5549 101.041 81.7798C100.679 82.0024 100.254 82.1136 99.7661 82.1136C99.2784 82.1136 98.8511 81.9988 98.4841 81.7692C98.1172 81.5372 97.8319 81.1939 97.6283 80.7394C97.4247 80.2824 97.3229 79.7178 97.3229 79.0455L97.3229 78.4631C97.3229 77.2486 97.5289 76.3277 97.9408 75.7003C98.3551 75.0729 98.9777 74.7486 99.8087 74.7273C100.102 74.7178 100.364 74.7154 100.593 74.7202C100.823 74.7249 101.023 74.7143 101.194 74.6882C101.364 74.6622 101.508 74.5994 101.627 74.5ZM99.7661 81.3608C100.095 81.3608 100.378 81.2779 100.615 81.1122C100.854 80.9465 101.037 80.7133 101.165 80.4126C101.293 80.1096 101.357 79.7533 101.357 79.3438C101.357 78.946 101.292 78.6075 101.162 78.3281C101.034 78.0488 100.85 77.8357 100.611 77.6889C100.372 77.5421 100.086 77.4688 99.7519 77.4688C99.508 77.4688 99.289 77.5102 99.0949 77.593C98.9008 77.6759 98.7351 77.7978 98.5977 77.9588C98.4604 78.1198 98.3539 78.3163 98.2781 78.5483C98.2048 78.7803 98.1657 79.0455 98.161 79.3438C98.161 79.9545 98.3042 80.4434 98.5906 80.8104C98.8771 81.1773 99.2689 81.3608 99.7661 81.3608ZM105.693 82.1136C105.2 82.1136 104.768 81.9965 104.397 81.7621C104.027 81.5277 103.739 81.1998 103.53 80.7784C103.324 80.357 103.221 79.8646 103.221 79.3011C103.221 78.733 103.324 78.237 103.53 77.8132C103.739 77.3894 104.027 77.0604 104.397 76.826C104.768 76.5916 105.2 76.4744 105.693 76.4744C106.185 76.4744 106.616 76.5916 106.986 76.826C107.357 77.0604 107.646 77.3894 107.852 77.8132C108.06 78.237 108.165 78.733 108.165 79.3011C108.165 79.8646 108.06 80.357 107.852 80.7784C107.646 81.1998 107.357 81.5277 106.986 81.7621C106.616 81.9965 106.185 82.1136 105.693 82.1136ZM105.693 81.3608C106.067 81.3608 106.375 81.2649 106.616 81.0732C106.858 80.8814 107.036 80.6293 107.152 80.3168C107.268 80.0043 107.326 79.6657 107.326 79.3011C107.326 78.9366 107.268 78.5968 107.152 78.282C107.036 77.9671 106.858 77.7126 106.616 77.5185C106.375 77.3243 106.067 77.2273 105.693 77.2273C105.319 77.2273 105.011 77.3243 104.77 77.5185C104.528 77.7126 104.349 77.9671 104.233 78.282C104.117 78.5968 104.059 78.9366 104.059 79.3011C104.059 79.6657 104.117 80.0043 104.233 80.3168C104.349 80.6293 104.528 80.8814 104.77 81.0732C105.011 81.2649 105.319 81.3608 105.693 81.3608ZM108.731 77.3267L108.731 76.5455L113.163 76.5455L113.163 77.3267L111.373 77.3267L111.373 82L110.535 82L110.535 77.3267L108.731 77.3267ZM118.307 76.5455L118.307 82L117.468 82L117.468 76.5455L118.307 76.5455ZM117.98 79.1449L117.98 79.9261C117.79 79.9972 117.602 80.0599 117.415 80.1144C117.228 80.1664 117.032 80.2079 116.826 80.2386C116.62 80.2671 116.394 80.2813 116.147 80.2813C115.53 80.2813 115.034 80.1144 114.66 79.7805C114.288 79.4467 114.102 78.946 114.102 78.2784L114.102 76.5313L114.94 76.5313L114.94 78.2784C114.94 78.5578 114.993 78.7874 115.1 78.9673C115.206 79.1473 115.351 79.281 115.533 79.3686C115.715 79.4562 115.92 79.5 116.147 79.5C116.503 79.5 116.823 79.468 117.11 79.4041C117.399 79.3378 117.689 79.2514 117.98 79.1449ZM120.682 80.7642L123.31 76.5455L124.276 76.5455L124.276 82L123.438 82L123.438 77.7813L120.824 82L119.844 82L119.844 76.5455L120.682 76.5455L120.682 80.7642ZM125.811 82L125.811 76.5455L126.649 76.5455L126.649 78.9176L127.203 78.9176L129.163 76.5455L130.243 76.5455L128.041 79.1733L130.271 82L129.192 82L127.402 79.6989L126.649 79.6989L126.649 82L125.811 82Z" fill="#2B4554"/>
</g>
<defs>
<clipPath id="clip0_1291_3993">
<rect width="108" height="162" fill="white" transform="translate(0 108) rotate(-90)"/>
</clipPath>
</defs>
</svg>
