<svg width="162" height="108" viewBox="0 0 162 108" fill="none" xmlns="http://www.w3.org/2000/svg">
<g clip-path="url(#clip0_1291_3922)">
<path d="M160.854 10.051L160.854 97.949C160.854 102.858 156.849 106.854 151.922 106.854L10.0777 106.854C5.1506 106.854 1.14629 102.858 1.14629 97.949L1.14628 10.051C1.14628 5.1423 5.1506 1.14629 10.0777 1.14629L151.922 1.14628C156.849 1.14628 160.854 5.14229 160.854 10.051Z" fill="white" stroke="#2B4554" stroke-width="1.4"/>
<path d="M154.859 13.8214L154.859 94.6849C154.859 98.1222 152.117 100.86 148.675 100.86L12.8766 100.86C9.435 100.86 6.69336 98.1222 6.69336 94.6849L6.69336 13.7631C6.69336 10.3258 9.435 7.58763 12.8766 7.58763L148.617 7.58763C152.059 7.64589 154.859 10.3841 154.859 13.8214Z" stroke="#2B4554" stroke-width="0.6" stroke-miterlimit="10"/>
<path d="M23.9999 74.5716L23.9999 105.429L16.857 105.429C8.96227 105.429 2.57129 98.8833 2.57129 90.7977L2.57129 74.5716L23.9999 74.5716Z" fill="white"/>
<path d="M137.9 33.0254L137.9 2.232L145.19 2.232C153.246 2.232 159.768 8.76394 159.768 16.8328L159.768 33.0254L137.9 33.0254Z" fill="white"/>
<path d="M6.66602 92.1942C9.52632 92.1942 12.3866 92.1942 15.2469 92.1942C15.2469 92.2525 15.2469 92.2525 15.2469 92.3108C15.2469 93.9429 15.2469 95.575 15.2469 97.2071C15.2469 98.8975 14.0211 100.413 12.3282 100.704C12.1531 100.704 12.0364 100.763 11.8613 100.763C11.2775 100.763 10.6938 100.763 10.1684 100.763C8.59234 100.763 7.19138 99.5969 6.84114 98.0231C6.78276 97.79 6.78276 97.4985 6.72439 97.2654C6.72439 95.6333 6.72439 94.0012 6.72439 92.3691C6.66602 92.2525 6.66602 92.2525 6.66602 92.1942ZM9.3512 94.8172C9.3512 94.8755 9.3512 94.8755 9.3512 94.8755C9.3512 95.6333 9.3512 96.391 9.3512 97.1488C9.3512 97.6734 9.75981 98.0231 10.2268 98.0231C10.6938 98.0231 11.1608 98.0231 11.6278 98.0231C12.1531 98.0231 12.5617 97.6151 12.5617 97.0905C12.5617 96.3327 12.5617 95.6333 12.5617 94.8755C12.5617 94.8172 12.5617 94.8172 12.5617 94.7589C11.511 94.8172 10.4019 94.8172 9.3512 94.8172Z" fill="#4C7B96"/>
<path d="M6.66602 90.5625C6.66602 90.5042 6.66602 90.5042 6.66602 90.4459C6.66602 88.8138 6.66602 87.1235 6.66602 85.4914C6.66602 84.0342 7.54162 82.7518 8.88421 82.2272C9.29282 82.0523 9.75981 81.994 10.1684 81.994C10.6938 81.994 11.2191 81.994 11.7445 81.994C13.4373 81.994 14.8967 83.1598 15.1885 84.8502C15.2469 85.0834 15.2469 85.3748 15.2469 85.6079C15.2469 86.3657 15.2469 87.0652 15.2469 87.8229C15.2469 87.8812 15.2469 87.8812 15.2469 87.9395C16.356 87.9395 17.4651 87.9395 18.5742 87.9395C18.5742 88.8138 18.5742 89.6882 18.5742 90.5625C14.6632 90.5625 10.6938 90.5625 6.66602 90.5625ZM12.6785 87.9395L12.6785 87.8812C12.6785 87.0652 12.6785 86.3074 12.6785 85.4914C12.6785 84.9668 12.2699 84.617 11.8029 84.617C11.2775 84.617 10.8105 84.617 10.2852 84.617C9.81818 84.617 9.3512 84.9668 9.3512 85.5497C9.3512 86.3074 9.3512 87.0652 9.3512 87.8229C9.3512 87.8812 9.3512 87.8812 9.3512 87.9395C10.4603 87.9395 11.5694 87.9395 12.6785 87.9395Z" fill="#4C7B96"/>
<path d="M154.934 15.9512C152.074 15.9512 149.214 15.9512 146.354 15.9512C146.354 15.8929 146.354 15.8929 146.354 15.8346C146.354 14.2025 146.354 12.5704 146.354 10.9383C146.354 9.24795 147.579 7.73244 149.272 7.441C149.447 7.441 149.564 7.38271 149.739 7.38271C150.323 7.38271 150.907 7.38271 151.432 7.38271C153.008 7.38271 154.409 8.54849 154.759 10.1223C154.818 10.3554 154.818 10.6469 154.876 10.88C154.876 12.5121 154.876 14.1442 154.876 15.7763C154.934 15.8929 154.934 15.8929 154.934 15.9512ZM152.249 13.3282C152.249 13.2699 152.249 13.2699 152.249 13.2699C152.249 12.5121 152.249 11.7544 152.249 10.9966C152.249 10.472 151.841 10.1223 151.374 10.1223C150.907 10.1223 150.44 10.1223 149.973 10.1223C149.447 10.1223 149.039 10.5303 149.039 11.0549C149.039 11.8127 149.039 12.5121 149.039 13.2699C149.039 13.3282 149.039 13.3282 149.039 13.3865C150.089 13.3282 151.199 13.3282 152.249 13.3282Z" fill="#4C7B96"/>
<path d="M154.935 17.5829C154.935 17.6412 154.935 17.6412 154.935 17.6995C154.935 19.3316 154.935 21.022 154.935 22.654C154.935 24.1113 154.059 25.3936 152.716 25.9182C152.308 26.0931 151.841 26.1514 151.432 26.1514C150.907 26.1514 150.381 26.1514 149.856 26.1514C148.163 26.1514 146.704 24.9856 146.412 23.2952C146.354 23.0621 146.354 22.7706 146.354 22.5375C146.354 21.7797 146.354 21.0802 146.354 20.3225C146.354 20.2642 146.354 20.2642 146.354 20.2059C145.245 20.2059 144.135 20.2059 143.026 20.2059C143.026 19.3316 143.026 18.4572 143.026 17.5829C146.937 17.5829 150.907 17.5829 154.935 17.5829ZM148.922 20.2059L148.922 20.2642C148.922 21.0802 148.922 21.838 148.922 22.654C148.922 23.1786 149.331 23.5284 149.798 23.5284C150.323 23.5284 150.79 23.5284 151.315 23.5284C151.782 23.5284 152.249 23.1786 152.249 22.5957C152.249 21.838 152.249 21.0802 152.249 20.3225C152.249 20.2642 152.249 20.2642 152.249 20.2059C151.14 20.2059 150.031 20.2059 148.922 20.2059Z" fill="#4C7B96"/>
<path d="M30.1865 28L27.1865 23.9943L26.1127 23.9943L26.1127 28L25.0558 28L25.0558 19.2727L26.1127 19.2727L26.1127 23.0568L26.5729 23.0568L30.0672 19.2727L31.3286 19.2727L27.8002 23.108L31.4479 28L30.1865 28ZM34.8434 28.1534C34.4287 28.1534 34.0522 28.0753 33.7142 27.919C33.3761 27.7599 33.1076 27.5313 32.9088 27.233C32.7099 26.9318 32.6105 26.5682 32.6105 26.142C32.6105 25.767 32.6843 25.4631 32.8321 25.2301C32.9798 24.9943 33.1772 24.8097 33.4244 24.6761C33.6716 24.5426 33.9443 24.4432 34.2426 24.3778C34.5437 24.3097 34.8463 24.2557 35.1502 24.2159C35.548 24.1648 35.8704 24.1264 36.1176 24.1009C36.3676 24.0724 36.5494 24.0256 36.663 23.9602C36.7795 23.8949 36.8377 23.7813 36.8377 23.6193L36.8377 23.5852C36.8377 23.1648 36.7227 22.8381 36.4926 22.6051C36.2653 22.3722 35.9201 22.2557 35.4571 22.2557C34.9769 22.2557 34.6005 22.3608 34.3278 22.571C34.0551 22.7813 33.8633 23.0057 33.7525 23.2443L32.798 22.9034C32.9684 22.5057 33.1957 22.196 33.4798 21.9744C33.7667 21.75 34.0792 21.5938 34.4173 21.5057C34.7582 21.4148 35.0934 21.3693 35.423 21.3693C35.6332 21.3693 35.8747 21.3949 36.1474 21.446C36.423 21.4943 36.6886 21.5952 36.9443 21.7486C37.2028 21.902 37.4173 22.1335 37.5877 22.4432C37.7582 22.7528 37.8434 23.1676 37.8434 23.6875L37.8434 28L36.8377 28L36.8377 27.1136L36.7866 27.1136C36.7184 27.2557 36.6048 27.4077 36.4457 27.5696C36.2866 27.7315 36.075 27.8693 35.8108 27.983C35.5466 28.0966 35.2241 28.1534 34.8434 28.1534ZM34.9968 27.25C35.3946 27.25 35.7298 27.1719 36.0025 27.0156C36.2781 26.8594 36.4855 26.6577 36.6247 26.4105C36.7667 26.1634 36.8377 25.9034 36.8377 25.6307L36.8377 24.7102C36.7951 24.7614 36.7014 24.8082 36.5565 24.8509C36.4144 24.8906 36.2497 24.9261 36.0622 24.9574C35.8775 24.9858 35.6971 25.0114 35.521 25.0341C35.3477 25.054 35.2071 25.071 35.0991 25.0852C34.8377 25.1193 34.5934 25.1747 34.3662 25.2514C34.1417 25.3253 33.9599 25.4375 33.8207 25.5881C33.6843 25.7358 33.6162 25.9375 33.6162 26.1932C33.6162 26.5426 33.7454 26.8068 34.0039 26.9858C34.2653 27.1619 34.5963 27.25 34.9968 27.25ZM39.919 28L39.919 21.4545L45.0667 21.4545L45.0667 28L44.0611 28L44.0611 22.392L40.9247 22.392L40.9247 28L39.919 28ZM47.1434 30.4545L47.1434 21.4545L48.115 21.4545L48.115 22.4943L48.2343 22.4943C48.3082 22.3807 48.4104 22.2358 48.5411 22.0597C48.6746 21.8807 48.865 21.7216 49.1121 21.5824C49.3621 21.4403 49.7002 21.3693 50.1263 21.3693C50.6775 21.3693 51.1633 21.5071 51.5837 21.7827C52.0042 22.0582 52.3323 22.4489 52.5681 22.9545C52.8039 23.4602 52.9218 24.0568 52.9218 24.7443C52.9218 25.4375 52.8039 26.0384 52.5681 26.5469C52.3323 27.0526 52.0056 27.4446 51.588 27.723C51.1704 27.9986 50.6888 28.1364 50.1434 28.1364C49.7229 28.1364 49.3863 28.0668 49.1334 27.9276C48.8806 27.7855 48.686 27.625 48.5496 27.446C48.4133 27.2642 48.3082 27.1136 48.2343 26.9943L48.1491 26.9943L48.1491 30.4545L47.1434 30.4545ZM48.132 24.7273C48.132 25.2216 48.2045 25.6577 48.3493 26.0355C48.4942 26.4105 48.7059 26.7045 48.9843 26.9176C49.2627 27.1278 49.6036 27.233 50.007 27.233C50.4275 27.233 50.7783 27.1222 51.0596 26.9006C51.3437 26.6761 51.5567 26.375 51.6988 25.9972C51.8437 25.6165 51.9161 25.1932 51.9161 24.7273C51.9161 24.267 51.8451 23.8523 51.703 23.483C51.5638 23.1108 51.3522 22.8168 51.0681 22.6009C50.7868 22.3821 50.4332 22.2727 50.007 22.2727C49.5979 22.2727 49.2542 22.3764 48.9758 22.5838C48.6974 22.7884 48.4871 23.0753 48.3451 23.4446C48.203 23.8111 48.132 24.2386 48.132 24.7273ZM57.4402 28.1364C56.8095 28.1364 56.2655 27.9972 55.8081 27.7188C55.3536 27.4375 55.0027 27.0455 54.7555 26.5426C54.5112 26.0369 54.3891 25.4489 54.3891 24.7784C54.3891 24.108 54.5112 23.517 54.7555 23.0057C55.0027 22.4915 55.3465 22.0909 55.7868 21.804C56.23 21.5142 56.747 21.3693 57.3379 21.3693C57.6788 21.3693 58.0155 21.4261 58.3479 21.5398C58.6803 21.6534 58.9828 21.8381 59.2555 22.0938C59.5283 22.3466 59.7456 22.6818 59.9075 23.0994C60.0695 23.517 60.1504 24.0313 60.1504 24.642L60.1504 25.0682L55.105 25.0682L55.105 24.1989L59.1277 24.1989C59.1277 23.8295 59.0538 23.5 58.9061 23.2102C58.7612 22.9205 58.5538 22.6918 58.284 22.5241C58.0169 22.3565 57.7016 22.2727 57.3379 22.2727C56.9374 22.2727 56.5908 22.3722 56.2982 22.571C56.0084 22.767 55.7854 23.0227 55.6291 23.3381C55.4729 23.6534 55.3947 23.9915 55.3947 24.3523L55.3947 24.9318C55.3947 25.4261 55.48 25.8452 55.6504 26.1889C55.8237 26.5298 56.0638 26.7898 56.3706 26.9688C56.6774 27.1449 57.034 27.233 57.4402 27.233C57.7044 27.233 57.943 27.196 58.1561 27.1222C58.372 27.0455 58.5581 26.9318 58.7143 26.7813C58.8706 26.6278 58.9913 26.4375 59.0766 26.2102L60.0482 26.483C59.9459 26.8125 59.774 27.1023 59.5325 27.3523C59.2911 27.5994 58.9928 27.7926 58.6376 27.9318C58.2825 28.0682 57.8834 28.1364 57.4402 28.1364ZM66.3009 24.267L66.3009 25.2045L62.6873 25.2045L62.6873 24.267L66.3009 24.267ZM62.9259 21.4545L62.9259 28L61.9203 28L61.9203 21.4545L62.9259 21.4545ZM67.068 21.4545L67.068 28L66.0623 28L66.0623 21.4545L67.068 21.4545ZM70.1503 26.517L73.3037 21.4545L74.4628 21.4545L74.4628 28L73.4571 28L73.4571 22.9375L70.3208 28L69.1446 28L69.1446 21.4545L70.1503 21.4545L70.1503 26.517ZM80.9255 24.267L80.9255 25.2045L77.3118 25.2045L77.3118 24.267L80.9255 24.267ZM77.5505 21.4545L77.5505 28L76.5448 28L76.5448 21.4545L77.5505 21.4545ZM81.6925 21.4545L81.6925 28L80.6868 28L80.6868 21.4545L81.6925 21.4545ZM85.6953 28.1534C85.2805 28.1534 84.9041 28.0753 84.566 27.919C84.228 27.7599 83.9595 27.5313 83.7606 27.233C83.5618 26.9318 83.4623 26.5682 83.4623 26.142C83.4623 25.767 83.5362 25.4631 83.6839 25.2301C83.8317 24.9943 84.0291 24.8097 84.2763 24.6761C84.5234 24.5426 84.7962 24.4432 85.0944 24.3778C85.3956 24.3097 85.6981 24.2557 86.0021 24.2159C86.3998 24.1648 86.7223 24.1264 86.9694 24.1009C87.2194 24.0724 87.4013 24.0256 87.5149 23.9602C87.6314 23.8949 87.6896 23.7813 87.6896 23.6193L87.6896 23.5852C87.6896 23.1648 87.5746 22.8381 87.3444 22.6051C87.1172 22.3722 86.772 22.2557 86.3089 22.2557C85.8288 22.2557 85.4524 22.3608 85.1797 22.571C84.9069 22.7813 84.7152 23.0057 84.6044 23.2443L83.6498 22.9034C83.8203 22.5057 84.0476 22.196 84.3317 21.9744C84.6186 21.75 84.9311 21.5938 85.2692 21.5057C85.6101 21.4148 85.9453 21.3693 86.2748 21.3693C86.4851 21.3693 86.7265 21.3949 86.9993 21.446C87.2748 21.4943 87.5405 21.5952 87.7962 21.7486C88.0547 21.902 88.2692 22.1335 88.4396 22.4432C88.6101 22.7528 88.6953 23.1676 88.6953 23.6875L88.6953 28L87.6896 28L87.6896 27.1136L87.6385 27.1136C87.5703 27.2557 87.4567 27.4077 87.2976 27.5696C87.1385 27.7315 86.9268 27.8693 86.6626 27.983C86.3984 28.0966 86.076 28.1534 85.6953 28.1534ZM85.8487 27.25C86.2464 27.25 86.5817 27.1719 86.8544 27.0156C87.13 26.8594 87.3373 26.6577 87.4765 26.4105C87.6186 26.1634 87.6896 25.9034 87.6896 25.6307L87.6896 24.7102C87.647 24.7614 87.5533 24.8082 87.4084 24.8509C87.2663 24.8906 87.1015 24.9261 86.914 24.9574C86.7294 24.9858 86.549 25.0114 86.3729 25.0341C86.1996 25.054 86.0589 25.071 85.951 25.0852C85.6896 25.1193 85.4453 25.1747 85.218 25.2514C84.9936 25.3253 84.8118 25.4375 84.6726 25.5881C84.5362 25.7358 84.468 25.9375 84.468 26.1932C84.468 26.5426 84.5973 26.8068 84.8558 26.9858C85.1172 27.1619 85.4481 27.25 85.8487 27.25ZM25.0558 46L25.0558 37.2727L26.1127 37.2727L26.1127 41.1591L30.7661 41.1591L30.7661 37.2727L31.8229 37.2727L31.8229 46L30.7661 46L30.7661 42.0966L26.1127 42.0966L26.1127 46L25.0558 46ZM35.9684 46.1534C35.5537 46.1534 35.1772 46.0753 34.8392 45.919C34.5011 45.7599 34.2326 45.5313 34.0338 45.233C33.8349 44.9318 33.7355 44.5682 33.7355 44.142C33.7355 43.767 33.8093 43.4631 33.9571 43.2301C34.1048 42.9943 34.3022 42.8097 34.5494 42.6761C34.7966 42.5426 35.0693 42.4432 35.3676 42.3778C35.6687 42.3097 35.9713 42.2557 36.2752 42.2159C36.673 42.1648 36.9954 42.1264 37.2426 42.1009C37.4926 42.0724 37.6744 42.0256 37.788 41.9602C37.9045 41.8949 37.9627 41.7813 37.9627 41.6193L37.9627 41.5852C37.9627 41.1648 37.8477 40.8381 37.6176 40.6051C37.3903 40.3722 37.0451 40.2557 36.5821 40.2557C36.1019 40.2557 35.7255 40.3608 35.4528 40.571C35.1801 40.7813 34.9883 41.0057 34.8775 41.2443L33.923 40.9034C34.0934 40.5057 34.3207 40.196 34.6048 39.9744C34.8917 39.75 35.2042 39.5938 35.5423 39.5057C35.8832 39.4148 36.2184 39.3693 36.548 39.3693C36.7582 39.3693 36.9997 39.3949 37.2724 39.446C37.548 39.4943 37.8136 39.5952 38.0693 39.7486C38.3278 39.902 38.5423 40.1335 38.7127 40.4432C38.8832 40.7528 38.9684 41.1676 38.9684 41.6875L38.9684 46L37.9627 46L37.9627 45.1136L37.9116 45.1136C37.8434 45.2557 37.7298 45.4077 37.5707 45.5696C37.4116 45.7315 37.2 45.8693 36.9358 45.983C36.6716 46.0966 36.3491 46.1534 35.9684 46.1534ZM36.1218 45.25C36.5196 45.25 36.8548 45.1719 37.1275 45.0156C37.4031 44.8594 37.6105 44.6577 37.7497 44.4105C37.8917 44.1634 37.9627 43.9034 37.9627 43.6307L37.9627 42.7102C37.9201 42.7614 37.8264 42.8082 37.6815 42.8509C37.5394 42.8906 37.3747 42.9261 37.1872 42.9574C37.0025 42.9858 36.8221 43.0114 36.646 43.0341C36.4727 43.054 36.3321 43.071 36.2241 43.0852C35.9627 43.1193 35.7184 43.1747 35.4912 43.2514C35.2667 43.3253 35.0849 43.4375 34.9457 43.5881C34.8093 43.7358 34.7412 43.9375 34.7412 44.1932C34.7412 44.5426 34.8704 44.8068 35.1289 44.9858C35.3903 45.1619 35.7213 45.25 36.1218 45.25ZM40.1534 40.392L40.1534 39.4545L45.4716 39.4545L45.4716 40.392L43.3238 40.392L43.3238 46L42.3182 46L42.3182 40.392L40.1534 40.392ZM48.7648 46.1534C48.3501 46.1534 47.9736 46.0753 47.6356 45.919C47.2975 45.7599 47.029 45.5313 46.8302 45.233C46.6313 44.9318 46.5319 44.5682 46.5319 44.142C46.5319 43.767 46.6057 43.4631 46.7535 43.2301C46.9012 42.9943 47.0986 42.8097 47.3458 42.6761C47.593 42.5426 47.8657 42.4432 48.164 42.3778C48.4651 42.3097 48.7677 42.2557 49.0716 42.2159C49.4694 42.1648 49.7918 42.1264 50.039 42.1009C50.289 42.0724 50.4708 42.0256 50.5844 41.9602C50.7009 41.8949 50.7591 41.7813 50.7591 41.6193L50.7591 41.5852C50.7591 41.1648 50.6441 40.8381 50.414 40.6051C50.1867 40.3722 49.8415 40.2557 49.3785 40.2557C48.8984 40.2557 48.5219 40.3608 48.2492 40.571C47.9765 40.7813 47.7847 41.0057 47.6739 41.2443L46.7194 40.9034C46.8898 40.5057 47.1171 40.196 47.4012 39.9744C47.6881 39.75 48.0006 39.5938 48.3387 39.5057C48.6796 39.4148 49.0148 39.3693 49.3444 39.3693C49.5546 39.3693 49.7961 39.3949 50.0688 39.446C50.3444 39.4943 50.61 39.5952 50.8657 39.7486C51.1242 39.902 51.3387 40.1335 51.5091 40.4432C51.6796 40.7528 51.7648 41.1676 51.7648 41.6875L51.7648 46L50.7591 46L50.7591 45.1136L50.708 45.1136C50.6398 45.2557 50.5262 45.4077 50.3671 45.5696C50.208 45.7315 49.9964 45.8693 49.7322 45.983C49.468 46.0966 49.1455 46.1534 48.7648 46.1534ZM48.9182 45.25C49.316 45.25 49.6512 45.1719 49.9239 45.0156C50.1995 44.8594 50.4069 44.6577 50.5461 44.4105C50.6881 44.1634 50.7591 43.9034 50.7591 43.6307L50.7591 42.7102C50.7165 42.7614 50.6228 42.8082 50.4779 42.8509C50.3359 42.8906 50.1711 42.9261 49.9836 42.9574C49.7989 42.9858 49.6185 43.0114 49.4424 43.0341C49.2691 43.054 49.1285 43.071 49.0205 43.0852C48.7591 43.1193 48.5148 43.1747 48.2876 43.2514C48.0631 43.3253 47.8813 43.4375 47.7421 43.5881C47.6057 43.7358 47.5376 43.9375 47.5376 44.1932C47.5376 44.5426 47.6668 44.8068 47.9253 44.9858C48.1867 45.1619 48.5177 45.25 48.9182 45.25ZM53.2609 46L53.2609 45.0625L53.4995 45.0625C53.6955 45.0625 53.8589 45.0241 53.9896 44.9474C54.1202 44.8679 54.2254 44.7301 54.3049 44.5341C54.3873 44.3352 54.4498 44.0597 54.4924 43.7074C54.5379 43.3523 54.5705 42.9006 54.5904 42.3523L54.7097 39.4545L59.0734 39.4545L59.0734 46L58.0677 46L58.0677 40.392L55.6643 40.392L55.562 42.7273C55.5393 43.2642 55.491 43.7372 55.4171 44.1463C55.3461 44.5526 55.2367 44.8935 55.089 45.169C54.9441 45.4446 54.7509 45.652 54.5094 45.7912C54.268 45.9304 53.9654 46 53.6018 46L53.2609 46ZM62.0279 41.8239L63.9029 41.8239C64.6699 41.8239 65.2566 42.0185 65.6628 42.4077C66.0691 42.7969 66.2722 43.2898 66.2722 43.8864C66.2722 44.2784 66.1813 44.6349 65.9994 44.956C65.8176 45.2742 65.5506 45.5284 65.1983 45.7188C64.846 45.9063 64.4142 46 63.9029 46L61.1585 46L61.1585 39.4545L62.1642 39.4545L62.1642 45.0625L63.9029 45.0625C64.3006 45.0625 64.6273 44.9574 64.883 44.7472C65.1387 44.5369 65.2665 44.267 65.2665 43.9375C65.2665 43.5909 65.1387 43.3082 64.883 43.0895C64.6273 42.8707 64.3006 42.7614 63.9029 42.7614L62.0279 42.7614L62.0279 41.8239ZM71.9806 46L71.9806 40.375L70.2419 40.375C69.8499 40.375 69.5416 40.4659 69.3172 40.6477C69.0928 40.8295 68.9806 41.0795 68.9806 41.3977C68.9806 41.7102 69.0814 41.956 69.2831 42.1349C69.4877 42.3139 69.7675 42.4034 70.1226 42.4034L72.2363 42.4034L72.2363 43.3409L70.1226 43.3409C69.6794 43.3409 69.2973 43.2628 68.9763 43.1065C68.6553 42.9503 68.4081 42.7273 68.2348 42.4375C68.0615 42.1449 67.9749 41.7983 67.9749 41.3977C67.9749 40.9943 68.0658 40.6477 68.2476 40.358C68.4294 40.0682 68.6894 39.8452 69.0274 39.6889C69.3684 39.5327 69.7732 39.4545 70.2419 39.4545L72.9351 39.4545L72.9351 46L71.9806 46ZM67.6169 46L69.4749 42.7443L70.5658 42.7443L68.7078 46L67.6169 46Z" fill="#2B4554"/>
<path d="M23.999 58H131.999" stroke="#2B4554" stroke-width="1.4" stroke-linecap="round"/>
<path d="M29.6524 74.7273L30.5331 74.7273L30.5331 79.5426C30.5331 80.0398 30.4159 80.4837 30.1816 80.8743C29.9495 81.2625 29.6217 81.5691 29.1979 81.794C28.7741 82.0166 28.277 82.1278 27.7064 82.1278C27.1359 82.1278 26.6387 82.0166 26.2149 81.794C25.7912 81.5691 25.4621 81.2625 25.2277 80.8743C24.9957 80.4837 24.8797 80.0398 24.8797 79.5426L24.8797 74.7273L25.7604 74.7273L25.7604 79.4716C25.7604 79.8267 25.8385 80.1428 25.9948 80.4197C26.151 80.6944 26.3735 80.911 26.6624 81.0696C26.9536 81.2259 27.3016 81.304 27.7064 81.304C28.1112 81.304 28.4593 81.2259 28.7504 81.0696C29.0416 80.911 29.2642 80.6944 29.4181 80.4197C29.5743 80.1428 29.6524 79.8267 29.6524 79.4716L29.6524 74.7273ZM32.718 74.7273L34.593 77.7528L34.6498 77.7528L36.5248 74.7273L37.5617 74.7273L35.2748 78.3636L37.5617 82L36.5248 82L34.6498 79.0313L34.593 79.0313L32.718 82L31.681 82L34.0248 78.3636L31.681 74.7273L32.718 74.7273ZM41.1652 74.3864L38.8215 83.0938L38.0544 83.0938L40.3982 74.3864L41.1652 74.3864ZM47.045 74.7273L47.9257 74.7273L47.9257 79.5426C47.9257 80.0398 47.8085 80.4837 47.5741 80.8743C47.3421 81.2625 47.0142 81.5691 46.5905 81.794C46.1667 82.0166 45.6695 82.1278 45.099 82.1278C44.5284 82.1278 44.0313 82.0166 43.6075 81.794C43.1837 81.5691 42.8547 81.2625 42.6203 80.8743C42.3883 80.4837 42.2723 80.0398 42.2723 79.5426L42.2723 74.7273L43.153 74.7273L43.153 79.4716C43.153 79.8267 43.2311 80.1428 43.3873 80.4197C43.5436 80.6944 43.7661 80.911 44.055 81.0696C44.3461 81.2259 44.6942 81.304 45.099 81.304C45.5038 81.304 45.8518 81.2259 46.143 81.0696C46.4342 80.911 46.6568 80.6944 46.8106 80.4197C46.9669 80.1428 47.045 79.8267 47.045 79.4716L47.045 74.7273ZM50.5651 74.7273L50.5651 82L49.6844 82L49.6844 74.7273L50.5651 74.7273ZM55.3422 77.973L55.3422 78.7543L52.1604 78.7543L52.1604 77.973L55.3422 77.973ZM56.2345 83.5625L56.2345 81.2188L56.689 81.2188C56.8003 81.1027 56.8962 80.9773 56.9767 80.8423C57.0571 80.7074 57.127 80.5476 57.1862 80.3629C57.2477 80.1759 57.2998 79.9486 57.3424 79.6811C57.385 79.4112 57.4229 79.0857 57.4561 78.7045L57.6407 76.5455L61.1066 76.5455L61.1066 81.2188L61.9447 81.2188L61.9447 83.5625L61.1066 83.5625L61.1066 82L57.0725 82L57.0725 83.5625L56.2345 83.5625ZM57.6407 81.2188L60.2686 81.2188L60.2686 77.3267L58.422 77.3267L58.2799 78.7045C58.2207 79.2751 58.1473 79.7734 58.0597 80.1996C57.9722 80.6257 57.8325 80.9654 57.6407 81.2188ZM63.8952 80.7642L66.523 76.5455L67.4889 76.5455L67.4889 82L66.6508 82L66.6508 77.7813L64.0372 82L63.0571 82L63.0571 76.5455L63.8952 76.5455L63.8952 80.7642ZM68.683 80.608L69.5779 80.608C69.5968 80.8542 69.7081 81.0412 69.9117 81.169C70.1176 81.2969 70.3851 81.3608 70.7142 81.3608C71.0504 81.3608 71.338 81.2921 71.5771 81.1548C71.8163 81.0152 71.9358 80.7902 71.9358 80.4801C71.9358 80.2978 71.8908 80.1392 71.8009 80.0043C71.7109 79.867 71.5843 79.7604 71.4209 79.6847C71.2575 79.6089 71.0646 79.571 70.8421 79.571L69.9046 79.571L69.9046 78.8182L70.8421 78.8182C71.1759 78.8182 71.4221 78.7424 71.5807 78.5909C71.7417 78.4394 71.8222 78.25 71.8222 78.0227C71.8222 77.7789 71.7358 77.5836 71.5629 77.4368C71.3901 77.2876 71.1451 77.2131 70.8279 77.2131C70.5083 77.2131 70.2419 77.2853 70.0289 77.4297C69.8158 77.5717 69.7033 77.7552 69.6915 77.9801L68.8108 77.9801C68.8203 77.6866 68.9102 77.4273 69.0807 77.2024C69.2512 76.9751 69.4832 76.7976 69.7767 76.6697C70.0703 76.5395 70.4065 76.4744 70.7852 76.4744C71.1688 76.4744 71.5014 76.5419 71.7831 76.6768C72.0672 76.8094 72.2862 76.9905 72.4401 77.2202C72.5963 77.4474 72.6744 77.7055 72.6744 77.9943C72.6744 78.3021 72.588 78.5507 72.4152 78.7401C72.2424 78.9295 72.0258 79.0644 71.7654 79.1449L71.7654 79.2017C71.9713 79.2159 72.1501 79.2822 72.3016 79.4006C72.4555 79.5166 72.575 79.6693 72.6602 79.8587C72.7455 80.0457 72.7881 80.2528 72.7881 80.4801C72.7881 80.8116 72.6993 81.1004 72.5218 81.3466C72.3442 81.5904 72.1003 81.7798 71.7902 81.9148C71.4801 82.0474 71.1262 82.1136 70.7284 82.1136C70.3425 82.1136 69.9969 82.0509 69.6915 81.9254C69.3861 81.7976 69.1434 81.6212 68.9635 81.3963C68.786 81.169 68.6924 80.9063 68.683 80.608ZM75.5704 82.1278C75.2248 82.1278 74.9111 82.0627 74.6293 81.9325C74.3476 81.8 74.1239 81.6094 73.9582 81.3608C73.7925 81.1099 73.7096 80.8068 73.7096 80.4517C73.7096 80.1392 73.7712 79.8859 73.8943 79.6918C74.0174 79.4953 74.1819 79.3414 74.3879 79.2301C74.5938 79.1188 74.8211 79.036 75.0697 78.9815C75.3206 78.9247 75.5728 78.8797 75.8261 78.8466C76.1575 78.804 76.4262 78.772 76.6322 78.7507C76.8405 78.727 76.992 78.688 77.0867 78.6335C77.1838 78.5791 77.2323 78.4844 77.2323 78.3494L77.2323 78.321C77.2323 77.9706 77.1365 77.6984 76.9447 77.5043C76.7553 77.3101 76.4677 77.2131 76.0818 77.2131C75.6817 77.2131 75.368 77.3007 75.1407 77.4759C74.9134 77.651 74.7536 77.8381 74.6613 78.0369L73.8659 77.7528C74.0079 77.4214 74.1973 77.1634 74.434 76.9787C74.6731 76.7917 74.9336 76.6615 75.2153 76.5881C75.4994 76.5123 75.7787 76.4744 76.0534 76.4744C76.2285 76.4744 76.4298 76.4957 76.657 76.5384C76.8867 76.5786 77.108 76.6626 77.3211 76.7905C77.5365 76.9183 77.7153 77.1113 77.8573 77.3693C77.9994 77.6274 78.0704 77.973 78.0704 78.4063L78.0704 82L77.2323 82L77.2323 81.2614L77.1897 81.2614C77.1329 81.3797 77.0382 81.5064 76.9056 81.6413C76.7731 81.7763 76.5967 81.8911 76.3765 81.9858C76.1563 82.0805 75.8876 82.1278 75.5704 82.1278ZM75.6982 81.375C76.0297 81.375 76.309 81.3099 76.5363 81.1797C76.766 81.0495 76.9388 80.8814 77.0548 80.6754C77.1731 80.4695 77.2323 80.2528 77.2323 80.0256L77.2323 79.2585C77.1968 79.3011 77.1187 79.3402 76.998 79.3757C76.8796 79.4089 76.7423 79.4384 76.586 79.4645C76.4321 79.4882 76.2818 79.5095 76.135 79.5284C75.9906 79.545 75.8734 79.5592 75.7835 79.571C75.5657 79.5994 75.3621 79.6456 75.1727 79.7095C74.9856 79.7711 74.8341 79.8646 74.7181 79.9901C74.6045 80.1132 74.5477 80.2813 74.5477 80.4943C74.5477 80.7855 74.6554 81.0057 74.8708 81.1548C75.0886 81.3016 75.3644 81.375 75.6982 81.375ZM80.4381 80.7642L83.066 76.5455L84.0319 76.5455L84.0319 82L83.1938 82L83.1938 77.7813L80.5802 82L79.6001 82L79.6001 76.5455L80.4381 76.5455L80.4381 80.7642ZM82.512 74.7273L83.2932 74.7273C83.2932 75.1108 83.1607 75.4245 82.8955 75.6683C82.6304 75.9122 82.2705 76.0341 81.816 76.0341C81.3685 76.0341 81.0122 75.9122 80.7471 75.6683C80.4843 75.4245 80.3529 75.1108 80.3529 74.7273L81.1341 74.7273C81.1341 74.9119 81.185 75.0741 81.2868 75.2138C81.391 75.3535 81.5674 75.4233 81.816 75.4233C82.0645 75.4233 82.2421 75.3535 82.3486 75.2138C82.4575 75.0741 82.512 74.9119 82.512 74.7273ZM89.2174 78.8892L89.2174 79.6705L86.2061 79.6705L86.2061 78.8892L89.2174 78.8892ZM86.4049 76.5455L86.4049 82L85.5668 82L85.5668 76.5455L86.4049 76.5455ZM89.8566 76.5455L89.8566 82L89.0186 82L89.0186 76.5455L89.8566 76.5455ZM93.6741 82.1136C93.1485 82.1136 92.6952 81.9976 92.314 81.7656C91.9352 81.5313 91.6428 81.2045 91.4369 80.7855C91.2333 80.3641 91.1315 79.8741 91.1315 79.3153C91.1315 78.7566 91.2333 78.2642 91.4369 77.8381C91.6428 77.4096 91.9293 77.0758 92.2963 76.8367C92.6656 76.5952 93.0964 76.4744 93.5889 76.4744C93.873 76.4744 94.1535 76.5218 94.4305 76.6165C94.7075 76.7112 94.9596 76.8651 95.1869 77.0781C95.4142 77.2888 95.5953 77.5682 95.7302 77.9162C95.8651 78.2642 95.9326 78.6927 95.9326 79.2017L95.9326 79.5568L91.7281 79.5568L91.7281 78.8324L95.0803 78.8324C95.0803 78.5246 95.0188 78.25 94.8957 78.0085C94.7749 77.767 94.6021 77.5765 94.3772 77.4368C94.1547 77.2971 93.8919 77.2273 93.5889 77.2273C93.2551 77.2273 92.9662 77.3101 92.7224 77.4759C92.4809 77.6392 92.2951 77.8523 92.1649 78.1151C92.0347 78.3778 91.9695 78.6596 91.9695 78.9602L91.9695 79.4432C91.9695 79.8551 92.0406 80.2043 92.1826 80.4908C92.327 80.7749 92.5271 80.9915 92.7828 81.1406C93.0384 81.2874 93.3356 81.3608 93.6741 81.3608C93.8943 81.3608 94.0931 81.33 94.2707 81.2685C94.4506 81.2045 94.6057 81.1099 94.7359 80.9844C94.8661 80.8565 94.9667 80.6979 95.0377 80.5085L95.8474 80.7358C95.7622 81.0104 95.6189 81.2519 95.4177 81.4602C95.2165 81.6662 94.9679 81.8272 94.672 81.9432C94.376 82.0568 94.0434 82.1136 93.6741 82.1136ZM97.2075 84.0455L97.2075 76.5455L98.0171 76.5455L98.0171 77.4119L98.1166 77.4119C98.1781 77.3172 98.2633 77.1965 98.3722 77.0497C98.4835 76.9006 98.6421 76.768 98.8481 76.652C99.0564 76.5336 99.3382 76.4744 99.6933 76.4744C100.153 76.4744 100.557 76.5893 100.908 76.8189C101.258 77.0485 101.532 77.3741 101.728 77.7955C101.925 78.2169 102.023 78.714 102.023 79.2869C102.023 79.8646 101.925 80.3653 101.728 80.7891C101.532 81.2105 101.259 81.5372 100.911 81.7692C100.563 81.9988 100.162 82.1136 99.7075 82.1136C99.3571 82.1136 99.0766 82.0556 98.8659 81.9396C98.6552 81.8213 98.493 81.6875 98.3793 81.5384C98.2657 81.3868 98.1781 81.2614 98.1166 81.1619L98.0455 81.1619L98.0455 84.0455L97.2075 84.0455ZM98.0313 79.2727C98.0313 79.6847 98.0917 80.0481 98.2124 80.3629C98.3332 80.6754 98.5096 80.9205 98.7416 81.098C98.9736 81.2732 99.2577 81.3608 99.5938 81.3608C99.9442 81.3608 100.237 81.2685 100.471 81.0838C100.708 80.8968 100.885 80.6458 101.004 80.331C101.124 80.0137 101.185 79.661 101.185 79.2727C101.185 78.8892 101.126 78.5436 101.007 78.2358C100.891 77.9257 100.715 77.6806 100.478 77.5007C100.244 77.3184 99.949 77.2273 99.5938 77.2273C99.2529 77.2273 98.9665 77.3137 98.7345 77.4865C98.5025 77.657 98.3273 77.8961 98.2089 78.2038C98.0905 78.5092 98.0313 78.8655 98.0313 79.2727Z" fill="#2B4554"/>
</g>
<defs>
<clipPath id="clip0_1291_3922">
<rect width="108" height="162" fill="white" transform="translate(0 108) rotate(-90)"/>
</clipPath>
</defs>
</svg>
