<svg width="162" height="108" viewBox="0 0 162 108" fill="none" xmlns="http://www.w3.org/2000/svg">
<g clip-path="url(#clip0_1291_3940)">
<path d="M160.854 10.051L160.854 97.949C160.854 102.858 156.849 106.854 151.922 106.854L10.0777 106.854C5.1506 106.854 1.14629 102.858 1.14629 97.949L1.14628 10.051C1.14628 5.1423 5.1506 1.14629 10.0777 1.14629L151.922 1.14628C156.849 1.14628 160.854 5.14229 160.854 10.051Z" fill="white" stroke="#2B4554" stroke-width="1.4"/>
<path d="M154.859 13.8214L154.859 94.6849C154.859 98.1222 152.117 100.86 148.675 100.86L12.8766 100.86C9.435 100.86 6.69336 98.1222 6.69336 94.6849L6.69336 13.7631C6.69336 10.3258 9.435 7.58763 12.8766 7.58763L148.617 7.58763C152.059 7.64589 154.859 10.3841 154.859 13.8214Z" stroke="#2B4554" stroke-width="0.6" stroke-miterlimit="10"/>
<path d="M23.9999 74.5716L23.9999 105.429L16.857 105.429C8.96227 105.429 2.57129 98.8833 2.57129 90.7977L2.57129 74.5716L23.9999 74.5716Z" fill="white"/>
<path d="M137.9 33.0254L137.9 2.232L145.19 2.232C153.246 2.232 159.768 8.76394 159.768 16.8328L159.768 33.0254L137.9 33.0254Z" fill="white"/>
<path d="M6.66602 92.1942C9.52632 92.1942 12.3866 92.1942 15.2469 92.1942C15.2469 92.2525 15.2469 92.2525 15.2469 92.3108C15.2469 93.9429 15.2469 95.575 15.2469 97.2071C15.2469 98.8975 14.0211 100.413 12.3282 100.704C12.1531 100.704 12.0364 100.763 11.8613 100.763C11.2775 100.763 10.6938 100.763 10.1684 100.763C8.59234 100.763 7.19138 99.5969 6.84114 98.0231C6.78276 97.79 6.78276 97.4985 6.72439 97.2654C6.72439 95.6333 6.72439 94.0012 6.72439 92.3691C6.66602 92.2525 6.66602 92.2525 6.66602 92.1942ZM9.3512 94.8172C9.3512 94.8755 9.3512 94.8755 9.3512 94.8755C9.3512 95.6333 9.3512 96.391 9.3512 97.1488C9.3512 97.6734 9.75981 98.0231 10.2268 98.0231C10.6938 98.0231 11.1608 98.0231 11.6278 98.0231C12.1531 98.0231 12.5617 97.6151 12.5617 97.0905C12.5617 96.3327 12.5617 95.6333 12.5617 94.8755C12.5617 94.8172 12.5617 94.8172 12.5617 94.7589C11.511 94.8172 10.4019 94.8172 9.3512 94.8172Z" fill="#4C7B96"/>
<path d="M6.66602 90.5625C6.66602 90.5042 6.66602 90.5042 6.66602 90.4459C6.66602 88.8138 6.66602 87.1235 6.66602 85.4914C6.66602 84.0342 7.54162 82.7518 8.88421 82.2272C9.29282 82.0523 9.75981 81.994 10.1684 81.994C10.6938 81.994 11.2191 81.994 11.7445 81.994C13.4373 81.994 14.8967 83.1598 15.1885 84.8502C15.2469 85.0834 15.2469 85.3748 15.2469 85.6079C15.2469 86.3657 15.2469 87.0652 15.2469 87.8229C15.2469 87.8812 15.2469 87.8812 15.2469 87.9395C16.356 87.9395 17.4651 87.9395 18.5742 87.9395C18.5742 88.8138 18.5742 89.6882 18.5742 90.5625C14.6632 90.5625 10.6938 90.5625 6.66602 90.5625ZM12.6785 87.9395L12.6785 87.8812C12.6785 87.0652 12.6785 86.3074 12.6785 85.4914C12.6785 84.9668 12.2699 84.617 11.8029 84.617C11.2775 84.617 10.8105 84.617 10.2852 84.617C9.81818 84.617 9.3512 84.9668 9.3512 85.5497C9.3512 86.3074 9.3512 87.0652 9.3512 87.8229C9.3512 87.8812 9.3512 87.8812 9.3512 87.9395C10.4603 87.9395 11.5694 87.9395 12.6785 87.9395Z" fill="#4C7B96"/>
<path d="M154.934 15.9512C152.074 15.9512 149.214 15.9512 146.354 15.9512C146.354 15.8929 146.354 15.8929 146.354 15.8346C146.354 14.2025 146.354 12.5704 146.354 10.9383C146.354 9.24795 147.579 7.73244 149.272 7.441C149.447 7.441 149.564 7.38271 149.739 7.38271C150.323 7.38271 150.907 7.38271 151.432 7.38271C153.008 7.38271 154.409 8.54849 154.759 10.1223C154.818 10.3554 154.818 10.6469 154.876 10.88C154.876 12.5121 154.876 14.1442 154.876 15.7763C154.934 15.8929 154.934 15.8929 154.934 15.9512ZM152.249 13.3282C152.249 13.2699 152.249 13.2699 152.249 13.2699C152.249 12.5121 152.249 11.7544 152.249 10.9966C152.249 10.472 151.841 10.1223 151.374 10.1223C150.907 10.1223 150.44 10.1223 149.973 10.1223C149.447 10.1223 149.039 10.5303 149.039 11.0549C149.039 11.8127 149.039 12.5121 149.039 13.2699C149.039 13.3282 149.039 13.3282 149.039 13.3865C150.089 13.3282 151.199 13.3282 152.249 13.3282Z" fill="#4C7B96"/>
<path d="M154.935 17.5829C154.935 17.6412 154.935 17.6412 154.935 17.6995C154.935 19.3316 154.935 21.022 154.935 22.654C154.935 24.1113 154.059 25.3936 152.716 25.9182C152.308 26.0931 151.841 26.1514 151.432 26.1514C150.907 26.1514 150.381 26.1514 149.856 26.1514C148.163 26.1514 146.704 24.9856 146.412 23.2952C146.354 23.0621 146.354 22.7706 146.354 22.5375C146.354 21.7797 146.354 21.0802 146.354 20.3225C146.354 20.2642 146.354 20.2642 146.354 20.2059C145.245 20.2059 144.135 20.2059 143.026 20.2059C143.026 19.3316 143.026 18.4572 143.026 17.5829C146.937 17.5829 150.907 17.5829 154.935 17.5829ZM148.922 20.2059L148.922 20.2642C148.922 21.0802 148.922 21.838 148.922 22.654C148.922 23.1786 149.331 23.5284 149.798 23.5284C150.323 23.5284 150.79 23.5284 151.315 23.5284C151.782 23.5284 152.249 23.1786 152.249 22.5957C152.249 21.838 152.249 21.0802 152.249 20.3225C152.249 20.2642 152.249 20.2642 152.249 20.2059C151.14 20.2059 150.031 20.2059 148.922 20.2059Z" fill="#4C7B96"/>
<path d="M32.0786 31L31.0218 31C30.9593 30.696 30.8499 30.429 30.6936 30.1989C30.5402 29.9688 30.3527 29.7756 30.1311 29.6193C29.9124 29.4602 29.6695 29.3409 29.4024 29.2614C29.1354 29.1818 28.857 29.142 28.5672 29.142C28.0388 29.142 27.5601 29.2756 27.1311 29.5426C26.705 29.8097 26.3655 30.2031 26.1127 30.723C25.8627 31.2429 25.7377 31.8807 25.7377 32.6364C25.7377 33.392 25.8627 34.0298 26.1127 34.5497C26.3655 35.0696 26.705 35.4631 27.1311 35.7301C27.5601 35.9972 28.0388 36.1307 28.5672 36.1307C28.857 36.1307 29.1354 36.0909 29.4024 36.0114C29.6695 35.9318 29.9124 35.8139 30.1311 35.6577C30.3527 35.4986 30.5402 35.304 30.6936 35.0739C30.8499 34.8409 30.9593 34.5739 31.0218 34.2727L32.0786 34.2727C31.999 34.7188 31.8541 35.1179 31.6439 35.4702C31.4337 35.8224 31.1723 36.1222 30.8598 36.3693C30.5473 36.6136 30.1965 36.7997 29.8073 36.9276C29.4209 37.0554 29.0075 37.1193 28.5672 37.1193C27.8229 37.1193 27.161 36.9375 26.5814 36.5739C26.0019 36.2102 25.5459 35.6932 25.2135 35.0227C24.8811 34.3523 24.7149 33.5568 24.7149 32.6364C24.7149 31.7159 24.8811 30.9205 25.2135 30.25C25.5459 29.5795 26.0019 29.0625 26.5814 28.6989C27.161 28.3352 27.8229 28.1534 28.5672 28.1534C29.0075 28.1534 29.4209 28.2173 29.8073 28.3452C30.1965 28.473 30.5473 28.6605 30.8598 28.9077C31.1723 29.152 31.4337 29.4503 31.6439 29.8026C31.8541 30.152 31.999 30.5511 32.0786 31ZM35.8161 37.1534C35.4013 37.1534 35.0249 37.0753 34.6868 36.919C34.3488 36.7599 34.0803 36.5313 33.8814 36.233C33.6826 35.9318 33.5831 35.5682 33.5831 35.142C33.5831 34.767 33.657 34.4631 33.8047 34.2301C33.9524 33.9943 34.1499 33.8097 34.397 33.6761C34.6442 33.5426 34.9169 33.4432 35.2152 33.3778C35.5164 33.3097 35.8189 33.2557 36.1229 33.2159C36.5206 33.1648 36.8431 33.1264 37.0902 33.1009C37.3402 33.0724 37.522 33.0256 37.6357 32.9602C37.7522 32.8949 37.8104 32.7813 37.8104 32.6193L37.8104 32.5852C37.8104 32.1648 37.6953 31.8381 37.4652 31.6051C37.238 31.3722 36.8928 31.2557 36.4297 31.2557C35.9496 31.2557 35.5732 31.3608 35.3005 31.571C35.0277 31.7813 34.836 32.0057 34.7252 32.2443L33.7706 31.9034C33.9411 31.5057 34.1684 31.196 34.4524 30.9744C34.7394 30.75 35.0519 30.5938 35.3899 30.5057C35.7309 30.4148 36.0661 30.3693 36.3956 30.3693C36.6059 30.3693 36.8473 30.3949 37.1201 30.446C37.3956 30.4943 37.6613 30.5952 37.9169 30.7486C38.1755 30.902 38.3899 31.1335 38.5604 31.4432C38.7309 31.7528 38.8161 32.1676 38.8161 32.6875L38.8161 37L37.8104 37L37.8104 36.1136L37.7593 36.1136C37.6911 36.2557 37.5774 36.4077 37.4184 36.5696C37.2593 36.7315 37.0476 36.8693 36.7834 36.983C36.5192 37.0966 36.1968 37.1534 35.8161 37.1534ZM35.9695 36.25C36.3672 36.25 36.7024 36.1719 36.9752 36.0156C37.2507 35.8594 37.4581 35.6577 37.5973 35.4105C37.7394 35.1634 37.8104 34.9034 37.8104 34.6307L37.8104 33.7102C37.7678 33.7614 37.674 33.8082 37.5291 33.8509C37.3871 33.8906 37.2223 33.9261 37.0348 33.9574C36.8502 33.9858 36.6698 34.0114 36.4936 34.0341C36.3203 34.054 36.1797 34.071 36.0718 34.0852C35.8104 34.1193 35.5661 34.1747 35.3388 34.2514C35.1144 34.3253 34.9326 34.4375 34.7934 34.5881C34.657 34.7358 34.5888 34.9375 34.5888 35.1932C34.5888 35.5426 34.7181 35.8068 34.9766 35.9858C35.238 36.1619 35.5689 36.25 35.9695 36.25ZM45.2723 33.267L45.2723 34.2045L41.6587 34.2045L41.6587 33.267L45.2723 33.267ZM41.8973 30.4545L41.8973 37L40.8917 37L40.8917 30.4545L41.8973 30.4545ZM46.0394 30.4545L46.0394 37L45.0337 37L45.0337 30.4545L46.0394 30.4545ZM53.1615 30.4545L53.1615 37L52.1558 37L52.1558 30.4545L53.1615 30.4545ZM52.7694 33.5739L52.7694 34.5114C52.5422 34.5966 52.3163 34.6719 52.0919 34.7372C51.8675 34.7997 51.6317 34.8494 51.3845 34.8864C51.1373 34.9205 50.866 34.9375 50.5706 34.9375C49.8291 34.9375 49.2339 34.7372 48.7851 34.3366C48.3391 33.9361 48.116 33.3352 48.116 32.5341L48.116 30.4375L49.1217 30.4375L49.1217 32.5341C49.1217 32.8693 49.1856 33.1449 49.3135 33.3608C49.4413 33.5767 49.6146 33.7372 49.8334 33.8423C50.0521 33.9474 50.2979 34 50.5706 34C50.9967 34 51.3817 33.9616 51.7254 33.8849C52.072 33.8054 52.42 33.7017 52.7694 33.5739ZM57.1728 37.1534C56.758 37.1534 56.3816 37.0753 56.0435 36.919C55.7055 36.7599 55.437 36.5313 55.2381 36.233C55.0393 35.9318 54.9398 35.5682 54.9398 35.142C54.9398 34.767 55.0137 34.4631 55.1614 34.2301C55.3092 33.9943 55.5066 33.8097 55.7538 33.6761C56.0009 33.5426 56.2737 33.4432 56.5719 33.3778C56.8731 33.3097 57.1756 33.2557 57.4796 33.2159C57.8773 33.1648 58.1998 33.1264 58.4469 33.1009C58.6969 33.0724 58.8788 33.0256 58.9924 32.9602C59.1089 32.8949 59.1671 32.7813 59.1671 32.6193L59.1671 32.5852C59.1671 32.1648 59.0521 31.8381 58.8219 31.6051C58.5947 31.3722 58.2495 31.2557 57.7864 31.2557C57.3063 31.2557 56.9299 31.3608 56.6572 31.571C56.3844 31.7813 56.1927 32.0057 56.0819 32.2443L55.1273 31.9034C55.2978 31.5057 55.5251 31.196 55.8092 30.9744C56.0961 30.75 56.4086 30.5938 56.7467 30.5057C57.0876 30.4148 57.4228 30.3693 57.7523 30.3693C57.9626 30.3693 58.2041 30.3949 58.4768 30.446C58.7523 30.4943 59.018 30.5952 59.2737 30.7486C59.5322 30.902 59.7467 31.1335 59.9171 31.4432C60.0876 31.7528 60.1728 32.1676 60.1728 32.6875L60.1728 37L59.1671 37L59.1671 36.1136L59.116 36.1136C59.0478 36.2557 58.9342 36.4077 58.7751 36.5696C58.616 36.7315 58.4043 36.8693 58.1401 36.983C57.8759 37.0966 57.5535 37.1534 57.1728 37.1534ZM57.3262 36.25C57.7239 36.25 58.0592 36.1719 58.3319 36.0156C58.6075 35.8594 58.8148 35.6577 58.954 35.4105C59.0961 35.1634 59.1671 34.9034 59.1671 34.6307L59.1671 33.7102C59.1245 33.7614 59.0308 33.8082 58.8859 33.8509C58.7438 33.8906 58.579 33.9261 58.3915 33.9574C58.2069 33.9858 58.0265 34.0114 57.8504 34.0341C57.6771 34.054 57.5364 34.071 57.4285 34.0852C57.1671 34.1193 56.9228 34.1747 56.6955 34.2514C56.4711 34.3253 56.2893 34.4375 56.1501 34.5881C56.0137 34.7358 55.9455 34.9375 55.9455 35.1932C55.9455 35.5426 56.0748 35.8068 56.3333 35.9858C56.5947 36.1619 56.9256 36.25 57.3262 36.25ZM64.1745 37.1534C63.7597 37.1534 63.3833 37.0753 63.0453 36.919C62.7072 36.7599 62.4387 36.5313 62.2399 36.233C62.041 35.9318 61.9416 35.5682 61.9416 35.142C61.9416 34.767 62.0154 34.4631 62.1632 34.2301C62.3109 33.9943 62.5083 33.8097 62.7555 33.6761C63.0026 33.5426 63.2754 33.4432 63.5737 33.3778C63.8748 33.3097 64.1774 33.2557 64.4813 33.2159C64.8791 33.1648 65.2015 33.1264 65.4487 33.1009C65.6987 33.0724 65.8805 33.0256 65.9941 32.9602C66.1106 32.8949 66.1688 32.7813 66.1688 32.6193L66.1688 32.5852C66.1688 32.1648 66.0538 31.8381 65.8237 31.6051C65.5964 31.3722 65.2512 31.2557 64.7882 31.2557C64.308 31.2557 63.9316 31.3608 63.6589 31.571C63.3862 31.7813 63.1944 32.0057 63.0836 32.2443L62.1291 31.9034C62.2995 31.5057 62.5268 31.196 62.8109 30.9744C63.0978 30.75 63.4103 30.5938 63.7484 30.5057C64.0893 30.4148 64.4245 30.3693 64.7541 30.3693C64.9643 30.3693 65.2058 30.3949 65.4785 30.446C65.7541 30.4943 66.0197 30.5952 66.2754 30.7486C66.5339 30.902 66.7484 31.1335 66.9188 31.4432C67.0893 31.7528 67.1745 32.1676 67.1745 32.6875L67.1745 37L66.1688 37L66.1688 36.1136L66.1177 36.1136C66.0495 36.2557 65.9359 36.4077 65.7768 36.5696C65.6177 36.7315 65.4061 36.8693 65.1418 36.983C64.8776 37.0966 64.5552 37.1534 64.1745 37.1534ZM64.3279 36.25C64.7257 36.25 65.0609 36.1719 65.3336 36.0156C65.6092 35.8594 65.8166 35.6577 65.9558 35.4105C66.0978 35.1634 66.1688 34.9034 66.1688 34.6307L66.1688 33.7102C66.1262 33.7614 66.0325 33.8082 65.8876 33.8509C65.7455 33.8906 65.5808 33.9261 65.3933 33.9574C65.2086 33.9858 65.0282 34.0114 64.8521 34.0341C64.6788 34.054 64.5382 34.071 64.4302 34.0852C64.1688 34.1193 63.9245 34.1747 63.6972 34.2514C63.4728 34.3253 63.291 34.4375 63.1518 34.5881C63.0154 34.7358 62.9472 34.9375 62.9472 35.1932C62.9472 35.5426 63.0765 35.8068 63.335 35.9858C63.5964 36.1619 63.9274 36.25 64.3279 36.25ZM73.3594 37L72.2515 37L75.456 28.2727L76.5469 28.2727L79.7515 37L78.6435 37L76.0356 29.6534L75.9674 29.6534L73.3594 37ZM73.7685 33.5909L78.2344 33.5909L78.2344 34.5284L73.7685 34.5284L73.7685 33.5909ZM82.2202 35.517L85.3736 30.4545L86.5327 30.4545L86.5327 37L85.527 37L85.527 31.9375L82.3906 37L81.2145 37L81.2145 30.4545L82.2202 30.4545L82.2202 35.517ZM84.7088 28.2727L85.6463 28.2727C85.6463 28.733 85.4872 29.1094 85.169 29.402C84.8508 29.6946 84.419 29.8409 83.8736 29.8409C83.3366 29.8409 82.9091 29.6946 82.5909 29.402C82.2756 29.1094 82.1179 28.733 82.1179 28.2727L83.0554 28.2727C83.0554 28.4943 83.1165 28.6889 83.2386 28.8565C83.3636 29.0242 83.5753 29.108 83.8736 29.108C84.1719 29.108 84.3849 29.0242 84.5128 28.8565C84.6435 28.6889 84.7088 28.4943 84.7088 28.2727ZM87.9158 38.875L87.9158 36.0625L88.4612 36.0625C88.5947 35.9233 88.7098 35.7727 88.8064 35.6108C88.903 35.4489 88.9868 35.2571 89.0578 35.0355C89.1317 34.8111 89.1942 34.5384 89.2453 34.2173C89.2965 33.8935 89.3419 33.5028 89.3817 33.0455L89.6033 30.4545L93.7624 30.4545L93.7624 36.0625L94.768 36.0625L94.768 38.875L93.7624 38.875L93.7624 37L88.9215 37L88.9215 38.875L87.9158 38.875ZM89.6033 36.0625L92.7567 36.0625L92.7567 31.392L90.5408 31.392L90.3703 33.0455C90.2993 33.7301 90.2112 34.3281 90.1061 34.8395C90.001 35.3509 89.8334 35.7585 89.6033 36.0625ZM97.3486 35.517L100.502 30.4545L101.661 30.4545L101.661 37L100.655 37L100.655 31.9375L97.5191 37L96.3429 37L96.3429 30.4545L97.3486 30.4545L97.3486 35.517ZM106.402 37.1364C105.789 37.1364 105.26 36.9915 104.817 36.7017C104.374 36.4119 104.033 36.0128 103.794 35.5043C103.556 34.9957 103.436 34.4148 103.436 33.7614C103.436 33.0966 103.558 32.5099 103.803 32.0014C104.05 31.4901 104.394 31.0909 104.834 30.804C105.277 30.5142 105.794 30.3693 106.385 30.3693C106.845 30.3693 107.26 30.4546 107.629 30.625C107.999 30.7955 108.301 31.0341 108.537 31.3409C108.773 31.6477 108.919 32.0057 108.976 32.4148L107.97 32.4148C107.894 32.1165 107.723 31.8523 107.459 31.6222C107.198 31.3892 106.845 31.2727 106.402 31.2727C106.01 31.2727 105.666 31.375 105.371 31.5795C105.078 31.7813 104.85 32.0668 104.685 32.4361C104.523 32.8026 104.442 33.233 104.442 33.7273C104.442 34.233 104.521 34.6733 104.681 35.0483C104.843 35.4233 105.07 35.7145 105.362 35.9219C105.658 36.1293 106.004 36.233 106.402 36.233C106.664 36.233 106.901 36.1875 107.114 36.0966C107.327 36.0057 107.507 35.875 107.655 35.7046C107.803 35.5341 107.908 35.3296 107.97 35.0909L108.976 35.0909C108.919 35.4773 108.779 35.8253 108.554 36.1349C108.333 36.4418 108.039 36.6861 107.672 36.8679C107.308 37.0469 106.885 37.1364 106.402 37.1364ZM112.612 37.1534C112.198 37.1534 111.821 37.0753 111.483 36.919C111.145 36.7599 110.877 36.5313 110.678 36.233C110.479 35.9318 110.379 35.5682 110.379 35.1421C110.379 34.7671 110.453 34.4631 110.601 34.2301C110.749 33.9943 110.946 33.8097 111.193 33.6761C111.44 33.5426 111.713 33.4432 112.011 33.3778C112.313 33.3097 112.615 33.2557 112.919 33.2159C113.317 33.1648 113.639 33.1264 113.886 33.1009C114.136 33.0724 114.318 33.0256 114.432 32.9602C114.548 32.8949 114.607 32.7813 114.607 32.6193L114.607 32.5852C114.607 32.1648 114.492 31.8381 114.261 31.6051C114.034 31.3722 113.689 31.2557 113.226 31.2557C112.746 31.2557 112.369 31.3608 112.097 31.571C111.824 31.7813 111.632 32.0057 111.521 32.2443L110.567 31.9034C110.737 31.5057 110.965 31.196 111.249 30.9744C111.536 30.75 111.848 30.5938 112.186 30.5057C112.527 30.4148 112.862 30.3693 113.192 30.3693C113.402 30.3693 113.644 30.3949 113.916 30.446C114.192 30.4943 114.458 30.5952 114.713 30.7486C114.972 30.902 115.186 31.1335 115.357 31.4432C115.527 31.7528 115.612 32.1676 115.612 32.6875L115.612 37L114.607 37L114.607 36.1136L114.556 36.1136C114.487 36.2557 114.374 36.4077 114.215 36.5696C114.056 36.7315 113.844 36.8693 113.58 36.983C113.315 37.0966 112.993 37.1534 112.612 37.1534ZM112.766 36.25C113.163 36.25 113.499 36.1719 113.771 36.0156C114.047 35.8594 114.254 35.6577 114.394 35.4105C114.536 35.1634 114.607 34.9034 114.607 34.6307L114.607 33.7102C114.564 33.7614 114.47 33.8082 114.325 33.8509C114.183 33.8906 114.019 33.9261 113.831 33.9574C113.646 33.9858 113.466 34.0114 113.29 34.0341C113.117 34.054 112.976 34.071 112.868 34.0852C112.607 34.1193 112.362 34.1747 112.135 34.2514C111.911 34.3253 111.729 34.4375 111.59 34.5881C111.453 34.7358 111.385 34.9375 111.385 35.1932C111.385 35.5426 111.514 35.8068 111.773 35.9858C112.034 36.1619 112.365 36.25 112.766 36.25Z" fill="#2B4554"/>
<path d="M23.999 58H131.999" stroke="#2B4554" stroke-width="1.4" stroke-linecap="round"/>
<path d="M29.6524 66.7273L30.5331 66.7273L30.5331 71.5426C30.5331 72.0398 30.4159 72.4837 30.1816 72.8743C29.9495 73.2625 29.6217 73.5691 29.1979 73.794C28.7741 74.0166 28.277 74.1278 27.7064 74.1278C27.1359 74.1278 26.6387 74.0166 26.2149 73.794C25.7912 73.5691 25.4621 73.2625 25.2277 72.8743C24.9957 72.4837 24.8797 72.0398 24.8797 71.5426L24.8797 66.7273L25.7604 66.7273L25.7604 71.4716C25.7604 71.8267 25.8385 72.1428 25.9948 72.4197C26.151 72.6944 26.3735 72.911 26.6624 73.0696C26.9536 73.2259 27.3016 73.304 27.7064 73.304C28.1112 73.304 28.4593 73.2259 28.7504 73.0696C29.0416 72.911 29.2642 72.6944 29.4181 72.4197C29.5743 72.1428 29.6524 71.8267 29.6524 71.4716L29.6524 66.7273ZM32.718 66.7273L34.593 69.7528L34.6498 69.7528L36.5248 66.7273L37.5617 66.7273L35.2748 70.3636L37.5617 74L36.5248 74L34.6498 71.0313L34.593 71.0313L32.718 74L31.681 74L34.0248 70.3636L31.681 66.7273L32.718 66.7273ZM41.1652 66.3864L38.8215 75.0938L38.0544 75.0938L40.3982 66.3864L41.1652 66.3864ZM47.045 66.7273L47.9257 66.7273L47.9257 71.5426C47.9257 72.0398 47.8085 72.4837 47.5741 72.8743C47.3421 73.2625 47.0142 73.5691 46.5905 73.794C46.1667 74.0166 45.6695 74.1278 45.099 74.1278C44.5284 74.1278 44.0313 74.0166 43.6075 73.794C43.1837 73.5691 42.8547 73.2625 42.6203 72.8743C42.3883 72.4837 42.2723 72.0398 42.2723 71.5426L42.2723 66.7273L43.153 66.7273L43.153 71.4716C43.153 71.8267 43.2311 72.1428 43.3873 72.4197C43.5436 72.6944 43.7661 72.911 44.055 73.0696C44.3461 73.2259 44.6942 73.304 45.099 73.304C45.5038 73.304 45.8518 73.2259 46.143 73.0696C46.4342 72.911 46.6568 72.6944 46.8106 72.4197C46.9669 72.1428 47.045 71.8267 47.045 71.4716L47.045 66.7273ZM50.5651 66.7273L50.5651 74L49.6844 74L49.6844 66.7273L50.5651 66.7273ZM55.3422 69.973L55.3422 70.7543L52.1604 70.7543L52.1604 69.973L55.3422 69.973ZM56.2345 75.5625L56.2345 73.2188L56.689 73.2188C56.8003 73.1027 56.8962 72.9773 56.9767 72.8423C57.0571 72.7074 57.127 72.5476 57.1862 72.3629C57.2477 72.1759 57.2998 71.9486 57.3424 71.6811C57.385 71.4112 57.4229 71.0857 57.4561 70.7045L57.6407 68.5455L61.1066 68.5455L61.1066 73.2188L61.9447 73.2188L61.9447 75.5625L61.1066 75.5625L61.1066 74L57.0725 74L57.0725 75.5625L56.2345 75.5625ZM57.6407 73.2188L60.2686 73.2188L60.2686 69.3267L58.422 69.3267L58.2799 70.7045C58.2207 71.2751 58.1473 71.7734 58.0597 72.1996C57.9722 72.6257 57.8325 72.9654 57.6407 73.2188ZM63.8952 72.7642L66.523 68.5455L67.4889 68.5455L67.4889 74L66.6508 74L66.6508 69.7813L64.0372 74L63.0571 74L63.0571 68.5455L63.8952 68.5455L63.8952 72.7642ZM68.683 72.608L69.5779 72.608C69.5968 72.8542 69.7081 73.0412 69.9117 73.169C70.1176 73.2969 70.3851 73.3608 70.7142 73.3608C71.0504 73.3608 71.338 73.2921 71.5771 73.1548C71.8163 73.0152 71.9358 72.7902 71.9358 72.4801C71.9358 72.2978 71.8908 72.1392 71.8009 72.0043C71.7109 71.867 71.5843 71.7604 71.4209 71.6847C71.2575 71.6089 71.0646 71.571 70.8421 71.571L69.9046 71.571L69.9046 70.8182L70.8421 70.8182C71.1759 70.8182 71.4221 70.7424 71.5807 70.5909C71.7417 70.4394 71.8222 70.25 71.8222 70.0227C71.8222 69.7789 71.7358 69.5836 71.5629 69.4368C71.3901 69.2876 71.1451 69.2131 70.8279 69.2131C70.5083 69.2131 70.2419 69.2853 70.0289 69.4297C69.8158 69.5717 69.7033 69.7552 69.6915 69.9801L68.8108 69.9801C68.8203 69.6866 68.9102 69.4273 69.0807 69.2024C69.2512 68.9751 69.4832 68.7976 69.7767 68.6697C70.0703 68.5395 70.4065 68.4744 70.7852 68.4744C71.1688 68.4744 71.5014 68.5419 71.7831 68.6768C72.0672 68.8094 72.2862 68.9905 72.4401 69.2202C72.5963 69.4474 72.6744 69.7055 72.6744 69.9943C72.6744 70.3021 72.588 70.5507 72.4152 70.7401C72.2424 70.9295 72.0258 71.0644 71.7654 71.1449L71.7654 71.2017C71.9713 71.2159 72.1501 71.2822 72.3016 71.4006C72.4555 71.5166 72.575 71.6693 72.6602 71.8587C72.7455 72.0457 72.7881 72.2528 72.7881 72.4801C72.7881 72.8116 72.6993 73.1004 72.5218 73.3466C72.3442 73.5904 72.1003 73.7798 71.7902 73.9148C71.4801 74.0474 71.1262 74.1136 70.7284 74.1136C70.3425 74.1136 69.9969 74.0509 69.6915 73.9254C69.3861 73.7976 69.1434 73.6212 68.9635 73.3963C68.786 73.169 68.6924 72.9063 68.683 72.608ZM75.5704 74.1278C75.2248 74.1278 74.9111 74.0627 74.6293 73.9325C74.3476 73.8 74.1239 73.6094 73.9582 73.3608C73.7925 73.1099 73.7096 72.8068 73.7096 72.4517C73.7096 72.1392 73.7712 71.8859 73.8943 71.6918C74.0174 71.4953 74.1819 71.3414 74.3879 71.2301C74.5938 71.1188 74.8211 71.036 75.0697 70.9815C75.3206 70.9247 75.5728 70.8797 75.8261 70.8466C76.1575 70.804 76.4262 70.772 76.6322 70.7507C76.8405 70.727 76.992 70.688 77.0867 70.6335C77.1838 70.5791 77.2323 70.4844 77.2323 70.3494L77.2323 70.321C77.2323 69.9706 77.1365 69.6984 76.9447 69.5043C76.7553 69.3101 76.4677 69.2131 76.0818 69.2131C75.6817 69.2131 75.368 69.3007 75.1407 69.4759C74.9134 69.651 74.7536 69.8381 74.6613 70.0369L73.8659 69.7528C74.0079 69.4214 74.1973 69.1634 74.434 68.9787C74.6731 68.7917 74.9336 68.6615 75.2153 68.5881C75.4994 68.5123 75.7787 68.4744 76.0534 68.4744C76.2285 68.4744 76.4298 68.4957 76.657 68.5384C76.8867 68.5786 77.108 68.6626 77.3211 68.7905C77.5365 68.9183 77.7153 69.1113 77.8573 69.3693C77.9994 69.6274 78.0704 69.973 78.0704 70.4063L78.0704 74L77.2323 74L77.2323 73.2614L77.1897 73.2614C77.1329 73.3797 77.0382 73.5064 76.9056 73.6413C76.7731 73.7763 76.5967 73.8911 76.3765 73.9858C76.1563 74.0805 75.8876 74.1278 75.5704 74.1278ZM75.6982 73.375C76.0297 73.375 76.309 73.3099 76.5363 73.1797C76.766 73.0495 76.9388 72.8814 77.0548 72.6754C77.1731 72.4695 77.2323 72.2528 77.2323 72.0256L77.2323 71.2585C77.1968 71.3011 77.1187 71.3402 76.998 71.3757C76.8796 71.4089 76.7423 71.4384 76.586 71.4645C76.4321 71.4882 76.2818 71.5095 76.135 71.5284C75.9906 71.545 75.8734 71.5592 75.7835 71.571C75.5657 71.5994 75.3621 71.6456 75.1727 71.7095C74.9856 71.7711 74.8341 71.8646 74.7181 71.9901C74.6045 72.1132 74.5477 72.2813 74.5477 72.4943C74.5477 72.7855 74.6554 73.0057 74.8708 73.1548C75.0886 73.3016 75.3644 73.375 75.6982 73.375ZM80.4381 72.7642L83.066 68.5455L84.0319 68.5455L84.0319 74L83.1938 74L83.1938 69.7813L80.5802 74L79.6001 74L79.6001 68.5455L80.4381 68.5455L80.4381 72.7642ZM82.512 66.7273L83.2932 66.7273C83.2932 67.1108 83.1607 67.4245 82.8955 67.6683C82.6304 67.9122 82.2705 68.0341 81.816 68.0341C81.3685 68.0341 81.0122 67.9122 80.7471 67.6683C80.4843 67.4245 80.3529 67.1108 80.3529 66.7273L81.1341 66.7273C81.1341 66.9119 81.185 67.0741 81.2868 67.2138C81.391 67.3535 81.5674 67.4233 81.816 67.4233C82.0645 67.4233 82.2421 67.3535 82.3486 67.2138C82.4575 67.0741 82.512 66.9119 82.512 66.7273ZM89.2174 70.8892L89.2174 71.6705L86.2061 71.6705L86.2061 70.8892L89.2174 70.8892ZM86.4049 68.5455L86.4049 74L85.5668 74L85.5668 68.5455L86.4049 68.5455ZM89.8566 68.5455L89.8566 74L89.0186 74L89.0186 68.5455L89.8566 68.5455ZM93.6741 74.1136C93.1485 74.1136 92.6952 73.9976 92.314 73.7656C91.9352 73.5313 91.6428 73.2045 91.4369 72.7855C91.2333 72.3641 91.1315 71.8741 91.1315 71.3153C91.1315 70.7566 91.2333 70.2642 91.4369 69.8381C91.6428 69.4096 91.9293 69.0758 92.2963 68.8367C92.6656 68.5952 93.0964 68.4744 93.5889 68.4744C93.873 68.4744 94.1535 68.5218 94.4305 68.6165C94.7075 68.7112 94.9596 68.8651 95.1869 69.0781C95.4142 69.2888 95.5953 69.5682 95.7302 69.9162C95.8651 70.2642 95.9326 70.6927 95.9326 71.2017L95.9326 71.5568L91.7281 71.5568L91.7281 70.8324L95.0803 70.8324C95.0803 70.5246 95.0188 70.25 94.8957 70.0085C94.7749 69.767 94.6021 69.5765 94.3772 69.4368C94.1547 69.2971 93.8919 69.2273 93.5889 69.2273C93.2551 69.2273 92.9662 69.3101 92.7224 69.4759C92.4809 69.6392 92.2951 69.8523 92.1649 70.1151C92.0347 70.3778 91.9695 70.6596 91.9695 70.9602L91.9695 71.4432C91.9695 71.8551 92.0406 72.2043 92.1826 72.4908C92.327 72.7749 92.5271 72.9915 92.7828 73.1406C93.0384 73.2874 93.3356 73.3608 93.6741 73.3608C93.8943 73.3608 94.0931 73.33 94.2707 73.2685C94.4506 73.2045 94.6057 73.1099 94.7359 72.9844C94.8661 72.8565 94.9667 72.6979 95.0377 72.5085L95.8474 72.7358C95.7622 73.0104 95.6189 73.2519 95.4177 73.4602C95.2165 73.6662 94.9679 73.8272 94.672 73.9432C94.376 74.0568 94.0434 74.1136 93.6741 74.1136ZM97.2075 76.0455L97.2075 68.5455L98.0171 68.5455L98.0171 69.4119L98.1166 69.4119C98.1781 69.3172 98.2633 69.1965 98.3722 69.0497C98.4835 68.9006 98.6421 68.768 98.8481 68.652C99.0564 68.5336 99.3382 68.4744 99.6933 68.4744C100.153 68.4744 100.557 68.5893 100.908 68.8189C101.258 69.0485 101.532 69.3741 101.728 69.7955C101.925 70.2169 102.023 70.714 102.023 71.2869C102.023 71.8646 101.925 72.3653 101.728 72.7891C101.532 73.2105 101.259 73.5372 100.911 73.7692C100.563 73.9988 100.162 74.1136 99.7075 74.1136C99.3571 74.1136 99.0766 74.0556 98.8659 73.9396C98.6552 73.8213 98.493 73.6875 98.3793 73.5384C98.2657 73.3868 98.1781 73.2614 98.1166 73.1619L98.0455 73.1619L98.0455 76.0455L97.2075 76.0455ZM98.0313 71.2727C98.0313 71.6847 98.0917 72.0481 98.2124 72.3629C98.3332 72.6754 98.5096 72.9205 98.7416 73.098C98.9736 73.2732 99.2577 73.3608 99.5938 73.3608C99.9442 73.3608 100.237 73.2685 100.471 73.0838C100.708 72.8968 100.885 72.6458 101.004 72.331C101.124 72.0137 101.185 71.661 101.185 71.2727C101.185 70.8892 101.126 70.5436 101.007 70.2358C100.891 69.9257 100.715 69.6806 100.478 69.5007C100.244 69.3184 99.949 69.2273 99.5938 69.2273C99.2529 69.2273 98.9665 69.3137 98.7345 69.4865C98.5025 69.657 98.3273 69.8961 98.2089 70.2038C98.0905 70.5092 98.0313 70.8655 98.0313 71.2727Z" fill="#2B4554"/>
<path d="M24.482 83.5085L24.482 82.7273L29.9365 82.7273L29.9365 83.5085L27.6496 83.5085L27.6496 90L26.7689 90L26.7689 83.5085L24.482 83.5085ZM32.678 90.1136C32.1524 90.1136 31.6991 89.9976 31.3179 89.7656C30.9391 89.5313 30.6468 89.2045 30.4408 88.7855C30.2372 88.3641 30.1354 87.8741 30.1354 87.3153C30.1354 86.7566 30.2372 86.2642 30.4408 85.8381C30.6468 85.4096 30.9332 85.0758 31.3002 84.8366C31.6695 84.5952 32.1003 84.4744 32.5928 84.4744C32.8769 84.4744 33.1574 84.5218 33.4344 84.6165C33.7114 84.7112 33.9635 84.8651 34.1908 85.0781C34.4181 85.2888 34.5992 85.5682 34.7341 85.9162C34.8691 86.2642 34.9365 86.6927 34.9365 87.2017L34.9365 87.5568L30.732 87.5568L30.732 86.8324L34.0843 86.8324C34.0843 86.5246 34.0227 86.25 33.8996 86.0085C33.7789 85.767 33.606 85.5765 33.3811 85.4368C33.1586 85.2971 32.8958 85.2273 32.5928 85.2273C32.259 85.2273 31.9701 85.3101 31.7263 85.4759C31.4848 85.6392 31.299 85.8523 31.1688 86.1151C31.0386 86.3778 30.9735 86.6596 30.9735 86.9602L30.9735 87.4432C30.9735 87.8551 31.0445 88.2043 31.1865 88.4908C31.3309 88.7749 31.531 88.9915 31.7867 89.1406C32.0423 89.2874 32.3395 89.3608 32.678 89.3608C32.8982 89.3608 33.097 89.33 33.2746 89.2685C33.4545 89.2045 33.6096 89.1098 33.7398 88.9844C33.87 88.8565 33.9706 88.6979 34.0416 88.5085L34.8513 88.7358C34.7661 89.0104 34.6228 89.2519 34.4216 89.4602C34.2204 89.6662 33.9718 89.8272 33.6759 89.9432C33.3799 90.0568 33.0473 90.1136 32.678 90.1136ZM37.8165 90.1278C37.4709 90.1278 37.1572 90.0627 36.8754 89.9325C36.5937 89.8 36.37 89.6094 36.2043 89.3608C36.0386 89.1098 35.9557 88.8068 35.9557 88.4517C35.9557 88.1392 36.0173 87.8859 36.1404 87.6918C36.2635 87.4953 36.428 87.3414 36.634 87.2301C36.8399 87.1188 37.0672 87.036 37.3158 86.9815C37.5667 86.9247 37.8189 86.8797 38.0722 86.8466C38.4036 86.804 38.6723 86.772 38.8783 86.7507C39.0866 86.727 39.2381 86.688 39.3328 86.6335C39.4299 86.5791 39.4784 86.4844 39.4784 86.3494L39.4784 86.321C39.4784 85.9706 39.3825 85.6984 39.1908 85.5043C39.0014 85.3101 38.7137 85.2131 38.3279 85.2131C37.9278 85.2131 37.6141 85.3007 37.3868 85.4759C37.1595 85.651 36.9997 85.8381 36.9074 86.0369L36.1119 85.7528C36.254 85.4214 36.4434 85.1634 36.6801 84.9787C36.9192 84.7917 37.1797 84.6615 37.4614 84.5881C37.7455 84.5123 38.0248 84.4744 38.2994 84.4744C38.4746 84.4744 38.6759 84.4957 38.9031 84.5384C39.1328 84.5786 39.3541 84.6626 39.5672 84.7905C39.7826 84.9183 39.9614 85.1113 40.1034 85.3693C40.2455 85.6274 40.3165 85.973 40.3165 86.4063L40.3165 90L39.4784 90L39.4784 89.2614L39.4358 89.2614C39.379 89.3797 39.2843 89.5064 39.1517 89.6413C39.0191 89.7763 38.8428 89.8911 38.6226 89.9858C38.4024 90.0805 38.1337 90.1278 37.8165 90.1278ZM37.9443 89.375C38.2758 89.375 38.5551 89.3099 38.7824 89.1797C39.012 89.0495 39.1849 88.8814 39.3009 88.6754C39.4192 88.4695 39.4784 88.2528 39.4784 88.0256L39.4784 87.2585C39.4429 87.3011 39.3648 87.3402 39.2441 87.3757C39.1257 87.4089 38.9884 87.4384 38.8321 87.4645C38.6782 87.4882 38.5279 87.5095 38.3811 87.5284C38.2367 87.545 38.1195 87.5592 38.0296 87.571C37.8118 87.5994 37.6082 87.6456 37.4188 87.7095C37.2317 87.7711 37.0802 87.8646 36.9642 87.9901C36.8506 88.1132 36.7938 88.2813 36.7938 88.4943C36.7938 88.7855 36.9015 89.0057 37.1169 89.1548C37.3347 89.3016 37.6105 89.375 37.9443 89.375ZM41.8461 90L41.8461 84.5455L42.6558 84.5455L42.6558 85.3977L42.7268 85.3977C42.8405 85.1065 43.0239 84.8804 43.2773 84.7195C43.5306 84.5561 43.8348 84.4744 44.1899 84.4744C44.5497 84.4744 44.8492 84.5561 45.0883 84.7195C45.3298 84.8804 45.518 85.1065 45.653 85.3977L45.7098 85.3977C45.8495 85.116 46.059 84.8923 46.3383 84.7266C46.6177 84.5585 46.9527 84.4744 47.3433 84.4744C47.831 84.4744 48.2299 84.6271 48.54 84.9325C48.8502 85.2356 49.0052 85.7079 49.0052 86.3494L49.0052 90L48.1672 90L48.1672 86.3494C48.1672 85.947 48.0571 85.6593 47.8369 85.4865C47.6167 85.3137 47.3575 85.2273 47.0592 85.2273C46.6757 85.2273 46.3786 85.3433 46.1679 85.5753C45.9572 85.8049 45.8518 86.0961 45.8518 86.4489L45.8518 90L44.9996 90L44.9996 86.2642C44.9996 85.9541 44.8989 85.7043 44.6977 85.5149C44.4965 85.3232 44.2372 85.2273 43.92 85.2273C43.7022 85.2273 43.4986 85.2853 43.3092 85.4013C43.1222 85.5173 42.9707 85.6783 42.8547 85.8842C42.741 86.0878 42.6842 86.3234 42.6842 86.5909L42.6842 90L41.8461 90ZM54.1881 82.7273L54.1881 90L53.3501 90L53.3501 82.7273L54.1881 82.7273ZM58.01 90.1136C57.4845 90.1136 57.0311 89.9976 56.6499 89.7656C56.2712 89.5313 55.9788 89.2045 55.7728 88.7855C55.5692 88.3641 55.4674 87.8741 55.4674 87.3153C55.4674 86.7566 55.5692 86.2642 55.7728 85.8381C55.9788 85.4096 56.2652 85.0758 56.6322 84.8366C57.0015 84.5952 57.4324 84.4744 57.9248 84.4744C58.2089 84.4744 58.4894 84.5218 58.7664 84.6165C59.0434 84.7112 59.2955 84.8651 59.5228 85.0781C59.7501 85.2888 59.9312 85.5682 60.0661 85.9162C60.2011 86.2642 60.2686 86.6927 60.2686 87.2017L60.2686 87.5568L56.064 87.5568L56.064 86.8324L59.4163 86.8324C59.4163 86.5246 59.3547 86.25 59.2316 86.0085C59.1109 85.767 58.9381 85.5765 58.7132 85.4368C58.4906 85.2971 58.2278 85.2273 57.9248 85.2273C57.591 85.2273 57.3022 85.3101 57.0583 85.4759C56.8168 85.6392 56.631 85.8523 56.5008 86.1151C56.3706 86.3778 56.3055 86.6596 56.3055 86.9602L56.3055 87.4432C56.3055 87.8551 56.3765 88.2043 56.5186 88.4908C56.663 88.7749 56.863 88.9915 57.1187 89.1406C57.3744 89.2874 57.6715 89.3608 58.01 89.3608C58.2302 89.3608 58.4291 89.33 58.6066 89.2685C58.7865 89.2045 58.9416 89.1099 59.0718 88.9844C59.202 88.8565 59.3026 88.6979 59.3737 88.5085L60.1833 88.7358C60.0981 89.0104 59.9549 89.2519 59.7536 89.4602C59.5524 89.6662 59.3038 89.8272 59.0079 89.9432C58.712 90.0568 58.3793 90.1136 58.01 90.1136ZM63.1485 90.1278C62.8029 90.1278 62.4892 90.0627 62.2075 89.9325C61.9258 89.8 61.702 89.6094 61.5363 89.3608C61.3706 89.1099 61.2877 88.8068 61.2877 88.4517C61.2877 88.1392 61.3493 87.8859 61.4724 87.6918C61.5955 87.4953 61.76 87.3414 61.966 87.2301C62.172 87.1188 62.3992 87.036 62.6478 86.9815C62.8988 86.9247 63.1509 86.8797 63.4042 86.8466C63.7356 86.804 64.0043 86.772 64.2103 86.7507C64.4186 86.727 64.5702 86.688 64.6649 86.6335C64.7619 86.5791 64.8105 86.4844 64.8105 86.3494L64.8105 86.321C64.8105 85.9706 64.7146 85.6984 64.5228 85.5043C64.3334 85.3101 64.0458 85.2131 63.6599 85.2131C63.2598 85.2131 62.9461 85.3007 62.7188 85.4759C62.4916 85.651 62.3318 85.8381 62.2394 86.0369L61.444 85.7528C61.586 85.4214 61.7754 85.1634 62.0122 84.9787C62.2513 84.7917 62.5117 84.6615 62.7934 84.5881C63.0775 84.5123 63.3569 84.4744 63.6315 84.4744C63.8067 84.4744 64.0079 84.4957 64.2352 84.5384C64.4648 84.5786 64.6862 84.6626 64.8992 84.7905C65.1147 84.9183 65.2934 85.1113 65.4355 85.3693C65.5775 85.6274 65.6485 85.973 65.6485 86.4063L65.6485 90L64.8105 90L64.8105 89.2614L64.7678 89.2614C64.711 89.3797 64.6163 89.5064 64.4838 89.6413C64.3512 89.7763 64.1748 89.8911 63.9546 89.9858C63.7345 90.0805 63.4658 90.1278 63.1485 90.1278ZM63.2764 89.375C63.6078 89.375 63.8872 89.3099 64.1144 89.1797C64.3441 89.0495 64.5169 88.8814 64.6329 88.6754C64.7513 88.4695 64.8105 88.2528 64.8105 88.0256L64.8105 87.2585C64.7749 87.3011 64.6968 87.3402 64.5761 87.3757C64.4577 87.4089 64.3204 87.4384 64.1642 87.4645C64.0103 87.4882 63.8599 87.5095 63.7132 87.5284C63.5687 87.545 63.4516 87.5592 63.3616 87.571C63.1438 87.5994 62.9402 87.6456 62.7508 87.7095C62.5638 87.7711 62.4123 87.8646 62.2963 87.9901C62.1826 88.1132 62.1258 88.2813 62.1258 88.4943C62.1258 88.7855 62.2335 89.0057 62.449 89.1548C62.6668 89.3016 62.9426 89.375 63.2764 89.375ZM69.2378 90.1136C68.7833 90.1136 68.382 89.9988 68.034 89.7692C67.686 89.5372 67.4137 89.2105 67.2172 88.7891C67.0207 88.3653 66.9225 87.8646 66.9225 87.2869C66.9225 86.714 67.0207 86.2169 67.2172 85.7955C67.4137 85.3741 67.6872 85.0485 68.0376 84.8189C68.3879 84.5893 68.7928 84.4744 69.252 84.4744C69.6072 84.4744 69.8877 84.5336 70.0937 84.652C70.302 84.768 70.4606 84.9006 70.5695 85.0497C70.6808 85.1965 70.7672 85.3172 70.8287 85.4119L70.8998 85.4119L70.8998 82.7273L71.7378 82.7273L71.7378 90L70.9282 90L70.9282 89.1619L70.8287 89.1619C70.7672 89.2614 70.6796 89.3868 70.566 89.5384C70.4523 89.6875 70.2902 89.8213 70.0795 89.9396C69.8688 90.0556 69.5882 90.1136 69.2378 90.1136ZM69.3515 89.3608C69.6876 89.3608 69.9717 89.2732 70.2037 89.098C70.4358 88.9205 70.6121 88.6754 70.7329 88.3629C70.8536 88.0481 70.914 87.6847 70.914 87.2727C70.914 86.8655 70.8548 86.5092 70.7364 86.2038C70.618 85.8961 70.4429 85.657 70.2108 85.4865C69.9788 85.3137 69.6924 85.2273 69.3515 85.2273C68.9964 85.2273 68.7004 85.3184 68.4637 85.5007C68.2293 85.6806 68.0529 85.9257 67.9346 86.2358C67.8186 86.5436 67.7606 86.8892 67.7606 87.2727C67.7606 87.661 67.8197 88.0137 67.9381 88.331C68.0589 88.6458 68.2364 88.8968 68.4708 89.0838C68.7075 89.2685 69.0011 89.3608 69.3515 89.3608Z" fill="#4C7B96"/>
</g>
<defs>
<clipPath id="clip0_1291_3940">
<rect width="108" height="162" fill="white" transform="translate(0 108) rotate(-90)"/>
</clipPath>
</defs>
</svg>
