<svg width="234" height="200" viewBox="0 0 234 200" fill="none" xmlns="http://www.w3.org/2000/svg">
<path d="M189.696 158.288H156.096C146.8 158.288 139.296 150.784 139.296 141.488V107.888C139.296 98.5919 146.8 91.0879 156.096 91.0879H189.696C198.992 91.0879 206.496 98.5919 206.496 107.888V141.488C206.496 150.728 198.992 158.288 189.696 158.288Z" fill="#E7ECF1" stroke="#E7ECF1" stroke-width="1.8" stroke-miterlimit="10" stroke-linecap="round" stroke-linejoin="round"/>
<path d="M162.256 118.528H156.656C154.192 118.528 152.176 116.512 152.176 114.048V108.448C152.176 105.984 154.192 103.968 156.656 103.968H162.256C164.72 103.968 166.736 105.984 166.736 108.448V114.048C166.736 116.512 164.72 118.528 162.256 118.528Z" stroke="#096784" stroke-width="2" stroke-miterlimit="10" stroke-linecap="round" stroke-linejoin="round"/>
<path d="M189.136 145.409H183.536C181.072 145.409 179.056 143.393 179.056 140.929V135.329C179.056 132.865 181.072 130.849 183.536 130.849H189.136C191.6 130.849 193.616 132.865 193.616 135.329V140.929C193.616 143.393 191.6 145.409 189.136 145.409Z" stroke="#096784" stroke-width="2" stroke-miterlimit="10" stroke-linecap="round" stroke-linejoin="round"/>
<path d="M175.472 103.968H184.544" stroke="#096784" stroke-width="2" stroke-miterlimit="10" stroke-linecap="round" stroke-linejoin="round"/>
<path d="M190.928 115.616V120.544" stroke="#096784" stroke-width="2" stroke-miterlimit="10" stroke-linecap="round" stroke-linejoin="round"/>
<path d="M180.735 115.616V121.832" stroke="#096784" stroke-width="2" stroke-miterlimit="10" stroke-linecap="round" stroke-linejoin="round"/>
<path d="M166.736 145.408H169.48" stroke="#096784" stroke-width="2" stroke-miterlimit="10" stroke-linecap="round" stroke-linejoin="round"/>
<path d="M162.815 136.616V130.232" stroke="#096784" stroke-width="2" stroke-miterlimit="10" stroke-linecap="round" stroke-linejoin="round"/>
<path d="M152.176 127.097V131.745" stroke="#096784" stroke-width="2" stroke-miterlimit="10" stroke-linecap="round" stroke-linejoin="round"/>
<path d="M152.176 145.128H159.512" stroke="#096784" stroke-width="2" stroke-miterlimit="10" stroke-linecap="round" stroke-linejoin="round"/>
<path d="M35.8644 48.359C35.8644 48.359 92.4244 24.895 97.1284 22.767C101.384 20.807 107.488 22.375 106.48 28.479C105.696 35.479 100.32 74.399 99.3124 80.279C98.6964 85.599 92.2564 87.559 87.6084 84.759C84.6964 83.023 71.0884 74.679 68.9604 73.111C65.1524 70.479 62.8564 64.767 68.2884 59.279C72.7684 54.799 78.2564 48.975 80.2164 47.015C83.1284 43.879 80.6644 41.639 77.5844 43.767C75.8484 44.943 58.8804 56.143 55.7444 58.103C52.6644 60.119 47.4564 61.351 42.0244 59.615C37.9364 58.439 36.0324 57.879 33.5124 56.927C30.6004 55.751 28.8644 51.271 35.8644 48.359Z" fill="#E7ECF1" stroke="#E7ECF1" stroke-width="1.8" stroke-miterlimit="10" stroke-linecap="round" stroke-linejoin="round"/>
<path d="M34.2475 70.3125L9.10352 80.9525" stroke="#E7ECF1" stroke-width="1.8" stroke-miterlimit="10" stroke-linecap="round" stroke-linejoin="round"/>
<path d="M41.1842 77.873L13.4082 100.833" stroke="#E7ECF1" stroke-width="1.8" stroke-miterlimit="10" stroke-linecap="round" stroke-linejoin="round"/>
<path d="M38.3839 96.9121L23.7119 114.552" stroke="#E7ECF1" stroke-width="1.8" stroke-miterlimit="10" stroke-linecap="round" stroke-linejoin="round"/>
<path d="M176.592 70.5364C176.592 44.6084 155.592 23.6084 129.664 23.6084" stroke="#E7ECF1" stroke-width="1.8" stroke-miterlimit="10" stroke-linecap="round" stroke-linejoin="round"/>
<path d="M168.864 61.4078C171.832 63.8718 174.352 66.8958 176.536 70.5358C178.44 67.6798 180.96 63.2558 181.8 58.3838" stroke="#E7ECF1" stroke-width="1.8" stroke-miterlimit="10" stroke-linecap="round" stroke-linejoin="round"/>
<path d="M66.0479 103.744C66.0479 132.136 89.0639 155.096 117.4 155.096" stroke="#E7ECF1" stroke-width="1.8" stroke-miterlimit="10" stroke-linecap="round" stroke-linejoin="round"/>
<path d="M74.4483 113.712C71.2003 111.024 68.4563 107.664 66.0483 103.744C63.9763 106.88 61.2323 111.696 60.2803 117.072" stroke="#E7ECF1" stroke-width="1.8" stroke-miterlimit="10" stroke-linecap="round" stroke-linejoin="round"/>
</svg>
