<svg width="235" height="200" viewBox="0 0 235 200" fill="none" xmlns="http://www.w3.org/2000/svg">
<g clip-path="url(#clip0_595_1548)">
<path d="M185.538 99H46.5186C36.8551 99 29 91.9511 29 83.2794V57.7206C29 49.0489 36.8551 42 46.5186 42H185.481C195.145 42 203 49.0489 203 57.7206V83.2794C203.056 92.0018 195.201 99 185.538 99Z" fill="white" stroke="white" stroke-width="1.8" stroke-miterlimit="10" stroke-linecap="round" stroke-linejoin="round"/>
<path d="M110.146 120.947C110.147 120.949 110.147 120.949 110.147 120.949C110.147 120.949 110.146 120.948 110.145 120.946L110.146 120.946M110.146 120.947C110.146 120.947 110.146 120.946 110.146 120.946M110.146 120.947L110.536 120.742M110.146 120.947L110.536 120.742M110.146 120.946L110.535 120.741C110.527 120.733 110.518 120.725 110.508 120.717C110.468 120.686 110.424 120.667 110.384 120.658C110.312 120.641 110.268 120.658 110.25 120.667C110.231 120.677 110.184 120.71 110.155 120.788C110.14 120.829 110.135 120.871 110.139 120.907C110.14 120.927 110.144 120.94 110.146 120.946ZM110.536 120.742C110.559 120.765 110.573 120.787 110.58 120.8C110.571 120.782 110.56 120.761 110.547 120.736L110.942 120.527M110.536 120.742L106.691 115.471C106.794 115.641 109.468 120.595 109.776 121.206C110.153 121.952 111.388 121.376 110.942 120.527M110.942 120.527L110.546 120.735L110.942 120.527ZM91.0822 127.457C91.1846 127.659 91.3785 128.025 91.5945 128.431C91.0173 127.962 90.3572 127.66 89.6628 127.513C88.409 127.247 87.0939 127.494 85.9899 128.068C84.886 128.641 83.9281 129.576 83.4393 130.766C82.94 131.983 82.9591 133.401 83.7156 134.828L83.7156 134.828L83.7181 134.832C84.8481 136.934 95.4055 156.782 97.1867 160.173L97.1886 160.177C98.6736 162.973 100.601 164.69 102.68 165.448C104.761 166.207 106.899 165.97 108.715 165.033L108.715 165.034L108.724 165.029C110.638 164.014 125.578 156.28 129.592 154.209C131.347 153.304 132.497 152.295 133.266 150.911C134.012 149.569 134.354 147.948 134.663 145.945L134.664 145.941C134.934 144.139 134.939 141.861 134.844 139.394C134.781 137.748 134.672 135.981 134.561 134.183C134.505 133.283 134.449 132.375 134.398 131.471L134.398 131.47C134.261 129.088 134.03 123.786 133.867 118.738C133.786 116.215 133.722 113.76 133.695 111.768C133.668 109.756 133.681 108.277 133.743 107.659C133.787 107.248 133.656 106.864 133.396 106.569C133.152 106.293 132.831 106.133 132.527 106.045C131.921 105.871 131.175 105.918 130.415 106.147C128.864 106.616 127.017 107.905 125.498 110.386C124.887 111.385 124.479 112.999 124.165 114.65C123.901 116.036 123.683 117.562 123.482 118.971C123.438 119.28 123.395 119.582 123.353 119.877C123.173 121.119 123.005 122.177 122.83 122.936C121.6 120.625 117.853 113.564 114.154 106.591C113.008 104.432 111.867 102.282 110.808 100.284C107.911 94.8238 105.62 90.5053 105.497 90.276C104.646 88.6703 103.446 87.6901 102.117 87.2965C100.798 86.9062 99.4423 87.1198 98.3248 87.7355C96.0735 88.9758 94.7313 91.8892 96.3626 94.9841C96.5799 95.4052 101.274 104.243 105.132 111.506C105.426 112.058 105.714 112.601 105.996 113.131C104.276 111.632 102.031 111.46 100.27 112.347C99.1121 112.931 98.1803 113.968 97.7934 115.336C97.4058 116.706 97.5888 118.319 98.4869 120.025C98.5234 120.096 98.6236 120.283 98.7668 120.548C97.0216 119.124 94.8005 119.017 93.0499 119.897C91.8757 120.487 90.9163 121.522 90.493 122.869C90.067 124.224 90.2097 125.81 91.0822 127.457ZM122.504 123.937C122.504 123.937 122.506 123.933 122.511 123.928C122.506 123.935 122.504 123.938 122.504 123.937Z" fill="white" stroke="#009CBB" stroke-width="1.8" stroke-miterlimit="10"/>
<path d="M55.398 76.4307V62.7105H63.6783V64.1844H57.0594V68.4719H60.5431C61.5256 68.4719 62.3541 68.6327 63.0285 68.9543C63.7073 69.2758 64.221 69.7291 64.5693 70.3142C64.9222 70.8993 65.0986 71.5893 65.0986 72.3843C65.0986 73.1793 64.9222 73.8805 64.5693 74.4879C64.221 75.0953 63.7073 75.5709 63.0285 75.9148C62.3541 76.2587 61.5256 76.4307 60.5431 76.4307H55.398ZM57.0594 74.9836H60.5431C61.1683 74.9836 61.6976 74.8586 62.1308 74.6085C62.5685 74.3539 62.899 74.0279 63.1223 73.6304C63.3501 73.2284 63.4639 72.8041 63.4639 72.3575C63.4639 71.701 63.2116 71.136 62.7069 70.6626C62.2022 70.1847 61.481 69.9458 60.5431 69.9458H57.0594V74.9836ZM68.9858 69.8654H71.9335C73.1394 69.8654 74.0617 70.1713 74.7003 70.7832C75.339 71.395 75.6583 72.1699 75.6583 73.1078C75.6583 73.7242 75.5154 74.2847 75.2296 74.7893C74.9437 75.2896 74.5239 75.6893 73.9701 75.9885C73.4163 76.2833 72.7374 76.4307 71.9335 76.4307H67.6192V66.1406H69.2002V74.9568H71.9335C72.5588 74.9568 73.0724 74.7916 73.4744 74.4611C73.8763 74.1306 74.0773 73.7063 74.0773 73.1882C74.0773 72.6433 73.8763 72.1989 73.4744 71.855C73.0724 71.5112 72.5588 71.3392 71.9335 71.3392H68.9858V69.8654ZM77.2929 76.4307V66.1406H78.874V76.4307H77.2929ZM85.9484 76.645C84.9837 76.645 84.153 76.4173 83.4563 75.9617C82.7596 75.5062 82.2236 74.8787 81.8485 74.0792C81.4733 73.2798 81.2857 72.3664 81.2857 71.3392C81.2857 70.2941 81.4778 69.3718 81.8619 68.5724C82.2504 67.7685 82.7908 67.141 83.4831 66.6899C84.1798 66.2343 84.9927 66.0066 85.9216 66.0066C86.6452 66.0066 87.2972 66.1406 87.8778 66.4085C88.4584 66.6765 88.9341 67.0517 89.3048 67.534C89.6755 68.0164 89.9055 68.5791 89.9948 69.2222H88.4138C88.2932 68.7533 88.0252 68.3379 87.6099 67.9762C87.199 67.6099 86.6452 67.4268 85.9484 67.4268C85.3321 67.4268 84.7917 67.5876 84.3272 67.9092C83.8672 68.2263 83.5077 68.6751 83.2486 69.2557C82.994 69.8319 82.8668 70.5085 82.8668 71.2856C82.8668 72.0806 82.9918 72.7729 83.2419 73.3624C83.4965 73.9519 83.8538 74.4097 84.3138 74.7357C84.7783 75.0618 85.3232 75.2248 85.9484 75.2248C86.3593 75.2248 86.7322 75.1533 87.0672 75.0104C87.4022 74.8675 87.6858 74.6621 87.918 74.3941C88.1503 74.1261 88.3155 73.8045 88.4138 73.4294H89.9948C89.9055 74.0368 89.6844 74.5839 89.3316 75.0707C88.9832 75.5531 88.521 75.9371 87.9448 76.223C87.3731 76.5044 86.7077 76.645 85.9484 76.645ZM91.4954 67.6144V66.1406H99.8562V67.6144H96.4797V76.4307H94.8987V67.6144H91.4954ZM102.162 80.2895V66.1406H103.69V67.7752H103.877C103.994 67.5965 104.154 67.3688 104.36 67.0919C104.57 66.8105 104.869 66.5604 105.257 66.3415C105.65 66.1182 106.182 66.0066 106.852 66.0066C107.718 66.0066 108.482 66.2232 109.143 66.6564C109.804 67.0896 110.32 67.7037 110.691 68.4987C111.061 69.2937 111.247 70.2316 111.247 71.3124C111.247 72.4022 111.061 73.3468 110.691 74.1462C110.32 74.9412 109.806 75.5575 109.15 75.9952C108.493 76.4284 107.736 76.645 106.879 76.645C106.218 76.645 105.688 76.5356 105.291 76.3168C104.893 76.0935 104.588 75.8411 104.373 75.5598C104.159 75.2739 103.994 75.0372 103.877 74.8496H103.743V80.2895H102.162ZM103.717 71.2856C103.717 72.0627 103.831 72.7483 104.058 73.3423C104.286 73.9318 104.619 74.3941 105.056 74.729C105.494 75.0595 106.03 75.2248 106.664 75.2248C107.325 75.2248 107.877 75.0506 108.319 74.7022C108.766 74.3494 109.101 73.876 109.324 73.282C109.552 72.6835 109.666 72.0181 109.666 71.2856C109.666 70.5621 109.554 69.91 109.331 69.3294C109.112 68.7443 108.779 68.2821 108.332 67.9427C107.89 67.5988 107.334 67.4268 106.664 67.4268C106.021 67.4268 105.481 67.5898 105.043 67.9159C104.605 68.2374 104.275 68.6885 104.052 69.2691C103.828 69.8453 103.717 70.5174 103.717 71.2856ZM116.686 76.6718C116.034 76.6718 115.443 76.549 114.911 76.3034C114.38 76.0533 113.958 75.6937 113.645 75.2248C113.332 74.7514 113.176 74.1797 113.176 73.5098C113.176 72.9202 113.292 72.4424 113.524 72.0761C113.757 71.7054 114.067 71.4151 114.456 71.2052C114.844 70.9953 115.273 70.839 115.742 70.7363C116.215 70.6291 116.691 70.5442 117.169 70.4817C117.794 70.4013 118.301 70.341 118.69 70.3008C119.083 70.2562 119.368 70.1825 119.547 70.0797C119.73 69.977 119.822 69.7984 119.822 69.5438V69.4902C119.822 68.8292 119.641 68.3156 119.279 67.9494C118.922 67.5831 118.379 67.4 117.651 67.4C116.896 67.4 116.305 67.5653 115.876 67.8958C115.447 68.2263 115.146 68.5791 114.971 68.9543L113.471 68.4183C113.739 67.793 114.096 67.3062 114.543 66.9579C114.994 66.605 115.485 66.3594 116.017 66.2209C116.552 66.078 117.079 66.0066 117.598 66.0066C117.928 66.0066 118.308 66.0468 118.736 66.1272C119.17 66.2031 119.587 66.3616 119.989 66.6028C120.396 66.844 120.733 67.208 121.001 67.6948C121.269 68.1816 121.403 68.8337 121.403 69.651V76.4307H119.822V75.0372H119.741C119.634 75.2605 119.455 75.4995 119.205 75.754C118.955 76.0086 118.623 76.2252 118.207 76.4039C117.792 76.5825 117.285 76.6718 116.686 76.6718ZM116.928 75.2516C117.553 75.2516 118.08 75.1288 118.509 74.8831C118.942 74.6375 119.268 74.3204 119.487 73.9318C119.71 73.5433 119.822 73.1346 119.822 72.7059V71.2588C119.755 71.3392 119.607 71.4129 119.38 71.4799C119.156 71.5424 118.897 71.5982 118.602 71.6474C118.312 71.692 118.029 71.7322 117.752 71.768C117.479 71.7992 117.258 71.826 117.088 71.8483C116.678 71.9019 116.293 71.989 115.936 72.1096C115.583 72.2257 115.297 72.4022 115.079 72.6389C114.864 72.8711 114.757 73.1882 114.757 73.5902C114.757 74.1395 114.96 74.5549 115.367 74.8362C115.778 75.1131 116.298 75.2516 116.928 75.2516ZM130.479 76.4307V67.5876H127.745C127.129 67.5876 126.644 67.7305 126.292 68.0164C125.939 68.3022 125.762 68.6952 125.762 69.1954C125.762 69.6867 125.921 70.073 126.238 70.3544C126.56 70.6358 126.999 70.7765 127.558 70.7765H130.881V72.2503H127.558C126.861 72.2503 126.26 72.1275 125.756 71.8818C125.251 71.6362 124.862 71.2856 124.59 70.8301C124.317 70.37 124.181 69.8252 124.181 69.1954C124.181 68.5612 124.324 68.0164 124.61 67.5608C124.896 67.1053 125.305 66.7547 125.836 66.509C126.372 66.2634 127.008 66.1406 127.745 66.1406H131.979V76.4307H130.479ZM123.619 76.4307L126.539 71.3124H128.254L125.334 76.4307H123.619ZM141.769 74.0993L146.726 66.1406H148.548V76.4307H146.967V68.4719L142.037 76.4307H140.188V66.1406H141.769V74.0993ZM157.795 66.1406V67.6144H153.025V76.4307H151.444V66.1406H157.795ZM160.103 80.2895V66.1406H161.63V67.7752H161.818C161.934 67.5965 162.095 67.3688 162.3 67.0919C162.51 66.8105 162.809 66.5604 163.198 66.3415C163.591 66.1182 164.122 66.0066 164.792 66.0066C165.659 66.0066 166.423 66.2232 167.084 66.6564C167.745 67.0896 168.26 67.7037 168.631 68.4987C169.002 69.2937 169.187 70.2316 169.187 71.3124C169.187 72.4022 169.002 73.3468 168.631 74.1462C168.26 74.9412 167.747 75.5575 167.09 75.9952C166.434 76.4284 165.677 76.645 164.819 76.645C164.158 76.645 163.629 76.5356 163.231 76.3168C162.834 76.0935 162.528 75.8411 162.314 75.5598C162.099 75.2739 161.934 75.0372 161.818 74.8496H161.684V80.2895H160.103ZM161.657 71.2856C161.657 72.0627 161.771 72.7483 161.999 73.3423C162.227 73.9318 162.559 74.3941 162.997 74.729C163.435 75.0595 163.971 75.2248 164.605 75.2248C165.266 75.2248 165.817 75.0506 166.26 74.7022C166.706 74.3494 167.041 73.876 167.264 73.282C167.492 72.6835 167.606 72.0181 167.606 71.2856C167.606 70.5621 167.494 69.91 167.271 69.3294C167.052 68.7443 166.72 68.2821 166.273 67.9427C165.831 67.5988 165.275 67.4268 164.605 67.4268C163.962 67.4268 163.421 67.5898 162.984 67.9159C162.546 68.2374 162.215 68.6885 161.992 69.2691C161.769 69.8453 161.657 70.5174 161.657 71.2856ZM174.627 76.6718C173.975 76.6718 173.383 76.549 172.852 76.3034C172.32 76.0533 171.898 75.6937 171.585 75.2248C171.273 74.7514 171.117 74.1797 171.117 73.5098C171.117 72.9202 171.233 72.4424 171.465 72.0761C171.697 71.7054 172.008 71.4151 172.396 71.2052C172.785 70.9953 173.213 70.839 173.682 70.7363C174.156 70.6291 174.631 70.5442 175.109 70.4817C175.735 70.4013 176.241 70.341 176.63 70.3008C177.023 70.2562 177.309 70.1825 177.488 70.0797C177.671 69.977 177.762 69.7984 177.762 69.5438V69.4902C177.762 68.8292 177.581 68.3156 177.22 67.9494C176.862 67.5831 176.32 67.4 175.592 67.4C174.837 67.4 174.245 67.5653 173.816 67.8958C173.388 68.2263 173.086 68.5791 172.912 68.9543L171.411 68.4183C171.679 67.793 172.037 67.3062 172.483 66.9579C172.934 66.605 173.426 66.3594 173.957 66.2209C174.493 66.078 175.02 66.0066 175.538 66.0066C175.869 66.0066 176.248 66.0468 176.677 66.1272C177.11 66.2031 177.528 66.3616 177.93 66.6028C178.336 66.844 178.673 67.208 178.941 67.6948C179.209 68.1816 179.343 68.8337 179.343 69.651V76.4307H177.762V75.0372H177.682C177.575 75.2605 177.396 75.4995 177.146 75.754C176.896 76.0086 176.563 76.2252 176.148 76.4039C175.732 76.5825 175.225 76.6718 174.627 76.6718ZM174.868 75.2516C175.493 75.2516 176.02 75.1288 176.449 74.8831C176.882 74.6375 177.208 74.3204 177.427 73.9318C177.651 73.5433 177.762 73.1346 177.762 72.7059V71.2588C177.695 71.3392 177.548 71.4129 177.32 71.4799C177.097 71.5424 176.838 71.5982 176.543 71.6474C176.253 71.692 175.969 71.7322 175.692 71.768C175.42 71.7992 175.199 71.826 175.029 71.8483C174.618 71.9019 174.234 71.989 173.877 72.1096C173.524 72.2257 173.238 72.4022 173.019 72.6389C172.805 72.8711 172.698 73.1882 172.698 73.5902C172.698 74.1395 172.901 74.5549 173.307 74.8362C173.718 75.1131 174.238 75.2516 174.868 75.2516Z" fill="#009CBB"/>
<g clip-path="url(#clip1_595_1548)">
<path d="M29.8936 17.0059V31.9905" stroke="white" stroke-width="1.8" stroke-miterlimit="10" stroke-linecap="round" stroke-linejoin="round"/>
<path d="M10.3616 25.9277L20.9721 36.495" stroke="white" stroke-width="1.8" stroke-miterlimit="10" stroke-linecap="round" stroke-linejoin="round"/>
<path d="M2.30615 46.542H17.2908" stroke="white" stroke-width="1.8" stroke-miterlimit="10" stroke-linecap="round" stroke-linejoin="round"/>
</g>
</g>
<defs>
<clipPath id="clip0_595_1548">
<rect width="234" height="200" fill="white" transform="translate(0.5)"/>
</clipPath>
<clipPath id="clip1_595_1548">
<rect width="30.4" height="32" fill="white" transform="translate(0.899902 15.5996)"/>
</clipPath>
</defs>
</svg>
