<svg width="235" height="200" viewBox="0 0 235 200" fill="none" xmlns="http://www.w3.org/2000/svg">
<path d="M131.318 100.6L131.318 100.6L117.024 30.6796C115.096 21.2162 105.811 15.0853 96.3489 17.0127L96.3479 17.0129L60.1153 24.4367C60.115 24.4368 60.1146 24.4369 60.1142 24.4369C50.5922 26.3653 44.5206 35.6531 46.4473 45.1117L46.4475 45.1123L60.7415 115.031C60.7416 115.032 60.7416 115.032 60.7417 115.032C62.67 124.554 71.9579 130.626 81.4165 128.699L81.4175 128.699L117.65 121.275C117.65 121.275 117.651 121.275 117.651 121.275C127.173 119.347 133.245 110.059 131.318 100.6Z" fill="white" stroke="#009CBB" stroke-width="1.8" stroke-miterlimit="10"/>
<path d="M91.5669 84.6647C89.9543 85.0244 88.439 85.0209 87.0208 84.6542C85.6099 84.276 84.3989 83.5958 83.3879 82.6136C82.3863 81.6293 81.6968 80.4021 81.3194 78.9321L83.8797 78.361C84.3074 79.8792 85.1928 81.0082 86.5359 81.748C87.8768 82.4785 89.3771 82.6586 91.0368 82.2884C92.3288 82.0002 93.4109 81.4371 94.2832 80.599C95.1534 79.7516 95.7515 78.7272 96.0775 77.526C96.4108 76.3132 96.4261 75.0278 96.1232 73.6699C95.7982 72.2575 95.2141 71.0811 94.3708 70.1406C93.5254 69.1908 92.5156 68.5251 91.3416 68.1435C90.177 67.7598 88.9534 67.711 87.6709 67.9971C86.6975 68.2043 85.7808 68.5771 84.9209 69.1154C84.0609 69.6537 83.3776 70.2516 82.8709 70.9091L80.15 71.1596L78.7505 56.697L93.0654 53.504L93.5955 55.8803L81.5014 58.5781L82.5027 68.5263L82.6442 68.4947C83.1655 67.8142 83.8457 67.2021 84.6847 66.6586C85.5331 66.113 86.4713 65.7255 87.4992 65.4962C89.206 65.1155 90.8299 65.1839 92.3709 65.7014C93.9212 66.2168 95.2534 67.1076 96.3673 68.3737C97.4886 69.6283 98.2575 71.1892 98.674 73.0564C99.0821 74.8858 99.0462 76.6113 98.5665 78.2329C98.0941 79.843 97.2526 81.2186 96.042 82.3598C94.8409 83.4989 93.3492 84.2672 91.5669 84.6647Z" fill="#009CBB"/>
<path d="M104.92 128.665C102.116 137.952 107.374 147.706 116.657 150.508L116.658 150.508L152.006 161.146C161.293 163.95 171.046 158.691 173.849 149.408L173.849 149.407L194.404 81.0942C197.207 71.8084 191.951 62.055 182.723 59.2516L182.72 59.2508L147.318 48.6135C138.03 45.8098 128.277 51.0682 125.475 60.3513L125.474 60.3521L104.92 128.665ZM104.92 128.665L105.781 128.925L104.919 128.666L104.92 128.665Z" fill="white" stroke="#009CBB" stroke-width="1.8" stroke-miterlimit="10"/>
<path d="M145.888 106.08L146.123 105.334C146.592 103.881 147.127 102.748 147.729 101.935C148.33 101.122 149.034 100.498 149.84 100.063C150.658 99.6227 151.615 99.2562 152.71 98.9638C153.532 98.7369 154.25 98.4521 154.865 98.1093C155.492 97.7602 156.018 97.3286 156.444 96.8146C156.882 96.2943 157.211 95.6841 157.433 94.9839C157.747 93.9888 157.787 93.0439 157.553 92.1492C157.328 91.2575 156.883 90.4837 156.219 89.8281C155.557 89.1632 154.743 88.678 153.776 88.3724C152.854 88.0814 151.929 88.012 150.999 88.1642C150.082 88.3102 149.246 88.6947 148.492 89.3177C147.75 89.9345 147.175 90.8069 146.769 91.9348L144.157 91.1098C144.683 89.6041 145.477 88.4059 146.538 87.5152C147.6 86.6244 148.821 86.0627 150.201 85.83C151.585 85.5881 153.009 85.6985 154.474 86.1612C156.004 86.6443 157.248 87.387 158.208 88.3894C159.171 89.3826 159.807 90.5307 160.115 91.8337C160.425 93.1275 160.358 94.4792 159.913 95.8889C159.619 96.8194 159.204 97.6205 158.667 98.2921C158.131 98.9637 157.466 99.5288 156.673 99.9875C155.889 100.449 154.969 100.827 153.913 101.122C152.909 101.413 152.077 101.753 151.417 102.142C150.757 102.532 150.211 103.043 149.778 103.676C149.348 104.3 148.963 105.116 148.625 106.124L148.389 106.87L145.888 106.08ZM144.586 114.819C144.043 114.647 143.634 114.305 143.36 113.793C143.098 113.275 143.053 112.744 143.225 112.2C143.4 111.647 143.741 111.239 144.251 110.974C144.769 110.712 145.3 110.667 145.844 110.839C146.387 111.01 146.791 111.351 147.056 111.86C147.33 112.372 147.38 112.905 147.205 113.457C147.092 113.817 146.895 114.119 146.614 114.365C146.343 114.614 146.027 114.782 145.664 114.871C145.314 114.953 144.955 114.935 144.586 114.819Z" fill="#009CBB"/>
<g clip-path="url(#clip0_595_1633)">
<path d="M221.797 70.5371L207.251 66.9405" stroke="white" stroke-width="1.8" stroke-miterlimit="10" stroke-linecap="round" stroke-linejoin="round"/>
<path d="M217.824 49.4346L205.019 57.1986" stroke="white" stroke-width="1.8" stroke-miterlimit="10" stroke-linecap="round" stroke-linejoin="round"/>
<path d="M199.747 36.667L196.15 51.2136" stroke="white" stroke-width="1.8" stroke-miterlimit="10" stroke-linecap="round" stroke-linejoin="round"/>
</g>
<defs>
<clipPath id="clip0_595_1633">
<rect width="30.4" height="32" fill="white" transform="translate(230.122 42.7285) rotate(103.888)"/>
</clipPath>
</defs>
</svg>
