<svg width="235" height="200" viewBox="0 0 235 200" fill="none" xmlns="http://www.w3.org/2000/svg">
<path d="M131.299 100.6L116.999 30.6999C115.099 21.1999 105.799 15.0999 96.2993 16.9999L60.0993 24.3999C50.5993 26.2999 44.4993 35.5999 46.3993 45.0999L60.6993 115C62.5993 124.5 71.8993 130.6 81.3993 128.7L117.599 121.3C127.199 119.3 133.199 110.1 131.299 100.6Z" fill="#E7ECF1"/>
<path d="M77.8996 130C74.2996 130 70.7995 129 67.6995 126.9C63.5995 124.2 60.7996 120 59.7996 115.2L45.5996 45.2996C44.5996 40.4996 45.5996 35.4996 48.2996 31.3996C50.9996 27.2996 55.1996 24.4996 59.9996 23.4996L96.1996 16.0996C101 15.0996 105.9 16.0996 110 18.7996C114.1 21.4996 116.9 25.6996 117.9 30.4996L132.2 100.4C133.2 105.2 132.2 110.2 129.5 114.3C126.8 118.4 122.6 121.2 117.8 122.2L81.5996 129.6C80.3996 129.8 79.0996 130 77.8996 130ZM99.8996 17.5996C98.7996 17.5996 97.6996 17.6996 96.5996 17.8996L60.3996 25.2996C56.0996 26.1996 52.2996 28.6996 49.8996 32.3996C47.3996 36.0996 46.5996 40.5996 47.4996 44.8996L61.7996 114.8C62.6996 119.1 65.1996 122.9 68.8996 125.3C72.5996 127.8 77.0996 128.6 81.3996 127.7L117.6 120.3C121.9 119.4 125.7 116.9 128.1 113.2C130.6 109.5 131.4 105 130.5 100.7L116.2 30.7996C115.3 26.4995 112.8 22.6996 109.1 20.2996C106.3 18.4996 103.1 17.5996 99.8996 17.5996Z" fill="#096784"/>
<path d="M91.5992 84.7C89.9992 85 88.3992 85 86.9992 84.7C85.5992 84.3 84.3992 83.6 83.3992 82.7C82.3992 81.7 81.6992 80.5 81.2992 79L83.8992 78.4C84.2992 79.9 85.1992 81 86.5992 81.8C87.8992 82.5 89.3992 82.7 91.0992 82.3C92.3992 82 93.4992 81.4 94.2992 80.6C95.1992 79.8 95.7992 78.7 96.0992 77.5C96.3992 76.3 96.3992 75 96.0992 73.6C95.7992 72.2 95.1992 71 94.2992 70.1C93.4992 69.2 92.3992 68.5 91.2992 68.1C90.0992 67.7 88.8992 67.7 87.5992 68C86.5992 68.2 85.6992 68.6 84.7992 69.1C83.8992 69.6 83.2992 70.2 82.7992 70.9L80.0992 71.2L78.6992 56.7L92.9992 53.5L93.4992 55.9L81.3992 58.6L82.3992 68.5H82.4992C82.9992 67.8 83.6992 67.2 84.4992 66.7C85.2992 66.2 86.2992 65.8 87.2992 65.5C88.9992 65.1 90.5992 65.2 92.1992 65.7C93.7992 66.2 95.0992 67.1 96.1992 68.4C97.2992 69.7 98.0992 71.2 98.4992 73.1C98.8992 74.9 98.8992 76.7 98.3992 78.3C97.8992 79.9 97.0992 81.3 95.8992 82.4C94.7992 83.5 93.2992 84.3 91.5992 84.7Z" fill="#096784"/>
<path d="M104.9 128.7C102.1 138 107.4 147.7 116.6 150.5L151.9 161.1C161.2 163.9 170.9 158.6 173.7 149.4L194.3 81.1004C197.1 71.8004 191.8 62.1004 182.6 59.3004L147.2 48.7004C137.9 45.9004 128.2 51.2004 125.4 60.4004L104.9 128.7Z" fill="#E7ECF1"/>
<path d="M157.099 162.8C155.299 162.8 153.499 162.5 151.699 162L116.399 151.4C111.699 150 107.799 146.8 105.499 142.5C103.199 138.2 102.699 133.2 104.099 128.5L124.699 60.2004C127.599 50.5004 137.899 44.9004 147.699 47.9004L182.999 58.4004C192.699 61.3004 198.199 71.7004 195.299 81.4004L174.699 149.7C173.299 154.4 170.099 158.3 165.799 160.6C163.099 162.1 160.099 162.8 157.099 162.8ZM142.299 48.8004C135.199 48.8004 128.499 53.5004 126.399 60.6004L105.799 128.9C104.499 133.2 104.999 137.7 107.099 141.6C109.199 145.5 112.699 148.4 116.999 149.7L152.299 160.3C156.599 161.6 161.099 161.1 164.999 159C168.899 156.9 171.799 153.4 173.099 149.1L193.699 80.8004C196.299 72.0004 191.399 62.7004 182.599 60.1004L147.199 49.5004C145.499 49.0004 143.899 48.8004 142.299 48.8004Z" fill="#096784"/>
<path d="M145.9 106.1L146.1 105.4C146.6 103.9 147.1 102.8 147.7 102C148.3 101.2 149 100.6 149.8 100.1C150.6 99.6998 151.6 99.2998 152.7 98.9998C153.5 98.7998 154.2 98.4998 154.9 98.0998C155.5 97.7998 156.1 97.2998 156.5 96.7998C156.9 96.2998 157.3 95.6998 157.5 94.9998C157.8 93.9998 157.9 93.0998 157.6 92.1998C157.4 91.2998 156.9 90.4998 156.3 89.8998C155.6 89.1998 154.8 88.6998 153.9 88.3998C153 88.0998 152.1 87.9998 151.1 88.1998C150.2 88.2998 149.3 88.6998 148.6 89.3998C147.9 89.9998 147.3 90.8998 146.9 91.9998L144.3 91.1998C144.8 89.6998 145.6 88.4998 146.7 87.5998C147.8 86.6998 149 86.0998 150.4 85.8998C151.8 85.6998 153.2 85.7998 154.7 86.1998C156.2 86.6998 157.5 87.3998 158.4 88.3998C159.4 89.3998 160 90.4998 160.3 91.7998C160.6 93.0998 160.5 94.3998 160.1 95.8998C159.8 96.7998 159.4 97.5998 158.9 98.2998C158.4 98.9998 157.7 99.4998 156.9 99.9998C156.1 100.5 155.2 100.8 154.1 101.1C153.1 101.4 152.3 101.7 151.6 102.1C150.9 102.5 150.4 103 150 103.6C149.6 104.2 149.2 105 148.8 106L148.6 106.7L145.9 106.1ZM144.6 114.8C144.1 114.6 143.6 114.3 143.4 113.8C143.1 113.3 143.1 112.8 143.3 112.2C143.5 111.6 143.8 111.2 144.3 111C144.8 110.7 145.3 110.7 145.9 110.9C146.4 111.1 146.8 111.4 147.1 111.9C147.4 112.4 147.4 112.9 147.2 113.5C147.1 113.9 146.9 114.2 146.6 114.4C146.3 114.6 146 114.8 145.7 114.9C145.3 115 145 114.9 144.6 114.8Z" fill="#096784"/>
<mask id="mask0_1047_2086" style="mask-type:luminance" maskUnits="userSpaceOnUse" x="191" y="35" width="40" height="38">
<path d="M199.001 35.0695L191.705 64.5811L222.77 72.2609L230.066 42.7493L199.001 35.0695Z" fill="white"/>
</mask>
<g mask="url(#mask0_1047_2086)">
<path d="M221.799 70.4994L207.299 66.8994" stroke="#E7ECF1" stroke-width="1.8" stroke-miterlimit="10" stroke-linecap="round" stroke-linejoin="round"/>
<path d="M217.8 49.3994L205 57.1994" stroke="#E7ECF1" stroke-width="1.8" stroke-miterlimit="10" stroke-linecap="round" stroke-linejoin="round"/>
<path d="M199.7 36.6992L196.1 51.1992" stroke="#E7ECF1" stroke-width="1.8" stroke-miterlimit="10" stroke-linecap="round" stroke-linejoin="round"/>
</g>
</svg>
