<svg width="234" height="200" viewBox="0 0 234 200" fill="none" xmlns="http://www.w3.org/2000/svg">
<path d="M185 99H46C36.3 99 28.5 92 28.5 83.3V57.7C28.5 49 36.4 42 46 42H185C194.7 42 202.5 49 202.5 57.7V83.3C202.6 92 194.7 99 185 99Z" fill="#E7ECF1" stroke="#E7ECF1" stroke-width="1.8" stroke-miterlimit="10" stroke-linecap="round" stroke-linejoin="round"/>
<mask id="mask0_1047_2068" style="mask-type:luminance" maskUnits="userSpaceOnUse" x="0" y="15" width="31" height="33">
<path d="M30.8004 15.5996H0.400391V47.5996H30.8004V15.5996Z" fill="white"/>
</mask>
<g mask="url(#mask0_1047_2068)">
<path d="M29.4004 17V32" stroke="#E7ECF1" stroke-width="1.8" stroke-miterlimit="10" stroke-linecap="round" stroke-linejoin="round"/>
<path d="M9.90039 25.9004L20.5004 36.5004" stroke="#E7ECF1" stroke-width="1.8" stroke-miterlimit="10" stroke-linecap="round" stroke-linejoin="round"/>
<path d="M1.80078 46.5H16.8008" stroke="#E7ECF1" stroke-width="1.8" stroke-miterlimit="10" stroke-linecap="round" stroke-linejoin="round"/>
</g>
<path d="M135 146.1C134.4 150.1 133.7 152.9 129.5 155.1L110.8 164.9L108.8 166C107.6 166.6 106.2 167 104.9 167C101.4 167 98.1999 164.7 96.0999 160.8C95.0999 158.9 91.3999 151.8 88.0999 145.6C85.4999 140.7 83.1999 136.3 82.6999 135.4C81.6999 133.5 81.7999 131.5 82.7999 129.8C83.8999 127.9 86.0999 126.7 88.3999 126.7C88.7999 126.7 89.0999 126.7 89.4999 126.8C88.8999 124.9 88.9999 123 89.9999 121.5C91.0999 119.7 93.0999 118.6 95.1999 118.6C95.6999 118.6 96.1999 118.7 96.6999 118.8C96.1999 117 96.3999 115.3 97.2999 113.8C98.2999 112.1 100.2 111 102.3 111C102.8 111 103.2 111 103.7 111.1C102.2 108.2 100.5 105.1 99.0999 102.5C96.9999 98.6002 95.3999 95.5002 95.2999 95.4002C94.1999 93.3002 94.1999 91.0002 95.2999 89.1002C96.3999 87.3002 98.2999 86.2002 100.4 86.2002C102.7 86.2002 104.7 87.5002 105.9 89.9002C106 90.1002 108.3 94.5002 111.2 100C114.9 107 119.5 115.7 121.9 120.3C122 119.8 122 119.4 122.1 118.9C122.6 115.4 123.1 111.8 124.2 109.9C126.4 106.3 129.2 105 131.2 105C132.2 105 133 105.3 133.5 105.9C133.9 106.4 134.2 107 134.1 107.7C133.9 110.1 134.4 126.1 134.8 131.5C134.8 132.3 134.9 133.1 134.9 133.9C135.2 138.5 135.5 143 135 146.1Z" fill="#096784"/>
<path d="M92.2002 130.9C92.4002 131 92.6003 130.9 92.8003 130.8C93.1003 130.6 93.3003 130.3 93.1003 129.9C92.9003 129.4 91.8003 127.5 91.6003 127C88.5003 121.1 96.3003 117.3 99.3003 123C99.6003 123.6 100.5 125.4 100.7 125.7C101.1 126.4 102.3 125.8 101.9 125.1C101.3 124 99.1003 119.9 98.9003 119.6C95.7003 113.4 103.4 109.9 106.3 115.4C106.4 115.6 109.1 120.5 109.4 121.2C109.8 121.9 111 121.4 110.6 120.5C109.7 119 97.0003 94.7999 96.8003 94.3999C94.0003 89.0999 101.3 84.7999 104.3 90.4999C104.6 90.9999 121.1 122.5 121.9 124C123.7 127.4 123.7 114.1 125.7 110.7C128.5 106 132.4 106.2 132.3 107.4C132 110.1 132.7 126.7 132.9 131.5C133.2 137 133.7 142.4 133.2 145.8C132.6 149.8 131.9 151.7 128.6 153.4C124.6 155.5 109.8 163.2 107.8 164.3C104.6 166 100.3 165.1 97.6003 159.8C95.8003 156.4 85.3003 136.5 84.2003 134.4C81.8002 129.8 88.6003 125.9 91.4003 129.9C91.7003 130.3 91.9002 130.8 92.2002 130.9Z" fill="#E7ECF1"/>
<g clip-path="url(#clip0_1047_2068)">
<path d="M54.6611 76.0004V62.2803H62.9415V63.7541H56.3226V68.0417H59.8062C60.7887 68.0417 61.6172 68.2024 62.2916 68.524C62.9705 68.8456 63.4841 69.2989 63.8325 69.884C64.1853 70.469 64.3617 71.1591 64.3617 71.9541C64.3617 72.749 64.1853 73.4502 63.8325 74.0576C63.4841 74.665 62.9705 75.1407 62.2916 75.4846C61.6172 75.8285 60.7887 76.0004 59.8062 76.0004H54.6611ZM56.3226 74.5534H59.8062C60.4315 74.5534 60.9607 74.4283 61.3939 74.1782C61.8316 73.9236 62.1621 73.5976 62.3854 73.2001C62.6132 72.7981 62.7271 72.3739 62.7271 71.9272C62.7271 71.2707 62.4747 70.7057 61.9701 70.2323C61.4654 69.7544 60.7441 69.5155 59.8062 69.5155H56.3226V74.5534ZM68.249 69.4351H71.1966C72.4025 69.4351 73.3248 69.741 73.9635 70.3529C74.6021 70.9648 74.9215 71.7397 74.9215 72.6776C74.9215 73.2939 74.7785 73.8544 74.4927 74.3591C74.2069 74.8593 73.787 75.259 73.2332 75.5582C72.6794 75.853 72.0006 76.0004 71.1966 76.0004H66.8823V65.7103H68.4633V74.5266H71.1966C71.8219 74.5266 72.3355 74.3613 72.7375 74.0308C73.1394 73.7003 73.3404 73.276 73.3404 72.7579C73.3404 72.2131 73.1394 71.7687 72.7375 71.4248C72.3355 71.0809 71.8219 70.909 71.1966 70.909H68.249V69.4351ZM76.5561 76.0004V65.7103H78.1371V76.0004H76.5561ZM85.2116 76.2148C84.2469 76.2148 83.4162 75.987 82.7194 75.5314C82.0227 75.0759 81.4868 74.4484 81.1116 73.6489C80.7364 72.8495 80.5489 71.9362 80.5489 70.909C80.5489 69.8639 80.7409 68.9416 81.125 68.1421C81.5136 67.3382 82.054 66.7107 82.7462 66.2596C83.4429 65.8041 84.2558 65.5763 85.1848 65.5763C85.9083 65.5763 86.5604 65.7103 87.141 65.9783C87.7216 66.2462 88.1972 66.6214 88.5679 67.1038C88.9386 67.5861 89.1686 68.1488 89.2579 68.792H87.6769C87.5563 68.323 87.2883 67.9077 86.873 67.5459C86.4621 67.1797 85.9083 66.9966 85.2116 66.9966C84.5952 66.9966 84.0548 67.1574 83.5903 67.4789C83.1303 67.796 82.7708 68.2449 82.5117 68.8255C82.2572 69.4016 82.1299 70.0782 82.1299 70.8554C82.1299 71.6503 82.2549 72.3426 82.505 72.9321C82.7596 73.5217 83.1169 73.9794 83.5769 74.3055C84.0414 74.6315 84.5863 74.7945 85.2116 74.7945C85.6225 74.7945 85.9954 74.7231 86.3303 74.5802C86.6653 74.4372 86.9489 74.2318 87.1812 73.9638C87.4134 73.6958 87.5786 73.3743 87.6769 72.9991H89.2579C89.1686 73.6065 88.9475 74.1536 88.5947 74.6404C88.2463 75.1228 87.7841 75.5069 87.2079 75.7927C86.6363 76.0741 85.9708 76.2148 85.2116 76.2148ZM90.7586 67.1841V65.7103H99.1193V67.1841H95.7428V76.0004H94.1618V67.1841H90.7586ZM101.426 79.8592V65.7103H102.953V67.3449H103.141C103.257 67.1663 103.417 66.9385 103.623 66.6616C103.833 66.3802 104.132 66.1301 104.521 65.9113C104.914 65.688 105.445 65.5763 106.115 65.5763C106.982 65.5763 107.745 65.7929 108.406 66.2262C109.067 66.6594 109.583 67.2735 109.954 68.0685C110.324 68.8634 110.51 69.8013 110.51 70.8822C110.51 71.9719 110.324 72.9165 109.954 73.7159C109.583 74.5109 109.069 75.1273 108.413 75.5649C107.756 75.9982 106.999 76.2148 106.142 76.2148C105.481 76.2148 104.952 76.1054 104.554 75.8865C104.157 75.6632 103.851 75.4109 103.636 75.1295C103.422 74.8437 103.257 74.6069 103.141 74.4194H103.007V79.8592H101.426ZM102.98 70.8554C102.98 71.6325 103.094 72.318 103.321 72.912C103.549 73.5016 103.882 73.9638 104.32 74.2988C104.757 74.6293 105.293 74.7945 105.927 74.7945C106.588 74.7945 107.14 74.6203 107.582 74.272C108.029 73.9192 108.364 73.4457 108.587 72.8517C108.815 72.2533 108.929 71.5878 108.929 70.8554C108.929 70.1318 108.817 69.4798 108.594 68.8992C108.375 68.3141 108.042 67.8518 107.596 67.5124C107.153 67.1685 106.597 66.9966 105.927 66.9966C105.284 66.9966 104.744 67.1596 104.306 67.4856C103.869 67.8072 103.538 68.2583 103.315 68.8389C103.091 69.415 102.98 70.0872 102.98 70.8554ZM115.95 76.2416C115.298 76.2416 114.706 76.1188 114.174 75.8731C113.643 75.623 113.221 75.2635 112.908 74.7945C112.596 74.3211 112.439 73.7494 112.439 73.0795C112.439 72.49 112.555 72.0121 112.788 71.6459C113.02 71.2752 113.33 70.9849 113.719 70.775C114.107 70.5651 114.536 70.4087 115.005 70.306C115.478 70.1988 115.954 70.114 116.432 70.0514C117.057 69.9711 117.564 69.9108 117.953 69.8706C118.346 69.8259 118.632 69.7522 118.81 69.6495C118.993 69.5468 119.085 69.3681 119.085 69.1135V69.06C119.085 68.399 118.904 67.8853 118.542 67.5191C118.185 67.1529 117.642 66.9698 116.914 66.9698C116.16 66.9698 115.568 67.135 115.139 67.4655C114.71 67.796 114.409 68.1488 114.235 68.524L112.734 67.9881C113.002 67.3628 113.359 66.876 113.806 66.5276C114.257 66.1748 114.748 65.9291 115.28 65.7907C115.816 65.6478 116.343 65.5763 116.861 65.5763C117.191 65.5763 117.571 65.6165 118 65.6969C118.433 65.7728 118.85 65.9314 119.252 66.1726C119.659 66.4137 119.996 66.7777 120.264 67.2645C120.532 67.7514 120.666 68.4034 120.666 69.2207V76.0004H119.085V74.6069H119.005C118.897 74.8303 118.719 75.0692 118.469 75.3238C118.218 75.5783 117.886 75.795 117.47 75.9736C117.055 76.1523 116.548 76.2416 115.95 76.2416ZM116.191 74.8213C116.816 74.8213 117.343 74.6985 117.772 74.4529C118.205 74.2072 118.531 73.8901 118.75 73.5016C118.973 73.113 119.085 72.7043 119.085 72.2756V70.8286C119.018 70.909 118.871 70.9826 118.643 71.0496C118.419 71.1122 118.16 71.168 117.866 71.2171C117.575 71.2618 117.292 71.302 117.015 71.3377C116.742 71.369 116.521 71.3958 116.352 71.4181C115.941 71.4717 115.557 71.5588 115.199 71.6794C114.846 71.7955 114.561 71.9719 114.342 72.2086C114.127 72.4408 114.02 72.7579 114.02 73.1599C114.02 73.7092 114.223 74.1246 114.63 74.406C115.041 74.6829 115.561 74.8213 116.191 74.8213ZM129.742 76.0004V67.1574H127.008C126.392 67.1574 125.908 67.3003 125.555 67.5861C125.202 67.8719 125.025 68.265 125.025 68.7652C125.025 69.2565 125.184 69.6428 125.501 69.9242C125.823 70.2055 126.263 70.3462 126.821 70.3462H130.144V71.8201H126.821C126.124 71.8201 125.523 71.6972 125.019 71.4516C124.514 71.206 124.126 70.8554 123.853 70.3998C123.581 69.9398 123.444 69.3949 123.444 68.7652C123.444 68.131 123.587 67.5861 123.873 67.1306C124.159 66.675 124.568 66.3244 125.099 66.0788C125.635 65.8331 126.272 65.7103 127.008 65.7103H131.242V76.0004H129.742ZM122.882 76.0004L125.803 70.8822H127.518L124.597 76.0004H122.882ZM141.032 73.669L145.989 65.7103H147.811V76.0004H146.23V68.0417L141.3 76.0004H139.451V65.7103H141.032V73.669ZM157.058 65.7103V67.1841H152.288V76.0004H150.707V65.7103H157.058ZM159.366 79.8592V65.7103H160.894V67.3449H161.081C161.197 67.1663 161.358 66.9385 161.564 66.6616C161.774 66.3802 162.073 66.1301 162.461 65.9113C162.854 65.688 163.386 65.5763 164.056 65.5763C164.922 65.5763 165.686 65.7929 166.347 66.2262C167.008 66.6594 167.524 67.2735 167.894 68.0685C168.265 68.8634 168.451 69.8013 168.451 70.8822C168.451 71.9719 168.265 72.9165 167.894 73.7159C167.524 74.5109 167.01 75.1273 166.354 75.5649C165.697 75.9982 164.94 76.2148 164.083 76.2148C163.422 76.2148 162.892 76.1054 162.495 75.8865C162.097 75.6632 161.791 75.4109 161.577 75.1295C161.363 74.8437 161.197 74.6069 161.081 74.4194H160.947V79.8592H159.366ZM160.921 70.8554C160.921 71.6325 161.034 72.318 161.262 72.912C161.49 73.5016 161.823 73.9638 162.26 74.2988C162.698 74.6293 163.234 74.7945 163.868 74.7945C164.529 74.7945 165.081 74.6203 165.523 74.272C165.97 73.9192 166.305 73.4457 166.528 72.8517C166.756 72.2533 166.87 71.5878 166.87 70.8554C166.87 70.1318 166.758 69.4798 166.535 68.8992C166.316 68.3141 165.983 67.8518 165.536 67.5124C165.094 67.1685 164.538 66.9966 163.868 66.9966C163.225 66.9966 162.685 67.1596 162.247 67.4856C161.809 67.8072 161.479 68.2583 161.255 68.8389C161.032 69.415 160.921 70.0872 160.921 70.8554ZM173.89 76.2416C173.238 76.2416 172.647 76.1188 172.115 75.8731C171.584 75.623 171.162 75.2635 170.849 74.7945C170.536 74.3211 170.38 73.7494 170.38 73.0795C170.38 72.49 170.496 72.0121 170.728 71.6459C170.961 71.2752 171.271 70.9849 171.659 70.775C172.048 70.5651 172.477 70.4087 172.946 70.306C173.419 70.1988 173.895 70.114 174.373 70.0514C174.998 69.9711 175.505 69.9108 175.893 69.8706C176.286 69.8259 176.572 69.7522 176.751 69.6495C176.934 69.5468 177.026 69.3681 177.026 69.1135V69.06C177.026 68.399 176.845 67.8853 176.483 67.5191C176.126 67.1529 175.583 66.9698 174.855 66.9698C174.1 66.9698 173.509 67.135 173.08 67.4655C172.651 67.796 172.35 68.1488 172.175 68.524L170.675 67.9881C170.943 67.3628 171.3 66.876 171.747 66.5276C172.198 66.1748 172.689 65.9291 173.22 65.7907C173.756 65.6478 174.283 65.5763 174.801 65.5763C175.132 65.5763 175.512 65.6165 175.94 65.6969C176.374 65.7728 176.791 65.9314 177.193 66.1726C177.6 66.4137 177.937 66.7777 178.205 67.2645C178.473 67.7514 178.607 68.4034 178.607 69.2207V76.0004H177.026V74.6069H176.945C176.838 74.8303 176.659 75.0692 176.409 75.3238C176.159 75.5783 175.826 75.795 175.411 75.9736C174.996 76.1523 174.489 76.2416 173.89 76.2416ZM174.132 74.8213C174.757 74.8213 175.284 74.6985 175.713 74.4529C176.146 74.2072 176.472 73.8901 176.691 73.5016C176.914 73.113 177.026 72.7043 177.026 72.2756V70.8286C176.959 70.909 176.811 70.9826 176.583 71.0496C176.36 71.1122 176.101 71.168 175.806 71.2171C175.516 71.2618 175.232 71.302 174.956 71.3377C174.683 71.369 174.462 71.3958 174.292 71.4181C173.881 71.4717 173.497 71.5588 173.14 71.6794C172.787 71.7955 172.501 71.9719 172.283 72.2086C172.068 72.4408 171.961 72.7579 171.961 73.1599C171.961 73.7092 172.164 74.1246 172.571 74.406C172.981 74.6829 173.502 74.8213 174.132 74.8213Z" fill="#096784"/>
</g>
<defs>
<clipPath id="clip0_1047_2068">
<rect width="125" height="18" fill="white" transform="translate(54 62)"/>
</clipPath>
</defs>
</svg>
