<svg xmlns="http://www.w3.org/2000/svg" data-name="Слой 1" width="118" height="944" style=""><rect id="backgroundrect" width="100%" height="100%" x="0" y="0" fill="none" stroke="none"/><defs><style>.cls-1{fill:#e8bda0;}.cls-2{fill:none;stroke:#aa734f;stroke-linecap:round;stroke-linejoin:round;stroke-width:3.05px;}.cls-3{fill:#f18225;}</style></defs><title>Монтажная область 1</title><g class="currentLayer" style=""><title>Layer 1</title><path class="cls-1 selected" d="M72.23818181276322,523.9909118652344 V284.7009118652344 a6.28,6.28 0 0 0 -6.28,-6.29 H26.048181812763215 A6.28,6.28 0 0 0 19.818181812763214,284.7009118652344 v35.72 H14.398181812763214 a7.5,7.5 0 0 0 -7.49,7.51 v6 a7.49,7.49 0 0 0 7.49,7.51 H19.818181812763214 V523.9909118652344 a6.28,6.28 0 0 0 6.28,6.29 H65.95818181276321 A6.24,6.24 0 0 0 72.23818181276322,523.9909118652344 z" id="svg_1"/><path class="cls-1 selected" d="M9.028181812763215,639.2409118652344 c0,0.12000000000000002 0,-88.8 0,-101.52 c0,-12 6.76,-17.55 14,-17.55 H69.87818181276322 c7.37,0 10.63,2.54 15.15,9.38 c8.15,12.23 14.61,29.3 17.51,35.41 C106.81818181276321,573.8109118652344 118.41818181276321,597.0909118652344 119.62818181276322,599.0909118652344 c1.33,2.24 -4.53,6.42 -11.89,3.21 s-22.52,-26 -22.52,-20.64 v73.85 c0,13.14 -16.84,12.17 -16.84,0.12000000000000002 V601.0909118652344 a1.36,1.36 0 1 0 -2.72,-0.18000000000000005 v72.22 c0,12.59 -16.9,13.56 -16.9,-0.54 V600.8709118652343 c0,-1.51 -2.72,-1.57 -2.72,0.06000000000000002 v59.44 c0,13 -17.21,13.44 -17.21,0 v-60 c0,-1.7000000000000002 -2.9,-1.7600000000000002 -2.9,0 v39.1 C25.928181812763214,651.7709118652343 9.088181812763214,652.9809118652344 9.028181812763215,639.2409118652344 z" id="svg_2"/><path class="cls-2 selected" d="M21.458181812763215,374.35091186523437 H16.148181812763212 " id="svg_3"/><path class="cls-2 selected" d="M21.458181812763215,390.6909118652344 H16.148181812763212 " id="svg_4"/><path class="cls-2 selected" d="M21.458181812763215,382.5209118652343 H16.148181812763212 " id="svg_5"/><path class="cls-3 selected" d="M1.9281818127632142,0.9090888028476911 h88 V233.08103206029875 h0 V286.1457614701126 a5.42,2.8394790542125703 0 0 1 -5.43,2.8551957279443743 H7.368181812763214 a5.42,2.8394790542125703 0 0 1 -5.43,-2.8551957279443743 V0.9090888028476911 z" id="svg_6"/></g></svg>