<svg width="64" height="64" viewBox="0 0 64 64" fill="none" xmlns="http://www.w3.org/2000/svg">
<path d="M33.496 15.7933C33.608 15.7933 33.696 15.7933 33.784 15.7933C38.7906 15.7933 43.7973 15.7867 48.804 15.796C53.1706 15.804 57.0533 18.444 58.6813 22.4947C59.1866 23.752 59.4413 25.0613 59.4453 26.4173C59.4493 28.0053 59.448 29.5933 59.4453 31.18C59.4386 36.236 55.864 40.6213 50.9093 41.6093C50.1533 41.76 49.3693 41.8147 48.596 41.824C46.3533 41.852 44.1106 41.8333 41.868 41.8333C41.7466 41.8333 41.6266 41.8333 41.468 41.8333C41.468 45.164 41.468 48.476 41.468 51.8093C38.7933 51.8093 36.156 51.8093 33.4946 51.8093C33.496 39.82 33.496 27.8267 33.496 15.7933ZM41.4693 33.8213C41.5506 33.828 41.6026 33.836 41.656 33.836C44.0413 33.836 46.4266 33.8533 48.812 33.8307C50.3253 33.816 51.4506 32.636 51.456 31.112C51.4613 29.6147 51.42 28.1147 51.468 26.6187C51.516 25.16 50.3826 23.7573 48.6213 23.78C46.3586 23.8107 44.0946 23.788 41.8306 23.788C41.7133 23.788 41.596 23.788 41.468 23.788C41.4693 27.1507 41.4693 30.4653 41.4693 33.8213Z" fill="#E7ECF1"/>
<path d="M30.3306 15.7935C30.3306 24.4042 30.3306 32.9615 30.3306 41.5709C30.208 41.5709 30.092 41.5709 29.976 41.5709C25.048 41.5709 20.12 41.5762 15.192 41.5695C10.0093 41.5629 5.56529 37.8015 4.70929 32.7002C4.63062 32.2309 4.57462 31.7535 4.57062 31.2789C4.55329 29.5589 4.53996 27.8375 4.56662 26.1175C4.63996 21.3615 8.16129 17.0842 12.856 16.0709C13.62 15.9055 14.4133 15.8095 15.1933 15.8055C20.132 15.7815 25.0706 15.7935 30.0106 15.7935C30.108 15.7935 30.2053 15.7935 30.3306 15.7935ZM22.3373 23.7935C22.24 23.7882 22.1746 23.7815 22.1093 23.7815C19.8133 23.7815 17.5173 23.7749 15.2213 23.7855C13.7066 23.7922 12.5546 24.9615 12.552 26.4709C12.5493 27.9015 12.588 29.3335 12.5413 30.7642C12.4893 32.3789 13.816 33.6282 15.3546 33.5962C17.572 33.5495 19.7906 33.5842 22.0093 33.5842C22.116 33.5842 22.2213 33.5735 22.336 33.5682C22.3373 30.3002 22.3373 27.0642 22.3373 23.7935Z" fill="#E7ECF1"/>
</svg>
