<svg width="108" height="88" viewBox="0 0 108 88" fill="none" xmlns="http://www.w3.org/2000/svg">
<path d="M71.1363 70.3582H58.5363C55.0503 70.3582 52.2363 67.5442 52.2363 64.0582V51.4582C52.2363 47.9722 55.0503 45.1582 58.5363 45.1582H71.1363C74.6223 45.1582 77.4363 47.9722 77.4363 51.4582V64.0582C77.4363 67.5232 74.6223 70.3582 71.1363 70.3582Z" fill="#E7ECF1" stroke="#E7ECF1" stroke-width="1.4" stroke-miterlimit="10" stroke-linecap="round" stroke-linejoin="round"/>
<path d="M60.8454 55.4483H58.7454C57.8214 55.4483 57.0654 54.6923 57.0654 53.7683V51.6683C57.0654 50.7443 57.8214 49.9883 58.7454 49.9883H60.8454C61.7694 49.9883 62.5254 50.7443 62.5254 51.6683V53.7683C62.5254 54.6923 61.7694 55.4483 60.8454 55.4483Z" stroke="#096784" stroke-width="1.4" stroke-miterlimit="10" stroke-linecap="round" stroke-linejoin="round"/>
<path d="M70.9255 65.5284H68.8255C67.9015 65.5284 67.1455 64.7724 67.1455 63.8484V61.7484C67.1455 60.8244 67.9015 60.0684 68.8255 60.0684H70.9255C71.8495 60.0684 72.6055 60.8244 72.6055 61.7484V63.8484C72.6055 64.7724 71.8495 65.5284 70.9255 65.5284Z" stroke="#096784" stroke-width="1.4" stroke-miterlimit="10" stroke-linecap="round" stroke-linejoin="round"/>
<path d="M65.8018 49.9883H69.2038" stroke="#096784" stroke-width="1.4" stroke-miterlimit="10" stroke-linecap="round" stroke-linejoin="round"/>
<path d="M71.5977 54.3564V56.2044" stroke="#096784" stroke-width="1.4" stroke-miterlimit="10" stroke-linecap="round" stroke-linejoin="round"/>
<path d="M67.7754 54.3564V56.6874" stroke="#096784" stroke-width="1.4" stroke-miterlimit="10" stroke-linecap="round" stroke-linejoin="round"/>
<path d="M62.5254 65.5283H63.5544" stroke="#096784" stroke-width="1.4" stroke-miterlimit="10" stroke-linecap="round" stroke-linejoin="round"/>
<path d="M61.0547 62.2309V59.8369" stroke="#096784" stroke-width="1.4" stroke-miterlimit="10" stroke-linecap="round" stroke-linejoin="round"/>
<path d="M57.0654 58.6621V60.4051" stroke="#096784" stroke-width="1.4" stroke-miterlimit="10" stroke-linecap="round" stroke-linejoin="round"/>
<path d="M57.0654 65.4238H59.8164" stroke="#096784" stroke-width="1.4" stroke-miterlimit="10" stroke-linecap="round" stroke-linejoin="round"/>
<path d="M13.4495 29.1349C13.4495 29.1349 34.6595 20.3359 36.4235 19.5379C38.0195 18.8029 40.3085 19.3909 39.9305 21.6799C39.6365 24.3049 37.6205 38.8999 37.2425 41.1049C37.0115 43.0999 34.5965 43.8349 32.8535 42.7849C31.7615 42.1339 26.6585 39.0049 25.8605 38.4169C24.4325 37.4299 23.5715 35.2879 25.6085 33.2299C27.2885 31.5499 29.3465 29.3659 30.0815 28.6309C31.1735 27.4549 30.2495 26.6149 29.0945 27.4129C28.4435 27.8539 22.0805 32.0539 20.9045 32.7889C19.7495 33.5449 17.7965 34.0069 15.7595 33.3559C14.2265 32.9149 13.5125 32.7049 12.5675 32.3479C11.4755 31.9069 10.8245 30.2269 13.4495 29.1349Z" fill="#E7ECF1" stroke="#E7ECF1" stroke-width="0.6" stroke-miterlimit="10" stroke-linecap="round" stroke-linejoin="round"/>
<path d="M12.8431 37.3672L3.41406 41.3572" stroke="#E7ECF1" stroke-width="1.4" stroke-miterlimit="10" stroke-linecap="round" stroke-linejoin="round"/>
<path d="M15.4433 40.2021L5.02734 48.8121" stroke="#E7ECF1" stroke-width="1.4" stroke-miterlimit="10" stroke-linecap="round" stroke-linejoin="round"/>
<path d="M14.3946 47.3418L8.89258 53.9568" stroke="#E7ECF1" stroke-width="1.4" stroke-miterlimit="10" stroke-linecap="round" stroke-linejoin="round"/>
<path d="M66.223 37.4515C66.223 27.7285 58.348 19.8535 48.625 19.8535" stroke="#E7ECF1" stroke-width="1.4" stroke-miterlimit="10" stroke-linecap="round" stroke-linejoin="round"/>
<path d="M63.3252 34.0285C64.4382 34.9525 65.3832 36.0865 66.2022 37.4515C66.9162 36.3805 67.8612 34.7215 68.1762 32.8945" stroke="#E7ECF1" stroke-width="1.4" stroke-miterlimit="10" stroke-linecap="round" stroke-linejoin="round"/>
<path d="M24.7686 49.9043C24.7686 60.5513 33.3996 69.1613 44.0256 69.1613" stroke="#E7ECF1" stroke-width="1.4" stroke-miterlimit="10" stroke-linecap="round" stroke-linejoin="round"/>
<path d="M27.9185 53.6423C26.7005 52.6343 25.6715 51.3743 24.7685 49.9043C23.9915 51.0803 22.9625 52.8863 22.6055 54.9023" stroke="#E7ECF1" stroke-width="1.4" stroke-miterlimit="10" stroke-linecap="round" stroke-linejoin="round"/>
</svg>
