<svg width="187" height="278" viewBox="0 0 187 278" fill="none" xmlns="http://www.w3.org/2000/svg">
<path d="M168.534 276.25H17.5342C8.84839 276.25 1.78418 269.186 1.78418 260.5V17.5C1.78418 8.81421 8.84839 1.75 17.5342 1.75H168.534C177.22 1.75 184.284 8.81421 184.284 17.5V260.5C184.284 269.186 177.22 276.25 168.534 276.25Z" fill="#E7ECF1" stroke="#2B4554" stroke-width="1.5"/>
<path d="M162.434 265.9H23.6342C17.7342 265.9 13.0342 261.2 13.0342 255.3V22.5004C13.0342 16.6004 17.7342 11.9004 23.6342 11.9004H162.534C168.434 11.9004 173.134 16.6004 173.134 22.5004V255.2C173.034 261.1 168.334 265.9 162.434 265.9Z" stroke="#2B4554" stroke-width="0.5669" stroke-miterlimit="10"/>
<path d="M57.0342 41H4.03418V28.3333C4.03418 14.3333 15.2766 3 29.1643 3H57.0342V41Z" fill="#E7ECF1"/>
<path d="M129.034 237H182.034V249.333C182.034 262.965 170.792 274 156.904 274H129.034V237Z" fill="#E7ECF1"/>
<path d="M27.6336 11.9004C27.6336 16.8004 27.6336 21.7004 27.6336 26.6004C27.5336 26.6004 27.5336 26.6004 27.4336 26.6004C24.6336 26.6004 21.8336 26.6004 19.0336 26.6004C16.1336 26.6004 13.5336 24.5004 13.0336 21.6004C13.0336 21.3004 12.9336 21.1004 12.9336 20.8004C12.9336 19.8004 12.9336 18.8004 12.9336 17.9004C12.9336 15.2004 14.9336 12.8004 17.6336 12.2004C18.0336 12.1004 18.5336 12.1004 18.9336 12.0004C21.7336 12.0004 24.5336 12.0004 27.3336 12.0004C27.5336 11.9004 27.5336 11.9004 27.6336 11.9004ZM23.1336 16.5004C23.0336 16.5004 23.0336 16.5004 23.0336 16.5004C21.7336 16.5004 20.4336 16.5004 19.1336 16.5004C18.2336 16.5004 17.6336 17.2004 17.6336 18.0004C17.6336 18.8004 17.6336 19.6004 17.6336 20.4004C17.6336 21.3004 18.3336 22.0004 19.2336 22.0004C20.5336 22.0004 21.7336 22.0004 23.0336 22.0004C23.1336 22.0004 23.1336 22.0004 23.2336 22.0004C23.1336 20.2004 23.1336 18.3004 23.1336 16.5004Z" fill="#4C7B96"/>
<path d="M30.4336 11.9004C30.5336 11.9004 30.5336 11.9004 30.6336 11.9004C33.4336 11.9004 36.3336 11.9004 39.1336 11.9004C41.6336 11.9004 43.8336 13.4004 44.7336 15.7004C45.0336 16.4004 45.1336 17.2004 45.1336 17.9004C45.1336 18.8004 45.1336 19.7004 45.1336 20.6004C45.1336 23.5004 43.1336 26.0004 40.2336 26.5004C39.8336 26.6004 39.3336 26.6004 38.9336 26.6004C37.6336 26.6004 36.4336 26.6004 35.1336 26.6004C35.0336 26.6004 35.0336 26.6004 34.9336 26.6004C34.9336 28.5004 34.9336 30.4004 34.9336 32.3004C33.4336 32.3004 31.9336 32.3004 30.4336 32.3004C30.4336 25.6004 30.4336 18.8004 30.4336 11.9004ZM34.9336 22.2004H35.0336C36.4336 22.2004 37.7336 22.2004 39.1336 22.2004C40.0336 22.2004 40.6336 21.5004 40.6336 20.7004C40.6336 19.8004 40.6336 19.0004 40.6336 18.1004C40.6336 17.3004 40.0336 16.5004 39.0336 16.5004C37.7336 16.5004 36.4336 16.5004 35.1336 16.5004C35.0336 16.5004 35.0336 16.5004 34.9336 16.5004C34.9336 18.4004 34.9336 20.3004 34.9336 22.2004Z" fill="#4C7B96"/>
<path d="M158.434 265.9C158.434 261 158.434 256.1 158.434 251.2C158.534 251.2 158.534 251.2 158.634 251.2C161.434 251.2 164.234 251.2 167.034 251.2C169.934 251.2 172.534 253.3 173.034 256.2C173.034 256.5 173.134 256.7 173.134 257C173.134 258 173.134 259 173.134 259.9C173.134 262.6 171.134 265 168.434 265.6C168.034 265.7 167.534 265.7 167.134 265.8C164.334 265.8 161.534 265.8 158.734 265.8C158.534 265.9 158.534 265.9 158.434 265.9ZM162.934 261.3C163.034 261.3 163.034 261.3 163.034 261.3C164.334 261.3 165.634 261.3 166.934 261.3C167.834 261.3 168.434 260.6 168.434 259.8C168.434 259 168.434 258.2 168.434 257.4C168.434 256.5 167.734 255.8 166.834 255.8C165.534 255.8 164.334 255.8 163.034 255.8C162.934 255.8 162.934 255.8 162.834 255.8C162.934 257.6 162.934 259.5 162.934 261.3Z" fill="#4C7B96"/>
<path d="M155.634 265.9C155.534 265.9 155.534 265.9 155.434 265.9C152.634 265.9 149.734 265.9 146.934 265.9C144.434 265.9 142.234 264.4 141.334 262.1C141.034 261.4 140.934 260.6 140.934 259.9C140.934 259 140.934 258.1 140.934 257.2C140.934 254.3 142.934 251.8 145.834 251.3C146.234 251.2 146.734 251.2 147.134 251.2C148.434 251.2 149.634 251.2 150.934 251.2C151.034 251.2 151.034 251.2 151.134 251.2C151.134 249.3 151.134 247.4 151.134 245.5C152.634 245.5 154.134 245.5 155.634 245.5C155.634 252.2 155.634 259 155.634 265.9ZM151.134 255.6H151.034C149.634 255.6 148.334 255.6 146.934 255.6C146.034 255.6 145.434 256.3 145.434 257.1C145.434 258 145.434 258.8 145.434 259.7C145.434 260.5 146.034 261.3 147.034 261.3C148.334 261.3 149.634 261.3 150.934 261.3C151.034 261.3 151.034 261.3 151.134 261.3C151.134 259.4 151.134 257.5 151.134 255.6Z" fill="#4C7B96"/>
<path d="M53.9546 147.44C52.5721 147.44 51.3268 147.194 50.2188 146.702C49.1204 146.2 48.2491 145.461 47.6052 144.486C46.9707 143.51 46.6535 142.308 46.6535 140.878C46.6535 139.647 46.8808 138.629 47.3353 137.824C47.7899 137.019 48.4101 136.375 49.1961 135.892C49.9821 135.409 50.8675 135.045 51.8524 134.798C52.8467 134.543 53.8741 134.358 54.9347 134.244C56.2132 134.112 57.2501 133.993 58.0455 133.889C58.841 133.776 59.4187 133.605 59.7785 133.378C60.1478 133.141 60.3325 132.777 60.3325 132.284V132.199C60.3325 131.129 60.0152 130.3 59.3808 129.713C58.7463 129.126 57.8325 128.832 56.6393 128.832C55.3798 128.832 54.3808 129.107 53.6421 129.656C52.913 130.205 52.4205 130.854 52.1649 131.602L47.3637 130.92C47.7425 129.595 48.3675 128.487 49.2387 127.597C50.1099 126.697 51.1753 126.025 52.4347 125.58C53.6942 125.125 55.0863 124.898 56.6109 124.898C57.662 124.898 58.7084 125.021 59.7501 125.267C60.7918 125.513 61.7435 125.92 62.6052 126.489C63.4669 127.047 64.1582 127.81 64.6791 128.776C65.2094 129.741 65.4745 130.949 65.4745 132.398V147H60.5313V144.003H60.3609C60.0484 144.609 59.608 145.177 59.0399 145.707C58.4811 146.228 57.7757 146.65 56.9234 146.972C56.0806 147.284 55.091 147.44 53.9546 147.44ZM55.2899 143.662C56.3221 143.662 57.2169 143.458 57.9745 143.051C58.7321 142.634 59.3145 142.085 59.7217 141.403C60.1383 140.722 60.3467 139.978 60.3467 139.173V136.602C60.1857 136.735 59.9111 136.858 59.5228 136.972C59.144 137.085 58.7179 137.185 58.2444 137.27C57.7709 137.355 57.3022 137.431 56.8382 137.497C56.3741 137.563 55.9717 137.62 55.6308 137.668C54.8637 137.772 54.1772 137.942 53.5711 138.179C52.9651 138.416 52.4868 138.747 52.1365 139.173C51.7861 139.59 51.6109 140.13 51.6109 140.793C51.6109 141.74 51.9565 142.455 52.6478 142.938C53.3391 143.42 54.2198 143.662 55.2899 143.662ZM80.1336 155.636C78.287 155.636 76.7008 155.385 75.3751 154.884C74.0493 154.391 72.984 153.728 72.1791 152.895C71.3741 152.062 70.8154 151.138 70.5029 150.125L75.1336 149.003C75.3419 149.429 75.645 149.85 76.0427 150.267C76.4404 150.693 76.9755 151.044 77.6478 151.318C78.3296 151.602 79.1866 151.744 80.2188 151.744C81.6772 151.744 82.8846 151.389 83.841 150.679C84.7974 149.978 85.2757 148.823 85.2757 147.213V143.08H85.02C84.7548 143.61 84.3666 144.154 83.8552 144.713C83.3533 145.272 82.6857 145.741 81.8524 146.119C81.0285 146.498 79.9916 146.688 78.7416 146.688C77.0654 146.688 75.5455 146.295 74.1819 145.509C72.8277 144.713 71.7482 143.529 70.9433 141.957C70.1478 140.376 69.7501 138.397 69.7501 136.02C69.7501 133.624 70.1478 131.602 70.9433 129.955C71.7482 128.297 72.8325 127.043 74.1961 126.19C75.5597 125.329 77.0796 124.898 78.7558 124.898C80.0342 124.898 81.0853 125.116 81.9092 125.551C82.7425 125.977 83.4054 126.493 83.8978 127.099C84.3902 127.696 84.7643 128.259 85.02 128.79H85.3041V125.182H90.3751V147.355C90.3751 149.221 89.93 150.764 89.0399 151.986C88.1497 153.207 86.9329 154.121 85.3893 154.727C83.8457 155.333 82.0938 155.636 80.1336 155.636ZM80.1762 142.653C81.2652 142.653 82.1933 142.388 82.9603 141.858C83.7274 141.328 84.3097 140.565 84.7075 139.571C85.1052 138.577 85.3041 137.384 85.3041 135.991C85.3041 134.618 85.1052 133.416 84.7075 132.384C84.3192 131.351 83.7416 130.551 82.9745 129.983C82.2169 129.405 81.2842 129.116 80.1762 129.116C79.0304 129.116 78.074 129.415 77.3069 130.011C76.5399 130.608 75.9622 131.427 75.574 132.469C75.1857 133.501 74.9916 134.675 74.9916 135.991C74.9916 137.327 75.1857 138.496 75.574 139.5C75.9717 140.494 76.5541 141.271 77.3211 141.83C78.0976 142.379 79.0493 142.653 80.1762 142.653ZM95.645 147V125.182H100.787V147H95.645ZM98.2302 122.085C97.4158 122.085 96.7151 121.815 96.1279 121.276C95.5408 120.726 95.2472 120.068 95.2472 119.301C95.2472 118.525 95.5408 117.866 96.1279 117.327C96.7151 116.777 97.4158 116.503 98.2302 116.503C99.0541 116.503 99.7548 116.777 100.332 117.327C100.92 117.866 101.213 118.525 101.213 119.301C101.213 120.068 100.92 120.726 100.332 121.276C99.7548 121.815 99.0541 122.085 98.2302 122.085ZM111.217 117.909V147H106.075V117.909H111.217ZM126.163 147.426C123.976 147.426 122.087 146.972 120.496 146.062C118.914 145.144 117.698 143.847 116.845 142.17C115.993 140.485 115.567 138.501 115.567 136.219C115.567 133.974 115.993 132.005 116.845 130.31C117.707 128.605 118.91 127.279 120.453 126.332C121.997 125.376 123.81 124.898 125.894 124.898C127.238 124.898 128.507 125.116 129.7 125.551C130.903 125.977 131.964 126.64 132.882 127.54C133.81 128.439 134.539 129.585 135.07 130.977C135.6 132.36 135.865 134.008 135.865 135.92V137.497H117.982V134.031H130.936C130.927 133.046 130.714 132.17 130.297 131.403C129.88 130.627 129.298 130.016 128.55 129.571C127.811 129.126 126.949 128.903 125.965 128.903C124.913 128.903 123.99 129.159 123.195 129.67C122.399 130.172 121.779 130.835 121.334 131.659C120.898 132.473 120.676 133.368 120.666 134.344V137.369C120.666 138.638 120.898 139.727 121.362 140.636C121.826 141.536 122.475 142.227 123.308 142.71C124.142 143.184 125.117 143.42 126.234 143.42C126.983 143.42 127.66 143.316 128.266 143.108C128.872 142.89 129.397 142.573 129.842 142.156C130.287 141.74 130.624 141.223 130.851 140.608L135.652 141.148C135.349 142.417 134.771 143.525 133.919 144.472C133.076 145.409 131.997 146.138 130.68 146.659C129.364 147.17 127.859 147.426 126.163 147.426Z" fill="#2B4554"/>
</svg>
