<svg width="270" height="180" viewBox="0 0 270 180" fill="none" xmlns="http://www.w3.org/2000/svg">
<g clip-path="url(#clip0_1031_3695)">
<path d="M268.507 16.7514L268.507 163.248C268.507 171.66 261.645 178.506 253.204 178.506L16.7965 178.506C8.35564 178.506 1.49414 171.66 1.49414 163.248L1.49413 16.7514C1.49413 8.33896 8.35563 1.49348 16.7965 1.49348L253.204 1.49347C261.645 1.49347 268.507 8.33895 268.507 16.7514Z" fill="#E7ECF1" stroke="#2B4554" stroke-width="1.5"/>
<path d="M258.099 23.0346L258.099 157.807C258.099 163.536 253.53 168.1 247.794 168.1L21.4627 168.1C15.7266 168.1 11.1572 163.536 11.1572 157.807L11.1572 22.9375C11.1572 17.2087 15.7266 12.6451 21.4627 12.6451L247.697 12.6451C253.433 12.7422 258.099 17.3058 258.099 23.0346Z" stroke="#2B4554" stroke-width="0.5669" stroke-miterlimit="10"/>
<path d="M39.4215 124.959L39.4215 176.281L27.0248 176.281C13.3232 176.281 2.23144 165.395 2.23144 151.947L2.23144 124.959L39.4215 124.959Z" fill="#E7ECF1"/>
<path d="M229.835 55.041L229.835 3.7187L241.984 3.7187C255.411 3.7187 266.281 14.6053 266.281 28.0534L266.281 55.041L229.835 55.041Z" fill="#E7ECF1"/>
<path d="M11.1104 153.655C15.8775 153.655 20.6447 153.655 25.4119 153.655C25.4119 153.752 25.4119 153.752 25.4119 153.849C25.4119 156.569 25.4119 159.289 25.4119 162.01C25.4119 164.827 23.3688 167.353 20.5474 167.838C20.2555 167.838 20.061 167.936 19.7691 167.936C18.7962 167.936 17.8233 167.936 16.9477 167.936C14.3209 167.936 11.986 165.993 11.4022 163.37C11.3049 162.981 11.3049 162.495 11.2076 162.107C11.2076 159.387 11.2076 156.666 11.2076 153.946C11.1104 153.752 11.1104 153.752 11.1104 153.655ZM15.5857 158.026C15.5857 158.124 15.5857 158.124 15.5857 158.124C15.5857 159.387 15.5857 160.649 15.5857 161.912C15.5857 162.787 16.2667 163.37 17.045 163.37C17.8233 163.37 18.6016 163.37 19.3799 163.37C20.2555 163.37 20.9366 162.69 20.9366 161.815C20.9366 160.552 20.9366 159.387 20.9366 158.124C20.9366 158.026 20.9366 158.026 20.9366 157.929C19.1854 158.026 17.3369 158.026 15.5857 158.026Z" fill="#4C7B96"/>
<path d="M11.1104 150.935C11.1104 150.837 11.1104 150.837 11.1104 150.74C11.1104 148.02 11.1104 145.203 11.1104 142.483C11.1104 140.054 12.5697 137.917 14.8073 137.042C15.4884 136.751 16.2667 136.654 16.9477 136.654C17.8233 136.654 18.6989 136.654 19.5745 136.654C22.3959 136.654 24.8281 138.597 25.3146 141.414C25.4119 141.803 25.4119 142.288 25.4119 142.677C25.4119 143.94 25.4119 145.106 25.4119 146.369C25.4119 146.466 25.4119 146.466 25.4119 146.563C27.2604 146.563 29.1088 146.563 30.9573 146.563C30.9573 148.02 30.9573 149.477 30.9573 150.935C24.439 150.935 17.8233 150.935 11.1104 150.935ZM21.1311 146.563L21.1311 146.466C21.1311 145.106 21.1311 143.843 21.1311 142.483C21.1311 141.608 20.4501 141.025 19.6718 141.025C18.7962 141.025 18.0179 141.025 17.1423 141.025C16.364 141.025 15.5857 141.608 15.5857 142.58C15.5857 143.843 15.5857 145.106 15.5857 146.369C15.5857 146.466 15.5857 146.466 15.5857 146.563C17.4341 146.563 19.2826 146.563 21.1311 146.563Z" fill="#4C7B96"/>
<path d="M258.225 26.585C253.458 26.585 248.691 26.585 243.924 26.585C243.924 26.4878 243.924 26.4878 243.924 26.3907C243.924 23.6705 243.924 20.9504 243.924 18.2302C243.924 15.4129 245.967 12.8871 248.788 12.4013C249.08 12.4013 249.275 12.3042 249.567 12.3042C250.539 12.3042 251.512 12.3042 252.388 12.3042C255.015 12.3042 257.35 14.2472 257.933 16.8702C258.031 17.2588 258.031 17.7445 258.128 18.1331C258.128 20.8532 258.128 23.5734 258.128 26.2935C258.225 26.4878 258.225 26.4878 258.225 26.585ZM253.75 22.2133C253.75 22.1162 253.75 22.1161 253.75 22.1161C253.75 20.8532 253.75 19.5903 253.75 18.3274C253.75 17.453 253.069 16.8702 252.291 16.8702C251.512 16.8702 250.734 16.8702 249.956 16.8702C249.08 16.8702 248.399 17.5502 248.399 18.4245C248.399 19.6874 248.399 20.8532 248.399 22.1161C248.399 22.2133 248.399 22.2133 248.399 22.3104C250.15 22.2133 251.999 22.2133 253.75 22.2133Z" fill="#4C7B96"/>
<path d="M258.225 29.3052C258.225 29.4023 258.225 29.4023 258.225 29.4995C258.225 32.2196 258.225 35.0369 258.225 37.7571C258.225 40.1858 256.766 42.323 254.528 43.1973C253.847 43.4888 253.069 43.5859 252.388 43.5859C251.512 43.5859 250.636 43.5859 249.761 43.5859C246.939 43.5859 244.507 41.643 244.021 38.8257C243.923 38.4371 243.923 37.9513 243.923 37.5627C243.923 36.2998 243.923 35.1341 243.923 33.8711C243.923 33.774 243.923 33.774 243.923 33.6768C242.075 33.6768 240.226 33.6768 238.378 33.6768C238.378 32.2196 238.378 30.7624 238.378 29.3052C244.896 29.3052 251.512 29.3052 258.225 29.3052ZM248.204 33.6768L248.204 33.774C248.204 35.1341 248.204 36.397 248.204 37.7571C248.204 38.6314 248.885 39.2143 249.663 39.2143C250.539 39.2143 251.317 39.2143 252.193 39.2143C252.971 39.2143 253.75 38.6314 253.75 37.6599C253.75 36.397 253.75 35.1341 253.75 33.8711C253.75 33.774 253.75 33.774 253.75 33.6768C251.901 33.6768 250.053 33.6768 248.204 33.6768Z" fill="#4C7B96"/>
<path d="M57.4659 38L55.7045 38C55.6004 37.4934 55.4181 37.0483 55.1577 36.6648C54.902 36.2813 54.5895 35.9593 54.2202 35.6989C53.8556 35.4337 53.4508 35.2348 53.0057 35.1023C52.5606 34.9697 52.0966 34.9034 51.6136 34.9034C50.733 34.9034 49.9351 35.1259 49.2202 35.571C48.5099 36.0161 47.9441 36.6719 47.5227 37.5384C47.1061 38.4048 46.8977 39.4678 46.8977 40.7273C46.8977 41.9867 47.1061 43.0497 47.5227 43.9162C47.9441 44.7827 48.5099 45.4384 49.2202 45.8835C49.9351 46.3286 50.733 46.5511 51.6136 46.5511C52.0966 46.5511 52.5606 46.4848 53.0057 46.3523C53.4508 46.2197 53.8556 46.0232 54.2202 45.7628C54.5895 45.4976 54.902 45.1733 55.1577 44.7898C55.4181 44.4015 55.6004 43.9564 55.7045 43.4545L57.4659 43.4545C57.3333 44.1979 57.0919 44.8632 56.7415 45.4503C56.3911 46.0374 55.9555 46.5369 55.4347 46.9489C54.9138 47.3561 54.3291 47.6662 53.6804 47.8793C53.0365 48.0923 52.3475 48.1989 51.6136 48.1989C50.3731 48.1989 49.2699 47.8958 48.304 47.2898C47.3381 46.6837 46.5781 45.822 46.0241 44.7045C45.4702 43.5871 45.1932 42.2614 45.1932 40.7273C45.1932 39.1932 45.4702 37.8674 46.0241 36.75C46.5781 35.6326 47.3381 34.7708 48.304 34.1648C49.2699 33.5587 50.3731 33.2557 51.6136 33.2557C52.3475 33.2557 53.0365 33.3622 53.6804 33.5753C54.3291 33.7884 54.9138 34.1009 55.4347 34.5128C55.9555 34.92 56.3911 35.4171 56.7415 36.0043C57.0919 36.5866 57.3333 37.2519 57.4659 38ZM63.6951 48.2557C63.0038 48.2557 62.3764 48.1255 61.813 47.8651C61.2495 47.5999 60.8021 47.2188 60.4707 46.7216C60.1392 46.2197 59.9735 45.6136 59.9735 44.9034C59.9735 44.2784 60.0966 43.7718 60.3428 43.3835C60.589 42.9905 60.9181 42.6828 61.33 42.4602C61.742 42.2377 62.1965 42.072 62.6937 41.9631C63.1956 41.8494 63.6998 41.7595 64.2065 41.6932C64.8693 41.608 65.4067 41.544 65.8187 41.5014C66.2353 41.4541 66.5384 41.3759 66.7278 41.267C66.9219 41.1581 67.019 40.9688 67.019 40.6989L67.019 40.642C67.019 39.9413 66.8272 39.3968 66.4437 39.0085C66.0649 38.6203 65.4896 38.4261 64.7178 38.4261C63.9176 38.4261 63.2903 38.6013 62.8357 38.9517C62.3812 39.3021 62.0616 39.6761 61.8769 40.0739L60.286 39.5057C60.5701 38.8428 60.9489 38.3267 61.4224 37.9574C61.9006 37.5833 62.4214 37.3229 62.9849 37.1761C63.5531 37.0246 64.1118 36.9489 64.661 36.9489C65.0114 36.9489 65.4138 36.9915 65.8684 37.0767C66.3277 37.1572 66.7704 37.3253 67.1965 37.581C67.6274 37.8366 67.9849 38.2225 68.269 38.7386C68.5531 39.2547 68.6951 39.946 68.6951 40.8125L68.6951 48L67.019 48L67.019 46.5227L66.9337 46.5227C66.8201 46.7595 66.6307 47.0128 66.3656 47.2827C66.1004 47.5526 65.7477 47.7822 65.3073 47.9716C64.867 48.161 64.3296 48.2557 63.6951 48.2557ZM63.9508 46.75C64.6137 46.75 65.1724 46.6198 65.6269 46.3594C66.0862 46.099 66.4318 45.7628 66.6638 45.3509C66.9006 44.9389 67.019 44.5057 67.019 44.0511L67.019 42.517C66.9479 42.6023 66.7917 42.6804 66.5502 42.7514C66.3135 42.8177 66.0388 42.8769 65.7263 42.929C65.4186 42.9763 65.1179 43.0189 64.8244 43.0568C64.5355 43.09 64.3012 43.1184 64.1212 43.142C63.6856 43.1989 63.2784 43.2912 62.8996 43.419C62.5256 43.5421 62.2226 43.7292 61.9906 43.9801C61.7633 44.2263 61.6496 44.5625 61.6496 44.9886C61.6496 45.571 61.8651 46.0114 62.296 46.3097C62.7316 46.6032 63.2832 46.75 63.9508 46.75ZM78.1203 45.7273L81.9271 37.0909L83.518 37.0909L78.8021 48L77.4385 48L72.8078 37.0909L74.3703 37.0909L78.1203 45.7273ZM73.8305 37.0909L73.8305 48L72.1544 48L72.1544 37.0909L73.8305 37.0909ZM82.4101 48L82.4101 37.0909L84.0862 37.0909L84.0862 48L82.4101 48ZM88.2433 52.0909C87.9592 52.0909 87.7059 52.0672 87.4834 52.0199C87.2608 51.9773 87.107 51.9347 87.0217 51.892L87.4479 50.4148C87.8551 50.5189 88.2149 50.5568 88.5274 50.5284C88.8399 50.5 89.1169 50.3603 89.3584 50.1094C89.6046 49.8632 89.8295 49.4631 90.0331 48.9091L90.3456 48.0568L86.3115 37.0909L88.1297 37.0909L91.1411 45.7841L91.2547 45.7841L94.2661 37.0909L96.0842 37.0909L91.4536 49.5909C91.2452 50.1544 90.9872 50.6207 90.6794 50.9901C90.3716 51.3641 90.0142 51.6411 89.607 51.821C89.2045 52.0009 88.75 52.0909 88.2433 52.0909ZM102.738 48.2273C101.715 48.2273 100.834 47.9858 100.096 47.5028C99.3571 47.0199 98.7889 46.3546 98.3912 45.5071C97.9935 44.6596 97.7946 43.6913 97.7946 42.6023C97.7946 41.4943 97.9982 40.5166 98.4054 39.669C98.8173 38.8168 99.3902 38.1515 100.124 37.6733C100.863 37.1903 101.725 36.9489 102.709 36.9489C103.476 36.9489 104.168 37.0909 104.783 37.375C105.399 37.6591 105.903 38.0568 106.296 38.5682C106.689 39.0795 106.933 39.6761 107.028 40.358L105.351 40.358C105.224 39.8608 104.939 39.4205 104.499 39.0369C104.064 38.6487 103.476 38.4545 102.738 38.4545C102.084 38.4545 101.511 38.625 101.019 38.9659C100.531 39.3021 100.15 39.7779 99.8756 40.3935C99.6057 41.0043 99.4707 41.7216 99.4707 42.5455C99.4707 43.3883 99.6033 44.1222 99.8685 44.7472C100.138 45.3722 100.517 45.8575 101.005 46.2031C101.497 46.5488 102.075 46.7216 102.738 46.7216C103.173 46.7216 103.569 46.6458 103.924 46.4943C104.279 46.3428 104.58 46.125 104.826 45.8409C105.072 45.5568 105.247 45.2159 105.351 44.8182L107.028 44.8182C106.933 45.4621 106.698 46.0421 106.324 46.5582C105.955 47.0696 105.465 47.4768 104.854 47.7798C104.248 48.0781 103.543 48.2273 102.738 48.2273ZM114.452 48.2273C113.401 48.2273 112.494 47.9953 111.732 47.5313C110.974 47.0625 110.389 46.4091 109.977 45.571C109.57 44.7282 109.366 43.7481 109.366 42.6307C109.366 41.5133 109.57 40.5284 109.977 39.6761C110.389 38.8191 110.962 38.1515 111.696 37.6733C112.435 37.1903 113.296 36.9489 114.281 36.9489C114.849 36.9489 115.411 37.0436 115.964 37.233C116.518 37.4224 117.023 37.7301 117.477 38.1563C117.932 38.5777 118.294 39.1364 118.564 39.8324C118.834 40.5284 118.969 41.3854 118.969 42.4034L118.969 43.1136L110.56 43.1136L110.56 41.6648L117.264 41.6648C117.264 41.0492 117.141 40.5 116.895 40.017C116.653 39.5341 116.308 39.1529 115.858 38.8736C115.413 38.5942 114.887 38.4545 114.281 38.4545C113.614 38.4545 113.036 38.6203 112.548 38.9517C112.065 39.2784 111.694 39.7045 111.433 40.2301C111.173 40.7557 111.043 41.3191 111.043 41.9205L111.043 42.8864C111.043 43.7102 111.185 44.4086 111.469 44.9815C111.758 45.5497 112.158 45.983 112.669 46.2813C113.18 46.5748 113.775 46.7216 114.452 46.7216C114.892 46.7216 115.29 46.66 115.645 46.5369C116.005 46.4091 116.315 46.2197 116.575 45.9688C116.836 45.7131 117.037 45.3958 117.179 45.017L118.798 45.4716C118.628 46.0208 118.341 46.5038 117.939 46.9205C117.536 47.3324 117.039 47.6544 116.447 47.8864C115.856 48.1136 115.19 48.2273 114.452 48.2273ZM129.22 41.7784L129.22 43.3409L123.197 43.3409L123.197 41.7784L129.22 41.7784ZM123.595 37.0909L123.595 48L121.918 48L121.918 37.0909L123.595 37.0909ZM130.498 37.0909L130.498 48L128.822 48L128.822 37.0909L130.498 37.0909ZM133.959 48L133.959 37.0909L135.635 37.0909L135.635 41.8352L136.743 41.8352L140.664 37.0909L142.823 37.0909L138.419 42.3466L142.88 48L140.72 48L137.141 43.3977L135.635 43.3977L135.635 48L133.959 48ZM149.084 48.2273C148.099 48.2273 147.235 47.9929 146.492 47.5242C145.753 47.0554 145.175 46.3996 144.759 45.5568C144.347 44.714 144.141 43.7292 144.141 42.6023C144.141 41.4659 144.347 40.474 144.759 39.6264C145.175 38.7789 145.753 38.1207 146.492 37.652C147.235 37.1832 148.099 36.9489 149.084 36.9489C150.069 36.9489 150.93 37.1832 151.669 37.652C152.412 38.1207 152.99 38.7789 153.402 39.6264C153.819 40.474 154.027 41.4659 154.027 42.6023C154.027 43.7292 153.819 44.714 153.402 45.5568C152.99 46.3996 152.412 47.0554 151.669 47.5242C150.93 47.9929 150.069 48.2273 149.084 48.2273ZM149.084 46.7216C149.832 46.7216 150.448 46.5298 150.93 46.1463C151.413 45.7628 151.771 45.2585 152.003 44.6335C152.235 44.0085 152.351 43.3314 152.351 42.6023C152.351 41.8731 152.235 41.1937 152.003 40.5639C151.771 39.9342 151.413 39.4252 150.93 39.0369C150.448 38.6487 149.832 38.4546 149.084 38.4546C148.336 38.4546 147.72 38.6487 147.237 39.0369C146.754 39.4252 146.397 39.9342 146.165 40.5639C145.933 41.1937 145.817 41.8731 145.817 42.6023C145.817 43.3314 145.933 44.0085 146.165 44.6335C146.397 45.2585 146.754 45.7628 147.237 46.1463C147.72 46.5298 148.336 46.7216 149.084 46.7216ZM45.7614 76L45.7614 61.4545L54.5398 61.4545L54.5398 63.017L47.5227 63.017L47.5227 67.9318L54.0852 67.9318L54.0852 69.4943L47.5227 69.4943L47.5227 74.4375L54.6534 74.4375L54.6534 76L45.7614 76ZM57.8872 76L57.8872 65.0909L62.3474 65.0909C63.5217 65.0909 64.4544 65.3561 65.1457 65.8864C65.837 66.4167 66.1827 67.1174 66.1827 67.9886C66.1827 68.6515 65.9862 69.1652 65.5932 69.5298C65.2002 69.8897 64.6959 70.1335 64.0804 70.2614C64.4829 70.3182 64.8735 70.4602 65.2523 70.6875C65.6358 70.9148 65.953 71.2273 66.204 71.625C66.4549 72.018 66.5804 72.5009 66.5804 73.0739C66.5804 73.6326 66.4383 74.1321 66.1543 74.5724C65.8702 75.0128 65.463 75.3608 64.9327 75.6165C64.4024 75.8722 63.7679 76 63.0293 76L57.8872 76ZM59.4781 74.4659L63.0293 74.4659C63.6069 74.4659 64.0591 74.3286 64.3858 74.054C64.7125 73.7794 64.8758 73.4053 64.8758 72.9318C64.8758 72.3684 64.7125 71.9257 64.3858 71.6037C64.0591 71.277 63.6069 71.1136 63.0293 71.1136L59.4781 71.1136L59.4781 74.4659ZM59.4781 69.6648L62.3474 69.6648C62.7973 69.6648 63.1831 69.6032 63.5051 69.4801C63.8271 69.3523 64.0733 69.1723 64.2437 68.9403C64.4189 68.7036 64.5065 68.4242 64.5065 68.1023C64.5065 67.643 64.3148 67.2831 63.9312 67.0227C63.5477 66.7576 63.0198 66.625 62.3474 66.625L59.4781 66.625L59.4781 69.6648ZM76.2506 65.0909L76.2506 66.6534L71.1938 66.6534L71.1938 76L69.5177 76L69.5177 65.0909L76.2506 65.0909ZM83.1048 76.2273C82.0537 76.2273 81.147 75.9953 80.3847 75.5313C79.6271 75.0625 79.0423 74.4091 78.6304 73.571C78.2232 72.7282 78.0196 71.7481 78.0196 70.6307C78.0196 69.5133 78.2232 68.5284 78.6304 67.6761C79.0423 66.8191 79.6152 66.1515 80.3491 65.6733C81.0878 65.1903 81.9495 64.9489 82.9344 64.9489C83.5026 64.9489 84.0636 65.0436 84.6176 65.233C85.1716 65.4224 85.6759 65.7301 86.1304 66.1563C86.5849 66.5777 86.9472 67.1364 87.217 67.8324C87.4869 68.5284 87.6219 69.3854 87.6219 70.4034L87.6219 71.1136L79.2128 71.1136L79.2128 69.6648L85.9173 69.6648C85.9173 69.0492 85.7942 68.5 85.548 68.017C85.3065 67.5341 84.9609 67.1529 84.5111 66.8736C84.066 66.5942 83.5404 66.4545 82.9344 66.4545C82.2668 66.4545 81.6891 66.6203 81.2014 66.9517C80.7185 67.2784 80.3468 67.7045 80.0864 68.2301C79.8259 68.7557 79.6957 69.3191 79.6957 69.9205L79.6957 70.8864C79.6957 71.7102 79.8378 72.4086 80.1219 72.9815C80.4107 73.5497 80.8108 73.983 81.3222 74.2813C81.8335 74.5748 82.4277 74.7216 83.1048 74.7216C83.5452 74.7216 83.9429 74.66 84.298 74.5369C84.6579 74.4091 84.968 74.2197 85.2284 73.9688C85.4888 73.7131 85.6901 73.3958 85.8321 73.017L87.4514 73.4716C87.281 74.0208 86.9945 74.5038 86.592 74.9205C86.1896 75.3324 85.6924 75.6544 85.1006 75.8864C84.5087 76.1136 83.8435 76.2273 83.1048 76.2273ZM97.8727 69.7784L97.8727 71.3409L91.85 71.3409L91.85 69.7784L97.8727 69.7784ZM92.2477 65.0909L92.2477 76L90.5716 76L90.5716 65.0909L92.2477 65.0909ZM99.1511 65.0909L99.1511 76L97.475 76L97.475 65.0909L99.1511 65.0909ZM104.288 73.5284L109.544 65.0909L111.476 65.0909L111.476 76L109.8 76L109.8 67.5625L104.572 76L102.612 76L102.612 65.0909L104.288 65.0909L104.288 73.5284ZM121.508 76L121.508 66.625L118.611 66.625C117.957 66.625 117.443 66.7765 117.069 67.0795C116.695 67.3826 116.508 67.7992 116.508 68.3295C116.508 68.8504 116.676 69.2599 117.013 69.5582C117.353 69.8565 117.82 70.0057 118.412 70.0057L121.934 70.0057L121.934 71.5682L118.412 71.5682C117.673 71.5682 117.036 71.438 116.501 71.1776C115.966 70.9171 115.554 70.5455 115.265 70.0625C114.977 69.5748 114.832 68.9972 114.832 68.3295C114.832 67.6572 114.984 67.0795 115.287 66.5966C115.59 66.1136 116.023 65.742 116.586 65.4815C117.155 65.2211 117.829 65.0909 118.611 65.0909L123.099 65.0909L123.099 76L121.508 76ZM114.236 76L117.332 70.5739L119.15 70.5739L116.054 76L114.236 76Z" fill="#2B4554"/>
<path d="M44 96L224 96" stroke="#2B4554" stroke-width="1.8" stroke-linecap="round"/>
<path d="M45.4091 136L45.4091 124.364L52.3864 124.364L52.3864 125.614L46.8182 125.614L46.8182 129.545L51.8636 129.545L51.8636 130.795L46.8182 130.795L46.8182 136L45.4091 136ZM59.571 132.432L59.571 127.273L60.9119 127.273L60.9119 136L59.571 136L59.571 134.523L59.4801 134.523C59.2756 134.966 58.9574 135.343 58.5256 135.653C58.0937 135.96 57.5483 136.114 56.8892 136.114C56.3437 136.114 55.8589 135.994 55.4347 135.756C55.0104 135.513 54.6771 135.15 54.4347 134.665C54.1922 134.176 54.071 133.561 54.071 132.818L54.071 127.273L55.4119 127.273L55.4119 132.727C55.4119 133.364 55.59 133.871 55.946 134.25C56.3059 134.629 56.7642 134.818 57.321 134.818C57.6544 134.818 57.9934 134.733 58.3381 134.563C58.6866 134.392 58.9782 134.131 59.2131 133.778C59.4517 133.426 59.571 132.977 59.571 132.432ZM64.7088 124.364L64.7088 136L63.3679 136L63.3679 124.364L64.7088 124.364ZM68.5057 124.364L68.5057 136L67.1648 136L67.1648 124.364L68.5057 124.364ZM77.1435 129.227L75.9389 129.568C75.8632 129.367 75.7514 129.172 75.6037 128.983C75.4598 128.79 75.2628 128.631 75.0128 128.506C74.7628 128.381 74.4427 128.318 74.0526 128.318C73.5185 128.318 73.0734 128.441 72.7173 128.688C72.3651 128.93 72.1889 129.239 72.1889 129.614C72.1889 129.947 72.3101 130.21 72.5526 130.403C72.795 130.597 73.1738 130.758 73.6889 130.886L74.9844 131.205C75.7647 131.394 76.3461 131.684 76.7287 132.074C77.1113 132.46 77.3026 132.958 77.3026 133.568C77.3026 134.068 77.1586 134.515 76.8707 134.909C76.5866 135.303 76.1889 135.614 75.6776 135.841C75.1662 136.068 74.5715 136.182 73.8935 136.182C73.0033 136.182 72.2666 135.989 71.6832 135.602C71.0999 135.216 70.7306 134.652 70.5753 133.909L71.848 133.591C71.9692 134.061 72.1984 134.413 72.5355 134.648C72.8764 134.883 73.3215 135 73.8707 135C74.4957 135 74.992 134.867 75.3594 134.602C75.7306 134.333 75.9162 134.011 75.9162 133.636C75.9162 133.333 75.8101 133.08 75.598 132.875C75.3859 132.667 75.0601 132.511 74.6207 132.409L73.1662 132.068C72.367 131.879 71.7798 131.585 71.4048 131.188C71.0336 130.786 70.848 130.284 70.848 129.682C70.848 129.189 70.9863 128.754 71.2628 128.375C71.5431 127.996 71.9238 127.699 72.4048 127.483C72.8897 127.267 73.4389 127.159 74.0526 127.159C74.9162 127.159 75.5942 127.348 76.0866 127.727C76.5829 128.106 76.9351 128.606 77.1435 129.227ZM83.1165 127.273L83.1165 128.409L78.5937 128.409L78.5937 127.273L83.1165 127.273ZM79.9119 125.182L81.2528 125.182L81.2528 133.5C81.2528 133.879 81.3078 134.163 81.4176 134.352C81.5312 134.538 81.6752 134.663 81.8494 134.727C82.0275 134.788 82.215 134.818 82.4119 134.818C82.5597 134.818 82.6809 134.811 82.7756 134.795C82.8703 134.777 82.946 134.761 83.0028 134.75L83.2756 135.955C83.1847 135.989 83.0578 136.023 82.8949 136.057C82.732 136.095 82.5256 136.114 82.2756 136.114C81.8968 136.114 81.5256 136.032 81.1619 135.869C80.8021 135.706 80.5028 135.458 80.2642 135.125C80.0294 134.792 79.9119 134.371 79.9119 133.864L79.9119 125.182ZM87.7017 136.205C87.1487 136.205 86.6468 136.1 86.196 135.892C85.7453 135.68 85.3873 135.375 85.1222 134.977C84.857 134.576 84.7244 134.091 84.7244 133.523C84.7244 133.023 84.8229 132.617 85.0199 132.307C85.2169 131.992 85.4801 131.746 85.8097 131.568C86.1392 131.39 86.5028 131.258 86.9006 131.17C87.3021 131.08 87.7055 131.008 88.1108 130.955C88.6411 130.886 89.071 130.835 89.4006 130.801C89.7339 130.763 89.9763 130.701 90.1278 130.614C90.2831 130.527 90.3608 130.375 90.3608 130.159L90.3608 130.114C90.3608 129.553 90.2074 129.117 89.9006 128.807C89.5975 128.496 89.1373 128.341 88.5199 128.341C87.8797 128.341 87.3778 128.481 87.0142 128.761C86.6506 129.042 86.3949 129.341 86.2472 129.659L84.9744 129.205C85.2017 128.674 85.5047 128.261 85.8835 127.966C86.2661 127.667 86.6828 127.458 87.1335 127.341C87.5881 127.22 88.035 127.159 88.4744 127.159C88.7547 127.159 89.0767 127.193 89.4403 127.261C89.8078 127.326 90.1619 127.46 90.5028 127.665C90.8475 127.869 91.1335 128.178 91.3608 128.591C91.5881 129.004 91.7017 129.557 91.7017 130.25L91.7017 136L90.3608 136L90.3608 134.818L90.2926 134.818C90.2017 135.008 90.0502 135.21 89.8381 135.426C89.6259 135.642 89.3437 135.826 88.9915 135.977C88.6392 136.129 88.2093 136.205 87.7017 136.205ZM87.9062 135C88.4366 135 88.8835 134.896 89.2472 134.688C89.6146 134.479 89.8911 134.21 90.0767 133.881C90.2661 133.551 90.3608 133.205 90.3608 132.841L90.3608 131.614C90.304 131.682 90.179 131.744 89.9858 131.801C89.7964 131.854 89.5767 131.902 89.3267 131.943C89.0805 131.981 88.84 132.015 88.6051 132.045C88.3741 132.072 88.1866 132.095 88.0426 132.114C87.6941 132.159 87.3684 132.233 87.0653 132.335C86.7661 132.434 86.5237 132.583 86.3381 132.784C86.1562 132.981 86.0653 133.25 86.0653 133.591C86.0653 134.057 86.2377 134.409 86.5824 134.648C86.9309 134.883 87.3722 135 87.9062 135ZM97.6946 136.182C96.8764 136.182 96.1719 135.989 95.581 135.602C94.9901 135.216 94.5355 134.684 94.2173 134.006C93.8991 133.328 93.7401 132.553 93.7401 131.682C93.7401 130.795 93.9029 130.013 94.2287 129.335C94.5582 128.653 95.0166 128.121 95.6037 127.739C96.1946 127.352 96.884 127.159 97.6719 127.159C98.2855 127.159 98.8385 127.273 99.331 127.5C99.8234 127.727 100.227 128.045 100.541 128.455C100.856 128.864 101.051 129.341 101.126 129.886L99.7855 129.886C99.6832 129.489 99.456 129.136 99.1037 128.83C98.7552 128.519 98.2855 128.364 97.6946 128.364C97.1719 128.364 96.7135 128.5 96.3196 128.773C95.9295 129.042 95.6245 129.422 95.4048 129.915C95.1889 130.403 95.081 130.977 95.081 131.636C95.081 132.311 95.187 132.898 95.3991 133.398C95.6151 133.898 95.9181 134.286 96.3082 134.563C96.7022 134.839 97.1643 134.977 97.6946 134.977C98.0431 134.977 98.3594 134.917 98.6435 134.795C98.9276 134.674 99.1681 134.5 99.3651 134.273C99.562 134.045 99.7022 133.773 99.7855 133.455L101.126 133.455C101.051 133.97 100.863 134.434 100.564 134.847C100.268 135.256 99.8764 135.581 99.3878 135.824C98.9029 136.063 98.3385 136.182 97.6946 136.182ZM104.337 132.818L104.314 131.159L104.587 131.159L108.405 127.273L110.064 127.273L105.996 131.386L105.882 131.386L104.337 132.818ZM103.087 136L103.087 124.364L104.428 124.364L104.428 136L103.087 136ZM108.632 136L105.223 131.682L106.178 130.75L110.337 136L108.632 136ZM116.29 139.273L116.29 127.273L117.585 127.273L117.585 128.659L117.744 128.659C117.843 128.508 117.979 128.314 118.153 128.08C118.331 127.841 118.585 127.629 118.915 127.443C119.248 127.254 119.699 127.159 120.267 127.159C121.002 127.159 121.65 127.343 122.21 127.71C122.771 128.078 123.208 128.598 123.523 129.273C123.837 129.947 123.994 130.742 123.994 131.659C123.994 132.583 123.837 133.384 123.523 134.063C123.208 134.737 122.773 135.259 122.216 135.631C121.659 135.998 121.017 136.182 120.29 136.182C119.729 136.182 119.28 136.089 118.943 135.903C118.606 135.714 118.347 135.5 118.165 135.261C117.983 135.019 117.843 134.818 117.744 134.659L117.631 134.659L117.631 139.273L116.29 139.273ZM117.608 131.636C117.608 132.295 117.705 132.877 117.898 133.381C118.091 133.881 118.373 134.273 118.744 134.557C119.116 134.837 119.57 134.977 120.108 134.977C120.669 134.977 121.136 134.83 121.511 134.534C121.89 134.235 122.174 133.833 122.364 133.33C122.557 132.822 122.653 132.258 122.653 131.636C122.653 131.023 122.559 130.47 122.369 129.977C122.184 129.481 121.902 129.089 121.523 128.801C121.148 128.509 120.676 128.364 120.108 128.364C119.562 128.364 119.104 128.502 118.733 128.778C118.362 129.051 118.081 129.434 117.892 129.926C117.703 130.415 117.608 130.985 117.608 131.636ZM128.608 136.205C128.055 136.205 127.553 136.1 127.102 135.892C126.652 135.68 126.294 135.375 126.028 134.977C125.763 134.576 125.631 134.091 125.631 133.523C125.631 133.023 125.729 132.617 125.926 132.307C126.123 131.992 126.386 131.746 126.716 131.568C127.045 131.39 127.409 131.258 127.807 131.17C128.208 131.08 128.612 131.008 129.017 130.955C129.547 130.886 129.977 130.835 130.307 130.801C130.64 130.763 130.883 130.701 131.034 130.614C131.189 130.527 131.267 130.375 131.267 130.159L131.267 130.114C131.267 129.553 131.114 129.117 130.807 128.807C130.504 128.496 130.044 128.341 129.426 128.341C128.786 128.341 128.284 128.481 127.92 128.761C127.557 129.042 127.301 129.341 127.153 129.659L125.881 129.205C126.108 128.674 126.411 128.261 126.79 127.966C127.172 127.667 127.589 127.458 128.04 127.341C128.494 127.22 128.941 127.159 129.381 127.159C129.661 127.159 129.983 127.193 130.347 127.261C130.714 127.326 131.068 127.46 131.409 127.665C131.754 127.869 132.04 128.178 132.267 128.591C132.494 129.004 132.608 129.557 132.608 130.25L132.608 136L131.267 136L131.267 134.818L131.199 134.818C131.108 135.008 130.956 135.21 130.744 135.426C130.532 135.642 130.25 135.826 129.898 135.977C129.545 136.129 129.116 136.205 128.608 136.205ZM128.812 135C129.343 135 129.79 134.896 130.153 134.688C130.521 134.479 130.797 134.21 130.983 133.881C131.172 133.551 131.267 133.205 131.267 132.841L131.267 131.614C131.21 131.682 131.085 131.744 130.892 131.801C130.703 131.854 130.483 131.902 130.233 131.943C129.987 131.981 129.746 132.015 129.511 132.045C129.28 132.072 129.093 132.095 128.949 132.114C128.6 132.159 128.275 132.233 127.972 132.335C127.672 132.434 127.43 132.583 127.244 132.784C127.062 132.981 126.972 133.25 126.972 133.591C126.972 134.057 127.144 134.409 127.489 134.648C127.837 134.883 128.278 135 128.812 135ZM134.51 133.773L135.942 133.773C135.972 134.167 136.15 134.466 136.476 134.67C136.805 134.875 137.233 134.977 137.76 134.977C138.298 134.977 138.758 134.867 139.141 134.648C139.523 134.424 139.714 134.064 139.714 133.568C139.714 133.277 139.643 133.023 139.499 132.807C139.355 132.587 139.152 132.417 138.891 132.295C138.629 132.174 138.321 132.114 137.964 132.114L136.464 132.114L136.464 130.909L137.964 130.909C138.499 130.909 138.893 130.788 139.146 130.545C139.404 130.303 139.533 130 139.533 129.636C139.533 129.246 139.394 128.934 139.118 128.699C138.841 128.46 138.449 128.341 137.942 128.341C137.43 128.341 137.004 128.456 136.663 128.688C136.322 128.915 136.143 129.208 136.124 129.568L134.714 129.568C134.73 129.098 134.874 128.684 135.146 128.324C135.419 127.96 135.79 127.676 136.26 127.472C136.73 127.263 137.268 127.159 137.874 127.159C138.487 127.159 139.019 127.267 139.47 127.483C139.925 127.695 140.275 127.985 140.521 128.352C140.771 128.716 140.896 129.129 140.896 129.591C140.896 130.083 140.758 130.481 140.482 130.784C140.205 131.087 139.858 131.303 139.442 131.432L139.442 131.523C139.771 131.545 140.057 131.652 140.3 131.841C140.546 132.027 140.737 132.271 140.874 132.574C141.01 132.873 141.078 133.205 141.078 133.568C141.078 134.098 140.936 134.561 140.652 134.955C140.368 135.345 139.978 135.648 139.482 135.864C138.985 136.076 138.419 136.182 137.783 136.182C137.165 136.182 136.612 136.081 136.124 135.881C135.635 135.676 135.247 135.394 134.959 135.034C134.675 134.67 134.525 134.25 134.51 133.773ZM142.962 139.273L142.962 127.273L144.257 127.273L144.257 128.659L144.416 128.659C144.515 128.508 144.651 128.314 144.825 128.08C145.003 127.841 145.257 127.629 145.587 127.443C145.92 127.254 146.371 127.159 146.939 127.159C147.674 127.159 148.321 127.343 148.882 127.71C149.443 128.078 149.88 128.598 150.195 129.273C150.509 129.947 150.666 130.742 150.666 131.659C150.666 132.583 150.509 133.384 150.195 134.063C149.88 134.737 149.445 135.259 148.888 135.631C148.331 135.998 147.689 136.182 146.962 136.182C146.401 136.182 145.952 136.089 145.615 135.903C145.278 135.714 145.018 135.5 144.837 135.261C144.655 135.019 144.515 134.818 144.416 134.659L144.303 134.659L144.303 139.273L142.962 139.273ZM144.28 131.636C144.28 132.295 144.376 132.877 144.57 133.381C144.763 133.881 145.045 134.273 145.416 134.557C145.787 134.837 146.242 134.977 146.78 134.977C147.34 134.977 147.808 134.83 148.183 134.534C148.562 134.235 148.846 133.833 149.036 133.33C149.229 132.822 149.325 132.258 149.325 131.636C149.325 131.023 149.231 130.47 149.041 129.977C148.856 129.481 148.573 129.089 148.195 128.801C147.82 128.509 147.348 128.364 146.78 128.364C146.234 128.364 145.776 128.502 145.405 128.778C145.034 129.051 144.753 129.434 144.564 129.926C144.375 130.415 144.28 130.985 144.28 131.636ZM155.28 136.205C154.727 136.205 154.225 136.1 153.774 135.892C153.323 135.68 152.965 135.375 152.7 134.977C152.435 134.576 152.303 134.091 152.303 133.523C152.303 133.023 152.401 132.617 152.598 132.307C152.795 131.992 153.058 131.746 153.388 131.568C153.717 131.39 154.081 131.258 154.479 131.17C154.88 131.08 155.284 131.008 155.689 130.955C156.219 130.886 156.649 130.835 156.979 130.801C157.312 130.763 157.554 130.701 157.706 130.614C157.861 130.527 157.939 130.375 157.939 130.159L157.939 130.114C157.939 129.553 157.786 129.117 157.479 128.807C157.176 128.496 156.715 128.341 156.098 128.341C155.458 128.341 154.956 128.481 154.592 128.761C154.229 129.042 153.973 129.341 153.825 129.659L152.553 129.205C152.78 128.674 153.083 128.261 153.462 127.966C153.844 127.667 154.261 127.458 154.712 127.341C155.166 127.22 155.613 127.159 156.053 127.159C156.333 127.159 156.655 127.193 157.018 127.261C157.386 127.326 157.74 127.46 158.081 127.665C158.426 127.869 158.712 128.178 158.939 128.591C159.166 129.004 159.28 129.557 159.28 130.25L159.28 136L157.939 136L157.939 134.818L157.871 134.818C157.78 135.008 157.628 135.21 157.416 135.426C157.204 135.642 156.922 135.826 156.57 135.977C156.217 136.129 155.787 136.205 155.28 136.205ZM155.484 135C156.015 135 156.462 134.896 156.825 134.688C157.193 134.479 157.469 134.21 157.655 133.881C157.844 133.551 157.939 133.205 157.939 132.841L157.939 131.614C157.882 131.682 157.757 131.744 157.564 131.801C157.375 131.854 157.155 131.902 156.905 131.943C156.659 131.981 156.418 132.015 156.183 132.045C155.952 132.072 155.765 132.095 155.621 132.114C155.272 132.159 154.946 132.233 154.643 132.335C154.344 132.434 154.102 132.583 153.916 132.784C153.734 132.981 153.643 133.25 153.643 133.591C153.643 134.057 153.816 134.409 154.161 134.648C154.509 134.883 154.95 135 155.484 135ZM168.205 124L168.886 124.818C168.621 125.076 168.314 125.256 167.966 125.358C167.617 125.46 167.223 125.523 166.784 125.545C166.345 125.568 165.856 125.591 165.318 125.614C164.712 125.636 164.21 125.784 163.812 126.057C163.415 126.33 163.108 126.723 162.892 127.239C162.676 127.754 162.538 128.386 162.477 129.136L162.591 129.136C162.886 128.591 163.295 128.189 163.818 127.932C164.341 127.674 164.902 127.545 165.5 127.545C166.182 127.545 166.795 127.705 167.341 128.023C167.886 128.341 168.318 128.813 168.636 129.438C168.955 130.063 169.114 130.833 169.114 131.75C169.114 132.663 168.951 133.451 168.625 134.114C168.303 134.777 167.85 135.288 167.267 135.648C166.687 136.004 166.008 136.182 165.227 136.182C164.447 136.182 163.763 135.998 163.176 135.631C162.589 135.259 162.133 134.71 161.807 133.983C161.481 133.252 161.318 132.348 161.318 131.273L161.318 130.341C161.318 128.398 161.648 126.924 162.307 125.92C162.97 124.917 163.966 124.398 165.295 124.364C165.765 124.348 166.184 124.345 166.551 124.352C166.919 124.36 167.239 124.343 167.511 124.301C167.784 124.259 168.015 124.159 168.205 124ZM165.227 134.977C165.754 134.977 166.206 134.845 166.585 134.58C166.968 134.314 167.261 133.941 167.466 133.46C167.67 132.975 167.773 132.405 167.773 131.75C167.773 131.114 167.669 130.572 167.46 130.125C167.256 129.678 166.962 129.337 166.58 129.102C166.197 128.867 165.739 128.75 165.205 128.75C164.814 128.75 164.464 128.816 164.153 128.949C163.843 129.081 163.578 129.277 163.358 129.534C163.138 129.792 162.968 130.106 162.847 130.477C162.729 130.848 162.667 131.273 162.659 131.75C162.659 132.727 162.888 133.509 163.347 134.097C163.805 134.684 164.432 134.977 165.227 134.977ZM174.71 136.182C173.922 136.182 173.231 135.994 172.636 135.619C172.045 135.244 171.583 134.72 171.25 134.045C170.92 133.371 170.756 132.583 170.756 131.682C170.756 130.773 170.92 129.979 171.25 129.301C171.583 128.623 172.045 128.097 172.636 127.722C173.231 127.347 173.922 127.159 174.71 127.159C175.498 127.159 176.187 127.347 176.778 127.722C177.373 128.097 177.835 128.623 178.165 129.301C178.498 129.979 178.665 130.773 178.665 131.682C178.665 132.583 178.498 133.371 178.165 134.045C177.835 134.72 177.373 135.244 176.778 135.619C176.187 135.994 175.498 136.182 174.71 136.182ZM174.71 134.977C175.309 134.977 175.801 134.824 176.187 134.517C176.574 134.21 176.86 133.807 177.045 133.307C177.231 132.807 177.324 132.265 177.324 131.682C177.324 131.098 177.231 130.555 177.045 130.051C176.86 129.547 176.574 129.14 176.187 128.83C175.801 128.519 175.309 128.364 174.71 128.364C174.112 128.364 173.619 128.519 173.233 128.83C172.847 129.14 172.561 129.547 172.375 130.051C172.189 130.555 172.097 131.098 172.097 131.682C172.097 132.265 172.189 132.807 172.375 133.307C172.561 133.807 172.847 134.21 173.233 134.517C173.619 134.824 174.112 134.977 174.71 134.977ZM179.571 128.523L179.571 127.273L186.662 127.273L186.662 128.523L183.798 128.523L183.798 136L182.457 136L182.457 128.523L179.571 128.523ZM194.892 127.273L194.892 136L193.551 136L193.551 127.273L194.892 127.273ZM194.369 131.432L194.369 132.682C194.066 132.795 193.765 132.896 193.466 132.983C193.167 133.066 192.852 133.133 192.523 133.182C192.193 133.227 191.831 133.25 191.437 133.25C190.449 133.25 189.655 132.983 189.057 132.449C188.462 131.915 188.165 131.114 188.165 130.045L188.165 127.25L189.506 127.25L189.506 130.045C189.506 130.492 189.591 130.86 189.761 131.148C189.932 131.436 190.163 131.65 190.455 131.79C190.746 131.93 191.074 132 191.437 132C192.006 132 192.519 131.949 192.977 131.847C193.439 131.741 193.903 131.602 194.369 131.432ZM198.693 134.023L202.898 127.273L204.443 127.273L204.443 136L203.102 136L203.102 129.25L198.92 136L197.352 136L197.352 127.273L198.693 127.273L198.693 134.023ZM206.899 136L206.899 127.273L208.24 127.273L208.24 131.068L209.126 131.068L212.263 127.273L213.99 127.273L210.467 131.477L214.036 136L212.308 136L209.445 132.318L208.24 132.318L208.24 136L206.899 136Z" fill="#2B4554"/>
</g>
<defs>
<clipPath id="clip0_1031_3695">
<rect width="180" height="270" fill="white" transform="translate(0 180) rotate(-90)"/>
</clipPath>
</defs>
</svg>
