<svg width="187" height="278" viewBox="0 0 187 278" fill="none" xmlns="http://www.w3.org/2000/svg">
<path d="M168.534 276.25H17.5342C8.84839 276.25 1.78418 269.186 1.78418 260.5L1.78418 17.5C1.78418 8.81421 8.84839 1.75 17.5342 1.75L168.534 1.75C177.22 1.75 184.284 8.81421 184.284 17.5V260.5C184.284 269.186 177.22 276.25 168.534 276.25Z" fill="#E7ECF1" stroke="#EB8946" stroke-width="1.5"/>
<path d="M162.434 265.9H23.6342C17.7342 265.9 13.0342 261.2 13.0342 255.3L13.0342 22.5004C13.0342 16.6004 17.7342 11.9004 23.6342 11.9004L162.534 11.9004C168.434 11.9004 173.134 16.6004 173.134 22.5004V255.2C173.034 261.1 168.334 265.9 162.434 265.9Z" fill="#E7ECF1" stroke="#EB8946" stroke-width="0.5669" stroke-miterlimit="10"/>
<path d="M57.1336 40.8993H3.69922V28.4967C3.69922 14.7885 15.0338 3.69141 29.0353 3.69141L57.1336 3.69141V40.8993Z" fill="#E7ECF1"/>
<path d="M128.935 237.1H182.16V249.603C182.16 263.422 170.87 274.61 156.923 274.61H128.935V237.1Z" fill="#E7ECF1"/>
<path d="M27.6336 11.9004C27.6336 16.8004 27.6336 21.7004 27.6336 26.6004C27.5336 26.6004 27.5336 26.6004 27.4336 26.6004C24.6336 26.6004 21.8336 26.6004 19.0336 26.6004C16.1336 26.6004 13.5336 24.5004 13.0336 21.6004C13.0336 21.3004 12.9336 21.1004 12.9336 20.8004C12.9336 19.8004 12.9336 18.8004 12.9336 17.9004C12.9336 15.2004 14.9336 12.8004 17.6336 12.2004C18.0336 12.1004 18.5336 12.1004 18.9336 12.0004C21.7336 12.0004 24.5336 12.0004 27.3336 12.0004C27.5336 11.9004 27.5336 11.9004 27.6336 11.9004ZM23.1336 16.5004C23.0336 16.5004 23.0336 16.5004 23.0336 16.5004C21.7336 16.5004 20.4336 16.5004 19.1336 16.5004C18.2336 16.5004 17.6336 17.2004 17.6336 18.0004C17.6336 18.8004 17.6336 19.6004 17.6336 20.4004C17.6336 21.3004 18.3336 22.0004 19.2336 22.0004C20.5336 22.0004 21.7336 22.0004 23.0336 22.0004C23.1336 22.0004 23.1336 22.0004 23.2336 22.0004C23.1336 20.2004 23.1336 18.3004 23.1336 16.5004Z" fill="#EB8946"/>
<path d="M30.4336 11.9004C30.5336 11.9004 30.5336 11.9004 30.6336 11.9004C33.4336 11.9004 36.3336 11.9004 39.1336 11.9004C41.6336 11.9004 43.8336 13.4004 44.7336 15.7004C45.0336 16.4004 45.1336 17.2004 45.1336 17.9004C45.1336 18.8004 45.1336 19.7004 45.1336 20.6004C45.1336 23.5004 43.1336 26.0004 40.2336 26.5004C39.8336 26.6004 39.3336 26.6004 38.9336 26.6004C37.6336 26.6004 36.4336 26.6004 35.1336 26.6004C35.0336 26.6004 35.0336 26.6004 34.9336 26.6004C34.9336 28.5004 34.9336 30.4004 34.9336 32.3004C33.4336 32.3004 31.9336 32.3004 30.4336 32.3004C30.4336 25.6004 30.4336 18.8004 30.4336 11.9004ZM34.9336 22.2004H35.0336C36.4336 22.2004 37.7336 22.2004 39.1336 22.2004C40.0336 22.2004 40.6336 21.5004 40.6336 20.7004C40.6336 19.8004 40.6336 19.0004 40.6336 18.1004C40.6336 17.3004 40.0336 16.5004 39.0336 16.5004C37.7336 16.5004 36.4336 16.5004 35.1336 16.5004C35.0336 16.5004 35.0336 16.5004 34.9336 16.5004C34.9336 18.4004 34.9336 20.3004 34.9336 22.2004Z" fill="#EB8946"/>
<path d="M158.434 265.9C158.434 261 158.434 256.1 158.434 251.2C158.534 251.2 158.534 251.2 158.634 251.2C161.434 251.2 164.234 251.2 167.034 251.2C169.934 251.2 172.534 253.3 173.034 256.2C173.034 256.5 173.134 256.7 173.134 257C173.134 258 173.134 259 173.134 259.9C173.134 262.6 171.134 265 168.434 265.6C168.034 265.7 167.534 265.7 167.134 265.8C164.334 265.8 161.534 265.8 158.734 265.8C158.534 265.9 158.534 265.9 158.434 265.9ZM162.934 261.3C163.034 261.3 163.034 261.3 163.034 261.3C164.334 261.3 165.634 261.3 166.934 261.3C167.834 261.3 168.434 260.6 168.434 259.8C168.434 259 168.434 258.2 168.434 257.4C168.434 256.5 167.734 255.8 166.834 255.8C165.534 255.8 164.334 255.8 163.034 255.8C162.934 255.8 162.934 255.8 162.834 255.8C162.934 257.6 162.934 259.5 162.934 261.3Z" fill="#EB8946"/>
<path d="M155.634 265.9C155.534 265.9 155.534 265.9 155.434 265.9C152.634 265.9 149.734 265.9 146.934 265.9C144.434 265.9 142.234 264.4 141.334 262.1C141.034 261.4 140.934 260.6 140.934 259.9C140.934 259 140.934 258.1 140.934 257.2C140.934 254.3 142.934 251.8 145.834 251.3C146.234 251.2 146.734 251.2 147.134 251.2C148.434 251.2 149.634 251.2 150.934 251.2C151.034 251.2 151.034 251.2 151.134 251.2C151.134 249.3 151.134 247.4 151.134 245.5C152.634 245.5 154.134 245.5 155.634 245.5C155.634 252.2 155.634 259 155.634 265.9ZM151.134 255.6H151.034C149.634 255.6 148.334 255.6 146.934 255.6C146.034 255.6 145.434 256.3 145.434 257.1C145.434 258 145.434 258.8 145.434 259.7C145.434 260.5 146.034 261.3 147.034 261.3C148.334 261.3 149.634 261.3 150.934 261.3C151.034 261.3 151.034 261.3 151.134 261.3C151.134 259.4 151.134 257.5 151.134 255.6Z" fill="#EB8946"/>
<path d="M40.6762 155.182V125.182H45.733V128.79H46.0313C46.2965 128.259 46.6705 127.696 47.1535 127.099C47.6365 126.493 48.2899 125.977 49.1137 125.551C49.9376 125.116 50.9887 124.898 52.2671 124.898C53.9527 124.898 55.4726 125.329 56.8268 126.19C58.1904 127.043 59.27 128.307 60.0654 129.983C60.8704 131.65 61.2728 133.695 61.2728 136.119C61.2728 138.515 60.8798 140.551 60.0938 142.227C59.3079 143.903 58.2378 145.182 56.8836 146.062C55.5294 146.943 53.9954 147.384 52.2813 147.384C51.0313 147.384 49.9944 147.175 49.1705 146.759C48.3467 146.342 47.6838 145.84 47.1819 145.253C46.6895 144.656 46.306 144.093 46.0313 143.562H45.8183V155.182H40.6762ZM45.7188 136.091C45.7188 137.502 45.9177 138.738 46.3154 139.798C46.7226 140.859 47.305 141.687 48.0626 142.284C48.8296 142.871 49.7577 143.165 50.8467 143.165C51.983 143.165 52.9347 142.862 53.7018 142.256C54.4688 141.64 55.0465 140.802 55.4347 139.741C55.8325 138.671 56.0313 137.455 56.0313 136.091C56.0313 134.737 55.8372 133.534 55.449 132.483C55.0607 131.432 54.483 130.608 53.716 130.011C52.949 129.415 51.9925 129.116 50.8467 129.116C49.7482 129.116 48.8154 129.405 48.0484 129.983C47.2813 130.561 46.699 131.37 46.3012 132.412C45.913 133.454 45.7188 134.68 45.7188 136.091ZM75.1933 147.426C73.0626 147.426 71.216 146.957 69.6535 146.02C68.091 145.082 66.8789 143.771 66.0171 142.085C65.1649 140.4 64.7387 138.43 64.7387 136.176C64.7387 133.922 65.1649 131.948 66.0171 130.253C66.8789 128.558 68.091 127.241 69.6535 126.304C71.216 125.366 73.0626 124.898 75.1933 124.898C77.324 124.898 79.1705 125.366 80.733 126.304C82.2955 127.241 83.5029 128.558 84.3552 130.253C85.2169 131.948 85.6478 133.922 85.6478 136.176C85.6478 138.43 85.2169 140.4 84.3552 142.085C83.5029 143.771 82.2955 145.082 80.733 146.02C79.1705 146.957 77.324 147.426 75.1933 147.426ZM75.2217 143.307C76.377 143.307 77.3429 142.99 78.1194 142.355C78.8959 141.711 79.4736 140.849 79.8524 139.77C80.2406 138.69 80.4347 137.488 80.4347 136.162C80.4347 134.827 80.2406 133.619 79.8524 132.54C79.4736 131.451 78.8959 130.584 78.1194 129.94C77.3429 129.296 76.377 128.974 75.2217 128.974C74.038 128.974 73.0531 129.296 72.2671 129.94C71.4906 130.584 70.9082 131.451 70.52 132.54C70.1412 133.619 69.9518 134.827 69.9518 136.162C69.9518 137.488 70.1412 138.69 70.52 139.77C70.9082 140.849 71.4906 141.711 72.2671 142.355C73.0531 142.99 74.038 143.307 75.2217 143.307ZM94.6997 140.153L94.6855 133.946H95.5093L103.35 125.182H109.359L99.7139 135.92H98.6485L94.6997 140.153ZM90.0122 147V117.909H95.1542V147H90.0122ZM103.705 147L96.6031 137.071L100.069 133.449L109.856 147H103.705ZM121.546 147.426C119.359 147.426 117.47 146.972 115.879 146.062C114.297 145.144 113.08 143.847 112.228 142.17C111.376 140.485 110.95 138.501 110.95 136.219C110.95 133.974 111.376 132.005 112.228 130.31C113.09 128.605 114.292 127.279 115.836 126.332C117.38 125.376 119.193 124.898 121.276 124.898C122.621 124.898 123.89 125.116 125.083 125.551C126.286 125.977 127.346 126.64 128.265 127.54C129.193 128.439 129.922 129.585 130.453 130.977C130.983 132.36 131.248 134.008 131.248 135.92V137.497H113.364V134.031H126.319C126.31 133.046 126.096 132.17 125.68 131.403C125.263 130.627 124.681 130.016 123.933 129.571C123.194 129.126 122.332 128.903 121.347 128.903C120.296 128.903 119.373 129.159 118.578 129.67C117.782 130.172 117.162 130.835 116.717 131.659C116.281 132.473 116.059 133.368 116.049 134.344V137.369C116.049 138.638 116.281 139.727 116.745 140.636C117.209 141.536 117.858 142.227 118.691 142.71C119.524 143.184 120.5 143.42 121.617 143.42C122.365 143.42 123.042 143.316 123.649 143.108C124.255 142.89 124.78 142.573 125.225 142.156C125.67 141.74 126.006 141.223 126.234 140.608L131.035 141.148C130.732 142.417 130.154 143.525 129.302 144.472C128.459 145.409 127.38 146.138 126.063 146.659C124.747 147.17 123.241 147.426 121.546 147.426ZM135.598 147V125.182H140.584V128.818H140.811C141.209 127.559 141.891 126.588 142.857 125.906C143.832 125.215 144.945 124.869 146.195 124.869C146.479 124.869 146.796 124.884 147.146 124.912C147.506 124.931 147.805 124.964 148.041 125.011V129.741C147.823 129.666 147.478 129.599 147.004 129.543C146.54 129.476 146.091 129.443 145.655 129.443C144.717 129.443 143.875 129.647 143.127 130.054C142.388 130.452 141.805 131.006 141.379 131.716C140.953 132.426 140.74 133.245 140.74 134.173V147H135.598Z" fill="#EB8946"/>
</svg>
