<svg width="188" height="281" viewBox="0 0 188 281" fill="none" xmlns="http://www.w3.org/2000/svg">
<g clip-path="url(#clip0_1031_3636)">
<path d="M18.5448 279.359H169.955C179.493 279.359 187.25 271.611 187.25 262.079V18.6393C187.25 9.10793 179.493 1.35938 169.955 1.35938L18.5448 1.35938C9.00653 1.35938 1.25 9.10793 1.25 18.6393L1.25 262.079C1.25 271.611 9.00653 279.359 18.5448 279.359Z" fill="#2B4554" stroke="#3E97B0" stroke-width="1.5"/>
<mask id="mask0_1031_3636" style="mask-type:luminance" maskUnits="userSpaceOnUse" x="2" y="2" width="185" height="277">
<path d="M169.955 278.608H18.5448C9.42011 278.608 2 271.195 2 262.079L2 18.6383C2 9.5218 9.42011 2.1084 18.5448 2.1084L169.955 2.1084C179.08 2.1084 186.5 9.5218 186.5 18.6383V262.079C186.5 271.195 179.08 278.608 169.955 278.608Z" fill="white"/>
</mask>
<g mask="url(#mask0_1031_3636)">
<path d="M169.956 278.608H18.5458C9.42108 278.608 2.00098 271.195 2.00098 262.079L2.00098 18.6383C2.00098 9.5218 9.42108 2.1084 18.5458 2.1084L169.956 2.1084C179.081 2.1084 186.501 9.5218 186.501 18.6383V262.079C186.501 271.195 179.081 278.608 169.956 278.608Z" fill="#2B4554"/>
<path d="M120.823 57.5082H66.0742C20.25 57.5082 -16.8506 20.4412 -16.8506 -25.3416C-16.8506 -71.1244 20.25 -108.191 66.0742 -108.191H120.823C166.647 -108.191 203.747 -71.1244 203.747 -25.3416C203.747 20.4412 166.647 57.5082 120.823 57.5082Z" fill="#E06D1F"/>
<path d="M203.748 -25.3416C203.748 -2.50028 194.422 18.2372 179.482 33.2644C164.441 48.2916 143.785 57.5082 120.823 57.5082H91.1426V-108.191H120.823C166.647 -108.191 203.748 -71.1244 203.748 -25.3416Z" fill="#3E97B0"/>
<path d="M-16.75 135.248C-15.4465 114.411 -6.52228 95.5767 7.41549 81.7517C22.4562 66.7245 43.1122 57.5078 66.0745 57.5078L120.823 57.5078C122.227 57.5078 123.731 57.5078 125.135 57.608C125.836 57.608 126.538 57.7082 127.24 57.7082C128.544 57.8084 129.847 57.9085 131.051 58.1089C131.552 58.2091 132.053 58.2091 132.555 58.3093C132.755 58.3093 132.956 58.4094 133.257 58.4094C133.758 58.5096 134.259 58.6098 134.761 58.6098C134.861 58.6098 135.061 58.6098 135.162 58.71C135.663 58.8102 136.164 58.9103 136.666 59.0105C136.866 59.0105 137.067 59.1107 137.167 59.1107C137.668 59.2109 138.27 59.3111 138.771 59.4113C138.872 59.4113 138.872 59.4113 138.972 59.5114C139.574 59.6116 140.075 59.812 140.677 59.9122C140.777 59.9122 140.877 59.9122 140.977 60.0123C141.379 60.1125 141.88 60.2127 142.281 60.3129C142.682 60.4131 143.083 60.5132 143.484 60.6134C143.585 60.6134 143.685 60.6134 143.685 60.7136C144.186 60.8138 144.788 61.0142 145.289 61.2145C146.091 61.5151 146.994 61.7154 147.796 62.016C148.197 62.1161 148.598 62.3165 148.999 62.4167C149.3 62.5169 149.501 62.6171 149.801 62.7172C150.202 62.9176 150.704 63.0178 151.105 63.2181C151.205 63.2181 151.305 63.3183 151.406 63.3183C151.807 63.5187 152.308 63.719 152.709 63.9194C152.91 64.0196 153.11 64.1198 153.311 64.22C153.812 64.4203 154.314 64.6207 154.815 64.9212C154.815 64.9212 154.915 64.9212 154.915 65.0214C155.517 65.3219 156.118 65.5223 156.72 65.8228C157.221 66.1234 157.823 66.3238 158.324 66.6243C163.137 69.1288 167.75 72.0341 171.961 75.3401C172.964 76.1415 173.867 76.943 174.869 77.7444C175.371 78.1451 175.872 78.5459 176.273 79.0468C176.975 79.6479 177.677 80.3491 178.379 81.0504C179.081 81.7517 179.783 82.3527 180.384 83.054C180.785 83.5549 181.287 83.9556 181.688 84.4565C182.089 84.9574 182.59 85.3582 182.991 85.8591C183.793 86.7607 184.596 87.7625 185.398 88.6642C185.398 88.6642 185.498 88.7643 185.498 88.8645C185.899 89.3654 186.3 89.7661 186.601 90.2671C187.002 90.6678 187.303 91.1687 187.604 91.6696C188.005 92.2707 188.506 92.8718 188.907 93.4728C189.208 93.9738 189.509 94.3745 189.81 94.8754C189.91 94.9756 190.01 95.1759 190.111 95.2761C190.411 95.777 190.712 96.1777 191.013 96.5785C191.314 97.0794 191.615 97.4801 191.915 97.981C192.317 98.5821 192.617 99.2834 193.018 99.8844C193.319 100.385 193.62 100.986 193.921 101.487C194.222 101.988 194.422 102.489 194.723 102.99C195.024 103.491 195.224 103.992 195.525 104.593V104.693C195.826 105.294 196.127 105.895 196.327 106.496C196.528 106.997 196.729 107.498 197.029 107.999C197.33 108.7 197.631 109.502 197.932 110.203C198.032 110.504 198.233 110.804 198.333 111.205C198.433 111.505 198.634 111.906 198.734 112.207C199.636 114.711 200.439 117.116 201.04 119.72C201.241 120.321 201.341 121.023 201.542 121.624C201.742 122.225 201.842 122.926 201.943 123.527C202.043 124.128 202.243 124.83 202.344 125.431C202.444 126.132 202.544 126.733 202.645 127.434C202.745 128.136 202.845 128.737 202.945 129.438C203.046 130.139 203.146 130.74 203.146 131.442C203.246 132.143 203.246 132.744 203.346 133.445C203.447 134.146 203.447 134.747 203.447 135.449H-16.75V135.248Z" fill="#3E97B0"/>
<path d="M203.647 143.264C203.647 143.765 203.647 144.165 203.547 144.666C203.547 145.267 203.447 145.868 203.447 146.57C203.447 147.371 203.346 148.072 203.246 148.874C203.146 150.276 202.945 151.679 202.745 152.981C202.544 154.183 202.344 155.285 202.143 156.488C202.043 156.888 202.043 157.189 201.943 157.59C201.842 158.09 201.742 158.591 201.642 159.092C201.542 159.794 201.341 160.395 201.14 161.096C201.04 161.597 200.84 162.098 200.739 162.699C200.639 163.1 200.539 163.5 200.338 163.901C200.338 164.101 200.238 164.302 200.138 164.502C200.037 164.903 199.937 165.203 199.837 165.604C199.737 166.105 199.536 166.506 199.336 167.007C199.135 167.608 198.934 168.109 198.734 168.71C198.433 169.511 198.132 170.413 197.831 171.214C197.731 171.515 197.531 171.915 197.43 172.216C197.33 172.517 197.13 172.817 197.029 173.118C196.829 173.619 196.628 174.119 196.428 174.62C195.826 175.823 195.325 177.025 194.723 178.227C194.322 179.028 193.921 179.73 193.52 180.531C193.319 180.932 193.018 181.333 192.818 181.833C192.517 182.334 192.317 182.735 192.016 183.236C190.111 186.342 188.105 189.347 185.799 192.152C185.298 192.853 184.696 193.454 184.195 194.156C183.693 194.757 183.192 195.358 182.59 195.959C182.39 196.26 182.089 196.56 181.888 196.76C181.086 197.562 180.384 198.363 179.582 199.165C178.78 199.966 177.978 200.768 177.176 201.469C176.875 201.769 176.674 201.97 176.373 202.17C175.772 202.771 175.17 203.272 174.568 203.773C173.967 204.274 173.265 204.875 172.563 205.376C172.362 205.576 172.162 205.677 172.062 205.777C171.56 206.177 171.159 206.478 170.658 206.879C170.156 207.279 169.555 207.68 169.054 208.081C168.652 208.381 168.151 208.682 167.75 208.983C167.549 209.083 167.349 209.183 167.249 209.383C166.246 210.085 165.143 210.786 164.14 211.387C163.539 211.687 163.037 212.088 162.436 212.389C161.934 212.689 161.333 212.99 160.731 213.29C158.324 214.593 155.717 215.795 153.11 216.897C152.609 217.097 152.007 217.298 151.506 217.598C150.904 217.899 150.202 218.099 149.601 218.299C148.999 218.5 148.398 218.7 147.696 219.001C146.994 219.201 146.292 219.502 145.59 219.702C144.988 219.902 144.387 220.103 143.785 220.303C141.98 220.804 140.175 221.305 138.27 221.706C137.869 221.806 137.568 221.806 137.167 221.906C135.964 222.106 134.861 222.307 133.658 222.507C132.254 222.707 130.85 222.908 129.546 223.008C126.739 223.308 123.931 223.409 121.023 223.409H66.0745C21.253 223.409 -15.2459 187.844 -16.75 143.464H203.647V143.264Z" fill="#E06D1F"/>
<path d="M203.547 135.248H86.3291V57.5078H120.823C122.226 57.5078 123.73 57.5078 125.134 57.608C125.836 57.608 126.538 57.7082 127.24 57.7082C128.544 57.8084 129.847 57.9085 131.05 58.1089C131.552 58.2091 132.053 58.2091 132.554 58.3093C132.755 58.3093 132.955 58.4094 133.256 58.4094C133.758 58.5096 134.259 58.6098 134.76 58.6098C134.861 58.6098 135.061 58.6098 135.161 58.71C135.663 58.8102 136.164 58.9103 136.666 59.0105C136.866 59.0105 137.067 59.1107 137.167 59.1107C137.668 59.2109 138.27 59.3111 138.771 59.4113C138.871 59.4113 138.872 59.4113 138.972 59.5114C139.573 59.6116 140.075 59.812 140.676 59.9122C140.777 59.9122 140.877 59.9122 140.977 60.0123C141.378 60.1125 141.88 60.2127 142.281 60.3129C142.682 60.4131 143.083 60.5132 143.484 60.6134C143.584 60.6134 143.685 60.6134 143.685 60.7136C144.186 60.8138 144.788 61.0142 145.289 61.2145C146.091 61.5151 146.994 61.7154 147.796 62.016C148.197 62.1161 148.598 62.3165 148.999 62.4167C149.3 62.5169 149.5 62.6171 149.801 62.7172C150.202 62.9176 150.704 63.0178 151.105 63.2181C151.205 63.2181 151.305 63.3183 151.405 63.3183C151.807 63.5187 152.308 63.719 152.709 63.9194C152.91 64.0196 153.11 64.1198 153.311 64.22C153.812 64.4203 154.313 64.6207 154.815 64.9212C154.815 64.9212 154.915 64.9212 154.915 65.0214C155.517 65.3219 156.118 65.5223 156.72 65.8228C157.221 66.1234 157.823 66.3238 158.324 66.6243C163.137 69.1288 167.75 72.0341 171.961 75.3401C172.964 76.1415 173.866 76.943 174.869 77.7444C175.37 78.1451 175.872 78.5459 176.273 79.0468C176.975 79.6479 177.677 80.3491 178.379 81.0504C179.08 81.7517 179.782 82.3527 180.384 83.054C180.785 83.5549 181.286 83.9556 181.688 84.4565C182.089 84.9574 182.59 85.3582 182.991 85.8591C183.793 86.7607 184.595 87.7625 185.398 88.6642C185.398 88.6642 185.498 88.7643 185.498 88.8645C185.899 89.3654 186.3 89.7661 186.601 90.2671C187.002 90.6678 187.303 91.1687 187.604 91.6696C188.005 92.2707 188.506 92.8718 188.907 93.4728C189.208 93.9738 189.509 94.3745 189.81 94.8754C189.91 94.9756 190.01 95.1759 190.11 95.2761C190.411 95.777 190.712 96.1777 191.013 96.5785C191.314 97.0794 191.614 97.4801 191.915 97.981C192.316 98.5821 192.617 99.2834 193.018 99.8844C193.319 100.385 193.62 100.986 193.921 101.487C194.221 101.988 194.422 102.489 194.723 102.99C195.024 103.491 195.224 103.992 195.525 104.593V104.693C195.826 105.294 196.127 105.895 196.327 106.496C196.528 106.997 196.728 107.498 197.029 107.999C197.33 108.7 197.631 109.502 197.932 110.203C198.032 110.504 198.232 110.804 198.333 111.205C198.433 111.505 198.633 111.906 198.734 112.207C199.636 114.711 200.438 117.116 201.04 119.72C201.241 120.321 201.341 121.023 201.541 121.624C201.742 122.225 201.842 122.926 201.942 123.527C202.043 124.128 202.243 124.83 202.344 125.431C202.444 126.132 202.544 126.733 202.644 127.434C202.745 128.136 202.845 128.737 202.945 129.438C203.045 130.139 203.146 130.74 203.146 131.442C203.246 132.143 203.246 132.744 203.346 133.445C203.447 133.946 203.547 134.647 203.547 135.248Z" fill="#E06D1F"/>
<path d="M203.647 143.264C203.647 143.765 203.647 144.165 203.547 144.666C203.547 145.267 203.446 145.868 203.446 146.57C203.446 147.371 203.346 148.072 203.246 148.874C203.146 150.276 202.945 151.679 202.745 152.981C202.544 154.183 202.344 155.285 202.143 156.488C202.043 156.888 202.043 157.189 201.942 157.59C201.842 158.09 201.742 158.591 201.642 159.092C201.541 159.794 201.341 160.395 201.14 161.096C201.04 161.597 200.839 162.098 200.739 162.699C200.639 163.1 200.539 163.5 200.338 163.901C200.338 164.101 200.238 164.302 200.138 164.502C200.037 164.903 199.937 165.203 199.837 165.604C199.736 166.105 199.536 166.506 199.335 167.007C199.135 167.608 198.934 168.109 198.734 168.71C198.433 169.511 198.132 170.413 197.831 171.214C197.731 171.515 197.53 171.915 197.43 172.216C197.33 172.517 197.129 172.817 197.029 173.118C196.829 173.619 196.628 174.119 196.427 174.62C195.826 175.823 195.324 177.025 194.723 178.227C194.322 179.028 193.921 179.73 193.52 180.531C193.319 180.932 193.018 181.333 192.818 181.833C192.517 182.334 192.316 182.735 192.016 183.236C190.11 186.342 188.105 189.347 185.799 192.152C185.297 192.853 184.696 193.454 184.194 194.156C183.693 194.757 183.192 195.358 182.59 195.959C182.389 196.26 182.089 196.56 181.888 196.76C181.086 197.562 180.384 198.363 179.582 199.165C178.78 199.966 177.977 200.768 177.175 201.469C176.874 201.769 176.674 201.97 176.373 202.17C175.771 202.771 175.17 203.272 174.568 203.773C173.967 204.274 173.265 204.875 172.563 205.376C172.362 205.576 172.162 205.677 172.061 205.777C171.56 206.177 171.159 206.478 170.658 206.879C170.156 207.279 169.555 207.68 169.053 208.081C168.652 208.381 168.151 208.682 167.75 208.983C167.549 209.083 167.349 209.183 167.248 209.383C166.246 210.085 165.143 210.786 164.14 211.387C163.538 211.687 163.037 212.088 162.435 212.389C161.934 212.689 161.332 212.99 160.731 213.29C158.324 214.593 155.717 215.795 153.11 216.897C152.609 217.097 152.007 217.298 151.506 217.598C150.904 217.899 150.202 218.099 149.601 218.299C148.999 218.5 148.397 218.7 147.695 219.001C146.994 219.201 146.292 219.502 145.59 219.702C144.988 219.902 144.386 220.103 143.785 220.303C141.98 220.804 140.175 221.305 138.27 221.706C137.869 221.806 137.568 221.806 137.167 221.906C135.964 222.106 134.861 222.307 133.657 222.507C132.254 222.707 130.85 222.908 129.546 223.008C126.739 223.308 123.931 223.409 121.023 223.409H86.3291V143.464H203.647V143.264Z" fill="#3E97B0"/>
<path d="M-16.75 300.949C-15.4465 280.111 -6.52228 261.277 7.41549 247.452C22.4562 232.425 43.1122 223.208 66.0745 223.208H120.823C122.227 223.208 123.731 223.208 125.135 223.308C125.836 223.308 126.538 223.408 127.24 223.408C128.544 223.509 129.847 223.609 131.051 223.809C131.552 223.909 132.053 223.909 132.555 224.009C132.755 224.009 132.956 224.11 133.257 224.11C133.758 224.21 134.259 224.31 134.761 224.31C134.861 224.31 135.061 224.31 135.162 224.41C135.663 224.51 136.164 224.611 136.666 224.711C136.866 224.711 137.067 224.811 137.167 224.811C137.668 224.911 138.27 225.011 138.771 225.111C138.872 225.111 138.872 225.111 138.972 225.212C139.574 225.312 140.075 225.512 140.677 225.612C140.777 225.612 140.877 225.612 140.977 225.713C141.379 225.813 141.88 225.913 142.281 226.013C142.682 226.113 143.083 226.213 143.484 226.314C143.585 226.314 143.685 226.314 143.685 226.414C144.186 226.514 144.788 226.714 145.289 226.915C146.091 227.215 146.994 227.416 147.796 227.716C148.197 227.816 148.598 228.017 148.999 228.117C149.3 228.217 149.501 228.317 149.801 228.417C150.202 228.618 150.704 228.718 151.105 228.918C151.205 228.918 151.305 229.019 151.406 229.019C151.807 229.219 152.308 229.419 152.709 229.62C152.91 229.72 153.11 229.82 153.311 229.92C153.812 230.121 154.314 230.321 154.815 230.621C154.815 230.621 154.915 230.621 154.915 230.722C155.517 231.022 156.118 231.223 156.72 231.523C157.221 231.824 157.823 232.024 158.324 232.325C163.137 234.829 167.75 237.734 171.961 241.04C172.964 241.842 173.867 242.643 174.869 243.445C175.371 243.845 175.872 244.246 176.273 244.747C176.975 245.348 177.677 246.049 178.379 246.751C179.081 247.452 179.783 248.053 180.384 248.754C180.785 249.255 181.287 249.656 181.688 250.157C182.089 250.658 182.59 251.058 182.991 251.559C183.793 252.461 184.596 253.463 185.398 254.364C185.398 254.364 185.498 254.465 185.498 254.565C185.899 255.066 186.3 255.466 186.601 255.967C187.002 256.368 187.303 256.869 187.604 257.37C188.005 257.971 188.506 258.572 188.907 259.173C189.208 259.674 189.509 260.075 189.81 260.576C189.91 260.676 190.01 260.876 190.111 260.976C190.411 261.477 190.712 261.878 191.013 262.279C191.314 262.78 191.615 263.18 191.915 263.681C192.317 264.282 192.617 264.984 193.018 265.585C193.319 266.086 193.62 266.687 193.921 267.188C194.222 267.688 194.422 268.189 194.723 268.69C195.024 269.191 195.224 269.692 195.525 270.293V270.393C195.826 270.994 196.127 271.596 196.327 272.197C196.528 272.698 196.729 273.198 197.029 273.699C197.33 274.401 197.631 275.202 197.932 275.903C198.032 276.204 198.233 276.504 198.333 276.905C198.433 277.206 198.634 277.606 198.734 277.907C199.636 280.411 200.439 282.816 201.04 285.421C201.241 286.022 201.341 286.723 201.542 287.324C201.742 287.925 201.842 288.626 201.943 289.227C202.043 289.828 202.243 290.53 202.344 291.131C202.444 291.832 202.544 292.433 202.645 293.134C202.745 293.836 202.845 294.437 202.945 295.138C203.046 295.839 203.146 296.44 203.146 297.142C203.246 297.843 203.246 298.444 203.346 299.145C203.447 299.847 203.447 300.448 203.447 301.149H-16.75V300.949Z" fill="#3E97B0"/>
<path d="M203.547 300.949H86.3291V223.208H120.823C122.226 223.208 123.73 223.208 125.134 223.308C125.836 223.308 126.538 223.408 127.24 223.408C128.544 223.509 129.847 223.609 131.05 223.809C131.552 223.909 132.053 223.909 132.554 224.009C132.755 224.009 132.955 224.11 133.256 224.11C133.758 224.21 134.259 224.31 134.76 224.31C134.861 224.31 135.061 224.31 135.161 224.41C135.663 224.51 136.164 224.611 136.666 224.711C136.866 224.711 137.067 224.811 137.167 224.811C137.668 224.911 138.27 225.011 138.771 225.111C138.871 225.111 138.872 225.111 138.972 225.212C139.573 225.312 140.075 225.512 140.676 225.612C140.777 225.612 140.877 225.612 140.977 225.713C141.378 225.813 141.88 225.913 142.281 226.013C142.682 226.113 143.083 226.213 143.484 226.314C143.584 226.314 143.685 226.314 143.685 226.414C144.186 226.514 144.788 226.714 145.289 226.915C146.091 227.215 146.994 227.416 147.796 227.716C148.197 227.816 148.598 228.017 148.999 228.117C149.3 228.217 149.5 228.317 149.801 228.417C150.202 228.618 150.704 228.718 151.105 228.918C151.205 228.918 151.305 229.019 151.405 229.019C151.807 229.219 152.308 229.419 152.709 229.62C152.91 229.72 153.11 229.82 153.311 229.92C153.812 230.121 154.313 230.321 154.815 230.621C154.815 230.621 154.915 230.621 154.915 230.722C155.517 231.022 156.118 231.223 156.72 231.523C157.221 231.824 157.823 232.024 158.324 232.325C163.137 234.829 167.75 237.734 171.961 241.04C172.964 241.842 173.866 242.643 174.869 243.445C175.37 243.845 175.872 244.246 176.273 244.747C176.975 245.348 177.677 246.049 178.379 246.751C179.08 247.452 179.782 248.053 180.384 248.754C180.785 249.255 181.286 249.656 181.688 250.157C182.089 250.658 182.59 251.058 182.991 251.559C183.793 252.461 184.595 253.463 185.398 254.364C185.398 254.364 185.498 254.465 185.498 254.565C185.899 255.066 186.3 255.466 186.601 255.967C187.002 256.368 187.303 256.869 187.604 257.37C188.005 257.971 188.506 258.572 188.907 259.173C189.208 259.674 189.509 260.075 189.81 260.576C189.91 260.676 190.01 260.876 190.11 260.976C190.411 261.477 190.712 261.878 191.013 262.279C191.314 262.78 191.614 263.18 191.915 263.681C192.316 264.282 192.617 264.984 193.018 265.585C193.319 266.086 193.62 266.687 193.921 267.188C194.221 267.688 194.422 268.189 194.723 268.69C195.024 269.191 195.224 269.692 195.525 270.293V270.393C195.826 270.994 196.127 271.596 196.327 272.197C196.528 272.698 196.728 273.198 197.029 273.699C197.33 274.401 197.631 275.202 197.932 275.903C198.032 276.204 198.232 276.504 198.333 276.905C198.433 277.206 198.633 277.606 198.734 277.907C199.636 280.411 200.438 282.816 201.04 285.421C201.241 286.022 201.341 286.723 201.541 287.324C201.742 287.925 201.842 288.626 201.942 289.227C202.043 289.828 202.243 290.53 202.344 291.131C202.444 291.832 202.544 292.433 202.644 293.134C202.745 293.836 202.845 294.437 202.945 295.138C203.045 295.839 203.146 296.44 203.146 297.142C203.246 297.843 203.246 298.444 203.346 299.145C203.447 299.646 203.547 300.347 203.547 300.949Z" fill="#E06D1F"/>
<rect x="-4.25" y="153.357" width="24.5" height="197.5" transform="rotate(-90 -4.25 153.357)" fill="#E7ECF1" stroke="#3E97B0" stroke-width="1.5"/>
<rect x="82.75" y="219.857" width="24.5" height="67.5" fill="#E7ECF1" stroke="#3E97B0" stroke-width="1.5"/>
<rect x="82.751" y="54.8584" width="24.5" height="168.8" fill="#E7ECF1" stroke="#3E97B0" stroke-width="1.5"/>
<rect x="82.751" y="-5.1416" width="24.5" height="62.5" fill="#E7ECF1" stroke="#3E97B0" stroke-width="1.5"/>
</g>
</g>
<defs>
<clipPath id="clip0_1031_3636">
<rect width="188" height="280" fill="white" transform="translate(0 0.108398)"/>
</clipPath>
</defs>
</svg>
