<svg width="270" height="180" viewBox="0 0 270 180" fill="none" xmlns="http://www.w3.org/2000/svg">
<g clip-path="url(#clip0_684_3185)">
<path d="M268.507 16.7514L268.507 163.248C268.507 171.66 261.645 178.506 253.204 178.506L16.7965 178.506C8.35564 178.506 1.49414 171.66 1.49414 163.248L1.49413 16.7514C1.49413 8.33896 8.35563 1.49348 16.7965 1.49348L253.204 1.49347C261.645 1.49347 268.507 8.33895 268.507 16.7514Z" fill="white" stroke="#2B4554" stroke-width="1.5"/>
<path d="M258.099 23.0346L258.099 157.807C258.099 163.536 253.53 168.1 247.794 168.1L21.4627 168.1C15.7266 168.1 11.1572 163.536 11.1572 157.807L11.1572 22.9375C11.1572 17.2087 15.7266 12.6451 21.4627 12.6451L247.697 12.6451C253.433 12.7422 258.099 17.3058 258.099 23.0346Z" stroke="#2B4554" stroke-width="0.5669" stroke-miterlimit="10"/>
<path d="M39.4215 124.959L39.4215 176.281L27.0248 176.281C13.3232 176.281 2.23144 165.395 2.23144 151.947L2.23144 124.959L39.4215 124.959Z" fill="white"/>
<path d="M229.835 55.041L229.835 3.7187L241.984 3.7187C255.411 3.7187 266.281 14.6053 266.281 28.0534L266.281 55.041L229.835 55.041Z" fill="white"/>
<path d="M11.1104 153.655C15.8775 153.655 20.6447 153.655 25.4119 153.655C25.4119 153.752 25.4119 153.752 25.4119 153.849C25.4119 156.569 25.4119 159.289 25.4119 162.01C25.4119 164.827 23.3688 167.353 20.5474 167.838C20.2555 167.838 20.061 167.936 19.7691 167.936C18.7962 167.936 17.8233 167.936 16.9477 167.936C14.3209 167.936 11.986 165.993 11.4022 163.37C11.3049 162.981 11.3049 162.495 11.2076 162.107C11.2076 159.387 11.2076 156.666 11.2076 153.946C11.1104 153.752 11.1104 153.752 11.1104 153.655ZM15.5857 158.026C15.5857 158.124 15.5857 158.124 15.5857 158.124C15.5857 159.387 15.5857 160.649 15.5857 161.912C15.5857 162.787 16.2667 163.37 17.045 163.37C17.8233 163.37 18.6016 163.37 19.3799 163.37C20.2555 163.37 20.9366 162.69 20.9366 161.815C20.9366 160.552 20.9366 159.387 20.9366 158.124C20.9366 158.026 20.9366 158.026 20.9366 157.929C19.1854 158.026 17.3369 158.026 15.5857 158.026Z" fill="#4C7B96"/>
<path d="M11.1104 150.935C11.1104 150.837 11.1104 150.837 11.1104 150.74C11.1104 148.02 11.1104 145.203 11.1104 142.483C11.1104 140.054 12.5697 137.917 14.8073 137.042C15.4884 136.751 16.2667 136.654 16.9477 136.654C17.8233 136.654 18.6989 136.654 19.5745 136.654C22.3959 136.654 24.8281 138.597 25.3146 141.414C25.4119 141.803 25.4119 142.288 25.4119 142.677C25.4119 143.94 25.4119 145.106 25.4119 146.369C25.4119 146.466 25.4119 146.466 25.4119 146.563C27.2604 146.563 29.1088 146.563 30.9573 146.563C30.9573 148.02 30.9573 149.477 30.9573 150.935C24.439 150.935 17.8233 150.935 11.1104 150.935ZM21.1311 146.563L21.1311 146.466C21.1311 145.106 21.1311 143.843 21.1311 142.483C21.1311 141.608 20.4501 141.025 19.6718 141.025C18.7962 141.025 18.0179 141.025 17.1423 141.025C16.364 141.025 15.5857 141.608 15.5857 142.58C15.5857 143.843 15.5857 145.106 15.5857 146.369C15.5857 146.466 15.5857 146.466 15.5857 146.563C17.4341 146.563 19.2826 146.563 21.1311 146.563Z" fill="#4C7B96"/>
<path d="M258.225 26.585C253.458 26.585 248.691 26.585 243.924 26.585C243.924 26.4878 243.924 26.4878 243.924 26.3907C243.924 23.6705 243.924 20.9504 243.924 18.2302C243.924 15.4129 245.967 12.8871 248.788 12.4013C249.08 12.4013 249.275 12.3042 249.567 12.3042C250.539 12.3042 251.512 12.3042 252.388 12.3042C255.015 12.3042 257.35 14.2472 257.933 16.8702C258.031 17.2587 258.031 17.7445 258.128 18.1331C258.128 20.8532 258.128 23.5734 258.128 26.2935C258.225 26.4878 258.225 26.4878 258.225 26.585ZM253.75 22.2133C253.75 22.1162 253.75 22.1161 253.75 22.1161C253.75 20.8532 253.75 19.5903 253.75 18.3274C253.75 17.453 253.069 16.8702 252.291 16.8702C251.512 16.8702 250.734 16.8702 249.956 16.8702C249.08 16.8702 248.399 17.5502 248.399 18.4245C248.399 19.6874 248.399 20.8532 248.399 22.1161C248.399 22.2133 248.399 22.2133 248.399 22.3104C250.15 22.2133 251.999 22.2133 253.75 22.2133Z" fill="#4C7B96"/>
<path d="M258.225 29.3052C258.225 29.4023 258.225 29.4023 258.225 29.4995C258.225 32.2196 258.225 35.0369 258.225 37.7571C258.225 40.1858 256.766 42.323 254.528 43.1973C253.847 43.4888 253.069 43.5859 252.388 43.5859C251.512 43.5859 250.636 43.5859 249.761 43.5859C246.939 43.5859 244.507 41.643 244.021 38.8257C243.923 38.4371 243.923 37.9513 243.923 37.5627C243.923 36.2998 243.923 35.1341 243.923 33.8711C243.923 33.774 243.923 33.774 243.923 33.6768C242.075 33.6768 240.226 33.6768 238.378 33.6768C238.378 32.2196 238.378 30.7624 238.378 29.3052C244.896 29.3052 251.512 29.3052 258.225 29.3052ZM248.204 33.6768L248.204 33.774C248.204 35.1341 248.204 36.397 248.204 37.7571C248.204 38.6314 248.885 39.2143 249.663 39.2143C250.539 39.2143 251.317 39.2143 252.193 39.2143C252.971 39.2143 253.75 38.6314 253.75 37.6599C253.75 36.397 253.75 35.1341 253.75 33.8711C253.75 33.774 253.75 33.774 253.75 33.6768C251.901 33.6768 250.053 33.6768 248.204 33.6768Z" fill="#4C7B96"/>
<path d="M57.4659 52L55.7045 52C55.6004 51.4934 55.4181 51.0483 55.1577 50.6648C54.902 50.2813 54.5895 49.9593 54.2202 49.6989C53.8556 49.4337 53.4508 49.2348 53.0057 49.1023C52.5606 48.9697 52.0966 48.9034 51.6136 48.9034C50.733 48.9034 49.9351 49.1259 49.2202 49.571C48.5099 50.0161 47.9441 50.6719 47.5227 51.5384C47.1061 52.4048 46.8977 53.4678 46.8977 54.7273C46.8977 55.9867 47.1061 57.0497 47.5227 57.9162C47.9441 58.7827 48.5099 59.4384 49.2202 59.8835C49.9351 60.3286 50.733 60.5511 51.6136 60.5511C52.0966 60.5511 52.5606 60.4848 53.0057 60.3523C53.4508 60.2197 53.8556 60.0232 54.2202 59.7628C54.5895 59.4976 54.902 59.1733 55.1577 58.7898C55.4181 58.4015 55.6004 57.9564 55.7045 57.4545L57.4659 57.4545C57.3333 58.1979 57.0919 58.8632 56.7415 59.4503C56.3911 60.0374 55.9555 60.5369 55.4347 60.9489C54.9138 61.3561 54.3291 61.6662 53.6804 61.8793C53.0365 62.0923 52.3475 62.1989 51.6136 62.1989C50.3731 62.1989 49.2699 61.8958 48.304 61.2898C47.3381 60.6837 46.5781 59.822 46.0241 58.7045C45.4702 57.5871 45.1932 56.2614 45.1932 54.7273C45.1932 53.1932 45.4702 51.8674 46.0241 50.75C46.5781 49.6326 47.3381 48.7708 48.304 48.1648C49.2699 47.5587 50.3731 47.2557 51.6136 47.2557C52.3475 47.2557 53.0365 47.3622 53.6804 47.5753C54.3291 47.7884 54.9138 48.1009 55.4347 48.5128C55.9555 48.92 56.3911 49.4171 56.7415 50.0043C57.0919 50.5866 57.3333 51.2519 57.4659 52ZM63.6951 62.2557C63.0038 62.2557 62.3764 62.1255 61.813 61.8651C61.2495 61.5999 60.8021 61.2188 60.4707 60.7216C60.1392 60.2197 59.9735 59.6136 59.9735 58.9034C59.9735 58.2784 60.0966 57.7718 60.3428 57.3835C60.589 56.9905 60.9181 56.6828 61.33 56.4602C61.742 56.2377 62.1965 56.072 62.6937 55.9631C63.1956 55.8494 63.6998 55.7595 64.2065 55.6932C64.8693 55.608 65.4067 55.544 65.8187 55.5014C66.2353 55.4541 66.5384 55.3759 66.7278 55.267C66.9219 55.1581 67.019 54.9688 67.019 54.6989L67.019 54.642C67.019 53.9413 66.8272 53.3968 66.4437 53.0085C66.0649 52.6203 65.4896 52.4261 64.7178 52.4261C63.9176 52.4261 63.2903 52.6013 62.8357 52.9517C62.3812 53.3021 62.0616 53.6761 61.8769 54.0739L60.286 53.5057C60.5701 52.8428 60.9489 52.3267 61.4224 51.9574C61.9006 51.5833 62.4214 51.3229 62.9849 51.1761C63.5531 51.0246 64.1118 50.9489 64.661 50.9489C65.0114 50.9489 65.4138 50.9915 65.8684 51.0767C66.3277 51.1572 66.7704 51.3253 67.1965 51.581C67.6274 51.8366 67.9849 52.2225 68.269 52.7386C68.5531 53.2547 68.6951 53.946 68.6951 54.8125L68.6951 62L67.019 62L67.019 60.5227L66.9337 60.5227C66.8201 60.7595 66.6307 61.0128 66.3656 61.2827C66.1004 61.5526 65.7477 61.7822 65.3073 61.9716C64.867 62.161 64.3296 62.2557 63.6951 62.2557ZM63.9508 60.75C64.6137 60.75 65.1724 60.6198 65.6269 60.3594C66.0862 60.099 66.4318 59.7628 66.6638 59.3509C66.9006 58.9389 67.019 58.5057 67.019 58.0511L67.019 56.517C66.9479 56.6023 66.7917 56.6804 66.5502 56.7514C66.3135 56.8177 66.0388 56.8769 65.7263 56.929C65.4186 56.9763 65.1179 57.0189 64.8244 57.0568C64.5355 57.09 64.3012 57.1184 64.1212 57.142C63.6856 57.1989 63.2784 57.2912 62.8996 57.419C62.5256 57.5421 62.2226 57.7292 61.9906 57.9801C61.7633 58.2263 61.6496 58.5625 61.6496 58.9886C61.6496 59.571 61.8651 60.0114 62.2959 60.3097C62.7316 60.6032 63.2832 60.75 63.9508 60.75ZM79.4555 55.7784L79.4555 57.3409L73.4328 57.3409L73.4328 55.7784L79.4555 55.7784ZM73.8305 51.0909L73.8305 62L72.1544 62L72.1544 51.0909L73.8305 51.0909ZM80.7339 51.0909L80.7339 62L79.0578 62L79.0578 51.0909L80.7339 51.0909ZM92.6041 51.0909L92.6041 62L90.928 62L90.928 51.0909L92.6041 51.0909ZM91.9507 56.2898L91.9507 57.8523C91.5719 57.9943 91.1955 58.1198 90.8214 58.2287C90.4474 58.3329 90.0544 58.4157 89.6425 58.4773C89.2305 58.5341 88.7784 58.5625 88.2859 58.5625C87.0501 58.5625 86.0582 58.2287 85.3101 57.5611C84.5667 56.8935 84.195 55.892 84.195 54.5568L84.195 51.0625L85.8712 51.0625L85.8712 54.5568C85.8712 55.1155 85.9777 55.5748 86.1908 55.9347C86.4038 56.2945 86.6927 56.562 87.0572 56.7372C87.4218 56.9124 87.8314 57 88.2859 57C88.9962 57 89.6377 56.9361 90.2107 56.8082C90.7883 56.6757 91.3683 56.5028 91.9507 56.2898ZM99.2896 62.2557C98.5983 62.2557 97.971 62.1255 97.4075 61.8651C96.8441 61.5999 96.3966 61.2188 96.0652 60.7216C95.7338 60.2197 95.568 59.6136 95.568 58.9034C95.568 58.2784 95.6911 57.7718 95.9374 57.3835C96.1836 56.9905 96.5126 56.6828 96.9246 56.4602C97.3365 56.2377 97.791 56.072 98.2882 55.9631C98.7901 55.8494 99.2944 55.7595 99.801 55.6932C100.464 55.608 101.001 55.544 101.413 55.5014C101.83 55.4541 102.133 55.3759 102.322 55.267C102.516 55.1581 102.613 54.9688 102.613 54.6989L102.613 54.642C102.613 53.9413 102.422 53.3968 102.038 53.0085C101.659 52.6203 101.084 52.4261 100.312 52.4261C99.5122 52.4261 98.8848 52.6013 98.4303 52.9517C97.9757 53.3021 97.6561 53.6761 97.4714 54.0739L95.8805 53.5057C96.1646 52.8428 96.5434 52.3267 97.0169 51.9574C97.4951 51.5833 98.016 51.3229 98.5794 51.1761C99.1476 51.0246 99.7063 50.9489 100.256 50.9489C100.606 50.9489 101.008 50.9915 101.463 51.0767C101.922 51.1572 102.365 51.3253 102.791 51.581C103.222 51.8367 103.579 52.2225 103.863 52.7386C104.148 53.2547 104.29 53.946 104.29 54.8125L104.29 62L102.613 62L102.613 60.5227L102.528 60.5227C102.415 60.7595 102.225 61.0128 101.96 61.2827C101.695 61.5526 101.342 61.7822 100.902 61.9716C100.462 62.161 99.9241 62.2557 99.2896 62.2557ZM99.5453 60.75C100.208 60.75 100.767 60.6198 101.221 60.3594C101.681 60.099 102.026 59.7628 102.258 59.3509C102.495 58.9389 102.613 58.5057 102.613 58.0511L102.613 56.517C102.542 56.6023 102.386 56.6804 102.145 56.7514C101.908 56.8177 101.633 56.8769 101.321 56.929C101.013 56.9763 100.712 57.0189 100.419 57.0568C100.13 57.09 99.8957 57.1184 99.7158 57.142C99.2802 57.1989 98.873 57.2912 98.4942 57.419C98.1201 57.5421 97.8171 57.7292 97.5851 57.9801C97.3578 58.2263 97.2442 58.5625 97.2442 58.9886C97.2442 59.571 97.4596 60.0114 97.8905 60.3097C98.3261 60.6032 98.8777 60.75 99.5453 60.75ZM110.959 62.2557C110.268 62.2557 109.641 62.1255 109.077 61.8651C108.514 61.5999 108.066 61.2188 107.735 60.7216C107.403 60.2197 107.238 59.6136 107.238 58.9034C107.238 58.2784 107.361 57.7718 107.607 57.3835C107.853 56.9905 108.182 56.6828 108.594 56.4602C109.006 56.2377 109.461 56.072 109.958 55.9631C110.46 55.8494 110.964 55.7595 111.471 55.6932C112.133 55.608 112.671 55.544 113.083 55.5014C113.499 55.4541 113.802 55.376 113.992 55.267C114.186 55.1581 114.283 54.9688 114.283 54.6989L114.283 54.642C114.283 53.9413 114.091 53.3968 113.708 53.0085C113.329 52.6203 112.754 52.4261 111.982 52.4261C111.182 52.4261 110.554 52.6013 110.1 52.9517C109.645 53.3021 109.326 53.6761 109.141 54.0739L107.55 53.5057C107.834 52.8428 108.213 52.3267 108.686 51.9574C109.165 51.5833 109.685 51.3229 110.249 51.1761C110.817 51.0246 111.376 50.9489 111.925 50.9489C112.275 50.9489 112.678 50.9915 113.132 51.0767C113.592 51.1572 114.034 51.3253 114.461 51.581C114.891 51.8367 115.249 52.2225 115.533 52.7386C115.817 53.2547 115.959 53.946 115.959 54.8125L115.959 62L114.283 62L114.283 60.5227L114.198 60.5227C114.084 60.7595 113.895 61.0128 113.63 61.2827C113.364 61.5526 113.012 61.7822 112.571 61.9716C112.131 62.161 111.594 62.2557 110.959 62.2557ZM111.215 60.75C111.878 60.75 112.436 60.6198 112.891 60.3594C113.35 60.099 113.696 59.7628 113.928 59.3509C114.165 58.9389 114.283 58.5057 114.283 58.0511L114.283 56.517C114.212 56.6023 114.056 56.6804 113.814 56.7514C113.578 56.8177 113.303 56.8769 112.99 56.929C112.683 56.9763 112.382 57.0189 112.088 57.0568C111.8 57.09 111.565 57.1184 111.385 57.142C110.95 57.1989 110.542 57.2912 110.164 57.419C109.79 57.5421 109.487 57.7292 109.255 57.9801C109.027 58.2263 108.914 58.5625 108.914 58.9886C108.914 59.571 109.129 60.0114 109.56 60.3097C109.996 60.6032 110.547 60.75 111.215 60.75ZM126.267 62L124.421 62L129.762 47.4545L131.58 47.4545L136.921 62L135.074 62L130.728 49.7557L130.614 49.7557L126.267 62ZM126.949 56.3182L134.392 56.3182L134.392 57.8807L126.949 57.8807L126.949 56.3182ZM141.035 59.5284L146.291 51.0909L148.223 51.0909L148.223 62L146.547 62L146.547 53.5625L141.319 62L139.359 62L139.359 51.0909L141.035 51.0909L141.035 59.5284ZM145.183 47.4546L146.745 47.4546C146.745 48.2216 146.48 48.849 145.95 49.3367C145.42 49.8243 144.7 50.0682 143.791 50.0682C142.896 50.0682 142.183 49.8243 141.653 49.3367C141.128 48.849 140.865 48.2216 140.865 47.4546L142.427 47.4546C142.427 47.8239 142.529 48.1482 142.733 48.4276C142.941 48.7069 143.294 48.8466 143.791 48.8466C144.288 48.8466 144.643 48.7069 144.856 48.4276C145.074 48.1482 145.183 47.8239 145.183 47.4546ZM150.528 65.125L150.528 60.4375L151.437 60.4375C151.66 60.2055 151.851 59.9546 152.012 59.6847C152.173 59.4148 152.313 59.0952 152.431 58.7259C152.554 58.3518 152.659 57.8973 152.744 57.3622C152.829 56.8224 152.905 56.1714 152.971 55.4091L153.34 51.0909L160.272 51.0909L160.272 60.4375L161.948 60.4375L161.948 65.125L160.272 65.125L160.272 62L152.204 62L152.204 65.125L150.528 65.125ZM153.34 60.4375L158.596 60.4375L158.596 52.6534L154.903 52.6534L154.619 55.4091C154.5 56.5502 154.354 57.5469 154.178 58.3992C154.003 59.2514 153.724 59.9309 153.34 60.4375ZM166.249 59.5284L171.505 51.0909L173.437 51.0909L173.437 62L171.761 62L171.761 53.5625L166.533 62L164.573 62L164.573 51.0909L166.249 51.0909L166.249 59.5284ZM181.339 62.2273C180.316 62.2273 179.435 61.9858 178.697 61.5028C177.958 61.0199 177.39 60.3546 176.992 59.5071C176.594 58.6596 176.395 57.6913 176.395 56.6023C176.395 55.4943 176.599 54.5166 177.006 53.669C177.418 52.8168 177.991 52.1515 178.725 51.6733C179.464 51.1903 180.325 50.9489 181.31 50.9489C182.077 50.9489 182.768 51.0909 183.384 51.375C184 51.6591 184.504 52.0568 184.897 52.5682C185.29 53.0796 185.534 53.6761 185.628 54.358L183.952 54.358C183.824 53.8608 183.54 53.4205 183.1 53.0369C182.664 52.6487 182.077 52.4546 181.339 52.4546C180.685 52.4546 180.112 52.625 179.62 52.9659C179.132 53.3021 178.751 53.7779 178.476 54.3935C178.206 55.0043 178.072 55.7216 178.072 56.5455C178.072 57.3883 178.204 58.1222 178.469 58.7472C178.739 59.3722 179.118 59.8575 179.606 60.2031C180.098 60.5488 180.676 60.7216 181.339 60.7216C181.774 60.7216 182.17 60.6458 182.525 60.4943C182.88 60.3428 183.18 60.125 183.427 59.8409C183.673 59.5568 183.848 59.2159 183.952 58.8182L185.628 58.8182C185.534 59.4621 185.299 60.0421 184.925 60.5582C184.556 61.0696 184.066 61.4768 183.455 61.7798C182.849 62.0781 182.143 62.2273 181.339 62.2273ZM191.689 62.2557C190.998 62.2557 190.37 62.1255 189.807 61.8651C189.243 61.5999 188.796 61.2188 188.464 60.7216C188.133 60.2197 187.967 59.6136 187.967 58.9034C187.967 58.2784 188.09 57.7718 188.337 57.3835C188.583 56.9905 188.912 56.6828 189.324 56.4602C189.736 56.2377 190.19 56.072 190.687 55.9631C191.189 55.8494 191.694 55.7595 192.2 55.6932C192.863 55.608 193.4 55.544 193.812 55.5014C194.229 55.4541 194.532 55.376 194.722 55.2671C194.916 55.1582 195.013 54.9688 195.013 54.6989L195.013 54.6421C195.013 53.9413 194.821 53.3968 194.437 53.0085C194.059 52.6203 193.483 52.4261 192.712 52.4261C191.911 52.4261 191.284 52.6013 190.829 52.9517C190.375 53.3021 190.055 53.6761 189.871 54.0739L188.28 53.5057C188.564 52.8428 188.943 52.3267 189.416 51.9574C189.894 51.5833 190.415 51.3229 190.979 51.1761C191.547 51.0246 192.106 50.9489 192.655 50.9489C193.005 50.9489 193.408 50.9915 193.862 51.0767C194.321 51.1572 194.764 51.3253 195.19 51.581C195.621 51.8367 195.979 52.2225 196.263 52.7386C196.547 53.2547 196.689 53.946 196.689 54.8125L196.689 62L195.013 62L195.013 60.5227L194.927 60.5227C194.814 60.7595 194.624 61.0128 194.359 61.2827C194.094 61.5526 193.741 61.7822 193.301 61.9716C192.861 62.161 192.323 62.2557 191.689 62.2557ZM191.945 60.75C192.607 60.75 193.166 60.6198 193.621 60.3594C194.08 60.099 194.426 59.7628 194.658 59.3509C194.894 58.9389 195.013 58.5057 195.013 58.0511L195.013 56.5171C194.942 56.6023 194.785 56.6804 194.544 56.7514C194.307 56.8177 194.033 56.8769 193.72 56.929C193.412 56.9763 193.112 57.0189 192.818 57.0568C192.529 57.09 192.295 57.1184 192.115 57.1421C191.679 57.1989 191.272 57.2912 190.893 57.419C190.519 57.5421 190.216 57.7292 189.984 57.9801C189.757 58.2263 189.643 58.5625 189.643 58.9886C189.643 59.571 189.859 60.0114 190.29 60.3097C190.725 60.6032 191.277 60.75 191.945 60.75Z" fill="#2B4554"/>
<path d="M44 96L224 96" stroke="#2B4554" stroke-width="1.8" stroke-linecap="round"/>
<path d="M53.0455 111.364L54.4545 111.364L54.4545 119.068C54.4545 119.864 54.267 120.574 53.892 121.199C53.5208 121.82 52.9962 122.311 52.3182 122.67C51.6402 123.027 50.8447 123.205 49.9318 123.205C49.0189 123.205 48.2235 123.027 47.5455 122.67C46.8674 122.311 46.3409 121.82 45.9659 121.199C45.5947 120.574 45.4091 119.864 45.4091 119.068L45.4091 111.364L46.8182 111.364L46.8182 118.955C46.8182 119.523 46.9432 120.028 47.1932 120.472C47.4432 120.911 47.7992 121.258 48.2614 121.511C48.7273 121.761 49.2841 121.886 49.9318 121.886C50.5795 121.886 51.1364 121.761 51.6023 121.511C52.0682 121.258 52.4242 120.911 52.6705 120.472C52.9205 120.028 53.0455 119.523 53.0455 118.955L53.0455 111.364ZM57.9503 111.364L60.9503 116.205L61.0412 116.205L64.0412 111.364L65.7003 111.364L62.0412 117.182L65.7003 123L64.0412 123L61.0412 118.25L60.9503 118.25L57.9503 123L56.2912 123L60.0412 117.182L56.2912 111.364L57.9503 111.364ZM71.4659 110.818L67.7159 124.75L66.4886 124.75L70.2386 110.818L71.4659 110.818ZM80.8736 111.364L82.2827 111.364L82.2827 119.068C82.2827 119.864 82.0952 120.574 81.7202 121.199C81.349 121.82 80.8243 122.311 80.1463 122.67C79.4683 123.027 78.6728 123.205 77.7599 123.205C76.8471 123.205 76.0516 123.027 75.3736 122.67C74.6955 122.311 74.169 121.82 73.794 121.199C73.4228 120.574 73.2372 119.864 73.2372 119.068L73.2372 111.364L74.6463 111.364L74.6463 118.955C74.6463 119.523 74.7713 120.028 75.0213 120.472C75.2713 120.911 75.6274 121.258 76.0895 121.511C76.5554 121.761 77.1122 121.886 77.7599 121.886C78.4077 121.886 78.9645 121.761 79.4304 121.511C79.8963 121.258 80.2524 120.911 80.4986 120.472C80.7486 120.028 80.8736 119.523 80.8736 118.955L80.8736 111.364ZM86.5057 111.364L86.5057 123L85.0966 123L85.0966 111.364L86.5057 111.364ZM94.1491 116.557L94.1491 117.807L89.0582 117.807L89.0582 116.557L94.1491 116.557ZM95.5767 125.5L95.5767 121.75L96.304 121.75C96.482 121.564 96.6354 121.364 96.7642 121.148C96.893 120.932 97.0047 120.676 97.0994 120.381C97.1979 120.081 97.2812 119.718 97.3494 119.29C97.4176 118.858 97.4782 118.337 97.5312 117.727L97.8267 114.273L103.372 114.273L103.372 121.75L104.713 121.75L104.713 125.5L103.372 125.5L103.372 123L96.9176 123L96.9176 125.5L95.5767 125.5ZM97.8267 121.75L102.031 121.75L102.031 115.523L99.0767 115.523L98.8494 117.727C98.7547 118.64 98.6373 119.438 98.4972 120.119C98.357 120.801 98.1335 121.345 97.8267 121.75ZM107.834 121.023L112.038 114.273L113.584 114.273L113.584 123L112.243 123L112.243 116.25L108.061 123L106.493 123L106.493 114.273L107.834 114.273L107.834 121.023ZM115.494 120.773L116.926 120.773C116.956 121.167 117.134 121.466 117.46 121.67C117.79 121.875 118.218 121.977 118.744 121.977C119.282 121.977 119.742 121.867 120.125 121.648C120.508 121.424 120.699 121.064 120.699 120.568C120.699 120.277 120.627 120.023 120.483 119.807C120.339 119.587 120.136 119.417 119.875 119.295C119.614 119.174 119.305 119.114 118.949 119.114L117.449 119.114L117.449 117.909L118.949 117.909C119.483 117.909 119.877 117.788 120.131 117.545C120.388 117.303 120.517 117 120.517 116.636C120.517 116.246 120.379 115.934 120.102 115.699C119.826 115.46 119.434 115.341 118.926 115.341C118.415 115.341 117.989 115.456 117.648 115.688C117.307 115.915 117.127 116.208 117.108 116.568L115.699 116.568C115.714 116.098 115.858 115.684 116.131 115.324C116.403 114.96 116.775 114.676 117.244 114.472C117.714 114.263 118.252 114.159 118.858 114.159C119.472 114.159 120.004 114.267 120.455 114.483C120.909 114.695 121.259 114.985 121.506 115.352C121.756 115.716 121.881 116.129 121.881 116.591C121.881 117.083 121.742 117.481 121.466 117.784C121.189 118.087 120.843 118.303 120.426 118.432L120.426 118.523C120.756 118.545 121.042 118.652 121.284 118.841C121.53 119.027 121.722 119.271 121.858 119.574C121.994 119.873 122.062 120.205 122.062 120.568C122.062 121.098 121.92 121.561 121.636 121.955C121.352 122.345 120.962 122.648 120.466 122.864C119.97 123.076 119.403 123.182 118.767 123.182C118.15 123.182 117.597 123.081 117.108 122.881C116.619 122.676 116.231 122.394 115.943 122.034C115.659 121.67 115.509 121.25 115.494 120.773ZM126.514 123.205C125.961 123.205 125.459 123.1 125.009 122.892C124.558 122.68 124.2 122.375 123.935 121.977C123.67 121.576 123.537 121.091 123.537 120.523C123.537 120.023 123.635 119.617 123.832 119.307C124.029 118.992 124.293 118.746 124.622 118.568C124.952 118.39 125.315 118.258 125.713 118.17C126.115 118.08 126.518 118.008 126.923 117.955C127.454 117.886 127.884 117.835 128.213 117.801C128.546 117.763 128.789 117.701 128.94 117.614C129.096 117.527 129.173 117.375 129.173 117.159L129.173 117.114C129.173 116.553 129.02 116.117 128.713 115.807C128.41 115.496 127.95 115.341 127.332 115.341C126.692 115.341 126.19 115.481 125.827 115.761C125.463 116.042 125.207 116.341 125.06 116.659L123.787 116.205C124.014 115.674 124.317 115.261 124.696 114.966C125.079 114.667 125.495 114.458 125.946 114.341C126.401 114.22 126.848 114.159 127.287 114.159C127.567 114.159 127.889 114.193 128.253 114.261C128.62 114.326 128.974 114.46 129.315 114.665C129.66 114.869 129.946 115.178 130.173 115.591C130.401 116.004 130.514 116.557 130.514 117.25L130.514 123L129.173 123L129.173 121.818L129.105 121.818C129.014 122.008 128.863 122.21 128.651 122.426C128.438 122.642 128.156 122.826 127.804 122.977C127.452 123.129 127.022 123.205 126.514 123.205ZM126.719 122C127.249 122 127.696 121.896 128.06 121.688C128.427 121.479 128.704 121.21 128.889 120.881C129.079 120.551 129.173 120.205 129.173 119.841L129.173 118.614C129.116 118.682 128.991 118.744 128.798 118.801C128.609 118.854 128.389 118.902 128.139 118.943C127.893 118.981 127.652 119.015 127.418 119.045C127.187 119.072 126.999 119.095 126.855 119.114C126.507 119.159 126.181 119.233 125.878 119.335C125.579 119.434 125.336 119.583 125.151 119.784C124.969 119.981 124.878 120.25 124.878 120.591C124.878 121.057 125.05 121.409 125.395 121.648C125.743 121.883 126.185 122 126.719 122ZM134.303 121.023L138.507 114.273L140.053 114.273L140.053 123L138.712 123L138.712 116.25L134.53 123L132.962 123L132.962 114.273L134.303 114.273L134.303 121.023ZM137.621 111.364L138.871 111.364C138.871 111.977 138.659 112.479 138.234 112.869C137.81 113.259 137.234 113.455 136.507 113.455C135.791 113.455 135.221 113.259 134.797 112.869C134.376 112.479 134.166 111.977 134.166 111.364L135.416 111.364C135.416 111.659 135.498 111.919 135.661 112.142C135.827 112.366 136.109 112.477 136.507 112.477C136.905 112.477 137.189 112.366 137.359 112.142C137.534 111.919 137.621 111.659 137.621 111.364ZM148.349 118.023L148.349 119.273L143.531 119.273L143.531 118.023L148.349 118.023ZM143.849 114.273L143.849 123L142.509 123L142.509 114.273L143.849 114.273ZM149.372 114.273L149.372 123L148.031 123L148.031 114.273L149.372 114.273ZM155.48 123.182C154.639 123.182 153.914 122.996 153.304 122.625C152.698 122.25 152.23 121.727 151.901 121.057C151.575 120.383 151.412 119.598 151.412 118.705C151.412 117.811 151.575 117.023 151.901 116.341C152.23 115.655 152.688 115.121 153.276 114.739C153.866 114.352 154.556 114.159 155.344 114.159C155.798 114.159 156.247 114.235 156.69 114.386C157.134 114.538 157.537 114.784 157.901 115.125C158.264 115.462 158.554 115.909 158.77 116.466C158.986 117.023 159.094 117.708 159.094 118.523L159.094 119.091L152.366 119.091L152.366 117.932L157.73 117.932C157.73 117.439 157.632 117 157.435 116.614C157.241 116.227 156.965 115.922 156.605 115.699C156.249 115.475 155.829 115.364 155.344 115.364C154.81 115.364 154.348 115.496 153.957 115.761C153.571 116.023 153.274 116.364 153.065 116.784C152.857 117.205 152.753 117.655 152.753 118.136L152.753 118.909C152.753 119.568 152.866 120.127 153.094 120.585C153.325 121.04 153.645 121.386 154.054 121.625C154.463 121.86 154.938 121.977 155.48 121.977C155.832 121.977 156.151 121.928 156.435 121.83C156.723 121.727 156.971 121.576 157.179 121.375C157.387 121.17 157.548 120.917 157.662 120.614L158.957 120.977C158.821 121.417 158.592 121.803 158.27 122.136C157.948 122.466 157.55 122.723 157.077 122.909C156.603 123.091 156.071 123.182 155.48 123.182ZM161.134 126.273L161.134 114.273L162.429 114.273L162.429 115.659L162.588 115.659C162.687 115.508 162.823 115.314 162.997 115.08C163.175 114.841 163.429 114.629 163.759 114.443C164.092 114.254 164.543 114.159 165.111 114.159C165.846 114.159 166.493 114.343 167.054 114.71C167.615 115.078 168.052 115.598 168.366 116.273C168.681 116.947 168.838 117.742 168.838 118.659C168.838 119.583 168.681 120.384 168.366 121.063C168.052 121.737 167.616 122.259 167.06 122.631C166.503 122.998 165.861 123.182 165.134 123.182C164.573 123.182 164.124 123.089 163.787 122.903C163.45 122.714 163.19 122.5 163.009 122.261C162.827 122.019 162.687 121.818 162.588 121.659L162.474 121.659L162.474 126.273L161.134 126.273ZM162.452 118.636C162.452 119.295 162.548 119.877 162.741 120.381C162.935 120.881 163.217 121.273 163.588 121.557C163.959 121.837 164.414 121.977 164.952 121.977C165.512 121.977 165.98 121.83 166.355 121.534C166.734 121.235 167.018 120.833 167.207 120.33C167.401 119.822 167.497 119.258 167.497 118.636C167.497 118.023 167.402 117.47 167.213 116.977C167.027 116.481 166.745 116.089 166.366 115.801C165.991 115.509 165.52 115.364 164.952 115.364C164.406 115.364 163.948 115.502 163.577 115.778C163.205 116.051 162.925 116.434 162.736 116.926C162.546 117.415 162.452 117.985 162.452 118.636Z" fill="#2B4554"/>
<path d="M44.8693 137.315L44.8693 135.909L54.6875 135.909L54.6875 137.315L50.571 137.315L50.571 149L48.9858 149L48.9858 137.315L44.8693 137.315ZM59.6222 149.205C58.6761 149.205 57.8601 148.996 57.174 148.578C56.4922 148.156 55.9659 147.568 55.5952 146.814C55.2287 146.055 55.0455 145.173 55.0455 144.168C55.0455 143.162 55.2287 142.276 55.5952 141.509C55.9659 140.737 56.4815 140.136 57.142 139.706C57.8068 139.271 58.5824 139.054 59.4687 139.054C59.9801 139.054 60.4851 139.139 60.9837 139.31C61.4822 139.48 61.9361 139.757 62.3452 140.141C62.7543 140.52 63.0803 141.023 63.3232 141.649C63.5661 142.276 63.6875 143.047 63.6875 143.963L63.6875 144.602L56.1193 144.602L56.1193 143.298L62.1534 143.298C62.1534 142.744 62.0426 142.25 61.821 141.815C61.6037 141.381 61.2926 141.038 60.8878 140.786C60.4872 140.535 60.0142 140.409 59.4687 140.409C58.8679 140.409 58.348 140.558 57.9091 140.857C57.4744 141.151 57.1399 141.534 56.9055 142.007C56.6712 142.48 56.554 142.987 56.554 143.528L56.554 144.398C56.554 145.139 56.6818 145.768 56.9375 146.283C57.1974 146.795 57.5575 147.185 58.0178 147.453C58.478 147.717 59.0128 147.849 59.6222 147.849C60.0185 147.849 60.3764 147.794 60.696 147.683C61.0199 147.568 61.299 147.398 61.5334 147.172C61.7678 146.942 61.9489 146.656 62.0767 146.315L63.5341 146.724C63.3807 147.219 63.1229 147.653 62.7607 148.028C62.3984 148.399 61.951 148.689 61.4183 148.898C60.8857 149.102 60.2869 149.205 59.6222 149.205ZM68.8714 149.23C68.2493 149.23 67.6847 149.113 67.1776 148.879C66.6705 148.64 66.2678 148.297 65.9695 147.849C65.6712 147.398 65.522 146.852 65.522 146.213C65.522 145.651 65.6328 145.195 65.8544 144.845C66.076 144.491 66.3722 144.214 66.7429 144.014C67.1136 143.814 67.5227 143.665 67.9702 143.567C68.4219 143.464 68.8757 143.384 69.3317 143.324C69.9283 143.247 70.4119 143.19 70.7827 143.151C71.1577 143.109 71.4304 143.038 71.6009 142.94C71.7756 142.842 71.8629 142.672 71.8629 142.429L71.8629 142.378C71.8629 141.747 71.6903 141.257 71.3452 140.908C71.0043 140.558 70.4865 140.384 69.7919 140.384C69.0717 140.384 68.5071 140.541 68.098 140.857C67.6889 141.172 67.4013 141.509 67.2351 141.866L65.8033 141.355C66.0589 140.759 66.3999 140.294 66.826 139.962C67.2564 139.625 67.7251 139.391 68.2322 139.259C68.7436 139.122 69.2464 139.054 69.7408 139.054C70.0561 139.054 70.4183 139.092 70.8274 139.169C71.2408 139.241 71.6392 139.393 72.0227 139.623C72.4105 139.853 72.7322 140.2 72.9879 140.665C73.2436 141.129 73.3714 141.751 73.3714 142.531L73.3714 149L71.8629 149L71.8629 147.67L71.7862 147.67C71.6839 147.884 71.5135 148.112 71.2749 148.354C71.0362 148.597 70.7187 148.804 70.3224 148.974C69.9261 149.145 69.4425 149.23 68.8714 149.23ZM69.1016 147.875C69.6982 147.875 70.201 147.758 70.6101 147.523C71.0234 147.289 71.3345 146.987 71.5433 146.616C71.7564 146.245 71.8629 145.855 71.8629 145.446L71.8629 144.065C71.799 144.142 71.6584 144.212 71.4411 144.276C71.228 144.336 70.9808 144.389 70.6996 144.436C70.4226 144.479 70.152 144.517 69.8878 144.551C69.6278 144.581 69.4169 144.607 69.255 144.628C68.8629 144.679 68.4964 144.762 68.1555 144.877C67.8189 144.988 67.5462 145.156 67.3374 145.382C67.1328 145.604 67.0305 145.906 67.0305 146.29C67.0305 146.814 67.2244 147.21 67.6122 147.479C68.0043 147.743 68.5007 147.875 69.1016 147.875ZM76.1248 149L76.1248 139.182L77.5822 139.182L77.5822 140.716L77.71 140.716C77.9146 140.192 78.2449 139.785 78.7008 139.495C79.1568 139.201 79.7044 139.054 80.3436 139.054C80.9913 139.054 81.5304 139.201 81.9608 139.495C82.3954 139.785 82.7342 140.192 82.9771 140.716L83.0794 140.716C83.3308 140.209 83.7079 139.806 84.2108 139.508C84.7136 139.205 85.3166 139.054 86.0197 139.054C86.8975 139.054 87.6156 139.329 88.1738 139.879C88.7321 140.424 89.0112 141.274 89.0112 142.429L89.0112 149L87.5027 149L87.5027 142.429C87.5027 141.705 87.3045 141.187 86.9082 140.876C86.5119 140.565 86.0453 140.409 85.5083 140.409C84.818 140.409 84.2832 140.618 83.9039 141.036C83.5247 141.449 83.335 141.973 83.335 142.608L83.335 149L81.801 149L81.801 142.276C81.801 141.717 81.6199 141.268 81.2576 140.927C80.8954 140.582 80.4288 140.409 79.8578 140.409C79.4657 140.409 79.0993 140.513 78.7583 140.722C78.4217 140.931 78.149 141.221 77.9402 141.592C77.7356 141.958 77.6333 142.382 77.6333 142.864L77.6333 149L76.1248 149ZM98.3404 135.909L98.3404 149L96.8319 149L96.8319 135.909L98.3404 135.909ZM105.22 149.205C104.274 149.205 103.458 148.996 102.772 148.578C102.09 148.156 101.564 147.568 101.193 146.814C100.826 146.055 100.643 145.173 100.643 144.168C100.643 143.162 100.826 142.276 101.193 141.509C101.564 140.737 102.079 140.136 102.74 139.706C103.404 139.271 104.18 139.054 105.066 139.054C105.578 139.054 106.083 139.139 106.581 139.31C107.08 139.48 107.534 139.757 107.943 140.141C108.352 140.52 108.678 141.023 108.921 141.649C109.164 142.276 109.285 143.047 109.285 143.963L109.285 144.602L101.717 144.602L101.717 143.298L107.751 143.298C107.751 142.744 107.64 142.25 107.419 141.815C107.201 141.381 106.89 141.038 106.485 140.786C106.085 140.535 105.612 140.409 105.066 140.409C104.466 140.409 103.946 140.558 103.507 140.857C103.072 141.151 102.738 141.534 102.503 142.007C102.269 142.48 102.152 142.987 102.152 143.528L102.152 144.398C102.152 145.139 102.279 145.768 102.535 146.283C102.795 146.795 103.155 147.185 103.615 147.453C104.076 147.717 104.61 147.849 105.22 147.849C105.616 147.849 105.974 147.794 106.294 147.683C106.618 147.568 106.897 147.398 107.131 147.172C107.365 146.942 107.547 146.656 107.674 146.315L109.132 146.724C108.978 147.219 108.721 147.653 108.358 148.028C107.996 148.399 107.549 148.689 107.016 148.898C106.483 149.102 105.885 149.205 105.22 149.205ZM114.469 149.23C113.847 149.23 113.282 149.113 112.775 148.879C112.268 148.64 111.865 148.297 111.567 147.849C111.269 147.398 111.12 146.852 111.12 146.213C111.12 145.651 111.23 145.195 111.452 144.845C111.674 144.491 111.97 144.214 112.341 144.014C112.711 143.814 113.12 143.665 113.568 143.567C114.02 143.464 114.473 143.384 114.929 143.324C115.526 143.247 116.01 143.19 116.38 143.151C116.755 143.109 117.028 143.038 117.199 142.94C117.373 142.842 117.461 142.672 117.461 142.429L117.461 142.378C117.461 141.747 117.288 141.257 116.943 140.908C116.602 140.558 116.084 140.384 115.39 140.384C114.669 140.384 114.105 140.541 113.696 140.857C113.287 141.172 112.999 141.509 112.833 141.866L111.401 141.355C111.657 140.759 111.998 140.294 112.424 139.962C112.854 139.625 113.323 139.391 113.83 139.259C114.341 139.122 114.844 139.054 115.338 139.054C115.654 139.054 116.016 139.092 116.425 139.169C116.838 139.241 117.237 139.393 117.62 139.623C118.008 139.853 118.33 140.2 118.586 140.665C118.841 141.129 118.969 141.751 118.969 142.531L118.969 149L117.461 149L117.461 147.67L117.384 147.67C117.282 147.884 117.111 148.112 116.873 148.354C116.634 148.597 116.316 148.804 115.92 148.974C115.524 149.145 115.04 149.23 114.469 149.23ZM114.699 147.875C115.296 147.875 115.799 147.758 116.208 147.523C116.621 147.289 116.932 146.987 117.141 146.616C117.354 146.245 117.461 145.855 117.461 145.446L117.461 144.065C117.397 144.142 117.256 144.212 117.039 144.276C116.826 144.336 116.578 144.389 116.297 144.436C116.02 144.479 115.75 144.517 115.485 144.551C115.225 144.581 115.015 144.607 114.853 144.628C114.461 144.679 114.094 144.762 113.753 144.877C113.417 144.988 113.144 145.156 112.935 145.382C112.73 145.604 112.628 145.906 112.628 146.29C112.628 146.814 112.822 147.21 113.21 147.479C113.602 147.743 114.098 147.875 114.699 147.875ZM125.43 149.205C124.612 149.205 123.889 148.998 123.263 148.585C122.637 148.167 122.146 147.579 121.793 146.82C121.439 146.058 121.262 145.156 121.262 144.116C121.262 143.085 121.439 142.19 121.793 141.432C122.146 140.673 122.639 140.087 123.269 139.674C123.9 139.261 124.629 139.054 125.455 139.054C126.095 139.054 126.6 139.161 126.97 139.374C127.345 139.582 127.631 139.821 127.827 140.089C128.027 140.354 128.183 140.571 128.294 140.741L128.421 140.741L128.421 135.909L129.93 135.909L129.93 149L128.472 149L128.472 147.491L128.294 147.491C128.183 147.67 128.025 147.896 127.82 148.169C127.616 148.438 127.324 148.678 126.945 148.891C126.566 149.1 126.061 149.205 125.43 149.205ZM125.634 147.849C126.24 147.849 126.751 147.692 127.169 147.376C127.586 147.057 127.904 146.616 128.121 146.053C128.338 145.487 128.447 144.832 128.447 144.091C128.447 143.358 128.34 142.717 128.127 142.167C127.914 141.613 127.599 141.183 127.181 140.876C126.764 140.565 126.248 140.409 125.634 140.409C124.995 140.409 124.463 140.573 124.036 140.901C123.615 141.225 123.297 141.666 123.084 142.224C122.875 142.778 122.771 143.401 122.771 144.091C122.771 144.79 122.877 145.425 123.09 145.996C123.308 146.563 123.627 147.014 124.049 147.351C124.475 147.683 125.004 147.849 125.634 147.849Z" fill="#4C7B96"/>
</g>
<defs>
<clipPath id="clip0_684_3185">
<rect width="180" height="270" fill="white" transform="translate(0 180) rotate(-90)"/>
</clipPath>
</defs>
</svg>
