<svg width="270" height="180" viewBox="0 0 270 180" fill="none" xmlns="http://www.w3.org/2000/svg">
<g clip-path="url(#clip0_1031_3692)">
<path d="M268.507 16.7514L268.507 163.248C268.507 171.66 261.645 178.506 253.204 178.506L16.7965 178.506C8.35564 178.506 1.49414 171.66 1.49414 163.248L1.49413 16.7514C1.49413 8.33896 8.35563 1.49348 16.7965 1.49348L253.204 1.49347C261.645 1.49347 268.507 8.33895 268.507 16.7514Z" fill="#E7ECF1" stroke="#2B4554" stroke-width="1.5"/>
<path d="M258.099 23.0346L258.099 157.807C258.099 163.536 253.53 168.1 247.794 168.1L21.4627 168.1C15.7266 168.1 11.1572 163.536 11.1572 157.807L11.1572 22.9375C11.1572 17.2087 15.7266 12.6451 21.4627 12.6451L247.697 12.6451C253.433 12.7422 258.099 17.3058 258.099 23.0346Z" stroke="#2B4554" stroke-width="0.5669" stroke-miterlimit="10"/>
<path d="M39.4215 124.959L39.4215 176.281L27.0248 176.281C13.3232 176.281 2.23144 165.395 2.23144 151.947L2.23144 124.959L39.4215 124.959Z" fill="#E7ECF1"/>
<path d="M229.835 55.041L229.835 3.7187L241.984 3.7187C255.411 3.7187 266.281 14.6053 266.281 28.0534L266.281 55.041L229.835 55.041Z" fill="#E7ECF1"/>
<path d="M11.1104 153.655C15.8775 153.655 20.6447 153.655 25.4119 153.655C25.4119 153.752 25.4119 153.752 25.4119 153.849C25.4119 156.569 25.4119 159.289 25.4119 162.01C25.4119 164.827 23.3688 167.353 20.5474 167.838C20.2555 167.838 20.061 167.936 19.7691 167.936C18.7962 167.936 17.8233 167.936 16.9477 167.936C14.3209 167.936 11.986 165.993 11.4022 163.37C11.3049 162.981 11.3049 162.495 11.2076 162.107C11.2076 159.387 11.2076 156.666 11.2076 153.946C11.1104 153.752 11.1104 153.752 11.1104 153.655ZM15.5857 158.026C15.5857 158.124 15.5857 158.124 15.5857 158.124C15.5857 159.387 15.5857 160.649 15.5857 161.912C15.5857 162.787 16.2667 163.37 17.045 163.37C17.8233 163.37 18.6016 163.37 19.3799 163.37C20.2555 163.37 20.9366 162.69 20.9366 161.815C20.9366 160.552 20.9366 159.387 20.9366 158.124C20.9366 158.026 20.9366 158.026 20.9366 157.929C19.1854 158.026 17.3369 158.026 15.5857 158.026Z" fill="#4C7B96"/>
<path d="M11.1104 150.935C11.1104 150.837 11.1104 150.837 11.1104 150.74C11.1104 148.02 11.1104 145.203 11.1104 142.483C11.1104 140.054 12.5697 137.917 14.8073 137.042C15.4884 136.751 16.2667 136.654 16.9477 136.654C17.8233 136.654 18.6989 136.654 19.5745 136.654C22.3959 136.654 24.8281 138.597 25.3146 141.414C25.4119 141.803 25.4119 142.288 25.4119 142.677C25.4119 143.94 25.4119 145.106 25.4119 146.369C25.4119 146.466 25.4119 146.466 25.4119 146.563C27.2604 146.563 29.1088 146.563 30.9573 146.563C30.9573 148.02 30.9573 149.477 30.9573 150.935C24.439 150.935 17.8233 150.935 11.1104 150.935ZM21.1311 146.563L21.1311 146.466C21.1311 145.106 21.1311 143.843 21.1311 142.483C21.1311 141.608 20.4501 141.025 19.6718 141.025C18.7962 141.025 18.0179 141.025 17.1423 141.025C16.364 141.025 15.5857 141.608 15.5857 142.58C15.5857 143.843 15.5857 145.106 15.5857 146.369C15.5857 146.466 15.5857 146.466 15.5857 146.563C17.4341 146.563 19.2826 146.563 21.1311 146.563Z" fill="#4C7B96"/>
<path d="M258.225 26.585C253.458 26.585 248.691 26.585 243.924 26.585C243.924 26.4878 243.924 26.4878 243.924 26.3907C243.924 23.6705 243.924 20.9504 243.924 18.2302C243.924 15.4129 245.967 12.8871 248.788 12.4013C249.08 12.4013 249.275 12.3042 249.567 12.3042C250.539 12.3042 251.512 12.3042 252.388 12.3042C255.015 12.3042 257.35 14.2472 257.933 16.8702C258.031 17.2588 258.031 17.7445 258.128 18.1331C258.128 20.8532 258.128 23.5734 258.128 26.2935C258.225 26.4878 258.225 26.4878 258.225 26.585ZM253.75 22.2133C253.75 22.1162 253.75 22.1161 253.75 22.1161C253.75 20.8532 253.75 19.5903 253.75 18.3274C253.75 17.453 253.069 16.8702 252.291 16.8702C251.512 16.8702 250.734 16.8702 249.956 16.8702C249.08 16.8702 248.399 17.5502 248.399 18.4245C248.399 19.6874 248.399 20.8532 248.399 22.1161C248.399 22.2133 248.399 22.2133 248.399 22.3104C250.15 22.2133 251.999 22.2133 253.75 22.2133Z" fill="#4C7B96"/>
<path d="M258.225 29.3052C258.225 29.4023 258.225 29.4023 258.225 29.4995C258.225 32.2196 258.225 35.0369 258.225 37.7571C258.225 40.1858 256.766 42.323 254.528 43.1973C253.847 43.4888 253.069 43.5859 252.388 43.5859C251.512 43.5859 250.636 43.5859 249.761 43.5859C246.939 43.5859 244.507 41.643 244.021 38.8257C243.923 38.4371 243.923 37.9513 243.923 37.5627C243.923 36.2998 243.923 35.1341 243.923 33.8711C243.923 33.774 243.923 33.774 243.923 33.6768C242.075 33.6768 240.226 33.6768 238.378 33.6768C238.378 32.2196 238.378 30.7624 238.378 29.3052C244.896 29.3052 251.512 29.3052 258.225 29.3052ZM248.204 33.6768L248.204 33.774C248.204 35.1341 248.204 36.397 248.204 37.7571C248.204 38.6314 248.885 39.2143 249.663 39.2143C250.539 39.2143 251.317 39.2143 252.193 39.2143C252.971 39.2143 253.75 38.6314 253.75 37.6599C253.75 36.397 253.75 35.1341 253.75 33.8711C253.75 33.774 253.75 33.774 253.75 33.6768C251.901 33.6768 250.053 33.6768 248.204 33.6768Z" fill="#4C7B96"/>
<path d="M45.7614 47.4545L47.5227 47.4545L47.5227 60.3807L52.6364 60.3807L52.6364 47.4545L54.3977 47.4545L54.3977 60.3807L59.5114 60.3807L59.5114 47.4545L61.2727 47.4545L61.2727 62L45.7614 62L45.7614 47.4545ZM68.1873 62.2557C67.496 62.2557 66.8686 62.1255 66.3052 61.8651C65.7417 61.5999 65.2943 61.2188 64.9629 60.7216C64.6314 60.2197 64.4657 59.6136 64.4657 58.9034C64.4657 58.2784 64.5888 57.7718 64.835 57.3835C65.0812 56.9905 65.4103 56.6828 65.8222 56.4602C66.2342 56.2377 66.6887 56.072 67.1859 55.9631C67.6878 55.8494 68.192 55.7595 68.6986 55.6932C69.3615 55.608 69.8989 55.544 70.3109 55.5014C70.7275 55.4541 71.0306 55.3759 71.22 55.267C71.4141 55.1581 71.5111 54.9688 71.5111 54.6989L71.5111 54.642C71.5111 53.9413 71.3194 53.3968 70.9359 53.0085C70.5571 52.6203 69.9818 52.4261 69.21 52.4261C68.4098 52.4261 67.7825 52.6013 67.3279 52.9517C66.8734 53.3021 66.5538 53.6761 66.3691 54.0739L64.7782 53.5057C65.0623 52.8428 65.4411 52.3267 65.9146 51.9574C66.3928 51.5833 66.9136 51.3229 67.4771 51.1761C68.0452 51.0246 68.604 50.9489 69.1532 50.9489C69.5036 50.9489 69.906 50.9915 70.3606 51.0767C70.8199 51.1572 71.2626 51.3253 71.6887 51.581C72.1196 51.8366 72.4771 52.2225 72.7611 52.7386C73.0452 53.2547 73.1873 53.946 73.1873 54.8125L73.1873 62L71.5111 62L71.5111 60.5227L71.4259 60.5227C71.3123 60.7595 71.1229 61.0128 70.8577 61.2827C70.5926 61.5526 70.2398 61.7822 69.7995 61.9716C69.3592 62.161 68.8218 62.2557 68.1873 62.2557ZM68.443 60.75C69.1058 60.75 69.6646 60.6198 70.1191 60.3594C70.5784 60.099 70.924 59.7628 71.156 59.3509C71.3928 58.9389 71.5111 58.5057 71.5111 58.0511L71.5111 56.517C71.4401 56.6023 71.2839 56.6804 71.0424 56.7514C70.8057 56.8177 70.531 56.8769 70.2185 56.929C69.9108 56.9763 69.6101 57.0189 69.3165 57.0568C69.0277 57.09 68.7933 57.1184 68.6134 57.142C68.1778 57.1989 67.7706 57.2912 67.3918 57.419C67.0178 57.5421 66.7147 57.7292 66.4827 57.9801C66.2555 58.2263 66.1418 58.5625 66.1418 58.9886C66.1418 59.571 66.3573 60.0114 66.7881 60.3097C67.2237 60.6032 67.7754 60.75 68.443 60.75ZM76.6466 66.0909L76.6466 51.0909L78.2659 51.0909L78.2659 52.8239L78.4648 52.8239C78.5879 52.6345 78.7583 52.393 78.9761 52.0994C79.1987 51.8011 79.5159 51.536 79.9278 51.304C80.3445 51.0672 80.908 50.9489 81.6182 50.9489C82.5367 50.9489 83.3464 51.1785 84.0472 51.6378C84.7479 52.0971 85.2948 52.7481 85.6878 53.5909C86.0808 54.4337 86.2773 55.428 86.2773 56.5739C86.2773 57.7292 86.0808 58.7306 85.6878 59.5781C85.2948 60.4209 84.7503 61.0743 84.0543 61.5384C83.3582 61.9976 82.5557 62.2273 81.6466 62.2273C80.9458 62.2273 80.3848 62.1113 79.9633 61.8793C79.5419 61.6425 79.2176 61.375 78.9903 61.0767C78.7631 60.7737 78.5879 60.5227 78.4648 60.3239L78.3227 60.3239L78.3227 66.0909L76.6466 66.0909ZM78.2943 56.5455C78.2943 57.3693 78.4151 58.0961 78.6565 58.7259C78.898 59.3509 79.2508 59.8409 79.7148 60.196C80.1788 60.5464 80.747 60.7216 81.4193 60.7216C82.1201 60.7216 82.7048 60.5369 83.1736 60.1676C83.6471 59.7936 84.0022 59.2917 84.2389 58.6619C84.4804 58.0275 84.6011 57.322 84.6011 56.5455C84.6011 55.7784 84.4828 55.0871 84.246 54.4716C84.014 53.8513 83.6613 53.3613 83.1878 53.0014C82.719 52.6368 82.1295 52.4545 81.4193 52.4545C80.7375 52.4545 80.1646 52.6274 79.7006 52.973C79.2366 53.3139 78.8862 53.7921 78.6494 54.4077C78.4127 55.0185 78.2943 55.7311 78.2943 56.5455ZM92.4443 62.2557C91.753 62.2557 91.1257 62.1255 90.5622 61.8651C89.9988 61.5999 89.5513 61.2188 89.2199 60.7216C88.8884 60.2197 88.7227 59.6136 88.7227 58.9034C88.7227 58.2784 88.8458 57.7718 89.092 57.3835C89.3383 56.9905 89.6673 56.6828 90.0793 56.4602C90.4912 56.2377 90.9457 56.072 91.4429 55.9631C91.9448 55.8494 92.4491 55.7595 92.9557 55.6932C93.6186 55.608 94.156 55.544 94.5679 55.5014C94.9846 55.4541 95.2876 55.3759 95.477 55.267C95.6711 55.1581 95.7682 54.9688 95.7682 54.6989L95.7682 54.642C95.7682 53.9413 95.5764 53.3968 95.1929 53.0085C94.8141 52.6203 94.2388 52.4261 93.467 52.4261C92.6669 52.4261 92.0395 52.6013 91.5849 52.9517C91.1304 53.3021 90.8108 53.6761 90.6261 54.0739L89.0352 53.5057C89.3193 52.8428 89.6981 52.3267 90.1716 51.9574C90.6498 51.5833 91.1706 51.3229 91.7341 51.1761C92.3023 51.0246 92.861 50.9489 93.4102 50.9489C93.7606 50.9489 94.1631 50.9915 94.6176 51.0767C95.0769 51.1572 95.5196 51.3253 95.9457 51.581C96.3766 51.8367 96.7341 52.2225 97.0182 52.7386C97.3023 53.2547 97.4443 53.946 97.4443 54.8125L97.4443 62L95.7682 62L95.7682 60.5227L95.683 60.5227C95.5693 60.7595 95.3799 61.0128 95.1148 61.2827C94.8496 61.5526 94.4969 61.7822 94.0565 61.9716C93.6162 62.161 93.0788 62.2557 92.4443 62.2557ZM92.7 60.75C93.3629 60.75 93.9216 60.6198 94.3761 60.3594C94.8354 60.099 95.1811 59.7628 95.4131 59.3509C95.6498 58.9389 95.7682 58.5057 95.7682 58.0511L95.7682 56.517C95.6972 56.6023 95.5409 56.6804 95.2994 56.7514C95.0627 56.8177 94.7881 56.8769 94.4756 56.929C94.1678 56.9763 93.8671 57.0189 93.5736 57.0568C93.2848 57.09 93.0504 57.1184 92.8705 57.142C92.4348 57.1989 92.0277 57.2912 91.6489 57.419C91.2748 57.5421 90.9718 57.7292 90.7398 57.9801C90.5125 58.2263 90.3989 58.5625 90.3989 58.9886C90.3989 59.571 90.6143 60.0114 91.0452 60.3097C91.4808 60.6032 92.0324 60.75 92.7 60.75ZM108.205 55.7784L108.205 57.3409L102.182 57.3409L102.182 55.7784L108.205 55.7784ZM102.58 51.0909L102.58 62L100.904 62L100.904 51.0909L102.58 51.0909ZM109.483 51.0909L109.483 62L107.807 62L107.807 51.0909L109.483 51.0909ZM118.401 49.017L118.401 47.4545L129.31 47.4545L129.31 49.017L124.736 49.017L124.736 62L122.975 62L122.975 49.017L118.401 49.017ZM133.927 62.2557C133.236 62.2557 132.608 62.1255 132.045 61.8651C131.482 61.5999 131.034 61.2188 130.703 60.7216C130.371 60.2197 130.206 59.6136 130.206 58.9034C130.206 58.2784 130.329 57.7718 130.575 57.3835C130.821 56.9905 131.15 56.6828 131.562 56.4602C131.974 56.2377 132.429 56.072 132.926 55.9631C133.428 55.8494 133.932 55.7595 134.438 55.6932C135.101 55.608 135.639 55.544 136.051 55.5014C136.467 55.4541 136.77 55.376 136.96 55.2671C137.154 55.1581 137.251 54.9688 137.251 54.6989L137.251 54.6421C137.251 53.9413 137.059 53.3968 136.676 53.0085C136.297 52.6203 135.722 52.4261 134.95 52.4261C134.15 52.4261 133.522 52.6013 133.068 52.9517C132.613 53.3021 132.294 53.6761 132.109 54.0739L130.518 53.5057C130.802 52.8428 131.181 52.3267 131.654 51.9574C132.133 51.5833 132.653 51.3229 133.217 51.1761C133.785 51.0246 134.344 50.9489 134.893 50.9489C135.243 50.9489 135.646 50.9915 136.1 51.0767C136.56 51.1572 137.002 51.3253 137.429 51.581C137.859 51.8367 138.217 52.2225 138.501 52.7386C138.785 53.2547 138.927 53.946 138.927 54.8125L138.927 62L137.251 62L137.251 60.5227L137.166 60.5227C137.052 60.7595 136.863 61.0128 136.598 61.2827C136.332 61.5526 135.98 61.7822 135.539 61.9716C135.099 62.161 134.562 62.2557 133.927 62.2557ZM134.183 60.75C134.846 60.75 135.404 60.6198 135.859 60.3594C136.318 60.099 136.664 59.7628 136.896 59.3509C137.133 58.9389 137.251 58.5057 137.251 58.0511L137.251 56.5171C137.18 56.6023 137.024 56.6804 136.782 56.7514C136.546 56.8177 136.271 56.8769 135.958 56.929C135.651 56.9763 135.35 57.0189 135.056 57.0568C134.768 57.09 134.533 57.1184 134.353 57.1421C133.918 57.1989 133.51 57.2912 133.132 57.419C132.758 57.5421 132.455 57.7292 132.223 57.9801C131.995 58.2263 131.882 58.5625 131.882 58.9886C131.882 59.571 132.097 60.0114 132.528 60.3097C132.964 60.6032 133.515 60.75 134.183 60.75ZM140.902 52.6534L140.902 51.0909L149.766 51.0909L149.766 52.6534L146.186 52.6534L146.186 62L144.51 62L144.51 52.6534L140.902 52.6534ZM154.06 55.0398L157.185 55.0398C158.463 55.0398 159.441 55.3641 160.118 56.0128C160.795 56.6615 161.133 57.483 161.133 58.4773C161.133 59.1307 160.982 59.7249 160.679 60.2599C160.376 60.7903 159.931 61.214 159.344 61.5313C158.756 61.8438 158.037 62 157.185 62L152.611 62L152.611 51.0909L154.287 51.0909L154.287 60.4375L157.185 60.4375C157.847 60.4375 158.392 60.2623 158.818 59.9119C159.244 59.5616 159.457 59.1117 159.457 58.5625C159.457 57.9849 159.244 57.5137 158.818 57.1492C158.392 56.7846 157.847 56.6023 157.185 56.6023L154.06 56.6023L154.06 55.0398ZM170.647 62L170.647 52.625L167.75 52.625C167.096 52.625 166.583 52.7765 166.208 53.0796C165.834 53.3826 165.647 53.7992 165.647 54.3296C165.647 54.8504 165.815 55.2599 166.152 55.5582C166.493 55.8565 166.959 56.0057 167.551 56.0057L171.074 56.0057L171.074 57.5682L167.551 57.5682C166.812 57.5682 166.175 57.438 165.64 57.1776C165.105 56.9171 164.693 56.5455 164.404 56.0625C164.116 55.5748 163.971 54.9972 163.971 54.3296C163.971 53.6572 164.123 53.0796 164.426 52.5966C164.729 52.1136 165.162 51.742 165.725 51.4815C166.294 51.2211 166.968 51.0909 167.75 51.0909L172.238 51.0909L172.238 62L170.647 62ZM163.375 62L166.471 56.5739L168.289 56.5739L165.193 62L163.375 62ZM183.016 55.7784L183.016 57.3409L176.994 57.3409L176.994 55.7784L183.016 55.7784ZM177.391 51.0909L177.391 62L175.715 62L175.715 51.0909L177.391 51.0909ZM184.295 51.0909L184.295 62L182.619 62L182.619 51.0909L184.295 51.0909ZM190.966 62.2557C190.275 62.2557 189.648 62.1255 189.084 61.8651C188.521 61.5999 188.073 61.2188 187.742 60.7216C187.41 60.2197 187.245 59.6136 187.245 58.9034C187.245 58.2784 187.368 57.7718 187.614 57.3835C187.86 56.9905 188.189 56.6828 188.601 56.4602C189.013 56.2377 189.468 56.072 189.965 55.9631C190.467 55.8494 190.971 55.7595 191.478 55.6932C192.14 55.608 192.678 55.544 193.09 55.5014C193.506 55.4541 193.809 55.376 193.999 55.2671C194.193 55.1582 194.29 54.9688 194.29 54.6989L194.29 54.6421C194.29 53.9413 194.098 53.3968 193.715 53.0085C193.336 52.6203 192.761 52.4261 191.989 52.4261C191.189 52.4261 190.561 52.6013 190.107 52.9517C189.652 53.3021 189.333 53.6761 189.148 54.0739L187.557 53.5057C187.841 52.8428 188.22 52.3267 188.693 51.9574C189.172 51.5833 189.693 51.3229 190.256 51.1761C190.824 51.0246 191.383 50.9489 191.932 50.9489C192.282 50.9489 192.685 50.9915 193.139 51.0767C193.599 51.1572 194.041 51.3253 194.468 51.581C194.898 51.8367 195.256 52.2225 195.54 52.7386C195.824 53.2547 195.966 53.946 195.966 54.8125L195.966 62L194.29 62L194.29 60.5227L194.205 60.5227C194.091 60.7595 193.902 61.0128 193.637 61.2827C193.371 61.5526 193.019 61.7822 192.578 61.9716C192.138 62.161 191.601 62.2557 190.966 62.2557ZM191.222 60.75C191.885 60.75 192.443 60.6198 192.898 60.3594C193.357 60.099 193.703 59.7628 193.935 59.3509C194.172 58.9389 194.29 58.5057 194.29 58.0511L194.29 56.5171C194.219 56.6023 194.063 56.6804 193.821 56.7514C193.585 56.8177 193.31 56.8769 192.997 56.929C192.69 56.9763 192.389 57.0189 192.095 57.0568C191.807 57.09 191.572 57.1184 191.392 57.1421C190.957 57.1989 190.55 57.2912 190.171 57.419C189.797 57.5421 189.494 57.7292 189.262 57.9801C189.034 58.2263 188.921 58.5625 188.921 58.9886C188.921 59.571 189.136 60.0114 189.567 60.3097C190.003 60.6032 190.554 60.75 191.222 60.75Z" fill="#2B4554"/>
<path d="M44 96L224 96" stroke="#2B4554" stroke-width="1.8" stroke-linecap="round"/>
<path d="M53.0455 124.364L54.4545 124.364L54.4545 132.068C54.4545 132.864 54.267 133.574 53.892 134.199C53.5208 134.82 52.9962 135.311 52.3182 135.67C51.6402 136.027 50.8447 136.205 49.9318 136.205C49.0189 136.205 48.2235 136.027 47.5455 135.67C46.8674 135.311 46.3409 134.82 45.9659 134.199C45.5947 133.574 45.4091 132.864 45.4091 132.068L45.4091 124.364L46.8182 124.364L46.8182 131.955C46.8182 132.523 46.9432 133.028 47.1932 133.472C47.4432 133.911 47.7992 134.258 48.2614 134.511C48.7273 134.761 49.2841 134.886 49.9318 134.886C50.5795 134.886 51.1364 134.761 51.6023 134.511C52.0682 134.258 52.4242 133.911 52.6705 133.472C52.9205 133.028 53.0455 132.523 53.0455 131.955L53.0455 124.364ZM57.9503 124.364L60.9503 129.205L61.0412 129.205L64.0412 124.364L65.7003 124.364L62.0412 130.182L65.7003 136L64.0412 136L61.0412 131.25L60.9503 131.25L57.9503 136L56.2912 136L60.0412 130.182L56.2912 124.364L57.9503 124.364ZM71.4659 123.818L67.7159 137.75L66.4886 137.75L70.2386 123.818L71.4659 123.818ZM80.8736 124.364L82.2827 124.364L82.2827 132.068C82.2827 132.864 82.0952 133.574 81.7202 134.199C81.349 134.82 80.8243 135.311 80.1463 135.67C79.4683 136.027 78.6728 136.205 77.7599 136.205C76.8471 136.205 76.0516 136.027 75.3736 135.67C74.6955 135.311 74.169 134.82 73.794 134.199C73.4228 133.574 73.2372 132.864 73.2372 132.068L73.2372 124.364L74.6463 124.364L74.6463 131.955C74.6463 132.523 74.7713 133.028 75.0213 133.472C75.2713 133.911 75.6274 134.258 76.0895 134.511C76.5554 134.761 77.1122 134.886 77.7599 134.886C78.4077 134.886 78.9645 134.761 79.4304 134.511C79.8963 134.258 80.2524 133.911 80.4986 133.472C80.7486 133.028 80.8736 132.523 80.8736 131.955L80.8736 124.364ZM86.5057 124.364L86.5057 136L85.0966 136L85.0966 124.364L86.5057 124.364ZM94.1491 129.557L94.1491 130.807L89.0582 130.807L89.0582 129.557L94.1491 129.557ZM95.5767 138.5L95.5767 134.75L96.304 134.75C96.482 134.564 96.6354 134.364 96.7642 134.148C96.893 133.932 97.0047 133.676 97.0994 133.381C97.1979 133.081 97.2812 132.718 97.3494 132.29C97.4176 131.858 97.4782 131.337 97.5312 130.727L97.8267 127.273L103.372 127.273L103.372 134.75L104.713 134.75L104.713 138.5L103.372 138.5L103.372 136L96.9176 136L96.9176 138.5L95.5767 138.5ZM97.8267 134.75L102.031 134.75L102.031 128.523L99.0767 128.523L98.8494 130.727C98.7547 131.64 98.6373 132.438 98.4972 133.119C98.357 133.801 98.1335 134.345 97.8267 134.75ZM107.834 134.023L112.038 127.273L113.584 127.273L113.584 136L112.243 136L112.243 129.25L108.061 136L106.493 136L106.493 127.273L107.834 127.273L107.834 134.023ZM115.494 133.773L116.926 133.773C116.956 134.167 117.134 134.466 117.46 134.67C117.79 134.875 118.218 134.977 118.744 134.977C119.282 134.977 119.742 134.867 120.125 134.648C120.508 134.424 120.699 134.064 120.699 133.568C120.699 133.277 120.627 133.023 120.483 132.807C120.339 132.587 120.136 132.417 119.875 132.295C119.614 132.174 119.305 132.114 118.949 132.114L117.449 132.114L117.449 130.909L118.949 130.909C119.483 130.909 119.877 130.788 120.131 130.545C120.388 130.303 120.517 130 120.517 129.636C120.517 129.246 120.379 128.934 120.102 128.699C119.826 128.46 119.434 128.341 118.926 128.341C118.415 128.341 117.989 128.456 117.648 128.688C117.307 128.915 117.127 129.208 117.108 129.568L115.699 129.568C115.714 129.098 115.858 128.684 116.131 128.324C116.403 127.96 116.775 127.676 117.244 127.472C117.714 127.263 118.252 127.159 118.858 127.159C119.472 127.159 120.004 127.267 120.455 127.483C120.909 127.695 121.259 127.985 121.506 128.352C121.756 128.716 121.881 129.129 121.881 129.591C121.881 130.083 121.742 130.481 121.466 130.784C121.189 131.087 120.843 131.303 120.426 131.432L120.426 131.523C120.756 131.545 121.042 131.652 121.284 131.841C121.53 132.027 121.722 132.271 121.858 132.574C121.994 132.873 122.062 133.205 122.062 133.568C122.062 134.098 121.92 134.561 121.636 134.955C121.352 135.345 120.962 135.648 120.466 135.864C119.97 136.076 119.403 136.182 118.767 136.182C118.15 136.182 117.597 136.081 117.108 135.881C116.619 135.676 116.231 135.394 115.943 135.034C115.659 134.67 115.509 134.25 115.494 133.773ZM126.514 136.205C125.961 136.205 125.459 136.1 125.009 135.892C124.558 135.68 124.2 135.375 123.935 134.977C123.67 134.576 123.537 134.091 123.537 133.523C123.537 133.023 123.635 132.617 123.832 132.307C124.029 131.992 124.293 131.746 124.622 131.568C124.952 131.39 125.315 131.258 125.713 131.17C126.115 131.08 126.518 131.008 126.923 130.955C127.454 130.886 127.884 130.835 128.213 130.801C128.546 130.763 128.789 130.701 128.94 130.614C129.096 130.527 129.173 130.375 129.173 130.159L129.173 130.114C129.173 129.553 129.02 129.117 128.713 128.807C128.41 128.496 127.95 128.341 127.332 128.341C126.692 128.341 126.19 128.481 125.827 128.761C125.463 129.042 125.207 129.341 125.06 129.659L123.787 129.205C124.014 128.674 124.317 128.261 124.696 127.966C125.079 127.667 125.495 127.458 125.946 127.341C126.401 127.22 126.848 127.159 127.287 127.159C127.567 127.159 127.889 127.193 128.253 127.261C128.62 127.326 128.974 127.46 129.315 127.665C129.66 127.869 129.946 128.178 130.173 128.591C130.401 129.004 130.514 129.557 130.514 130.25L130.514 136L129.173 136L129.173 134.818L129.105 134.818C129.014 135.008 128.863 135.21 128.651 135.426C128.438 135.642 128.156 135.826 127.804 135.977C127.452 136.129 127.022 136.205 126.514 136.205ZM126.719 135C127.249 135 127.696 134.896 128.06 134.688C128.427 134.479 128.704 134.21 128.889 133.881C129.079 133.551 129.173 133.205 129.173 132.841L129.173 131.614C129.116 131.682 128.991 131.744 128.798 131.801C128.609 131.854 128.389 131.902 128.139 131.943C127.893 131.981 127.652 132.015 127.418 132.045C127.187 132.072 126.999 132.095 126.855 132.114C126.507 132.159 126.181 132.233 125.878 132.335C125.579 132.434 125.336 132.583 125.151 132.784C124.969 132.981 124.878 133.25 124.878 133.591C124.878 134.057 125.05 134.409 125.395 134.648C125.743 134.883 126.185 135 126.719 135ZM134.303 134.023L138.507 127.273L140.053 127.273L140.053 136L138.712 136L138.712 129.25L134.53 136L132.962 136L132.962 127.273L134.303 127.273L134.303 134.023ZM137.621 124.364L138.871 124.364C138.871 124.977 138.659 125.479 138.234 125.869C137.81 126.259 137.234 126.455 136.507 126.455C135.791 126.455 135.221 126.259 134.797 125.869C134.376 125.479 134.166 124.977 134.166 124.364L135.416 124.364C135.416 124.659 135.498 124.919 135.661 125.142C135.827 125.366 136.109 125.477 136.507 125.477C136.905 125.477 137.189 125.366 137.359 125.142C137.534 124.919 137.621 124.659 137.621 124.364ZM148.349 131.023L148.349 132.273L143.531 132.273L143.531 131.023L148.349 131.023ZM143.849 127.273L143.849 136L142.509 136L142.509 127.273L143.849 127.273ZM149.372 127.273L149.372 136L148.031 136L148.031 127.273L149.372 127.273ZM155.48 136.182C154.639 136.182 153.914 135.996 153.304 135.625C152.698 135.25 152.23 134.727 151.901 134.057C151.575 133.383 151.412 132.598 151.412 131.705C151.412 130.811 151.575 130.023 151.901 129.341C152.23 128.655 152.688 128.121 153.276 127.739C153.866 127.352 154.556 127.159 155.344 127.159C155.798 127.159 156.247 127.235 156.69 127.386C157.134 127.538 157.537 127.784 157.901 128.125C158.264 128.462 158.554 128.909 158.77 129.466C158.986 130.023 159.094 130.708 159.094 131.523L159.094 132.091L152.366 132.091L152.366 130.932L157.73 130.932C157.73 130.439 157.632 130 157.435 129.614C157.241 129.227 156.965 128.922 156.605 128.699C156.249 128.475 155.829 128.364 155.344 128.364C154.81 128.364 154.348 128.496 153.957 128.761C153.571 129.023 153.274 129.364 153.065 129.784C152.857 130.205 152.753 130.655 152.753 131.136L152.753 131.909C152.753 132.568 152.866 133.127 153.094 133.585C153.325 134.04 153.645 134.386 154.054 134.625C154.463 134.86 154.938 134.977 155.48 134.977C155.832 134.977 156.151 134.928 156.435 134.83C156.723 134.727 156.971 134.576 157.179 134.375C157.387 134.17 157.548 133.917 157.662 133.614L158.957 133.977C158.821 134.417 158.592 134.803 158.27 135.136C157.948 135.466 157.55 135.723 157.077 135.909C156.603 136.091 156.071 136.182 155.48 136.182ZM161.134 139.273L161.134 127.273L162.429 127.273L162.429 128.659L162.588 128.659C162.687 128.508 162.823 128.314 162.997 128.08C163.175 127.841 163.429 127.629 163.759 127.443C164.092 127.254 164.543 127.159 165.111 127.159C165.846 127.159 166.493 127.343 167.054 127.71C167.615 128.078 168.052 128.598 168.366 129.273C168.681 129.947 168.838 130.742 168.838 131.659C168.838 132.583 168.681 133.384 168.366 134.063C168.052 134.737 167.616 135.259 167.06 135.631C166.503 135.998 165.861 136.182 165.134 136.182C164.573 136.182 164.124 136.089 163.787 135.903C163.45 135.714 163.19 135.5 163.009 135.261C162.827 135.019 162.687 134.818 162.588 134.659L162.474 134.659L162.474 139.273L161.134 139.273ZM162.452 131.636C162.452 132.295 162.548 132.877 162.741 133.381C162.935 133.881 163.217 134.273 163.588 134.557C163.959 134.837 164.414 134.977 164.952 134.977C165.512 134.977 165.98 134.83 166.355 134.534C166.734 134.235 167.018 133.833 167.207 133.33C167.401 132.822 167.497 132.258 167.497 131.636C167.497 131.023 167.402 130.47 167.213 129.977C167.027 129.481 166.745 129.089 166.366 128.801C165.991 128.509 165.52 128.364 164.952 128.364C164.406 128.364 163.948 128.502 163.577 128.778C163.205 129.051 162.925 129.434 162.736 129.926C162.546 130.415 162.452 130.985 162.452 131.636Z" fill="#2B4554"/>
</g>
<defs>
<clipPath id="clip0_1031_3692">
<rect width="180" height="270" fill="white" transform="translate(0 180) rotate(-90)"/>
</clipPath>
</defs>
</svg>
