<svg width="270" height="180" viewBox="0 0 270 180" fill="none" xmlns="http://www.w3.org/2000/svg">
<g clip-path="url(#clip0_1031_3690)">
<path d="M268.507 16.7514L268.507 163.248C268.507 171.66 261.645 178.506 253.204 178.506L16.7965 178.506C8.35564 178.506 1.49414 171.66 1.49414 163.248L1.49413 16.7514C1.49413 8.33896 8.35563 1.49348 16.7965 1.49348L253.204 1.49347C261.645 1.49347 268.507 8.33895 268.507 16.7514Z" fill="#E7ECF1" stroke="#2B4554" stroke-width="1.5"/>
<path d="M258.099 23.0346L258.099 157.807C258.099 163.536 253.53 168.1 247.794 168.1L21.4627 168.1C15.7266 168.1 11.1572 163.536 11.1572 157.807L11.1572 22.9375C11.1572 17.2087 15.7266 12.6451 21.4627 12.6451L247.697 12.6451C253.433 12.7422 258.099 17.3058 258.099 23.0346Z" stroke="#2B4554" stroke-width="0.5669" stroke-miterlimit="10"/>
<path d="M39.4215 124.959L39.4215 176.281L27.0248 176.281C13.3232 176.281 2.23144 165.395 2.23144 151.947L2.23144 124.959L39.4215 124.959Z" fill="#E7ECF1"/>
<path d="M229.835 55.041L229.835 3.7187L241.984 3.7187C255.411 3.7187 266.281 14.6053 266.281 28.0534L266.281 55.041L229.835 55.041Z" fill="#E7ECF1"/>
<path d="M11.1104 153.655C15.8775 153.655 20.6447 153.655 25.4119 153.655C25.4119 153.752 25.4119 153.752 25.4119 153.849C25.4119 156.569 25.4119 159.289 25.4119 162.01C25.4119 164.827 23.3688 167.353 20.5474 167.838C20.2555 167.838 20.061 167.936 19.7691 167.936C18.7962 167.936 17.8233 167.936 16.9477 167.936C14.3209 167.936 11.986 165.993 11.4022 163.37C11.3049 162.981 11.3049 162.495 11.2076 162.107C11.2076 159.387 11.2076 156.666 11.2076 153.946C11.1104 153.752 11.1104 153.752 11.1104 153.655ZM15.5857 158.026C15.5857 158.124 15.5857 158.124 15.5857 158.124C15.5857 159.387 15.5857 160.649 15.5857 161.912C15.5857 162.787 16.2667 163.37 17.045 163.37C17.8233 163.37 18.6016 163.37 19.3799 163.37C20.2555 163.37 20.9366 162.69 20.9366 161.815C20.9366 160.552 20.9366 159.387 20.9366 158.124C20.9366 158.026 20.9366 158.026 20.9366 157.929C19.1854 158.026 17.3369 158.026 15.5857 158.026Z" fill="#4C7B96"/>
<path d="M11.1104 150.935C11.1104 150.837 11.1104 150.837 11.1104 150.74C11.1104 148.02 11.1104 145.203 11.1104 142.483C11.1104 140.054 12.5697 137.917 14.8073 137.042C15.4884 136.751 16.2667 136.654 16.9477 136.654C17.8233 136.654 18.6989 136.654 19.5745 136.654C22.3959 136.654 24.8281 138.597 25.3146 141.414C25.4119 141.803 25.4119 142.288 25.4119 142.677C25.4119 143.94 25.4119 145.106 25.4119 146.369C25.4119 146.466 25.4119 146.466 25.4119 146.563C27.2604 146.563 29.1088 146.563 30.9573 146.563C30.9573 148.02 30.9573 149.477 30.9573 150.935C24.439 150.935 17.8233 150.935 11.1104 150.935ZM21.1311 146.563L21.1311 146.466C21.1311 145.106 21.1311 143.843 21.1311 142.483C21.1311 141.608 20.4501 141.025 19.6718 141.025C18.7962 141.025 18.0179 141.025 17.1423 141.025C16.364 141.025 15.5857 141.608 15.5857 142.58C15.5857 143.843 15.5857 145.106 15.5857 146.369C15.5857 146.466 15.5857 146.466 15.5857 146.563C17.4341 146.563 19.2826 146.563 21.1311 146.563Z" fill="#4C7B96"/>
<path d="M258.225 26.585C253.458 26.585 248.691 26.585 243.924 26.585C243.924 26.4878 243.924 26.4878 243.924 26.3907C243.924 23.6705 243.924 20.9504 243.924 18.2302C243.924 15.4129 245.967 12.8871 248.788 12.4013C249.08 12.4013 249.275 12.3042 249.567 12.3042C250.539 12.3042 251.512 12.3042 252.388 12.3042C255.015 12.3042 257.35 14.2472 257.933 16.8702C258.031 17.2588 258.031 17.7445 258.128 18.1331C258.128 20.8532 258.128 23.5734 258.128 26.2935C258.225 26.4878 258.225 26.4878 258.225 26.585ZM253.75 22.2133C253.75 22.1162 253.75 22.1161 253.75 22.1161C253.75 20.8532 253.75 19.5903 253.75 18.3274C253.75 17.453 253.069 16.8702 252.291 16.8702C251.512 16.8702 250.734 16.8702 249.956 16.8702C249.08 16.8702 248.399 17.5502 248.399 18.4245C248.399 19.6874 248.399 20.8532 248.399 22.1161C248.399 22.2133 248.399 22.2133 248.399 22.3104C250.15 22.2133 251.999 22.2133 253.75 22.2133Z" fill="#4C7B96"/>
<path d="M258.225 29.3052C258.225 29.4023 258.225 29.4023 258.225 29.4995C258.225 32.2196 258.225 35.0369 258.225 37.7571C258.225 40.1858 256.766 42.323 254.528 43.1973C253.847 43.4888 253.069 43.5859 252.388 43.5859C251.512 43.5859 250.636 43.5859 249.761 43.5859C246.939 43.5859 244.507 41.643 244.021 38.8257C243.923 38.4371 243.923 37.9513 243.923 37.5627C243.923 36.2998 243.923 35.1341 243.923 33.8711C243.923 33.774 243.923 33.774 243.923 33.6768C242.075 33.6768 240.226 33.6768 238.378 33.6768C238.378 32.2196 238.378 30.7624 238.378 29.3052C244.896 29.3052 251.512 29.3052 258.225 29.3052ZM248.204 33.6768L248.204 33.774C248.204 35.1341 248.204 36.397 248.204 37.7571C248.204 38.6314 248.885 39.2143 249.663 39.2143C250.539 39.2143 251.317 39.2143 252.193 39.2143C252.971 39.2143 253.75 38.6314 253.75 37.6599C253.75 36.397 253.75 35.1341 253.75 33.8711C253.75 33.774 253.75 33.774 253.75 33.6768C251.901 33.6768 250.053 33.6768 248.204 33.6768Z" fill="#4C7B96"/>
<path d="M46.6136 33.4545L50.3636 39.5057L50.4773 39.5057L54.2273 33.4545L56.3011 33.4545L51.7273 40.7273L56.3011 48L54.2273 48L50.4773 42.0625L50.3636 42.0625L46.6136 48L44.5398 48L49.2273 40.7273L44.5398 33.4545L46.6136 33.4545ZM62.6315 48.2273C61.6467 48.2273 60.7826 47.9929 60.0392 47.5241C59.3006 47.0554 58.7229 46.3996 58.3062 45.5568C57.8943 44.714 57.6884 43.7292 57.6884 42.6023C57.6884 41.4659 57.8943 40.474 58.3062 39.6264C58.7229 38.7789 59.3006 38.1207 60.0392 37.652C60.7826 37.1832 61.6467 36.9489 62.6315 36.9489C63.6164 36.9489 64.4781 37.1832 65.2168 37.652C65.9601 38.1207 66.5378 38.7789 66.9497 39.6264C67.3664 40.474 67.5747 41.4659 67.5747 42.6023C67.5747 43.7292 67.3664 44.714 66.9497 45.5568C66.5378 46.3996 65.9601 47.0554 65.2168 47.5241C64.4781 47.9929 63.6164 48.2273 62.6315 48.2273ZM62.6315 46.7216C63.3796 46.7216 63.9952 46.5298 64.4781 46.1463C64.9611 45.7628 65.3186 45.2585 65.5506 44.6335C65.7826 44.0085 65.8986 43.3314 65.8986 42.6023C65.8986 41.8731 65.7826 41.1937 65.5506 40.5639C65.3186 39.9342 64.9611 39.4252 64.4781 39.0369C63.9952 38.6487 63.3796 38.4545 62.6315 38.4545C61.8834 38.4545 61.2679 38.6487 60.7849 39.0369C60.302 39.4252 59.9445 39.9342 59.7125 40.5639C59.4805 41.1937 59.3645 41.8731 59.3645 42.6023C59.3645 43.3314 59.4805 44.0085 59.7125 44.6335C59.9445 45.2585 60.302 45.7628 60.7849 46.1463C61.2679 46.5298 61.8834 46.7216 62.6315 46.7216ZM69.5674 48L69.5674 46.4375L69.9651 46.4375C70.2918 46.4375 70.5641 46.3736 70.7819 46.2457C70.9997 46.1132 71.1749 45.8835 71.3075 45.5568C71.4448 45.2254 71.5489 44.7661 71.62 44.179C71.6957 43.5871 71.7502 42.8343 71.7833 41.9205L71.9822 37.0909L79.2549 37.0909L79.2549 48L77.5788 48L77.5788 38.6534L73.5731 38.6534L73.4026 42.5455C73.3647 43.4403 73.2843 44.2287 73.1611 44.9105C73.0428 45.5876 72.8605 46.1558 72.6143 46.6151C72.3728 47.0743 72.0508 47.42 71.6484 47.652C71.2459 47.884 70.7416 48 70.1356 48L69.5674 48ZM87.162 48.2273C86.1772 48.2273 85.313 47.9929 84.5697 47.5241C83.831 47.0554 83.2534 46.3996 82.8367 45.5568C82.4248 44.714 82.2188 43.7292 82.2188 42.6023C82.2188 41.4659 82.4248 40.474 82.8367 39.6264C83.2534 38.7789 83.831 38.1207 84.5697 37.652C85.313 37.1832 86.1772 36.9489 87.162 36.9489C88.1469 36.9489 89.0086 37.1832 89.7472 37.652C90.4906 38.1207 91.0683 38.7789 91.4802 39.6264C91.8969 40.474 92.1052 41.4659 92.1052 42.6023C92.1052 43.7292 91.8969 44.714 91.4802 45.5568C91.0683 46.3996 90.4906 47.0554 89.7472 47.5242C89.0086 47.9929 88.1469 48.2273 87.162 48.2273ZM87.162 46.7216C87.9101 46.7216 88.5256 46.5298 89.0086 46.1463C89.4915 45.7628 89.849 45.2585 90.081 44.6335C90.313 44.0085 90.429 43.3314 90.429 42.6023C90.429 41.8731 90.313 41.1937 90.081 40.5639C89.849 39.9342 89.4915 39.4252 89.0086 39.0369C88.5256 38.6487 87.9101 38.4545 87.162 38.4545C86.4139 38.4545 85.7984 38.6487 85.3154 39.0369C84.8325 39.4252 84.475 39.9342 84.243 40.5639C84.011 41.1937 83.895 41.8731 83.895 42.6023C83.895 43.3314 84.011 44.0085 84.243 44.6335C84.475 45.2585 84.8325 45.7628 85.3154 46.1463C85.7984 46.5298 86.4139 46.7216 87.162 46.7216ZM93.899 51.125L93.899 46.4375L94.8081 46.4375C95.0306 46.2055 95.2224 45.9545 95.3834 45.6847C95.5444 45.4148 95.684 45.0952 95.8024 44.7259C95.9255 44.3518 96.0297 43.8973 96.1149 43.3622C96.2001 42.8224 96.2759 42.1714 96.3422 41.4091L96.7115 37.0909L103.643 37.0909L103.643 46.4375L105.319 46.4375L105.319 51.125L103.643 51.125L103.643 48L95.5751 48L95.5751 51.125L93.899 51.125ZM96.7115 46.4375L101.967 46.4375L101.967 38.6534L98.274 38.6534L97.9899 41.4091C97.8715 42.5502 97.7248 43.5469 97.5496 44.3992C97.3744 45.2514 97.095 45.9309 96.7115 46.4375ZM109.62 45.5284L114.876 37.0909L116.808 37.0909L116.808 48L115.132 48L115.132 39.5625L109.904 48L107.944 48L107.944 37.0909L109.62 37.0909L109.62 45.5284ZM119.312 48L119.312 46.4375L119.71 46.4375C120.036 46.4375 120.309 46.3736 120.526 46.2457C120.744 46.1132 120.919 45.8835 121.052 45.5568C121.189 45.2254 121.293 44.7661 121.364 44.179C121.44 43.5871 121.495 42.8343 121.528 41.9205L121.727 37.0909L128.999 37.0909L128.999 48L127.323 48L127.323 38.6534L123.318 38.6534L123.147 42.5455C123.109 43.4403 123.029 44.2287 122.906 44.9105C122.787 45.5876 122.605 46.1558 122.359 46.6151C122.117 47.0743 121.795 47.42 121.393 47.652C120.99 47.884 120.486 48 119.88 48L119.312 48ZM136.907 48.2273C135.922 48.2273 135.058 47.9929 134.314 47.5242C133.576 47.0554 132.998 46.3996 132.581 45.5568C132.169 44.714 131.963 43.7292 131.963 42.6023C131.963 41.4659 132.169 40.474 132.581 39.6264C132.998 38.7789 133.576 38.1207 134.314 37.652C135.058 37.1832 135.922 36.9489 136.907 36.9489C137.891 36.9489 138.753 37.1832 139.492 37.652C140.235 38.1207 140.813 38.7789 141.225 39.6264C141.641 40.474 141.85 41.4659 141.85 42.6023C141.85 43.7292 141.641 44.714 141.225 45.5568C140.813 46.3996 140.235 47.0554 139.492 47.5242C138.753 47.9929 137.891 48.2273 136.907 48.2273ZM136.907 46.7216C137.655 46.7216 138.27 46.5298 138.753 46.1463C139.236 45.7628 139.594 45.2585 139.826 44.6335C140.058 44.0085 140.174 43.3314 140.174 42.6023C140.174 41.8731 140.058 41.1937 139.826 40.5639C139.594 39.9342 139.236 39.4252 138.753 39.0369C138.27 38.6487 137.655 38.4546 136.907 38.4546C136.158 38.4546 135.543 38.6487 135.06 39.0369C134.577 39.4252 134.22 39.9342 133.988 40.5639C133.755 41.1937 133.639 41.8731 133.639 42.6023C133.639 43.3314 133.755 44.0085 133.988 44.6335C134.22 45.2585 134.577 45.7628 135.06 46.1463C135.543 46.5298 136.158 46.7216 136.907 46.7216ZM144.808 48L144.808 37.0909L149.269 37.0909C150.443 37.0909 151.376 37.3561 152.067 37.8864C152.758 38.4167 153.104 39.1174 153.104 39.9886C153.104 40.6515 152.907 41.1653 152.514 41.5298C152.121 41.8897 151.617 42.1335 151.001 42.2614C151.404 42.3182 151.795 42.4602 152.173 42.6875C152.557 42.9148 152.874 43.2273 153.125 43.625C153.376 44.018 153.501 44.501 153.501 45.0739C153.501 45.6326 153.359 46.1321 153.075 46.5724C152.791 47.0128 152.384 47.3608 151.854 47.6165C151.323 47.8722 150.689 48 149.95 48L144.808 48ZM146.399 46.4659L149.95 46.4659C150.528 46.4659 150.98 46.3286 151.307 46.054C151.634 45.7794 151.797 45.4053 151.797 44.9318C151.797 44.3684 151.634 43.9257 151.307 43.6037C150.98 43.277 150.528 43.1136 149.95 43.1136L146.399 43.1136L146.399 46.4659ZM146.399 41.6648L149.269 41.6648C149.718 41.6648 150.104 41.6032 150.426 41.4801C150.748 41.3523 150.994 41.1724 151.165 40.9403C151.34 40.7036 151.428 40.4242 151.428 40.1023C151.428 39.643 151.236 39.2831 150.852 39.0227C150.469 38.7576 149.941 38.625 149.269 38.625L146.399 38.625L146.399 41.6648ZM45.7614 76L45.7614 61.4545L47.5227 61.4545L47.5227 67.9318L55.2784 67.9318L55.2784 61.4545L57.0398 61.4545L57.0398 76L55.2784 76L55.2784 69.4943L47.5227 69.4943L47.5227 76L45.7614 76ZM62.4149 73.5284L67.6706 65.0909L69.6024 65.0909L69.6024 76L67.9263 76L67.9263 67.5625L62.699 76L60.7388 76L60.7388 65.0909L62.4149 65.0909L62.4149 73.5284ZM73.0724 76L73.0724 65.0909L74.7485 65.0909L74.7485 69.8352L75.8565 69.8352L79.7769 65.0909L81.936 65.0909L77.5326 70.3466L81.9928 76L79.8337 76L76.2542 71.3977L74.7485 71.3977L74.7485 76L73.0724 76ZM85.8907 73.5284L91.1464 65.0909L93.0782 65.0909L93.0782 76L91.4021 76L91.4021 67.5625L86.1748 76L84.2146 76L84.2146 65.0909L85.8907 65.0909L85.8907 73.5284ZM95.0638 66.6534L95.0638 65.0909L103.927 65.0909L103.927 66.6534L100.348 66.6534L100.348 76L98.6717 76L98.6717 66.6534L95.0638 66.6534ZM109.416 76.2557C108.725 76.2557 108.098 76.1255 107.534 75.8651C106.971 75.5999 106.523 75.2188 106.192 74.7216C105.86 74.2197 105.695 73.6136 105.695 72.9034C105.695 72.2784 105.818 71.7718 106.064 71.3835C106.31 70.9905 106.639 70.6828 107.051 70.4602C107.463 70.2377 107.918 70.072 108.415 69.9631C108.917 69.8494 109.421 69.7595 109.928 69.6932C110.59 69.608 111.128 69.544 111.54 69.5014C111.956 69.4541 112.259 69.376 112.449 69.267C112.643 69.1581 112.74 68.9688 112.74 68.6989L112.74 68.642C112.74 67.9413 112.548 67.3968 112.165 67.0085C111.786 66.6203 111.211 66.4261 110.439 66.4261C109.639 66.4261 109.011 66.6013 108.557 66.9517C108.102 67.3021 107.783 67.6761 107.598 68.0739L106.007 67.5057C106.291 66.8428 106.67 66.3267 107.143 65.9574C107.622 65.5833 108.143 65.3229 108.706 65.1761C109.274 65.0246 109.833 64.9489 110.382 64.9489C110.732 64.9489 111.135 64.9915 111.589 65.0767C112.049 65.1572 112.491 65.3253 112.918 65.581C113.348 65.8367 113.706 66.2225 113.99 66.7386C114.274 67.2547 114.416 67.946 114.416 68.8125L114.416 76L112.74 76L112.74 74.5227L112.655 74.5227C112.541 74.7595 112.352 75.0128 112.087 75.2827C111.821 75.5526 111.469 75.7822 111.028 75.9716C110.588 76.161 110.051 76.2557 109.416 76.2557ZM109.672 74.75C110.335 74.75 110.893 74.6198 111.348 74.3594C111.807 74.099 112.153 73.7628 112.385 73.3509C112.622 72.9389 112.74 72.5057 112.74 72.0511L112.74 70.517C112.669 70.6023 112.513 70.6804 112.271 70.7514C112.035 70.8177 111.76 70.8769 111.447 70.929C111.14 70.9763 110.839 71.0189 110.545 71.0568C110.257 71.09 110.022 71.1184 109.842 71.142C109.407 71.1989 109 71.2912 108.621 71.419C108.247 71.5421 107.944 71.7292 107.712 71.9801C107.484 72.2263 107.371 72.5625 107.371 72.9886C107.371 73.571 107.586 74.0114 108.017 74.3097C108.453 74.6032 109.004 74.75 109.672 74.75Z" fill="#2B4554"/>
<path d="M44 96L224 96" stroke="#2B4554" stroke-width="1.8" stroke-linecap="round"/>
<path d="M45.4091 123L45.4091 111.364L52.3864 111.364L52.3864 112.614L46.8182 112.614L46.8182 116.545L51.8636 116.545L51.8636 117.795L46.8182 117.795L46.8182 123L45.4091 123ZM59.571 119.432L59.571 114.273L60.9119 114.273L60.9119 123L59.571 123L59.571 121.523L59.4801 121.523C59.2756 121.966 58.9574 122.343 58.5256 122.653C58.0937 122.96 57.5483 123.114 56.8892 123.114C56.3437 123.114 55.8589 122.994 55.4347 122.756C55.0104 122.513 54.6771 122.15 54.4347 121.665C54.1922 121.176 54.071 120.561 54.071 119.818L54.071 114.273L55.4119 114.273L55.4119 119.727C55.4119 120.364 55.59 120.871 55.946 121.25C56.3059 121.629 56.7642 121.818 57.321 121.818C57.6544 121.818 57.9934 121.733 58.3381 121.563C58.6866 121.392 58.9782 121.131 59.2131 120.778C59.4517 120.426 59.571 119.977 59.571 119.432ZM64.7088 111.364L64.7088 123L63.3679 123L63.3679 111.364L64.7088 111.364ZM68.5057 111.364L68.5057 123L67.1648 123L67.1648 111.364L68.5057 111.364ZM77.1435 116.227L75.9389 116.568C75.8632 116.367 75.7514 116.172 75.6037 115.983C75.4598 115.79 75.2628 115.631 75.0128 115.506C74.7628 115.381 74.4427 115.318 74.0526 115.318C73.5185 115.318 73.0734 115.441 72.7173 115.688C72.3651 115.93 72.1889 116.239 72.1889 116.614C72.1889 116.947 72.3101 117.21 72.5526 117.403C72.795 117.597 73.1738 117.758 73.6889 117.886L74.9844 118.205C75.7647 118.394 76.3461 118.684 76.7287 119.074C77.1113 119.46 77.3026 119.958 77.3026 120.568C77.3026 121.068 77.1586 121.515 76.8707 121.909C76.5866 122.303 76.1889 122.614 75.6776 122.841C75.1662 123.068 74.5715 123.182 73.8935 123.182C73.0033 123.182 72.2666 122.989 71.6832 122.602C71.0999 122.216 70.7306 121.652 70.5753 120.909L71.848 120.591C71.9692 121.061 72.1984 121.413 72.5355 121.648C72.8764 121.883 73.3215 122 73.8707 122C74.4957 122 74.992 121.867 75.3594 121.602C75.7306 121.333 75.9162 121.011 75.9162 120.636C75.9162 120.333 75.8101 120.08 75.598 119.875C75.3859 119.667 75.0601 119.511 74.6207 119.409L73.1662 119.068C72.367 118.879 71.7798 118.585 71.4048 118.188C71.0336 117.786 70.848 117.284 70.848 116.682C70.848 116.189 70.9863 115.754 71.2628 115.375C71.5431 114.996 71.9238 114.699 72.4048 114.483C72.8897 114.267 73.4389 114.159 74.0526 114.159C74.9162 114.159 75.5942 114.348 76.0866 114.727C76.5829 115.106 76.9351 115.606 77.1435 116.227ZM83.1165 114.273L83.1165 115.409L78.5937 115.409L78.5937 114.273L83.1165 114.273ZM79.9119 112.182L81.2528 112.182L81.2528 120.5C81.2528 120.879 81.3078 121.163 81.4176 121.352C81.5312 121.538 81.6752 121.663 81.8494 121.727C82.0275 121.788 82.215 121.818 82.4119 121.818C82.5597 121.818 82.6809 121.811 82.7756 121.795C82.8703 121.777 82.946 121.761 83.0028 121.75L83.2756 122.955C83.1847 122.989 83.0578 123.023 82.8949 123.057C82.732 123.095 82.5256 123.114 82.2756 123.114C81.8968 123.114 81.5256 123.032 81.1619 122.869C80.8021 122.706 80.5028 122.458 80.2642 122.125C80.0294 121.792 79.9119 121.371 79.9119 120.864L79.9119 112.182ZM87.7017 123.205C87.1487 123.205 86.6468 123.1 86.196 122.892C85.7453 122.68 85.3873 122.375 85.1222 121.977C84.857 121.576 84.7244 121.091 84.7244 120.523C84.7244 120.023 84.8229 119.617 85.0199 119.307C85.2169 118.992 85.4801 118.746 85.8097 118.568C86.1392 118.39 86.5028 118.258 86.9006 118.17C87.3021 118.08 87.7055 118.008 88.1108 117.955C88.6411 117.886 89.071 117.835 89.4006 117.801C89.7339 117.763 89.9763 117.701 90.1278 117.614C90.2831 117.527 90.3608 117.375 90.3608 117.159L90.3608 117.114C90.3608 116.553 90.2074 116.117 89.9006 115.807C89.5975 115.496 89.1373 115.341 88.5199 115.341C87.8797 115.341 87.3778 115.481 87.0142 115.761C86.6506 116.042 86.3949 116.341 86.2472 116.659L84.9744 116.205C85.2017 115.674 85.5047 115.261 85.8835 114.966C86.2661 114.667 86.6828 114.458 87.1335 114.341C87.5881 114.22 88.035 114.159 88.4744 114.159C88.7547 114.159 89.0767 114.193 89.4403 114.261C89.8078 114.326 90.1619 114.46 90.5028 114.665C90.8475 114.869 91.1335 115.178 91.3608 115.591C91.5881 116.004 91.7017 116.557 91.7017 117.25L91.7017 123L90.3608 123L90.3608 121.818L90.2926 121.818C90.2017 122.008 90.0502 122.21 89.8381 122.426C89.6259 122.642 89.3437 122.826 88.9915 122.977C88.6392 123.129 88.2093 123.205 87.7017 123.205ZM87.9062 122C88.4366 122 88.8835 121.896 89.2472 121.688C89.6146 121.479 89.8911 121.21 90.0767 120.881C90.2661 120.551 90.3608 120.205 90.3608 119.841L90.3608 118.614C90.304 118.682 90.179 118.744 89.9858 118.801C89.7964 118.854 89.5767 118.902 89.3267 118.943C89.0805 118.981 88.84 119.015 88.6051 119.045C88.3741 119.072 88.1866 119.095 88.0426 119.114C87.6941 119.159 87.3684 119.233 87.0653 119.335C86.7661 119.434 86.5237 119.583 86.3381 119.784C86.1562 119.981 86.0653 120.25 86.0653 120.591C86.0653 121.057 86.2377 121.409 86.5824 121.648C86.9309 121.883 87.3722 122 87.9062 122ZM97.6946 123.182C96.8764 123.182 96.1719 122.989 95.581 122.602C94.9901 122.216 94.5355 121.684 94.2173 121.006C93.8991 120.328 93.7401 119.553 93.7401 118.682C93.7401 117.795 93.9029 117.013 94.2287 116.335C94.5582 115.653 95.0166 115.121 95.6037 114.739C96.1946 114.352 96.884 114.159 97.6719 114.159C98.2855 114.159 98.8385 114.273 99.331 114.5C99.8234 114.727 100.227 115.045 100.541 115.455C100.856 115.864 101.051 116.341 101.126 116.886L99.7855 116.886C99.6832 116.489 99.456 116.136 99.1037 115.83C98.7552 115.519 98.2855 115.364 97.6946 115.364C97.1719 115.364 96.7135 115.5 96.3196 115.773C95.9295 116.042 95.6245 116.422 95.4048 116.915C95.1889 117.403 95.081 117.977 95.081 118.636C95.081 119.311 95.187 119.898 95.3991 120.398C95.6151 120.898 95.9181 121.286 96.3082 121.563C96.7022 121.839 97.1643 121.977 97.6946 121.977C98.0431 121.977 98.3594 121.917 98.6435 121.795C98.9276 121.674 99.1681 121.5 99.3651 121.273C99.562 121.045 99.7022 120.773 99.7855 120.455L101.126 120.455C101.051 120.97 100.863 121.434 100.564 121.847C100.268 122.256 99.8764 122.581 99.3878 122.824C98.9029 123.063 98.3385 123.182 97.6946 123.182ZM104.337 119.818L104.314 118.159L104.587 118.159L108.405 114.273L110.064 114.273L105.996 118.386L105.882 118.386L104.337 119.818ZM103.087 123L103.087 111.364L104.428 111.364L104.428 123L103.087 123ZM108.632 123L105.223 118.682L106.178 117.75L110.337 123L108.632 123ZM116.29 126.273L116.29 114.273L117.585 114.273L117.585 115.659L117.744 115.659C117.843 115.508 117.979 115.314 118.153 115.08C118.331 114.841 118.585 114.629 118.915 114.443C119.248 114.254 119.699 114.159 120.267 114.159C121.002 114.159 121.65 114.343 122.21 114.71C122.771 115.078 123.208 115.598 123.523 116.273C123.837 116.947 123.994 117.742 123.994 118.659C123.994 119.583 123.837 120.384 123.523 121.063C123.208 121.737 122.773 122.259 122.216 122.631C121.659 122.998 121.017 123.182 120.29 123.182C119.729 123.182 119.28 123.089 118.943 122.903C118.606 122.714 118.347 122.5 118.165 122.261C117.983 122.019 117.843 121.818 117.744 121.659L117.631 121.659L117.631 126.273L116.29 126.273ZM117.608 118.636C117.608 119.295 117.705 119.877 117.898 120.381C118.091 120.881 118.373 121.273 118.744 121.557C119.116 121.837 119.57 121.977 120.108 121.977C120.669 121.977 121.136 121.83 121.511 121.534C121.89 121.235 122.174 120.833 122.364 120.33C122.557 119.822 122.653 119.258 122.653 118.636C122.653 118.023 122.559 117.47 122.369 116.977C122.184 116.481 121.902 116.089 121.523 115.801C121.148 115.509 120.676 115.364 120.108 115.364C119.562 115.364 119.104 115.502 118.733 115.778C118.362 116.051 118.081 116.434 117.892 116.926C117.703 117.415 117.608 117.985 117.608 118.636ZM128.608 123.205C128.055 123.205 127.553 123.1 127.102 122.892C126.652 122.68 126.294 122.375 126.028 121.977C125.763 121.576 125.631 121.091 125.631 120.523C125.631 120.023 125.729 119.617 125.926 119.307C126.123 118.992 126.386 118.746 126.716 118.568C127.045 118.39 127.409 118.258 127.807 118.17C128.208 118.08 128.612 118.008 129.017 117.955C129.547 117.886 129.977 117.835 130.307 117.801C130.64 117.763 130.883 117.701 131.034 117.614C131.189 117.527 131.267 117.375 131.267 117.159L131.267 117.114C131.267 116.553 131.114 116.117 130.807 115.807C130.504 115.496 130.044 115.341 129.426 115.341C128.786 115.341 128.284 115.481 127.92 115.761C127.557 116.042 127.301 116.341 127.153 116.659L125.881 116.205C126.108 115.674 126.411 115.261 126.79 114.966C127.172 114.667 127.589 114.458 128.04 114.341C128.494 114.22 128.941 114.159 129.381 114.159C129.661 114.159 129.983 114.193 130.347 114.261C130.714 114.326 131.068 114.46 131.409 114.665C131.754 114.869 132.04 115.178 132.267 115.591C132.494 116.004 132.608 116.557 132.608 117.25L132.608 123L131.267 123L131.267 121.818L131.199 121.818C131.108 122.008 130.956 122.21 130.744 122.426C130.532 122.642 130.25 122.826 129.898 122.977C129.545 123.129 129.116 123.205 128.608 123.205ZM128.812 122C129.343 122 129.79 121.896 130.153 121.688C130.521 121.479 130.797 121.21 130.983 120.881C131.172 120.551 131.267 120.205 131.267 119.841L131.267 118.614C131.21 118.682 131.085 118.744 130.892 118.801C130.703 118.854 130.483 118.902 130.233 118.943C129.987 118.981 129.746 119.015 129.511 119.045C129.28 119.072 129.093 119.095 128.949 119.114C128.6 119.159 128.275 119.233 127.972 119.335C127.672 119.434 127.43 119.583 127.244 119.784C127.062 119.981 126.972 120.25 126.972 120.591C126.972 121.057 127.144 121.409 127.489 121.648C127.837 121.883 128.278 122 128.812 122ZM134.51 120.773L135.942 120.773C135.972 121.167 136.15 121.466 136.476 121.67C136.805 121.875 137.233 121.977 137.76 121.977C138.298 121.977 138.758 121.867 139.141 121.648C139.523 121.424 139.714 121.064 139.714 120.568C139.714 120.277 139.643 120.023 139.499 119.807C139.355 119.587 139.152 119.417 138.891 119.295C138.629 119.174 138.321 119.114 137.964 119.114L136.464 119.114L136.464 117.909L137.964 117.909C138.499 117.909 138.893 117.788 139.146 117.545C139.404 117.303 139.533 117 139.533 116.636C139.533 116.246 139.394 115.934 139.118 115.699C138.841 115.46 138.449 115.341 137.942 115.341C137.43 115.341 137.004 115.456 136.663 115.688C136.322 115.915 136.143 116.208 136.124 116.568L134.714 116.568C134.73 116.098 134.874 115.684 135.146 115.324C135.419 114.96 135.79 114.676 136.26 114.472C136.73 114.263 137.268 114.159 137.874 114.159C138.487 114.159 139.019 114.267 139.47 114.483C139.925 114.695 140.275 114.985 140.521 115.352C140.771 115.716 140.896 116.129 140.896 116.591C140.896 117.083 140.758 117.481 140.482 117.784C140.205 118.087 139.858 118.303 139.442 118.432L139.442 118.523C139.771 118.545 140.057 118.652 140.3 118.841C140.546 119.027 140.737 119.271 140.874 119.574C141.01 119.873 141.078 120.205 141.078 120.568C141.078 121.098 140.936 121.561 140.652 121.955C140.368 122.345 139.978 122.648 139.482 122.864C138.985 123.076 138.419 123.182 137.783 123.182C137.165 123.182 136.612 123.081 136.124 122.881C135.635 122.676 135.247 122.394 134.959 122.034C134.675 121.67 134.525 121.25 134.51 120.773ZM142.962 126.273L142.962 114.273L144.257 114.273L144.257 115.659L144.416 115.659C144.515 115.508 144.651 115.314 144.825 115.08C145.003 114.841 145.257 114.629 145.587 114.443C145.92 114.254 146.371 114.159 146.939 114.159C147.674 114.159 148.321 114.343 148.882 114.71C149.443 115.078 149.88 115.598 150.195 116.273C150.509 116.947 150.666 117.742 150.666 118.659C150.666 119.583 150.509 120.384 150.195 121.063C149.88 121.737 149.445 122.259 148.888 122.631C148.331 122.998 147.689 123.182 146.962 123.182C146.401 123.182 145.952 123.089 145.615 122.903C145.278 122.714 145.018 122.5 144.837 122.261C144.655 122.019 144.515 121.818 144.416 121.659L144.303 121.659L144.303 126.273L142.962 126.273ZM144.28 118.636C144.28 119.295 144.376 119.877 144.57 120.381C144.763 120.881 145.045 121.273 145.416 121.557C145.787 121.837 146.242 121.977 146.78 121.977C147.34 121.977 147.808 121.83 148.183 121.534C148.562 121.235 148.846 120.833 149.036 120.33C149.229 119.822 149.325 119.258 149.325 118.636C149.325 118.023 149.231 117.47 149.041 116.977C148.856 116.481 148.573 116.089 148.195 115.801C147.82 115.509 147.348 115.364 146.78 115.364C146.234 115.364 145.776 115.502 145.405 115.778C145.034 116.051 144.753 116.434 144.564 116.926C144.375 117.415 144.28 117.985 144.28 118.636ZM155.28 123.205C154.727 123.205 154.225 123.1 153.774 122.892C153.323 122.68 152.965 122.375 152.7 121.977C152.435 121.576 152.303 121.091 152.303 120.523C152.303 120.023 152.401 119.617 152.598 119.307C152.795 118.992 153.058 118.746 153.388 118.568C153.717 118.39 154.081 118.258 154.479 118.17C154.88 118.08 155.284 118.008 155.689 117.955C156.219 117.886 156.649 117.835 156.979 117.801C157.312 117.763 157.554 117.701 157.706 117.614C157.861 117.527 157.939 117.375 157.939 117.159L157.939 117.114C157.939 116.553 157.786 116.117 157.479 115.807C157.176 115.496 156.715 115.341 156.098 115.341C155.458 115.341 154.956 115.481 154.592 115.761C154.229 116.042 153.973 116.341 153.825 116.659L152.553 116.205C152.78 115.674 153.083 115.261 153.462 114.966C153.844 114.667 154.261 114.458 154.712 114.341C155.166 114.22 155.613 114.159 156.053 114.159C156.333 114.159 156.655 114.193 157.018 114.261C157.386 114.326 157.74 114.46 158.081 114.665C158.426 114.869 158.712 115.178 158.939 115.591C159.166 116.004 159.28 116.557 159.28 117.25L159.28 123L157.939 123L157.939 121.818L157.871 121.818C157.78 122.008 157.628 122.21 157.416 122.426C157.204 122.642 156.922 122.826 156.57 122.977C156.217 123.129 155.787 123.205 155.28 123.205ZM155.484 122C156.015 122 156.462 121.896 156.825 121.688C157.193 121.479 157.469 121.21 157.655 120.881C157.844 120.551 157.939 120.205 157.939 119.841L157.939 118.614C157.882 118.682 157.757 118.744 157.564 118.801C157.375 118.854 157.155 118.902 156.905 118.943C156.659 118.981 156.418 119.015 156.183 119.045C155.952 119.072 155.765 119.095 155.621 119.114C155.272 119.159 154.946 119.233 154.643 119.335C154.344 119.434 154.102 119.583 153.916 119.784C153.734 119.981 153.643 120.25 153.643 120.591C153.643 121.057 153.816 121.409 154.161 121.648C154.509 121.883 154.95 122 155.484 122ZM168.205 111L168.886 111.818C168.621 112.076 168.314 112.256 167.966 112.358C167.617 112.46 167.223 112.523 166.784 112.545C166.345 112.568 165.856 112.591 165.318 112.614C164.712 112.636 164.21 112.784 163.812 113.057C163.415 113.33 163.108 113.723 162.892 114.239C162.676 114.754 162.538 115.386 162.477 116.136L162.591 116.136C162.886 115.591 163.295 115.189 163.818 114.932C164.341 114.674 164.902 114.545 165.5 114.545C166.182 114.545 166.795 114.705 167.341 115.023C167.886 115.341 168.318 115.813 168.636 116.438C168.955 117.063 169.114 117.833 169.114 118.75C169.114 119.663 168.951 120.451 168.625 121.114C168.303 121.777 167.85 122.288 167.267 122.648C166.687 123.004 166.008 123.182 165.227 123.182C164.447 123.182 163.763 122.998 163.176 122.631C162.589 122.259 162.133 121.71 161.807 120.983C161.481 120.252 161.318 119.348 161.318 118.273L161.318 117.341C161.318 115.398 161.648 113.924 162.307 112.92C162.97 111.917 163.966 111.398 165.295 111.364C165.765 111.348 166.184 111.345 166.551 111.352C166.919 111.36 167.239 111.343 167.511 111.301C167.784 111.259 168.015 111.159 168.205 111ZM165.227 121.977C165.754 121.977 166.206 121.845 166.585 121.58C166.968 121.314 167.261 120.941 167.466 120.46C167.67 119.975 167.773 119.405 167.773 118.75C167.773 118.114 167.669 117.572 167.46 117.125C167.256 116.678 166.962 116.337 166.58 116.102C166.197 115.867 165.739 115.75 165.205 115.75C164.814 115.75 164.464 115.816 164.153 115.949C163.843 116.081 163.578 116.277 163.358 116.534C163.138 116.792 162.968 117.106 162.847 117.477C162.729 117.848 162.667 118.273 162.659 118.75C162.659 119.727 162.888 120.509 163.347 121.097C163.805 121.684 164.432 121.977 165.227 121.977ZM174.71 123.182C173.922 123.182 173.231 122.994 172.636 122.619C172.045 122.244 171.583 121.72 171.25 121.045C170.92 120.371 170.756 119.583 170.756 118.682C170.756 117.773 170.92 116.979 171.25 116.301C171.583 115.623 172.045 115.097 172.636 114.722C173.231 114.347 173.922 114.159 174.71 114.159C175.498 114.159 176.187 114.347 176.778 114.722C177.373 115.097 177.835 115.623 178.165 116.301C178.498 116.979 178.665 117.773 178.665 118.682C178.665 119.583 178.498 120.371 178.165 121.045C177.835 121.72 177.373 122.244 176.778 122.619C176.187 122.994 175.498 123.182 174.71 123.182ZM174.71 121.977C175.309 121.977 175.801 121.824 176.187 121.517C176.574 121.21 176.86 120.807 177.045 120.307C177.231 119.807 177.324 119.265 177.324 118.682C177.324 118.098 177.231 117.555 177.045 117.051C176.86 116.547 176.574 116.14 176.187 115.83C175.801 115.519 175.309 115.364 174.71 115.364C174.112 115.364 173.619 115.519 173.233 115.83C172.847 116.14 172.561 116.547 172.375 117.051C172.189 117.555 172.097 118.098 172.097 118.682C172.097 119.265 172.189 119.807 172.375 120.307C172.561 120.807 172.847 121.21 173.233 121.517C173.619 121.824 174.112 121.977 174.71 121.977ZM179.571 115.523L179.571 114.273L186.662 114.273L186.662 115.523L183.798 115.523L183.798 123L182.457 123L182.457 115.523L179.571 115.523ZM194.892 114.273L194.892 123L193.551 123L193.551 114.273L194.892 114.273ZM194.369 118.432L194.369 119.682C194.066 119.795 193.765 119.896 193.466 119.983C193.167 120.066 192.852 120.133 192.523 120.182C192.193 120.227 191.831 120.25 191.437 120.25C190.449 120.25 189.655 119.983 189.057 119.449C188.462 118.915 188.165 118.114 188.165 117.045L188.165 114.25L189.506 114.25L189.506 117.045C189.506 117.492 189.591 117.86 189.761 118.148C189.932 118.436 190.163 118.65 190.455 118.79C190.746 118.93 191.074 119 191.437 119C192.006 119 192.519 118.949 192.977 118.847C193.439 118.741 193.903 118.602 194.369 118.432ZM198.693 121.023L202.898 114.273L204.443 114.273L204.443 123L203.102 123L203.102 116.25L198.92 123L197.352 123L197.352 114.273L198.693 114.273L198.693 121.023ZM206.899 123L206.899 114.273L208.24 114.273L208.24 118.068L209.126 118.068L212.263 114.273L213.99 114.273L210.467 118.477L214.036 123L212.308 123L209.445 119.318L208.24 119.318L208.24 123L206.899 123Z" fill="#2B4554"/>
<path d="M44.8693 137.315L44.8693 135.909L54.6875 135.909L54.6875 137.315L50.571 137.315L50.571 149L48.9858 149L48.9858 137.315L44.8693 137.315ZM59.6222 149.205C58.6761 149.205 57.8601 148.996 57.174 148.578C56.4922 148.156 55.9659 147.568 55.5952 146.814C55.2287 146.055 55.0455 145.173 55.0455 144.168C55.0455 143.162 55.2287 142.276 55.5952 141.509C55.9659 140.737 56.4815 140.136 57.142 139.706C57.8068 139.271 58.5824 139.054 59.4687 139.054C59.9801 139.054 60.4851 139.139 60.9837 139.31C61.4822 139.48 61.9361 139.757 62.3452 140.141C62.7543 140.52 63.0803 141.023 63.3232 141.649C63.5661 142.276 63.6875 143.047 63.6875 143.963L63.6875 144.602L56.1193 144.602L56.1193 143.298L62.1534 143.298C62.1534 142.744 62.0426 142.25 61.821 141.815C61.6037 141.381 61.2926 141.038 60.8878 140.786C60.4872 140.535 60.0142 140.409 59.4687 140.409C58.8679 140.409 58.348 140.558 57.9091 140.857C57.4744 141.151 57.1399 141.534 56.9055 142.007C56.6712 142.48 56.554 142.987 56.554 143.528L56.554 144.398C56.554 145.139 56.6818 145.768 56.9375 146.283C57.1974 146.795 57.5575 147.185 58.0178 147.453C58.478 147.717 59.0128 147.849 59.6222 147.849C60.0185 147.849 60.3764 147.794 60.696 147.683C61.0199 147.568 61.299 147.398 61.5334 147.172C61.7678 146.942 61.9489 146.656 62.0767 146.315L63.5341 146.724C63.3807 147.219 63.1229 147.653 62.7607 148.028C62.3984 148.399 61.951 148.689 61.4183 148.898C60.8857 149.102 60.2869 149.205 59.6222 149.205ZM68.8714 149.23C68.2493 149.23 67.6847 149.113 67.1776 148.879C66.6705 148.64 66.2678 148.297 65.9695 147.849C65.6712 147.398 65.522 146.852 65.522 146.213C65.522 145.651 65.6328 145.195 65.8544 144.845C66.076 144.491 66.3722 144.214 66.7429 144.014C67.1136 143.814 67.5227 143.665 67.9702 143.567C68.4219 143.464 68.8757 143.384 69.3317 143.324C69.9283 143.247 70.4119 143.19 70.7827 143.151C71.1577 143.109 71.4304 143.038 71.6009 142.94C71.7756 142.842 71.8629 142.672 71.8629 142.429L71.8629 142.378C71.8629 141.747 71.6903 141.257 71.3452 140.908C71.0043 140.558 70.4865 140.384 69.7919 140.384C69.0717 140.384 68.5071 140.541 68.098 140.857C67.6889 141.172 67.4013 141.509 67.2351 141.866L65.8033 141.355C66.0589 140.759 66.3999 140.294 66.826 139.962C67.2564 139.625 67.7251 139.391 68.2322 139.259C68.7436 139.122 69.2464 139.054 69.7408 139.054C70.0561 139.054 70.4183 139.092 70.8274 139.169C71.2408 139.241 71.6392 139.393 72.0227 139.623C72.4105 139.853 72.7322 140.2 72.9879 140.665C73.2436 141.129 73.3714 141.751 73.3714 142.531L73.3714 149L71.8629 149L71.8629 147.67L71.7862 147.67C71.6839 147.884 71.5135 148.112 71.2749 148.354C71.0362 148.597 70.7187 148.804 70.3224 148.974C69.9261 149.145 69.4425 149.23 68.8714 149.23ZM69.1016 147.875C69.6982 147.875 70.201 147.758 70.6101 147.523C71.0234 147.289 71.3345 146.987 71.5433 146.616C71.7564 146.245 71.8629 145.855 71.8629 145.446L71.8629 144.065C71.799 144.142 71.6584 144.212 71.4411 144.276C71.228 144.336 70.9808 144.389 70.6996 144.436C70.4226 144.479 70.152 144.517 69.8878 144.551C69.6278 144.581 69.4169 144.607 69.255 144.628C68.8629 144.679 68.4964 144.762 68.1555 144.877C67.8189 144.988 67.5462 145.156 67.3374 145.382C67.1328 145.604 67.0305 145.906 67.0305 146.29C67.0305 146.814 67.2244 147.21 67.6122 147.479C68.0043 147.743 68.5007 147.875 69.1016 147.875ZM76.1248 149L76.1248 139.182L77.5822 139.182L77.5822 140.716L77.71 140.716C77.9146 140.192 78.2449 139.785 78.7008 139.495C79.1568 139.201 79.7044 139.054 80.3436 139.054C80.9913 139.054 81.5304 139.201 81.9608 139.495C82.3954 139.785 82.7342 140.192 82.9771 140.716L83.0794 140.716C83.3308 140.209 83.7079 139.806 84.2108 139.508C84.7136 139.205 85.3166 139.054 86.0197 139.054C86.8975 139.054 87.6156 139.329 88.1738 139.879C88.7321 140.424 89.0112 141.274 89.0112 142.429L89.0112 149L87.5027 149L87.5027 142.429C87.5027 141.705 87.3045 141.187 86.9082 140.876C86.5119 140.565 86.0453 140.409 85.5083 140.409C84.818 140.409 84.2832 140.618 83.9039 141.036C83.5247 141.449 83.335 141.973 83.335 142.608L83.335 149L81.801 149L81.801 142.276C81.801 141.717 81.6199 141.268 81.2576 140.927C80.8954 140.582 80.4288 140.409 79.8578 140.409C79.4657 140.409 79.0993 140.513 78.7583 140.722C78.4217 140.931 78.149 141.221 77.9402 141.592C77.7356 141.958 77.6333 142.382 77.6333 142.864L77.6333 149L76.1248 149ZM98.3404 135.909L98.3404 149L96.8319 149L96.8319 135.909L98.3404 135.909ZM105.22 149.205C104.274 149.205 103.458 148.996 102.772 148.578C102.09 148.156 101.564 147.568 101.193 146.814C100.826 146.055 100.643 145.173 100.643 144.168C100.643 143.162 100.826 142.276 101.193 141.509C101.564 140.737 102.079 140.136 102.74 139.706C103.404 139.271 104.18 139.054 105.066 139.054C105.578 139.054 106.083 139.139 106.581 139.31C107.08 139.48 107.534 139.757 107.943 140.141C108.352 140.52 108.678 141.023 108.921 141.649C109.164 142.276 109.285 143.047 109.285 143.963L109.285 144.602L101.717 144.602L101.717 143.298L107.751 143.298C107.751 142.744 107.64 142.25 107.419 141.815C107.201 141.381 106.89 141.038 106.485 140.786C106.085 140.535 105.612 140.409 105.066 140.409C104.466 140.409 103.946 140.558 103.507 140.857C103.072 141.151 102.738 141.534 102.503 142.007C102.269 142.48 102.152 142.987 102.152 143.528L102.152 144.398C102.152 145.139 102.279 145.768 102.535 146.283C102.795 146.795 103.155 147.185 103.615 147.453C104.076 147.717 104.61 147.849 105.22 147.849C105.616 147.849 105.974 147.794 106.294 147.683C106.618 147.568 106.897 147.398 107.131 147.172C107.365 146.942 107.547 146.656 107.674 146.315L109.132 146.724C108.978 147.219 108.721 147.653 108.358 148.028C107.996 148.399 107.549 148.689 107.016 148.898C106.483 149.102 105.885 149.205 105.22 149.205ZM114.469 149.23C113.847 149.23 113.282 149.113 112.775 148.879C112.268 148.64 111.865 148.297 111.567 147.849C111.269 147.398 111.12 146.852 111.12 146.213C111.12 145.651 111.23 145.195 111.452 144.845C111.674 144.491 111.97 144.214 112.341 144.014C112.711 143.814 113.12 143.665 113.568 143.567C114.02 143.464 114.473 143.384 114.929 143.324C115.526 143.247 116.01 143.19 116.38 143.151C116.755 143.109 117.028 143.038 117.199 142.94C117.373 142.842 117.461 142.672 117.461 142.429L117.461 142.378C117.461 141.747 117.288 141.257 116.943 140.908C116.602 140.558 116.084 140.384 115.39 140.384C114.669 140.384 114.105 140.541 113.696 140.857C113.287 141.172 112.999 141.509 112.833 141.866L111.401 141.355C111.657 140.759 111.998 140.294 112.424 139.962C112.854 139.625 113.323 139.391 113.83 139.259C114.341 139.122 114.844 139.054 115.338 139.054C115.654 139.054 116.016 139.092 116.425 139.169C116.838 139.241 117.237 139.393 117.62 139.623C118.008 139.853 118.33 140.2 118.586 140.665C118.841 141.129 118.969 141.751 118.969 142.531L118.969 149L117.461 149L117.461 147.67L117.384 147.67C117.282 147.884 117.111 148.112 116.873 148.354C116.634 148.597 116.316 148.804 115.92 148.974C115.524 149.145 115.04 149.23 114.469 149.23ZM114.699 147.875C115.296 147.875 115.799 147.758 116.208 147.523C116.621 147.289 116.932 146.987 117.141 146.616C117.354 146.245 117.461 145.855 117.461 145.446L117.461 144.065C117.397 144.142 117.256 144.212 117.039 144.276C116.826 144.336 116.578 144.389 116.297 144.436C116.02 144.479 115.75 144.517 115.485 144.551C115.225 144.581 115.015 144.607 114.853 144.628C114.461 144.679 114.094 144.762 113.753 144.877C113.417 144.988 113.144 145.156 112.935 145.382C112.73 145.604 112.628 145.906 112.628 146.29C112.628 146.814 112.822 147.21 113.21 147.479C113.602 147.743 114.098 147.875 114.699 147.875ZM125.43 149.205C124.612 149.205 123.889 148.998 123.263 148.585C122.637 148.167 122.146 147.579 121.793 146.82C121.439 146.058 121.262 145.156 121.262 144.116C121.262 143.085 121.439 142.19 121.793 141.432C122.146 140.673 122.639 140.087 123.269 139.674C123.9 139.261 124.629 139.054 125.455 139.054C126.095 139.054 126.6 139.161 126.97 139.374C127.345 139.582 127.631 139.821 127.827 140.089C128.027 140.354 128.183 140.571 128.294 140.741L128.421 140.741L128.421 135.909L129.93 135.909L129.93 149L128.472 149L128.472 147.491L128.294 147.491C128.183 147.67 128.025 147.896 127.82 148.169C127.616 148.438 127.324 148.678 126.945 148.891C126.566 149.1 126.061 149.205 125.43 149.205ZM125.634 147.849C126.24 147.849 126.751 147.692 127.169 147.376C127.586 147.057 127.904 146.616 128.121 146.053C128.338 145.487 128.447 144.832 128.447 144.091C128.447 143.358 128.34 142.717 128.127 142.167C127.914 141.613 127.599 141.183 127.181 140.876C126.764 140.565 126.248 140.409 125.634 140.409C124.995 140.409 124.463 140.573 124.036 140.901C123.615 141.225 123.297 141.666 123.084 142.224C122.875 142.778 122.771 143.401 122.771 144.091C122.771 144.79 122.877 145.425 123.09 145.996C123.308 146.563 123.627 147.014 124.049 147.351C124.475 147.683 125.004 147.849 125.634 147.849Z" fill="#4C7B96"/>
</g>
<defs>
<clipPath id="clip0_1031_3690">
<rect width="180" height="270" fill="white" transform="translate(0 180) rotate(-90)"/>
</clipPath>
</defs>
</svg>
