<svg width="270" height="180" viewBox="0 0 270 180" fill="none" xmlns="http://www.w3.org/2000/svg">
<g clip-path="url(#clip0_684_3235)">
<path d="M268.507 16.7514L268.507 163.248C268.507 171.66 261.645 178.506 253.204 178.506L16.7965 178.506C8.35564 178.506 1.49414 171.66 1.49414 163.248L1.49413 16.7514C1.49413 8.33896 8.35563 1.49348 16.7965 1.49348L253.204 1.49347C261.645 1.49347 268.507 8.33895 268.507 16.7514Z" fill="white" stroke="#2B4554" stroke-width="1.5"/>
<path d="M258.099 23.0346L258.099 157.807C258.099 163.536 253.53 168.1 247.794 168.1L21.4627 168.1C15.7266 168.1 11.1572 163.536 11.1572 157.807L11.1572 22.9375C11.1572 17.2087 15.7266 12.6451 21.4627 12.6451L247.697 12.6451C253.433 12.7422 258.099 17.3058 258.099 23.0346Z" stroke="#2B4554" stroke-width="0.5669" stroke-miterlimit="10"/>
<path d="M39.4215 124.959L39.4215 176.281L27.0248 176.281C13.3232 176.281 2.23144 165.395 2.23144 151.947L2.23144 124.959L39.4215 124.959Z" fill="white"/>
<path d="M229.835 55.041L229.835 3.7187L241.984 3.7187C255.411 3.7187 266.281 14.6053 266.281 28.0534L266.281 55.041L229.835 55.041Z" fill="white"/>
<path d="M11.1104 153.655C15.8775 153.655 20.6447 153.655 25.4119 153.655C25.4119 153.752 25.4119 153.752 25.4119 153.849C25.4119 156.569 25.4119 159.289 25.4119 162.01C25.4119 164.827 23.3688 167.353 20.5474 167.838C20.2555 167.838 20.061 167.936 19.7691 167.936C18.7962 167.936 17.8233 167.936 16.9477 167.936C14.3209 167.936 11.986 165.993 11.4022 163.37C11.3049 162.981 11.3049 162.495 11.2076 162.107C11.2076 159.387 11.2076 156.666 11.2076 153.946C11.1104 153.752 11.1104 153.752 11.1104 153.655ZM15.5857 158.026C15.5857 158.124 15.5857 158.124 15.5857 158.124C15.5857 159.387 15.5857 160.649 15.5857 161.912C15.5857 162.787 16.2667 163.37 17.045 163.37C17.8233 163.37 18.6016 163.37 19.3799 163.37C20.2555 163.37 20.9366 162.69 20.9366 161.815C20.9366 160.552 20.9366 159.387 20.9366 158.124C20.9366 158.026 20.9366 158.026 20.9366 157.929C19.1854 158.026 17.3369 158.026 15.5857 158.026Z" fill="#4C7B96"/>
<path d="M11.1104 150.935C11.1104 150.837 11.1104 150.837 11.1104 150.74C11.1104 148.02 11.1104 145.203 11.1104 142.483C11.1104 140.054 12.5697 137.917 14.8073 137.042C15.4884 136.751 16.2667 136.654 16.9477 136.654C17.8233 136.654 18.6989 136.654 19.5745 136.654C22.3959 136.654 24.8281 138.597 25.3146 141.414C25.4119 141.803 25.4119 142.288 25.4119 142.677C25.4119 143.94 25.4119 145.106 25.4119 146.369C25.4119 146.466 25.4119 146.466 25.4119 146.563C27.2604 146.563 29.1088 146.563 30.9573 146.563C30.9573 148.02 30.9573 149.477 30.9573 150.935C24.439 150.935 17.8233 150.935 11.1104 150.935ZM21.1311 146.563L21.1311 146.466C21.1311 145.106 21.1311 143.843 21.1311 142.483C21.1311 141.608 20.4501 141.025 19.6718 141.025C18.7962 141.025 18.0179 141.025 17.1423 141.025C16.364 141.025 15.5857 141.608 15.5857 142.58C15.5857 143.843 15.5857 145.106 15.5857 146.369C15.5857 146.466 15.5857 146.466 15.5857 146.563C17.4341 146.563 19.2826 146.563 21.1311 146.563Z" fill="#4C7B96"/>
<path d="M258.225 26.585C253.458 26.585 248.691 26.585 243.924 26.585C243.924 26.4878 243.924 26.4878 243.924 26.3907C243.924 23.6705 243.924 20.9504 243.924 18.2302C243.924 15.4129 245.967 12.8871 248.788 12.4013C249.08 12.4013 249.275 12.3042 249.567 12.3042C250.539 12.3042 251.512 12.3042 252.388 12.3042C255.015 12.3042 257.35 14.2472 257.933 16.8702C258.031 17.2587 258.031 17.7445 258.128 18.1331C258.128 20.8532 258.128 23.5734 258.128 26.2935C258.225 26.4878 258.225 26.4878 258.225 26.585ZM253.75 22.2133C253.75 22.1162 253.75 22.1161 253.75 22.1161C253.75 20.8532 253.75 19.5903 253.75 18.3274C253.75 17.453 253.069 16.8702 252.291 16.8702C251.512 16.8702 250.734 16.8702 249.956 16.8702C249.08 16.8702 248.399 17.5502 248.399 18.4245C248.399 19.6874 248.399 20.8532 248.399 22.1161C248.399 22.2133 248.399 22.2133 248.399 22.3104C250.15 22.2133 251.999 22.2133 253.75 22.2133Z" fill="#4C7B96"/>
<path d="M258.225 29.3052C258.225 29.4023 258.225 29.4023 258.225 29.4995C258.225 32.2196 258.225 35.0369 258.225 37.7571C258.225 40.1858 256.766 42.323 254.528 43.1973C253.847 43.4888 253.069 43.5859 252.388 43.5859C251.512 43.5859 250.636 43.5859 249.761 43.5859C246.939 43.5859 244.507 41.643 244.021 38.8257C243.923 38.4371 243.923 37.9513 243.923 37.5627C243.923 36.2998 243.923 35.1341 243.923 33.8711C243.923 33.774 243.923 33.774 243.923 33.6768C242.075 33.6768 240.226 33.6768 238.378 33.6768C238.378 32.2196 238.378 30.7624 238.378 29.3052C244.896 29.3052 251.512 29.3052 258.225 29.3052ZM248.204 33.6768L248.204 33.774C248.204 35.1341 248.204 36.397 248.204 37.7571C248.204 38.6314 248.885 39.2143 249.663 39.2143C250.539 39.2143 251.317 39.2143 252.193 39.2143C252.971 39.2143 253.75 38.6314 253.75 37.6599C253.75 36.397 253.75 35.1341 253.75 33.8711C253.75 33.774 253.75 33.774 253.75 33.6768C251.901 33.6768 250.053 33.6768 248.204 33.6768Z" fill="#4C7B96"/>
<path d="M54.3125 48L49.3125 41.3239L47.5227 41.3239L47.5227 48L45.7614 48L45.7614 33.4545L47.5227 33.4545L47.5227 39.7614L48.2898 39.7614L54.1136 33.4545L56.2159 33.4545L50.3352 39.8466L56.4148 48L54.3125 48ZM62.074 48.2557C61.3827 48.2557 60.7553 48.1255 60.1919 47.8651C59.6285 47.5999 59.181 47.2188 58.8496 46.7216C58.5181 46.2197 58.3524 45.6136 58.3524 44.9034C58.3524 44.2784 58.4755 43.7718 58.7217 43.3835C58.9679 42.9905 59.297 42.6828 59.7089 42.4602C60.1209 42.2377 60.5754 42.072 61.0726 41.9631C61.5745 41.8494 62.0787 41.7595 62.5854 41.6932C63.2482 41.608 63.7857 41.544 64.1976 41.5014C64.6143 41.4541 64.9173 41.3759 65.1067 41.267C65.3008 41.1581 65.3979 40.9688 65.3979 40.6989L65.3979 40.642C65.3979 39.9413 65.2061 39.3968 64.8226 39.0085C64.4438 38.6203 63.8685 38.4261 63.0967 38.4261C62.2965 38.4261 61.6692 38.6013 61.2146 38.9517C60.7601 39.3021 60.4405 39.6761 60.2558 40.0739L58.6649 39.5057C58.949 38.8428 59.3278 38.3267 59.8013 37.9574C60.2795 37.5833 60.8003 37.3229 61.3638 37.1761C61.932 37.0246 62.4907 36.9489 63.0399 36.9489C63.3903 36.9489 63.7928 36.9915 64.2473 37.0767C64.7066 37.1572 65.1493 37.3253 65.5754 37.581C66.0063 37.8366 66.3638 38.2225 66.6479 38.7386C66.932 39.2547 67.074 39.946 67.074 40.8125L67.074 48L65.3979 48L65.3979 46.5227L65.3126 46.5227C65.199 46.7595 65.0096 47.0128 64.7445 47.2827C64.4793 47.5526 64.1266 47.7822 63.6862 47.9716C63.2459 48.161 62.7085 48.2557 62.074 48.2557ZM62.3297 46.75C62.9926 46.75 63.5513 46.6198 64.0058 46.3594C64.4651 46.099 64.8107 45.7628 65.0428 45.3509C65.2795 44.9389 65.3979 44.5057 65.3979 44.0511L65.3979 42.517C65.3268 42.6023 65.1706 42.6804 64.9291 42.7514C64.6924 42.8177 64.4178 42.8769 64.1053 42.929C63.7975 42.9763 63.4968 43.0189 63.2033 43.0568C62.9144 43.09 62.6801 43.1184 62.5001 43.142C62.0645 43.1989 61.6573 43.2912 61.2785 43.419C60.9045 43.5421 60.6015 43.7292 60.3695 43.9801C60.1422 44.2263 60.0285 44.5625 60.0285 44.9886C60.0285 45.571 60.244 46.0114 60.6749 46.3097C61.1105 46.6032 61.6621 46.75 62.3297 46.75ZM70.5333 48L70.5333 37.0909L79.1129 37.0909L79.1129 48L77.4367 48L77.4367 38.6534L72.2094 38.6534L72.2094 48L70.5333 48ZM82.5739 52.0909L82.5739 37.0909L84.1933 37.0909L84.1933 38.8239L84.3921 38.8239C84.5152 38.6345 84.6857 38.393 84.9035 38.0994C85.126 37.8011 85.4433 37.536 85.8552 37.304C86.2719 37.0672 86.8353 36.9489 87.5455 36.9489C88.4641 36.9489 89.2737 37.1785 89.9745 37.6378C90.6753 38.0971 91.2221 38.7481 91.6151 39.5909C92.0081 40.4337 92.2046 41.428 92.2046 42.5739C92.2046 43.7292 92.0081 44.7306 91.6151 45.5781C91.2221 46.4209 90.6776 47.0743 89.9816 47.5384C89.2856 47.9976 88.483 48.2273 87.5739 48.2273C86.8732 48.2273 86.3121 48.1113 85.8907 47.8793C85.4693 47.6425 85.145 47.375 84.9177 47.0767C84.6904 46.7737 84.5152 46.5227 84.3921 46.3239L84.2501 46.3239L84.2501 52.0909L82.5739 52.0909ZM84.2217 42.5455C84.2217 43.3693 84.3424 44.0961 84.5839 44.7259C84.8254 45.3509 85.1781 45.8409 85.6421 46.196C86.1061 46.5464 86.6743 46.7216 87.3467 46.7216C88.0474 46.7216 88.6322 46.5369 89.1009 46.1676C89.5744 45.7936 89.9295 45.2917 90.1663 44.6619C90.4077 44.0275 90.5285 43.322 90.5285 42.5455C90.5285 41.7784 90.4101 41.0871 90.1734 40.4716C89.9414 39.8513 89.5886 39.3613 89.1151 39.0014C88.6464 38.6368 88.0569 38.4545 87.3467 38.4545C86.6648 38.4545 86.0919 38.6274 85.6279 38.973C85.1639 39.3139 84.8135 39.7921 84.5768 40.4077C84.34 41.0185 84.2217 41.7311 84.2217 42.5455ZM99.7353 48.2273C98.6842 48.2273 97.7774 47.9953 97.0151 47.5313C96.2575 47.0625 95.6728 46.4091 95.2609 45.571C94.8537 44.7282 94.6501 43.7481 94.6501 42.6307C94.6501 41.5133 94.8537 40.5284 95.2609 39.6761C95.6728 38.8191 96.2457 38.1515 96.9796 37.6733C97.7183 37.1903 98.58 36.9489 99.5648 36.9489C100.133 36.9489 100.694 37.0436 101.248 37.233C101.802 37.4224 102.306 37.7301 102.761 38.1563C103.215 38.5777 103.578 39.1364 103.848 39.8324C104.117 40.5284 104.252 41.3854 104.252 42.4034L104.252 43.1136L95.8433 43.1136L95.8433 41.6648L102.548 41.6648C102.548 41.0492 102.425 40.5 102.178 40.017C101.937 39.5341 101.591 39.1529 101.142 38.8736C100.696 38.5942 100.171 38.4545 99.5648 38.4545C98.8972 38.4545 98.3196 38.6203 97.8319 38.9517C97.3489 39.2784 96.9772 39.7045 96.7168 40.2301C96.4564 40.7557 96.3262 41.3191 96.3262 41.9205L96.3262 42.8864C96.3262 43.7102 96.4683 44.4086 96.7523 44.9815C97.0412 45.5497 97.4413 45.983 97.9526 46.2813C98.464 46.5748 99.0582 46.7216 99.7353 46.7216C100.176 46.7216 100.573 46.66 100.928 46.5369C101.288 46.4091 101.598 46.2197 101.859 45.9688C102.119 45.7131 102.321 45.3958 102.463 45.017L104.082 45.4716C103.911 46.0208 103.625 46.5038 103.223 46.9205C102.82 47.3324 102.323 47.6544 101.731 47.8864C101.139 48.1136 100.474 48.2273 99.7353 48.2273ZM114.503 41.7784L114.503 43.3409L108.48 43.3409L108.48 41.7784L114.503 41.7784ZM108.878 37.0909L108.878 48L107.202 48L107.202 37.0909L108.878 37.0909ZM115.782 37.0909L115.782 48L114.105 48L114.105 37.0909L115.782 37.0909ZM120.919 45.5284L126.175 37.0909L128.106 37.0909L128.106 48L126.43 48L126.43 39.5625L121.203 48L119.243 48L119.243 37.0909L120.919 37.0909L120.919 45.5284ZM138.877 41.7784L138.877 43.3409L132.855 43.3409L132.855 41.7784L138.877 41.7784ZM133.252 37.0909L133.252 48L131.576 48L131.576 37.0909L133.252 37.0909ZM140.156 37.0909L140.156 48L138.48 48L138.48 37.0909L140.156 37.0909ZM146.827 48.2557C146.136 48.2557 145.508 48.1255 144.945 47.8651C144.382 47.5999 143.934 47.2188 143.603 46.7216C143.271 46.2197 143.106 45.6136 143.106 44.9034C143.106 44.2784 143.229 43.7718 143.475 43.3835C143.721 42.9905 144.05 42.6828 144.462 42.4602C144.874 42.2377 145.329 42.072 145.826 41.9631C146.328 41.8494 146.832 41.7595 147.338 41.6932C148.001 41.608 148.539 41.544 148.951 41.5014C149.367 41.4541 149.67 41.376 149.86 41.2671C150.054 41.1581 150.151 40.9688 150.151 40.6989L150.151 40.6421C150.151 39.9413 149.959 39.3968 149.576 39.0085C149.197 38.6203 148.622 38.4261 147.85 38.4261C147.05 38.4261 146.422 38.6013 145.968 38.9517C145.513 39.3021 145.194 39.6761 145.009 40.0739L143.418 39.5057C143.702 38.8428 144.081 38.3267 144.554 37.9574C145.033 37.5833 145.553 37.3229 146.117 37.1761C146.685 37.0246 147.244 36.9489 147.793 36.9489C148.143 36.9489 148.546 36.9915 149 37.0767C149.46 37.1572 149.902 37.3253 150.329 37.581C150.759 37.8367 151.117 38.2225 151.401 38.7386C151.685 39.2547 151.827 39.946 151.827 40.8125L151.827 48L150.151 48L150.151 46.5227L150.066 46.5227C149.952 46.7595 149.763 47.0128 149.498 47.2827C149.232 47.5526 148.88 47.7822 148.439 47.9716C147.999 48.161 147.462 48.2557 146.827 48.2557ZM147.083 46.75C147.746 46.75 148.304 46.6198 148.759 46.3594C149.218 46.099 149.564 45.7628 149.796 45.3509C150.033 44.9389 150.151 44.5057 150.151 44.0511L150.151 42.5171C150.08 42.6023 149.924 42.6804 149.682 42.7514C149.445 42.8177 149.171 42.8769 148.858 42.929C148.551 42.9763 148.25 43.0189 147.956 43.0568C147.668 43.09 147.433 43.1184 147.253 43.1421C146.818 43.1989 146.41 43.2912 146.032 43.419C145.658 43.5421 145.355 43.7292 145.123 43.9801C144.895 44.2263 144.782 44.5625 144.782 44.9886C144.782 45.571 144.997 46.0114 145.428 46.3097C145.864 46.6032 146.415 46.75 147.083 46.75ZM45.7614 76L45.7614 61.4545L47.5227 61.4545L47.5227 67.9318L55.2784 67.9318L55.2784 61.4545L57.0398 61.4545L57.0398 76L55.2784 76L55.2784 69.4943L47.5227 69.4943L47.5227 76L45.7614 76ZM63.949 76.2557C63.2577 76.2557 62.6303 76.1255 62.0669 75.8651C61.5035 75.5999 61.056 75.2188 60.7246 74.7216C60.3931 74.2197 60.2274 73.6136 60.2274 72.9034C60.2274 72.2784 60.3505 71.7718 60.5967 71.3835C60.8429 70.9905 61.172 70.6828 61.5839 70.4602C61.9959 70.2377 62.4504 70.072 62.9476 69.9631C63.4495 69.8494 63.9537 69.7595 64.4604 69.6932C65.1232 69.608 65.6607 69.544 66.0726 69.5014C66.4892 69.4541 66.7923 69.3759 66.9817 69.267C67.1758 69.1581 67.2729 68.9688 67.2729 68.6989L67.2729 68.642C67.2729 67.9413 67.0811 67.3968 66.6976 67.0085C66.3188 66.6203 65.7435 66.4261 64.9717 66.4261C64.1715 66.4261 63.5442 66.6013 63.0896 66.9517C62.6351 67.3021 62.3155 67.6761 62.1308 68.0739L60.5399 67.5057C60.824 66.8428 61.2028 66.3267 61.6763 65.9574C62.1545 65.5833 62.6753 65.3229 63.2388 65.1761C63.807 65.0246 64.3657 64.9489 64.9149 64.9489C65.2653 64.9489 65.6678 64.9915 66.1223 65.0767C66.5816 65.1572 67.0243 65.3253 67.4504 65.581C67.8813 65.8366 68.2388 66.2225 68.5229 66.7386C68.807 67.2547 68.949 67.946 68.949 68.8125L68.949 76L67.2729 76L67.2729 74.5227L67.1876 74.5227C67.074 74.7595 66.8846 75.0128 66.6195 75.2827C66.3543 75.5526 66.0016 75.7822 65.5612 75.9716C65.1209 76.161 64.5835 76.2557 63.949 76.2557ZM64.2047 74.75C64.8676 74.75 65.4263 74.6198 65.8808 74.3594C66.3401 74.099 66.6857 73.7628 66.9178 73.3509C67.1545 72.9389 67.2729 72.5057 67.2729 72.0511L67.2729 70.517C67.2018 70.6023 67.0456 70.6804 66.8041 70.7514C66.5674 70.8177 66.2928 70.8769 65.9803 70.929C65.6725 70.9763 65.3718 71.0189 65.0783 71.0568C64.7894 71.09 64.5551 71.1184 64.3751 71.142C63.9395 71.1989 63.5323 71.2912 63.1535 71.419C62.7795 71.5421 62.4765 71.7292 62.2445 71.9801C62.0172 72.2263 61.9035 72.5625 61.9035 72.9886C61.9035 73.571 62.119 74.0114 62.5499 74.3097C62.9855 74.6032 63.5371 74.75 64.2047 74.75ZM70.9239 66.6534L70.9239 65.0909L79.7876 65.0909L79.7876 66.6534L76.208 66.6534L76.208 76L74.5319 76L74.5319 66.6534L70.9239 66.6534ZM85.2763 76.2557C84.5851 76.2557 83.9577 76.1255 83.3942 75.8651C82.8308 75.5999 82.3834 75.2188 82.0519 74.7216C81.7205 74.2197 81.5548 73.6136 81.5548 72.9034C81.5548 72.2784 81.6779 71.7718 81.9241 71.3835C82.1703 70.9905 82.4994 70.6828 82.9113 70.4602C83.3232 70.2377 83.7778 70.072 84.2749 69.9631C84.7768 69.8494 85.2811 69.7595 85.7877 69.6932C86.4506 69.608 86.988 69.544 87.3999 69.5014C87.8166 69.4541 88.1196 69.3759 88.309 69.267C88.5031 69.1581 88.6002 68.9688 88.6002 68.6989L88.6002 68.642C88.6002 67.9413 88.4085 67.3968 88.0249 67.0085C87.6461 66.6203 87.0709 66.4261 86.2991 66.4261C85.4989 66.4261 84.8715 66.6013 84.417 66.9517C83.9624 67.3021 83.6428 67.6761 83.4582 68.0739L81.8673 67.5057C82.1513 66.8428 82.5301 66.3267 83.0036 65.9574C83.4818 65.5833 84.0027 65.3229 84.5661 65.1761C85.1343 65.0246 85.693 64.9489 86.2423 64.9489C86.5926 64.9489 86.9951 64.9915 87.4496 65.0767C87.9089 65.1572 88.3516 65.3253 88.7778 65.581C89.2086 65.8367 89.5661 66.2225 89.8502 66.7386C90.1343 67.2547 90.2763 67.946 90.2763 68.8125L90.2763 76L88.6002 76L88.6002 74.5227L88.515 74.5227C88.4013 74.7595 88.212 75.0128 87.9468 75.2827C87.6817 75.5526 87.3289 75.7822 86.8886 75.9716C86.4482 76.161 85.9108 76.2557 85.2763 76.2557ZM85.532 74.75C86.1949 74.75 86.7536 74.6198 87.2082 74.3594C87.6674 74.099 88.0131 73.7628 88.2451 73.3509C88.4818 72.9389 88.6002 72.5057 88.6002 72.0511L88.6002 70.517C88.5292 70.6023 88.3729 70.6804 88.1315 70.7514C87.8947 70.8177 87.6201 70.8769 87.3076 70.929C86.9998 70.9763 86.6992 71.0189 86.4056 71.0568C86.1168 71.09 85.8824 71.1184 85.7025 71.142C85.2669 71.1989 84.8597 71.2912 84.4809 71.419C84.1068 71.5421 83.8038 71.7292 83.5718 71.9801C83.3445 72.2263 83.2309 72.5625 83.2309 72.9886C83.2309 73.571 83.4463 74.0114 83.8772 74.3097C84.3128 74.6032 84.8644 74.75 85.532 74.75ZM92.7697 76L92.7697 74.4375L93.1675 74.4375C93.4942 74.4375 93.7664 74.3736 93.9842 74.2457C94.202 74.1132 94.3772 73.8835 94.5098 73.5568C94.6471 73.2254 94.7513 72.7661 94.8223 72.179C94.8981 71.5871 94.9525 70.8343 94.9856 69.9205L95.1845 65.0909L102.457 65.0909L102.457 76L100.781 76L100.781 66.6534L96.7754 66.6534L96.605 70.5455C96.5671 71.4403 96.4866 72.2287 96.3635 72.9105C96.2451 73.5876 96.0628 74.1558 95.8166 74.6151C95.5751 75.0743 95.2532 75.42 94.8507 75.652C94.4482 75.884 93.944 76 93.3379 76L92.7697 76ZM107.381 69.0398L110.506 69.0398C111.785 69.0398 112.763 69.3641 113.44 70.0128C114.117 70.6615 114.455 71.483 114.455 72.4773C114.455 73.1307 114.304 73.7249 114.001 74.2599C113.698 74.7903 113.253 75.214 112.665 75.5313C112.078 75.8438 111.359 76 110.506 76L105.933 76L105.933 65.0909L107.609 65.0909L107.609 74.4375L110.506 74.4375C111.169 74.4375 111.714 74.2623 112.14 73.9119C112.566 73.5616 112.779 73.1117 112.779 72.5625C112.779 71.9849 112.566 71.5137 112.14 71.1492C111.714 70.7846 111.169 70.6023 110.506 70.6023L107.381 70.6023L107.381 69.0398ZM123.969 76L123.969 66.625L121.072 66.625C120.418 66.625 119.904 66.7765 119.53 67.0795C119.156 67.3826 118.969 67.7992 118.969 68.3295C118.969 68.8504 119.137 69.2599 119.474 69.5582C119.814 69.8565 120.281 70.0057 120.873 70.0057L124.395 70.0057L124.395 71.5682L120.873 71.5682C120.134 71.5682 119.497 71.438 118.962 71.1776C118.427 70.9171 118.015 70.5455 117.726 70.0625C117.438 69.5748 117.293 68.9972 117.293 68.3295C117.293 67.6572 117.445 67.0795 117.748 66.5966C118.051 66.1136 118.484 65.742 119.047 65.4815C119.616 65.2211 120.29 65.0909 121.072 65.0909L125.56 65.0909L125.56 76L123.969 76ZM116.697 76L119.793 70.5739L121.611 70.5739L118.515 76L116.697 76Z" fill="#2B4554"/>
<path d="M44 96L224 96" stroke="#2B4554" stroke-width="1.8" stroke-linecap="round"/>
<path d="M53.0455 124.364L54.4545 124.364L54.4545 132.068C54.4545 132.864 54.267 133.574 53.892 134.199C53.5208 134.82 52.9962 135.311 52.3182 135.67C51.6402 136.027 50.8447 136.205 49.9318 136.205C49.0189 136.205 48.2235 136.027 47.5455 135.67C46.8674 135.311 46.3409 134.82 45.9659 134.199C45.5947 133.574 45.4091 132.864 45.4091 132.068L45.4091 124.364L46.8182 124.364L46.8182 131.955C46.8182 132.523 46.9432 133.028 47.1932 133.472C47.4432 133.911 47.7992 134.258 48.2614 134.511C48.7273 134.761 49.2841 134.886 49.9318 134.886C50.5795 134.886 51.1364 134.761 51.6023 134.511C52.0682 134.258 52.4242 133.911 52.6705 133.472C52.9205 133.028 53.0455 132.523 53.0455 131.955L53.0455 124.364ZM57.9503 124.364L60.9503 129.205L61.0412 129.205L64.0412 124.364L65.7003 124.364L62.0412 130.182L65.7003 136L64.0412 136L61.0412 131.25L60.9503 131.25L57.9503 136L56.2912 136L60.0412 130.182L56.2912 124.364L57.9503 124.364ZM71.4659 123.818L67.7159 137.75L66.4886 137.75L70.2386 123.818L71.4659 123.818ZM80.8736 124.364L82.2827 124.364L82.2827 132.068C82.2827 132.864 82.0952 133.574 81.7202 134.199C81.349 134.82 80.8243 135.311 80.1463 135.67C79.4683 136.027 78.6728 136.205 77.7599 136.205C76.8471 136.205 76.0516 136.027 75.3736 135.67C74.6955 135.311 74.169 134.82 73.794 134.199C73.4228 133.574 73.2372 132.864 73.2372 132.068L73.2372 124.364L74.6463 124.364L74.6463 131.955C74.6463 132.523 74.7713 133.028 75.0213 133.472C75.2713 133.911 75.6274 134.258 76.0895 134.511C76.5554 134.761 77.1122 134.886 77.7599 134.886C78.4077 134.886 78.9645 134.761 79.4304 134.511C79.8963 134.258 80.2524 133.911 80.4986 133.472C80.7486 133.028 80.8736 132.523 80.8736 131.955L80.8736 124.364ZM86.5057 124.364L86.5057 136L85.0966 136L85.0966 124.364L86.5057 124.364ZM94.1491 129.557L94.1491 130.807L89.0582 130.807L89.0582 129.557L94.1491 129.557ZM95.5767 138.5L95.5767 134.75L96.304 134.75C96.482 134.564 96.6354 134.364 96.7642 134.148C96.893 133.932 97.0047 133.676 97.0994 133.381C97.1979 133.081 97.2812 132.718 97.3494 132.29C97.4176 131.858 97.4782 131.337 97.5312 130.727L97.8267 127.273L103.372 127.273L103.372 134.75L104.713 134.75L104.713 138.5L103.372 138.5L103.372 136L96.9176 136L96.9176 138.5L95.5767 138.5ZM97.8267 134.75L102.031 134.75L102.031 128.523L99.0767 128.523L98.8494 130.727C98.7547 131.64 98.6373 132.438 98.4972 133.119C98.357 133.801 98.1335 134.345 97.8267 134.75ZM107.834 134.023L112.038 127.273L113.584 127.273L113.584 136L112.243 136L112.243 129.25L108.061 136L106.493 136L106.493 127.273L107.834 127.273L107.834 134.023ZM115.494 133.773L116.926 133.773C116.956 134.167 117.134 134.466 117.46 134.67C117.79 134.875 118.218 134.977 118.744 134.977C119.282 134.977 119.742 134.867 120.125 134.648C120.508 134.424 120.699 134.064 120.699 133.568C120.699 133.277 120.627 133.023 120.483 132.807C120.339 132.587 120.136 132.417 119.875 132.295C119.614 132.174 119.305 132.114 118.949 132.114L117.449 132.114L117.449 130.909L118.949 130.909C119.483 130.909 119.877 130.788 120.131 130.545C120.388 130.303 120.517 130 120.517 129.636C120.517 129.246 120.379 128.934 120.102 128.699C119.826 128.46 119.434 128.341 118.926 128.341C118.415 128.341 117.989 128.456 117.648 128.688C117.307 128.915 117.127 129.208 117.108 129.568L115.699 129.568C115.714 129.098 115.858 128.684 116.131 128.324C116.403 127.96 116.775 127.676 117.244 127.472C117.714 127.263 118.252 127.159 118.858 127.159C119.472 127.159 120.004 127.267 120.455 127.483C120.909 127.695 121.259 127.985 121.506 128.352C121.756 128.716 121.881 129.129 121.881 129.591C121.881 130.083 121.742 130.481 121.466 130.784C121.189 131.087 120.843 131.303 120.426 131.432L120.426 131.523C120.756 131.545 121.042 131.652 121.284 131.841C121.53 132.027 121.722 132.271 121.858 132.574C121.994 132.873 122.062 133.205 122.062 133.568C122.062 134.098 121.92 134.561 121.636 134.955C121.352 135.345 120.962 135.648 120.466 135.864C119.97 136.076 119.403 136.182 118.767 136.182C118.15 136.182 117.597 136.081 117.108 135.881C116.619 135.676 116.231 135.394 115.943 135.034C115.659 134.67 115.509 134.25 115.494 133.773ZM126.514 136.205C125.961 136.205 125.459 136.1 125.009 135.892C124.558 135.68 124.2 135.375 123.935 134.977C123.67 134.576 123.537 134.091 123.537 133.523C123.537 133.023 123.635 132.617 123.832 132.307C124.029 131.992 124.293 131.746 124.622 131.568C124.952 131.39 125.315 131.258 125.713 131.17C126.115 131.08 126.518 131.008 126.923 130.955C127.454 130.886 127.884 130.835 128.213 130.801C128.546 130.763 128.789 130.701 128.94 130.614C129.096 130.527 129.173 130.375 129.173 130.159L129.173 130.114C129.173 129.553 129.02 129.117 128.713 128.807C128.41 128.496 127.95 128.341 127.332 128.341C126.692 128.341 126.19 128.481 125.827 128.761C125.463 129.042 125.207 129.341 125.06 129.659L123.787 129.205C124.014 128.674 124.317 128.261 124.696 127.966C125.079 127.667 125.495 127.458 125.946 127.341C126.401 127.22 126.848 127.159 127.287 127.159C127.567 127.159 127.889 127.193 128.253 127.261C128.62 127.326 128.974 127.46 129.315 127.665C129.66 127.869 129.946 128.178 130.173 128.591C130.401 129.004 130.514 129.557 130.514 130.25L130.514 136L129.173 136L129.173 134.818L129.105 134.818C129.014 135.008 128.863 135.21 128.651 135.426C128.438 135.642 128.156 135.826 127.804 135.977C127.452 136.129 127.022 136.205 126.514 136.205ZM126.719 135C127.249 135 127.696 134.896 128.06 134.688C128.427 134.479 128.704 134.21 128.889 133.881C129.079 133.551 129.173 133.205 129.173 132.841L129.173 131.614C129.116 131.682 128.991 131.744 128.798 131.801C128.609 131.854 128.389 131.902 128.139 131.943C127.893 131.981 127.652 132.015 127.418 132.045C127.187 132.072 126.999 132.095 126.855 132.114C126.507 132.159 126.181 132.233 125.878 132.335C125.579 132.434 125.336 132.583 125.151 132.784C124.969 132.981 124.878 133.25 124.878 133.591C124.878 134.057 125.05 134.409 125.395 134.648C125.743 134.883 126.185 135 126.719 135ZM134.303 134.023L138.507 127.273L140.053 127.273L140.053 136L138.712 136L138.712 129.25L134.53 136L132.962 136L132.962 127.273L134.303 127.273L134.303 134.023ZM137.621 124.364L138.871 124.364C138.871 124.977 138.659 125.479 138.234 125.869C137.81 126.259 137.234 126.455 136.507 126.455C135.791 126.455 135.221 126.259 134.797 125.869C134.376 125.479 134.166 124.977 134.166 124.364L135.416 124.364C135.416 124.659 135.498 124.919 135.661 125.142C135.827 125.366 136.109 125.477 136.507 125.477C136.905 125.477 137.189 125.366 137.359 125.142C137.534 124.919 137.621 124.659 137.621 124.364ZM148.349 131.023L148.349 132.273L143.531 132.273L143.531 131.023L148.349 131.023ZM143.849 127.273L143.849 136L142.509 136L142.509 127.273L143.849 127.273ZM149.372 127.273L149.372 136L148.031 136L148.031 127.273L149.372 127.273ZM155.48 136.182C154.639 136.182 153.914 135.996 153.304 135.625C152.698 135.25 152.23 134.727 151.901 134.057C151.575 133.383 151.412 132.598 151.412 131.705C151.412 130.811 151.575 130.023 151.901 129.341C152.23 128.655 152.688 128.121 153.276 127.739C153.866 127.352 154.556 127.159 155.344 127.159C155.798 127.159 156.247 127.235 156.69 127.386C157.134 127.538 157.537 127.784 157.901 128.125C158.264 128.462 158.554 128.909 158.77 129.466C158.986 130.023 159.094 130.708 159.094 131.523L159.094 132.091L152.366 132.091L152.366 130.932L157.73 130.932C157.73 130.439 157.632 130 157.435 129.614C157.241 129.227 156.965 128.922 156.605 128.699C156.249 128.475 155.829 128.364 155.344 128.364C154.81 128.364 154.348 128.496 153.957 128.761C153.571 129.023 153.274 129.364 153.065 129.784C152.857 130.205 152.753 130.655 152.753 131.136L152.753 131.909C152.753 132.568 152.866 133.127 153.094 133.585C153.325 134.04 153.645 134.386 154.054 134.625C154.463 134.86 154.938 134.977 155.48 134.977C155.832 134.977 156.151 134.928 156.435 134.83C156.723 134.727 156.971 134.576 157.179 134.375C157.387 134.17 157.548 133.917 157.662 133.614L158.957 133.977C158.821 134.417 158.592 134.803 158.27 135.136C157.948 135.466 157.55 135.723 157.077 135.909C156.603 136.091 156.071 136.182 155.48 136.182ZM161.134 139.273L161.134 127.273L162.429 127.273L162.429 128.659L162.588 128.659C162.687 128.508 162.823 128.314 162.997 128.08C163.175 127.841 163.429 127.629 163.759 127.443C164.092 127.254 164.543 127.159 165.111 127.159C165.846 127.159 166.493 127.343 167.054 127.71C167.615 128.078 168.052 128.598 168.366 129.273C168.681 129.947 168.838 130.742 168.838 131.659C168.838 132.583 168.681 133.384 168.366 134.063C168.052 134.737 167.616 135.259 167.06 135.631C166.503 135.998 165.861 136.182 165.134 136.182C164.573 136.182 164.124 136.089 163.787 135.903C163.45 135.714 163.19 135.5 163.009 135.261C162.827 135.019 162.687 134.818 162.588 134.659L162.474 134.659L162.474 139.273L161.134 139.273ZM162.452 131.636C162.452 132.295 162.548 132.877 162.741 133.381C162.935 133.881 163.217 134.273 163.588 134.557C163.959 134.837 164.414 134.977 164.952 134.977C165.512 134.977 165.98 134.83 166.355 134.534C166.734 134.235 167.018 133.833 167.207 133.33C167.401 132.822 167.497 132.258 167.497 131.636C167.497 131.023 167.402 130.47 167.213 129.977C167.027 129.481 166.745 129.089 166.366 128.801C165.991 128.509 165.52 128.364 164.952 128.364C164.406 128.364 163.948 128.502 163.577 128.778C163.205 129.051 162.925 129.434 162.736 129.926C162.546 130.415 162.452 130.985 162.452 131.636Z" fill="#2B4554"/>
</g>
<defs>
<clipPath id="clip0_684_3235">
<rect width="180" height="270" fill="white" transform="translate(0 180) rotate(-90)"/>
</clipPath>
</defs>
</svg>
