<svg width="186.000000" height="278.000000" viewBox="0 0 186 278" fill="none" xmlns="http://www.w3.org/2000/svg" xmlns:xlink="http://www.w3.org/1999/xlink">
	<desc>
			Created with Pixso.
	</desc>
	<defs>
		<clipPath id="clip482_958">
			<rect id="карта_лицо 8" width="186.000000" height="278.000000" fill="white" fill-opacity="0"/>
		</clipPath>
	</defs>
	<rect id="карта_лицо 8" width="186.000000" height="278.000000" fill="#FFFFFF" fill-opacity="0"/>
	<g clip-path="url(#clip482_958)">
		<path id="Vector" d="M168.5 277L17.5 277C8.4 277 1 269.6 1 260.5L1 17.5C1 8.4 8.4 1 17.5 1L168.5 1C177.6 1 185 8.4 185 17.5L185 260.5C185 269.6 177.6 277 168.5 277Z" fill="#FFFFFF" fill-opacity="1.000000" fill-rule="nonzero"/>
		<path id="Vector" d="M17.5 277L168.5 277C177.6 277 185 269.6 185 260.5L185 17.5C185 8.4 177.6 1 168.5 1L17.5 1C8.4 1 1 8.4 1 17.5L1 260.5C1 269.6 8.4 277 17.5 277ZM168.5 275.5L17.5 275.5Q14.42 275.5 11.79 274.42Q9.11 273.32 6.89 271.1Q4.67 268.88 3.58 266.2Q2.5 263.57 2.5 260.5L2.5 17.5Q2.5 14.42 3.58 11.79Q4.67 9.11 6.89 6.89Q9.11 4.67 11.79 3.58Q14.42 2.5 17.5 2.5L168.5 2.5Q171.57 2.5 174.2 3.58Q176.88 4.67 179.1 6.89Q181.32 9.11 182.42 11.79Q183.5 14.42 183.5 17.5L183.5 260.5Q183.5 263.57 182.42 266.2Q181.32 268.88 179.1 271.1Q176.88 273.32 174.2 274.42Q171.57 275.5 168.5 275.5Z" fill="#F18225" fill-opacity="1.000000" fill-rule="evenodd"/>
		<path id="Vector" d="M23.59 265.9C17.69 265.9 13 261.2 13 255.3L13 22.5C13 16.59 17.69 11.9 23.59 11.9L162.5 11.9C168.4 11.9 173.1 16.59 173.1 22.5L173.1 255.2C173 261.1 168.3 265.9 162.39 265.9L23.59 265.9Z" stroke="#F18225" stroke-opacity="1.000000" stroke-width="0.566900"/>
		<path id="Vector" d="M57 41L4 41L4 28.33C4 14.33 15.24 3 29.13 3L57 3L57 41Z" fill="#FFFFFF" fill-opacity="1.000000" fill-rule="nonzero"/>
		<path id="Vector" d="M129 237L182 237L182 249.33C182 262.96 170.75 274 156.86 274L129 274L129 237Z" fill="#FFFFFF" fill-opacity="1.000000" fill-rule="nonzero"/>
		<path id="Vector" d="M27.59 11.9C27.59 16.8 27.59 21.7 27.59 26.59C27.5 26.59 27.5 26.59 27.4 26.59C24.59 26.59 21.8 26.59 19 26.59C16.09 26.59 13.5 24.5 13 21.59C13 21.3 12.9 21.09 12.9 20.8C12.9 19.8 12.9 18.8 12.9 17.9C12.9 15.2 14.9 12.8 17.59 12.2C18 12.09 18.5 12.09 18.9 12C21.7 12 24.5 12 27.3 12C27.5 11.9 27.5 11.9 27.59 11.9ZM23.09 16.5C23 16.5 23 16.5 23 16.5C21.7 16.5 20.4 16.5 19.09 16.5C18.2 16.5 17.59 17.2 17.59 18C17.59 18.8 17.59 19.59 17.59 20.4C17.59 21.3 18.3 22 19.2 22C20.5 22 21.7 22 23 22C23.09 22 23.09 22 23.2 22C23.09 20.2 23.09 18.3 23.09 16.5Z" fill="#F18225" fill-opacity="1.000000" fill-rule="nonzero"/>
		<path id="Vector" d="M30.4 11.9C30.5 11.9 30.5 11.9 30.59 11.9C33.4 11.9 36.3 11.9 39.09 11.9C41.59 11.9 43.8 13.4 44.7 15.7C45 16.4 45.09 17.2 45.09 17.9C45.09 18.8 45.09 19.7 45.09 20.59C45.09 23.5 43.09 26 40.2 26.5C39.8 26.59 39.3 26.59 38.9 26.59C37.59 26.59 36.4 26.59 35.09 26.59C35 26.59 35 26.59 34.9 26.59C34.9 28.5 34.9 30.4 34.9 32.3C33.4 32.3 31.9 32.3 30.4 32.3C30.4 25.59 30.4 18.8 30.4 11.9ZM34.9 22.2L35 22.2C36.4 22.2 37.7 22.2 39.09 22.2C40 22.2 40.59 21.5 40.59 20.7C40.59 19.8 40.59 19 40.59 18.09C40.59 17.3 40 16.5 39 16.5C37.7 16.5 36.4 16.5 35.09 16.5C35 16.5 35 16.5 34.9 16.5C34.9 18.4 34.9 20.3 34.9 22.2Z" fill="#F18225" fill-opacity="1.000000" fill-rule="nonzero"/>
		<path id="Vector" d="M158.39 265.89C158.39 261 158.39 256.1 158.39 251.19C158.5 251.19 158.5 251.19 158.6 251.19C161.39 251.19 164.2 251.19 167 251.19C169.9 251.19 172.5 253.29 173 256.19C173 256.5 173.1 256.69 173.1 257C173.1 258 173.1 259 173.1 259.89C173.1 262.6 171.1 265 168.4 265.6C168 265.69 167.5 265.69 167.1 265.79C164.3 265.79 161.5 265.79 158.7 265.79C158.5 265.89 158.5 265.89 158.39 265.89ZM162.89 261.29C163 261.29 163 261.29 163 261.29C164.3 261.29 165.6 261.29 166.9 261.29C167.8 261.29 168.4 260.6 168.4 259.79C168.4 259 168.4 258.19 168.4 257.39C168.4 256.5 167.7 255.79 166.8 255.79C165.5 255.79 164.3 255.79 163 255.79C162.89 255.79 162.89 255.79 162.8 255.79C162.89 257.6 162.89 259.5 162.89 261.29Z" fill="#F18225" fill-opacity="1.000000" fill-rule="nonzero"/>
		<path id="Vector" d="M155.6 265.9C155.5 265.9 155.5 265.9 155.39 265.9C152.6 265.9 149.7 265.9 146.89 265.9C144.39 265.9 142.2 264.4 141.3 262.1C141 261.4 140.89 260.6 140.89 259.9C140.89 259 140.89 258.1 140.89 257.19C140.89 254.3 142.89 251.8 145.8 251.3C146.2 251.19 146.7 251.19 147.1 251.19C148.39 251.19 149.6 251.19 150.89 251.19C151 251.19 151 251.19 151.1 251.19C151.1 249.3 151.1 247.4 151.1 245.5C152.6 245.5 154.1 245.5 155.6 245.5C155.6 252.19 155.6 259 155.6 265.9ZM151.1 255.6L151 255.6C149.6 255.6 148.3 255.6 146.89 255.6C146 255.6 145.39 256.3 145.39 257.1C145.39 258 145.39 258.8 145.39 259.69C145.39 260.5 146 261.3 147 261.3C148.3 261.3 149.6 261.3 150.89 261.3C151 261.3 151 261.3 151.1 261.3C151.1 259.4 151.1 257.5 151.1 255.6Z" fill="#F18225" fill-opacity="1.000000" fill-rule="nonzero"/>
		<path id="0" d="M122.48 139.06C122.48 165.33 110.96 180.55 91.68 180.53C72.37 180.53 60.85 165.27 60.85 139.06C60.9 112.93 72.45 97.89 91.68 97.89C110.88 97.89 122.48 112.98 122.48 139.06ZM75.51 139.06C75.46 158.29 81.72 168.28 91.68 168.28C101.67 168.28 107.87 158.29 107.87 139.06C107.85 120.02 101.64 109.98 91.68 109.98C81.74 109.98 75.54 120.02 75.51 139.06Z" fill="#F18225" fill-opacity="1.000000" fill-rule="evenodd"/>
	</g>
</svg>
