<svg width="270" height="180" viewBox="0 0 270 180" fill="none" xmlns="http://www.w3.org/2000/svg">
<g clip-path="url(#clip0_1031_3694)">
<path d="M268.507 16.7514L268.507 163.248C268.507 171.66 261.645 178.506 253.204 178.506L16.7965 178.506C8.35564 178.506 1.49414 171.66 1.49414 163.248L1.49413 16.7514C1.49413 8.33896 8.35563 1.49348 16.7965 1.49348L253.204 1.49347C261.645 1.49347 268.507 8.33895 268.507 16.7514Z" fill="#E7ECF1" stroke="#2B4554" stroke-width="1.5"/>
<path d="M258.099 23.0346L258.099 157.807C258.099 163.536 253.53 168.1 247.794 168.1L21.4627 168.1C15.7266 168.1 11.1572 163.536 11.1572 157.807L11.1572 22.9375C11.1572 17.2087 15.7266 12.6451 21.4627 12.6451L247.697 12.6451C253.433 12.7422 258.099 17.3058 258.099 23.0346Z" stroke="#2B4554" stroke-width="0.5669" stroke-miterlimit="10"/>
<path d="M39.4215 124.959L39.4215 176.281L27.0248 176.281C13.3232 176.281 2.23144 165.395 2.23144 151.947L2.23144 124.959L39.4215 124.959Z" fill="#E7ECF1"/>
<path d="M229.835 55.041L229.835 3.7187L241.984 3.7187C255.411 3.7187 266.281 14.6053 266.281 28.0534L266.281 55.041L229.835 55.041Z" fill="#E7ECF1"/>
<path d="M11.1104 153.655C15.8775 153.655 20.6447 153.655 25.4119 153.655C25.4119 153.752 25.4119 153.752 25.4119 153.849C25.4119 156.569 25.4119 159.289 25.4119 162.01C25.4119 164.827 23.3688 167.353 20.5474 167.838C20.2555 167.838 20.061 167.936 19.7691 167.936C18.7962 167.936 17.8233 167.936 16.9477 167.936C14.3209 167.936 11.986 165.993 11.4022 163.37C11.3049 162.981 11.3049 162.495 11.2076 162.107C11.2076 159.387 11.2076 156.666 11.2076 153.946C11.1104 153.752 11.1104 153.752 11.1104 153.655ZM15.5857 158.026C15.5857 158.124 15.5857 158.124 15.5857 158.124C15.5857 159.387 15.5857 160.649 15.5857 161.912C15.5857 162.787 16.2667 163.37 17.045 163.37C17.8233 163.37 18.6016 163.37 19.3799 163.37C20.2555 163.37 20.9366 162.69 20.9366 161.815C20.9366 160.552 20.9366 159.387 20.9366 158.124C20.9366 158.026 20.9366 158.026 20.9366 157.929C19.1854 158.026 17.3369 158.026 15.5857 158.026Z" fill="#4C7B96"/>
<path d="M11.1104 150.935C11.1104 150.837 11.1104 150.837 11.1104 150.74C11.1104 148.02 11.1104 145.203 11.1104 142.483C11.1104 140.054 12.5697 137.917 14.8073 137.042C15.4884 136.751 16.2667 136.654 16.9477 136.654C17.8233 136.654 18.6989 136.654 19.5745 136.654C22.3959 136.654 24.8281 138.597 25.3146 141.414C25.4119 141.803 25.4119 142.288 25.4119 142.677C25.4119 143.94 25.4119 145.106 25.4119 146.369C25.4119 146.466 25.4119 146.466 25.4119 146.563C27.2604 146.563 29.1088 146.563 30.9573 146.563C30.9573 148.02 30.9573 149.477 30.9573 150.935C24.439 150.935 17.8233 150.935 11.1104 150.935ZM21.1311 146.563L21.1311 146.466C21.1311 145.106 21.1311 143.843 21.1311 142.483C21.1311 141.608 20.4501 141.025 19.6718 141.025C18.7962 141.025 18.0179 141.025 17.1423 141.025C16.364 141.025 15.5857 141.608 15.5857 142.58C15.5857 143.843 15.5857 145.106 15.5857 146.369C15.5857 146.466 15.5857 146.466 15.5857 146.563C17.4341 146.563 19.2826 146.563 21.1311 146.563Z" fill="#4C7B96"/>
<path d="M258.225 26.585C253.458 26.585 248.691 26.585 243.924 26.585C243.924 26.4878 243.924 26.4878 243.924 26.3907C243.924 23.6705 243.924 20.9504 243.924 18.2302C243.924 15.4129 245.967 12.8871 248.788 12.4013C249.08 12.4013 249.275 12.3042 249.567 12.3042C250.539 12.3042 251.512 12.3042 252.388 12.3042C255.015 12.3042 257.35 14.2472 257.933 16.8702C258.031 17.2588 258.031 17.7445 258.128 18.1331C258.128 20.8532 258.128 23.5734 258.128 26.2935C258.225 26.4878 258.225 26.4878 258.225 26.585ZM253.75 22.2133C253.75 22.1162 253.75 22.1161 253.75 22.1161C253.75 20.8532 253.75 19.5903 253.75 18.3274C253.75 17.453 253.069 16.8702 252.291 16.8702C251.512 16.8702 250.734 16.8702 249.956 16.8702C249.08 16.8702 248.399 17.5502 248.399 18.4245C248.399 19.6874 248.399 20.8532 248.399 22.1161C248.399 22.2133 248.399 22.2133 248.399 22.3104C250.15 22.2133 251.999 22.2133 253.75 22.2133Z" fill="#4C7B96"/>
<path d="M258.225 29.3052C258.225 29.4023 258.225 29.4023 258.225 29.4995C258.225 32.2196 258.225 35.0369 258.225 37.7571C258.225 40.1858 256.766 42.323 254.528 43.1973C253.847 43.4888 253.069 43.5859 252.388 43.5859C251.512 43.5859 250.636 43.5859 249.761 43.5859C246.939 43.5859 244.507 41.643 244.021 38.8257C243.923 38.4371 243.923 37.9513 243.923 37.5627C243.923 36.2998 243.923 35.1341 243.923 33.8711C243.923 33.774 243.923 33.774 243.923 33.6768C242.075 33.6768 240.226 33.6768 238.378 33.6768C238.378 32.2196 238.378 30.7624 238.378 29.3052C244.896 29.3052 251.512 29.3052 258.225 29.3052ZM248.204 33.6768L248.204 33.774C248.204 35.1341 248.204 36.397 248.204 37.7571C248.204 38.6314 248.885 39.2143 249.663 39.2143C250.539 39.2143 251.317 39.2143 252.193 39.2143C252.971 39.2143 253.75 38.6314 253.75 37.6599C253.75 36.397 253.75 35.1341 253.75 33.8711C253.75 33.774 253.75 33.774 253.75 33.6768C251.901 33.6768 250.053 33.6768 248.204 33.6768Z" fill="#4C7B96"/>
<path d="M44.5114 51.5227L44.5114 46.4375L45.4489 46.4375C45.7708 46.1439 46.0739 45.7296 46.358 45.1946C46.6468 44.6548 46.8906 43.9351 47.0895 43.0355C47.2931 42.1312 47.428 40.983 47.4943 39.5909L47.8068 33.4545L56.4432 33.4545L56.4432 46.4375L58.1193 46.4375L58.1193 51.4943L56.4432 51.4943L56.4432 48L46.1875 48L46.1875 51.5227L44.5114 51.5227ZM47.5511 46.4375L54.767 46.4375L54.767 35.017L49.3977 35.017L49.1705 39.5909C49.1136 40.6515 49.0142 41.6127 48.8722 42.4744C48.7301 43.3314 48.5478 44.0914 48.3253 44.7543C48.1027 45.4124 47.8447 45.9735 47.5511 46.4375ZM65.3854 48.2273C64.4006 48.2273 63.5365 47.9929 62.7931 47.5241C62.0545 47.0554 61.4768 46.3996 61.0602 45.5568C60.6482 44.714 60.4423 43.7292 60.4423 42.6023C60.4423 41.4659 60.6482 40.474 61.0602 39.6264C61.4768 38.7789 62.0545 38.1207 62.7931 37.652C63.5365 37.1832 64.4006 36.9489 65.3854 36.9489C66.3703 36.9489 67.232 37.1832 67.9707 37.652C68.714 38.1207 69.2917 38.7789 69.7036 39.6264C70.1203 40.474 70.3286 41.4659 70.3286 42.6023C70.3286 43.7292 70.1203 44.714 69.7036 45.5568C69.2917 46.3996 68.714 47.0554 67.9707 47.5241C67.232 47.9929 66.3703 48.2273 65.3854 48.2273ZM65.3854 46.7216C66.1335 46.7216 66.7491 46.5298 67.232 46.1463C67.715 45.7628 68.0725 45.2585 68.3045 44.6335C68.5365 44.0085 68.6525 43.3314 68.6525 42.6023C68.6525 41.8731 68.5365 41.1937 68.3045 40.5639C68.0725 39.9342 67.715 39.4252 67.232 39.0369C66.7491 38.6487 66.1335 38.4545 65.3854 38.4545C64.6373 38.4545 64.0218 38.6487 63.5388 39.0369C63.0559 39.4252 62.6984 39.9342 62.4664 40.5639C62.2344 41.1937 62.1184 41.8731 62.1184 42.6023C62.1184 43.3314 62.2344 44.0085 62.4664 44.6335C62.6984 45.2585 63.0559 45.7628 63.5388 46.1463C64.0218 46.5298 64.6373 46.7216 65.3854 46.7216ZM73.2872 52.0909L73.2872 37.0909L74.9065 37.0909L74.9065 38.8239L75.1054 38.8239C75.2285 38.6345 75.399 38.393 75.6168 38.0994C75.8393 37.8011 76.1565 37.536 76.5685 37.304C76.9851 37.0672 77.5486 36.9489 78.2588 36.9489C79.1774 36.9489 79.987 37.1785 80.6878 37.6378C81.3885 38.0971 81.9354 38.7481 82.3284 39.5909C82.7214 40.4337 82.9179 41.428 82.9179 42.5739C82.9179 43.7292 82.7214 44.7306 82.3284 45.5781C81.9354 46.4209 81.3909 47.0743 80.6949 47.5384C79.9989 47.9976 79.1963 48.2273 78.2872 48.2273C77.5865 48.2273 77.0254 48.1113 76.604 47.8793C76.1826 47.6425 75.8582 47.375 75.631 47.0767C75.4037 46.7737 75.2285 46.5227 75.1054 46.3239L74.9634 46.3239L74.9634 52.0909L73.2872 52.0909ZM74.9349 42.5455C74.9349 43.3693 75.0557 44.0961 75.2972 44.7259C75.5386 45.3509 75.8914 45.8409 76.3554 46.196C76.8194 46.5464 77.3876 46.7216 78.0599 46.7216C78.7607 46.7216 79.3455 46.5369 79.8142 46.1676C80.2877 45.7936 80.6428 45.2917 80.8795 44.6619C81.121 44.0275 81.2418 43.322 81.2418 42.5455C81.2418 41.7784 81.1234 41.0871 80.8866 40.4716C80.6546 39.8513 80.3019 39.3613 79.8284 39.0014C79.3597 38.6368 78.7702 38.4545 78.0599 38.4545C77.3781 38.4545 76.8052 38.6274 76.3412 38.973C75.8772 39.3139 75.5268 39.7921 75.2901 40.4077C75.0533 41.0185 74.9349 41.7311 74.9349 42.5455ZM91.8406 45.7273L95.6474 37.0909L97.2384 37.0909L92.5224 48L91.1588 48L86.5281 37.0909L88.0906 37.0909L91.8406 45.7273ZM87.5509 37.0909L87.5509 48L85.8747 48L85.8747 37.0909L87.5509 37.0909ZM96.1304 48L96.1304 37.0909L97.8065 37.0909L97.8065 48L96.1304 48ZM102.951 45.5284L108.207 37.0909L110.138 37.0909L110.138 48L108.462 48L108.462 39.5625L103.235 48L101.275 48L101.275 37.0909L102.951 37.0909L102.951 45.5284ZM112.444 51.125L112.444 46.4375L113.353 46.4375C113.575 46.2055 113.767 45.9545 113.928 45.6847C114.089 45.4148 114.229 45.0952 114.347 44.7259C114.47 44.3518 114.574 43.8973 114.659 43.3622C114.745 42.8224 114.82 42.1714 114.887 41.4091L115.256 37.0909L122.188 37.0909L122.188 46.4375L123.864 46.4375L123.864 51.125L122.188 51.125L122.188 48L114.12 48L114.12 51.125L112.444 51.125ZM115.256 46.4375L120.512 46.4375L120.512 38.6534L116.819 38.6534L116.534 41.4091C116.416 42.5502 116.269 43.5469 116.094 44.3992C115.919 45.2514 115.64 45.9309 115.256 46.4375ZM130.921 48.2273C129.936 48.2273 129.072 47.9929 128.328 47.5242C127.59 47.0554 127.012 46.3996 126.595 45.5568C126.183 44.714 125.977 43.7292 125.977 42.6023C125.977 41.4659 126.183 40.474 126.595 39.6264C127.012 38.7789 127.59 38.1207 128.328 37.652C129.072 37.1832 129.936 36.9489 130.921 36.9489C131.905 36.9489 132.767 37.1832 133.506 37.652C134.249 38.1207 134.827 38.7789 135.239 39.6264C135.655 40.474 135.864 41.4659 135.864 42.6023C135.864 43.7292 135.655 44.714 135.239 45.5568C134.827 46.3996 134.249 47.0554 133.506 47.5242C132.767 47.9929 131.905 48.2273 130.921 48.2273ZM130.921 46.7216C131.669 46.7216 132.284 46.5298 132.767 46.1463C133.25 45.7628 133.608 45.2585 133.84 44.6335C134.072 44.0085 134.188 43.3314 134.188 42.6023C134.188 41.8731 134.072 41.1937 133.84 40.5639C133.608 39.9342 133.25 39.4252 132.767 39.0369C132.284 38.6487 131.669 38.4545 130.921 38.4545C130.172 38.4545 129.557 38.6487 129.074 39.0369C128.591 39.4252 128.234 39.9342 128.002 40.5639C127.77 41.1937 127.654 41.8731 127.654 42.6023C127.654 43.3314 127.77 44.0085 128.002 44.6335C128.234 45.2585 128.591 45.7628 129.074 46.1463C129.557 46.5298 130.172 46.7216 130.921 46.7216ZM146.124 41.7784L146.124 43.3409L140.101 43.3409L140.101 41.7784L146.124 41.7784ZM140.499 37.0909L140.499 48L138.822 48L138.822 37.0909L140.499 37.0909ZM147.402 37.0909L147.402 48L145.726 48L145.726 37.0909L147.402 37.0909ZM149.379 38.6534L149.379 37.0909L158.242 37.0909L158.242 38.6534L154.663 38.6534L154.663 48L152.987 48L152.987 38.6534L149.379 38.6534ZM164.953 48.2273C163.968 48.2273 163.104 47.9929 162.36 47.5242C161.622 47.0554 161.044 46.3996 160.627 45.5568C160.215 44.714 160.009 43.7292 160.009 42.6023C160.009 41.4659 160.215 40.474 160.627 39.6264C161.044 38.7789 161.622 38.1207 162.36 37.652C163.104 37.1832 163.968 36.9489 164.953 36.9489C165.937 36.9489 166.799 37.1832 167.538 37.652C168.281 38.1207 168.859 38.7789 169.271 39.6264C169.687 40.474 169.896 41.4659 169.896 42.6023C169.896 43.7292 169.687 44.714 169.271 45.5568C168.859 46.3996 168.281 47.0554 167.538 47.5242C166.799 47.9929 165.937 48.2273 164.953 48.2273ZM164.953 46.7216C165.701 46.7216 166.316 46.5298 166.799 46.1463C167.282 45.7628 167.64 45.2585 167.872 44.6335C168.104 44.0085 168.22 43.3314 168.22 42.6023C168.22 41.8731 168.104 41.1937 167.872 40.5639C167.64 39.9342 167.282 39.4252 166.799 39.0369C166.316 38.6487 165.701 38.4546 164.953 38.4546C164.205 38.4546 163.589 38.6487 163.106 39.0369C162.623 39.4252 162.266 39.9342 162.034 40.5639C161.802 41.1937 161.686 41.8731 161.686 42.6023C161.686 43.3314 161.802 44.0085 162.034 44.6335C162.266 45.2585 162.623 45.7628 163.106 46.1463C163.589 46.5298 164.205 46.7216 164.953 46.7216ZM172.854 48L172.854 37.0909L177.315 37.0909C178.489 37.0909 179.422 37.3561 180.113 37.8864C180.804 38.4167 181.15 39.1174 181.15 39.9886C181.15 40.6515 180.953 41.1653 180.56 41.5298C180.167 41.8897 179.663 42.1335 179.048 42.2614C179.45 42.3182 179.841 42.4602 180.219 42.6875C180.603 42.9148 180.92 43.2273 181.171 43.625C181.422 44.018 181.548 44.501 181.548 45.0739C181.548 45.6326 181.406 46.1321 181.121 46.5725C180.837 47.0128 180.43 47.3608 179.9 47.6165C179.37 47.8722 178.735 48 177.996 48L172.854 48ZM174.445 46.4659L177.996 46.4659C178.574 46.4659 179.026 46.3286 179.353 46.054C179.68 45.7794 179.843 45.4053 179.843 44.9318C179.843 44.3684 179.68 43.9257 179.353 43.6037C179.026 43.277 178.574 43.1136 177.996 43.1136L174.445 43.1136L174.445 46.4659ZM174.445 41.6648L177.315 41.6648C177.764 41.6648 178.15 41.6032 178.472 41.4801C178.794 41.3523 179.04 41.1724 179.211 40.9403C179.386 40.7036 179.474 40.4242 179.474 40.1023C179.474 39.643 179.282 39.2832 178.898 39.0227C178.515 38.7576 177.987 38.625 177.315 38.625L174.445 38.625L174.445 41.6648ZM44.5114 79.5227L44.5114 74.4375L45.4489 74.4375C45.7708 74.1439 46.0739 73.7296 46.358 73.1946C46.6468 72.6548 46.8906 71.9351 47.0895 71.0355C47.2931 70.1312 47.428 68.983 47.4943 67.5909L47.8068 61.4545L56.4432 61.4545L56.4432 74.4375L58.1193 74.4375L58.1193 79.4943L56.4432 79.4943L56.4432 76L46.1875 76L46.1875 79.5227L44.5114 79.5227ZM47.5511 74.4375L54.767 74.4375L54.767 63.017L49.3977 63.017L49.1705 67.5909C49.1136 68.6515 49.0142 69.6127 48.8722 70.4744C48.7301 71.3314 48.5478 72.0914 48.3253 72.7543C48.1027 73.4124 47.8447 73.9735 47.5511 74.4375ZM66.9195 73.7273L70.7263 65.0909L72.3173 65.0909L67.6013 76L66.2377 76L61.607 65.0909L63.1695 65.0909L66.9195 73.7273ZM62.6298 65.0909L62.6298 76L60.9536 76L60.9536 65.0909L62.6298 65.0909ZM71.2093 76L71.2093 65.0909L72.8854 65.0909L72.8854 76L71.2093 76ZM78.0298 73.5284L83.2854 65.0909L85.2173 65.0909L85.2173 76L83.5411 76L83.5411 67.5625L78.3138 76L76.3536 76L76.3536 65.0909L78.0298 65.0909L78.0298 73.5284ZM87.2028 66.6534L87.2028 65.0909L96.0665 65.0909L96.0665 66.6534L92.4869 66.6534L92.4869 76L90.8108 76L90.8108 66.6534L87.2028 66.6534ZM98.9114 80.0909L98.9114 65.0909L100.531 65.0909L100.531 66.8239L100.73 66.8239C100.853 66.6345 101.023 66.393 101.241 66.0994C101.464 65.8011 101.781 65.536 102.193 65.304C102.609 65.0672 103.173 64.9489 103.883 64.9489C104.802 64.9489 105.611 65.1785 106.312 65.6378C107.013 66.0971 107.56 66.7481 107.953 67.5909C108.346 68.4337 108.542 69.428 108.542 70.5739C108.542 71.7292 108.346 72.7306 107.953 73.5781C107.56 74.4209 107.015 75.0743 106.319 75.5384C105.623 75.9976 104.821 76.2273 103.911 76.2273C103.211 76.2273 102.65 76.1113 102.228 75.8793C101.807 75.6425 101.482 75.375 101.255 75.0767C101.028 74.7737 100.853 74.5227 100.73 74.3239L100.588 74.3239L100.588 80.0909L98.9114 80.0909ZM100.559 70.5455C100.559 71.3693 100.68 72.0961 100.921 72.7259C101.163 73.3509 101.516 73.8409 101.98 74.196C102.444 74.5464 103.012 74.7216 103.684 74.7216C104.385 74.7216 104.97 74.5369 105.438 74.1676C105.912 73.7936 106.267 73.2917 106.504 72.6619C106.745 72.0275 106.866 71.322 106.866 70.5455C106.866 69.7784 106.748 69.0871 106.511 68.4716C106.279 67.8513 105.926 67.3613 105.453 67.0014C104.984 66.6368 104.394 66.4545 103.684 66.4545C103.002 66.4545 102.429 66.6274 101.965 66.973C101.501 67.3139 101.151 67.7921 100.914 68.4077C100.678 69.0185 100.559 69.7311 100.559 70.5455ZM113.175 73.5284L118.431 65.0909L120.363 65.0909L120.363 76L118.686 76L118.686 67.5625L113.459 76L111.499 76L111.499 65.0909L113.175 65.0909L113.175 73.5284ZM125.509 73.5284L130.764 65.0909L132.696 65.0909L132.696 76L131.02 76L131.02 67.5625L125.793 76L123.833 76L123.833 65.0909L125.509 65.0909L125.509 73.5284ZM129.656 61.4545L131.219 61.4545C131.219 62.2216 130.954 62.849 130.423 63.3367C129.893 63.8243 129.173 64.0682 128.264 64.0682C127.369 64.0682 126.657 63.8243 126.127 63.3367C125.601 62.849 125.338 62.2216 125.338 61.4545L126.901 61.4545C126.901 61.8239 127.003 62.1482 127.206 62.4276C127.414 62.7069 127.767 62.8466 128.264 62.8466C128.762 62.8466 129.117 62.7069 129.33 62.4276C129.547 62.1482 129.656 61.8239 129.656 61.4545Z" fill="#2B4554"/>
<path d="M44 96L224 96" stroke="#2B4554" stroke-width="1.8" stroke-linecap="round"/>
<path d="M52.4318 124.364L52.4318 125.614L46.8182 125.614L46.8182 136L45.4091 136L45.4091 124.364L52.4318 124.364ZM53.5241 139.273L53.5241 127.273L54.8196 127.273L54.8196 128.659L54.9787 128.659C55.0772 128.508 55.2135 128.314 55.3878 128.08C55.5658 127.841 55.8196 127.629 56.1491 127.443C56.4825 127.254 56.9332 127.159 57.5014 127.159C58.2363 127.159 58.884 127.343 59.4446 127.71C60.0052 128.078 60.4427 128.598 60.7571 129.273C61.0715 129.947 61.2287 130.742 61.2287 131.659C61.2287 132.583 61.0715 133.384 60.7571 134.063C60.4427 134.737 60.0071 135.259 59.4503 135.631C58.8935 135.998 58.2514 136.182 57.5241 136.182C56.9635 136.182 56.5147 136.089 56.1776 135.903C55.8404 135.714 55.581 135.5 55.3991 135.261C55.2173 135.019 55.0772 134.818 54.9787 134.659L54.8651 134.659L54.8651 139.273L53.5241 139.273ZM54.8423 131.636C54.8423 132.295 54.9389 132.877 55.1321 133.381C55.3253 133.881 55.6075 134.273 55.9787 134.557C56.3499 134.837 56.8045 134.977 57.3423 134.977C57.9029 134.977 58.3707 134.83 58.7457 134.534C59.1245 134.235 59.4086 133.833 59.598 133.33C59.7912 132.822 59.8878 132.258 59.8878 131.636C59.8878 131.023 59.7931 130.47 59.6037 129.977C59.4181 129.481 59.1359 129.089 58.7571 128.801C58.3821 128.509 57.9105 128.364 57.3423 128.364C56.7969 128.364 56.3385 128.502 55.9673 128.778C55.5961 129.051 55.3158 129.434 55.1264 129.926C54.937 130.415 54.8423 130.985 54.8423 131.636ZM65.8423 136.205C65.2893 136.205 64.7874 136.1 64.3366 135.892C63.8859 135.68 63.5279 135.375 63.2628 134.977C62.9976 134.576 62.8651 134.091 62.8651 133.523C62.8651 133.023 62.9635 132.617 63.1605 132.307C63.3575 131.992 63.6207 131.746 63.9503 131.568C64.2798 131.39 64.6435 131.258 65.0412 131.17C65.4427 131.08 65.8461 131.008 66.2514 130.955C66.7817 130.886 67.2116 130.835 67.5412 130.801C67.8745 130.763 68.117 130.701 68.2685 130.614C68.4238 130.527 68.5014 130.375 68.5014 130.159L68.5014 130.114C68.5014 129.553 68.348 129.117 68.0412 128.807C67.7382 128.496 67.2779 128.341 66.6605 128.341C66.0204 128.341 65.5185 128.481 65.1548 128.761C64.7912 129.042 64.5355 129.341 64.3878 129.659L63.1151 129.205C63.3423 128.674 63.6454 128.261 64.0241 127.966C64.4067 127.667 64.8234 127.458 65.2741 127.341C65.7287 127.22 66.1757 127.159 66.6151 127.159C66.8954 127.159 67.2173 127.193 67.581 127.261C67.9484 127.326 68.3026 127.46 68.6435 127.665C68.9882 127.869 69.2741 128.178 69.5014 128.591C69.7287 129.004 69.8423 129.557 69.8423 130.25L69.8423 136L68.5014 136L68.5014 134.818L68.4332 134.818C68.3423 135.008 68.1908 135.21 67.9787 135.426C67.7666 135.642 67.4844 135.826 67.1321 135.977C66.7798 136.129 66.3499 136.205 65.8423 136.205ZM66.0469 135C66.5772 135 67.0241 134.896 67.3878 134.688C67.7552 134.479 68.0317 134.21 68.2173 133.881C68.4067 133.551 68.5014 133.205 68.5014 132.841L68.5014 131.614C68.4446 131.682 68.3196 131.744 68.1264 131.801C67.937 131.854 67.7173 131.902 67.4673 131.943C67.2211 131.981 66.9806 132.015 66.7457 132.045C66.5147 132.072 66.3272 132.095 66.1832 132.114C65.8348 132.159 65.509 132.233 65.206 132.335C64.9067 132.434 64.6643 132.583 64.4787 132.784C64.2969 132.981 64.206 133.25 64.206 133.591C64.206 134.057 64.3783 134.409 64.723 134.648C65.0715 134.883 65.5128 135 66.0469 135ZM75.8352 138.977L75.8352 124.364L77.1761 124.364L77.1761 138.977L75.8352 138.977ZM75.8352 136.182C75.2443 136.182 74.7064 136.076 74.2216 135.864C73.7367 135.648 73.3201 135.343 72.9716 134.949C72.6231 134.551 72.3542 134.076 72.1648 133.523C71.9754 132.97 71.8807 132.356 71.8807 131.682C71.8807 131 71.9754 130.383 72.1648 129.83C72.3542 129.273 72.6231 128.795 72.9716 128.398C73.3201 128 73.7367 127.695 74.2216 127.483C74.7064 127.267 75.2443 127.159 75.8352 127.159L76.2443 127.159L76.2443 136.182L75.8352 136.182ZM75.8352 134.977L76.0625 134.977L76.0625 128.364L75.8352 128.364C75.3883 128.364 75 128.455 74.6705 128.636C74.3409 128.814 74.0682 129.059 73.8523 129.369C73.6402 129.676 73.4811 130.028 73.375 130.426C73.2727 130.824 73.2216 131.242 73.2216 131.682C73.2216 132.265 73.3144 132.807 73.5 133.307C73.6856 133.807 73.9716 134.21 74.358 134.517C74.7443 134.824 75.2367 134.977 75.8352 134.977ZM77.1761 136.182L76.767 136.182L76.767 127.159L77.1761 127.159C77.767 127.159 78.3049 127.267 78.7898 127.483C79.2746 127.695 79.6913 128 80.0398 128.398C80.3883 128.795 80.6572 129.273 80.8466 129.83C81.036 130.383 81.1307 131 81.1307 131.682C81.1307 132.356 81.036 132.97 80.8466 133.523C80.6572 134.076 80.3883 134.551 80.0398 134.949C79.6913 135.343 79.2746 135.648 78.7898 135.864C78.3049 136.076 77.767 136.182 77.1761 136.182ZM77.1761 134.977C77.6269 134.977 78.0152 134.89 78.3409 134.716C78.6705 134.538 78.9413 134.295 79.1534 133.989C79.3693 133.678 79.5284 133.326 79.6307 132.932C79.7367 132.534 79.7898 132.117 79.7898 131.682C79.7898 131.098 79.697 130.555 79.5114 130.051C79.3258 129.547 79.0398 129.14 78.6534 128.83C78.267 128.519 77.7746 128.364 77.1761 128.364L76.9489 128.364L76.9489 134.977L77.1761 134.977ZM84.5213 134.023L88.7259 127.273L90.2713 127.273L90.2713 136L88.9304 136L88.9304 129.25L84.7486 136L83.1804 136L83.1804 127.273L84.5213 127.273L84.5213 134.023ZM99.4545 127.273L99.4545 136L98.1136 136L98.1136 127.273L99.4545 127.273ZM98.9318 131.432L98.9318 132.682C98.6288 132.795 98.3277 132.896 98.0284 132.983C97.7292 133.066 97.4148 133.133 97.0852 133.182C96.7557 133.227 96.3939 133.25 96 133.25C95.0114 133.25 94.2178 132.983 93.6193 132.449C93.0246 131.915 92.7273 131.114 92.7273 130.045L92.7273 127.25L94.0682 127.25L94.0682 130.045C94.0682 130.492 94.1534 130.86 94.3239 131.148C94.4943 131.436 94.7254 131.65 95.017 131.79C95.3087 131.93 95.6364 132 96 132C96.5682 132 97.0814 131.949 97.5398 131.847C98.0019 131.741 98.4659 131.602 98.9318 131.432ZM105.574 136.182C104.733 136.182 104.008 135.996 103.398 135.625C102.792 135.25 102.324 134.727 101.994 134.057C101.669 133.383 101.506 132.598 101.506 131.705C101.506 130.811 101.669 130.023 101.994 129.341C102.324 128.655 102.782 128.121 103.369 127.739C103.96 127.352 104.65 127.159 105.437 127.159C105.892 127.159 106.341 127.235 106.784 127.386C107.227 127.538 107.631 127.784 107.994 128.125C108.358 128.462 108.648 128.909 108.864 129.466C109.08 130.023 109.187 130.708 109.187 131.523L109.187 132.091L102.46 132.091L102.46 130.932L107.824 130.932C107.824 130.439 107.725 130 107.528 129.614C107.335 129.227 107.059 128.922 106.699 128.699C106.343 128.475 105.922 128.364 105.437 128.364C104.903 128.364 104.441 128.496 104.051 128.761C103.665 129.023 103.367 129.364 103.159 129.784C102.951 130.205 102.847 130.655 102.847 131.136L102.847 131.909C102.847 132.568 102.96 133.127 103.187 133.585C103.419 134.04 103.739 134.386 104.148 134.625C104.557 134.86 105.032 134.977 105.574 134.977C105.926 134.977 106.244 134.928 106.528 134.83C106.816 134.727 107.064 134.576 107.273 134.375C107.481 134.17 107.642 133.917 107.756 133.614L109.051 133.977C108.915 134.417 108.686 134.803 108.364 135.136C108.042 135.466 107.644 135.723 107.17 135.909C106.697 136.091 106.165 136.182 105.574 136.182ZM114.773 136.182C113.955 136.182 113.25 135.989 112.659 135.602C112.068 135.216 111.614 134.684 111.295 134.006C110.977 133.328 110.818 132.553 110.818 131.682C110.818 130.795 110.981 130.013 111.307 129.335C111.636 128.653 112.095 128.121 112.682 127.739C113.273 127.352 113.962 127.159 114.75 127.159C115.364 127.159 115.917 127.273 116.409 127.5C116.902 127.727 117.305 128.045 117.619 128.455C117.934 128.864 118.129 129.341 118.205 129.886L116.864 129.886C116.761 129.489 116.534 129.136 116.182 128.83C115.833 128.519 115.364 128.364 114.773 128.364C114.25 128.364 113.792 128.5 113.398 128.773C113.008 129.042 112.703 129.422 112.483 129.915C112.267 130.403 112.159 130.977 112.159 131.636C112.159 132.311 112.265 132.898 112.477 133.398C112.693 133.898 112.996 134.286 113.386 134.563C113.78 134.839 114.242 134.977 114.773 134.977C115.121 134.977 115.437 134.917 115.722 134.795C116.006 134.674 116.246 134.5 116.443 134.273C116.64 134.045 116.78 133.773 116.864 133.455L118.205 133.455C118.129 133.97 117.941 134.434 117.642 134.847C117.347 135.256 116.955 135.581 116.466 135.824C115.981 136.063 115.417 136.182 114.773 136.182ZM120.165 136L120.165 127.273L121.506 127.273L121.506 131.068L122.392 131.068L125.528 127.273L127.256 127.273L123.733 131.477L127.301 136L125.574 136L122.71 132.318L121.506 132.318L121.506 136L120.165 136ZM130.099 134.023L134.304 127.273L135.849 127.273L135.849 136L134.509 136L134.509 129.25L130.327 136L128.759 136L128.759 127.273L130.099 127.273L130.099 134.023ZM139.646 134.023L143.851 127.273L145.396 127.273L145.396 136L144.055 136L144.055 129.25L139.874 136L138.305 136L138.305 127.273L139.646 127.273L139.646 134.023ZM142.964 124.364L144.214 124.364C144.214 124.977 144.002 125.479 143.578 125.869C143.154 126.259 142.578 126.455 141.851 126.455C141.135 126.455 140.565 126.259 140.141 125.869C139.72 125.479 139.51 124.977 139.51 124.364L140.76 124.364C140.76 124.659 140.841 124.919 141.004 125.142C141.171 125.366 141.453 125.477 141.851 125.477C142.249 125.477 142.533 125.366 142.703 125.142C142.877 124.919 142.964 124.659 142.964 124.364ZM151.42 138.5L151.42 134.75L152.148 134.75C152.326 134.564 152.479 134.364 152.608 134.148C152.737 133.932 152.848 133.676 152.943 133.381C153.042 133.081 153.125 132.718 153.193 132.29C153.261 131.858 153.322 131.337 153.375 130.727L153.67 127.273L159.216 127.273L159.216 134.75L160.557 134.75L160.557 138.5L159.216 138.5L159.216 136L152.761 136L152.761 138.5L151.42 138.5ZM153.67 134.75L157.875 134.75L157.875 128.523L154.92 128.523L154.693 130.727C154.598 131.64 154.481 132.438 154.341 133.119C154.201 133.801 153.977 134.345 153.67 134.75ZM163.678 134.023L167.882 127.273L169.428 127.273L169.428 136L168.087 136L168.087 129.25L163.905 136L162.337 136L162.337 127.273L163.678 127.273L163.678 134.023ZM171.338 133.773L172.77 133.773C172.8 134.167 172.978 134.466 173.304 134.67C173.634 134.875 174.062 134.977 174.588 134.977C175.126 134.977 175.586 134.867 175.969 134.648C176.351 134.424 176.543 134.064 176.543 133.568C176.543 133.277 176.471 133.023 176.327 132.807C176.183 132.587 175.98 132.417 175.719 132.295C175.457 132.174 175.149 132.114 174.793 132.114L173.293 132.114L173.293 130.909L174.793 130.909C175.327 130.909 175.721 130.788 175.974 130.545C176.232 130.303 176.361 130 176.361 129.636C176.361 129.246 176.223 128.934 175.946 128.699C175.67 128.46 175.277 128.341 174.77 128.341C174.259 128.341 173.832 128.456 173.491 128.688C173.151 128.915 172.971 129.208 172.952 129.568L171.543 129.568C171.558 129.098 171.702 128.684 171.974 128.324C172.247 127.96 172.618 127.676 173.088 127.472C173.558 127.263 174.096 127.159 174.702 127.159C175.315 127.159 175.848 127.267 176.298 127.483C176.753 127.695 177.103 127.985 177.349 128.352C177.599 128.716 177.724 129.129 177.724 129.591C177.724 130.083 177.586 130.481 177.31 130.784C177.033 131.087 176.687 131.303 176.27 131.432L176.27 131.523C176.599 131.545 176.885 131.652 177.128 131.841C177.374 132.027 177.565 132.271 177.702 132.574C177.838 132.873 177.906 133.205 177.906 133.568C177.906 134.098 177.764 134.561 177.48 134.955C177.196 135.345 176.806 135.648 176.31 135.864C175.813 136.076 175.247 136.182 174.611 136.182C173.993 136.182 173.44 136.081 172.952 135.881C172.463 135.676 172.075 135.394 171.787 135.034C171.503 134.67 171.353 134.25 171.338 133.773ZM182.358 136.205C181.805 136.205 181.303 136.1 180.852 135.892C180.402 135.68 180.044 135.375 179.778 134.977C179.513 134.576 179.381 134.091 179.381 133.523C179.381 133.023 179.479 132.617 179.676 132.307C179.873 131.992 180.136 131.746 180.466 131.568C180.795 131.39 181.159 131.258 181.557 131.17C181.958 131.08 182.362 131.008 182.767 130.955C183.297 130.886 183.727 130.835 184.057 130.801C184.39 130.763 184.633 130.701 184.784 130.614C184.939 130.527 185.017 130.375 185.017 130.159L185.017 130.114C185.017 129.553 184.864 129.117 184.557 128.807C184.254 128.496 183.794 128.341 183.176 128.341C182.536 128.341 182.034 128.481 181.67 128.761C181.307 129.042 181.051 129.341 180.903 129.659L179.631 129.205C179.858 128.674 180.161 128.261 180.54 127.966C180.922 127.667 181.339 127.458 181.79 127.341C182.244 127.22 182.691 127.159 183.131 127.159C183.411 127.159 183.733 127.193 184.097 127.261C184.464 127.326 184.818 127.46 185.159 127.665C185.504 127.869 185.79 128.178 186.017 128.591C186.244 129.004 186.358 129.557 186.358 130.25L186.358 136L185.017 136L185.017 134.818L184.949 134.818C184.858 135.008 184.706 135.21 184.494 135.426C184.282 135.642 184 135.826 183.648 135.977C183.295 136.129 182.866 136.205 182.358 136.205ZM182.562 135C183.093 135 183.54 134.896 183.903 134.688C184.271 134.479 184.547 134.21 184.733 133.881C184.922 133.551 185.017 133.205 185.017 132.841L185.017 131.614C184.96 131.682 184.835 131.744 184.642 131.801C184.453 131.854 184.233 131.902 183.983 131.943C183.737 131.981 183.496 132.015 183.261 132.045C183.03 132.072 182.843 132.095 182.699 132.114C182.35 132.159 182.025 132.233 181.722 132.335C181.422 132.434 181.18 132.583 180.994 132.784C180.812 132.981 180.722 133.25 180.722 133.591C180.722 134.057 180.894 134.409 181.239 134.648C181.587 134.883 182.028 135 182.562 135ZM190.146 134.023L194.351 127.273L195.896 127.273L195.896 136L194.555 136L194.555 129.25L190.374 136L188.805 136L188.805 127.273L190.146 127.273L190.146 134.023ZM193.464 124.364L194.714 124.364C194.714 124.977 194.502 125.479 194.078 125.869C193.654 126.259 193.078 126.455 192.351 126.455C191.635 126.455 191.065 126.259 190.641 125.869C190.22 125.479 190.01 124.977 190.01 124.364L191.26 124.364C191.26 124.659 191.341 124.919 191.504 125.142C191.671 125.366 191.953 125.477 192.351 125.477C192.749 125.477 193.033 125.366 193.203 125.142C193.377 124.919 193.464 124.659 193.464 124.364ZM204.193 131.023L204.193 132.273L199.375 132.273L199.375 131.023L204.193 131.023ZM199.693 127.273L199.693 136L198.352 136L198.352 127.273L199.693 127.273ZM205.216 127.273L205.216 136L203.875 136L203.875 127.273L205.216 127.273ZM211.324 136.182C210.483 136.182 209.758 135.996 209.148 135.625C208.542 135.25 208.074 134.727 207.744 134.057C207.419 133.383 207.256 132.598 207.256 131.705C207.256 130.811 207.419 130.023 207.744 129.341C208.074 128.655 208.532 128.121 209.119 127.739C209.71 127.352 210.4 127.159 211.187 127.159C211.642 127.159 212.091 127.235 212.534 127.386C212.977 127.538 213.381 127.784 213.744 128.125C214.108 128.462 214.398 128.909 214.614 129.466C214.83 130.023 214.937 130.708 214.937 131.523L214.937 132.091L208.21 132.091L208.21 130.932L213.574 130.932C213.574 130.439 213.475 130 213.278 129.614C213.085 129.227 212.809 128.922 212.449 128.699C212.093 128.475 211.672 128.364 211.187 128.364C210.653 128.364 210.191 128.496 209.801 128.761C209.415 129.023 209.117 129.364 208.909 129.784C208.701 130.205 208.597 130.655 208.597 131.136L208.597 131.909C208.597 132.568 208.71 133.127 208.937 133.585C209.169 134.04 209.489 134.386 209.898 134.625C210.307 134.86 210.782 134.977 211.324 134.977C211.676 134.977 211.994 134.928 212.278 134.83C212.566 134.727 212.814 134.576 213.023 134.375C213.231 134.17 213.392 133.917 213.506 133.614L214.801 133.977C214.665 134.417 214.436 134.803 214.114 135.136C213.792 135.466 213.394 135.723 212.92 135.909C212.447 136.091 211.915 136.182 211.324 136.182ZM216.977 139.273L216.977 127.273L218.273 127.273L218.273 128.659L218.432 128.659C218.53 128.508 218.667 128.314 218.841 128.08C219.019 127.841 219.273 127.629 219.602 127.443C219.936 127.254 220.386 127.159 220.955 127.159C221.689 127.159 222.337 127.343 222.898 127.71C223.458 128.078 223.896 128.598 224.21 129.273C224.525 129.947 224.682 130.742 224.682 131.659C224.682 132.583 224.525 133.384 224.21 134.063C223.896 134.737 223.46 135.259 222.903 135.631C222.347 135.998 221.705 136.182 220.977 136.182C220.417 136.182 219.968 136.089 219.631 135.903C219.294 135.714 219.034 135.5 218.852 135.261C218.67 135.019 218.53 134.818 218.432 134.659L218.318 134.659L218.318 139.273L216.977 139.273ZM218.295 131.636C218.295 132.295 218.392 132.877 218.585 133.381C218.778 133.881 219.061 134.273 219.432 134.557C219.803 134.837 220.258 134.977 220.795 134.977C221.356 134.977 221.824 134.83 222.199 134.534C222.578 134.235 222.862 133.833 223.051 133.33C223.244 132.822 223.341 132.258 223.341 131.636C223.341 131.023 223.246 130.47 223.057 129.977C222.871 129.481 222.589 129.089 222.21 128.801C221.835 128.509 221.364 128.364 220.795 128.364C220.25 128.364 219.792 128.502 219.42 128.778C219.049 129.051 218.769 129.434 218.58 129.926C218.39 130.415 218.295 130.985 218.295 131.636Z" fill="#2B4554"/>
</g>
<defs>
<clipPath id="clip0_1031_3694">
<rect width="180" height="270" fill="white" transform="translate(0 180) rotate(-90)"/>
</clipPath>
</defs>
</svg>
