<svg width="134" height="860" viewBox="0 0 134 860" fill="none" xmlns="http://www.w3.org/2000/svg">
<g clip-path="url(#clip0_1031_3679)">
<path d="M59.549 454.609L104.68 454.609C108.375 454.609 111.344 457.583 111.344 461.285L111.344 700.393C111.344 704.095 108.375 707.068 104.68 707.068L59.6096 707.068C55.9143 707.068 52.9459 704.095 52.9459 700.393L52.9459 461.285C52.9459 457.583 55.9143 454.609 59.549 454.609Z" fill="#E6AB84"/>
<path d="M44.6462 352.169L117.341 352.169C120.612 352.169 123.217 354.839 123.217 358.055L123.217 679.759C123.217 683.036 120.551 685.646 117.341 685.646L44.6463 685.646C41.375 685.646 38.7701 682.975 38.7701 679.759L38.7701 358.055C38.7095 354.839 41.375 352.169 44.6462 352.169Z" fill="#B0CFD6"/>
<path d="M104.437 816.487C104.437 813.15 104.437 773.339 104.437 772.368C104.437 770.608 101.166 770.668 101.166 772.368C101.166 773.399 101.166 834.815 101.166 837.424C101.166 850.897 82.0233 850.472 82.0233 837.424C82.0233 830.263 82.0233 774.31 82.0233 772.914C82.0233 771.275 78.9943 771.336 78.9943 772.853C78.9943 775.463 78.9943 843.675 78.9943 849.683C78.9943 863.823 60.215 862.852 60.215 850.229C60.215 842.947 60.2149 774.249 60.2149 772.914C60.2149 771.215 57.2466 771.093 57.2466 773.096C57.2466 776.555 57.2466 825.226 57.2466 832.691C57.2466 844.768 38.4672 845.739 38.4672 832.569C38.4672 823.527 38.4672 761.99 38.4672 758.531C38.4672 753.13 21.5658 776.07 13.4482 779.225C5.20952 782.442 -1.2724 778.254 0.242073 776.009C1.5748 774.006 14.5386 750.702 19.2638 741.842C22.535 735.712 29.6833 718.599 38.7095 706.34C43.7981 699.482 47.3117 696.933 55.611 696.933C65.6064 696.933 102.862 696.933 107.709 696.933C115.766 696.933 123.277 702.456 123.277 714.533C123.277 722.301 123.277 811.511 123.277 816.305C123.156 830.021 104.437 828.807 104.437 816.487Z" fill="#E6AB84"/>
<path fill-rule="evenodd" clip-rule="evenodd" d="M133.999 502.734L133.999 656.455C133.999 660.096 131.083 663.009 127.437 663.009L35.562 663.009C31.9161 663.009 28.9995 660.096 28.9995 656.455L28.9994 336.147C28.9994 336.119 28.9996 336.091 28.9999 336.063L28.9999 -26.2656L134 -26.2656L134 502.734L133.999 502.734Z" fill="#065973"/>
</g>
<defs>
<clipPath id="clip0_1031_3679">
<rect width="134" height="860" fill="white" transform="translate(134 860) rotate(180)"/>
</clipPath>
</defs>
</svg>
