<svg id="Слой_1" data-name="Слой 1" xmlns="http://www.w3.org/2000/svg" viewBox="0 0 118 944"><defs><style>.cls-1{fill:#e8bda0;}.cls-2{fill:none;stroke:#aa734f;stroke-linecap:round;stroke-linejoin:round;stroke-width:3.05px;}.cls-3{fill:#f18225;}</style></defs><title>Монтажная область 1</title><path class="cls-1" d="M70.42,784.9V545.61a6.28,6.28,0,0,0-6.28-6.29H24.23A6.28,6.28,0,0,0,18,545.61v35.72H12.58a7.5,7.5,0,0,0-7.49,7.51v6a7.49,7.49,0,0,0,7.49,7.51H18V784.9a6.28,6.28,0,0,0,6.28,6.29H64.14A6.24,6.24,0,0,0,70.42,784.9Z"/><path class="cls-1" d="M7.21,900.15c0,.12,0-88.8,0-101.52,0-12,6.76-17.55,14-17.55H68.06c7.37,0,10.63,2.54,15.15,9.38,8.15,12.23,14.61,29.3,17.51,35.41C105,834.72,116.6,858,117.81,860c1.33,2.24-4.53,6.42-11.89,3.21s-22.52-26-22.52-20.64v73.85c0,13.14-16.84,12.17-16.84.12V862a1.36,1.36,0,1,0-2.72-.18v72.22c0,12.59-16.9,13.56-16.9-.54V861.78c0-1.51-2.72-1.57-2.72.06v59.44c0,13-17.21,13.44-17.21,0v-60c0-1.7-2.9-1.76-2.9,0v39.1C24.11,912.68,7.27,913.89,7.21,900.15Z"/><path class="cls-2" d="M19.64,635.26H14.33"/><path class="cls-2" d="M19.64,651.6H14.33"/><path class="cls-2" d="M19.64,643.43H14.33"/><path class="cls-3" d="M.11,0h88V443.17h0V544.46a5.42,5.42,0,0,1-5.43,5.45H5.55a5.42,5.42,0,0,1-5.43-5.45V0Z"/></svg>