<svg width="398" height="300" viewBox="0 0 398 300" fill="none" xmlns="http://www.w3.org/2000/svg">
<g clip-path="url(#clip0_1096_2279)">
<path d="M242.505 283.774L261.642 153.611C262.855 145.357 257.137 137.66 248.89 136.447L39.6108 105.679C31.3632 104.466 23.6717 110.192 22.4583 118.446L3.32172 248.609C2.1083 256.863 7.82623 264.56 16.0739 265.773L225.353 296.541C233.6 297.753 241.292 292.027 242.505 283.774Z" fill="#2B4554" stroke="#009CBB" stroke-width="1.5"/>
<mask id="mask0_1096_2279" style="mask-type:luminance" maskUnits="userSpaceOnUse" x="3" y="106" width="259" height="190">
<path d="M260.9 153.501L241.763 283.665C240.61 291.509 233.299 296.951 225.462 295.799L16.183 265.031C8.34576 263.878 2.91048 256.563 4.06374 248.718L23.2003 118.555C24.3536 110.711 31.6645 105.269 39.5017 106.421L248.781 137.189C256.618 138.341 262.053 145.657 260.9 153.501Z" fill="white"/>
</mask>
<g mask="url(#mask0_1096_2279)">
<path d="M260.9 153.501L241.763 283.665C240.61 291.509 233.299 296.951 225.462 295.799L16.183 265.031C8.34576 263.878 2.91048 256.563 4.06374 248.718L23.2003 118.555C24.3536 110.711 31.6645 105.269 39.5017 106.421L248.781 137.189C256.618 138.341 262.053 145.657 260.9 153.501Z" fill="#2B4554"/>
<path d="M64.6164 167.796L57.6968 214.861C51.9051 254.255 15.3505 281.465 -24.0077 275.678C-63.3659 269.892 -90.5423 233.313 -84.7507 193.919L-77.8311 146.853C-72.0394 107.459 -35.4848 80.2499 3.87341 86.0364C43.2316 91.8228 70.408 128.402 64.6164 167.796Z" fill="#F18225"/>
<path d="M3.87375 86.0368C23.5098 88.9237 40.1586 99.5614 51.1888 114.305C62.2063 129.134 67.5189 148.056 64.6167 167.796L60.8654 193.312L-81.582 172.369L-77.8308 146.854C-72.0391 107.46 -35.4845 80.2504 3.87375 86.0368Z" fill="#009CBB"/>
<path d="M114.06 295.889C96.3111 292.135 81.2479 282.082 71.1245 268.353C60.1071 253.524 54.7944 234.602 57.6966 214.862L64.6162 167.796C64.7936 166.589 64.9837 165.296 65.2473 164.102C65.336 163.498 65.5108 162.908 65.5995 162.304C65.8504 161.196 66.1013 160.088 66.4256 159.079C66.5751 158.661 66.6385 158.23 66.7879 157.812C66.8133 157.639 66.9248 157.48 66.9628 157.221C67.1123 156.803 67.2618 156.384 67.3251 155.953C67.3378 155.867 67.3631 155.695 67.4619 155.621C67.6114 155.203 67.7609 154.784 67.9104 154.366C67.9358 154.194 68.0472 154.034 68.0599 153.948C68.2094 153.529 68.3716 153.025 68.521 152.606C68.5337 152.52 68.5337 152.52 68.6325 152.447C68.7947 151.942 69.0303 151.537 69.1924 151.032C69.2051 150.946 69.2178 150.86 69.3166 150.786C69.4534 150.454 69.6029 150.036 69.7397 149.703C69.8765 149.371 70.0133 149.039 70.1502 148.707C70.1628 148.621 70.1755 148.535 70.2616 148.547C70.4111 148.129 70.6594 147.637 70.895 147.231C71.2548 146.58 71.5411 145.829 71.9008 145.178C72.0376 144.845 72.2606 144.526 72.3974 144.194C72.5215 143.948 72.633 143.788 72.7572 143.542C72.9801 143.223 73.1296 142.804 73.3525 142.485C73.3652 142.399 73.464 142.325 73.4767 142.239C73.6996 141.92 73.9352 141.514 74.1582 141.194C74.2696 141.035 74.3811 140.875 74.4926 140.715C74.7282 140.309 74.9638 139.904 75.2855 139.511C75.2855 139.511 75.2982 139.425 75.3843 139.437C75.7187 138.958 75.967 138.466 76.3014 137.987C76.6232 137.594 76.8714 137.102 77.1932 136.709C79.9546 132.888 83.0351 129.29 86.4094 126.087C87.2252 125.326 88.0282 124.652 88.8439 123.891C89.2518 123.511 89.6596 123.131 90.1409 122.849C90.7464 122.322 91.438 121.807 92.1295 121.292C92.8211 120.777 93.4266 120.25 94.1055 119.821C94.5868 119.54 94.9946 119.159 95.4759 118.878C95.9572 118.596 96.3651 118.216 96.8464 117.935C97.7229 117.359 98.6855 116.796 99.562 116.22C99.562 116.22 99.6608 116.147 99.7469 116.159C100.228 115.878 100.623 115.584 101.092 115.388C101.487 115.094 101.956 114.899 102.425 114.704C102.992 114.435 103.572 114.08 104.139 113.811C104.608 113.616 104.991 113.408 105.459 113.213C105.558 113.139 105.743 113.078 105.842 113.005C106.31 112.809 106.693 112.601 107.075 112.393C107.544 112.198 107.927 111.99 108.395 111.795C108.963 111.526 109.604 111.356 110.171 111.087C110.64 110.892 111.194 110.709 111.663 110.514C112.132 110.319 112.588 110.21 113.056 110.014C113.525 109.819 113.981 109.71 114.536 109.527L114.622 109.54C115.176 109.357 115.731 109.175 116.273 109.078C116.729 108.969 117.185 108.86 117.654 108.665C118.295 108.495 119.022 108.337 119.663 108.167C119.934 108.119 120.217 107.985 120.575 107.949C120.846 107.901 121.215 107.779 121.486 107.731C123.754 107.272 125.922 106.886 128.237 106.698C128.779 106.602 129.395 106.604 129.937 106.508C130.479 106.411 131.094 106.414 131.624 106.403C132.153 106.393 132.782 106.309 133.311 106.299C133.926 106.302 134.456 106.291 135.071 106.294C135.687 106.296 136.216 106.286 136.832 106.289C137.447 106.291 137.977 106.281 138.58 106.369C139.195 106.372 139.712 106.448 140.328 106.45C140.943 106.453 141.46 106.529 142.063 106.617L114.232 295.914L114.06 295.889Z" fill="#009CBB"/>
<path d="M148.806 107.433C149.237 107.496 149.581 107.547 149.999 107.696C150.516 107.772 151.02 107.934 151.623 108.023C152.312 108.124 152.902 108.299 153.578 108.487C154.771 108.75 155.952 109.1 157.046 109.437C158.054 109.761 158.976 110.073 159.984 110.397C160.316 110.534 160.574 110.572 160.906 110.709C161.324 110.858 161.742 111.008 162.16 111.157C162.75 111.332 163.242 111.581 163.819 111.842C164.237 111.991 164.642 112.227 165.146 112.389C165.478 112.526 165.81 112.663 166.129 112.886C166.301 112.911 166.461 113.023 166.62 113.134C166.952 113.271 167.198 113.395 167.53 113.532C167.948 113.682 168.267 113.905 168.672 114.14C169.164 114.389 169.569 114.624 170.06 114.873C170.711 115.233 171.448 115.605 172.099 115.965C172.345 116.089 172.664 116.312 172.91 116.437C173.155 116.561 173.389 116.771 173.634 116.895C174.039 117.131 174.445 117.367 174.85 117.602C175.807 118.272 176.778 118.855 177.735 119.524C178.373 119.97 178.925 120.403 179.564 120.849C179.883 121.072 180.189 121.382 180.595 121.617C180.987 121.939 181.306 122.162 181.699 122.484C184.128 124.514 186.458 126.618 188.578 128.956C189.118 129.475 189.558 130.068 190.098 130.588C190.551 131.095 191.005 131.602 191.445 132.195C191.678 132.405 191.899 132.702 192.046 132.9C192.633 133.691 193.233 134.395 193.821 135.186C194.409 135.977 194.996 136.768 195.498 137.546C195.718 137.843 195.865 138.041 195.999 138.325C196.44 138.918 196.794 139.498 197.149 140.079C197.504 140.659 197.932 141.339 198.274 142.005C198.42 142.203 198.481 142.388 198.555 142.487C198.836 142.969 199.043 143.351 199.325 143.833C199.606 144.315 199.874 144.883 200.155 145.364C200.363 145.747 200.558 146.216 200.766 146.599C200.826 146.784 200.887 146.969 201.047 147.081C201.523 148.031 201.986 149.068 202.376 150.006C202.559 150.561 202.84 151.043 203.022 151.598C203.217 152.067 203.399 152.622 203.582 153.177C204.397 155.411 205.101 157.804 205.719 160.184C205.828 160.641 205.924 161.183 206.119 161.652C206.302 162.207 206.385 162.836 206.481 163.379C206.577 163.921 206.674 164.464 206.843 165.105C206.927 165.734 207.096 166.375 207.18 167.004C207.276 167.547 207.372 168.089 207.469 168.632C207.671 170.247 207.874 171.862 207.977 173.55C208.013 173.907 207.975 174.166 208.01 174.523C208.03 175.583 208.063 176.557 208.083 177.616C208.078 178.849 208.073 180.081 207.994 181.214C207.898 183.666 207.629 186.092 207.262 188.592L200.317 235.83C194.652 274.362 159.465 301.244 121.122 296.928L148.978 107.458L148.806 107.433Z" fill="#F18225"/>
<path d="M141.903 106.505L127.088 207.274L60.2568 197.448L64.6164 167.795C64.7939 166.588 64.984 165.295 65.2475 164.101C65.3362 163.498 65.5111 162.907 65.5998 162.304C65.8506 161.196 66.1015 160.088 66.4258 159.079C66.5753 158.66 66.6387 158.229 66.7882 157.811C66.8135 157.639 66.925 157.479 66.963 157.22C67.1125 156.802 67.262 156.383 67.3254 155.952C67.338 155.866 67.3634 155.694 67.4622 155.62C67.6117 155.202 67.7612 154.784 67.9106 154.365C67.936 154.193 68.0475 154.033 68.0601 153.947C68.2096 153.529 68.3718 153.024 68.5213 152.606C68.534 152.52 68.534 152.52 68.6327 152.446C68.7949 151.941 69.0305 151.536 69.1927 151.031C69.2054 150.945 69.218 150.859 69.3168 150.785C69.4536 150.453 69.6031 150.035 69.7399 149.703C69.8768 149.371 70.0136 149.038 70.1504 148.706C70.1631 148.62 70.1757 148.534 70.2619 148.546C70.4114 148.128 70.6596 147.636 70.8953 147.231C71.255 146.579 71.5413 145.828 71.9011 145.177C72.0379 144.845 72.2608 144.525 72.3976 144.193C72.5218 143.947 72.6332 143.787 72.7574 143.541C72.9803 143.222 73.1298 142.804 73.3528 142.484C73.3654 142.398 73.4642 142.324 73.4769 142.238C73.6998 141.919 73.9355 141.513 74.1584 141.194C74.2699 141.034 74.3813 140.874 74.4928 140.714C74.7284 140.309 74.964 139.903 75.2858 139.51C75.2858 139.51 75.2984 139.424 75.3846 139.436C75.719 138.957 75.9673 138.465 76.3017 137.986C76.6234 137.593 76.8717 137.101 77.1934 136.708C79.9548 132.887 83.0353 129.289 86.4097 126.086C87.2254 125.326 88.0284 124.651 88.8442 123.891C89.252 123.51 89.6599 123.13 90.1412 122.848C90.7466 122.321 91.4382 121.806 92.1298 121.291C92.8214 120.777 93.4268 120.249 94.1057 119.821C94.587 119.539 94.9949 119.159 95.4762 118.877C95.9575 118.596 96.3653 118.215 96.8466 117.934C97.7231 117.358 98.6858 116.795 99.5623 116.22C99.5623 116.22 99.661 116.146 99.7472 116.159C100.228 115.877 100.624 115.583 101.092 115.388C101.487 115.094 101.956 114.898 102.425 114.703C102.992 114.434 103.572 114.079 104.14 113.81C104.608 113.615 104.991 113.407 105.46 113.212C105.558 113.138 105.743 113.077 105.842 113.004C106.311 112.809 106.693 112.601 107.076 112.393C107.544 112.197 107.927 111.989 108.395 111.794C108.963 111.525 109.604 111.355 110.171 111.086C110.64 110.891 111.195 110.708 111.663 110.513C112.132 110.318 112.588 110.209 113.056 110.014C113.525 109.818 113.981 109.709 114.536 109.526L114.622 109.539C115.177 109.357 115.731 109.174 116.274 109.077C116.729 108.968 117.185 108.859 117.654 108.664C118.295 108.494 119.022 108.337 119.663 108.167C119.934 108.119 120.218 107.984 120.575 107.949C120.846 107.9 121.216 107.779 121.487 107.73C123.754 107.271 125.922 106.885 128.237 106.697C128.779 106.601 129.395 106.603 129.937 106.507C130.479 106.411 131.095 106.413 131.624 106.403C132.154 106.392 132.782 106.309 133.311 106.298C133.927 106.301 134.456 106.291 135.072 106.293C135.687 106.296 136.217 106.285 136.832 106.288C137.448 106.29 137.977 106.28 138.58 106.369C139.195 106.371 139.712 106.447 140.328 106.449C140.771 106.427 141.387 106.429 141.903 106.505Z" fill="#F18225"/>
<path d="M148.806 107.432C149.237 107.495 149.581 107.546 149.999 107.696C150.516 107.772 151.02 107.934 151.623 108.022C152.312 108.124 152.902 108.298 153.578 108.486C154.771 108.749 155.952 109.099 157.046 109.436C158.054 109.76 158.976 110.072 159.984 110.396C160.316 110.533 160.575 110.571 160.906 110.708C161.324 110.858 161.742 111.007 162.16 111.157C162.75 111.331 163.242 111.58 163.819 111.841C164.237 111.99 164.642 112.226 165.147 112.388C165.478 112.525 165.81 112.662 166.129 112.885C166.302 112.91 166.461 113.022 166.621 113.133C166.953 113.27 167.198 113.394 167.53 113.531C167.948 113.681 168.267 113.904 168.672 114.14C169.164 114.388 169.569 114.624 170.06 114.872C170.711 115.232 171.449 115.604 172.099 115.964C172.345 116.089 172.664 116.312 172.91 116.436C173.156 116.56 173.389 116.77 173.634 116.895C174.04 117.13 174.445 117.366 174.85 117.602C175.808 118.271 176.778 118.854 177.735 119.523C178.374 119.969 178.926 120.402 179.564 120.849C179.883 121.072 180.19 121.381 180.595 121.617C180.987 121.938 181.307 122.162 181.699 122.483C184.128 124.514 186.458 126.618 188.578 128.955C189.118 129.474 189.559 130.068 190.098 130.587C190.551 131.094 191.005 131.601 191.446 132.194C191.679 132.405 191.899 132.701 192.046 132.899C192.633 133.69 193.234 134.395 193.821 135.186C194.409 135.976 194.996 136.767 195.498 137.546C195.718 137.842 195.865 138.04 195.999 138.324C196.44 138.917 196.795 139.498 197.149 140.078C197.504 140.659 197.932 141.338 198.274 142.005C198.421 142.202 198.481 142.387 198.555 142.486C198.836 142.968 199.044 143.351 199.325 143.832C199.606 144.314 199.874 144.882 200.156 145.364C200.363 145.746 200.558 146.215 200.766 146.598C200.827 146.783 200.887 146.968 201.047 147.08C201.523 148.03 201.987 149.067 202.377 150.005C202.559 150.56 202.84 151.042 203.022 151.597C203.217 152.066 203.4 152.621 203.582 153.177C204.398 155.41 205.101 157.803 205.719 160.184C205.828 160.64 205.924 161.183 206.119 161.652C206.302 162.207 206.385 162.836 206.481 163.378C206.578 163.921 206.674 164.463 206.844 165.104C206.927 165.733 207.097 166.375 207.18 167.003C207.276 167.546 207.373 168.088 207.469 168.631C207.671 170.246 207.874 171.861 207.978 173.549C208.013 173.907 207.975 174.165 208.01 174.523C208.031 175.582 208.063 176.556 208.084 177.616C208.078 178.848 208.073 180.08 207.995 181.213C207.898 183.665 207.629 186.091 207.262 188.591L202.877 218.417L134.151 208.312L148.978 107.457L148.806 107.432Z" fill="#009CBB"/>
<path d="M256.508 316.831C238.759 313.077 223.696 303.025 213.573 289.296C202.555 274.466 197.243 255.544 200.145 235.804L207.064 188.738C207.242 187.531 207.432 186.238 207.696 185.044C207.784 184.441 207.959 183.85 208.048 183.247C208.299 182.139 208.55 181.031 208.874 180.022C209.023 179.603 209.087 179.172 209.236 178.754C209.262 178.582 209.373 178.422 209.411 178.163C209.561 177.745 209.71 177.327 209.773 176.896C209.786 176.809 209.811 176.637 209.91 176.563C210.06 176.145 210.209 175.727 210.359 175.308C210.384 175.136 210.495 174.976 210.508 174.89C210.658 174.472 210.82 173.967 210.969 173.549C210.982 173.463 210.982 173.463 211.081 173.389C211.243 172.885 211.479 172.479 211.641 171.974C211.653 171.888 211.666 171.802 211.765 171.728C211.902 171.396 212.051 170.978 212.188 170.646C212.325 170.314 212.462 169.982 212.598 169.649C212.611 169.563 212.624 169.477 212.71 169.49C212.859 169.071 213.108 168.579 213.343 168.174C213.703 167.522 213.989 166.772 214.349 166.12C214.486 165.788 214.709 165.468 214.846 165.136C214.97 164.89 215.081 164.731 215.205 164.485C215.428 164.165 215.578 163.747 215.801 163.427C215.813 163.341 215.912 163.268 215.925 163.181C216.148 162.862 216.383 162.456 216.606 162.137C216.718 161.977 216.829 161.817 216.941 161.658C217.176 161.252 217.412 160.846 217.734 160.453C217.734 160.453 217.746 160.367 217.833 160.38C218.167 159.9 218.415 159.408 218.75 158.929C219.071 158.536 219.32 158.044 219.641 157.651C222.403 153.83 225.483 150.232 228.858 147.03C229.673 146.269 230.476 145.594 231.292 144.834C231.7 144.453 232.108 144.073 232.589 143.791C233.195 143.264 233.886 142.749 234.578 142.234C235.269 141.72 235.875 141.192 236.554 140.764C237.035 140.482 237.443 140.102 237.924 139.82C238.405 139.539 238.813 139.158 239.295 138.877C240.171 138.301 241.134 137.738 242.01 137.163C242.01 137.163 242.109 137.089 242.195 137.102C242.676 136.82 243.072 136.526 243.54 136.331C243.935 136.037 244.404 135.841 244.873 135.646C245.44 135.377 246.02 135.022 246.588 134.753C247.056 134.558 247.439 134.35 247.908 134.155C248.006 134.081 248.191 134.02 248.29 133.947C248.759 133.752 249.141 133.544 249.524 133.336C249.992 133.14 250.375 132.932 250.843 132.737C251.411 132.468 252.052 132.298 252.619 132.03C253.088 131.834 253.643 131.652 254.111 131.456C254.58 131.261 255.036 131.152 255.504 130.957C255.973 130.761 256.429 130.652 256.984 130.47L257.07 130.482C257.625 130.3 258.179 130.117 258.722 130.021C259.178 129.912 259.633 129.802 260.102 129.607C260.743 129.437 261.47 129.28 262.111 129.11C262.382 129.062 262.666 128.927 263.023 128.892C263.294 128.843 263.664 128.722 263.935 128.674C266.202 128.214 268.37 127.829 270.685 127.641C271.227 127.544 271.843 127.547 272.385 127.45C272.927 127.354 273.543 127.356 274.072 127.346C274.602 127.336 275.23 127.252 275.759 127.242C276.375 127.244 276.904 127.234 277.52 127.236C278.135 127.239 278.665 127.228 279.28 127.231C279.896 127.233 280.425 127.223 281.028 127.312C281.643 127.314 282.16 127.39 282.776 127.393C283.391 127.395 283.908 127.471 284.511 127.56L256.68 316.857L256.508 316.831Z" fill="#009CBB"/>
<path d="M284.351 127.448L269.536 228.217L202.704 218.392L207.064 188.738C207.241 187.532 207.431 186.239 207.695 185.045C207.783 184.441 207.958 183.85 208.047 183.247C208.298 182.139 208.549 181.031 208.873 180.022C209.023 179.604 209.086 179.173 209.235 178.754C209.261 178.582 209.372 178.422 209.41 178.164C209.56 177.745 209.709 177.327 209.773 176.896C209.785 176.81 209.811 176.637 209.909 176.564C210.059 176.145 210.208 175.727 210.358 175.309C210.383 175.136 210.495 174.977 210.507 174.89C210.657 174.472 210.819 173.967 210.969 173.549C210.981 173.463 210.981 173.463 211.08 173.389C211.242 172.885 211.478 172.479 211.64 171.975C211.653 171.888 211.665 171.802 211.764 171.729C211.901 171.397 212.05 170.978 212.187 170.646C212.324 170.314 212.461 169.982 212.598 169.65C212.61 169.563 212.623 169.477 212.709 169.49C212.859 169.072 213.107 168.58 213.343 168.174C213.702 167.522 213.989 166.772 214.348 166.12C214.485 165.788 214.708 165.469 214.845 165.136C214.969 164.891 215.081 164.731 215.205 164.485C215.428 164.165 215.577 163.747 215.8 163.428C215.813 163.341 215.911 163.268 215.924 163.182C216.147 162.862 216.383 162.456 216.606 162.137C216.717 161.977 216.829 161.817 216.94 161.658C217.176 161.252 217.411 160.846 217.733 160.453C217.733 160.453 217.746 160.367 217.832 160.38C218.166 159.901 218.415 159.409 218.749 158.929C219.071 158.536 219.319 158.045 219.641 157.652C222.402 153.83 225.483 150.232 228.857 147.03C229.673 146.269 230.476 145.595 231.291 144.834C231.699 144.454 232.107 144.073 232.588 143.792C233.194 143.264 233.885 142.749 234.577 142.235C235.269 141.72 235.874 141.192 236.553 140.764C237.034 140.482 237.442 140.102 237.923 139.821C238.405 139.539 238.813 139.159 239.294 138.877C240.17 138.302 241.133 137.739 242.01 137.163C242.01 137.163 242.108 137.089 242.194 137.102C242.676 136.821 243.071 136.526 243.54 136.331C243.935 136.037 244.403 135.842 244.872 135.646C245.439 135.378 246.02 135.022 246.587 134.754C247.056 134.558 247.438 134.35 247.907 134.155C248.006 134.082 248.19 134.021 248.289 133.947C248.758 133.752 249.14 133.544 249.523 133.336C249.992 133.141 250.374 132.933 250.843 132.737C251.41 132.469 252.051 132.299 252.618 132.03C253.087 131.834 253.642 131.652 254.11 131.457C254.579 131.261 255.035 131.152 255.504 130.957C255.972 130.762 256.428 130.652 256.983 130.47L257.069 130.483C257.624 130.3 258.179 130.117 258.721 130.021C259.177 129.912 259.633 129.803 260.101 129.607C260.742 129.437 261.469 129.28 262.11 129.11C262.381 129.062 262.665 128.927 263.022 128.892C263.293 128.844 263.663 128.722 263.934 128.674C266.201 128.214 268.369 127.829 270.685 127.641C271.227 127.544 271.842 127.547 272.384 127.45C272.926 127.354 273.542 127.356 274.071 127.346C274.601 127.336 275.229 127.252 275.758 127.242C276.374 127.244 276.903 127.234 277.519 127.236C278.134 127.239 278.664 127.229 279.279 127.231C279.895 127.234 280.424 127.223 281.027 127.312C281.643 127.314 282.159 127.39 282.775 127.393C283.218 127.37 283.834 127.372 284.351 127.448Z" fill="#F18225"/>
<rect x="131.125" y="287.32" width="21.0918" height="171.414" transform="rotate(-171.636 131.125 287.32)" fill="white" stroke="#009CBB" stroke-width="1.5"/>
<rect x="199.484" y="220.961" width="21.0918" height="58.4551" transform="rotate(-81.6363 199.484 220.961)" fill="white" stroke="#009CBB" stroke-width="1.5"/>
<rect x="57.6382" y="200.107" width="21.0918" height="146.476" transform="rotate(-81.6363 57.6382 200.107)" fill="white" stroke="#009CBB" stroke-width="1.5"/>
<rect x="6.05717" y="192.524" width="21.0918" height="54.1105" transform="rotate(-81.6363 6.05717 192.524)" fill="white" stroke="#009CBB" stroke-width="1.5"/>
</g>
</g>
<g clip-path="url(#clip1_1096_2279)">
<path d="M312.822 71.6728L323.646 217.769C324.268 226.158 317.931 233.492 309.513 234.116L73.7519 251.584C65.3341 252.207 57.9856 245.887 57.364 237.498L46.5396 91.4019C45.918 83.0125 52.2549 75.6787 60.6727 75.055L296.434 57.5872C304.852 56.9636 312.2 63.2833 312.822 71.6728Z" fill="white" stroke="#2B4554" stroke-width="1.5"/>
<path d="M303.296 82.2392C298.541 82.5914 293.787 82.9437 289.033 83.2959C289.026 83.199 289.026 83.199 289.019 83.1021C288.818 80.3894 288.617 77.6767 288.416 74.964C288.208 72.1544 290.059 69.4845 292.836 68.7916C293.127 68.7701 293.314 68.6588 293.605 68.6372C294.576 68.5653 295.546 68.4935 296.419 68.4288C299.039 68.2347 301.511 69.9998 302.287 72.5725C302.412 72.9528 302.448 73.4372 302.574 73.8176C302.775 76.5303 302.976 79.243 303.177 81.9557C303.288 82.1423 303.288 82.1423 303.296 82.2392ZM298.51 78.2101C298.502 78.1133 298.502 78.1133 298.502 78.1133C298.409 76.8538 298.316 75.5943 298.222 74.3348C298.158 73.4629 297.436 72.9319 296.659 72.9894C295.883 73.0469 295.107 73.1045 294.331 73.162C293.458 73.2267 292.829 73.9551 292.893 74.8271C292.987 76.0866 293.073 77.2492 293.166 78.5086C293.173 78.6055 293.173 78.6055 293.18 78.7024C294.92 78.4761 296.763 78.3395 298.51 78.2101Z" fill="#4C7B96"/>
<path d="M303.496 84.952C303.504 85.0488 303.504 85.0489 303.511 85.1457C303.712 87.8584 303.92 90.668 304.121 93.3807C304.3 95.8028 303.003 98.042 300.836 99.0793C300.178 99.4203 299.409 99.5747 298.73 99.625C297.857 99.6897 296.984 99.7544 296.111 99.8191C293.297 100.028 290.728 98.2696 290.034 95.496C289.909 95.1156 289.873 94.6312 289.844 94.2437C289.751 92.9842 289.665 91.8216 289.571 90.5622C289.564 90.4653 289.564 90.4653 289.557 90.3684C287.713 90.505 285.87 90.6416 284.027 90.7781C283.919 89.3249 283.811 87.8717 283.704 86.4184C290.204 85.9368 296.802 85.448 303.496 84.952ZM293.826 90.0521L293.833 90.149C293.934 91.5053 294.027 92.7648 294.127 94.1212C294.192 94.9931 294.914 95.5241 295.69 95.4666C296.564 95.4019 297.34 95.3444 298.213 95.2797C298.989 95.2222 299.722 94.5834 299.651 93.6145C299.557 92.3551 299.464 91.0956 299.371 89.8361C299.363 89.7392 299.363 89.7392 299.356 89.6423C297.513 89.7789 295.669 89.9155 293.826 90.0521Z" fill="#4C7B96"/>
</g>
<g clip-path="url(#clip2_1096_2279)">
<path d="M339.606 16.7362L366.912 160.665C368.48 168.93 363.015 176.935 354.722 178.508L122.457 222.573C114.164 224.146 106.147 218.7 104.579 210.435L77.2734 66.5053C75.7054 58.2403 81.1707 50.2359 89.4636 48.6626L321.728 4.59792C330.021 3.0246 338.038 8.47118 339.606 16.7362Z" fill="white" stroke="#2B4554" stroke-width="1.5"/>
</g>
<defs>
<clipPath id="clip0_1096_2279">
<rect width="163.356" height="243.296" fill="white" transform="translate(0 264.408) rotate(-81.6363)"/>
</clipPath>
<clipPath id="clip1_1096_2279">
<rect width="180" height="270" fill="white" transform="translate(57.1123 254.314) rotate(-94.2374)"/>
</clipPath>
<clipPath id="clip2_1096_2279">
<rect width="180" height="270" fill="white" transform="translate(106.234 227.172) rotate(-100.742)"/>
</clipPath>
</defs>
</svg>
